<?xml version="1.0" standalone="no"?>
<!DOCTYPE svg PUBLIC "-//W3C//DTD SVG 1.1//EN" "http://www.w3.org/Graphics/SVG/1.1/DTD/svg11.dtd" >
<svg xmlns="http://www.w3.org/2000/svg" xmlns:xlink="http://www.w3.org/1999/xlink" version="1.1">
<metadata>
Created by FontForge 20170731 at Tue Apr 18 17:17:44 2023
 By Aleksey,,,
(c) 2014 Adobe Systems Incorporated. All Rights Reserved.
</metadata>
<defs>
<font id="AcuminProCond-Bold" horiz-adv-x="819" >
  <font-face 
    font-family="Acumin Pro Condensed"
    font-weight="700"
    font-stretch="condensed"
    units-per-em="2048"
    panose-1="2 11 8 6 2 2 2 2 2 4"
    ascent="1505"
    descent="-543"
    x-height="1061"
    cap-height="1386"
    bbox="-362 -535 2048 2058"
    underline-thickness="102"
    underline-position="-307"
    unicode-range="U+0020-FB02"
  />
<missing-glyph horiz-adv-x="1024" 
d="M0 0v1434h1024v-1434h-1024zM512 809l348 522h-696zM573 717l349 -522v1044zM164 102h696l-348 523zM102 1239v-1044l349 522z" />
    <glyph glyph-name="f_f" unicode="ff" horiz-adv-x="991" 
d="M618 860h-243v-860h-244v860h-123v201h123v100q0 143 68 225t217 82q58 0 104 -12l-8 -203q-31 7 -51 7q-50 0 -68 -28t-18 -85v-86h243v94q0 144 68.5 228.5t218.5 84.5q68 0 103 -12l-9 -201q-45 5 -51 5q-86 0 -86 -117v-82h152v-201h-152v-860h-244v860z" />
    <glyph glyph-name=".notdef" horiz-adv-x="1024" 
d="M0 0v1434h1024v-1434h-1024zM512 809l348 522h-696zM573 717l349 -522v1044zM164 102h696l-348 523zM102 1239v-1044l349 522z" />
    <glyph glyph-name=".null" horiz-adv-x="0" 
 />
    <glyph glyph-name="nonmarkingreturn" horiz-adv-x="682" 
 />
    <glyph glyph-name="space" unicode=" " horiz-adv-x="380" 
 />
    <glyph glyph-name="exclam" unicode="!" horiz-adv-x="526" 
d="M403 494h-210l-25 657v235h262v-235zM416 0h-242v289h242v-289z" />
    <glyph glyph-name="quotedbl" unicode="&#x22;" horiz-adv-x="655" 
d="M258 920h-168l-20 346v188h209v-188zM563 920h-168l-18 346v188h209v-188z" />
    <glyph glyph-name="numbersign" unicode="#" horiz-adv-x="960" 
d="M434 0l68 379h-164l-68 -379h-170l68 379h-123v190h158l45 256h-137v185h170l61 338h166l-59 -338h165l60 338h168l-60 -338h123v-185h-155l-45 -256h137v-190h-170l-68 -379h-170zM535 569l47 256h-166l-45 -256h164z" />
    <glyph glyph-name="dollar" unicode="$" horiz-adv-x="903" 
d="M532 -154h-176v148q-306 39 -313 389h229q5 -97 44 -151t130 -54q74 0 114 43.5t40 122.5q0 82 -41 132t-153 99q-130 57 -202 111.5t-107.5 128.5t-35.5 182q0 144 80.5 237.5t214.5 115.5v106h176v-108q271 -43 281 -359h-225q-7 180 -156 180q-69 0 -104 -41t-35 -112
t47.5 -118.5t175.5 -104.5q175 -74 247.5 -171t72.5 -249q0 -157 -76.5 -255t-227.5 -122v-150z" />
    <glyph glyph-name="percent" unicode="%" horiz-adv-x="1470" 
d="M348 1364q133 0 208 -94.5t75 -290.5q0 -190 -73.5 -290.5t-211.5 -102.5q-283 0 -283 389q0 189 76.5 289t208.5 100zM348 1206q-52 0 -77 -53.5t-25 -175.5t24 -178t78 -56q103 0 103 236q0 122 -24 174.5t-79 52.5zM446 0h-153l721 1348h157zM1122 758
q134 0 208.5 -94t74.5 -289q0 -191 -73 -292.5t-212 -102.5q-280 0 -280 389q0 190 75 289.5t207 99.5zM1122 600q-52 0 -77 -53.5t-25 -175.5q0 -121 24 -177.5t78 -56.5q105 0 105 236q0 122 -24 174.5t-81 52.5z" />
    <glyph glyph-name="ampersand" unicode="&#x26;" horiz-adv-x="1224" 
d="M459 193q51 0 88 26.5t80 93.5l-232 285q-86 -83 -86 -205q0 -95 39 -147.5t111 -52.5zM913 829h244l-266 -467l297 -362h-307l-121 150q-63 -85 -137 -126.5t-189 -41.5q-176 0 -271 102.5t-95 282.5q0 119 49 203.5t168 168.5q-65 91 -96 164t-31 162q0 64 20.5 123
t60 108t105 78t148.5 29q154 0 241.5 -89t87.5 -227q0 -119 -52.5 -199t-176.5 -161l160 -195zM492 1217q-50 0 -77.5 -39t-27.5 -101q0 -53 22 -102t74 -111q64 48 89.5 97.5t25.5 119.5q0 136 -106 136z" />
    <glyph glyph-name="quotesingle" unicode="'" horiz-adv-x="360" 
d="M270 918h-180l-20 348v188h221v-190z" />
    <glyph glyph-name="parenleft" unicode="(" horiz-adv-x="634" 
d="M362 1462h222q-262 -400 -262 -860q0 -474 262 -883h-222q-112 163 -184 388t-72 497q0 477 256 858z" />
    <glyph glyph-name="parenright" unicode=")" horiz-adv-x="634" 
d="M272 -281h-221q260 400 260 861q0 471 -260 882h221q112 -165 184 -389t72 -495q0 -472 -256 -859z" />
    <glyph glyph-name="asterisk" unicode="*" horiz-adv-x="716" 
d="M274 1386h162l-24 -239l184 143l86 -141l-217 -100l211 -97l-82 -143l-182 143l26 -237h-164l27 235l-186 -141l-82 145l209 97l-207 94l86 145l178 -143z" />
    <glyph glyph-name="plus" unicode="+" horiz-adv-x="1114" 
d="M465 977h188v-371h355v-184h-355v-375h-188v375h-356v184h356v371z" />
    <glyph glyph-name="comma" unicode="," horiz-adv-x="411" 
d="M201 -217h-193q51 143 83.5 291t37.5 239h231q-13 -143 -57.5 -288.5t-101.5 -241.5z" />
    <glyph glyph-name="hyphen" unicode="-" horiz-adv-x="575" 
d="M63 641h449v-211h-449v211z" />
    <glyph glyph-name="period" unicode="." horiz-adv-x="395" 
d="M322 0h-250v313h250v-313z" />
    <glyph glyph-name="slash" unicode="/" horiz-adv-x="684" 
d="M233 -41h-184l402 1436h182z" />
    <glyph glyph-name="zero" unicode="0" horiz-adv-x="942" 
d="M475 1364q97 0 166 -32.5t121 -108.5t77 -209.5t25 -327.5q0 -260 -41.5 -414t-126.5 -222t-227 -68q-140 0 -225.5 70.5t-126.5 224.5t-41 409q0 160 19.5 279.5t53.5 195t85.5 121.5t109 64t131.5 18zM471 1159q-88 0 -118.5 -103t-30.5 -362q0 -92 2 -155t7 -125.5
t15.5 -101.5t27 -70t40.5 -44.5t57 -13.5q28 0 49.5 10.5t37 29.5t26.5 52.5t17.5 71t10 94t5 113t1.5 135.5q0 277 -27 373t-120 96z" />
    <glyph glyph-name="one" unicode="1" horiz-adv-x="563" 
d="M434 0h-244v1067q-76 -9 -147 -2v184q69 10 132 39.5t97 63.5h162v-1352z" />
    <glyph glyph-name="two" unicode="2" horiz-adv-x="849" 
d="M795 0h-750v14q1 165 71 302t232 319q87 98 122 145t53 97t18 118q0 84 -26 128t-95 44q-74 0 -103 -54.5t-32 -164.5h-238q1 84 21 155t62 131.5t117.5 95t178.5 34.5q187 0 276 -100.5t89 -276.5q0 -122 -42 -208t-171 -222q-212 -226 -250 -348h497z" />
    <glyph glyph-name="three" unicode="3" horiz-adv-x="890" 
d="M293 983h-223q0 72 17.5 135t56.5 120.5t114 91.5t178 34q176 0 263 -91.5t87 -254.5q0 -222 -161 -281v-4q202 -67 202 -323q0 -428 -399 -428q-185 0 -278.5 98.5t-98.5 271.5h236q12 -178 147 -178q81 0 114.5 57.5t33.5 171.5q0 118 -45 166.5t-162 48.5h-62v201h56
q98 0 137 38.5t39 143.5q0 82 -26.5 124t-96.5 42q-120 0 -129 -184z" />
    <glyph glyph-name="four" unicode="4" horiz-adv-x="901" 
d="M750 0h-226v319h-475v201l387 828h314v-830h122l-20 -199h-102v-319zM524 518v277q0 142 8 364q-50 -159 -258 -641h250z" />
    <glyph glyph-name="five" unicode="5" horiz-adv-x="913" 
d="M805 1348l-27 -211h-418q-3 -38 -9 -96.5t-12.5 -120t-8.5 -80.5q60 63 192 63q162 0 246 -114t84 -304q0 -503 -408 -503q-185 0 -278 101t-98 273h241q12 -180 142 -180q38 0 65.5 14t43.5 37.5t26 60.5t13 75t3 90q0 132 -31.5 193t-117.5 61q-63 0 -94 -35.5
t-52 -102.5l-223 31q18 117 42 360t34 388h645z" />
    <glyph glyph-name="six" unicode="6" horiz-adv-x="919" 
d="M834 1038h-230q-3 21 -5 31.5t-10.5 33t-20.5 35t-35.5 23t-55.5 10.5q-31 0 -56 -13.5t-41 -32.5t-27.5 -54t-18 -62.5t-10.5 -74.5t-5 -74t-2 -76q75 113 222 113t233 -108.5t86 -317.5q0 -105 -21 -191t-66 -154.5t-122.5 -106t-183.5 -37.5q-92 0 -160.5 31t-112 85
t-70 136.5t-36.5 175.5t-10 213q0 143 11.5 253.5t40.5 204.5t75.5 154.5t118 94.5t167.5 34q79 0 140.5 -22t98 -55.5t61 -78.5t34 -86t11.5 -84zM467 172q147 0 147 272q0 139 -33.5 196.5t-115.5 57.5q-150 0 -150 -223q0 -303 152 -303z" />
    <glyph glyph-name="seven" unicode="7" horiz-adv-x="745" 
d="M10 1348h717v-193q-131 -227 -228.5 -533t-136.5 -622h-258q41 311 149 619.5t230 517.5h-473v211z" />
    <glyph glyph-name="eight" unicode="8" horiz-adv-x="917" 
d="M449 -18q-184 0 -283.5 107t-99.5 300q0 69 15.5 126.5t42 95.5t53 62.5t54.5 39.5q-131 87 -131 282q0 168 96 267.5t271 99.5q163 0 258.5 -90.5t95.5 -257.5q0 -224 -135 -299q164 -76 164 -330q0 -185 -103 -294t-298 -109zM461 172q147 0 147 221q0 116 -37 167.5
t-114 51.5q-76 0 -112 -54t-36 -165q0 -221 152 -221zM459 1174q-65 0 -97 -47.5t-32 -129.5q0 -98 31.5 -144t99.5 -46q67 0 98 45.5t31 138.5q0 183 -131 183z" />
    <glyph glyph-name="nine" unicode="9" horiz-adv-x="915" 
d="M76 301h235q4 -24 9.5 -42t19 -39.5t38.5 -33.5t60 -12q37 0 64.5 21t44 57t27 78t14.5 92t6 89.5t2 79.5v10.5v8.5q-57 -100 -207 -100q-151 0 -239.5 102.5t-88.5 298.5q0 211 100 332t288 121q204 0 296.5 -136.5t92.5 -445.5q0 -181 -13.5 -312t-43 -226.5
t-78.5 -152.5t-117 -84t-162 -27q-66 0 -120 14.5t-89 38t-61 54t-40 61.5t-22.5 61t-11.5 52t-4 35v5zM451 1165q-146 0 -146 -229q0 -231 150 -231q141 0 141 210q0 123 -30 186.5t-115 63.5z" />
    <glyph glyph-name="colon" unicode=":" horiz-adv-x="489" 
d="M360 0h-231v313h231v-313zM360 711h-231v313h231v-313z" />
    <glyph glyph-name="semicolon" unicode=";" horiz-adv-x="514" 
d="M215 -217h-192q48 115 80 277t38 253h232q-10 -140 -55 -288t-103 -242zM387 711h-233v313h233v-313z" />
    <glyph glyph-name="less" unicode="&#x3c;" horiz-adv-x="915" 
d="M111 422v184l694 369v-201l-514 -258l514 -260v-207z" />
    <glyph glyph-name="equal" unicode="=" horiz-adv-x="1114" 
d="M106 403h900v-184h-900v184zM106 807h900v-184h-900v184z" />
    <glyph glyph-name="greater" unicode="&#x3e;" horiz-adv-x="915" 
d="M805 602v-184l-694 -369v203l514 258l-514 260v205z" />
    <glyph glyph-name="question" unicode="?" horiz-adv-x="837" 
d="M549 432h-248v33q0 94 32 173.5t113 184.5q53 69 77 123.5t24 118.5q0 145 -113 145q-64 0 -92 -45t-33 -131h-225q1 75 20.5 138.5t60.5 116.5t112.5 83.5t166.5 30.5q97 -1 166.5 -28.5t107 -76.5t54 -106.5t16.5 -128.5q0 -106 -32 -182.5t-119 -192.5
q-48 -63 -68 -118.5t-20 -118.5v-19zM549 0h-248v315h248v-315z" />
    <glyph glyph-name="at" unicode="@" horiz-adv-x="1495" 
d="M1063 -96l45 -150q-139 -98 -383 -98q-312 0 -476.5 201t-164.5 579q0 141 26 267.5t82 236t136.5 188.5t195.5 124.5t254 45.5q297 0 466 -175.5t169 -493.5q0 -186 -39.5 -321.5t-121 -212.5t-199.5 -77q-150 0 -189 121q-69 -121 -215 -121q-213 0 -213 312
q0 286 78 447t211 161q67 0 106.5 -27.5t49.5 -66.5l8 76h201l-74 -594q-8 -67 6.5 -100t58.5 -33q41 0 73.5 36.5t51.5 97t29 132t10 147.5q0 531 -469 531q-107 0 -193 -37t-144 -101t-96.5 -153.5t-55.5 -191.5t-17 -218q0 -131 24 -236t76.5 -191t146.5 -133.5
t224 -47.5q171 0 322 76zM778 748q-41 0 -70 -46.5t-42 -118t-18 -130t-5 -109.5q0 -70 17.5 -101.5t54.5 -31.5q33 0 53.5 23t37.5 86t32 184q20 132 7 188t-67 56z" />
    <glyph glyph-name="A" unicode="A" horiz-adv-x="987" 
d="M649 348h-321l-70 -348h-248l322 1386h321l324 -1386h-260zM371 563h233q-21 109 -61.5 314.5t-53.5 277.5h-6q-6 -45 -18.5 -116.5t-23 -124.5t-35 -175t-35.5 -176z" />
    <glyph glyph-name="B" unicode="B" horiz-adv-x="1024" 
d="M119 0v1386h422q180 0 276 -93t96 -259q0 -120 -46 -192t-113 -97q200 -80 200 -337q0 -194 -114 -301t-303 -107h-418zM362 834h119q111 0 153 42t42 136q0 176 -187 176h-127v-354zM362 639v-446h148q195 0 195 219q0 112 -52.5 169.5t-169.5 57.5h-121z" />
    <glyph glyph-name="C" unicode="C" horiz-adv-x="978" 
d="M684 403h246q-2 -21 -3.5 -34t-7.5 -48t-14.5 -61t-24.5 -64t-36.5 -66t-52.5 -59t-70.5 -50.5t-91.5 -32.5t-115 -13q-65 0 -119 12.5t-95.5 34.5t-75 56.5t-56.5 73t-40.5 89.5t-27.5 100.5t-16 111.5t-8 117.5t-2 123.5q0 348 109 530.5t345 182.5q76 0 137.5 -18.5
t102 -46t71 -69t46.5 -77.5t26.5 -82.5t13.5 -73.5t5 -59h-246q-7 83 -21 120q-39 96 -139 97q-57 0 -96 -33.5t-60 -102.5t-29.5 -157.5t-8.5 -214.5q0 -110 7 -191.5t26 -158.5t58 -117.5t97 -40.5q142 0 165 215q1 4 1 6z" />
    <glyph glyph-name="D" unicode="D" horiz-adv-x="1050" 
d="M121 0v1386h360q261 0 378.5 -165t117.5 -500q0 -364 -118.5 -542.5t-395.5 -178.5h-342zM371 1180v-977h88q145 0 203.5 118t58.5 400q0 245 -56.5 352t-203.5 107h-90z" />
    <glyph glyph-name="E" unicode="E" horiz-adv-x="901" 
d="M811 831v-215h-446v-403h499l-30 -213h-713v1386h710v-217h-466v-338h446z" />
    <glyph glyph-name="F" unicode="F" horiz-adv-x="874" 
d="M121 0v1386h713v-217h-467v-356h440v-215h-440v-598h-246z" />
    <glyph glyph-name="G" unicode="G" horiz-adv-x="1038" 
d="M944 778v-778h-188q-11 81 -13 119q-43 -79 -111 -111.5t-163 -32.5q-211 0 -303 178.5t-92 530.5q0 723 469 723q77 0 140 -18.5t103 -46t70 -69t45.5 -76t25 -78.5t12 -66t3.5 -49h-244q-14 194 -163 194q-58 0 -99 -37t-63.5 -108t-32.5 -160.5t-10 -208.5
q0 -128 8.5 -215.5t30 -154.5t60.5 -98.5t97 -31.5q95 0 133.5 73t38.5 232v78h-186v211h432z" />
    <glyph glyph-name="H" unicode="H" horiz-adv-x="1073" 
d="M121 0v1386h248v-548h333v548h250v-1386h-250v623h-333v-623h-248z" />
    <glyph glyph-name="I" unicode="I" horiz-adv-x="493" 
d="M121 1386h248v-1386h-248v1386z" />
    <glyph glyph-name="J" unicode="J" horiz-adv-x="593" 
d="M487 1386v-1021q0 -74 -8 -128.5t-29.5 -104.5t-58 -81.5t-95.5 -50t-140 -18.5q-71 0 -133 12v205q69 -6 88 -6q78 0 102.5 36t24.5 123v1034h249z" />
    <glyph glyph-name="K" unicode="K" horiz-adv-x="993" 
d="M121 0v1386h244v-622q34 55 170 289.5t196 332.5h287l-359 -542l365 -844h-274l-261 637l-124 -176v-461h-244z" />
    <glyph glyph-name="L" unicode="L" horiz-adv-x="847" 
d="M121 0v1386h248v-1175h475l-25 -211h-698z" />
    <glyph glyph-name="M" unicode="M" horiz-adv-x="1329" 
d="M973 0v516q0 348 8 664h-6q-3 -15 -50.5 -287.5t-86 -481.5t-78.5 -411h-223q-181 1110 -193 1184h-8q14 -284 14 -692v-492h-225v1386h371q101 -535 163 -972h3q17 112 186 972h362v-1386h-237z" />
    <glyph glyph-name="N" unicode="N" horiz-adv-x="1093" 
d="M344 0h-223v1386h280q322 -860 346 -936q9 -26 13 -44h2q-12 199 -12 598v382h223v-1386h-271q-338 929 -366 1028h-2q10 -172 10 -625v-403z" />
    <glyph glyph-name="O" unicode="O" horiz-adv-x="1048" 
d="M528 1407q228 0 337.5 -172.5t109.5 -532.5q0 -380 -109 -553.5t-348 -173.5q-227 0 -335.5 175t-108.5 557q0 185 30.5 320t90 218t142 122.5t191.5 39.5zM524 1198q-55 0 -93.5 -32t-61 -97t-32 -152.5t-9.5 -207.5q0 -259 45.5 -392t150.5 -133q57 0 95.5 32.5
t61 101.5t31.5 162.5t9 228.5q0 252 -44 370.5t-153 118.5z" />
    <glyph glyph-name="P" unicode="P" horiz-adv-x="983" 
d="M121 0v1386h416q179 0 290 -106.5t111 -306.5q0 -198 -110 -304t-310 -106h-149v-563h-248zM369 1186v-424h120q103 0 151 52.5t48 162.5q0 102 -48.5 155.5t-135.5 53.5h-135z" />
    <glyph glyph-name="Q" unicode="Q" horiz-adv-x="1048" 
d="M528 1407q228 0 337.5 -172.5t109.5 -532.5q0 -381 -111 -555l215 -163l-141 -170l-250 188q-74 -27 -170 -27q-227 0 -335.5 175t-108.5 557q0 185 30.5 320t90 218t142 122.5t191.5 39.5zM524 1198q-55 0 -93.5 -32t-61 -97t-32 -152.5t-9.5 -207.5q0 -259 45.5 -392
t150.5 -133q57 0 95.5 32.5t61 101.5t31.5 162.5t9 228.5q0 252 -44 370.5t-153 118.5z" />
    <glyph glyph-name="R" unicode="R" horiz-adv-x="1007" 
d="M473 592h-106v-592h-246v1386h424q190 0 292.5 -97t102.5 -281q0 -71 -17.5 -129t-46 -94.5t-57 -58.5t-59.5 -34q55 -26 88.5 -67t51.5 -109.5t18 -169.5v-55q0 -158 18 -291h-240q-22 69 -22 293v49q0 142 -42 196t-159 54zM367 1186v-393h116q111 0 160 48.5t49 153.5
q0 191 -184 191h-141z" />
    <glyph glyph-name="S" unicode="S" horiz-adv-x="954" 
d="M45 387h246q22 -215 186 -215q86 0 126 48.5t40 131.5q0 86 -50 143.5t-179 118.5q-183 87 -257.5 177.5t-74.5 242.5q0 169 104.5 271t288.5 102q90 0 160 -24t112.5 -61.5t70 -90.5t38.5 -105t12 -110h-243q-2 29 -6 52t-14.5 51.5t-26 47.5t-43.5 32t-64 13
q-71 0 -106 -42t-35 -115q0 -75 42.5 -121t164.5 -103q97 -45 161.5 -87.5t111 -96.5t67 -120t20.5 -152q0 -84 -26 -155.5t-77.5 -126.5t-134.5 -86.5t-190 -31.5q-115 0 -199 34.5t-130.5 95t-69 130t-25.5 152.5z" />
    <glyph glyph-name="T" unicode="T" horiz-adv-x="862" 
d="M307 0v1169h-297v217h842v-217h-297v-1169h-248z" />
    <glyph glyph-name="U" unicode="U" horiz-adv-x="1073" 
d="M109 1386h247v-954q0 -248 183 -248q53 0 89.5 19t55 55t26 77t7.5 95v956h248v-960q0 -451 -430 -451q-120 0 -205 33t-132.5 96t-68 141t-20.5 181v960z" />
    <glyph glyph-name="V" unicode="V" horiz-adv-x="983" 
d="M635 0h-291l-344 1386h268l127 -587q69 -315 94 -535h5q6 49 19 119.5t24.5 125.5t32.5 147.5t30 136.5l123 593h260z" />
    <glyph glyph-name="W" unicode="W" horiz-adv-x="1454" 
d="M532 0h-245l-264 1386h266q117 -784 137 -1040h2q24 155 102 555.5t93 484.5h221q6 -33 57 -297.5t82 -438t47 -292.5h4q18 166 78 553t72 475h248l-283 -1386h-246q-17 95 -58.5 305t-73.5 382t-48 290h-4q-14 -94 -39.5 -234.5t-47.5 -250t-55 -271.5t-45 -221z" />
    <glyph glyph-name="X" unicode="X" horiz-adv-x="911" 
d="M934 0h-283l-205 510h-2l-208 -510h-261l332 709l-321 677h282l193 -460l2 2l190 458h262l-317 -653z" />
    <glyph glyph-name="Y" unicode="Y" horiz-adv-x="927" 
d="M588 0h-250v489q0 25 -8 46l-350 851h276q174 -484 215 -636q23 76 59 183t84.5 246t71.5 207h262l-352 -854q-8 -20 -8 -47v-485z" />
    <glyph glyph-name="Z" unicode="Z" horiz-adv-x="899" 
d="M37 0v172l541 997h-498v217h768v-198l-520 -973h546l-32 -215h-805z" />
    <glyph glyph-name="bracketleft" unicode="[" horiz-adv-x="593" 
d="M539 -281h-418v1741h418v-178h-224v-1384h224v-179z" />
    <glyph glyph-name="backslash" unicode="\" horiz-adv-x="684" 
d="M449 -41l-400 1436h182l402 -1436h-184z" />
    <glyph glyph-name="bracketright" unicode="]" horiz-adv-x="593" 
d="M57 1460h418v-1741h-418v179h224v1384h-224v178z" />
    <glyph glyph-name="asciicircum" unicode="^" horiz-adv-x="786" 
d="M758 666h-183l-190 497l-176 -497h-182l272 682h184z" />
    <glyph glyph-name="underscore" unicode="_" horiz-adv-x="1064" 
d="M0 -160h1065v-104h-1065v104z" />
    <glyph glyph-name="grave" unicode="`" 
d="M70 1468h288l193 -278h-213z" />
    <glyph glyph-name="a" unicode="a" horiz-adv-x="913" 
d="M803 772v-541q0 -137 8 -231h-221q-10 50 -10 98q-70 -116 -240 -116q-73 0 -129.5 27t-89 73t-48.5 100t-16 113q0 164 109.5 257t308.5 93q63 0 88 -2v115q0 22 -1.5 38t-8 35.5t-18.5 32t-33.5 21t-52.5 8.5q-37 0 -60.5 -10.5t-35 -32.5t-16 -42t-7.5 -52h-234
q1 50 11.5 93.5t36 86.5t65 73.5t103.5 49t147 18.5q344 0 344 -305zM569 430v35q-27 4 -80 4q-99 0 -144.5 -41.5t-45.5 -110.5q0 -55 30 -96t93 -41q88 0 117.5 60.5t29.5 189.5z" />
    <glyph glyph-name="b" unicode="b" horiz-adv-x="954" 
d="M109 299v1155h243v-500q69 123 236 123q309 0 309 -518q0 -132 -17.5 -233t-56 -180.5t-106 -121.5t-162.5 -42q-49 0 -86 10.5t-61 30.5t-37 37t-27 42q0 -40 -4 -102h-234q3 105 3 299zM651 555q0 164 -31 239.5t-116 75.5q-89 0 -124.5 -76t-35.5 -270
q0 -188 32.5 -262t117.5 -74q86 0 121.5 86t35.5 281z" />
    <glyph glyph-name="c" unicode="c" horiz-adv-x="854" 
d="M575 358h238q-1 -26 -3.5 -48t-11.5 -63t-23.5 -73t-43 -70t-66.5 -63t-96.5 -42t-130.5 -17q-89 0 -156 28.5t-109 77t-68 121t-36 152t-10 178.5q0 88 12 164.5t41 146.5t73 120t112.5 79.5t155.5 29.5q71 0 128.5 -17.5t94 -42.5t63.5 -63t40.5 -69.5t21.5 -71
t9.5 -58.5t2.5 -42h-248q-1 22 -2 34.5t-7.5 40.5t-17.5 44.5t-33.5 30.5t-53.5 14q-79 0 -111.5 -84.5t-32.5 -257.5q0 -179 31.5 -266t107.5 -87q28 0 49 8t34.5 25t22 30.5t13.5 40t6 36t4 34.5z" />
    <glyph glyph-name="d" unicode="d" horiz-adv-x="952" 
d="M602 1454h246v-1159q0 -234 2 -295h-236q-8 54 -8 113q-53 -131 -235 -131q-163 0 -238.5 141t-75.5 416q0 254 87.5 396t267.5 142q150 0 190 -82v459zM307 535q0 -183 35.5 -265t112.5 -82q92 0 123.5 78t31.5 277q0 192 -27 259.5t-118 67.5q-79 0 -118.5 -74.5
t-39.5 -260.5z" />
    <glyph glyph-name="e" unicode="e" horiz-adv-x="897" 
d="M836 467h-533q0 -59 5 -103t20 -89t47 -69t80 -24q35 0 61.5 12t40 26t24 38.5t12.5 34.5t5 29h233q-28 -234 -206 -310q-74 -32 -172 -32q-72 0 -130 17t-98.5 46t-71 72.5t-48 89.5t-28.5 105t-14.5 111.5t-3.5 115.5q0 257 100.5 398.5t297.5 141.5q90 0 157.5 -26.5
t110 -71.5t69 -111t36.5 -137.5t10 -159.5q0 -68 -4 -104zM307 643h291q0 47 -4.5 82t-17.5 73.5t-43 59.5t-76 21q-150 0 -150 -236z" />
    <glyph glyph-name="f" unicode="f" horiz-adv-x="505" 
d="M375 0h-244v860h-123v201h123v102q0 141 70 223t221 82q54 0 100 -12v-205q-40 9 -57 9q-51 0 -70.5 -27.5t-19.5 -85.5v-86h151v-201h-151v-860z" />
    <glyph glyph-name="g" unicode="g" horiz-adv-x="958" 
d="M850 741v-655q0 -118 -19.5 -203.5t-64.5 -151t-126 -98t-198 -32.5q-87 0 -154 20t-106.5 50.5t-65 73t-35 81.5t-11.5 82h243q2 -19 6.5 -32t17.5 -33.5t42 -32t72 -11.5q94 0 125.5 67.5t31.5 219.5v47q-60 -125 -227 -125q-164 0 -243 133.5t-79 376.5q0 269 91 414
t253 145q93 0 141 -33t64 -77q3 47 10 94h234q-2 -66 -2 -320zM311 524q0 -160 38 -235.5t114 -75.5q45 0 75 21t46 67.5t22 106t6 149.5q0 66 -2 106.5t-10 84.5t-23 67.5t-42 39t-66 15.5q-158 0 -158 -346z" />
    <glyph glyph-name="h" unicode="h" horiz-adv-x="962" 
d="M109 1454h243v-496q69 121 240 121q262 0 262 -329v-750h-244v700q0 86 -25 128t-98 42q-77 0 -106 -54.5t-29 -168.5v-647h-243v1454z" />
    <glyph glyph-name="i" unicode="i" horiz-adv-x="462" 
d="M109 0v1061h243v-1061h-243zM354 1212h-243v242h243v-242z" />
    <glyph glyph-name="j" unicode="j" horiz-adv-x="462" 
d="M109 1061h243v-1079q0 -52 -2 -89t-9 -79t-19 -71t-32.5 -57t-50 -44.5t-71.5 -26.5t-96 -10q-57 0 -92 6v209q23 -2 51 -2q50 0 64 27t14 98v1118zM354 1212h-245v242h245v-242z" />
    <glyph glyph-name="k" unicode="k" horiz-adv-x="872" 
d="M352 1454v-846q106 190 260 453h269q-101 -160 -256 -389l272 -672h-276l-162 475q-17 -24 -57.5 -84t-49.5 -72v-319h-243v1454h243z" />
    <glyph glyph-name="l" unicode="l" horiz-adv-x="460" 
d="M352 0h-243v1454h243v-1454z" />
    <glyph glyph-name="m" unicode="m" horiz-adv-x="1433" 
d="M111 0v741q0 273 -2 320h233q6 -30 6 -109q75 125 234 125q164 0 215 -143q87 143 260 143q268 0 268 -317v-760h-240v723q0 147 -112 147q-72 0 -101.5 -51t-29.5 -155v-664h-244v719q0 149 -111 149q-72 0 -103.5 -51t-31.5 -160v-657h-241z" />
    <glyph glyph-name="n" unicode="n" horiz-adv-x="962" 
d="M109 0v731q0 245 -3 330h236q6 -81 6 -111q75 129 236 129q130 0 200 -81.5t70 -241.5v-756h-244v700q0 85 -26 127.5t-95 42.5q-71 0 -104 -48t-33 -165v-657h-243z" />
    <glyph glyph-name="o" unicode="o" horiz-adv-x="917" 
d="M467 1077q191 0 290 -136.5t99 -401.5q0 -559 -401 -559q-196 0 -296 133.5t-100 418.5q0 275 107 410t301 135zM461 872q-82 0 -118 -82t-36 -255q0 -178 35 -264.5t121 -86.5q79 0 113 86t34 262q0 179 -33.5 259.5t-115.5 80.5z" />
    <glyph glyph-name="p" unicode="p" horiz-adv-x="956" 
d="M352 -383h-243v1137q0 205 -3 307h236q6 -75 6 -117q68 133 238 133q151 0 231 -131.5t80 -398.5q0 -567 -342 -567q-148 0 -203 102v-465zM649 537q0 184 -37.5 258.5t-117.5 74.5q-87 0 -118.5 -77.5t-31.5 -245.5q0 -81 2.5 -132t11 -99t25 -73t43 -40t66.5 -15
q157 0 157 349z" />
    <glyph glyph-name="q" unicode="q" horiz-adv-x="956" 
d="M608 -383v487q-63 -122 -231 -122q-318 0 -318 542q0 269 91.5 412t248.5 143q165 0 209 -112q3 56 8 94h234q-2 -84 -2 -344v-1100h-240zM309 520q0 -332 152 -332q92 0 120.5 72t28.5 258q0 89 -2.5 140t-10 97.5t-23.5 68.5t-41.5 34t-65.5 12q-78 0 -118 -81
t-40 -269z" />
    <glyph glyph-name="r" unicode="r" horiz-adv-x="645" 
d="M109 0v700q0 247 -3 361h234q6 -54 6 -176q30 92 100.5 142t176.5 50v-274q-68 2 -115.5 -8.5t-84 -37.5t-54 -76.5t-17.5 -123.5v-557h-243z" />
    <glyph glyph-name="s" unicode="s" horiz-adv-x="825" 
d="M41 322h240q0 -63 34 -108.5t103 -45.5q59 0 89 29.5t30 83.5q0 57 -33 91.5t-125 69.5q-182 67 -247.5 140.5t-65.5 193.5q0 56 19 108t58 96.5t108 71.5t159 27q80 0 142.5 -21t100 -54t61.5 -78t33 -88t9 -88h-234q0 143 -119 143q-46 0 -72 -27t-26 -71
q0 -51 34 -80.5t130 -65.5q171 -64 240 -138.5t69 -201.5q0 -157 -95.5 -242t-274.5 -85q-182 0 -274.5 95t-92.5 245z" />
    <glyph glyph-name="t" unicode="t" horiz-adv-x="561" 
d="M-8 860v201h139v264h244v-264h164v-201h-164v-581q0 -51 17.5 -74t70.5 -23q41 0 61 4v-178q-50 -22 -149 -22q-130 0 -187 57t-57 197v620h-139z" />
    <glyph glyph-name="u" unicode="u" horiz-adv-x="954" 
d="M846 1061v-750q0 -256 2 -311h-234q-8 44 -8 117q-34 -72 -92 -103.5t-145 -31.5q-265 0 -265 317v762h244v-707q0 -84 24.5 -124t88.5 -40q72 0 106.5 49.5t34.5 170.5v651h244z" />
    <glyph glyph-name="v" unicode="v" horiz-adv-x="858" 
d="M8 1061h262q136 -619 160 -807h2q9 72 37 201.5t69.5 310.5t65.5 295h246l-297 -1061h-264z" />
    <glyph glyph-name="w" unicode="w" horiz-adv-x="1318" 
d="M16 1061h260q99 -609 121 -799h4q7 61 24.5 146.5t55.5 267.5t76 385h221q14 -70 44 -217.5t41.5 -205.5t28.5 -147.5t25 -139t11 -85.5h2q40 275 131 795h242l-259 -1061h-245q-118 578 -140 725h-2q-5 -43 -15 -99t-26.5 -134t-30.5 -140t-39 -174t-40 -178h-252z" />
    <glyph glyph-name="x" unicode="x" horiz-adv-x="778" 
d="M-20 1061h268q102 -236 145 -330h2q16 38 67.5 150t82.5 180h258l-273 -500l273 -561h-273q-115 275 -143 346h-2q-10 -21 -62.5 -142.5t-89.5 -203.5h-260l267 526z" />
    <glyph glyph-name="y" unicode="y" horiz-adv-x="862" 
d="M8 1061h268q20 -89 55.5 -239t53 -227t34.5 -162t21 -130h2q37 223 166 758h246l-305 -1108q-22 -81 -46.5 -141t-53.5 -97.5t-56 -61t-63.5 -34t-65 -13.5t-71.5 -3q-56 0 -97 8v207q28 -4 78 -4q67 0 99.5 37.5t54.5 134.5z" />
    <glyph glyph-name="z" unicode="z" horiz-adv-x="765" 
d="M35 0v176q105 163 416 678h-388v207h664v-184q-20 -33 -178.5 -295.5t-229.5 -376.5h414l-24 -205h-674z" />
    <glyph glyph-name="braceleft" unicode="{" horiz-adv-x="675" 
d="M57 489v195q64 0 104.5 11.5t59.5 37.5t25 54t6 73l-10 264q0 184 83 260t240 76h60v-178h-37q-80 -1 -107.5 -36t-27.5 -126l10 -241q2 -123 -39 -196.5t-139 -92.5q105 -24 142.5 -92.5t35.5 -198.5l-10 -240q0 -92 30.5 -127.5t106.5 -37.5h35v-181h-64
q-73 0 -128 15.5t-99.5 51.5t-68 101t-23.5 158l10 272q0 51 -6 80.5t-25.5 54t-59 34t-104.5 9.5z" />
    <glyph glyph-name="bar" unicode="|" horiz-adv-x="454" 
d="M127 1597h201v-2132h-201v2132z" />
    <glyph glyph-name="braceright" unicode="}" horiz-adv-x="675" 
d="M618 684v-195q-63 0 -103 -11.5t-59.5 -36.5t-25.5 -53t-6 -73l10 -266q0 -183 -82.5 -259.5t-238.5 -76.5h-62v178h39q80 1 107.5 36t27.5 128l-10 240q-1 81 14 138t55.5 97.5t106.5 53.5q-104 23 -141 92.5t-35 200.5l10 239q0 92 -31 127t-108 37h-35v180h66
q73 0 128 -15t99 -51t67 -101t23 -158l-10 -273q0 -52 5.5 -81t25 -53.5t59 -34t104.5 -9.5z" />
    <glyph glyph-name="asciitilde" unicode="~" horiz-adv-x="1062" 
d="M293 369h-172v65q-1 125 53.5 183.5t147.5 58.5q70 0 151.5 -34t147.5 -67.5t98 -33.5q28 0 40.5 17.5t12.5 70.5v35h168v-52q0 -77 -15.5 -130.5t-44 -80t-59.5 -37t-71 -10.5q-54 0 -118 22t-111.5 49t-96.5 49t-76 22q-55 0 -55 -78v-49z" />
    <glyph glyph-name="uni00A0" unicode="&#xa0;" horiz-adv-x="380" 
 />
    <glyph glyph-name="exclamdown" unicode="&#xa1;" horiz-adv-x="466" 
d="M98 563h213l27 -667v-236h-266v236zM84 1059h246v-295h-246v295z" />
    <glyph glyph-name="cent" unicode="&#xa2;" horiz-adv-x="917" 
d="M616 500h232q-3 -41 -10.5 -78t-27 -81.5t-48.5 -78.5t-78.5 -62.5t-114.5 -39.5v-150h-176v148q-156 26 -229.5 155.5t-73.5 362.5q0 211 75 342t228 162v118h176v-116q65 -9 115 -34.5t80 -59t49.5 -77t26.5 -84t8 -85.5h-234q-8 162 -133 162q-83 0 -117 -83t-34 -241
q0 -182 33.5 -262t119.5 -80q34 0 59.5 14t38.5 32.5t21.5 44t10.5 40.5t3 31z" />
    <glyph glyph-name="sterling" unicode="&#xa3;" horiz-adv-x="937" 
d="M840 0h-774v193q70 36 100.5 112.5t30.5 208.5q0 53 -2 80h-152v182h137q-10 95 -10 185q0 195 89 299t261 104q171 0 252.5 -95.5t79.5 -256.5h-223q-1 78 -27.5 112.5t-83.5 34.5q-61 0 -85.5 -46.5t-24.5 -151.5q0 -59 12 -185h231v-182h-219v-6q0 -134 -19.5 -225.5
t-68.5 -153.5h526z" />
    <glyph glyph-name="currency" unicode="&#xa4;" horiz-adv-x="919" 
d="M453 1071q106 0 180 -51l119 125l131 -135l-131 -136q34 -75 34 -184q0 -117 -32 -205l129 -135l-131 -137l-115 121q-79 -53 -191 -53q-102 0 -182 53l-114 -121l-134 137l129 135q-32 88 -32 199q0 110 37 188l-134 138l129 135l123 -127q80 53 185 53zM449 901
q-72 0 -111 -56.5t-39 -160.5q0 -231 150 -231q74 0 110.5 52.5t36.5 180.5q0 104 -37 159.5t-110 55.5z" />
    <glyph glyph-name="yen" unicode="&#xa5;" horiz-adv-x="837" 
d="M737 303h-211v-303h-239v303h-205v158h205v94h-205v158h180l-287 635h267q136 -353 174 -498h2q19 79 168 498h258l-293 -635h186v-158h-211v-94h211v-158z" />
    <glyph glyph-name="brokenbar" unicode="&#xa6;" horiz-adv-x="446" 
d="M127 365h192v-732h-192v732zM127 1407h192v-727h-192v727z" />
    <glyph glyph-name="section" unicode="&#xa7;" horiz-adv-x="921" 
d="M805 1092h-217q-9 131 -127 131q-119 0 -119 -109q0 -50 39.5 -87t169.5 -109q165 -93 231 -182.5t66 -225.5q0 -187 -129 -291q72 -78 72 -207q0 -163 -95.5 -251.5t-265.5 -88.5q-182 0 -271.5 87.5t-95.5 234.5h228q3 -62 39.5 -101.5t99.5 -39.5q135 0 135 122
q0 49 -15 79t-60.5 65t-147.5 92q-164 92 -228.5 175.5t-64.5 211.5q0 180 152 297q-78 78 -78 195q0 135 86 224t256 89q168 0 253 -86.5t87 -224.5zM262 635q0 -62 33 -107.5t119 -95.5q132 -81 159 -96q56 58 56 151q0 64 -26.5 109t-102.5 94q-42 25 -73.5 44.5t-47 29
t-25 16t-13 8.5t-5.5 3q-36 -27 -55 -69.5t-19 -86.5z" />
    <glyph glyph-name="dieresis" unicode="&#xa8;" 
d="M344 1212h-201v242h201v-242zM676 1212h-201v242h201v-242z" />
    <glyph glyph-name="copyright" unicode="&#xa9;" horiz-adv-x="1318" 
d="M758 573h168q-3 -34 -11.5 -65t-27.5 -66t-46.5 -60.5t-73 -42.5t-103.5 -17q-273 0 -273 356q0 84 15 150.5t46.5 118.5t86 80t129.5 28q67 0 118 -22t79.5 -59.5t43 -80t15.5 -88.5h-166q-4 115 -92 115q-105 0 -105 -224q0 -123 23 -182t78 -59q22 0 38.5 8t26 18.5
t16.5 28.5t9.5 30.5t5.5 32.5zM659 1354q123 0 229 -45t184 -129t122.5 -211.5t44.5 -284.5q0 -161 -44 -290t-122.5 -212t-183.5 -126.5t-230 -43.5q-127 0 -233 44t-183.5 127.5t-121 212t-43.5 288.5q0 309 160.5 489.5t420.5 180.5zM659 1237q-216 0 -334 -141
t-118 -414q0 -252 124 -402.5t328 -150.5q212 0 332.5 146t120.5 407q0 256 -126 405.5t-327 149.5z" />
    <glyph glyph-name="ordfeminine" unicode="&#xaa;" horiz-adv-x="622" 
d="M553 1057v-301q0 -88 4 -166h-158q-8 32 -8 67q-31 -42 -68 -60.5t-100 -18.5q-86 0 -138 61t-52 147q0 62 25.5 106t70 66.5t93 32.5t106.5 10h49v48q0 96 -70 96q-71 0 -74 -80h-172q3 91 62 147t188 56q242 0 242 -211zM377 856v25h-45q-119 0 -119 -82
q0 -33 18 -54.5t56 -21.5q46 0 68 31.5t22 101.5z" />
    <glyph glyph-name="guillemotleft" unicode="&#xab;" horiz-adv-x="931" 
d="M500 893l-232 -358l232 -359h-199l-238 359l238 358h199zM868 893l-235 -358l235 -359h-200l-238 359l238 358h200z" />
    <glyph glyph-name="logicalnot" unicode="&#xac;" horiz-adv-x="1067" 
d="M86 696h883v-538h-187v354h-696v184z" />
    <glyph glyph-name="uni00AD" unicode="&#xad;" horiz-adv-x="575" 
d="M63 641h449v-211h-449v211z" />
    <glyph glyph-name="registered" unicode="&#xae;" horiz-adv-x="589" 
d="M272 989h-71v268h118q46 0 77.5 -19t31.5 -62q0 -47 -43 -64q13 -5 20 -12t9.5 -20t3 -19t0.5 -25q0 -31 4 -47h-74q-4 8 -4 53q0 26 -9 34.5t-34 8.5h-29v-96zM276 1200v-59h37q37 0 37 30q0 29 -39 29h-35zM307 1401q120 0 197.5 -81t77.5 -204q0 -128 -77.5 -206.5
t-197.5 -78.5q-117 0 -193.5 79t-76.5 206q0 123 75.5 204t194.5 81zM305 1339q-91 0 -145 -62.5t-54 -160.5q0 -94 57.5 -158.5t141.5 -64.5q99 0 152 60t53 163q0 94 -57 158.5t-148 64.5z" />
    <glyph glyph-name="macron" unicode="&#xaf;" 
d="M152 1415h512v-188h-512v188z" />
    <glyph glyph-name="degree" unicode="&#xb0;" horiz-adv-x="604" 
d="M303 1364q116 0 186 -72.5t70 -183.5q0 -121 -75 -190.5t-183 -69.5q-115 0 -184.5 69t-69.5 185t73 189t183 73zM303 1239q-56 0 -86.5 -37t-30.5 -98q0 -58 31.5 -95.5t85.5 -37.5t84.5 37.5t30.5 97.5q0 56 -28.5 94.5t-86.5 38.5z" />
    <glyph glyph-name="plusminus" unicode="&#xb1;" horiz-adv-x="1116" 
d="M471 1137h176v-336h361v-174h-361v-338h-176v338h-365v174h365v336zM1008 0h-899v174h899v-174z" />
    <glyph glyph-name="two.sups" unicode="&#xb2;" horiz-adv-x="616" 
d="M557 858h-508v16q0 110 48 194.5t163 176.5q113 93 113 148q0 84 -72 84q-41 0 -60 -27.5t-24 -81.5h-166q2 53 17 97t44.5 80t80.5 56.5t118 20.5q126 0 188 -64.5t62 -164.5q0 -16 -2.5 -32t-5 -28t-11 -26.5t-12 -22.5t-17 -23t-17.5 -20t-21.5 -21t-21.5 -19.5
t-25.5 -21t-24.5 -20.5q-69 -59 -98 -89.5t-39 -57.5h318z" />
    <glyph glyph-name="three.sups" unicode="&#xb3;" horiz-adv-x="628" 
d="M242 1184v143h43q90 0 90 76t-74 76q-57 0 -76 -78q-1 -4 -2 -6h-166q1 26 7 52.5t23.5 59t44 57t73.5 41.5t108 17q124 0 184 -57.5t60 -147.5q0 -63 -31.5 -100.5t-68.5 -52.5q19 -6 38 -16.5t41.5 -30.5t36 -55.5t13.5 -80.5q0 -103 -68 -167t-209 -64
q-71 0 -124.5 20t-83.5 55t-45 74.5t-17 85.5h178q13 -94 94 -94q86 0 86 96q0 52 -26.5 74.5t-85.5 22.5h-43z" />
    <glyph glyph-name="acute" unicode="&#xb4;" 
d="M463 1468h285l-269 -278h-209z" />
    <glyph glyph-name="uni00B5" unicode="&#xb5;" horiz-adv-x="954" 
d="M424 -18q-67 0 -100 38q0 -81 12 -393l-238 -10q6 564 6 748v694h246v-694q0 -41 4.5 -69.5t17 -53t37 -37t60.5 -12.5q64 0 98.5 46.5t34.5 166.5v653h246v-748q0 -283 2 -311h-232q-12 36 -12 109q-32 -66 -73.5 -96.5t-108.5 -30.5z" />
    <glyph glyph-name="paragraph" unicode="&#xb6;" horiz-adv-x="960" 
d="M821 -272h-174v561h-137q-113 0 -193.5 25.5t-138 84.5t-85 157.5t-27.5 240.5q0 262 105 376.5t318 114.5h158q4 76 21 121h157q-4 -78 -4 -121v-1560zM602 475h45v639h-45q-51 0 -78 -22.5t-41 -91.5t-14 -203q0 -189 25.5 -255.5t107.5 -66.5z" />
    <glyph glyph-name="periodcentered" unicode="&#xb7;" horiz-adv-x="395" 
d="M322 410h-250v313h250v-313z" />
    <glyph glyph-name="cedilla" unicode="&#xb8;" 
d="M350 8h156l-39 -71q145 -49 145 -170q0 -81 -55 -131t-164 -50q-105 0 -168 35l35 133q35 -22 102 -22q60 0 60 39q0 51 -129 71v56z" />
    <glyph glyph-name="one.sups" unicode="&#xb9;" horiz-adv-x="423" 
d="M332 858h-185v561q-53 -8 -102 -4v135q101 13 156 72h131v-764z" />
    <glyph glyph-name="ordmasculine" unicode="&#xba;" horiz-adv-x="632" 
d="M322 1268q131 0 199.5 -88.5t68.5 -249.5q0 -350 -277 -350q-128 0 -199 90t-71 258q0 163 72.5 251.5t206.5 88.5zM317 1124q-94 0 -94 -196q0 -112 21.5 -158.5t72.5 -46.5q52 0 74.5 46.5t22.5 162.5q0 101 -22.5 146.5t-74.5 45.5z" />
    <glyph glyph-name="guillemotright" unicode="&#xbb;" horiz-adv-x="931" 
d="M430 176l234 359l-234 360h201l237 -360l-237 -359h-201zM63 176l236 359l-236 360h201l236 -360l-236 -359h-201z" />
    <glyph glyph-name="onequarter" unicode="&#xbc;" horiz-adv-x="1325" 
d="M313 0h-155l727 1348h155zM356 592h-184v561q-53 -8 -102 -4v135q100 13 155 72h131v-764zM1147 0h-172v182h-303v133l252 439h223v-432h92l-14 -140h-78v-182zM840 322h135v90q0 114 6 188q-11 -25 -141 -278z" />
    <glyph glyph-name="onehalf" unicode="&#xbd;" horiz-adv-x="1363" 
d="M299 0h-156l727 1348h156zM344 592h-184v561q-54 -8 -103 -4v135q101 13 156 72h131v-764zM1262 0h-508v16q0 110 48 194.5t163 176.5q112 92 112 148q0 38 -14.5 60.5t-56.5 22.5q-41 0 -60 -27t-24 -81h-166q2 53 17 97t44.5 80t80.5 56.5t118 20.5q126 0 188 -64.5
t62 -164.5q0 -16 -2.5 -32t-5 -28t-11 -26.5t-12 -22.5t-17 -23t-17.5 -20t-21.5 -21t-21.5 -19.5t-25.5 -21t-24.5 -20.5q-69 -59 -98 -89.5t-39 -57.5h317z" />
    <glyph glyph-name="threequarters" unicode="&#xbe;" horiz-adv-x="1447" 
d="M485 0h-155l727 1348h155zM1292 0h-172v182h-303v133l252 439h223v-432h92l-14 -140h-78v-182zM985 322h135v90q0 114 6 188q-11 -25 -141 -278zM256 918v143h43q90 0 90 76q0 75 -74 75q-10 0 -18.5 -1.5t-15 -6t-11.5 -7.5t-9.5 -10.5t-7 -10.5t-5.5 -12.5t-4 -12
t-3.5 -12.5t-2.5 -11h-166q1 26 7 52.5t23.5 59.5t44 57.5t73.5 41.5t108 17q124 0 183.5 -57t59.5 -148q0 -63 -31.5 -101t-68.5 -53q15 -4 29.5 -11t33.5 -21.5t33 -33t23.5 -49t9.5 -67.5q0 -103 -67.5 -167t-208.5 -64q-71 0 -124.5 20t-84 55t-45.5 74.5t-17 85.5h178
q13 -94 95 -94q86 0 86 96q0 52 -27 74.5t-86 22.5h-43z" />
    <glyph glyph-name="questiondown" unicode="&#xbf;" horiz-adv-x="796" 
d="M33 -4q0 106 31.5 182.5t119.5 194.5q88 115 88 235v19h248v-31q0 -95 -31.5 -174.5t-113.5 -183.5q-54 -71 -77.5 -126t-23.5 -118q0 -146 113 -146q64 0 92 46t33 133h225q-1 -76 -20.5 -140t-60.5 -117t-112.5 -83t-166.5 -29q-78 1 -138 19.5t-98.5 49t-63 74.5
t-34.5 91.5t-10 103.5zM272 1061h248v-316h-248v316z" />
    <glyph glyph-name="Agrave" unicode="&#xc0;" horiz-adv-x="987" 
d="M649 348h-321l-70 -348h-248l322 1386h321l324 -1386h-260zM371 563h233q-21 109 -61.5 314.5t-53.5 277.5h-6q-6 -45 -18.5 -116.5t-23 -124.5t-35 -175t-35.5 -176zM94 1722h301l223 -245h-237z" />
    <glyph glyph-name="Aacute" unicode="&#xc1;" horiz-adv-x="987" 
d="M649 348h-321l-70 -348h-248l322 1386h321l324 -1386h-260zM371 563h233q-21 109 -61.5 314.5t-53.5 277.5h-6q-6 -45 -18.5 -116.5t-23 -124.5t-35 -175t-35.5 -176zM598 1724h295l-287 -245h-235z" />
    <glyph glyph-name="Acircumflex" unicode="&#xc2;" horiz-adv-x="987" 
d="M649 348h-321l-70 -348h-248l322 1386h321l324 -1386h-260zM371 563h233q-21 109 -61.5 314.5t-53.5 277.5h-6q-6 -45 -18.5 -116.5t-23 -124.5t-35 -175t-35.5 -176zM356 1720h273l198 -237h-241l-94 114l-93 -114h-241z" />
    <glyph glyph-name="Atilde" unicode="&#xc3;" horiz-adv-x="987" 
d="M649 348h-321l-70 -348h-248l322 1386h321l324 -1386h-260zM371 563h233q-21 109 -61.5 314.5t-53.5 277.5h-6q-6 -45 -18.5 -116.5t-23 -124.5t-35 -175t-35.5 -176zM334 1479h-158v55q0 106 47 152.5t123 46.5q59 0 150.5 -36t113.5 -36q45 0 45 55v19h156v-39
q0 -121 -45 -170t-129 -49q-58 0 -146.5 34.5t-111.5 34.5q-20 0 -32.5 -11t-12.5 -32v-24z" />
    <glyph glyph-name="Adieresis" unicode="&#xc4;" horiz-adv-x="987" 
d="M649 348h-321l-70 -348h-248l322 1386h321l324 -1386h-260zM371 563h233q-21 109 -61.5 314.5t-53.5 277.5h-6q-6 -45 -18.5 -116.5t-23 -124.5t-35 -175t-35.5 -176zM424 1487h-205v237h205v-237zM768 1487h-207v237h207v-237z" />
    <glyph glyph-name="Aring" unicode="&#xc5;" horiz-adv-x="987" 
d="M649 348h-321l-70 -348h-248l322 1386h321l324 -1386h-260zM371 563h233q-21 109 -61.5 314.5t-53.5 277.5h-6q-6 -45 -18.5 -116.5t-23 -124.5t-35 -175t-35.5 -176zM496 1450q-96 0 -152.5 53.5t-56.5 134.5t55.5 136t151.5 55t151 -52.5t55 -136.5t-56 -137t-148 -53z
M494 1559q40 0 62 22.5t22 56.5q0 35 -22 59.5t-62 24.5q-42 0 -63 -23.5t-21 -58.5q0 -34 21.5 -57.5t62.5 -23.5z" />
    <glyph glyph-name="AE" unicode="&#xc6;" horiz-adv-x="1454" 
d="M510 1386h872v-221h-475v-334h455v-219h-455v-395h508l-29 -217h-724v422h-293l-162 -422h-256zM455 637h207v561h-5q-46 -117 -202 -561z" />
    <glyph glyph-name="Ccedilla" unicode="&#xc7;" horiz-adv-x="978" 
d="M684 403h246q-2 -27 -4 -43t-11.5 -61t-22.5 -77t-39 -76t-59.5 -74t-86 -55.5t-115.5 -34.5l-25 -45q146 -49 146 -170q0 -81 -55 -131t-164 -50q-105 0 -168 35l34 133q35 -22 103 -22q59 0 59 39q0 51 -129 71v56l43 82q-68 9 -122 36t-91.5 64t-65 91.5t-43.5 110
t-25 128.5t-12 137.5t-3 146.5q0 348 109 530.5t345 182.5q76 0 137.5 -18.5t102 -46t71 -69t46.5 -77.5t26.5 -82.5t13.5 -73.5t5 -59h-246q-7 83 -21 120q-39 96 -139 97q-57 0 -96 -33.5t-60 -102.5t-29.5 -157.5t-8.5 -214.5q0 -110 7 -191.5t26 -158.5t58 -117.5
t97 -40.5q142 0 165 215q1 4 1 6z" />
    <glyph glyph-name="Egrave" unicode="&#xc8;" horiz-adv-x="901" 
d="M811 831v-215h-446v-403h499l-30 -213h-713v1386h710v-217h-466v-338h446zM92 1724h301l223 -245h-237z" />
    <glyph glyph-name="Eacute" unicode="&#xc9;" horiz-adv-x="901" 
d="M811 831v-215h-446v-403h499l-30 -213h-713v1386h710v-217h-466v-338h446zM559 1724h295l-287 -245h-235z" />
    <glyph glyph-name="Ecircumflex" unicode="&#xca;" horiz-adv-x="901" 
d="M811 831v-215h-446v-403h499l-30 -213h-713v1386h710v-217h-466v-338h446zM336 1718h272l199 -237h-242l-94 114l-92 -114h-242z" />
    <glyph glyph-name="Edieresis" unicode="&#xcb;" horiz-adv-x="901" 
d="M811 831v-215h-446v-403h499l-30 -213h-713v1386h710v-217h-466v-338h446zM403 1489h-204v237h204v-237zM748 1489h-207v237h207v-237z" />
    <glyph glyph-name="Igrave" unicode="&#xcc;" horiz-adv-x="493" 
d="M121 1386h248v-1386h-248v1386zM-152 1735h302l223 -246h-238z" />
    <glyph glyph-name="Iacute" unicode="&#xcd;" horiz-adv-x="493" 
d="M121 1386h248v-1386h-248v1386zM352 1724h295l-287 -245h-235z" />
    <glyph glyph-name="Icircumflex" unicode="&#xce;" horiz-adv-x="493" 
d="M121 1386h248v-1386h-248v1386zM109 1714h272l199 -237h-242l-94 114l-92 -114h-242z" />
    <glyph glyph-name="Idieresis" unicode="&#xcf;" horiz-adv-x="493" 
d="M121 1386h248v-1386h-248v1386zM176 1491h-205v238h205v-238zM520 1491h-207v238h207v-238z" />
    <glyph glyph-name="Eth" unicode="&#xd0;" horiz-adv-x="1071" 
d="M10 827h131v559h361q261 0 378 -165t117 -500q0 -364 -118.5 -542.5t-395.5 -178.5h-342v621h-131v206zM391 1180v-353h213v-206h-213v-418h88q145 0 203.5 118t58.5 400q0 245 -56.5 352t-203.5 107h-90z" />
    <glyph glyph-name="Ntilde" unicode="&#xd1;" horiz-adv-x="1093" 
d="M344 0h-223v1386h280q322 -860 346 -936q9 -26 13 -44h2q-12 199 -12 598v382h223v-1386h-271q-338 929 -366 1028h-2q10 -172 10 -625v-403zM385 1501h-158v55q0 106 47 152.5t123 46.5q59 0 151 -36t114 -36q45 0 45 56v18h155v-39q0 -121 -45 -170t-129 -49
q-58 0 -146.5 35t-111.5 35q-20 0 -32.5 -11t-12.5 -32v-25z" />
    <glyph glyph-name="Ograve" unicode="&#xd2;" horiz-adv-x="1048" 
d="M528 1407q228 0 337.5 -172.5t109.5 -532.5q0 -380 -109 -553.5t-348 -173.5q-227 0 -335.5 175t-108.5 557q0 185 30.5 320t90 218t142 122.5t191.5 39.5zM524 1198q-55 0 -93.5 -32t-61 -97t-32 -152.5t-9.5 -207.5q0 -259 45.5 -392t150.5 -133q57 0 95.5 32.5
t61 101.5t31.5 162.5t9 228.5q0 252 -44 370.5t-153 118.5zM147 1743h302l223 -246h-238z" />
    <glyph glyph-name="Oacute" unicode="&#xd3;" horiz-adv-x="1048" 
d="M528 1407q228 0 337.5 -172.5t109.5 -532.5q0 -380 -109 -553.5t-348 -173.5q-227 0 -335.5 175t-108.5 557q0 185 30.5 320t90 218t142 122.5t191.5 39.5zM524 1198q-55 0 -93.5 -32t-61 -97t-32 -152.5t-9.5 -207.5q0 -259 45.5 -392t150.5 -133q57 0 95.5 32.5
t61 101.5t31.5 162.5t9 228.5q0 252 -44 370.5t-153 118.5zM610 1743h295l-287 -246h-235z" />
    <glyph glyph-name="Ocircumflex" unicode="&#xd4;" horiz-adv-x="1048" 
d="M528 1407q228 0 337.5 -172.5t109.5 -532.5q0 -380 -109 -553.5t-348 -173.5q-227 0 -335.5 175t-108.5 557q0 185 30.5 320t90 218t142 122.5t191.5 39.5zM524 1198q-55 0 -93.5 -32t-61 -97t-32 -152.5t-9.5 -207.5q0 -259 45.5 -392t150.5 -133q57 0 95.5 32.5
t61 101.5t31.5 162.5t9 228.5q0 252 -44 370.5t-153 118.5zM387 1733h272l199 -238h-242l-94 115l-92 -115h-242z" />
    <glyph glyph-name="Otilde" unicode="&#xd5;" horiz-adv-x="1048" 
d="M528 1407q228 0 337.5 -172.5t109.5 -532.5q0 -380 -109 -553.5t-348 -173.5q-227 0 -335.5 175t-108.5 557q0 185 30.5 320t90 218t142 122.5t191.5 39.5zM524 1198q-55 0 -93.5 -32t-61 -97t-32 -152.5t-9.5 -207.5q0 -259 45.5 -392t150.5 -133q57 0 95.5 32.5
t61 101.5t31.5 162.5t9 228.5q0 252 -44 370.5t-153 118.5zM365 1501h-158v55q0 106 47 152.5t123 46.5q59 0 150.5 -36t113.5 -36q45 0 45 56v18h156v-39q0 -121 -45 -170t-129 -49q-58 0 -146.5 35t-111.5 35q-20 0 -32.5 -11t-12.5 -32v-25z" />
    <glyph glyph-name="Odieresis" unicode="&#xd6;" horiz-adv-x="1048" 
d="M528 1407q228 0 337.5 -172.5t109.5 -532.5q0 -380 -109 -553.5t-348 -173.5q-227 0 -335.5 175t-108.5 557q0 185 30.5 320t90 218t142 122.5t191.5 39.5zM524 1198q-55 0 -93.5 -32t-61 -97t-32 -152.5t-9.5 -207.5q0 -259 45.5 -392t150.5 -133q57 0 95.5 32.5
t61 101.5t31.5 162.5t9 228.5q0 252 -44 370.5t-153 118.5zM455 1509h-205v238h205v-238zM799 1509h-207v238h207v-238z" />
    <glyph glyph-name="multiply" unicode="&#xd7;" horiz-adv-x="1120" 
d="M1008 178l-119 -125l-328 338l-325 -338l-121 125l327 336l-327 338l114 121l330 -338l330 338l119 -121l-328 -340z" />
    <glyph glyph-name="Oslash" unicode="&#xd8;" horiz-adv-x="1048" 
d="M528 1407q141 0 232 -64l22 46h140l-68 -140q121 -173 121 -547q0 -379 -106.5 -553t-350.5 -174q-154 0 -252 76l-24 -51h-140l76 156q-104 172 -104 551q0 362 114 531t340 169zM322 709q0 -127 10 -240l327 668q-48 65 -135 65q-57 0 -96.5 -32.5t-62.5 -98
t-33 -153.5t-10 -209zM524 180q57 0 96.5 35t63 105.5t33.5 165t10 223.5q0 158 -14 256l-336 -686q48 -99 147 -99z" />
    <glyph glyph-name="Ugrave" unicode="&#xd9;" horiz-adv-x="1073" 
d="M109 1386h247v-954q0 -248 183 -248q53 0 89.5 19t55 55t26 77t7.5 95v956h248v-960q0 -451 -430 -451q-120 0 -205 33t-132.5 96t-68 141t-20.5 181v960zM160 1722h301l223 -245h-238z" />
    <glyph glyph-name="Uacute" unicode="&#xda;" horiz-adv-x="1073" 
d="M109 1386h247v-954q0 -248 183 -248q53 0 89.5 19t55 55t26 77t7.5 95v956h248v-960q0 -451 -430 -451q-120 0 -205 33t-132.5 96t-68 141t-20.5 181v960zM623 1743h295l-287 -246h-236z" />
    <glyph glyph-name="Ucircumflex" unicode="&#xdb;" horiz-adv-x="1073" 
d="M109 1386h247v-954q0 -248 183 -248q53 0 89.5 19t55 55t26 77t7.5 95v956h248v-960q0 -451 -430 -451q-120 0 -205 33t-132.5 96t-68 141t-20.5 181v960zM399 1733h273l198 -238h-241l-94 115l-93 -115h-241z" />
    <glyph glyph-name="Udieresis" unicode="&#xdc;" horiz-adv-x="1073" 
d="M109 1386h247v-954q0 -248 183 -248q53 0 89.5 19t55 55t26 77t7.5 95v956h248v-960q0 -451 -430 -451q-120 0 -205 33t-132.5 96t-68 141t-20.5 181v960zM467 1509h-205v238h205v-238zM811 1509h-207v238h207v-238z" />
    <glyph glyph-name="Yacute" unicode="&#xdd;" horiz-adv-x="927" 
d="M588 0h-250v489q0 25 -8 46l-350 851h276q174 -484 215 -636q23 76 59 183t84.5 246t71.5 207h262l-352 -854q-8 -20 -8 -47v-485zM549 1724h295l-287 -245h-235z" />
    <glyph glyph-name="Thorn" unicode="&#xde;" horiz-adv-x="983" 
d="M123 0v1386h250v-282h178q179 0 283 -98t104 -289q0 -206 -106 -311t-310 -105h-149v-301h-250zM373 893v-383h127q101 0 146.5 47t45.5 150q0 186 -180 186h-139z" />
    <glyph glyph-name="germandbls" unicode="&#xdf;" horiz-adv-x="989" 
d="M500 1468q90 0 159 -22t111.5 -57t70 -85.5t38 -101.5t10.5 -110v-80l-201 -213v-6l68 -70q101 -108 143.5 -193t42.5 -190q0 -74 -18.5 -135.5t-57 -112.5t-107 -79.5t-161.5 -28.5q-56 0 -107 12.5t-79 32.5v217q34 -28 80.5 -45t89.5 -17q118 0 118 125q0 53 -23 99.5
t-85 111.5l-76 74q-81 84 -80.5 152.5t80.5 164.5l135 152q0 103 -31 155t-118 52q-79 0 -115.5 -47t-36.5 -154v-1069h-241v1075q0 109 27.5 186.5t81 122t122.5 64.5t160 20z" />
    <glyph glyph-name="agrave" unicode="&#xe0;" horiz-adv-x="913" 
d="M803 772v-541q0 -137 8 -231h-221q-10 50 -10 98q-70 -116 -240 -116q-73 0 -129.5 27t-89 73t-48.5 100t-16 113q0 164 109.5 257t308.5 93q63 0 88 -2v115q0 22 -1.5 38t-8 35.5t-18.5 32t-33.5 21t-52.5 8.5q-37 0 -60.5 -10.5t-35 -32.5t-16 -42t-7.5 -52h-234
q1 50 11.5 93.5t36 86.5t65 73.5t103.5 49t147 18.5q344 0 344 -305zM569 430v35q-27 4 -80 4q-99 0 -144.5 -41.5t-45.5 -110.5q0 -55 30 -96t93 -41q88 0 117.5 60.5t29.5 189.5zM102 1468h289l193 -278h-213z" />
    <glyph glyph-name="aacute" unicode="&#xe1;" horiz-adv-x="913" 
d="M803 772v-541q0 -137 8 -231h-221q-10 50 -10 98q-70 -116 -240 -116q-73 0 -129.5 27t-89 73t-48.5 100t-16 113q0 164 109.5 257t308.5 93q63 0 88 -2v115q0 22 -1.5 38t-8 35.5t-18.5 32t-33.5 21t-52.5 8.5q-37 0 -60.5 -10.5t-35 -32.5t-16 -42t-7.5 -52h-234
q1 50 11.5 93.5t36 86.5t65 73.5t103.5 49t147 18.5q344 0 344 -305zM569 430v35q-27 4 -80 4q-99 0 -144.5 -41.5t-45.5 -110.5q0 -55 30 -96t93 -41q88 0 117.5 60.5t29.5 189.5zM508 1468h285l-269 -278h-209z" />
    <glyph glyph-name="acircumflex" unicode="&#xe2;" horiz-adv-x="913" 
d="M803 772v-541q0 -137 8 -231h-221q-10 50 -10 98q-70 -116 -240 -116q-73 0 -129.5 27t-89 73t-48.5 100t-16 113q0 164 109.5 257t308.5 93q63 0 88 -2v115q0 22 -1.5 38t-8 35.5t-18.5 32t-33.5 21t-52.5 8.5q-37 0 -60.5 -10.5t-35 -32.5t-16 -42t-7.5 -52h-234
q1 50 11.5 93.5t36 86.5t65 73.5t103.5 49t147 18.5q344 0 344 -305zM569 430v35q-27 4 -80 4q-99 0 -144.5 -41.5t-45.5 -110.5q0 -55 30 -96t93 -41q88 0 117.5 60.5t29.5 189.5zM326 1456h260l182 -276h-223l-90 141l-88 -141h-224z" />
    <glyph glyph-name="atilde" unicode="&#xe3;" horiz-adv-x="913" 
d="M803 772v-541q0 -137 8 -231h-221q-10 50 -10 98q-70 -116 -240 -116q-73 0 -129.5 27t-89 73t-48.5 100t-16 113q0 164 109.5 257t308.5 93q63 0 88 -2v115q0 22 -1.5 38t-8 35.5t-18.5 32t-33.5 21t-52.5 8.5q-37 0 -60.5 -10.5t-35 -32.5t-16 -42t-7.5 -52h-234
q1 50 11.5 93.5t36 86.5t65 73.5t103.5 49t147 18.5q344 0 344 -305zM569 430v35q-27 4 -80 4q-99 0 -144.5 -41.5t-45.5 -110.5q0 -55 30 -96t93 -41q88 0 117.5 60.5t29.5 189.5zM326 1194h-164v59q0 191 162 191q46 0 92 -19t82 -38t57 -19q37 0 37 64v14h160v-49
q0 -116 -42.5 -160.5t-121.5 -44.5q-44 0 -88.5 18.5t-80 37t-57.5 18.5q-36 0 -36 -49v-23z" />
    <glyph glyph-name="adieresis" unicode="&#xe4;" horiz-adv-x="913" 
d="M803 772v-541q0 -137 8 -231h-221q-10 50 -10 98q-70 -116 -240 -116q-73 0 -129.5 27t-89 73t-48.5 100t-16 113q0 164 109.5 257t308.5 93q63 0 88 -2v115q0 22 -1.5 38t-8 35.5t-18.5 32t-33.5 21t-52.5 8.5q-37 0 -60.5 -10.5t-35 -32.5t-16 -42t-7.5 -52h-234
q1 50 11.5 93.5t36 86.5t65 73.5t103.5 49t147 18.5q344 0 344 -305zM569 430v35q-27 4 -80 4q-99 0 -144.5 -41.5t-45.5 -110.5q0 -55 30 -96t93 -41q88 0 117.5 60.5t29.5 189.5zM391 1212h-201v242h201v-242zM723 1212h-201v242h201v-242z" />
    <glyph glyph-name="aring" unicode="&#xe5;" horiz-adv-x="913" 
d="M803 772v-541q0 -137 8 -231h-221q-10 50 -10 98q-70 -116 -240 -116q-73 0 -129.5 27t-89 73t-48.5 100t-16 113q0 164 109.5 257t308.5 93q63 0 88 -2v115q0 22 -1.5 38t-8 35.5t-18.5 32t-33.5 21t-52.5 8.5q-37 0 -60.5 -10.5t-35 -32.5t-16 -42t-7.5 -52h-234
q1 50 11.5 93.5t36 86.5t65 73.5t103.5 49t147 18.5q344 0 344 -305zM569 430v35q-27 4 -80 4q-99 0 -144.5 -41.5t-45.5 -110.5q0 -55 30 -96t93 -41q88 0 117.5 60.5t29.5 189.5zM461 1151q-96 0 -152.5 53.5t-56.5 134.5t55.5 136t151.5 55t151.5 -52.5t55.5 -136.5
t-56.5 -137t-148.5 -53zM459 1260q40 0 62 22.5t22 56.5q0 35 -22 59.5t-62 24.5q-42 0 -63 -23.5t-21 -58.5q0 -34 21.5 -57.5t62.5 -23.5z" />
    <glyph glyph-name="ae" unicode="&#xe6;" horiz-adv-x="1392" 
d="M1087 340h242q-2 -20 -4 -37t-12 -56.5t-24.5 -70.5t-44 -69t-68 -64t-99 -43.5t-133.5 -17.5q-116 0 -182.5 34t-112.5 99q-52 -66 -118 -99.5t-175 -33.5q-146 0 -222.5 90.5t-76.5 230.5q0 160 111 253t352 93h47v92q2 73 -23.5 111.5t-97.5 38.5q-116 0 -120 -135
h-232q2 67 21 122.5t59 101.5t111 71.5t168 25.5q191 0 258 -96q89 96 252 96q105 1 180 -33.5t115.5 -98.5t58.5 -141.5t18 -174.5q0 -74 -4 -156h-530q-2 -153 29 -221t116 -68q40 0 68 14t42.5 40t20.5 48.5t10 53.5zM573 426v47h-49q-115 0 -170 -37.5t-55 -116.5
q0 -62 30.5 -100.5t92.5 -38.5q45 0 76 18.5t46.5 54t22 76.5t6.5 97zM803 649h289q0 112 -31 170t-111 58q-147 0 -147 -228z" />
    <glyph glyph-name="ccedilla" unicode="&#xe7;" horiz-adv-x="854" 
d="M575 358h238q-1 -24 -3 -43.5t-10 -57t-19.5 -67t-34.5 -65.5t-53 -62t-76 -47.5t-103 -29.5l-25 -43q146 -49 146 -170q0 -81 -55 -131t-164 -50q-105 0 -168 35l35 133q35 -22 102 -22q59 0 59 39q0 51 -129 71v56l43 84q-70 12 -122.5 46t-85.5 83t-54 117.5
t-29 141.5t-8 163q0 88 12 164.5t41 146.5t73 120t112.5 79.5t155.5 29.5q71 0 128.5 -17.5t94 -42.5t63.5 -63t40.5 -69.5t21.5 -71t9.5 -58.5t2.5 -42h-248q-1 22 -2 34.5t-7.5 40.5t-17.5 44.5t-33.5 30.5t-53.5 14q-79 0 -111.5 -84.5t-32.5 -257.5q0 -179 31.5 -266
t107.5 -87q28 0 49 8t34.5 25t22 30.5t13.5 40t6 36t4 34.5z" />
    <glyph glyph-name="egrave" unicode="&#xe8;" horiz-adv-x="897" 
d="M836 467h-533q0 -59 5 -103t20 -89t47 -69t80 -24q35 0 61.5 12t40 26t24 38.5t12.5 34.5t5 29h233q-28 -234 -206 -310q-74 -32 -172 -32q-72 0 -130 17t-98.5 46t-71 72.5t-48 89.5t-28.5 105t-14.5 111.5t-3.5 115.5q0 257 100.5 398.5t297.5 141.5q90 0 157.5 -26.5
t110 -71.5t69 -111t36.5 -137.5t10 -159.5q0 -68 -4 -104zM307 643h291q0 47 -4.5 82t-17.5 73.5t-43 59.5t-76 21q-150 0 -150 -236zM109 1468h288l193 -278h-213z" />
    <glyph glyph-name="eacute" unicode="&#xe9;" horiz-adv-x="897" 
d="M836 467h-533q0 -59 5 -103t20 -89t47 -69t80 -24q35 0 61.5 12t40 26t24 38.5t12.5 34.5t5 29h233q-28 -234 -206 -310q-74 -32 -172 -32q-72 0 -130 17t-98.5 46t-71 72.5t-48 89.5t-28.5 105t-14.5 111.5t-3.5 115.5q0 257 100.5 398.5t297.5 141.5q90 0 157.5 -26.5
t110 -71.5t69 -111t36.5 -137.5t10 -159.5q0 -68 -4 -104zM307 643h291q0 47 -4.5 82t-17.5 73.5t-43 59.5t-76 21q-150 0 -150 -236zM502 1468h284l-268 -278h-209z" />
    <glyph glyph-name="ecircumflex" unicode="&#xea;" horiz-adv-x="897" 
d="M836 467h-533q0 -59 5 -103t20 -89t47 -69t80 -24q35 0 61.5 12t40 26t24 38.5t12.5 34.5t5 29h233q-28 -234 -206 -310q-74 -32 -172 -32q-72 0 -130 17t-98.5 46t-71 72.5t-48 89.5t-28.5 105t-14.5 111.5t-3.5 115.5q0 257 100.5 398.5t297.5 141.5q90 0 157.5 -26.5
t110 -71.5t69 -111t36.5 -137.5t10 -159.5q0 -68 -4 -104zM307 643h291q0 47 -4.5 82t-17.5 73.5t-43 59.5t-76 21q-150 0 -150 -236zM317 1456h261l182 -276h-223l-91 141l-88 -141h-223z" />
    <glyph glyph-name="edieresis" unicode="&#xeb;" horiz-adv-x="897" 
d="M836 467h-533q0 -59 5 -103t20 -89t47 -69t80 -24q35 0 61.5 12t40 26t24 38.5t12.5 34.5t5 29h233q-28 -234 -206 -310q-74 -32 -172 -32q-72 0 -130 17t-98.5 46t-71 72.5t-48 89.5t-28.5 105t-14.5 111.5t-3.5 115.5q0 257 100.5 398.5t297.5 141.5q90 0 157.5 -26.5
t110 -71.5t69 -111t36.5 -137.5t10 -159.5q0 -68 -4 -104zM307 643h291q0 47 -4.5 82t-17.5 73.5t-43 59.5t-76 21q-150 0 -150 -236zM383 1212h-201v242h201v-242zM715 1212h-201v242h201v-242z" />
    <glyph glyph-name="igrave" unicode="&#xec;" horiz-adv-x="462" 
d="M109 0v1061h243v-1061h-243zM-127 1468h289l192 -278h-213z" />
    <glyph glyph-name="iacute" unicode="&#xed;" horiz-adv-x="462" 
d="M109 0v1061h243v-1061h-243zM301 1468h285l-269 -278h-208z" />
    <glyph glyph-name="icircumflex" unicode="&#xee;" horiz-adv-x="462" 
d="M109 0v1061h243v-1061h-243zM98 1456h260l183 -276h-224l-90 141l-88 -141h-223z" />
    <glyph glyph-name="idieresis" unicode="&#xef;" horiz-adv-x="462" 
d="M109 0v1061h243v-1061h-243zM164 1212h-201v242h201v-242zM496 1212h-201v242h201v-242z" />
    <glyph glyph-name="eth" unicode="&#xf0;" horiz-adv-x="923" 
d="M150 1276v197q240 -6 397 -101l168 121l55 -96l-131 -94q217 -213 217 -742q0 -302 -98 -440.5t-307 -138.5q-392 0 -392 518q0 231 97 362t290 131q83 0 125 -22q-20 122 -110 200l-197 -141l-59 98l153 109q-89 39 -208 39zM461 799q-83 0 -118.5 -72t-35.5 -229
q0 -314 152 -314q84 0 117.5 73.5t33.5 244.5q0 168 -30.5 232.5t-118.5 64.5z" />
    <glyph glyph-name="ntilde" unicode="&#xf1;" horiz-adv-x="962" 
d="M109 0v731q0 245 -3 330h236q6 -81 6 -111q75 129 236 129q130 0 200 -81.5t70 -241.5v-756h-244v700q0 85 -26 127.5t-95 42.5q-71 0 -104 -48t-33 -165v-657h-243zM348 1194h-164v59q0 191 162 191q46 0 92.5 -19t82.5 -38t57 -19q36 0 36 64v14h160v-49
q0 -116 -42.5 -160.5t-121.5 -44.5q-44 0 -88.5 18.5t-79.5 37t-57 18.5q-37 0 -37 -49v-23z" />
    <glyph glyph-name="ograve" unicode="&#xf2;" horiz-adv-x="917" 
d="M467 1077q191 0 290 -136.5t99 -401.5q0 -559 -401 -559q-196 0 -296 133.5t-100 418.5q0 275 107 410t301 135zM461 872q-82 0 -118 -82t-36 -255q0 -178 35 -264.5t121 -86.5q79 0 113 86t34 262q0 179 -33.5 259.5t-115.5 80.5zM98 1477h289l193 -279h-213z" />
    <glyph glyph-name="oacute" unicode="&#xf3;" horiz-adv-x="917" 
d="M467 1077q191 0 290 -136.5t99 -401.5q0 -559 -401 -559q-196 0 -296 133.5t-100 418.5q0 275 107 410t301 135zM461 872q-82 0 -118 -82t-36 -255q0 -178 35 -264.5t121 -86.5q79 0 113 86t34 262q0 179 -33.5 259.5t-115.5 80.5zM524 1487h285l-268 -279h-209z" />
    <glyph glyph-name="ocircumflex" unicode="&#xf4;" horiz-adv-x="917" 
d="M467 1077q191 0 290 -136.5t99 -401.5q0 -559 -401 -559q-196 0 -296 133.5t-100 418.5q0 275 107 410t301 135zM461 872q-82 0 -118 -82t-36 -255q0 -178 35 -264.5t121 -86.5q79 0 113 86t34 262q0 179 -33.5 259.5t-115.5 80.5zM328 1456h260l182 -276h-223l-90 141
l-88 -141h-224z" />
    <glyph glyph-name="otilde" unicode="&#xf5;" horiz-adv-x="917" 
d="M467 1077q191 0 290 -136.5t99 -401.5q0 -559 -401 -559q-196 0 -296 133.5t-100 418.5q0 275 107 410t301 135zM461 872q-82 0 -118 -82t-36 -255q0 -178 35 -264.5t121 -86.5q79 0 113 86t34 262q0 179 -33.5 259.5t-115.5 80.5zM326 1194h-164v59q0 191 162 191
q46 0 92 -19t82 -38t57 -19q37 0 37 64v14h160v-49q0 -116 -42.5 -160.5t-121.5 -44.5q-44 0 -88.5 18.5t-80 37t-57.5 18.5q-36 0 -36 -49v-23z" />
    <glyph glyph-name="odieresis" unicode="&#xf6;" horiz-adv-x="917" 
d="M467 1077q191 0 290 -136.5t99 -401.5q0 -559 -401 -559q-196 0 -296 133.5t-100 418.5q0 275 107 410t301 135zM461 872q-82 0 -118 -82t-36 -255q0 -178 35 -264.5t121 -86.5q79 0 113 86t34 262q0 179 -33.5 259.5t-115.5 80.5zM393 1212h-200v242h200v-242zM725 1212
h-201v242h201v-242z" />
    <glyph glyph-name="divide" unicode="&#xf7;" horiz-adv-x="1114" 
d="M653 55h-188v219h188v-219zM1006 422h-900v182h900v-182zM653 750h-188v221h188v-221z" />
    <glyph glyph-name="oslash" unicode="&#xf8;" horiz-adv-x="917" 
d="M467 1077q131 0 217 -59l25 43h116l-67 -117q98 -134 98 -405q0 -294 -100.5 -426.5t-300.5 -132.5q-139 0 -224 59l-28 -49h-113l70 119q-101 138 -101 430q0 272 106 405t302 133zM461 879q-80 0 -121 -81.5t-41 -260.5q0 -90 10 -168l262 454q-36 56 -110 56zM463 176
q82 0 117.5 83.5t35.5 285.5q0 83 -6 145l-262 -450q40 -64 115 -64z" />
    <glyph glyph-name="ugrave" unicode="&#xf9;" horiz-adv-x="954" 
d="M846 1061v-750q0 -256 2 -311h-234q-8 44 -8 117q-34 -72 -92 -103.5t-145 -31.5q-265 0 -265 317v762h244v-707q0 -84 24.5 -124t88.5 -40q72 0 106.5 49.5t34.5 170.5v651h244zM123 1468h289l192 -278h-213z" />
    <glyph glyph-name="uacute" unicode="&#xfa;" horiz-adv-x="954" 
d="M846 1061v-750q0 -256 2 -311h-234q-8 44 -8 117q-34 -72 -92 -103.5t-145 -31.5q-265 0 -265 317v762h244v-707q0 -84 24.5 -124t88.5 -40q72 0 106.5 49.5t34.5 170.5v651h244zM539 1468h284l-268 -278h-209z" />
    <glyph glyph-name="ucircumflex" unicode="&#xfb;" horiz-adv-x="954" 
d="M846 1061v-750q0 -256 2 -311h-234q-8 44 -8 117q-34 -72 -92 -103.5t-145 -31.5q-265 0 -265 317v762h244v-707q0 -84 24.5 -124t88.5 -40q72 0 106.5 49.5t34.5 170.5v651h244zM346 1456h260l182 -276h-223l-90 141l-88 -141h-223z" />
    <glyph glyph-name="udieresis" unicode="&#xfc;" horiz-adv-x="954" 
d="M846 1061v-750q0 -256 2 -311h-234q-8 44 -8 117q-34 -72 -92 -103.5t-145 -31.5q-265 0 -265 317v762h244v-707q0 -84 24.5 -124t88.5 -40q72 0 106.5 49.5t34.5 170.5v651h244zM412 1212h-201v242h201v-242zM743 1212h-200v242h200v-242z" />
    <glyph glyph-name="yacute" unicode="&#xfd;" horiz-adv-x="862" 
d="M8 1061h268q20 -89 55.5 -239t53 -227t34.5 -162t21 -130h2q37 223 166 758h246l-305 -1108q-22 -81 -46.5 -141t-53.5 -97.5t-56 -61t-63.5 -34t-65 -13.5t-71.5 -3q-56 0 -97 8v207q28 -4 78 -4q67 0 99.5 37.5t54.5 134.5zM485 1468h285l-268 -278h-209z" />
    <glyph glyph-name="thorn" unicode="&#xfe;" horiz-adv-x="956" 
d="M352 -383h-243v1837h243v-508q27 63 82 97t154 34q309 0 309 -532q0 -286 -90.5 -425.5t-249.5 -139.5q-150 0 -205 102v-465zM649 528q0 135 -18 211t-49.5 103.5t-85.5 27.5q-45 0 -76 -24t-47 -70.5t-22.5 -102t-6.5 -130.5q0 -71 3 -121t12 -97t25.5 -75t43.5 -45
t66 -17q155 0 155 340z" />
    <glyph glyph-name="ydieresis" unicode="&#xff;" horiz-adv-x="862" 
d="M8 1061h268q20 -89 55.5 -239t53 -227t34.5 -162t21 -130h2q37 223 166 758h246l-305 -1108q-22 -81 -46.5 -141t-53.5 -97.5t-56 -61t-63.5 -34t-65 -13.5t-71.5 -3q-56 0 -97 8v207q28 -4 78 -4q67 0 99.5 37.5t54.5 134.5zM367 1212h-201v242h201v-242zM698 1212h-200
v242h200v-242z" />
    <glyph glyph-name="Amacron" unicode="&#x100;" horiz-adv-x="987" 
d="M649 348h-321l-70 -348h-248l322 1386h321l324 -1386h-260zM371 563h233q-21 109 -61.5 314.5t-53.5 277.5h-6q-6 -45 -18.5 -116.5t-23 -124.5t-35 -175t-35.5 -176zM223 1690h541v-183h-541v183z" />
    <glyph glyph-name="amacron" unicode="&#x101;" horiz-adv-x="913" 
d="M803 772v-541q0 -137 8 -231h-221q-10 50 -10 98q-70 -116 -240 -116q-73 0 -129.5 27t-89 73t-48.5 100t-16 113q0 164 109.5 257t308.5 93q63 0 88 -2v115q0 22 -1.5 38t-8 35.5t-18.5 32t-33.5 21t-52.5 8.5q-37 0 -60.5 -10.5t-35 -32.5t-16 -42t-7.5 -52h-234
q1 50 11.5 93.5t36 86.5t65 73.5t103.5 49t147 18.5q344 0 344 -305zM569 430v35q-27 4 -80 4q-99 0 -144.5 -41.5t-45.5 -110.5q0 -55 30 -96t93 -41q88 0 117.5 60.5t29.5 189.5zM201 1415h512v-188h-512v188z" />
    <glyph glyph-name="Abreve" unicode="&#x102;" horiz-adv-x="987" 
d="M649 348h-321l-70 -348h-248l322 1386h321l324 -1386h-260zM371 563h233q-21 109 -61.5 314.5t-53.5 277.5h-6q-6 -45 -18.5 -116.5t-23 -124.5t-35 -175t-35.5 -176zM195 1739h176q9 -42 42.5 -69.5t82.5 -27.5q98 0 122 97h175q-15 -111 -89 -184.5t-212 -73.5
q-143 0 -216 73.5t-81 184.5z" />
    <glyph glyph-name="abreve" unicode="&#x103;" horiz-adv-x="913" 
d="M803 772v-541q0 -137 8 -231h-221q-10 50 -10 98q-70 -116 -240 -116q-73 0 -129.5 27t-89 73t-48.5 100t-16 113q0 164 109.5 257t308.5 93q63 0 88 -2v115q0 22 -1.5 38t-8 35.5t-18.5 32t-33.5 21t-52.5 8.5q-37 0 -60.5 -10.5t-35 -32.5t-16 -42t-7.5 -52h-234
q1 50 11.5 93.5t36 86.5t65 73.5t103.5 49t147 18.5q344 0 344 -305zM569 430v35q-27 4 -80 4q-99 0 -144.5 -41.5t-45.5 -110.5q0 -55 30 -96t93 -41q88 0 117.5 60.5t29.5 189.5zM172 1444h180q18 -96 107 -96q52 0 73.5 24.5t32.5 71.5h176q-6 -54 -24 -100t-51 -84
t-87 -60t-124 -22t-124.5 22.5t-87.5 61.5t-50.5 85t-20.5 97z" />
    <glyph glyph-name="Aogonek" unicode="&#x104;" horiz-adv-x="987" 
d="M649 348h-321l-70 -348h-248l322 1386h321l324 -1386h2q-34 -32 -55 -70t-21 -71q0 -38 22 -60t62 -22q34 0 72 10l18 -156q-56 -34 -172 -34q-102 0 -165.5 53t-63.5 151q0 107 86 199h-45zM371 563h233q-21 109 -61.5 314.5t-53.5 277.5h-6q-6 -45 -18.5 -116.5
t-23 -124.5t-35 -175t-35.5 -176z" />
    <glyph glyph-name="aogonek" unicode="&#x105;" horiz-adv-x="913" 
d="M803 772v-541q0 -137 8 -231q-34 -32 -55 -70t-21 -71q0 -38 22 -60t62 -22q34 0 72 10l18 -156q-56 -34 -172 -34q-102 0 -165.5 53t-63.5 151q0 107 86 199h-4q-10 50 -10 98q-70 -116 -240 -116q-73 0 -129.5 27t-89 73t-48.5 100t-16 113q0 164 109.5 257t308.5 93
q63 0 88 -2v115q0 22 -1.5 38t-8 35.5t-18.5 32t-33.5 21t-52.5 8.5q-37 0 -60.5 -10.5t-35 -32.5t-16 -42t-7.5 -52h-234q1 50 11.5 93.5t36 86.5t65 73.5t103.5 49t147 18.5q344 0 344 -305zM569 430v35q-27 4 -80 4q-99 0 -144.5 -41.5t-45.5 -110.5q0 -55 30 -96t93 -41
q88 0 117.5 60.5t29.5 189.5z" />
    <glyph glyph-name="Cacute" unicode="&#x106;" horiz-adv-x="978" 
d="M684 403h246q-2 -21 -3.5 -34t-7.5 -48t-14.5 -61t-24.5 -64t-36.5 -66t-52.5 -59t-70.5 -50.5t-91.5 -32.5t-115 -13q-65 0 -119 12.5t-95.5 34.5t-75 56.5t-56.5 73t-40.5 89.5t-27.5 100.5t-16 111.5t-8 117.5t-2 123.5q0 348 109 530.5t345 182.5q76 0 137.5 -18.5
t102 -46t71 -69t46.5 -77.5t26.5 -82.5t13.5 -73.5t5 -59h-246q-7 83 -21 120q-39 96 -139 97q-57 0 -96 -33.5t-60 -102.5t-29.5 -157.5t-8.5 -214.5q0 -110 7 -191.5t26 -158.5t58 -117.5t97 -40.5q142 0 165 215q1 4 1 6zM578 1743h294l-286 -246h-236z" />
    <glyph glyph-name="cacute" unicode="&#x107;" horiz-adv-x="854" 
d="M575 358h238q-1 -26 -3.5 -48t-11.5 -63t-23.5 -73t-43 -70t-66.5 -63t-96.5 -42t-130.5 -17q-89 0 -156 28.5t-109 77t-68 121t-36 152t-10 178.5q0 88 12 164.5t41 146.5t73 120t112.5 79.5t155.5 29.5q71 0 128.5 -17.5t94 -42.5t63.5 -63t40.5 -69.5t21.5 -71
t9.5 -58.5t2.5 -42h-248q-1 22 -2 34.5t-7.5 40.5t-17.5 44.5t-33.5 30.5t-53.5 14q-79 0 -111.5 -84.5t-32.5 -257.5q0 -179 31.5 -266t107.5 -87q28 0 49 8t34.5 25t22 30.5t13.5 40t6 36t4 34.5zM504 1468h284l-268 -278h-209z" />
    <glyph glyph-name="Ccircumflex" unicode="&#x108;" horiz-adv-x="978" 
d="M684 403h246q-2 -21 -3.5 -34t-7.5 -48t-14.5 -61t-24.5 -64t-36.5 -66t-52.5 -59t-70.5 -50.5t-91.5 -32.5t-115 -13q-65 0 -119 12.5t-95.5 34.5t-75 56.5t-56.5 73t-40.5 89.5t-27.5 100.5t-16 111.5t-8 117.5t-2 123.5q0 348 109 530.5t345 182.5q76 0 137.5 -18.5
t102 -46t71 -69t46.5 -77.5t26.5 -82.5t13.5 -73.5t5 -59h-246q-7 83 -21 120q-39 96 -139 97q-57 0 -96 -33.5t-60 -102.5t-29.5 -157.5t-8.5 -214.5q0 -110 7 -191.5t26 -158.5t58 -117.5t97 -40.5q142 0 165 215q1 4 1 6zM373 1733h272l199 -238h-242l-94 115l-92 -115
h-242z" />
    <glyph glyph-name="ccircumflex" unicode="&#x109;" horiz-adv-x="854" 
d="M575 358h238q-1 -26 -3.5 -48t-11.5 -63t-23.5 -73t-43 -70t-66.5 -63t-96.5 -42t-130.5 -17q-89 0 -156 28.5t-109 77t-68 121t-36 152t-10 178.5q0 88 12 164.5t41 146.5t73 120t112.5 79.5t155.5 29.5q71 0 128.5 -17.5t94 -42.5t63.5 -63t40.5 -69.5t21.5 -71
t9.5 -58.5t2.5 -42h-248q-1 22 -2 34.5t-7.5 40.5t-17.5 44.5t-33.5 30.5t-53.5 14q-79 0 -111.5 -84.5t-32.5 -257.5q0 -179 31.5 -266t107.5 -87q28 0 49 8t34.5 25t22 30.5t13.5 40t6 36t4 34.5zM315 1456h260l183 -276h-223l-91 141l-88 -141h-223z" />
    <glyph glyph-name="Cdotaccent" unicode="&#x10a;" horiz-adv-x="978" 
d="M684 403h246q-2 -21 -3.5 -34t-7.5 -48t-14.5 -61t-24.5 -64t-36.5 -66t-52.5 -59t-70.5 -50.5t-91.5 -32.5t-115 -13q-65 0 -119 12.5t-95.5 34.5t-75 56.5t-56.5 73t-40.5 89.5t-27.5 100.5t-16 111.5t-8 117.5t-2 123.5q0 348 109 530.5t345 182.5q76 0 137.5 -18.5
t102 -46t71 -69t46.5 -77.5t26.5 -82.5t13.5 -73.5t5 -59h-246q-7 83 -21 120q-39 96 -139 97q-57 0 -96 -33.5t-60 -102.5t-29.5 -157.5t-8.5 -214.5q0 -110 7 -191.5t26 -158.5t58 -117.5t97 -40.5q142 0 165 215q1 4 1 6zM633 1505h-248v242h248v-242z" />
    <glyph glyph-name="cdotaccent" unicode="&#x10b;" horiz-adv-x="854" 
d="M575 358h238q-1 -26 -3.5 -48t-11.5 -63t-23.5 -73t-43 -70t-66.5 -63t-96.5 -42t-130.5 -17q-89 0 -156 28.5t-109 77t-68 121t-36 152t-10 178.5q0 88 12 164.5t41 146.5t73 120t112.5 79.5t155.5 29.5q71 0 128.5 -17.5t94 -42.5t63.5 -63t40.5 -69.5t21.5 -71
t9.5 -58.5t2.5 -42h-248q-1 22 -2 34.5t-7.5 40.5t-17.5 44.5t-33.5 30.5t-53.5 14q-79 0 -111.5 -84.5t-32.5 -257.5q0 -179 31.5 -266t107.5 -87q28 0 49 8t34.5 25t22 30.5t13.5 40t6 36t4 34.5zM567 1212h-243v242h243v-242z" />
    <glyph glyph-name="Ccaron" unicode="&#x10c;" horiz-adv-x="978" 
d="M684 403h246q-2 -21 -3.5 -34t-7.5 -48t-14.5 -61t-24.5 -64t-36.5 -66t-52.5 -59t-70.5 -50.5t-91.5 -32.5t-115 -13q-65 0 -119 12.5t-95.5 34.5t-75 56.5t-56.5 73t-40.5 89.5t-27.5 100.5t-16 111.5t-8 117.5t-2 123.5q0 348 109 530.5t345 182.5q76 0 137.5 -18.5
t102 -46t71 -69t46.5 -77.5t26.5 -82.5t13.5 -73.5t5 -59h-246q-7 83 -21 120q-39 96 -139 97q-57 0 -96 -33.5t-60 -102.5t-29.5 -157.5t-8.5 -214.5q0 -110 7 -191.5t26 -158.5t58 -117.5t97 -40.5q142 0 165 215q1 4 1 6zM645 1491h-272l-199 238h242l94 -119l92 119h242
z" />
    <glyph glyph-name="ccaron" unicode="&#x10d;" horiz-adv-x="854" 
d="M575 358h238q-1 -26 -3.5 -48t-11.5 -63t-23.5 -73t-43 -70t-66.5 -63t-96.5 -42t-130.5 -17q-89 0 -156 28.5t-109 77t-68 121t-36 152t-10 178.5q0 88 12 164.5t41 146.5t73 120t112.5 79.5t155.5 29.5q71 0 128.5 -17.5t94 -42.5t63.5 -63t40.5 -69.5t21.5 -71
t9.5 -58.5t2.5 -42h-248q-1 22 -2 34.5t-7.5 40.5t-17.5 44.5t-33.5 30.5t-53.5 14q-79 0 -111.5 -84.5t-32.5 -257.5q0 -179 31.5 -266t107.5 -87q28 0 49 8t34.5 25t22 30.5t13.5 40t6 36t4 34.5zM575 1182h-260l-182 276h221l92 -141l89 141h223z" />
    <glyph glyph-name="Dcaron" unicode="&#x10e;" horiz-adv-x="1050" 
d="M121 0v1386h360q261 0 378.5 -165t117.5 -500q0 -364 -118.5 -542.5t-395.5 -178.5h-342zM371 1180v-977h88q145 0 203.5 118t58.5 400q0 245 -56.5 352t-203.5 107h-90zM618 1489h-272l-199 237h242l94 -118l92 118h242z" />
    <glyph glyph-name="dcaron" unicode="&#x10f;" horiz-adv-x="1067" 
d="M602 1454h246v-1159q0 -234 2 -295h-236q-8 54 -8 113q-53 -131 -235 -131q-163 0 -238.5 141t-75.5 416q0 254 87.5 396t267.5 142q150 0 190 -82v459zM307 535q0 -183 35.5 -265t112.5 -82q92 0 123.5 78t31.5 277q0 192 -27 259.5t-118 67.5q-79 0 -118.5 -74.5
t-39.5 -260.5zM1085 952h-157l-13 502h183z" />
    <glyph glyph-name="Dcroat" unicode="&#x110;" horiz-adv-x="1071" 
d="M10 827h131v559h361q261 0 378 -165t117 -500q0 -364 -118.5 -542.5t-395.5 -178.5h-342v621h-131v206zM391 1180v-353h213v-206h-213v-418h88q145 0 203.5 118t58.5 400q0 245 -56.5 352t-203.5 107h-90z" />
    <glyph glyph-name="dcroat" unicode="&#x111;" horiz-adv-x="952" 
d="M586 1454h245v-135h119v-156h-119v-868q0 -203 3 -295h-236q-8 54 -8 113q-31 -65 -81 -98t-147 -33q-305 0 -305 548q0 152 35 265t112 180t189 67q156 0 193 -90v211h-324v156h324v135zM307 522q0 -177 34 -255.5t110 -78.5q36 0 62 15t41.5 41t24.5 69t12 90.5
t3 114.5q0 54 -1.5 91t-6 76t-14 64t-24.5 45.5t-37.5 30t-53.5 9.5q-75 0 -112.5 -73.5t-37.5 -238.5z" />
    <glyph glyph-name="Emacron" unicode="&#x112;" horiz-adv-x="901" 
d="M811 831v-215h-446v-403h499l-30 -213h-713v1386h710v-217h-466v-338h446zM203 1698h540v-182h-540v182z" />
    <glyph glyph-name="emacron" unicode="&#x113;" horiz-adv-x="897" 
d="M836 467h-533q0 -59 5 -103t20 -89t47 -69t80 -24q35 0 61.5 12t40 26t24 38.5t12.5 34.5t5 29h233q-28 -234 -206 -310q-74 -32 -172 -32q-72 0 -130 17t-98.5 46t-71 72.5t-48 89.5t-28.5 105t-14.5 111.5t-3.5 115.5q0 257 100.5 398.5t297.5 141.5q90 0 157.5 -26.5
t110 -71.5t69 -111t36.5 -137.5t10 -159.5q0 -68 -4 -104zM307 643h291q0 47 -4.5 82t-17.5 73.5t-43 59.5t-76 21q-150 0 -150 -236zM190 1415h512v-188h-512v188z" />
    <glyph glyph-name="Ebreve" unicode="&#x114;" horiz-adv-x="901" 
d="M811 831v-215h-446v-403h499l-30 -213h-713v1386h710v-217h-466v-338h446zM174 1741h176q9 -42 42.5 -69t82.5 -27q99 0 123 96h174q-15 -111 -89 -184.5t-212 -73.5q-143 0 -216 73.5t-81 184.5z" />
    <glyph glyph-name="ebreve" unicode="&#x115;" horiz-adv-x="897" 
d="M836 467h-533q0 -59 5 -103t20 -89t47 -69t80 -24q35 0 61.5 12t40 26t24 38.5t12.5 34.5t5 29h233q-28 -234 -206 -310q-74 -32 -172 -32q-72 0 -130 17t-98.5 46t-71 72.5t-48 89.5t-28.5 105t-14.5 111.5t-3.5 115.5q0 257 100.5 398.5t297.5 141.5q90 0 157.5 -26.5
t110 -71.5t69 -111t36.5 -137.5t10 -159.5q0 -68 -4 -104zM307 643h291q0 47 -4.5 82t-17.5 73.5t-43 59.5t-76 21q-150 0 -150 -236zM162 1444h180q18 -96 107 -96q52 0 73.5 24.5t32.5 71.5h176q-6 -54 -24.5 -100t-51.5 -84t-87 -60t-124 -22t-124.5 22.5t-87 61.5
t-50 84.5t-20.5 97.5z" />
    <glyph glyph-name="Edotaccent" unicode="&#x116;" horiz-adv-x="901" 
d="M811 831v-215h-446v-403h499l-30 -213h-713v1386h710v-217h-466v-338h446zM596 1505h-248v242h248v-242z" />
    <glyph glyph-name="edotaccent" unicode="&#x117;" horiz-adv-x="897" 
d="M836 467h-533q0 -59 5 -103t20 -89t47 -69t80 -24q35 0 61.5 12t40 26t24 38.5t12.5 34.5t5 29h233q-28 -234 -206 -310q-74 -32 -172 -32q-72 0 -130 17t-98.5 46t-71 72.5t-48 89.5t-28.5 105t-14.5 111.5t-3.5 115.5q0 257 100.5 398.5t297.5 141.5q90 0 157.5 -26.5
t110 -71.5t69 -111t36.5 -137.5t10 -159.5q0 -68 -4 -104zM307 643h291q0 47 -4.5 82t-17.5 73.5t-43 59.5t-76 21q-150 0 -150 -236zM569 1212h-243v242h243v-242z" />
    <glyph glyph-name="Eogonek" unicode="&#x118;" horiz-adv-x="901" 
d="M811 831v-215h-446v-403h499l-30 -213h-62q-34 -32 -55 -70t-21 -71q0 -38 22 -60t62 -22q34 0 72 10l18 -156q-56 -34 -172 -34q-102 0 -165.5 53t-63.5 151q0 107 86 199h-434v1386h710v-217h-466v-338h446z" />
    <glyph glyph-name="eogonek" unicode="&#x119;" horiz-adv-x="897" 
d="M836 467h-533q0 -59 5 -103t20 -89t47 -69t80 -24q35 0 61.5 12t40 26t24 38.5t12.5 34.5t5 29h233q-13 -90 -40 -146q-57 -119 -173 -168q-69 -69 -69 -135q0 -38 22 -60t62 -22q34 0 72 10l18 -155q-58 -35 -172 -35q-102 0 -165.5 53.5t-63.5 151.5q0 88 59 168
q-81 11 -140.5 49.5t-93.5 89.5t-54.5 124t-27 140t-6.5 150q0 257 100.5 398.5t297.5 141.5q90 0 157.5 -26.5t110 -71.5t69 -111t36.5 -137.5t10 -159.5q0 -68 -4 -104zM307 643h291q0 47 -4.5 82t-17.5 73.5t-43 59.5t-76 21q-150 0 -150 -236z" />
    <glyph glyph-name="Ecaron" unicode="&#x11a;" horiz-adv-x="901" 
d="M811 831v-215h-446v-403h499l-30 -213h-713v1386h710v-217h-466v-338h446zM608 1491h-272l-199 238h242l94 -119l92 119h242z" />
    <glyph glyph-name="ecaron" unicode="&#x11b;" horiz-adv-x="897" 
d="M836 467h-533q0 -59 5 -103t20 -89t47 -69t80 -24q35 0 61.5 12t40 26t24 38.5t12.5 34.5t5 29h233q-28 -234 -206 -310q-74 -32 -172 -32q-72 0 -130 17t-98.5 46t-71 72.5t-48 89.5t-28.5 105t-14.5 111.5t-3.5 115.5q0 257 100.5 398.5t297.5 141.5q90 0 157.5 -26.5
t110 -71.5t69 -111t36.5 -137.5t10 -159.5q0 -68 -4 -104zM307 643h291q0 47 -4.5 82t-17.5 73.5t-43 59.5t-76 21q-150 0 -150 -236zM578 1182h-261l-182 276h221l93 -141l88 141h223z" />
    <glyph glyph-name="Gcircumflex" unicode="&#x11c;" horiz-adv-x="1038" 
d="M944 778v-778h-188q-11 81 -13 119q-43 -79 -111 -111.5t-163 -32.5q-211 0 -303 178.5t-92 530.5q0 723 469 723q77 0 140 -18.5t103 -46t70 -69t45.5 -76t25 -78.5t12 -66t3.5 -49h-244q-14 194 -163 194q-58 0 -99 -37t-63.5 -108t-32.5 -160.5t-10 -208.5
q0 -128 8.5 -215.5t30 -154.5t60.5 -98.5t97 -31.5q95 0 133.5 73t38.5 232v78h-186v211h432zM385 1733h272l199 -238h-242l-94 115l-92 -115h-242z" />
    <glyph glyph-name="gcircumflex" unicode="&#x11d;" horiz-adv-x="958" 
d="M850 741v-655q0 -118 -19.5 -203.5t-64.5 -151t-126 -98t-198 -32.5q-87 0 -154 20t-106.5 50.5t-65 73t-35 81.5t-11.5 82h243q2 -19 6.5 -32t17.5 -33.5t42 -32t72 -11.5q94 0 125.5 67.5t31.5 219.5v47q-60 -125 -227 -125q-164 0 -243 133.5t-79 376.5q0 269 91 414
t253 145q93 0 141 -33t64 -77q3 47 10 94h234q-2 -66 -2 -320zM311 524q0 -160 38 -235.5t114 -75.5q45 0 75 21t46 67.5t22 106t6 149.5q0 66 -2 106.5t-10 84.5t-23 67.5t-42 39t-66 15.5q-158 0 -158 -346zM348 1456h260l183 -276h-224l-90 141l-88 -141h-223z" />
    <glyph glyph-name="Gbreve" unicode="&#x11e;" horiz-adv-x="1038" 
d="M944 778v-778h-188q-11 81 -13 119q-43 -79 -111 -111.5t-163 -32.5q-211 0 -303 178.5t-92 530.5q0 723 469 723q77 0 140 -18.5t103 -46t70 -69t45.5 -76t25 -78.5t12 -66t3.5 -49h-244q-14 194 -163 194q-58 0 -99 -37t-63.5 -108t-32.5 -160.5t-10 -208.5
q0 -128 8.5 -215.5t30 -154.5t60.5 -98.5t97 -31.5q95 0 133.5 73t38.5 232v78h-186v211h432zM223 1741h176q9 -42 42.5 -69t82.5 -27q99 0 123 96h174q-15 -111 -89 -184.5t-212 -73.5q-143 0 -216 73.5t-81 184.5z" />
    <glyph glyph-name="gbreve" unicode="&#x11f;" horiz-adv-x="958" 
d="M850 741v-655q0 -118 -19.5 -203.5t-64.5 -151t-126 -98t-198 -32.5q-87 0 -154 20t-106.5 50.5t-65 73t-35 81.5t-11.5 82h243q2 -19 6.5 -32t17.5 -33.5t42 -32t72 -11.5q94 0 125.5 67.5t31.5 219.5v47q-60 -125 -227 -125q-164 0 -243 133.5t-79 376.5q0 269 91 414
t253 145q93 0 141 -33t64 -77q3 47 10 94h234q-2 -66 -2 -320zM311 524q0 -160 38 -235.5t114 -75.5q45 0 75 21t46 67.5t22 106t6 149.5q0 66 -2 106.5t-10 84.5t-23 67.5t-42 39t-66 15.5q-158 0 -158 -346zM193 1444h180q18 -96 106 -96q52 0 74 25t33 71h176
q-6 -54 -24.5 -100t-51.5 -84t-87 -60t-124 -22t-124.5 22.5t-87 61.5t-50 84.5t-20.5 97.5z" />
    <glyph glyph-name="Gdotaccent" unicode="&#x120;" horiz-adv-x="1038" 
d="M944 778v-778h-188q-11 81 -13 119q-43 -79 -111 -111.5t-163 -32.5q-211 0 -303 178.5t-92 530.5q0 723 469 723q77 0 140 -18.5t103 -46t70 -69t45.5 -76t25 -78.5t12 -66t3.5 -49h-244q-14 194 -163 194q-58 0 -99 -37t-63.5 -108t-32.5 -160.5t-10 -208.5
q0 -128 8.5 -215.5t30 -154.5t60.5 -98.5t97 -31.5q95 0 133.5 73t38.5 232v78h-186v211h432zM645 1505h-248v242h248v-242z" />
    <glyph glyph-name="gdotaccent" unicode="&#x121;" horiz-adv-x="958" 
d="M850 741v-655q0 -118 -19.5 -203.5t-64.5 -151t-126 -98t-198 -32.5q-87 0 -154 20t-106.5 50.5t-65 73t-35 81.5t-11.5 82h243q2 -19 6.5 -32t17.5 -33.5t42 -32t72 -11.5q94 0 125.5 67.5t31.5 219.5v47q-60 -125 -227 -125q-164 0 -243 133.5t-79 376.5q0 269 91 414
t253 145q93 0 141 -33t64 -77q3 47 10 94h234q-2 -66 -2 -320zM311 524q0 -160 38 -235.5t114 -75.5q45 0 75 21t46 67.5t22 106t6 149.5q0 66 -2 106.5t-10 84.5t-23 67.5t-42 39t-66 15.5q-158 0 -158 -346zM600 1212h-244v242h244v-242z" />
    <glyph glyph-name="uni0122" unicode="&#x122;" horiz-adv-x="1038" 
d="M944 778v-778h-188q-11 81 -13 119q-43 -79 -111 -111.5t-163 -32.5q-211 0 -303 178.5t-92 530.5q0 723 469 723q77 0 140 -18.5t103 -46t70 -69t45.5 -76t25 -78.5t12 -66t3.5 -49h-244q-14 194 -163 194q-58 0 -99 -37t-63.5 -108t-32.5 -160.5t-10 -208.5
q0 -128 8.5 -215.5t30 -154.5t60.5 -98.5t97 -31.5q95 0 133.5 73t38.5 232v78h-186v211h432zM535 -465h-207q69 160 80 361h241q-9 -111 -40 -208t-74 -153z" />
    <glyph glyph-name="uni0123" unicode="&#x123;" horiz-adv-x="958" 
d="M457 1548h217q-78 -173 -96 -352h-236q7 92 40.5 188.5t74.5 163.5zM850 741v-655q0 -118 -19.5 -203.5t-64.5 -151t-126 -98t-198 -32.5q-87 0 -154 20t-106.5 50.5t-65 73t-35 81.5t-11.5 82h243q2 -19 6.5 -32t17.5 -33.5t42 -32t72 -11.5q94 0 125.5 67.5t31.5 219.5
v47q-60 -125 -227 -125q-164 0 -243 133.5t-79 376.5q0 269 91 414t253 145q93 0 141 -33t64 -77q3 47 10 94h234q-2 -66 -2 -320zM311 524q0 -160 38 -235.5t114 -75.5q45 0 75 21t46 67.5t22 106t6 149.5q0 66 -2 106.5t-10 84.5t-23 67.5t-42 39t-66 15.5
q-158 0 -158 -346z" />
    <glyph glyph-name="Hcircumflex" unicode="&#x124;" horiz-adv-x="1073" 
d="M121 0v1386h248v-548h333v548h250v-1386h-250v623h-333v-623h-248zM399 1733h273l198 -238h-241l-94 115l-93 -115h-241z" />
    <glyph glyph-name="hcircumflex" unicode="&#x125;" horiz-adv-x="962" 
d="M109 1739h258l198 -211h-219l-110 106l-107 -106h-221zM109 1454h243v-496q69 121 240 121q262 0 262 -329v-750h-244v700q0 86 -25 128t-98 42q-77 0 -106 -54.5t-29 -168.5v-647h-243v1454z" />
    <glyph glyph-name="Hbar" unicode="&#x126;" horiz-adv-x="1073" 
d="M18 1167h103v219h248v-219h333v219h250v-219h101v-172h-101v-995h-250v616h-333v-616h-248v995h-103v172zM369 831h333v164h-333v-164z" />
    <glyph glyph-name="hbar" unicode="&#x127;" horiz-adv-x="962" 
d="M109 1454h245v-135h330v-156h-330v-243q70 122 238 122q130 0 196 -84t66 -247v-711h-244v662q0 86 -25 127.5t-98 41.5q-75 0 -104 -54.5t-29 -166.5v-610h-245v1163h-115v156h115v135z" />
    <glyph glyph-name="Itilde" unicode="&#x128;" horiz-adv-x="493" 
d="M121 1386h248v-1386h-248v1386zM86 1501h-158v55q0 106 47 152.5t123 46.5q59 0 150.5 -36t113.5 -36q46 0 46 56v18h155v-39q0 -121 -45 -170t-129 -49q-58 0 -146.5 35t-111.5 35q-20 0 -32.5 -11t-12.5 -32v-25z" />
    <glyph glyph-name="itilde" unicode="&#x129;" horiz-adv-x="462" 
d="M109 0v1061h243v-1061h-243zM96 1194h-164v59q0 191 162 191q46 0 92.5 -19t82.5 -38t57 -19q36 0 36 64v14h160v-49q0 -116 -42.5 -160.5t-121.5 -44.5q-44 0 -88.5 18.5t-79.5 37t-57 18.5q-37 0 -37 -49v-23z" />
    <glyph glyph-name="Imacron" unicode="&#x12a;" horiz-adv-x="493" 
d="M121 1386h248v-1386h-248v1386zM-25 1698h541v-182h-541v182z" />
    <glyph glyph-name="imacron" unicode="&#x12b;" horiz-adv-x="462" 
d="M109 0v1061h243v-1061h-243zM-29 1415h512v-188h-512v188z" />
    <glyph glyph-name="Iogonek" unicode="&#x12e;" horiz-adv-x="493" 
d="M121 1386h248v-1386h-15q-75 -72 -75 -141q0 -39 21.5 -60.5t61.5 -21.5q34 0 72 10l19 -156q-56 -34 -172 -34q-102 0 -166 53t-64 151q0 107 86 199h-16v1386z" />
    <glyph glyph-name="iogonek" unicode="&#x12f;" horiz-adv-x="462" 
d="M109 0v1061h243v-1061h-10q-34 -32 -55 -70t-21 -71q0 -38 22 -60t62 -22q34 0 72 10l18 -156q-56 -34 -172 -34q-102 0 -165.5 53t-63.5 151q0 107 86 199h-16zM354 1212h-243v242h243v-242z" />
    <glyph glyph-name="Idotaccent" unicode="&#x130;" horiz-adv-x="493" 
d="M121 1386h248v-1386h-248v1386zM369 1505h-248v242h248v-242z" />
    <glyph glyph-name="dotlessi" unicode="&#x131;" horiz-adv-x="462" 
d="M109 0v1061h243v-1061h-243z" />
    <glyph glyph-name="Jcircumflex" unicode="&#x134;" horiz-adv-x="593" 
d="M487 1386v-1021q0 -74 -8 -128.5t-29.5 -104.5t-58 -81.5t-95.5 -50t-140 -18.5q-71 0 -133 12v205q69 -6 88 -6q78 0 102.5 36t24.5 123v1034h249zM227 1726h273l198 -237h-241l-95 115l-92 -115h-241z" />
    <glyph glyph-name="jcircumflex" unicode="&#x135;" horiz-adv-x="462" 
d="M109 1061h243v-1079q0 -52 -2 -89t-9 -79t-19 -71t-32.5 -57t-50 -44.5t-71.5 -26.5t-96 -10q-57 0 -92 6v209q23 -2 51 -2q50 0 64 27t14 98v1118zM100 1456h260l183 -276h-224l-90 141l-88 -141h-223z" />
    <glyph glyph-name="uni0136" unicode="&#x136;" horiz-adv-x="993" 
d="M121 0v1386h244v-622q34 55 170 289.5t196 332.5h287l-359 -542l365 -844h-274l-261 637l-124 -176v-461h-244zM553 -451h-207q69 160 80 361h242q-9 -111 -40.5 -208t-74.5 -153z" />
    <glyph glyph-name="uni0137" unicode="&#x137;" horiz-adv-x="872" 
d="M352 1454v-846q106 190 260 453h269q-101 -160 -256 -389l272 -672h-276l-162 475q-17 -24 -57.5 -84t-49.5 -72v-319h-243v1454h243zM506 -453h-207q69 160 80 361h242q-9 -111 -40.5 -208t-74.5 -153z" />
    <glyph glyph-name="kgreenlandic" unicode="&#x138;" horiz-adv-x="872" 
d="M352 1061v-453q245 427 260 453h269q-84 -137 -256 -395q53 -126 155 -378t117 -288h-276q-36 103 -164 475q-48 -73 -105 -151v-324h-243v1061h243z" />
    <glyph glyph-name="Lacute" unicode="&#x139;" horiz-adv-x="847" 
d="M121 0v1386h248v-1175h475l-25 -211h-698zM344 1743h295l-287 -246h-235z" />
    <glyph glyph-name="lacute" unicode="&#x13a;" horiz-adv-x="460" 
d="M309 1759h279l-236 -217h-256zM352 0h-243v1454h243v-1454z" />
    <glyph glyph-name="uni013B" unicode="&#x13b;" horiz-adv-x="847" 
d="M121 0v1386h248v-1175h475l-25 -211h-698zM479 -465h-207q69 160 80 361h242q-9 -111 -40.5 -208t-74.5 -153z" />
    <glyph glyph-name="uni013C" unicode="&#x13c;" horiz-adv-x="460" 
d="M352 0h-243v1454h243v-1454zM236 -465h-207q69 160 80 361h241q-9 -111 -40 -208t-74 -153z" />
    <glyph glyph-name="Lcaron" unicode="&#x13d;" horiz-adv-x="847" 
d="M121 0v1386h248v-1175h475l-25 -211h-698zM713 883h-158l-12 501h182z" />
    <glyph glyph-name="lcaron" unicode="&#x13e;" horiz-adv-x="579" 
d="M352 0h-243v1454h243v-1454zM610 954h-157l-13 502h183z" />
    <glyph glyph-name="Ldot" unicode="&#x13f;" horiz-adv-x="847" 
d="M729 610h-225v287h225v-287zM121 0v1386h248v-1175h475l-25 -211h-698z" />
    <glyph glyph-name="ldot" unicode="&#x140;" horiz-adv-x="595" 
d="M633 764h-215v297h215v-297zM352 0h-243v1454h243v-1454z" />
    <glyph glyph-name="Lslash" unicode="&#x141;" horiz-adv-x="868" 
d="M616 793l-227 -121v-461h475l-24 -211h-699v539l-137 -74v184l137 74v663h248v-532l227 121v-182z" />
    <glyph glyph-name="lslash" unicode="&#x142;" horiz-adv-x="489" 
d="M373 0h-244v676l-109 -68v178l109 68v600h244v-450l123 75v-178l-123 -76v-825z" />
    <glyph glyph-name="Nacute" unicode="&#x143;" horiz-adv-x="1093" 
d="M344 0h-223v1386h280q322 -860 346 -936q9 -26 13 -44h2q-12 199 -12 598v382h223v-1386h-271q-338 929 -366 1028h-2q10 -172 10 -625v-403zM631 1741h295l-287 -246h-236z" />
    <glyph glyph-name="nacute" unicode="&#x144;" horiz-adv-x="962" 
d="M109 0v731q0 245 -3 330h236q6 -81 6 -111q75 129 236 129q130 0 200 -81.5t70 -241.5v-756h-244v700q0 85 -26 127.5t-95 42.5q-71 0 -104 -48t-33 -165v-657h-243zM535 1468h284l-268 -278h-209z" />
    <glyph glyph-name="uni0145" unicode="&#x145;" horiz-adv-x="1093" 
d="M344 0h-223v1386h280q322 -860 346 -936q9 -26 13 -44h2q-12 199 -12 598v382h223v-1386h-271q-338 929 -366 1028h-2q10 -172 10 -625v-403zM565 -465h-207q69 160 80 361h242q-9 -111 -40.5 -208t-74.5 -153z" />
    <glyph glyph-name="uni0146" unicode="&#x146;" horiz-adv-x="962" 
d="M109 0v731q0 245 -3 330h236q6 -81 6 -111q75 129 236 129q130 0 200 -81.5t70 -241.5v-756h-244v700q0 85 -26 127.5t-95 42.5q-71 0 -104 -48t-33 -165v-657h-243zM494 -465h-207q69 160 80 361h241q-9 -111 -40 -208t-74 -153z" />
    <glyph glyph-name="Ncaron" unicode="&#x147;" horiz-adv-x="1093" 
d="M344 0h-223v1386h280q322 -860 346 -936q9 -26 13 -44h2q-12 199 -12 598v382h223v-1386h-271q-338 929 -366 1028h-2q10 -172 10 -625v-403zM680 1489h-272l-199 237h242l94 -118l92 118h242z" />
    <glyph glyph-name="ncaron" unicode="&#x148;" horiz-adv-x="962" 
d="M109 0v731q0 245 -3 330h236q6 -81 6 -111q75 129 236 129q130 0 200 -81.5t70 -241.5v-756h-244v700q0 85 -26 127.5t-95 42.5q-71 0 -104 -48t-33 -165v-657h-243zM610 1182h-260l-182 276h221l92 -141l88 141h224z" />
    <glyph glyph-name="napostrophe" unicode="&#x149;" horiz-adv-x="962" 
d="M209 1149h-184q71 190 94 399h207q-4 -94 -38 -207.5t-79 -191.5zM109 0v731q0 245 -3 330h236q6 -81 6 -111q75 129 236 129q130 0 200 -81.5t70 -241.5v-756h-244v700q0 85 -26 127.5t-95 42.5q-71 0 -104 -48t-33 -165v-657h-243z" />
    <glyph glyph-name="Omacron" unicode="&#x14c;" horiz-adv-x="1048" 
d="M528 1407q228 0 337.5 -172.5t109.5 -532.5q0 -380 -109 -553.5t-348 -173.5q-227 0 -335.5 175t-108.5 557q0 185 30.5 320t90 218t142 122.5t191.5 39.5zM524 1198q-55 0 -93.5 -32t-61 -97t-32 -152.5t-9.5 -207.5q0 -259 45.5 -392t150.5 -133q57 0 95.5 32.5
t61 101.5t31.5 162.5t9 228.5q0 252 -44 370.5t-153 118.5zM254 1698h541v-182h-541v182z" />
    <glyph glyph-name="omacron" unicode="&#x14d;" horiz-adv-x="917" 
d="M467 1077q191 0 290 -136.5t99 -401.5q0 -559 -401 -559q-196 0 -296 133.5t-100 418.5q0 275 107 410t301 135zM461 872q-82 0 -118 -82t-36 -255q0 -178 35 -264.5t121 -86.5q79 0 113 86t34 262q0 179 -33.5 259.5t-115.5 80.5zM201 1415h512v-188h-512v188z" />
    <glyph glyph-name="Ohungarumlaut" unicode="&#x150;" horiz-adv-x="1048" 
d="M528 1407q228 0 337.5 -172.5t109.5 -532.5q0 -380 -109 -553.5t-348 -173.5q-227 0 -335.5 175t-108.5 557q0 185 30.5 320t90 218t142 122.5t191.5 39.5zM524 1198q-55 0 -93.5 -32t-61 -97t-32 -152.5t-9.5 -207.5q0 -259 45.5 -392t150.5 -133q57 0 95.5 32.5
t61 101.5t31.5 162.5t9 228.5q0 252 -44 370.5t-153 118.5zM391 1747h242l-213 -248h-195zM735 1747h236l-209 -248h-193z" />
    <glyph glyph-name="ohungarumlaut" unicode="&#x151;" horiz-adv-x="917" 
d="M467 1077q191 0 290 -136.5t99 -401.5q0 -559 -401 -559q-196 0 -296 133.5t-100 418.5q0 275 107 410t301 135zM461 872q-82 0 -118 -82t-36 -255q0 -178 35 -264.5t121 -86.5q79 0 113 86t34 262q0 179 -33.5 259.5t-115.5 80.5zM338 1182h-180l166 297h239zM688 1182
h-180l166 297h237z" />
    <glyph glyph-name="OE" unicode="&#x152;" horiz-adv-x="1490" 
d="M1419 1386v-221h-458v-334h436v-217h-436v-397h493l-33 -217h-630q-10 0 -78.5 -5t-128.5 -5q-119 0 -209.5 36.5t-147 98t-91.5 154.5t-48.5 194.5t-13.5 228.5q0 114 16.5 213t55 188t97 151.5t147.5 99.5t202 37q52 0 127 -2.5t80 -2.5h620zM715 209v965q-36 8 -105 8
q-141 0 -210.5 -118t-69.5 -364q0 -260 65.5 -379.5t206.5 -119.5q51 0 113 8z" />
    <glyph glyph-name="oe" unicode="&#x153;" horiz-adv-x="1443" 
d="M995 -18q-178 0 -268 114q-94 -116 -272 -116q-198 0 -297 134t-99 433q0 270 106 400t302 130q179 0 270 -129q104 129 287 129q362 0 362 -483v-127h-536q0 -38 1.5 -66.5t6 -64t15 -60t26 -47t41 -34t59.5 -11.5q27 0 48.5 5.5t35.5 17t24 22t16 27.5t8.5 25.5t5 24
t2.5 16.5h241q0 -2 -1 -8q-3 -22 -5.5 -38.5t-13.5 -54t-26.5 -65.5t-45 -62.5t-67.5 -57t-96.5 -38.5t-129.5 -16zM461 872q-79 0 -116.5 -79t-37.5 -248q0 -186 36.5 -273.5t119.5 -87.5q81 0 114 86t33 281q0 170 -36 245.5t-113 75.5zM852 643h291q0 50 -5.5 87
t-19.5 73t-44 55t-75 19q-33 0 -58.5 -12t-41 -34.5t-25.5 -44t-14.5 -53t-5.5 -48.5t-2 -42z" />
    <glyph glyph-name="Racute" unicode="&#x154;" horiz-adv-x="1007" 
d="M473 592h-106v-592h-246v1386h424q190 0 292.5 -97t102.5 -281q0 -71 -17.5 -129t-46 -94.5t-57 -58.5t-59.5 -34q55 -26 88.5 -67t51.5 -109.5t18 -169.5v-55q0 -158 18 -291h-240q-22 69 -22 293v49q0 142 -42 196t-159 54zM367 1186v-393h116q111 0 160 48.5t49 153.5
q0 191 -184 191h-141zM588 1743h295l-287 -246h-236z" />
    <glyph glyph-name="racute" unicode="&#x155;" horiz-adv-x="645" 
d="M109 0v700q0 247 -3 361h234q6 -54 6 -176q30 92 100.5 142t176.5 50v-274q-68 2 -115.5 -8.5t-84 -37.5t-54 -76.5t-17.5 -123.5v-557h-243zM395 1468h285l-268 -278h-209z" />
    <glyph glyph-name="uni0156" unicode="&#x156;" horiz-adv-x="1007" 
d="M473 592h-106v-592h-246v1386h424q190 0 292.5 -97t102.5 -281q0 -71 -17.5 -129t-46 -94.5t-57 -58.5t-59.5 -34q55 -26 88.5 -67t51.5 -109.5t18 -169.5v-55q0 -158 18 -291h-240q-22 69 -22 293v49q0 142 -42 196t-159 54zM367 1186v-393h116q111 0 160 48.5t49 153.5
q0 191 -184 191h-141zM532 -465h-206q69 160 80 361h241q-9 -111 -40.5 -208t-74.5 -153z" />
    <glyph glyph-name="uni0157" unicode="&#x157;" horiz-adv-x="645" 
d="M109 0v700q0 247 -3 361h234q6 -54 6 -176q30 92 100.5 142t176.5 50v-274q-68 2 -115.5 -8.5t-84 -37.5t-54 -76.5t-17.5 -123.5v-557h-243zM233 -465h-206q68 157 79 361h242q-9 -111 -40.5 -208t-74.5 -153z" />
    <glyph glyph-name="Rcaron" unicode="&#x158;" horiz-adv-x="1007" 
d="M473 592h-106v-592h-246v1386h424q190 0 292.5 -97t102.5 -281q0 -71 -17.5 -129t-46 -94.5t-57 -58.5t-59.5 -34q55 -26 88.5 -67t51.5 -109.5t18 -169.5v-55q0 -158 18 -291h-240q-22 69 -22 293v49q0 142 -42 196t-159 54zM367 1186v-393h116q111 0 160 48.5t49 153.5
q0 191 -184 191h-141zM635 1491h-273l-198 238h242l94 -119l92 119h242z" />
    <glyph glyph-name="rcaron" unicode="&#x159;" horiz-adv-x="645" 
d="M109 0v700q0 247 -3 361h234q6 -54 6 -176q30 92 100.5 142t176.5 50v-274q-68 2 -115.5 -8.5t-84 -37.5t-54 -76.5t-17.5 -123.5v-557h-243zM475 1182h-260l-182 276h221l92 -141l88 141h223z" />
    <glyph glyph-name="Sacute" unicode="&#x15a;" horiz-adv-x="954" 
d="M45 387h246q22 -215 186 -215q86 0 126 48.5t40 131.5q0 86 -50 143.5t-179 118.5q-183 87 -257.5 177.5t-74.5 242.5q0 169 104.5 271t288.5 102q90 0 160 -24t112.5 -61.5t70 -90.5t38.5 -105t12 -110h-243q-2 29 -6 52t-14.5 51.5t-26 47.5t-43.5 32t-64 13
q-71 0 -106 -42t-35 -115q0 -75 42.5 -121t164.5 -103q97 -45 161.5 -87.5t111 -96.5t67 -120t20.5 -152q0 -84 -26 -155.5t-77.5 -126.5t-134.5 -86.5t-190 -31.5q-115 0 -199 34.5t-130.5 95t-69 130t-25.5 152.5zM563 1743h295l-287 -246h-235z" />
    <glyph glyph-name="sacute" unicode="&#x15b;" horiz-adv-x="825" 
d="M41 322h240q0 -63 34 -108.5t103 -45.5q59 0 89 29.5t30 83.5q0 57 -33 91.5t-125 69.5q-182 67 -247.5 140.5t-65.5 193.5q0 56 19 108t58 96.5t108 71.5t159 27q80 0 142.5 -21t100 -54t61.5 -78t33 -88t9 -88h-234q0 143 -119 143q-46 0 -72 -27t-26 -71
q0 -51 34 -80.5t130 -65.5q171 -64 240 -138.5t69 -201.5q0 -157 -95.5 -242t-274.5 -85q-182 0 -274.5 95t-92.5 245zM463 1468h285l-269 -278h-209z" />
    <glyph glyph-name="Scircumflex" unicode="&#x15c;" horiz-adv-x="954" 
d="M45 387h246q22 -215 186 -215q86 0 126 48.5t40 131.5q0 86 -50 143.5t-179 118.5q-183 87 -257.5 177.5t-74.5 242.5q0 169 104.5 271t288.5 102q90 0 160 -24t112.5 -61.5t70 -90.5t38.5 -105t12 -110h-243q-2 29 -6 52t-14.5 51.5t-26 47.5t-43.5 32t-64 13
q-71 0 -106 -42t-35 -115q0 -75 42.5 -121t164.5 -103q97 -45 161.5 -87.5t111 -96.5t67 -120t20.5 -152q0 -84 -26 -155.5t-77.5 -126.5t-134.5 -86.5t-190 -31.5q-115 0 -199 34.5t-130.5 95t-69 130t-25.5 152.5zM340 1733h272l199 -238h-242l-94 115l-92 -115h-242z" />
    <glyph glyph-name="scircumflex" unicode="&#x15d;" horiz-adv-x="825" 
d="M41 322h240q0 -63 34 -108.5t103 -45.5q59 0 89 29.5t30 83.5q0 57 -33 91.5t-125 69.5q-182 67 -247.5 140.5t-65.5 193.5q0 56 19 108t58 96.5t108 71.5t159 27q80 0 142.5 -21t100 -54t61.5 -78t33 -88t9 -88h-234q0 143 -119 143q-46 0 -72 -27t-26 -71
q0 -51 34 -80.5t130 -65.5q171 -64 240 -138.5t69 -201.5q0 -157 -95.5 -242t-274.5 -85q-182 0 -274.5 95t-92.5 245zM283 1456h260l182 -276h-223l-90 141l-88 -141h-224z" />
    <glyph glyph-name="uni015E" unicode="&#x15e;" horiz-adv-x="954" 
d="M45 387h246q22 -215 186 -215q86 0 126 48.5t40 131.5q0 86 -50 143.5t-179 118.5q-183 87 -257.5 177.5t-74.5 242.5q0 169 104.5 271t288.5 102q90 0 160 -24t112.5 -61.5t70 -90.5t38.5 -105t12 -110h-243q-2 29 -6 52t-14.5 51.5t-26 47.5t-43.5 32t-64 13
q-71 0 -106 -42t-35 -115q0 -75 42.5 -121t164.5 -103q97 -45 161.5 -87.5t111 -96.5t67 -120t20.5 -152q0 -154 -86 -261.5t-252 -131.5l-24 -45q145 -49 145 -170q0 -81 -55 -131t-164 -50q-105 0 -168 35l35 133q35 -22 102 -22q59 0 59 39q0 51 -129 71v56l43 82
q-78 8 -139 34.5t-100.5 64.5t-66 89.5t-38 104.5t-14.5 114z" />
    <glyph glyph-name="uni015F" unicode="&#x15f;" horiz-adv-x="825" 
d="M41 322h240q0 -63 34 -108.5t103 -45.5q59 0 89 29.5t30 83.5q0 57 -33 91.5t-125 69.5q-182 67 -247.5 140.5t-65.5 193.5q0 56 19 108t58 96.5t108 71.5t159 27q80 0 142.5 -21t100 -54t61.5 -78t33 -88t9 -88h-234q0 143 -119 143q-46 0 -72 -27t-26 -71
q0 -51 34 -80.5t130 -65.5q171 -64 240 -138.5t69 -201.5q0 -137 -73.5 -219.5t-212.5 -101.5l-27 -51q145 -49 145 -170q0 -81 -55 -131t-164 -50q-105 0 -168 35l35 133q35 -22 102 -22q60 0 60 39q0 51 -129 71v56l45 88q-146 19 -220.5 110.5t-74.5 225.5z" />
    <glyph glyph-name="Scaron" unicode="&#x160;" horiz-adv-x="954" 
d="M45 387h246q22 -215 186 -215q86 0 126 48.5t40 131.5q0 86 -50 143.5t-179 118.5q-183 87 -257.5 177.5t-74.5 242.5q0 169 104.5 271t288.5 102q90 0 160 -24t112.5 -61.5t70 -90.5t38.5 -105t12 -110h-243q-2 29 -6 52t-14.5 51.5t-26 47.5t-43.5 32t-64 13
q-71 0 -106 -42t-35 -115q0 -75 42.5 -121t164.5 -103q97 -45 161.5 -87.5t111 -96.5t67 -120t20.5 -152q0 -84 -26 -155.5t-77.5 -126.5t-134.5 -86.5t-190 -31.5q-115 0 -199 34.5t-130.5 95t-69 130t-25.5 152.5zM612 1491h-272l-199 238h242l94 -119l92 119h242z" />
    <glyph glyph-name="scaron" unicode="&#x161;" horiz-adv-x="825" 
d="M41 322h240q0 -63 34 -108.5t103 -45.5q59 0 89 29.5t30 83.5q0 57 -33 91.5t-125 69.5q-182 67 -247.5 140.5t-65.5 193.5q0 56 19 108t58 96.5t108 71.5t159 27q80 0 142.5 -21t100 -54t61.5 -78t33 -88t9 -88h-234q0 143 -119 143q-46 0 -72 -27t-26 -71
q0 -51 34 -80.5t130 -65.5q171 -64 240 -138.5t69 -201.5q0 -157 -95.5 -242t-274.5 -85q-182 0 -274.5 95t-92.5 245zM543 1182h-260l-183 276h222l92 -141l88 141h223z" />
    <glyph glyph-name="uni0162" unicode="&#x162;" horiz-adv-x="862" 
d="M307 0v1169h-297v217h842v-217h-297v-1169h-41l-35 -63q146 -49 146 -170q0 -81 -55 -131t-164 -50q-105 0 -168 35l34 133q35 -22 103 -22q59 0 59 39q0 51 -129 71v56l53 102h-51z" />
    <glyph glyph-name="uni0163" unicode="&#x163;" horiz-adv-x="561" 
d="M-8 860v201h139v264h244v-264h164v-201h-164v-581q0 -51 17.5 -74t70.5 -23q41 0 61 4v-178q-40 -17 -127 -22l-26 -47q145 -49 145 -170q0 -81 -55 -131t-164 -50q-105 0 -168 35l35 133q35 -22 102 -22q60 0 60 39q0 51 -129 71v56l53 104q-62 22 -90.5 78.5
t-28.5 157.5v620h-139z" />
    <glyph glyph-name="Tcaron" unicode="&#x164;" horiz-adv-x="862" 
d="M307 0v1169h-297v217h842v-217h-297v-1169h-248zM567 1491h-272l-199 238h242l94 -119l92 119h242z" />
    <glyph glyph-name="tcaron" unicode="&#x165;" horiz-adv-x="561" 
d="M635 1180h-156l2 432h181zM-8 860v201h139v264h244v-264h164v-201h-164v-581q0 -51 17.5 -74t70.5 -23q41 0 61 4v-178q-50 -22 -149 -22q-130 0 -187 57t-57 197v620h-139z" />
    <glyph glyph-name="Utilde" unicode="&#x168;" horiz-adv-x="1073" 
d="M109 1386h247v-954q0 -248 183 -248q53 0 89.5 19t55 55t26 77t7.5 95v956h248v-960q0 -451 -430 -451q-120 0 -205 33t-132.5 96t-68 141t-20.5 181v960zM377 1501h-158v55q0 106 47 152.5t123 46.5q59 0 150.5 -36t113.5 -36q45 0 45 56v18h156v-39q0 -121 -45 -170
t-129 -49q-58 0 -146.5 35t-111.5 35q-20 0 -32.5 -11t-12.5 -32v-25z" />
    <glyph glyph-name="utilde" unicode="&#x169;" horiz-adv-x="954" 
d="M846 1061v-750q0 -256 2 -311h-234q-8 44 -8 117q-34 -72 -92 -103.5t-145 -31.5q-265 0 -265 317v762h244v-707q0 -84 24.5 -124t88.5 -40q72 0 106.5 49.5t34.5 170.5v651h244zM344 1194h-164v59q0 191 162 191q46 0 92 -19t82 -38t57 -19q37 0 37 64v14h160v-49
q0 -116 -42.5 -160.5t-121.5 -44.5q-44 0 -88.5 18.5t-79.5 37t-57 18.5q-37 0 -37 -49v-23z" />
    <glyph glyph-name="Umacron" unicode="&#x16a;" horiz-adv-x="1073" 
d="M109 1386h247v-954q0 -248 183 -248q53 0 89.5 19t55 55t26 77t7.5 95v956h248v-960q0 -451 -430 -451q-120 0 -205 33t-132.5 96t-68 141t-20.5 181v960zM266 1698h541v-182h-541v182z" />
    <glyph glyph-name="umacron" unicode="&#x16b;" horiz-adv-x="954" 
d="M846 1061v-750q0 -256 2 -311h-234q-8 44 -8 117q-34 -72 -92 -103.5t-145 -31.5q-265 0 -265 317v762h244v-707q0 -84 24.5 -124t88.5 -40q72 0 106.5 49.5t34.5 170.5v651h244zM219 1415h512v-188h-512v188z" />
    <glyph glyph-name="Ubreve" unicode="&#x16c;" horiz-adv-x="1073" 
d="M109 1386h247v-954q0 -248 183 -248q53 0 89.5 19t55 55t26 77t7.5 95v956h248v-960q0 -451 -430 -451q-120 0 -205 33t-132.5 96t-68 141t-20.5 181v960zM238 1731h176q9 -42 42.5 -69.5t82.5 -27.5q99 0 123 97h174q-15 -111 -89 -184.5t-212 -73.5q-143 0 -216 73.5
t-81 184.5z" />
    <glyph glyph-name="ubreve" unicode="&#x16d;" horiz-adv-x="954" 
d="M846 1061v-750q0 -256 2 -311h-234q-8 44 -8 117q-34 -72 -92 -103.5t-145 -31.5q-265 0 -265 317v762h244v-707q0 -84 24.5 -124t88.5 -40q72 0 106.5 49.5t34.5 170.5v651h244zM190 1444h181q18 -96 106 -96q52 0 74 25t33 71h176q-6 -54 -24.5 -100t-51.5 -84t-87 -60
t-124 -22t-124.5 22.5t-87.5 61.5t-50.5 85t-20.5 97z" />
    <glyph glyph-name="Uring" unicode="&#x16e;" horiz-adv-x="1073" 
d="M109 1386h247v-954q0 -248 183 -248q53 0 89.5 19t55 55t26 77t7.5 95v956h248v-960q0 -451 -430 -451q-120 0 -205 33t-132.5 96t-68 141t-20.5 181v960zM539 1456q-95 0 -152 54t-57 135t55.5 135.5t151.5 54.5t151 -52t55 -136t-56.5 -137.5t-147.5 -53.5zM537 1565
q40 0 62 23t22 57q0 35 -22 59.5t-62 24.5q-42 0 -63 -23.5t-21 -58.5q0 -34 21.5 -58t62.5 -24z" />
    <glyph glyph-name="uring" unicode="&#x16f;" horiz-adv-x="954" 
d="M846 1061v-750q0 -256 2 -311h-234q-8 44 -8 117q-34 -72 -92 -103.5t-145 -31.5q-265 0 -265 317v762h244v-707q0 -84 24.5 -124t88.5 -40q72 0 106.5 49.5t34.5 170.5v651h244zM479 1151q-96 0 -152.5 53.5t-56.5 134.5t55.5 136t151.5 55t151.5 -52.5t55.5 -136.5
t-56.5 -137t-148.5 -53zM477 1260q40 0 62 22.5t22 56.5q0 35 -22 59.5t-62 24.5q-42 0 -63 -23.5t-21 -58.5q0 -34 21.5 -57.5t62.5 -23.5z" />
    <glyph glyph-name="Uhungarumlaut" unicode="&#x170;" horiz-adv-x="1073" 
d="M109 1386h247v-954q0 -248 183 -248q53 0 89.5 19t55 55t26 77t7.5 95v956h248v-960q0 -451 -430 -451q-120 0 -205 33t-132.5 96t-68 141t-20.5 181v960zM403 1747h242l-213 -248h-194zM748 1747h235l-209 -248h-192z" />
    <glyph glyph-name="uhungarumlaut" unicode="&#x171;" horiz-adv-x="954" 
d="M846 1061v-750q0 -256 2 -311h-234q-8 44 -8 117q-34 -72 -92 -103.5t-145 -31.5q-265 0 -265 317v762h244v-707q0 -84 24.5 -124t88.5 -40q72 0 106.5 49.5t34.5 170.5v651h244zM356 1182h-180l166 297h240zM707 1182h-181l166 297h238z" />
    <glyph glyph-name="Uogonek" unicode="&#x172;" horiz-adv-x="1073" 
d="M109 1386h247v-954q0 -248 183 -248q53 0 89.5 19t55 55t26 77t7.5 95v956h248v-960q0 -351 -258 -428q-66 -70 -66 -131q0 -38 22 -60t62 -22q34 0 72 10l18 -155q-58 -35 -172 -35q-102 0 -165.5 53.5t-63.5 151.5q0 87 59 167q-103 8 -175 44.5t-112.5 98t-58.5 136
t-18 170.5v960z" />
    <glyph glyph-name="uogonek" unicode="&#x173;" horiz-adv-x="954" 
d="M846 1061v-750q0 -256 2 -311h-4l4 -2q-34 -32 -55 -70t-21 -71q0 -38 22 -60t62 -22q34 0 72 10l18 -156q-58 -35 -172 -35q-102 0 -165.5 53.5t-63.5 151.5q0 109 86 201h-17q-8 44 -8 117q-34 -72 -92 -103.5t-145 -31.5q-265 0 -265 317v762h244v-707
q0 -84 24.5 -124t88.5 -40q72 0 106.5 49.5t34.5 170.5v651h244z" />
    <glyph glyph-name="Wcircumflex" unicode="&#x174;" horiz-adv-x="1454" 
d="M532 0h-245l-264 1386h266q117 -784 137 -1040h2q24 155 102 555.5t93 484.5h221q6 -33 57 -297.5t82 -438t47 -292.5h4q18 166 78 553t72 475h248l-283 -1386h-246q-17 95 -58.5 305t-73.5 382t-48 290h-4q-14 -94 -39.5 -234.5t-47.5 -250t-55 -271.5t-45 -221z
M590 1733h272l199 -238h-242l-94 115l-92 -115h-242z" />
    <glyph glyph-name="wcircumflex" unicode="&#x175;" horiz-adv-x="1318" 
d="M16 1061h260q99 -609 121 -799h4q7 61 24.5 146.5t55.5 267.5t76 385h221q14 -70 44 -217.5t41.5 -205.5t28.5 -147.5t25 -139t11 -85.5h2q40 275 131 795h242l-259 -1061h-245q-118 578 -140 725h-2q-5 -43 -15 -99t-26.5 -134t-30.5 -140t-39 -174t-40 -178h-252z
M526 1456h260l183 -276h-224l-90 141l-88 -141h-223z" />
    <glyph glyph-name="Ycircumflex" unicode="&#x176;" horiz-adv-x="927" 
d="M588 0h-250v489q0 25 -8 46l-350 851h276q174 -484 215 -636q23 76 59 183t84.5 246t71.5 207h262l-352 -854q-8 -20 -8 -47v-485zM326 1733h272l199 -238h-242l-94 115l-92 -115h-242z" />
    <glyph glyph-name="ycircumflex" unicode="&#x177;" horiz-adv-x="862" 
d="M8 1061h268q20 -89 55.5 -239t53 -227t34.5 -162t21 -130h2q37 223 166 758h246l-305 -1108q-22 -81 -46.5 -141t-53.5 -97.5t-56 -61t-63.5 -34t-65 -13.5t-71.5 -3q-56 0 -97 8v207q28 -4 78 -4q67 0 99.5 37.5t54.5 134.5zM301 1456h260l182 -276h-223l-90 141
l-88 -141h-223z" />
    <glyph glyph-name="Ydieresis" unicode="&#x178;" horiz-adv-x="927" 
d="M588 0h-250v489q0 25 -8 46l-350 851h276q174 -484 215 -636q23 76 59 183t84.5 246t71.5 207h262l-352 -854q-8 -20 -8 -47v-485zM393 1495h-205v238h205v-238zM737 1495h-207v238h207v-238z" />
    <glyph glyph-name="Zacute" unicode="&#x179;" horiz-adv-x="899" 
d="M37 0v172l541 997h-498v217h768v-198l-520 -973h546l-32 -215h-805zM535 1743h294l-286 -246h-236z" />
    <glyph glyph-name="zacute" unicode="&#x17a;" horiz-adv-x="765" 
d="M35 0v176q105 163 416 678h-388v207h664v-184q-20 -33 -178.5 -295.5t-229.5 -376.5h414l-24 -205h-674zM436 1468h285l-268 -278h-209z" />
    <glyph glyph-name="Zdotaccent" unicode="&#x17b;" horiz-adv-x="899" 
d="M37 0v172l541 997h-498v217h768v-198l-520 -973h546l-32 -215h-805zM571 1505h-247v242h247v-242z" />
    <glyph glyph-name="zdotaccent" unicode="&#x17c;" horiz-adv-x="765" 
d="M35 0v176q105 163 416 678h-388v207h664v-184q-20 -33 -178.5 -295.5t-229.5 -376.5h414l-24 -205h-674zM506 1212h-244v242h244v-242z" />
    <glyph glyph-name="Zcaron" unicode="&#x17d;" horiz-adv-x="899" 
d="M37 0v172l541 997h-498v217h768v-198l-520 -973h546l-32 -215h-805zM604 1485h-272l-199 237h242l94 -118l92 118h242z" />
    <glyph glyph-name="zcaron" unicode="&#x17e;" horiz-adv-x="765" 
d="M35 0v176q105 163 416 678h-388v207h664v-184q-20 -33 -178.5 -295.5t-229.5 -376.5h414l-24 -205h-674zM532 1182h-260l-182 276h221l92 -141l89 141h223z" />
    <glyph glyph-name="uni018F" unicode="&#x18f;" horiz-adv-x="1007" 
d="M932 709q0 -135 -11.5 -240t-41 -200.5t-78.5 -158t-127 -99t-182 -36.5q-103 0 -178.5 31.5t-123 87.5t-75.5 145.5t-38.5 191.5t-10.5 241v96h612q0 103 -7.5 177t-26.5 133.5t-55 89.5t-89 30q-42 0 -74 -14.5t-49.5 -34t-29.5 -49.5t-16 -49t-7 -45h-252
q3 23 6.5 43.5t16 64t30 78.5t50.5 77t74.5 70.5t104.5 48t138 19.5q102 0 178.5 -31.5t126 -88t80 -145t43 -193t12.5 -240.5zM678 569h-354q0 -72 4.5 -127.5t16.5 -105.5t31.5 -82.5t51 -51t74.5 -18.5q42 0 73 21t49.5 54.5t30.5 86.5t16.5 103.5t6.5 119.5z" />
    <glyph glyph-name="florin" unicode="&#x192;" horiz-adv-x="886" 
d="M864 1374l-41 -190q-43 18 -100 18q-53 0 -77.5 -42.5t-37.5 -137.5l-20 -148h178v-182h-203l-67 -493q-15 -102 -35.5 -171.5t-55.5 -124.5t-89 -81.5t-130 -26.5q-125 0 -186 41l43 199q45 -23 102 -23q51 0 69.5 36.5t35.5 139.5l74 504h-144v182h170l19 125
q9 66 20.5 116.5t36 109t57.5 96t88 63t125 25.5q127 0 168 -35z" />
    <glyph glyph-name="Ohorn" unicode="&#x1a0;" horiz-adv-x="1048" 
d="M528 1407q140 0 240 -68q41 20 41 86q0 56 -16 115h215q12 -56 12 -121q0 -164 -133 -221q88 -175 88 -496q0 -380 -109 -553.5t-348 -173.5q-227 0 -335.5 175t-108.5 557q0 185 30.5 320t90 218t142 122.5t191.5 39.5zM524 1198q-55 0 -93.5 -32t-61 -97t-32 -152.5
t-9.5 -207.5q0 -259 45.5 -392t150.5 -133q57 0 95.5 32.5t61 101.5t31.5 162.5t9 228.5q0 252 -44 370.5t-153 118.5z" />
    <glyph glyph-name="ohorn" unicode="&#x1a1;" horiz-adv-x="917" 
d="M467 1077q115 0 197 -49q53 14 53 90q0 52 -17 115h215q13 -60 13 -121q0 -169 -140 -223q68 -133 68 -350q0 -559 -401 -559q-196 0 -296 133.5t-100 418.5q0 275 107 410t301 135zM461 872q-82 0 -118 -82t-36 -255q0 -178 35 -264.5t121 -86.5q79 0 113 86t34 262
q0 179 -33.5 259.5t-115.5 80.5z" />
    <glyph glyph-name="Uhorn" unicode="&#x1af;" horiz-adv-x="1073" 
d="M109 1386h247v-954q0 -248 183 -248q53 0 89.5 19t55 55t26 77t7.5 95v956h125q61 11 61 93q0 55 -16 114h215q12 -55 12 -120q0 -177 -149 -228v-819q0 -451 -430 -451q-120 0 -205 33t-132.5 96t-68 141t-20.5 181v960z" />
    <glyph glyph-name="uhorn" unicode="&#x1b0;" horiz-adv-x="954" 
d="M606 117q-34 -72 -92 -103.5t-145 -31.5q-265 0 -265 317v762h244v-707q0 -84 24.5 -124t88.5 -40q72 0 106.5 49.5t34.5 170.5v651h119q61 11 61 92q0 56 -16 115h215q12 -56 12 -121q0 -174 -147 -227v-609q0 -256 2 -311h-234q-8 44 -8 117z" />
    <glyph glyph-name="uni01CD" unicode="&#x1cd;" horiz-adv-x="987" 
d="M649 348h-321l-70 -348h-248l322 1386h321l324 -1386h-260zM371 563h233q-21 109 -61.5 314.5t-53.5 277.5h-6q-6 -45 -18.5 -116.5t-23 -124.5t-35 -175t-35.5 -176zM629 1479h-273l-198 237h241l95 -119l92 119h241z" />
    <glyph glyph-name="uni01CE" unicode="&#x1ce;" horiz-adv-x="913" 
d="M803 772v-541q0 -137 8 -231h-221q-10 50 -10 98q-70 -116 -240 -116q-73 0 -129.5 27t-89 73t-48.5 100t-16 113q0 164 109.5 257t308.5 93q63 0 88 -2v115q0 22 -1.5 38t-8 35.5t-18.5 32t-33.5 21t-52.5 8.5q-37 0 -60.5 -10.5t-35 -32.5t-16 -42t-7.5 -52h-234
q1 50 11.5 93.5t36 86.5t65 73.5t103.5 49t147 18.5q344 0 344 -305zM569 430v35q-27 4 -80 4q-99 0 -144.5 -41.5t-45.5 -110.5q0 -55 30 -96t93 -41q88 0 117.5 60.5t29.5 189.5zM588 1182h-260l-183 276h222l92 -141l88 141h223z" />
    <glyph glyph-name="uni01CF" unicode="&#x1cf;" horiz-adv-x="493" 
d="M121 1386h248v-1386h-248v1386zM381 1491h-272l-199 238h242l94 -119l92 119h242z" />
    <glyph glyph-name="uni01D0" unicode="&#x1d0;" horiz-adv-x="462" 
d="M109 0v1061h243v-1061h-243zM358 1182h-260l-182 276h221l92 -141l88 141h224z" />
    <glyph glyph-name="uni01D1" unicode="&#x1d1;" horiz-adv-x="1048" 
d="M528 1407q228 0 337.5 -172.5t109.5 -532.5q0 -380 -109 -553.5t-348 -173.5q-227 0 -335.5 175t-108.5 557q0 185 30.5 320t90 218t142 122.5t191.5 39.5zM524 1198q-55 0 -93.5 -32t-61 -97t-32 -152.5t-9.5 -207.5q0 -259 45.5 -392t150.5 -133q57 0 95.5 32.5
t61 101.5t31.5 162.5t9 228.5q0 252 -44 370.5t-153 118.5zM659 1491h-272l-199 238h242l94 -119l92 119h242z" />
    <glyph glyph-name="uni01D2" unicode="&#x1d2;" horiz-adv-x="917" 
d="M467 1077q191 0 290 -136.5t99 -401.5q0 -559 -401 -559q-196 0 -296 133.5t-100 418.5q0 275 107 410t301 135zM461 872q-82 0 -118 -82t-36 -255q0 -178 35 -264.5t121 -86.5q79 0 113 86t34 262q0 179 -33.5 259.5t-115.5 80.5zM588 1182h-260l-183 276h222l92 -141
l88 141h223z" />
    <glyph glyph-name="uni01D3" unicode="&#x1d3;" horiz-adv-x="1073" 
d="M109 1386h247v-954q0 -248 183 -248q53 0 89.5 19t55 55t26 77t7.5 95v956h248v-960q0 -451 -430 -451q-120 0 -205 33t-132.5 96t-68 141t-20.5 181v960zM672 1491h-273l-198 238h241l95 -119l92 119h241z" />
    <glyph glyph-name="uni01D4" unicode="&#x1d4;" horiz-adv-x="954" 
d="M846 1061v-750q0 -256 2 -311h-234q-8 44 -8 117q-34 -72 -92 -103.5t-145 -31.5q-265 0 -265 317v762h244v-707q0 -84 24.5 -124t88.5 -40q72 0 106.5 49.5t34.5 170.5v651h244zM606 1182h-260l-182 276h221l92 -141l88 141h223z" />
    <glyph glyph-name="uni01D5" unicode="&#x1d5;" horiz-adv-x="1073" 
d="M109 1386h247v-954q0 -248 183 -248q53 0 89.5 19t55 55t26 77t7.5 95v956h248v-960q0 -451 -430 -451q-120 0 -205 33t-132.5 96t-68 141t-20.5 181v960zM463 1475h-199v194h199v-194zM791 1753h-508v156h508v-156zM809 1475h-199v194h199v-194z" />
    <glyph glyph-name="uni01D6" unicode="&#x1d6;" horiz-adv-x="954" 
d="M846 1061v-750q0 -256 2 -311h-234q-8 44 -8 117q-34 -72 -92 -103.5t-145 -31.5q-265 0 -265 317v762h244v-707q0 -84 24.5 -124t88.5 -40q72 0 106.5 49.5t34.5 170.5v651h244zM403 1165h-202v189h202v-189zM739 1448h-528v162h528v-162zM752 1165h-205v189h205v-189z
" />
    <glyph glyph-name="uni01D7" unicode="&#x1d7;" horiz-adv-x="1073" 
d="M109 1386h247v-954q0 -248 183 -248q53 0 89.5 19t55 55t26 77t7.5 95v956h248v-960q0 -451 -430 -451q-120 0 -205 33t-132.5 96t-68 141t-20.5 181v960zM256 1671h209v-198h-209v198zM412 1733l176 198h309l-260 -198h-225zM815 1473h-207v198h207v-198z" />
    <glyph glyph-name="uni01D8" unicode="&#x1d8;" horiz-adv-x="954" 
d="M846 1061v-750q0 -256 2 -311h-234q-8 44 -8 117q-34 -72 -92 -103.5t-145 -31.5q-265 0 -265 317v762h244v-707q0 -84 24.5 -124t88.5 -40q72 0 106.5 49.5t34.5 170.5v651h244zM201 1358h202v-189h-202v189zM567 1421h-227l162 211h299zM752 1169h-205v189h205v-189z
" />
    <glyph glyph-name="uni01D9" unicode="&#x1d9;" horiz-adv-x="1073" 
d="M109 1386h247v-954q0 -248 183 -248q53 0 89.5 19t55 55t26 77t7.5 95v956h248v-960q0 -451 -430 -451q-120 0 -205 33t-132.5 96t-68 141t-20.5 181v960zM641 1731h-225l-191 202h213l92 -96l88 96h216zM465 1473h-209v198h209v-198zM815 1473h-207v198h207v-198z" />
    <glyph glyph-name="uni01DA" unicode="&#x1da;" horiz-adv-x="954" 
d="M846 1061v-750q0 -256 2 -311h-234q-8 44 -8 117q-34 -72 -92 -103.5t-145 -31.5q-265 0 -265 317v762h244v-707q0 -84 24.5 -124t88.5 -40q72 0 106.5 49.5t34.5 170.5v651h244zM588 1415h-226l-190 211h213l90 -104l88 104h215zM403 1163h-204v193h204v-193zM754 1163
h-207v193h207v-193z" />
    <glyph glyph-name="uni01DB" unicode="&#x1db;" horiz-adv-x="1073" 
d="M109 1386h247v-954q0 -248 183 -248q53 0 89.5 19t55 55t26 77t7.5 95v956h248v-960q0 -451 -430 -451q-120 0 -205 33t-132.5 96t-68 141t-20.5 181v960zM256 1671h209v-198h-209v198zM662 1733h-228l-260 198h309zM815 1473h-207v198h207v-198z" />
    <glyph glyph-name="uni01DC" unicode="&#x1dc;" horiz-adv-x="954" 
d="M846 1061v-750q0 -256 2 -311h-234q-8 44 -8 117q-34 -72 -92 -103.5t-145 -31.5q-265 0 -265 317v762h244v-707q0 -84 24.5 -124t88.5 -40q72 0 106.5 49.5t34.5 170.5v651h244zM201 1358h202v-189h-202v189zM139 1632h299l162 -209h-223zM752 1169h-205v189h205v-189z
" />
    <glyph glyph-name="Gcaron" unicode="&#x1e6;" horiz-adv-x="1038" 
d="M944 778v-778h-188q-11 81 -13 119q-43 -79 -111 -111.5t-163 -32.5q-211 0 -303 178.5t-92 530.5q0 723 469 723q77 0 140 -18.5t103 -46t70 -69t45.5 -76t25 -78.5t12 -66t3.5 -49h-244q-14 194 -163 194q-58 0 -99 -37t-63.5 -108t-32.5 -160.5t-10 -208.5
q0 -128 8.5 -215.5t30 -154.5t60.5 -98.5t97 -31.5q95 0 133.5 73t38.5 232v78h-186v211h432zM657 1491h-272l-199 238h242l94 -119l92 119h242z" />
    <glyph glyph-name="gcaron" unicode="&#x1e7;" horiz-adv-x="958" 
d="M850 741v-655q0 -118 -19.5 -203.5t-64.5 -151t-126 -98t-198 -32.5q-87 0 -154 20t-106.5 50.5t-65 73t-35 81.5t-11.5 82h243q2 -19 6.5 -32t17.5 -33.5t42 -32t72 -11.5q94 0 125.5 67.5t31.5 219.5v47q-60 -125 -227 -125q-164 0 -243 133.5t-79 376.5q0 269 91 414
t253 145q93 0 141 -33t64 -77q3 47 10 94h234q-2 -66 -2 -320zM311 524q0 -160 38 -235.5t114 -75.5q45 0 75 21t46 67.5t22 106t6 149.5q0 66 -2 106.5t-10 84.5t-23 67.5t-42 39t-66 15.5q-158 0 -158 -346zM608 1182h-260l-182 276h221l92 -141l88 141h224z" />
    <glyph glyph-name="uni0218" unicode="&#x218;" horiz-adv-x="954" 
d="M45 387h246q22 -215 186 -215q86 0 126 48.5t40 131.5q0 86 -50 143.5t-179 118.5q-183 87 -257.5 177.5t-74.5 242.5q0 169 104.5 271t288.5 102q90 0 160 -24t112.5 -61.5t70 -90.5t38.5 -105t12 -110h-243q-2 29 -6 52t-14.5 51.5t-26 47.5t-43.5 32t-64 13
q-71 0 -106 -42t-35 -115q0 -75 42.5 -121t164.5 -103q97 -45 161.5 -87.5t111 -96.5t67 -120t20.5 -152q0 -84 -26 -155.5t-77.5 -126.5t-134.5 -86.5t-190 -31.5q-115 0 -199 34.5t-130.5 95t-69 130t-25.5 152.5zM508 -465h-207q69 160 80 361h242q-9 -111 -40.5 -208
t-74.5 -153z" />
    <glyph glyph-name="uni0219" unicode="&#x219;" horiz-adv-x="825" 
d="M41 322h240q0 -63 34 -108.5t103 -45.5q59 0 89 29.5t30 83.5q0 57 -33 91.5t-125 69.5q-182 67 -247.5 140.5t-65.5 193.5q0 56 19 108t58 96.5t108 71.5t159 27q80 0 142.5 -21t100 -54t61.5 -78t33 -88t9 -88h-234q0 143 -119 143q-46 0 -72 -27t-26 -71
q0 -51 34 -80.5t130 -65.5q171 -64 240 -138.5t69 -201.5q0 -157 -95.5 -242t-274.5 -85q-182 0 -274.5 95t-92.5 245zM440 -465h-207q69 160 80 361h242q-9 -111 -40.5 -208t-74.5 -153z" />
    <glyph glyph-name="uni021A" unicode="&#x21a;" horiz-adv-x="862" 
d="M307 0v1169h-297v217h842v-217h-297v-1169h-248zM436 -465h-207q69 160 80 361h242q-9 -111 -40.5 -208t-74.5 -153z" />
    <glyph glyph-name="uni021B" unicode="&#x21b;" horiz-adv-x="561" 
d="M-8 860v201h139v264h244v-264h164v-201h-164v-581q0 -51 17.5 -74t70.5 -23q41 0 61 4v-178q-50 -22 -149 -22q-130 0 -187 57t-57 197v620h-139zM315 -465h-206q68 157 79 361h242q-9 -111 -40.5 -208t-74.5 -153z" />
    <glyph glyph-name="uni0237" unicode="&#x237;" horiz-adv-x="462" 
d="M109 1061h243v-1079q0 -52 -2 -89t-9 -79t-19 -71t-32.5 -57t-50 -44.5t-71.5 -26.5t-96 -10q-57 0 -92 6v209q23 -2 51 -2q50 0 64 27t14 98v1118z" />
    <glyph glyph-name="uni0251" unicode="&#x251;" horiz-adv-x="952" 
d="M608 1061h240v-766q0 -214 8 -295h-235q-15 38 -15 113q-31 -65 -82.5 -98t-148.5 -33q-318 0 -318 557q0 118 20.5 214t62.5 169.5t111.5 114t160.5 40.5q156 0 190 -94q1 8 3 38.5t3 39.5zM307 537q0 -183 35.5 -266t112.5 -83q89 0 122 83.5t33 271.5q0 182 -28 254.5
t-117 72.5q-51 0 -84.5 -28.5t-53.5 -104t-20 -200.5z" />
    <glyph glyph-name="uni0259" unicode="&#x259;" horiz-adv-x="899" 
d="M63 592h533q0 59 -5 103t-20 89t-47 69t-80 24q-35 0 -61.5 -12t-40 -26t-24 -38.5t-12.5 -34.5t-5 -29h-233q28 234 206 310q74 32 172 32q72 0 130 -17t98.5 -46t71 -72.5t48 -89.5t28.5 -105t14.5 -111.5t3.5 -115.5q0 -257 -100.5 -398.5t-297.5 -141.5
q-90 0 -157.5 26.5t-110 71t-69 111t-36.5 137.5t-10 159q0 69 4 105zM592 416h-291q0 -47 4.5 -82t17.5 -73.5t43 -59.5t76 -21q150 0 150 236z" />
    <glyph glyph-name="uni0261" unicode="&#x261;" horiz-adv-x="958" 
d="M850 741v-655q0 -118 -19.5 -203.5t-64.5 -151t-126 -98t-198 -32.5q-87 0 -154 20t-106.5 50.5t-65 73t-35 81.5t-11.5 82h243q2 -19 6.5 -32t17.5 -33.5t42 -32t72 -11.5q94 0 125.5 67.5t31.5 219.5v47q-60 -125 -227 -125q-164 0 -243 133.5t-79 376.5q0 269 91 414
t253 145q93 0 141 -33t64 -77q3 47 10 94h234q-2 -66 -2 -320zM311 524q0 -160 38 -235.5t114 -75.5q45 0 75 21t46 67.5t22 106t6 149.5q0 66 -2 106.5t-10 84.5t-23 67.5t-42 39t-66 15.5q-158 0 -158 -346z" />
    <glyph glyph-name="uni02BB" unicode="&#x2bb;" horiz-adv-x="714" 
d="M319 1458h191q-74 -272 -74 -508h-231q3 130 38 279t76 229z" />
    <glyph glyph-name="uni02BC" unicode="&#x2bc;" horiz-adv-x="714" 
d="M393 950h-188q71 272 71 508h234q-4 -131 -39.5 -280t-77.5 -228z" />
    <glyph glyph-name="uni02BE" unicode="&#x2be;" horiz-adv-x="641" 
d="M205 1268q78 6 78 65q0 27 -21 43.5t-57 18.5v129q104 0 167.5 -51t63.5 -138q0 -91 -63.5 -141.5t-167.5 -50.5v125z" />
    <glyph glyph-name="uni02BF" unicode="&#x2bf;" horiz-adv-x="641" 
d="M436 1270v-127q-103 0 -167 50t-64 138q0 90 64.5 141.5t166.5 51.5v-125q-78 -6 -78 -66q0 -57 78 -63z" />
    <glyph glyph-name="circumflex" unicode="&#x2c6;" 
d="M279 1456h260l182 -276h-223l-90 141l-89 -141h-223z" />
    <glyph glyph-name="caron" unicode="&#x2c7;" 
d="M539 1182h-260l-183 276h221l93 -141l88 141h223z" />
    <glyph glyph-name="uni02C8" unicode="&#x2c8;" horiz-adv-x="622" 
d="M418 1178h-213v356h213v-356z" />
    <glyph glyph-name="uni02C9" unicode="&#x2c9;" horiz-adv-x="921" 
d="M205 1415h512v-188h-512v188z" />
    <glyph glyph-name="uni02CA" unicode="&#x2ca;" horiz-adv-x="872" 
d="M406 1468h284l-268 -278h-209z" />
    <glyph glyph-name="uni02CB" unicode="&#x2cb;" horiz-adv-x="876" 
d="M182 1468h289l193 -278h-213z" />
    <glyph glyph-name="uni02CC" unicode="&#x2cc;" horiz-adv-x="622" 
d="M418 -461h-213v357h213v-357z" />
    <glyph glyph-name="breve" unicode="&#x2d8;" 
d="M123 1444h180q18 -96 107 -96q52 0 73.5 24.5t32.5 71.5h176q-6 -54 -24 -100t-51 -84t-87 -60t-124 -22t-124.5 22.5t-87.5 61.5t-50.5 85t-20.5 97z" />
    <glyph glyph-name="dotaccent" unicode="&#x2d9;" 
d="M530 1212h-243v242h243v-242z" />
    <glyph glyph-name="ring" unicode="&#x2da;" 
d="M412 1151q-96 0 -152.5 53.5t-56.5 134.5t55.5 136t151.5 55t151 -52.5t55 -136.5t-56 -137t-148 -53zM410 1260q40 0 62 22.5t22 56.5q0 35 -22 59.5t-62 24.5q-42 0 -63 -23.5t-21 -58.5q0 -34 21.5 -57.5t62.5 -23.5z" />
    <glyph glyph-name="ogonek" unicode="&#x2db;" 
d="M383 61l147 -61q-75 -72 -75 -141q0 -38 22 -60t62 -22q33 0 71 10l19 -156q-56 -34 -172 -34q-102 0 -166 53t-64 151q0 70 41.5 139.5t114.5 120.5z" />
    <glyph glyph-name="tilde" unicode="&#x2dc;" 
d="M276 1194h-163v59q0 191 161 191q46 0 92.5 -19t82.5 -38t57 -19q37 0 37 64v14h159v-49q0 -116 -42.5 -160.5t-120.5 -44.5q-44 0 -88.5 18.5t-80 37t-57.5 18.5q-37 0 -37 -49v-23z" />
    <glyph glyph-name="hungarumlaut" unicode="&#x2dd;" 
d="M289 1182h-180l165 297h240zM639 1182h-180l166 297h237z" />
    <glyph glyph-name="uni0300" unicode="&#x300;" horiz-adv-x="0" 
d="M-258 1468h289l192 -278h-213z" />
    <glyph glyph-name="uni0301" unicode="&#x301;" horiz-adv-x="0" 
d="M-29 1468h285l-268 -278h-209z" />
    <glyph glyph-name="uni0302" unicode="&#x302;" horiz-adv-x="0" 
d="M-131 1456h260l182 -276h-223l-90 141l-88 -141h-223z" />
    <glyph glyph-name="uni0303" unicode="&#x303;" horiz-adv-x="0" 
d="M-133 1194h-164v59q0 191 162 191q46 0 92 -19t82 -38t57 -19q37 0 37 64v14h160v-49q0 -116 -42.5 -160.5t-121.5 -44.5q-44 0 -88.5 18.5t-79.5 37t-57 18.5q-37 0 -37 -49v-23z" />
    <glyph glyph-name="uni0304" unicode="&#x304;" horiz-adv-x="0" 
d="M-258 1415h512v-188h-512v188z" />
    <glyph glyph-name="uni0306" unicode="&#x306;" horiz-adv-x="0" 
d="M-287 1444h181q18 -96 106 -96q52 0 73.5 24.5t32.5 71.5h177q-6 -54 -24.5 -100t-51.5 -84t-87 -60t-124 -22t-124.5 22.5t-87.5 61.5t-50.5 85t-20.5 97z" />
    <glyph glyph-name="uni0307" unicode="&#x307;" horiz-adv-x="0" 
d="M121 1212h-244v242h244v-242z" />
    <glyph glyph-name="uni0308" unicode="&#x308;" horiz-adv-x="0" 
d="M-66 1212h-200v242h200v-242zM266 1212h-200v242h200v-242z" />
    <glyph glyph-name="uni0309" unicode="&#x309;" horiz-adv-x="0" 
d="M88 1178h-194q52 54 70 81.5t18 59.5q0 23 -16.5 38t-47.5 15q-39 0 -92 -29l-51 136q87 59 211 59q99 0 153 -47t54 -121q0 -100 -105 -192z" />
    <glyph glyph-name="uni030A" unicode="&#x30a;" horiz-adv-x="0" 
d="M2 1151q-96 0 -152.5 53.5t-56.5 134.5t55.5 136t151.5 55t151.5 -52.5t55.5 -136.5t-56.5 -137t-148.5 -53zM0 1260q40 0 62 22.5t22 56.5q0 35 -22 59.5t-62 24.5q-42 0 -63 -23.5t-21 -58.5q0 -34 21.5 -57.5t62.5 -23.5z" />
    <glyph glyph-name="uni030B" unicode="&#x30b;" horiz-adv-x="0" 
d="M-182 1182h-180l165 297h240zM168 1182h-180l166 297h237z" />
    <glyph glyph-name="uni030C" unicode="&#x30c;" horiz-adv-x="0" 
d="M129 1182h-260l-182 276h221l92 -141l88 141h223z" />
    <glyph glyph-name="uni031B" unicode="&#x31b;" horiz-adv-x="0" 
d="M-68 932l-77 155q79 3 79 95q0 55 -16 114h215q12 -56 12 -120q0 -210 -213 -244z" />
    <glyph glyph-name="uni0323" unicode="&#x323;" horiz-adv-x="0" 
d="M125 -371h-254v252h254v-252z" />
    <glyph glyph-name="uni0324" unicode="&#x324;" horiz-adv-x="0" 
d="M-66 -371h-200v242h200v-242zM266 -371h-200v242h200v-242z" />
    <glyph glyph-name="uni0326" unicode="&#x326;" horiz-adv-x="0" 
d="M33 -465h-207q69 160 80 361h241q-9 -111 -40 -208t-74 -153z" />
    <glyph glyph-name="uni0327" unicode="&#x327;" horiz-adv-x="0" 
d="M-59 8h155l-39 -71q146 -49 146 -170q0 -81 -55 -131t-164 -50q-105 0 -168 35l34 133q35 -22 103 -22q59 0 59 39q0 51 -129 71v56z" />
    <glyph glyph-name="uni0328" unicode="&#x328;" horiz-adv-x="0" 
d="M-47 61l147 -61q-75 -72 -75 -141q0 -38 22 -60t62 -22q33 0 71 10l19 -156q-56 -34 -172 -34q-102 0 -166 53t-64 151q0 70 41.5 139.5t114.5 120.5z" />
    <glyph glyph-name="uni032E" unicode="&#x32e;" horiz-adv-x="0" 
d="M-287 -102h181q18 -97 106 -97q52 0 73.5 25t32.5 72h177q-6 -54 -24.5 -100t-51.5 -84.5t-87 -60.5t-124 -22t-125 23t-87.5 62t-50 84.5t-20.5 97.5z" />
    <glyph glyph-name="uni0331" unicode="&#x331;" horiz-adv-x="0" 
d="M-258 -139h512v-189h-512v189z" />
    <glyph glyph-name="pi" unicode="&#x3c0;" horiz-adv-x="989" 
d="M598 0v854h-213v-854h-246v854q-88 0 -129 -6v205q63 8 312 8h641v-211h-121v-850h-244z" />
    <glyph glyph-name="uni1E0C" unicode="&#x1e0c;" horiz-adv-x="1050" 
d="M121 0v1386h360q261 0 378.5 -165t117.5 -500q0 -364 -118.5 -542.5t-395.5 -178.5h-342zM371 1180v-977h88q145 0 203.5 118t58.5 400q0 245 -56.5 352t-203.5 107h-90zM608 -371h-254v252h254v-252z" />
    <glyph glyph-name="uni1E0D" unicode="&#x1e0d;" horiz-adv-x="952" 
d="M602 1454h246v-1159q0 -234 2 -295h-236q-8 54 -8 113q-53 -131 -235 -131q-163 0 -238.5 141t-75.5 416q0 254 87.5 396t267.5 142q150 0 190 -82v459zM307 535q0 -183 35.5 -265t112.5 -82q92 0 123.5 78t31.5 277q0 192 -27 259.5t-118 67.5q-79 0 -118.5 -74.5
t-39.5 -260.5zM602 -371h-254v252h254v-252z" />
    <glyph glyph-name="uni1E0E" unicode="&#x1e0e;" horiz-adv-x="1050" 
d="M121 0v1386h360q261 0 378.5 -165t117.5 -500q0 -364 -118.5 -542.5t-395.5 -178.5h-342zM371 1180v-977h88q145 0 203.5 118t58.5 400q0 245 -56.5 352t-203.5 107h-90zM244 -139h512v-189h-512v189z" />
    <glyph glyph-name="uni1E0F" unicode="&#x1e0f;" horiz-adv-x="952" 
d="M602 1454h246v-1159q0 -234 2 -295h-236q-8 54 -8 113q-53 -131 -235 -131q-163 0 -238.5 141t-75.5 416q0 254 87.5 396t267.5 142q150 0 190 -82v459zM307 535q0 -183 35.5 -265t112.5 -82q92 0 123.5 78t31.5 277q0 192 -27 259.5t-118 67.5q-79 0 -118.5 -74.5
t-39.5 -260.5zM219 -139h512v-189h-512v189z" />
    <glyph glyph-name="uni1E20" unicode="&#x1e20;" horiz-adv-x="1038" 
d="M944 778v-778h-188q-11 81 -13 119q-43 -79 -111 -111.5t-163 -32.5q-211 0 -303 178.5t-92 530.5q0 723 469 723q77 0 140 -18.5t103 -46t70 -69t45.5 -76t25 -78.5t12 -66t3.5 -49h-244q-14 194 -163 194q-58 0 -99 -37t-63.5 -108t-32.5 -160.5t-10 -208.5
q0 -128 8.5 -215.5t30 -154.5t60.5 -98.5t97 -31.5q95 0 133.5 73t38.5 232v78h-186v211h432zM252 1698h541v-182h-541v182z" />
    <glyph glyph-name="uni1E21" unicode="&#x1e21;" horiz-adv-x="958" 
d="M850 741v-655q0 -118 -19.5 -203.5t-64.5 -151t-126 -98t-198 -32.5q-87 0 -154 20t-106.5 50.5t-65 73t-35 81.5t-11.5 82h243q2 -19 6.5 -32t17.5 -33.5t42 -32t72 -11.5q94 0 125.5 67.5t31.5 219.5v47q-60 -125 -227 -125q-164 0 -243 133.5t-79 376.5q0 269 91 414
t253 145q93 0 141 -33t64 -77q3 47 10 94h234q-2 -66 -2 -320zM311 524q0 -160 38 -235.5t114 -75.5q45 0 75 21t46 67.5t22 106t6 149.5q0 66 -2 106.5t-10 84.5t-23 67.5t-42 39t-66 15.5q-158 0 -158 -346zM221 1415h512v-188h-512v188z" />
    <glyph glyph-name="uni1E24" unicode="&#x1e24;" horiz-adv-x="1073" 
d="M121 0v1386h248v-548h333v548h250v-1386h-250v623h-333v-623h-248zM662 -371h-254v252h254v-252z" />
    <glyph glyph-name="uni1E25" unicode="&#x1e25;" horiz-adv-x="962" 
d="M109 1454h243v-496q69 121 240 121q262 0 262 -329v-750h-244v700q0 86 -25 128t-98 42q-77 0 -106 -54.5t-29 -168.5v-647h-243v1454zM606 -371h-254v252h254v-252z" />
    <glyph glyph-name="uni1E2A" unicode="&#x1e2a;" horiz-adv-x="1073" 
d="M121 0v1386h248v-548h333v548h250v-1386h-250v623h-333v-623h-248zM250 -102h180q18 -97 107 -97q52 0 73.5 25t32.5 72h176q-6 -54 -24.5 -100t-51.5 -84.5t-87 -60.5t-124 -22t-124.5 23t-87 62t-50 84.5t-20.5 97.5z" />
    <glyph glyph-name="uni1E2B" unicode="&#x1e2b;" horiz-adv-x="962" 
d="M109 1454h243v-496q69 121 240 121q262 0 262 -329v-750h-244v700q0 86 -25 128t-98 42q-77 0 -106 -54.5t-29 -168.5v-647h-243v1454zM195 -102h180q18 -97 106 -97q52 0 74 25t33 72h176q-6 -54 -24.5 -100t-51.5 -84.5t-87 -60.5t-124 -22t-124.5 23t-87 62t-50 84.5
t-20.5 97.5z" />
    <glyph glyph-name="uni1E36" unicode="&#x1e36;" horiz-adv-x="847" 
d="M121 0v1386h248v-1175h475l-25 -211h-698zM612 -369h-254v252h254v-252z" />
    <glyph glyph-name="uni1E37" unicode="&#x1e37;" horiz-adv-x="460" 
d="M352 0h-243v1454h243v-1454zM356 -371h-254v252h254v-252z" />
    <glyph glyph-name="uni1E38" unicode="&#x1e38;" horiz-adv-x="847" 
d="M121 0v1386h248v-1175h475l-25 -211h-698zM614 -371h-254v252h254v-252zM-25 1688h541v-183h-541v183z" />
    <glyph glyph-name="uni1E39" unicode="&#x1e39;" horiz-adv-x="460" 
d="M352 0h-243v1454h243v-1454zM-29 1720h512v-188h-512v188zM356 -371h-254v252h254v-252z" />
    <glyph glyph-name="uni1E3A" unicode="&#x1e3a;" horiz-adv-x="847" 
d="M121 0v1386h248v-1175h475l-25 -211h-698zM221 -137h512v-189h-512v189z" />
    <glyph glyph-name="uni1E3B" unicode="&#x1e3b;" horiz-adv-x="460" 
d="M352 0h-243v1454h243v-1454zM-29 -139h512v-189h-512v189z" />
    <glyph glyph-name="uni1E42" unicode="&#x1e42;" horiz-adv-x="1329" 
d="M973 0v516q0 348 8 664h-6q-3 -15 -50.5 -287.5t-86 -481.5t-78.5 -411h-223q-181 1110 -193 1184h-8q14 -284 14 -692v-492h-225v1386h371q101 -535 163 -972h3q17 112 186 972h362v-1386h-237zM772 -369h-254v252h254v-252z" />
    <glyph glyph-name="uni1E43" unicode="&#x1e43;" horiz-adv-x="1433" 
d="M111 0v741q0 273 -2 320h233q6 -30 6 -109q75 125 234 125q164 0 215 -143q87 143 260 143q268 0 268 -317v-760h-240v723q0 147 -112 147q-72 0 -101.5 -51t-29.5 -155v-664h-244v719q0 149 -111 149q-72 0 -103.5 -51t-31.5 -160v-657h-241zM842 -371h-254v252h254
v-252z" />
    <glyph glyph-name="uni1E44" unicode="&#x1e44;" horiz-adv-x="1093" 
d="M344 0h-223v1386h280q322 -860 346 -936q9 -26 13 -44h2q-12 199 -12 598v382h223v-1386h-271q-338 929 -366 1028h-2q10 -172 10 -625v-403zM668 1487h-248v242h248v-242z" />
    <glyph glyph-name="uni1E45" unicode="&#x1e45;" horiz-adv-x="962" 
d="M109 0v731q0 245 -3 330h236q6 -81 6 -111q75 129 236 129q130 0 200 -81.5t70 -241.5v-756h-244v700q0 85 -26 127.5t-95 42.5q-71 0 -104 -48t-33 -165v-657h-243zM602 1212h-244v242h244v-242z" />
    <glyph glyph-name="uni1E46" unicode="&#x1e46;" horiz-adv-x="1093" 
d="M344 0h-223v1386h280q322 -860 346 -936q9 -26 13 -44h2q-12 199 -12 598v382h223v-1386h-271q-338 929 -366 1028h-2q10 -172 10 -625v-403zM670 -369h-254v252h254v-252z" />
    <glyph glyph-name="uni1E47" unicode="&#x1e47;" horiz-adv-x="962" 
d="M109 0v731q0 245 -3 330h236q6 -81 6 -111q75 129 236 129q130 0 200 -81.5t70 -241.5v-756h-244v700q0 85 -26 127.5t-95 42.5q-71 0 -104 -48t-33 -165v-657h-243zM606 -371h-254v252h254v-252z" />
    <glyph glyph-name="uni1E48" unicode="&#x1e48;" horiz-adv-x="1093" 
d="M344 0h-223v1386h280q322 -860 346 -936q9 -26 13 -44h2q-12 199 -12 598v382h223v-1386h-271q-338 929 -366 1028h-2q10 -172 10 -625v-403zM287 -139h512v-189h-512v189z" />
    <glyph glyph-name="uni1E49" unicode="&#x1e49;" horiz-adv-x="962" 
d="M109 0v731q0 245 -3 330h236q6 -81 6 -111q75 129 236 129q130 0 200 -81.5t70 -241.5v-756h-244v700q0 85 -26 127.5t-95 42.5q-71 0 -104 -48t-33 -165v-657h-243zM223 -139h512v-189h-512v189z" />
    <glyph glyph-name="uni1E5A" unicode="&#x1e5a;" horiz-adv-x="1007" 
d="M473 592h-106v-592h-246v1386h424q190 0 292.5 -97t102.5 -281q0 -71 -17.5 -129t-46 -94.5t-57 -58.5t-59.5 -34q55 -26 88.5 -67t51.5 -109.5t18 -169.5v-55q0 -158 18 -291h-240q-22 69 -22 293v49q0 142 -42 196t-159 54zM367 1186v-393h116q111 0 160 48.5t49 153.5
q0 191 -184 191h-141zM647 -350h-254v252h254v-252z" />
    <glyph glyph-name="uni1E5B" unicode="&#x1e5b;" horiz-adv-x="645" 
d="M109 0v700q0 247 -3 361h234q6 -54 6 -176q30 92 100.5 142t176.5 50v-274q-68 2 -115.5 -8.5t-84 -37.5t-54 -76.5t-17.5 -123.5v-557h-243zM356 -371h-254v252h254v-252z" />
    <glyph glyph-name="uni1E5C" unicode="&#x1e5c;" horiz-adv-x="1007" 
d="M473 592h-106v-592h-246v1386h424q190 0 292.5 -97t102.5 -281q0 -71 -17.5 -129t-46 -94.5t-57 -58.5t-59.5 -34q55 -26 88.5 -67t51.5 -109.5t18 -169.5v-55q0 -158 18 -291h-240q-22 69 -22 293v49q0 142 -42 196t-159 54zM367 1186v-393h116q111 0 160 48.5t49 153.5
q0 191 -184 191h-141zM647 -350h-254v252h254v-252zM231 1698h541v-182h-541v182z" />
    <glyph glyph-name="uni1E5D" unicode="&#x1e5d;" horiz-adv-x="645" 
d="M109 0v700q0 247 -3 361h234q6 -54 6 -176q30 92 100.5 142t176.5 50v-274q-68 2 -115.5 -8.5t-84 -37.5t-54 -76.5t-17.5 -123.5v-557h-243zM102 1415h512v-188h-512v188zM356 -371h-254v252h254v-252z" />
    <glyph glyph-name="uni1E5E" unicode="&#x1e5e;" horiz-adv-x="1007" 
d="M473 592h-106v-592h-246v1386h424q190 0 292.5 -97t102.5 -281q0 -71 -17.5 -129t-46 -94.5t-57 -58.5t-59.5 -34q55 -26 88.5 -67t51.5 -109.5t18 -169.5v-55q0 -158 18 -291h-240q-22 69 -22 293v49q0 142 -42 196t-159 54zM367 1186v-393h116q111 0 160 48.5t49 153.5
q0 191 -184 191h-141zM264 -137h512v-189h-512v189z" />
    <glyph glyph-name="uni1E5F" unicode="&#x1e5f;" horiz-adv-x="645" 
d="M109 0v700q0 247 -3 361h234q6 -54 6 -176q30 92 100.5 142t176.5 50v-274q-68 2 -115.5 -8.5t-84 -37.5t-54 -76.5t-17.5 -123.5v-557h-243zM-16 -139h512v-189h-512v189z" />
    <glyph glyph-name="uni1E60" unicode="&#x1e60;" horiz-adv-x="954" 
d="M45 387h246q22 -215 186 -215q86 0 126 48.5t40 131.5q0 86 -50 143.5t-179 118.5q-183 87 -257.5 177.5t-74.5 242.5q0 169 104.5 271t288.5 102q90 0 160 -24t112.5 -61.5t70 -90.5t38.5 -105t12 -110h-243q-2 29 -6 52t-14.5 51.5t-26 47.5t-43.5 32t-64 13
q-71 0 -106 -42t-35 -115q0 -75 42.5 -121t164.5 -103q97 -45 161.5 -87.5t111 -96.5t67 -120t20.5 -152q0 -84 -26 -155.5t-77.5 -126.5t-134.5 -86.5t-190 -31.5q-115 0 -199 34.5t-130.5 95t-69 130t-25.5 152.5zM600 1505h-248v242h248v-242z" />
    <glyph glyph-name="uni1E61" unicode="&#x1e61;" horiz-adv-x="825" 
d="M41 322h240q0 -63 34 -108.5t103 -45.5q59 0 89 29.5t30 83.5q0 57 -33 91.5t-125 69.5q-182 67 -247.5 140.5t-65.5 193.5q0 56 19 108t58 96.5t108 71.5t159 27q80 0 142.5 -21t100 -54t61.5 -78t33 -88t9 -88h-234q0 143 -119 143q-46 0 -72 -27t-26 -71
q0 -51 34 -80.5t130 -65.5q171 -64 240 -138.5t69 -201.5q0 -157 -95.5 -242t-274.5 -85q-182 0 -274.5 95t-92.5 245zM535 1212h-244v242h244v-242z" />
    <glyph glyph-name="uni1E62" unicode="&#x1e62;" horiz-adv-x="954" 
d="M45 387h246q22 -215 186 -215q86 0 126 48.5t40 131.5q0 86 -50 143.5t-179 118.5q-183 87 -257.5 177.5t-74.5 242.5q0 169 104.5 271t288.5 102q90 0 160 -24t112.5 -61.5t70 -90.5t38.5 -105t12 -110h-243q-2 29 -6 52t-14.5 51.5t-26 47.5t-43.5 32t-64 13
q-71 0 -106 -42t-35 -115q0 -75 42.5 -121t164.5 -103q97 -45 161.5 -87.5t111 -96.5t67 -120t20.5 -152q0 -84 -26 -155.5t-77.5 -126.5t-134.5 -86.5t-190 -31.5q-115 0 -199 34.5t-130.5 95t-69 130t-25.5 152.5zM602 -371h-254v252h254v-252z" />
    <glyph glyph-name="uni1E63" unicode="&#x1e63;" horiz-adv-x="825" 
d="M41 322h240q0 -63 34 -108.5t103 -45.5q59 0 89 29.5t30 83.5q0 57 -33 91.5t-125 69.5q-182 67 -247.5 140.5t-65.5 193.5q0 56 19 108t58 96.5t108 71.5t159 27q80 0 142.5 -21t100 -54t61.5 -78t33 -88t9 -88h-234q0 143 -119 143q-46 0 -72 -27t-26 -71
q0 -51 34 -80.5t130 -65.5q171 -64 240 -138.5t69 -201.5q0 -157 -95.5 -242t-274.5 -85q-182 0 -274.5 95t-92.5 245zM539 -371h-254v252h254v-252z" />
    <glyph glyph-name="uni1E6C" unicode="&#x1e6c;" horiz-adv-x="862" 
d="M307 0v1169h-297v217h842v-217h-297v-1169h-248zM557 -371h-254v252h254v-252z" />
    <glyph glyph-name="uni1E6D" unicode="&#x1e6d;" horiz-adv-x="561" 
d="M-8 860v201h139v264h244v-264h164v-201h-164v-581q0 -51 17.5 -74t70.5 -23q41 0 61 4v-178q-50 -22 -149 -22q-130 0 -187 57t-57 197v620h-139zM428 -371h-254v252h254v-252z" />
    <glyph glyph-name="uni1E6E" unicode="&#x1e6e;" horiz-adv-x="862" 
d="M307 0v1169h-297v217h842v-217h-297v-1169h-248zM174 -139h512v-189h-512v189z" />
    <glyph glyph-name="uni1E6F" unicode="&#x1e6f;" horiz-adv-x="561" 
d="M-8 860v201h139v264h244v-264h164v-201h-164v-581q0 -51 17.5 -74t70.5 -23q41 0 61 4v-178q-50 -22 -149 -22q-130 0 -187 57t-57 197v620h-139zM63 -139h512v-189h-512v189z" />
    <glyph glyph-name="Wgrave" unicode="&#x1e80;" horiz-adv-x="1454" 
d="M532 0h-245l-264 1386h266q117 -784 137 -1040h2q24 155 102 555.5t93 484.5h221q6 -33 57 -297.5t82 -438t47 -292.5h4q18 166 78 553t72 475h248l-283 -1386h-246q-17 95 -58.5 305t-73.5 382t-48 290h-4q-14 -94 -39.5 -234.5t-47.5 -250t-55 -271.5t-45 -221z
M346 1743h301l223 -246h-237z" />
    <glyph glyph-name="wgrave" unicode="&#x1e81;" horiz-adv-x="1318" 
d="M16 1061h260q99 -609 121 -799h4q7 61 24.5 146.5t55.5 267.5t76 385h221q14 -70 44 -217.5t41.5 -205.5t28.5 -147.5t25 -139t11 -85.5h2q40 275 131 795h242l-259 -1061h-245q-118 578 -140 725h-2q-5 -43 -15 -99t-26.5 -134t-30.5 -140t-39 -174t-40 -178h-252z
M297 1468h289l192 -278h-213z" />
    <glyph glyph-name="Wacute" unicode="&#x1e82;" horiz-adv-x="1454" 
d="M532 0h-245l-264 1386h266q117 -784 137 -1040h2q24 155 102 555.5t93 484.5h221q6 -33 57 -297.5t82 -438t47 -292.5h4q18 166 78 553t72 475h248l-283 -1386h-246q-17 95 -58.5 305t-73.5 382t-48 290h-4q-14 -94 -39.5 -234.5t-47.5 -250t-55 -271.5t-45 -221z
M813 1743h295l-287 -246h-235z" />
    <glyph glyph-name="wacute" unicode="&#x1e83;" horiz-adv-x="1318" 
d="M16 1061h260q99 -609 121 -799h4q7 61 24.5 146.5t55.5 267.5t76 385h221q14 -70 44 -217.5t41.5 -205.5t28.5 -147.5t25 -139t11 -85.5h2q40 275 131 795h242l-259 -1061h-245q-118 578 -140 725h-2q-5 -43 -15 -99t-26.5 -134t-30.5 -140t-39 -174t-40 -178h-252z
M750 1468h284l-268 -278h-209z" />
    <glyph glyph-name="Wdieresis" unicode="&#x1e84;" horiz-adv-x="1454" 
d="M532 0h-245l-264 1386h266q117 -784 137 -1040h2q24 155 102 555.5t93 484.5h221q6 -33 57 -297.5t82 -438t47 -292.5h4q18 166 78 553t72 475h248l-283 -1386h-246q-17 95 -58.5 305t-73.5 382t-48 290h-4q-14 -94 -39.5 -234.5t-47.5 -250t-55 -271.5t-45 -221z
M657 1493h-204v238h204v-238zM1001 1493h-206v238h206v-238z" />
    <glyph glyph-name="wdieresis" unicode="&#x1e85;" horiz-adv-x="1318" 
d="M16 1061h260q99 -609 121 -799h4q7 61 24.5 146.5t55.5 267.5t76 385h221q14 -70 44 -217.5t41.5 -205.5t28.5 -147.5t25 -139t11 -85.5h2q40 275 131 795h242l-259 -1061h-245q-118 578 -140 725h-2q-5 -43 -15 -99t-26.5 -134t-30.5 -140t-39 -174t-40 -178h-252z
M592 1212h-201v242h201v-242zM924 1212h-201v242h201v-242z" />
    <glyph glyph-name="uni1E8E" unicode="&#x1e8e;" horiz-adv-x="927" 
d="M588 0h-250v489q0 25 -8 46l-350 851h276q174 -484 215 -636q23 76 59 183t84.5 246t71.5 207h262l-352 -854q-8 -20 -8 -47v-485zM586 1505h-248v242h248v-242z" />
    <glyph glyph-name="uni1E8F" unicode="&#x1e8f;" horiz-adv-x="862" 
d="M8 1061h268q20 -89 55.5 -239t53 -227t34.5 -162t21 -130h2q37 223 166 758h246l-305 -1108q-22 -81 -46.5 -141t-53.5 -97.5t-56 -61t-63.5 -34t-65 -13.5t-71.5 -3q-56 0 -97 8v207q28 -4 78 -4q67 0 99.5 37.5t54.5 134.5zM553 1212h-244v242h244v-242z" />
    <glyph glyph-name="uni1E92" unicode="&#x1e92;" horiz-adv-x="899" 
d="M37 0v172l541 997h-498v217h768v-198l-520 -973h546l-32 -215h-805zM573 -371h-254v252h254v-252z" />
    <glyph glyph-name="uni1E93" unicode="&#x1e93;" horiz-adv-x="765" 
d="M35 0v176q105 163 416 678h-388v207h664v-184q-20 -33 -178.5 -295.5t-229.5 -376.5h414l-24 -205h-674zM510 -371h-254v252h254v-252z" />
    <glyph glyph-name="uni1E97" unicode="&#x1e97;" horiz-adv-x="561" 
d="M-8 860v201h139v264h244v-264h164v-201h-164v-581q0 -51 17.5 -74t70.5 -23q41 0 61 4v-178q-50 -22 -149 -22q-130 0 -187 57t-57 197v620h-139zM193 1405h-201v242h201v-242zM524 1405h-200v242h200v-242z" />
    <glyph glyph-name="uni1E9E" unicode="&#x1e9e;" horiz-adv-x="1107" 
d="M375 1012v-1012h-256v1008q0 110 33 189.5t93.5 124t136 65t169.5 20.5q115 0 201 -28.5t137.5 -80t76.5 -118.5t25 -148v-59l-241 -197v-6l92 -72q116 -89 162.5 -171t46.5 -189q0 -166 -98.5 -262t-274.5 -96q-141 0 -225 47v217q91 -72 209 -72q72 0 106.5 37.5
t34.5 99.5t-29.5 104.5t-111.5 104.5l-132 100q-60 46 -62 115t62 129l199 176q0 31 -6 56t-23 52t-54.5 42.5t-92.5 15.5q-178 0 -178 -192z" />
    <glyph glyph-name="uni1EA0" unicode="&#x1ea0;" horiz-adv-x="987" 
d="M649 348h-321l-70 -348h-248l322 1386h321l324 -1386h-260zM371 563h233q-21 109 -61.5 314.5t-53.5 277.5h-6q-6 -45 -18.5 -116.5t-23 -124.5t-35 -175t-35.5 -176zM618 -350h-253v252h253v-252z" />
    <glyph glyph-name="uni1EA1" unicode="&#x1ea1;" horiz-adv-x="913" 
d="M803 772v-541q0 -137 8 -231h-221q-10 50 -10 98q-70 -116 -240 -116q-73 0 -129.5 27t-89 73t-48.5 100t-16 113q0 164 109.5 257t308.5 93q63 0 88 -2v115q0 22 -1.5 38t-8 35.5t-18.5 32t-33.5 21t-52.5 8.5q-37 0 -60.5 -10.5t-35 -32.5t-16 -42t-7.5 -52h-234
q1 50 11.5 93.5t36 86.5t65 73.5t103.5 49t147 18.5q344 0 344 -305zM569 430v35q-27 4 -80 4q-99 0 -144.5 -41.5t-45.5 -110.5q0 -55 30 -96t93 -41q88 0 117.5 60.5t29.5 189.5zM584 -371h-254v252h254v-252z" />
    <glyph glyph-name="uni1EA2" unicode="&#x1ea2;" horiz-adv-x="987" 
d="M649 348h-321l-70 -348h-248l322 1386h321l324 -1386h-260zM371 563h233q-21 109 -61.5 314.5t-53.5 277.5h-6q-6 -45 -18.5 -116.5t-23 -124.5t-35 -175t-35.5 -176zM582 1477h-195q52 54 70 81.5t18 59.5q0 23 -16 38t-47 15q-40 0 -93 -29l-51 136q87 59 211 59
q99 0 153 -47t54 -121q0 -101 -104 -192z" />
    <glyph glyph-name="uni1EA3" unicode="&#x1ea3;" horiz-adv-x="913" 
d="M803 772v-541q0 -137 8 -231h-221q-10 50 -10 98q-70 -116 -240 -116q-73 0 -129.5 27t-89 73t-48.5 100t-16 113q0 164 109.5 257t308.5 93q63 0 88 -2v115q0 22 -1.5 38t-8 35.5t-18.5 32t-33.5 21t-52.5 8.5q-37 0 -60.5 -10.5t-35 -32.5t-16 -42t-7.5 -52h-234
q1 50 11.5 93.5t36 86.5t65 73.5t103.5 49t147 18.5q344 0 344 -305zM569 430v35q-27 4 -80 4q-99 0 -144.5 -41.5t-45.5 -110.5q0 -55 30 -96t93 -41q88 0 117.5 60.5t29.5 189.5zM547 1178h-195q52 54 70 81.5t18 59.5q0 23 -16 38t-47 15q-39 0 -92 -29l-52 136
q87 59 211 59q99 0 153 -47t54 -121q0 -101 -104 -192z" />
    <glyph glyph-name="uni1EA4" unicode="&#x1ea4;" horiz-adv-x="987" 
d="M649 348h-321l-70 -348h-248l322 1386h321l324 -1386h-260zM371 563h233q-21 109 -61.5 314.5t-53.5 277.5h-6q-6 -45 -18.5 -116.5t-23 -124.5t-35 -175t-35.5 -176zM360 1692h265l202 -222h-235l-100 111l-99 -111h-237zM901 1855h277l-242 -206h-201z" />
    <glyph glyph-name="uni1EA5" unicode="&#x1ea5;" horiz-adv-x="913" 
d="M803 772v-541q0 -137 8 -231h-221q-10 50 -10 98q-70 -116 -240 -116q-73 0 -129.5 27t-89 73t-48.5 100t-16 113q0 164 109.5 257t308.5 93q63 0 88 -2v115q0 22 -1.5 38t-8 35.5t-18.5 32t-33.5 21t-52.5 8.5q-37 0 -60.5 -10.5t-35 -32.5t-16 -42t-7.5 -52h-234
q1 50 11.5 93.5t36 86.5t65 73.5t103.5 49t147 18.5q344 0 344 -305zM569 430v35q-27 4 -80 4q-99 0 -144.5 -41.5t-45.5 -110.5q0 -55 30 -96t93 -41q88 0 117.5 60.5t29.5 189.5zM342 1430h233l189 -252h-207l-100 135l-99 -135h-206zM836 1624h231l-221 -242h-178z" />
    <glyph glyph-name="uni1EA6" unicode="&#x1ea6;" horiz-adv-x="987" 
d="M649 348h-321l-70 -348h-248l322 1386h321l324 -1386h-260zM371 563h233q-21 109 -61.5 314.5t-53.5 277.5h-6q-6 -45 -18.5 -116.5t-23 -124.5t-35 -175t-35.5 -176zM360 1692h265l202 -222h-235l-100 111l-99 -111h-237zM590 1858h282l164 -209h-192z" />
    <glyph glyph-name="uni1EA7" unicode="&#x1ea7;" horiz-adv-x="913" 
d="M803 772v-541q0 -137 8 -231h-221q-10 50 -10 98q-70 -116 -240 -116q-73 0 -129.5 27t-89 73t-48.5 100t-16 113q0 164 109.5 257t308.5 93q63 0 88 -2v115q0 22 -1.5 38t-8 35.5t-18.5 32t-33.5 21t-52.5 8.5q-37 0 -60.5 -10.5t-35 -32.5t-16 -42t-7.5 -52h-234
q1 50 11.5 93.5t36 86.5t65 73.5t103.5 49t147 18.5q344 0 344 -305zM569 430v35q-27 4 -80 4q-99 0 -144.5 -41.5t-45.5 -110.5q0 -55 30 -96t93 -41q88 0 117.5 60.5t29.5 189.5zM342 1430h233l189 -252h-207l-100 135l-99 -135h-206zM555 1624h248l168 -250h-180z" />
    <glyph glyph-name="uni1EA8" unicode="&#x1ea8;" horiz-adv-x="987" 
d="M649 348h-321l-70 -348h-248l322 1386h321l324 -1386h-260zM371 563h233q-21 109 -61.5 314.5t-53.5 277.5h-6q-6 -45 -18.5 -116.5t-23 -124.5t-35 -175t-35.5 -176zM920 1653h-164q44 41 62 68t18 55q0 41 -58 41q-46 0 -94 -31l-45 108q74 70 195 70q86 0 132 -41
t46 -108q0 -87 -92 -162zM360 1692h265l202 -222h-235l-100 111l-99 -111h-237z" />
    <glyph glyph-name="uni1EA9" unicode="&#x1ea9;" horiz-adv-x="913" 
d="M803 772v-541q0 -137 8 -231h-221q-10 50 -10 98q-70 -116 -240 -116q-73 0 -129.5 27t-89 73t-48.5 100t-16 113q0 164 109.5 257t308.5 93q63 0 88 -2v115q0 22 -1.5 38t-8 35.5t-18.5 32t-33.5 21t-52.5 8.5q-37 0 -60.5 -10.5t-35 -32.5t-16 -42t-7.5 -52h-234
q1 50 11.5 93.5t36 86.5t65 73.5t103.5 49t147 18.5q344 0 344 -305zM569 430v35q-27 4 -80 4q-99 0 -144.5 -41.5t-45.5 -110.5q0 -55 30 -96t93 -41q88 0 117.5 60.5t29.5 189.5zM874 1386h-178q90 76 90 123q0 45 -55 45q-52 0 -90 -28l-47 112q88 64 192 64
q88 0 133.5 -40.5t45.5 -109.5q0 -98 -91 -166zM340 1432h235l193 -254h-209l-102 135l-101 -135h-209z" />
    <glyph glyph-name="uni1EAA" unicode="&#x1eaa;" horiz-adv-x="987" 
d="M649 348h-321l-70 -348h-248l322 1386h321l324 -1386h-260zM371 563h233q-21 109 -61.5 314.5t-53.5 277.5h-6q-6 -45 -18.5 -116.5t-23 -124.5t-35 -175t-35.5 -176zM332 1712h-142v23q0 178 158 178q63 0 151 -29t119 -29q20 0 30.5 9t10.5 32v17h138v-29
q0 -97 -39 -135.5t-113 -38.5q-57 0 -151 27.5t-123 27.5q-39 0 -39 -41v-12zM365 1649h258l208 -189h-235l-107 88l-98 -88h-235z" />
    <glyph glyph-name="uni1EAB" unicode="&#x1eab;" horiz-adv-x="913" 
d="M803 772v-541q0 -137 8 -231h-221q-10 50 -10 98q-70 -116 -240 -116q-73 0 -129.5 27t-89 73t-48.5 100t-16 113q0 164 109.5 257t308.5 93q63 0 88 -2v115q0 22 -1.5 38t-8 35.5t-18.5 32t-33.5 21t-52.5 8.5q-37 0 -60.5 -10.5t-35 -32.5t-16 -42t-7.5 -52h-234
q1 50 11.5 93.5t36 86.5t65 73.5t103.5 49t147 18.5q344 0 344 -305zM569 430v35q-27 4 -80 4q-99 0 -144.5 -41.5t-45.5 -110.5q0 -55 30 -96t93 -41q88 0 117.5 60.5t29.5 189.5zM319 1442h-141v22q0 94 41 138.5t109 44.5q60 0 137 -30t94 -30q22 0 31.5 9t9.5 34v15h139
v-27q0 -176 -151 -176q-52 0 -128.5 27.5t-99.5 27.5q-41 0 -41 -43v-12zM330 1366h254l207 -207h-230l-108 103l-103 -103h-223z" />
    <glyph glyph-name="uni1EAC" unicode="&#x1eac;" horiz-adv-x="987" 
d="M649 348h-321l-70 -348h-248l322 1386h321l324 -1386h-260zM371 563h233q-21 109 -61.5 314.5t-53.5 277.5h-6q-6 -45 -18.5 -116.5t-23 -124.5t-35 -175t-35.5 -176zM618 -350h-253v252h253v-252zM356 1712h273l198 -237h-241l-94 114l-93 -114h-241z" />
    <glyph glyph-name="uni1EAD" unicode="&#x1ead;" horiz-adv-x="913" 
d="M803 772v-541q0 -137 8 -231h-221q-10 50 -10 98q-70 -116 -240 -116q-73 0 -129.5 27t-89 73t-48.5 100t-16 113q0 164 109.5 257t308.5 93q63 0 88 -2v115q0 22 -1.5 38t-8 35.5t-18.5 32t-33.5 21t-52.5 8.5q-37 0 -60.5 -10.5t-35 -32.5t-16 -42t-7.5 -52h-234
q1 50 11.5 93.5t36 86.5t65 73.5t103.5 49t147 18.5q344 0 344 -305zM569 430v35q-27 4 -80 4q-99 0 -144.5 -41.5t-45.5 -110.5q0 -55 30 -96t93 -41q88 0 117.5 60.5t29.5 189.5zM584 -371h-254v252h254v-252zM328 1456h260l182 -276h-223l-90 141l-88 -141h-224z" />
    <glyph glyph-name="uni1EAE" unicode="&#x1eae;" horiz-adv-x="987" 
d="M649 348h-321l-70 -348h-248l322 1386h321l324 -1386h-260zM371 563h233q-21 109 -61.5 314.5t-53.5 277.5h-6q-6 -45 -18.5 -116.5t-23 -124.5t-35 -175t-35.5 -176zM184 1686h187q11 -33 43 -54.5t80 -21.5q95 0 124 76h187q-10 -45 -31 -83.5t-57 -72.5t-93.5 -54
t-131.5 -20q-77 0 -137 22.5t-94.5 58.5t-53 73.5t-23.5 75.5zM567 1913h312l-275 -174h-223z" />
    <glyph glyph-name="uni1EAF" unicode="&#x1eaf;" horiz-adv-x="913" 
d="M803 772v-541q0 -137 8 -231h-221q-10 50 -10 98q-70 -116 -240 -116q-73 0 -129.5 27t-89 73t-48.5 100t-16 113q0 164 109.5 257t308.5 93q63 0 88 -2v115q0 22 -1.5 38t-8 35.5t-18.5 32t-33.5 21t-52.5 8.5q-37 0 -60.5 -10.5t-35 -32.5t-16 -42t-7.5 -52h-234
q1 50 11.5 93.5t36 86.5t65 73.5t103.5 49t147 18.5q344 0 344 -305zM569 430v35q-27 4 -80 4q-99 0 -144.5 -41.5t-45.5 -110.5q0 -55 30 -96t93 -41q88 0 117.5 60.5t29.5 189.5zM162 1399h180q17 -84 117 -84q96 0 116 84h179q-17 -105 -89.5 -171.5t-209.5 -66.5
q-133 0 -205 69.5t-88 168.5zM530 1647h279l-252 -201h-209z" />
    <glyph glyph-name="uni1EB0" unicode="&#x1eb0;" horiz-adv-x="987" 
d="M649 348h-321l-70 -348h-248l322 1386h321l324 -1386h-260zM371 563h233q-21 109 -61.5 314.5t-53.5 277.5h-6q-6 -45 -18.5 -116.5t-23 -124.5t-35 -175t-35.5 -176zM184 1686h187q11 -33 43 -54.5t80 -21.5q95 0 124 76h187q-10 -45 -31 -83.5t-57 -72.5t-93.5 -54
t-131.5 -20q-77 0 -137 22.5t-94.5 58.5t-53 73.5t-23.5 75.5zM106 1913h361l182 -174h-268z" />
    <glyph glyph-name="uni1EB1" unicode="&#x1eb1;" horiz-adv-x="913" 
d="M803 772v-541q0 -137 8 -231h-221q-10 50 -10 98q-70 -116 -240 -116q-73 0 -129.5 27t-89 73t-48.5 100t-16 113q0 164 109.5 257t308.5 93q63 0 88 -2v115q0 22 -1.5 38t-8 35.5t-18.5 32t-33.5 21t-52.5 8.5q-37 0 -60.5 -10.5t-35 -32.5t-16 -42t-7.5 -52h-234
q1 50 11.5 93.5t36 86.5t65 73.5t103.5 49t147 18.5q344 0 344 -305zM569 430v35q-27 4 -80 4q-99 0 -144.5 -41.5t-45.5 -110.5q0 -55 30 -96t93 -41q88 0 117.5 60.5t29.5 189.5zM162 1399h180q17 -84 117 -84q96 0 116 84h179q-17 -105 -89.5 -171.5t-209.5 -66.5
q-133 0 -205 69.5t-88 168.5zM96 1647h310l180 -201h-228z" />
    <glyph glyph-name="uni1EB2" unicode="&#x1eb2;" horiz-adv-x="987" 
d="M649 348h-321l-70 -348h-248l322 1386h321l324 -1386h-260zM371 563h233q-21 109 -61.5 314.5t-53.5 277.5h-6q-6 -45 -18.5 -116.5t-23 -124.5t-35 -175t-35.5 -176zM573 1737h-174q45 40 63.5 65.5t18.5 50.5q0 43 -53 43q-42 0 -96 -28l-45 110q81 60 198 60
q84 0 131.5 -41t47.5 -107q0 -83 -91 -153zM182 1690h189q10 -33 41.5 -54.5t81.5 -21.5q99 0 124 76h189q-9 -45 -30.5 -84t-58 -73.5t-94.5 -54.5t-132 -20q-77 0 -137 22.5t-95 59t-53.5 74t-24.5 76.5z" />
    <glyph glyph-name="uni1EB3" unicode="&#x1eb3;" horiz-adv-x="913" 
d="M803 772v-541q0 -137 8 -231h-221q-10 50 -10 98q-70 -116 -240 -116q-73 0 -129.5 27t-89 73t-48.5 100t-16 113q0 164 109.5 257t308.5 93q63 0 88 -2v115q0 22 -1.5 38t-8 35.5t-18.5 32t-33.5 21t-52.5 8.5q-37 0 -60.5 -10.5t-35 -32.5t-16 -42t-7.5 -52h-234
q1 50 11.5 93.5t36 86.5t65 73.5t103.5 49t147 18.5q344 0 344 -305zM569 430v35q-27 4 -80 4q-99 0 -144.5 -41.5t-45.5 -110.5q0 -55 30 -96t93 -41q88 0 117.5 60.5t29.5 189.5zM526 1438h-168q95 73 95 125q0 20 -13.5 32.5t-40.5 12.5q-37 0 -86 -29l-43 109
q70 57 183 57q85 0 128.5 -40t43.5 -108q0 -94 -99 -159zM162 1399h180q17 -84 117 -84q96 0 116 84h179q-17 -105 -89.5 -171.5t-209.5 -66.5q-133 0 -205 69.5t-88 168.5z" />
    <glyph glyph-name="uni1EB4" unicode="&#x1eb4;" horiz-adv-x="987" 
d="M649 348h-321l-70 -348h-248l322 1386h321l324 -1386h-260zM371 563h233q-21 109 -61.5 314.5t-53.5 277.5h-6q-6 -45 -18.5 -116.5t-23 -124.5t-35 -175t-35.5 -176zM332 1735h-142v22q0 180 158 180q63 0 151 -29.5t119 -29.5q21 0 31 9t10 34v14h138v-28
q0 -97 -39 -135.5t-113 -38.5q-57 0 -151 27.5t-123 27.5q-39 0 -39 -41v-12zM184 1688h187q11 -34 42.5 -56t80.5 -22q96 0 124 78h187q-10 -46 -31 -84.5t-57 -73t-93.5 -54.5t-131.5 -20q-77 0 -137 22.5t-94.5 59t-53 74t-23.5 76.5z" />
    <glyph glyph-name="uni1EB5" unicode="&#x1eb5;" horiz-adv-x="913" 
d="M803 772v-541q0 -137 8 -231h-221q-10 50 -10 98q-70 -116 -240 -116q-73 0 -129.5 27t-89 73t-48.5 100t-16 113q0 164 109.5 257t308.5 93q63 0 88 -2v115q0 22 -1.5 38t-8 35.5t-18.5 32t-33.5 21t-52.5 8.5q-37 0 -60.5 -10.5t-35 -32.5t-16 -42t-7.5 -52h-234
q1 50 11.5 93.5t36 86.5t65 73.5t103.5 49t147 18.5q344 0 344 -305zM569 430v35q-27 4 -80 4q-99 0 -144.5 -41.5t-45.5 -110.5q0 -55 30 -96t93 -41q88 0 117.5 60.5t29.5 189.5zM322 1462h-142v21q0 96 41 139t109 43q60 0 137 -29.5t94 -29.5q21 0 31 9.5t10 33.5v14
h137v-27q0 -176 -149 -176q-52 0 -129 29t-101 29q-38 0 -38 -43v-13zM180 1384h168q26 -77 113 -77q27 0 47 6.5t32 19t19 24t12 27.5h168q-13 -97 -84.5 -160t-197.5 -63t-196.5 66t-80.5 157z" />
    <glyph glyph-name="uni1EB6" unicode="&#x1eb6;" horiz-adv-x="987" 
d="M649 348h-321l-70 -348h-248l322 1386h321l324 -1386h-260zM371 563h233q-21 109 -61.5 314.5t-53.5 277.5h-6q-6 -45 -18.5 -116.5t-23 -124.5t-35 -175t-35.5 -176zM618 -350h-253v252h253v-252zM195 1722h176q9 -42 42.5 -69t82.5 -27q98 0 122 96h175
q-15 -111 -89 -184.5t-212 -73.5q-143 0 -216 73.5t-81 184.5z" />
    <glyph glyph-name="uni1EB7" unicode="&#x1eb7;" horiz-adv-x="913" 
d="M803 772v-541q0 -137 8 -231h-221q-10 50 -10 98q-70 -116 -240 -116q-73 0 -129.5 27t-89 73t-48.5 100t-16 113q0 164 109.5 257t308.5 93q63 0 88 -2v115q0 22 -1.5 38t-8 35.5t-18.5 32t-33.5 21t-52.5 8.5q-37 0 -60.5 -10.5t-35 -32.5t-16 -42t-7.5 -52h-234
q1 50 11.5 93.5t36 86.5t65 73.5t103.5 49t147 18.5q344 0 344 -305zM569 430v35q-27 4 -80 4q-99 0 -144.5 -41.5t-45.5 -110.5q0 -55 30 -96t93 -41q88 0 117.5 60.5t29.5 189.5zM172 1444h180q18 -96 107 -96q52 0 73.5 24.5t32.5 71.5h176q-6 -54 -24 -100t-51 -84
t-87 -60t-124 -22t-124.5 22.5t-87.5 61.5t-50.5 85t-20.5 97zM584 -371h-254v252h254v-252z" />
    <glyph glyph-name="uni1EB8" unicode="&#x1eb8;" horiz-adv-x="901" 
d="M811 831v-215h-446v-403h499l-30 -213h-713v1386h710v-217h-466v-338h446zM618 -352h-253v252h253v-252z" />
    <glyph glyph-name="uni1EB9" unicode="&#x1eb9;" horiz-adv-x="897" 
d="M836 467h-533q0 -59 5 -103t20 -89t47 -69t80 -24q35 0 61.5 12t40 26t24 38.5t12.5 34.5t5 29h233q-28 -234 -206 -310q-74 -32 -172 -32q-72 0 -130 17t-98.5 46t-71 72.5t-48 89.5t-28.5 105t-14.5 111.5t-3.5 115.5q0 257 100.5 398.5t297.5 141.5q90 0 157.5 -26.5
t110 -71.5t69 -111t36.5 -137.5t10 -159.5q0 -68 -4 -104zM307 643h291q0 47 -4.5 82t-17.5 73.5t-43 59.5t-76 21q-150 0 -150 -236zM575 -371h-253v252h253v-252z" />
    <glyph glyph-name="uni1EBA" unicode="&#x1eba;" horiz-adv-x="901" 
d="M811 831v-215h-446v-403h499l-30 -213h-713v1386h710v-217h-466v-338h446zM561 1473h-194q52 54 70 81.5t18 59.5q0 23 -16.5 38t-47.5 15q-39 0 -92 -29l-51 136q87 59 211 59q99 0 153 -47t54 -121q0 -100 -105 -192z" />
    <glyph glyph-name="uni1EBB" unicode="&#x1ebb;" horiz-adv-x="897" 
d="M836 467h-533q0 -59 5 -103t20 -89t47 -69t80 -24q35 0 61.5 12t40 26t24 38.5t12.5 34.5t5 29h233q-28 -234 -206 -310q-74 -32 -172 -32q-72 0 -130 17t-98.5 46t-71 72.5t-48 89.5t-28.5 105t-14.5 111.5t-3.5 115.5q0 257 100.5 398.5t297.5 141.5q90 0 157.5 -26.5
t110 -71.5t69 -111t36.5 -137.5t10 -159.5q0 -68 -4 -104zM307 643h291q0 47 -4.5 82t-17.5 73.5t-43 59.5t-76 21q-150 0 -150 -236zM537 1178h-195q52 54 70 81.5t18 59.5q0 23 -16 38t-47 15q-40 0 -93 -29l-51 136q87 59 211 59q99 0 153 -47t54 -121q0 -101 -104 -192z
" />
    <glyph glyph-name="uni1EBC" unicode="&#x1ebc;" horiz-adv-x="901" 
d="M811 831v-215h-446v-403h499l-30 -213h-713v1386h710v-217h-466v-338h446zM313 1501h-157v55q0 106 47 152.5t123 46.5q59 0 150.5 -36t113.5 -36q45 0 45 56v18h156v-39q0 -120 -45 -169.5t-130 -49.5q-58 0 -146.5 35t-111.5 35q-20 0 -32.5 -11t-12.5 -32v-25z" />
    <glyph glyph-name="uni1EBD" unicode="&#x1ebd;" horiz-adv-x="897" 
d="M836 467h-533q0 -59 5 -103t20 -89t47 -69t80 -24q35 0 61.5 12t40 26t24 38.5t12.5 34.5t5 29h233q-28 -234 -206 -310q-74 -32 -172 -32q-72 0 -130 17t-98.5 46t-71 72.5t-48 89.5t-28.5 105t-14.5 111.5t-3.5 115.5q0 257 100.5 398.5t297.5 141.5q90 0 157.5 -26.5
t110 -71.5t69 -111t36.5 -137.5t10 -159.5q0 -68 -4 -104zM307 643h291q0 47 -4.5 82t-17.5 73.5t-43 59.5t-76 21q-150 0 -150 -236zM315 1194h-163v59q0 191 161 191q46 0 92.5 -19t82.5 -38t57 -19q37 0 37 64v14h159v-49q0 -116 -42.5 -160.5t-120.5 -44.5
q-44 0 -88.5 18.5t-80 37t-57.5 18.5q-37 0 -37 -49v-23z" />
    <glyph glyph-name="uni1EBE" unicode="&#x1ebe;" horiz-adv-x="901" 
d="M811 831v-215h-446v-403h499l-30 -213h-713v1386h710v-217h-466v-338h446zM340 1712h264l203 -221h-236l-100 111l-98 -111h-238zM881 1876h276l-242 -207h-200z" />
    <glyph glyph-name="uni1EBF" unicode="&#x1ebf;" horiz-adv-x="897" 
d="M836 467h-533q0 -59 5 -103t20 -89t47 -69t80 -24q35 0 61.5 12t40 26t24 38.5t12.5 34.5t5 29h233q-28 -234 -206 -310q-74 -32 -172 -32q-72 0 -130 17t-98.5 46t-71 72.5t-48 89.5t-28.5 105t-14.5 111.5t-3.5 115.5q0 257 100.5 398.5t297.5 141.5q90 0 157.5 -26.5
t110 -71.5t69 -111t36.5 -137.5t10 -159.5q0 -68 -4 -104zM307 643h291q0 47 -4.5 82t-17.5 73.5t-43 59.5t-76 21q-150 0 -150 -236zM332 1430h233l189 -252h-207l-101 135l-98 -135h-207zM825 1624h232l-221 -242h-179z" />
    <glyph glyph-name="uni1EC0" unicode="&#x1ec0;" horiz-adv-x="901" 
d="M811 831v-215h-446v-403h499l-30 -213h-713v1386h710v-217h-466v-338h446zM340 1712h264l203 -221h-236l-100 111l-98 -111h-238zM569 1878h283l164 -209h-193z" />
    <glyph glyph-name="uni1EC1" unicode="&#x1ec1;" horiz-adv-x="897" 
d="M836 467h-533q0 -59 5 -103t20 -89t47 -69t80 -24q35 0 61.5 12t40 26t24 38.5t12.5 34.5t5 29h233q-28 -234 -206 -310q-74 -32 -172 -32q-72 0 -130 17t-98.5 46t-71 72.5t-48 89.5t-28.5 105t-14.5 111.5t-3.5 115.5q0 257 100.5 398.5t297.5 141.5q90 0 157.5 -26.5
t110 -71.5t69 -111t36.5 -137.5t10 -159.5q0 -68 -4 -104zM307 643h291q0 47 -4.5 82t-17.5 73.5t-43 59.5t-76 21q-150 0 -150 -236zM332 1430h233l189 -252h-207l-101 135l-98 -135h-207zM545 1624h248l168 -250h-181z" />
    <glyph glyph-name="uni1EC2" unicode="&#x1ec2;" horiz-adv-x="901" 
d="M811 831v-215h-446v-403h499l-30 -213h-713v1386h710v-217h-466v-338h446zM899 1671h-164q44 41 62 68t18 55q0 41 -57 41q-46 0 -94 -31l-46 109q73 69 195 69q86 0 132 -41t46 -108q0 -87 -92 -162zM340 1710h264l203 -221h-236l-100 110l-98 -110h-238z" />
    <glyph glyph-name="uni1EC3" unicode="&#x1ec3;" horiz-adv-x="897" 
d="M836 467h-533q0 -59 5 -103t20 -89t47 -69t80 -24q35 0 61.5 12t40 26t24 38.5t12.5 34.5t5 29h233q-28 -234 -206 -310q-74 -32 -172 -32q-72 0 -130 17t-98.5 46t-71 72.5t-48 89.5t-28.5 105t-14.5 111.5t-3.5 115.5q0 257 100.5 398.5t297.5 141.5q90 0 157.5 -26.5
t110 -71.5t69 -111t36.5 -137.5t10 -159.5q0 -68 -4 -104zM307 643h291q0 47 -4.5 82t-17.5 73.5t-43 59.5t-76 21q-150 0 -150 -236zM864 1386h-178q90 76 90 123q0 45 -55 45q-52 0 -90 -28l-47 112q88 64 192 64q88 0 133 -40.5t45 -109.5q0 -99 -90 -166zM330 1432h235
l193 -254h-209l-103 135l-100 -135h-209z" />
    <glyph glyph-name="uni1EC4" unicode="&#x1ec4;" horiz-adv-x="901" 
d="M811 831v-215h-446v-403h499l-30 -213h-713v1386h710v-217h-466v-338h446zM311 1733h-141v22q0 178 158 178q63 0 151 -28.5t119 -28.5q20 0 30.5 9t10.5 32v16h137v-28q0 -97 -39 -135.5t-112 -38.5q-57 0 -151 27.5t-124 27.5q-39 0 -39 -41v-12zM344 1669h258
l209 -188h-236l-106 88l-98 -88h-236z" />
    <glyph glyph-name="uni1EC5" unicode="&#x1ec5;" horiz-adv-x="897" 
d="M836 467h-533q0 -59 5 -103t20 -89t47 -69t80 -24q35 0 61.5 12t40 26t24 38.5t12.5 34.5t5 29h233q-28 -234 -206 -310q-74 -32 -172 -32q-72 0 -130 17t-98.5 46t-71 72.5t-48 89.5t-28.5 105t-14.5 111.5t-3.5 115.5q0 257 100.5 398.5t297.5 141.5q90 0 157.5 -26.5
t110 -71.5t69 -111t36.5 -137.5t10 -159.5q0 -68 -4 -104zM307 643h291q0 47 -4.5 82t-17.5 73.5t-43 59.5t-76 21q-150 0 -150 -236zM309 1442h-141v22q0 95 40.5 139t108.5 44q60 0 137.5 -30t94.5 -30q22 0 31.5 9t9.5 34v15h139v-27q0 -176 -151 -176q-52 0 -128.5 27.5
t-99.5 27.5q-41 0 -41 -43v-12zM319 1366h254l207 -207h-229l-109 103l-102 -103h-223z" />
    <glyph glyph-name="uni1EC6" unicode="&#x1ec6;" horiz-adv-x="901" 
d="M811 831v-215h-446v-403h499l-30 -213h-713v1386h710v-217h-466v-338h446zM618 -371h-253v252h253v-252zM336 1733h272l199 -238h-242l-94 115l-92 -115h-242z" />
    <glyph glyph-name="uni1EC7" unicode="&#x1ec7;" horiz-adv-x="897" 
d="M836 467h-533q0 -59 5 -103t20 -89t47 -69t80 -24q35 0 61.5 12t40 26t24 38.5t12.5 34.5t5 29h233q-28 -234 -206 -310q-74 -32 -172 -32q-72 0 -130 17t-98.5 46t-71 72.5t-48 89.5t-28.5 105t-14.5 111.5t-3.5 115.5q0 257 100.5 398.5t297.5 141.5q90 0 157.5 -26.5
t110 -71.5t69 -111t36.5 -137.5t10 -159.5q0 -68 -4 -104zM307 643h291q0 47 -4.5 82t-17.5 73.5t-43 59.5t-76 21q-150 0 -150 -236zM573 -371h-254v252h254v-252zM317 1456h261l182 -276h-223l-91 141l-88 -141h-223z" />
    <glyph glyph-name="uni1EC8" unicode="&#x1ec8;" horiz-adv-x="493" 
d="M121 1386h248v-1386h-248v1386zM334 1479h-195q52 54 70 81.5t18 59.5q0 23 -16 38t-47 15q-41 0 -92 -28l-52 135q87 59 211 59q99 0 153 -47t54 -121q0 -101 -104 -192z" />
    <glyph glyph-name="uni1EC9" unicode="&#x1ec9;" horiz-adv-x="462" 
d="M109 0v1061h243v-1061h-243zM317 1178h-194q52 54 70 81.5t18 59.5q0 23 -16.5 38t-47.5 15q-39 0 -92 -29l-51 136q87 59 211 59q99 0 153 -47t54 -121q0 -100 -105 -192z" />
    <glyph glyph-name="uni1ECA" unicode="&#x1eca;" horiz-adv-x="493" 
d="M121 1386h248v-1386h-248v1386zM373 -371h-254v252h254v-252z" />
    <glyph glyph-name="uni1ECB" unicode="&#x1ecb;" horiz-adv-x="462" 
d="M109 0v1061h243v-1061h-243zM354 1212h-243v242h243v-242zM354 -371h-254v252h254v-252z" />
    <glyph glyph-name="uni1ECC" unicode="&#x1ecc;" horiz-adv-x="1048" 
d="M528 1407q228 0 337.5 -172.5t109.5 -532.5q0 -380 -109 -553.5t-348 -173.5q-227 0 -335.5 175t-108.5 557q0 185 30.5 320t90 218t142 122.5t191.5 39.5zM524 1198q-55 0 -93.5 -32t-61 -97t-32 -152.5t-9.5 -207.5q0 -259 45.5 -392t150.5 -133q57 0 95.5 32.5
t61 101.5t31.5 162.5t9 228.5q0 252 -44 370.5t-153 118.5zM649 -371h-254v252h254v-252z" />
    <glyph glyph-name="uni1ECD" unicode="&#x1ecd;" horiz-adv-x="917" 
d="M467 1077q191 0 290 -136.5t99 -401.5q0 -559 -401 -559q-196 0 -296 133.5t-100 418.5q0 275 107 410t301 135zM461 872q-82 0 -118 -82t-36 -255q0 -178 35 -264.5t121 -86.5q79 0 113 86t34 262q0 179 -33.5 259.5t-115.5 80.5zM584 -371h-254v252h254v-252z" />
    <glyph glyph-name="uni1ECE" unicode="&#x1ece;" horiz-adv-x="1048" 
d="M528 1407q228 0 337.5 -172.5t109.5 -532.5q0 -380 -109 -553.5t-348 -173.5q-227 0 -335.5 175t-108.5 557q0 185 30.5 320t90 218t142 122.5t191.5 39.5zM524 1198q-55 0 -93.5 -32t-61 -97t-32 -152.5t-9.5 -207.5q0 -259 45.5 -392t150.5 -133q57 0 95.5 32.5
t61 101.5t31.5 162.5t9 228.5q0 252 -44 370.5t-153 118.5zM610 1479h-194q52 54 70 81.5t18 59.5q0 23 -16.5 38t-47.5 15q-41 0 -92 -28l-51 135q87 59 211 59q99 0 153 -47t54 -121q0 -100 -105 -192z" />
    <glyph glyph-name="uni1ECF" unicode="&#x1ecf;" horiz-adv-x="917" 
d="M467 1077q191 0 290 -136.5t99 -401.5q0 -559 -401 -559q-196 0 -296 133.5t-100 418.5q0 275 107 410t301 135zM461 872q-82 0 -118 -82t-36 -255q0 -178 35 -264.5t121 -86.5q79 0 113 86t34 262q0 179 -33.5 259.5t-115.5 80.5zM547 1178h-195q52 54 70 81.5t18 59.5
q0 23 -16 38t-47 15q-39 0 -92 -29l-52 136q87 59 211 59q99 0 153 -47t54 -121q0 -101 -104 -192z" />
    <glyph glyph-name="uni1ED0" unicode="&#x1ed0;" horiz-adv-x="1048" 
d="M528 1407q228 0 337.5 -172.5t109.5 -532.5q0 -380 -109 -553.5t-348 -173.5q-227 0 -335.5 175t-108.5 557q0 185 30.5 320t90 218t142 122.5t191.5 39.5zM524 1198q-55 0 -93.5 -32t-61 -97t-32 -152.5t-9.5 -207.5q0 -259 45.5 -392t150.5 -133q57 0 95.5 32.5
t61 101.5t31.5 162.5t9 228.5q0 252 -44 370.5t-153 118.5zM391 1694h264l203 -221h-235l-101 110l-98 -110h-238zM932 1858h276l-241 -207h-201z" />
    <glyph glyph-name="uni1ED1" unicode="&#x1ed1;" horiz-adv-x="917" 
d="M467 1077q191 0 290 -136.5t99 -401.5q0 -559 -401 -559q-196 0 -296 133.5t-100 418.5q0 275 107 410t301 135zM461 872q-82 0 -118 -82t-36 -255q0 -178 35 -264.5t121 -86.5q79 0 113 86t34 262q0 179 -33.5 259.5t-115.5 80.5zM342 1430h233l189 -252h-207l-100 135
l-99 -135h-206zM836 1624h231l-221 -242h-178z" />
    <glyph glyph-name="uni1ED2" unicode="&#x1ed2;" horiz-adv-x="1048" 
d="M528 1407q228 0 337.5 -172.5t109.5 -532.5q0 -380 -109 -553.5t-348 -173.5q-227 0 -335.5 175t-108.5 557q0 185 30.5 320t90 218t142 122.5t191.5 39.5zM524 1198q-55 0 -93.5 -32t-61 -97t-32 -152.5t-9.5 -207.5q0 -259 45.5 -392t150.5 -133q57 0 95.5 32.5
t61 101.5t31.5 162.5t9 228.5q0 252 -44 370.5t-153 118.5zM391 1694h264l203 -221h-235l-101 110l-98 -110h-238zM621 1860h282l164 -209h-193z" />
    <glyph glyph-name="uni1ED3" unicode="&#x1ed3;" horiz-adv-x="917" 
d="M467 1077q191 0 290 -136.5t99 -401.5q0 -559 -401 -559q-196 0 -296 133.5t-100 418.5q0 275 107 410t301 135zM461 872q-82 0 -118 -82t-36 -255q0 -178 35 -264.5t121 -86.5q79 0 113 86t34 262q0 179 -33.5 259.5t-115.5 80.5zM342 1430h233l189 -252h-207l-100 135
l-99 -135h-206zM555 1624h248l168 -250h-180z" />
    <glyph glyph-name="uni1ED4" unicode="&#x1ed4;" horiz-adv-x="1048" 
d="M528 1407q228 0 337.5 -172.5t109.5 -532.5q0 -380 -109 -553.5t-348 -173.5q-227 0 -335.5 175t-108.5 557q0 185 30.5 320t90 218t142 122.5t191.5 39.5zM524 1198q-55 0 -93.5 -32t-61 -97t-32 -152.5t-9.5 -207.5q0 -259 45.5 -392t150.5 -133q57 0 95.5 32.5
t61 101.5t31.5 162.5t9 228.5q0 252 -44 370.5t-153 118.5zM950 1655h-164q44 41 62 68t18 55q0 41 -57 41q-46 0 -94 -31l-45 108q74 70 194 70q86 0 132 -41t46 -108q0 -87 -92 -162zM391 1694h264l203 -221h-235l-101 110l-98 -110h-238z" />
    <glyph glyph-name="uni1ED5" unicode="&#x1ed5;" horiz-adv-x="917" 
d="M467 1077q191 0 290 -136.5t99 -401.5q0 -559 -401 -559q-196 0 -296 133.5t-100 418.5q0 275 107 410t301 135zM461 872q-82 0 -118 -82t-36 -255q0 -178 35 -264.5t121 -86.5q79 0 113 86t34 262q0 179 -33.5 259.5t-115.5 80.5zM874 1386h-178q90 76 90 123
q0 45 -55 45q-52 0 -90 -28l-47 112q88 64 192 64q88 0 133.5 -40.5t45.5 -109.5q0 -98 -91 -166zM340 1432h235l193 -254h-209l-102 135l-101 -135h-209z" />
    <glyph glyph-name="uni1ED6" unicode="&#x1ed6;" horiz-adv-x="1048" 
d="M528 1407q228 0 337.5 -172.5t109.5 -532.5q0 -380 -109 -553.5t-348 -173.5q-227 0 -335.5 175t-108.5 557q0 185 30.5 320t90 218t142 122.5t191.5 39.5zM524 1198q-55 0 -93.5 -32t-61 -97t-32 -152.5t-9.5 -207.5q0 -259 45.5 -392t150.5 -133q57 0 95.5 32.5
t61 101.5t31.5 162.5t9 228.5q0 252 -44 370.5t-153 118.5zM362 1724h-141v23q0 178 158 178q63 0 151 -28.5t119 -28.5q20 0 30.5 9t10.5 32v16h137v-29q0 -97 -39 -135.5t-112 -38.5q-56 0 -151 28t-124 28q-39 0 -39 -41v-13zM395 1661h258l209 -188h-235l-107 88
l-98 -88h-236z" />
    <glyph glyph-name="uni1ED7" unicode="&#x1ed7;" horiz-adv-x="917" 
d="M467 1077q191 0 290 -136.5t99 -401.5q0 -559 -401 -559q-196 0 -296 133.5t-100 418.5q0 275 107 410t301 135zM461 872q-82 0 -118 -82t-36 -255q0 -178 35 -264.5t121 -86.5q79 0 113 86t34 262q0 179 -33.5 259.5t-115.5 80.5zM319 1442h-141v22q0 94 41 138.5
t109 44.5q60 0 137 -30t94 -30q22 0 31.5 9t9.5 34v15h139v-27q0 -176 -151 -176q-52 0 -128.5 27.5t-99.5 27.5q-41 0 -41 -43v-12zM330 1366h254l207 -207h-230l-108 103l-103 -103h-223z" />
    <glyph glyph-name="uni1ED8" unicode="&#x1ed8;" horiz-adv-x="1048" 
d="M528 1407q228 0 337.5 -172.5t109.5 -532.5q0 -380 -109 -553.5t-348 -173.5q-227 0 -335.5 175t-108.5 557q0 185 30.5 320t90 218t142 122.5t191.5 39.5zM524 1198q-55 0 -93.5 -32t-61 -97t-32 -152.5t-9.5 -207.5q0 -259 45.5 -392t150.5 -133q57 0 95.5 32.5
t61 101.5t31.5 162.5t9 228.5q0 252 -44 370.5t-153 118.5zM649 -371h-254v252h254v-252zM387 1733h272l199 -238h-242l-94 115l-92 -115h-242z" />
    <glyph glyph-name="uni1ED9" unicode="&#x1ed9;" horiz-adv-x="917" 
d="M467 1077q191 0 290 -136.5t99 -401.5q0 -559 -401 -559q-196 0 -296 133.5t-100 418.5q0 275 107 410t301 135zM461 872q-82 0 -118 -82t-36 -255q0 -178 35 -264.5t121 -86.5q79 0 113 86t34 262q0 179 -33.5 259.5t-115.5 80.5zM584 -371h-254v252h254v-252zM328 1456
h260l182 -276h-223l-90 141l-88 -141h-224z" />
    <glyph glyph-name="uni1EDA" unicode="&#x1eda;" horiz-adv-x="1048" 
d="M528 1407q140 0 240 -68q41 20 41 86q0 56 -16 115h215q12 -56 12 -121q0 -164 -133 -221q88 -175 88 -496q0 -380 -109 -553.5t-348 -173.5q-227 0 -335.5 175t-108.5 557q0 185 30.5 320t90 218t142 122.5t191.5 39.5zM524 1198q-55 0 -93.5 -32t-61 -97t-32 -152.5
t-9.5 -207.5q0 -259 45.5 -392t150.5 -133q57 0 95.5 32.5t61 101.5t31.5 162.5t9 228.5q0 252 -44 370.5t-153 118.5zM610 1743h295l-287 -246h-235z" />
    <glyph glyph-name="uni1EDB" unicode="&#x1edb;" horiz-adv-x="917" 
d="M467 1077q115 0 197 -49q53 14 53 90q0 52 -17 115h215q13 -60 13 -121q0 -169 -140 -223q68 -133 68 -350q0 -559 -401 -559q-196 0 -296 133.5t-100 418.5q0 275 107 410t301 135zM461 872q-82 0 -118 -82t-36 -255q0 -178 35 -264.5t121 -86.5q79 0 113 86t34 262
q0 179 -33.5 259.5t-115.5 80.5zM512 1468h285l-269 -278h-209z" />
    <glyph glyph-name="uni1EDC" unicode="&#x1edc;" horiz-adv-x="1048" 
d="M528 1407q140 0 240 -68q41 20 41 86q0 56 -16 115h215q12 -56 12 -121q0 -164 -133 -221q88 -175 88 -496q0 -380 -109 -553.5t-348 -173.5q-227 0 -335.5 175t-108.5 557q0 185 30.5 320t90 218t142 122.5t191.5 39.5zM524 1198q-55 0 -93.5 -32t-61 -97t-32 -152.5
t-9.5 -207.5q0 -259 45.5 -392t150.5 -133q57 0 95.5 32.5t61 101.5t31.5 162.5t9 228.5q0 252 -44 370.5t-153 118.5zM129 1743h301l223 -246h-237z" />
    <glyph glyph-name="uni1EDD" unicode="&#x1edd;" horiz-adv-x="917" 
d="M467 1077q115 0 197 -49q53 14 53 90q0 52 -17 115h215q13 -60 13 -121q0 -169 -140 -223q68 -133 68 -350q0 -559 -401 -559q-196 0 -296 133.5t-100 418.5q0 275 107 410t301 135zM461 872q-82 0 -118 -82t-36 -255q0 -178 35 -264.5t121 -86.5q79 0 113 86t34 262
q0 179 -33.5 259.5t-115.5 80.5zM119 1468h289l192 -278h-213z" />
    <glyph glyph-name="uni1EDE" unicode="&#x1ede;" horiz-adv-x="1048" 
d="M528 1407q140 0 240 -68q41 20 41 86q0 56 -16 115h215q12 -56 12 -121q0 -164 -133 -221q88 -175 88 -496q0 -380 -109 -553.5t-348 -173.5q-227 0 -335.5 175t-108.5 557q0 185 30.5 320t90 218t142 122.5t191.5 39.5zM524 1198q-55 0 -93.5 -32t-61 -97t-32 -152.5
t-9.5 -207.5q0 -259 45.5 -392t150.5 -133q57 0 95.5 32.5t61 101.5t31.5 162.5t9 228.5q0 252 -44 370.5t-153 118.5zM610 1479h-194q52 54 70 81.5t18 59.5q0 23 -16.5 38t-47.5 15q-41 0 -92 -28l-51 135q87 59 211 59q99 0 153 -47t54 -121q0 -100 -105 -192z" />
    <glyph glyph-name="uni1EDF" unicode="&#x1edf;" horiz-adv-x="917" 
d="M467 1077q115 0 197 -49q53 14 53 90q0 52 -17 115h215q13 -60 13 -121q0 -169 -140 -223q68 -133 68 -350q0 -559 -401 -559q-196 0 -296 133.5t-100 418.5q0 275 107 410t301 135zM461 872q-82 0 -118 -82t-36 -255q0 -178 35 -264.5t121 -86.5q79 0 113 86t34 262
q0 179 -33.5 259.5t-115.5 80.5zM547 1178h-195q52 54 70 81.5t18 59.5q0 23 -16 38t-47 15q-39 0 -92 -29l-52 136q87 59 211 59q99 0 153 -47t54 -121q0 -101 -104 -192z" />
    <glyph glyph-name="uni1EE0" unicode="&#x1ee0;" horiz-adv-x="1048" 
d="M528 1407q140 0 240 -68q41 20 41 86q0 56 -16 115h215q12 -56 12 -121q0 -164 -133 -221q88 -175 88 -496q0 -380 -109 -553.5t-348 -173.5q-227 0 -335.5 175t-108.5 557q0 185 30.5 320t90 218t142 122.5t191.5 39.5zM524 1198q-55 0 -93.5 -32t-61 -97t-32 -152.5
t-9.5 -207.5q0 -259 45.5 -392t150.5 -133q57 0 95.5 32.5t61 101.5t31.5 162.5t9 228.5q0 252 -44 370.5t-153 118.5zM356 1520h-157v55q0 106 47 152.5t123 46.5q59 0 150.5 -36t113.5 -36q45 0 45 55v19h156v-39q0 -120 -45 -169.5t-130 -49.5q-58 0 -146.5 34.5
t-111.5 34.5q-20 0 -32.5 -11t-12.5 -32v-24z" />
    <glyph glyph-name="uni1EE1" unicode="&#x1ee1;" horiz-adv-x="917" 
d="M467 1077q115 0 197 -49q53 14 53 90q0 49 -15 111q-40 -37 -114 -37q-44 0 -88.5 18.5t-80 37t-57.5 18.5q-36 0 -36 -49v-23h-164v59q0 191 162 191q46 0 92 -19t82 -38t57 -19q37 0 37 64v14h160v-49q0 -116 -45 -164h208q13 -60 13 -121q0 -169 -140 -223
q68 -133 68 -350q0 -559 -401 -559q-196 0 -296 133.5t-100 418.5q0 275 107 410t301 135zM461 872q-82 0 -118 -82t-36 -255q0 -178 35 -264.5t121 -86.5q79 0 113 86t34 262q0 179 -33.5 259.5t-115.5 80.5z" />
    <glyph glyph-name="uni1EE2" unicode="&#x1ee2;" horiz-adv-x="1048" 
d="M528 1407q140 0 240 -68q41 20 41 86q0 56 -16 115h215q12 -56 12 -121q0 -164 -133 -221q88 -175 88 -496q0 -380 -109 -553.5t-348 -173.5q-227 0 -335.5 175t-108.5 557q0 185 30.5 320t90 218t142 122.5t191.5 39.5zM524 1198q-55 0 -93.5 -32t-61 -97t-32 -152.5
t-9.5 -207.5q0 -259 45.5 -392t150.5 -133q57 0 95.5 32.5t61 101.5t31.5 162.5t9 228.5q0 252 -44 370.5t-153 118.5zM649 -371h-254v252h254v-252z" />
    <glyph glyph-name="uni1EE3" unicode="&#x1ee3;" horiz-adv-x="917" 
d="M467 1077q115 0 197 -49q53 14 53 90q0 52 -17 115h215q13 -60 13 -121q0 -169 -140 -223q68 -133 68 -350q0 -559 -401 -559q-196 0 -296 133.5t-100 418.5q0 275 107 410t301 135zM461 872q-82 0 -118 -82t-36 -255q0 -178 35 -264.5t121 -86.5q79 0 113 86t34 262
q0 179 -33.5 259.5t-115.5 80.5zM584 -371h-254v252h254v-252z" />
    <glyph glyph-name="uni1EE4" unicode="&#x1ee4;" horiz-adv-x="1073" 
d="M109 1386h247v-954q0 -248 183 -248q53 0 89.5 19t55 55t26 77t7.5 95v956h248v-960q0 -451 -430 -451q-120 0 -205 33t-132.5 96t-68 141t-20.5 181v960zM662 -371h-254v252h254v-252z" />
    <glyph glyph-name="uni1EE5" unicode="&#x1ee5;" horiz-adv-x="954" 
d="M846 1061v-750q0 -256 2 -311h-234q-8 44 -8 117q-34 -72 -92 -103.5t-145 -31.5q-265 0 -265 317v762h244v-707q0 -84 24.5 -124t88.5 -40q72 0 106.5 49.5t34.5 170.5v651h244zM602 -371h-254v252h254v-252z" />
    <glyph glyph-name="uni1EE6" unicode="&#x1ee6;" horiz-adv-x="1073" 
d="M109 1386h247v-954q0 -248 183 -248q53 0 89.5 19t55 55t26 77t7.5 95v956h248v-960q0 -451 -430 -451q-120 0 -205 33t-132.5 96t-68 141t-20.5 181v960zM623 1458h-195q52 54 70 81.5t18 59.5q0 23 -16 38.5t-47 15.5q-40 0 -93 -29l-51 135q89 60 211 60q99 0 153 -47
t54 -121q0 -102 -104 -193z" />
    <glyph glyph-name="uni1EE7" unicode="&#x1ee7;" horiz-adv-x="954" 
d="M846 1061v-750q0 -256 2 -311h-234q-8 44 -8 117q-34 -72 -92 -103.5t-145 -31.5q-265 0 -265 317v762h244v-707q0 -84 24.5 -124t88.5 -40q72 0 106.5 49.5t34.5 170.5v651h244zM565 1178h-194q52 54 70 81.5t18 59.5q0 23 -16.5 38t-47.5 15q-39 0 -92 -29l-51 136
q87 59 211 59q99 0 153 -47t54 -121q0 -100 -105 -192z" />
    <glyph glyph-name="uni1EE8" unicode="&#x1ee8;" horiz-adv-x="1073" 
d="M109 1386h247v-954q0 -248 183 -248q53 0 89.5 19t55 55t26 77t7.5 95v956h125q61 11 61 93q0 55 -16 114h215q12 -55 12 -120q0 -177 -149 -228v-819q0 -451 -430 -451q-120 0 -205 33t-132.5 96t-68 141t-20.5 181v960zM623 1743h295l-287 -246h-236z" />
    <glyph glyph-name="uni1EE9" unicode="&#x1ee9;" horiz-adv-x="954" 
d="M606 117q-34 -72 -92 -103.5t-145 -31.5q-265 0 -265 317v762h244v-707q0 -84 24.5 -124t88.5 -40q72 0 106.5 49.5t34.5 170.5v651h119q61 11 61 92q0 56 -16 115h215q12 -56 12 -121q0 -174 -147 -227v-609q0 -256 2 -311h-234q-8 44 -8 117zM530 1468h285l-268 -278
h-209z" />
    <glyph glyph-name="uni1EEA" unicode="&#x1eea;" horiz-adv-x="1073" 
d="M109 1386h247v-954q0 -248 183 -248q53 0 89.5 19t55 55t26 77t7.5 95v956h125q61 11 61 93q0 55 -16 114h215q12 -55 12 -120q0 -177 -149 -228v-819q0 -451 -430 -451q-120 0 -205 33t-132.5 96t-68 141t-20.5 181v960zM160 1743h301l223 -246h-238z" />
    <glyph glyph-name="uni1EEB" unicode="&#x1eeb;" horiz-adv-x="954" 
d="M606 117q-34 -72 -92 -103.5t-145 -31.5q-265 0 -265 317v762h244v-707q0 -84 24.5 -124t88.5 -40q72 0 106.5 49.5t34.5 170.5v651h119q61 11 61 92q0 56 -16 115h215q12 -56 12 -121q0 -174 -147 -227v-609q0 -256 2 -311h-234q-8 44 -8 117zM137 1468h289l192 -278
h-212z" />
    <glyph glyph-name="uni1EEC" unicode="&#x1eec;" horiz-adv-x="1073" 
d="M109 1386h247v-954q0 -248 183 -248q53 0 89.5 19t55 55t26 77t7.5 95v956h125q61 11 61 93q0 55 -16 114h215q12 -55 12 -120q0 -177 -149 -228v-819q0 -451 -430 -451q-120 0 -205 33t-132.5 96t-68 141t-20.5 181v960zM625 1475h-195q52 54 70 81.5t18 59.5
q0 23 -16 38t-47 15q-40 0 -93 -29l-51 136q87 59 211 59q99 0 153 -47t54 -121q0 -101 -104 -192z" />
    <glyph glyph-name="uni1EED" unicode="&#x1eed;" horiz-adv-x="954" 
d="M606 117q-34 -72 -92 -103.5t-145 -31.5q-265 0 -265 317v762h244v-707q0 -84 24.5 -124t88.5 -40q72 0 106.5 49.5t34.5 170.5v651h119q61 11 61 92q0 56 -16 115h215q12 -56 12 -121q0 -174 -147 -227v-609q0 -256 2 -311h-234q-8 44 -8 117zM565 1178h-194
q52 54 70 81.5t18 59.5q0 23 -16.5 38t-47.5 15q-39 0 -92 -29l-51 136q87 59 211 59q99 0 153 -47t54 -121q0 -100 -105 -192z" />
    <glyph glyph-name="uni1EEE" unicode="&#x1eee;" horiz-adv-x="1073" 
d="M109 1386h247v-954q0 -248 183 -248q53 0 89.5 19t55 55t26 77t7.5 95v956h125q61 11 61 93q0 55 -16 114h215q12 -55 12 -120q0 -177 -149 -228v-819q0 -451 -430 -451q-120 0 -205 33t-132.5 96t-68 141t-20.5 181v960zM377 1520h-158v55q0 106 47 152.5t123 46.5
q59 0 150.5 -36t113.5 -36q45 0 45 55v19h156v-39q0 -121 -45 -170t-129 -49q-58 0 -146.5 34.5t-111.5 34.5q-20 0 -32.5 -11t-12.5 -32v-24z" />
    <glyph glyph-name="uni1EEF" unicode="&#x1eef;" horiz-adv-x="954" 
d="M606 117q-34 -72 -92 -103.5t-145 -31.5q-265 0 -265 317v762h244v-707q0 -84 24.5 -124t88.5 -40q72 0 106.5 49.5t34.5 170.5v651h119q61 11 61 92q0 56 -16 115h215q12 -56 12 -121q0 -174 -147 -227v-609q0 -256 2 -311h-234q-8 44 -8 117zM344 1194h-164v59
q0 191 162 191q46 0 92 -19t82 -38t57 -19q37 0 37 64v14h160v-49q0 -116 -42.5 -160.5t-121.5 -44.5q-44 0 -88.5 18.5t-79.5 37t-57 18.5q-37 0 -37 -49v-23z" />
    <glyph glyph-name="uni1EF0" unicode="&#x1ef0;" horiz-adv-x="1073" 
d="M109 1386h247v-954q0 -248 183 -248q53 0 89.5 19t55 55t26 77t7.5 95v956h125q61 11 61 93q0 55 -16 114h215q12 -55 12 -120q0 -177 -149 -228v-819q0 -451 -430 -451q-120 0 -205 33t-132.5 96t-68 141t-20.5 181v960zM662 -371h-254v252h254v-252z" />
    <glyph glyph-name="uni1EF1" unicode="&#x1ef1;" horiz-adv-x="954" 
d="M606 117q-34 -72 -92 -103.5t-145 -31.5q-265 0 -265 317v762h244v-707q0 -84 24.5 -124t88.5 -40q72 0 106.5 49.5t34.5 170.5v651h119q61 11 61 92q0 56 -16 115h215q12 -56 12 -121q0 -174 -147 -227v-609q0 -256 2 -311h-234q-8 44 -8 117zM602 -371h-254v252h254
v-252z" />
    <glyph glyph-name="Ygrave" unicode="&#x1ef2;" horiz-adv-x="927" 
d="M588 0h-250v489q0 25 -8 46l-350 851h276q174 -484 215 -636q23 76 59 183t84.5 246t71.5 207h262l-352 -854q-8 -20 -8 -47v-485zM86 1724h301l223 -245h-237z" />
    <glyph glyph-name="ygrave" unicode="&#x1ef3;" horiz-adv-x="862" 
d="M8 1061h268q20 -89 55.5 -239t53 -227t34.5 -162t21 -130h2q37 223 166 758h246l-305 -1108q-22 -81 -46.5 -141t-53.5 -97.5t-56 -61t-63.5 -34t-65 -13.5t-71.5 -3q-56 0 -97 8v207q28 -4 78 -4q67 0 99.5 37.5t54.5 134.5zM92 1468h289l192 -278h-213z" />
    <glyph glyph-name="uni1EF4" unicode="&#x1ef4;" horiz-adv-x="927" 
d="M588 0h-250v489q0 25 -8 46l-350 851h276q174 -484 215 -636q23 76 59 183t84.5 246t71.5 207h262l-352 -854q-8 -20 -8 -47v-485zM588 -371h-254v252h254v-252z" />
    <glyph glyph-name="uni1EF5" unicode="&#x1ef5;" horiz-adv-x="862" 
d="M8 1061h268q20 -89 55.5 -239t53 -227t34.5 -162t21 -130h2q37 223 166 758h246l-305 -1108q-22 -81 -46.5 -141t-53.5 -97.5t-56 -61t-63.5 -34t-65 -13.5t-71.5 -3q-56 0 -97 8v207q28 -4 78 -4q67 0 99.5 37.5t54.5 134.5zM848 -371h-254v252h254v-252z" />
    <glyph glyph-name="uni1EF6" unicode="&#x1ef6;" horiz-adv-x="927" 
d="M588 0h-250v489q0 25 -8 46l-350 851h276q174 -484 215 -636q23 76 59 183t84.5 246t71.5 207h262l-352 -854q-8 -20 -8 -47v-485zM549 1456h-195q52 54 70 81.5t18 59.5q0 23 -16 38.5t-47 15.5q-39 0 -92 -29l-51 135q89 60 210 60q99 0 153 -47t54 -121
q0 -102 -104 -193z" />
    <glyph glyph-name="uni1EF7" unicode="&#x1ef7;" horiz-adv-x="862" 
d="M8 1061h268q20 -89 55.5 -239t53 -227t34.5 -162t21 -130h2q37 223 166 758h246l-305 -1108q-22 -81 -46.5 -141t-53.5 -97.5t-56 -61t-63.5 -34t-65 -13.5t-71.5 -3q-56 0 -97 8v207q28 -4 78 -4q67 0 99.5 37.5t54.5 134.5zM520 1178h-194q52 54 70 81.5t18 59.5
q0 23 -16.5 38t-47.5 15q-39 0 -92 -29l-51 136q87 59 211 59q99 0 153 -47t54 -121q0 -100 -105 -192z" />
    <glyph glyph-name="uni1EF8" unicode="&#x1ef8;" horiz-adv-x="927" 
d="M588 0h-250v489q0 25 -8 46l-350 851h276q174 -484 215 -636q23 76 59 183t84.5 246t71.5 207h262l-352 -854q-8 -20 -8 -47v-485zM303 1501h-158v55q0 106 47 152.5t123 46.5q59 0 151 -36t114 -36q45 0 45 56v18h155v-39q0 -121 -45 -170t-129 -49q-58 0 -146.5 35
t-111.5 35q-20 0 -32.5 -11t-12.5 -32v-25z" />
    <glyph glyph-name="uni1EF9" unicode="&#x1ef9;" horiz-adv-x="862" 
d="M8 1061h268q20 -89 55.5 -239t53 -227t34.5 -162t21 -130h2q37 223 166 758h246l-305 -1108q-22 -81 -46.5 -141t-53.5 -97.5t-56 -61t-63.5 -34t-65 -13.5t-71.5 -3q-56 0 -97 8v207q28 -4 78 -4q67 0 99.5 37.5t54.5 134.5zM299 1194h-164v59q0 191 162 191
q46 0 92 -19t82 -38t57 -19q37 0 37 64v14h160v-49q0 -116 -42.5 -160.5t-121.5 -44.5q-44 0 -88.5 18.5t-79.5 37t-57 18.5q-37 0 -37 -49v-23z" />
    <glyph glyph-name="uni2007" unicode="&#x2007;" horiz-adv-x="942" 
 />
    <glyph glyph-name="uni2010" unicode="&#x2010;" horiz-adv-x="575" 
d="M63 641h449v-211h-449v211z" />
    <glyph glyph-name="figuredash" unicode="&#x2012;" horiz-adv-x="942" 
d="M141 758h658v-211h-658v211z" />
    <glyph glyph-name="endash" unicode="&#x2013;" horiz-adv-x="751" 
d="M63 639h625v-207h-625v207z" />
    <glyph glyph-name="emdash" unicode="&#x2014;" horiz-adv-x="1327" 
d="M63 639h1201v-207h-1201v207z" />
    <glyph glyph-name="uni2015" unicode="&#x2015;" horiz-adv-x="1327" 
d="M63 639h1201v-207h-1201v207z" />
    <glyph glyph-name="quoteleft" unicode="&#x2018;" horiz-adv-x="391" 
d="M166 1458h190q-73 -268 -73 -508h-232q3 129 38.5 278t76.5 230z" />
    <glyph glyph-name="quoteright" unicode="&#x2019;" horiz-adv-x="391" 
d="M225 950h-188q72 276 72 508h233q-4 -131 -39.5 -280t-77.5 -228z" />
    <glyph glyph-name="quotesinglbase" unicode="&#x201a;" horiz-adv-x="391" 
d="M225 -182h-188q72 276 72 510h233q-4 -132 -39.5 -282t-77.5 -228z" />
    <glyph glyph-name="quotedblleft" unicode="&#x201c;" horiz-adv-x="675" 
d="M465 1458h174q-34 -116 -54 -260t-20 -248h-213q4 135 36 274t77 234zM164 1458h174q-32 -97 -52 -249t-22 -259h-213q4 138 37 276.5t76 231.5z" />
    <glyph glyph-name="quotedblright" unicode="&#x201d;" horiz-adv-x="675" 
d="M211 950h-174q33 115 52.5 259t19.5 249h215q-4 -133 -36.5 -272t-76.5 -236zM512 950h-174q32 97 52 249t22 259h213q-6 -139 -38.5 -278t-74.5 -230z" />
    <glyph glyph-name="quotedblbase" unicode="&#x201e;" horiz-adv-x="675" 
d="M211 -180h-174q34 115 53 259t19 251h215q-4 -134 -36.5 -273.5t-76.5 -236.5zM512 -180h-174q32 97 52 249.5t22 260.5h213q-6 -140 -38.5 -279.5t-74.5 -230.5z" />
    <glyph glyph-name="dagger" unicode="&#x2020;" horiz-adv-x="827" 
d="M291 1292h213l-10 -393l266 14v-206l-266 12l10 -897h-213l12 897l-266 -12v206l266 -14z" />
    <glyph glyph-name="daggerdbl" unicode="&#x2021;" horiz-adv-x="827" 
d="M303 373v385l-266 -13v207l266 -14l-12 350h215l-10 -350l264 14v-207l-264 13v-385l264 14v-207l-264 13l10 -394h-215l12 394l-266 -13v207z" />
    <glyph glyph-name="bullet" unicode="&#x2022;" horiz-adv-x="555" 
d="M100 715h357v-369h-357v369z" />
    <glyph glyph-name="ellipsis" unicode="&#x2026;" horiz-adv-x="1366" 
d="M332 0h-250v313h250v-313zM784 0h-249v313h249v-313zM1229 0h-250v313h250v-313z" />
    <glyph glyph-name="perthousand" unicode="&#x2030;" horiz-adv-x="2113" 
d="M1765 758q133 0 208 -94.5t75 -288.5q0 -190 -73.5 -291.5t-211.5 -103.5q-282 0 -282 389q0 189 76 289t208 100zM1765 600q-52 0 -77 -53.5t-25 -175.5q0 -121 24 -177.5t78 -56.5q103 0 103 236q0 122 -24 174.5t-79 52.5zM348 1364q133 0 208 -94.5t75 -290.5
q0 -190 -73.5 -290.5t-211.5 -102.5q-283 0 -283 389q0 189 76.5 289t208.5 100zM348 1206q-52 0 -77 -53.5t-25 -175.5t24 -178t78 -56q103 0 103 236q0 122 -24 174.5t-79 52.5zM446 0h-153l721 1348h157zM1122 758q134 0 208.5 -94t74.5 -289q0 -191 -73 -292.5
t-212 -102.5q-280 0 -280 389q0 190 75 289.5t207 99.5zM1122 600q-52 0 -77 -53.5t-25 -175.5q0 -121 24 -177.5t78 -56.5q105 0 105 236q0 122 -24 174.5t-81 52.5z" />
    <glyph glyph-name="uni2032" unicode="&#x2032;" horiz-adv-x="503" 
d="M285 918h-183l76 536h223z" />
    <glyph glyph-name="uni2033" unicode="&#x2033;" horiz-adv-x="796" 
d="M270 920h-168l76 534h209zM578 920h-170l77 534h209z" />
    <glyph glyph-name="guilsinglleft" unicode="&#x2039;" horiz-adv-x="583" 
d="M520 893l-248 -358l248 -359h-205l-252 359l252 358h205z" />
    <glyph glyph-name="guilsinglright" unicode="&#x203a;" horiz-adv-x="583" 
d="M63 176l248 359l-248 360h205l252 -360l-252 -359h-205z" />
    <glyph glyph-name="fraction" unicode="&#x2044;" horiz-adv-x="266" 
d="M-156 0h-155l727 1348h155z" />
    <glyph glyph-name="zero.sups" unicode="&#x2070;" horiz-adv-x="667" 
d="M338 1620q145 0 210.5 -95.5t65.5 -285.5q0 -195 -67.5 -293t-214.5 -98t-213 98.5t-66 292.5q0 381 285 381zM336 1473q-32 0 -51.5 -18t-32 -71t-12.5 -145q0 -97 13 -152t32 -71.5t51 -16.5q48 0 70 54t22 186t-21.5 183t-70.5 51z" />
    <glyph glyph-name="four.sups" unicode="&#x2074;" horiz-adv-x="636" 
d="M516 858h-172v182h-303v134l252 438h223v-432h92l-14 -140h-78v-182zM209 1180h135v90q0 114 6 188q-11 -25 -141 -278z" />
    <glyph glyph-name="five.sups" unicode="&#x2075;" horiz-adv-x="653" 
d="M569 1614l-20 -148h-285q-1 -6 -6.5 -62.5t-7.5 -76.5q46 33 125 33q106 0 166.5 -64t60.5 -178q0 -117 -71.5 -192.5t-211.5 -75.5q-127 0 -195 64t-73 167h176q7 -40 27 -63t65 -23q95 0 95 113q0 60 -22 87.5t-73 27.5q-68 0 -96 -64l-162 21q38 225 56 434h452z" />
    <glyph glyph-name="six.sups" unicode="&#x2076;" horiz-adv-x="659" 
d="M596 1413h-172q-13 70 -84 70q-98 0 -104 -185q50 60 157 60q104 0 163.5 -64.5t59.5 -175.5q0 -119 -73 -194.5t-205 -75.5q-285 0 -285 371q0 66 8 123t28.5 109.5t52.5 89.5t82 59t114 22q128 0 189.5 -59.5t68.5 -149.5zM340 993q44 0 68 30t24 87q0 115 -96 115
q-44 0 -69 -28.5t-25 -78.5q0 -52 23 -88.5t75 -36.5z" />
    <glyph glyph-name="seven.sups" unicode="&#x2077;" horiz-adv-x="587" 
d="M29 1614h518v-137q-74 -111 -140.5 -274t-97.5 -345h-200q26 173 104 349t139 253h-323v154z" />
    <glyph glyph-name="eight.sups" unicode="&#x2078;" horiz-adv-x="645" 
d="M317 848q-130 0 -202 61t-72 168q0 64 33 108.5t82 67.5q-86 55 -86 160q0 93 64.5 151t191.5 58q120 0 182.5 -59t62.5 -152q0 -106 -88 -151q48 -24 81.5 -69.5t33.5 -111.5q0 -107 -75.5 -169t-207.5 -62zM326 983q45 0 69.5 27.5t24.5 72.5q0 103 -98 103
q-44 0 -69.5 -28t-25.5 -75q0 -43 25.5 -71.5t73.5 -28.5zM324 1489q-40 0 -60 -23.5t-20 -60.5t19 -61.5t61 -24.5q38 0 57.5 23.5t19.5 60.5q0 86 -77 86z" />
    <glyph glyph-name="nine.sups" unicode="&#x2079;" horiz-adv-x="657" 
d="M55 1059h185q11 -36 27.5 -54t54.5 -18q93 0 98 201q-44 -53 -139 -53q-101 0 -169.5 56.5t-68.5 172.5q0 109 75 183.5t199 74.5q142 0 215.5 -88t73.5 -264q0 -203 -68.5 -311.5t-224.5 -108.5q-123 0 -187.5 57.5t-70.5 151.5zM322 1483q-45 0 -71 -31.5t-26 -79.5
q0 -44 26 -73t73 -29q43 0 69.5 27t26.5 77q0 47 -22.5 78t-75.5 31z" />
    <glyph glyph-name="parenleft.sups" unicode="&#x207d;" horiz-adv-x="417" 
d="M215 1741h160q-139 -240 -139 -516q0 -286 139 -512h-160q-57 79 -101 210.5t-44 301.5q0 290 145 516z" />
    <glyph glyph-name="parenright.sups" unicode="&#x207e;" horiz-adv-x="417" 
d="M201 713h-162q139 234 139 516q0 278 -139 512h162q56 -80 99.5 -211t43.5 -301q0 -298 -143 -516z" />
    <glyph glyph-name="n.sups" unicode="&#x207f;" horiz-adv-x="661" 
d="M70 592v446q0 172 -2 217h161q4 -14 11 -79q24 41 61 66.5t105 25.5q37 0 67.5 -10.5t58.5 -34.5t44 -70t16 -111v-450h-174v418q0 52 -17 78t-63 26q-94 0 -94 -133v-389h-174z" />
    <glyph glyph-name="zero.subs" unicode="&#x2080;" horiz-adv-x="667" 
d="M338 496q145 0 210.5 -95.5t65.5 -285.5q0 -195 -67.5 -293t-214.5 -98t-213 98.5t-66 292.5q0 381 285 381zM336 348q-32 0 -51.5 -18t-32 -70.5t-12.5 -144.5q0 -97 13 -152t32 -71.5t51 -16.5q48 0 70 54t22 186t-21.5 182.5t-70.5 50.5z" />
    <glyph glyph-name="one.subs" unicode="&#x2081;" horiz-adv-x="423" 
d="M332 -266h-185v561q-53 -8 -102 -4v135q101 13 156 72h131v-764z" />
    <glyph glyph-name="two.subs" unicode="&#x2082;" horiz-adv-x="616" 
d="M557 -266h-508v16q0 110 48 194.5t163 176.5q113 93 113 147q0 84 -72 84q-41 0 -60 -27t-24 -81h-166q2 53 17 97t44.5 80t80.5 56.5t118 20.5q126 0 188 -65t62 -165q0 -18 -2 -34t-9 -32.5t-10.5 -27t-17 -26.5t-17.5 -22t-23.5 -23.5t-23 -21t-28 -23.5t-27.5 -23
q-68 -58 -97.5 -89t-39.5 -59h318z" />
    <glyph glyph-name="three.subs" unicode="&#x2083;" horiz-adv-x="628" 
d="M242 59v144h43q90 0 90 76q0 75 -74 75q-57 0 -76 -78q-1 -4 -2 -6h-166q1 26 7 52.5t23.5 59.5t44 57.5t73.5 41.5t108 17q124 0 184 -57.5t60 -147.5q0 -63 -31.5 -101t-68.5 -53q15 -4 29.5 -11t33.5 -21.5t33 -33t23.5 -49t9.5 -67.5q0 -103 -68 -167t-209 -64
q-71 0 -124.5 20t-83.5 55t-45 74.5t-17 85.5h178q13 -94 94 -94q86 0 86 96q0 52 -26.5 74t-85.5 22h-43z" />
    <glyph glyph-name="four.subs" unicode="&#x2084;" horiz-adv-x="636" 
d="M516 -266h-172v182h-303v133l252 438h223v-432h92l-14 -139h-78v-182zM209 55h135v90q0 115 6 189q-14 -32 -141 -279z" />
    <glyph glyph-name="five.subs" unicode="&#x2085;" horiz-adv-x="653" 
d="M569 489l-20 -147h-285q-1 -6 -6.5 -62.5t-7.5 -76.5q46 33 125 33q106 0 166.5 -64t60.5 -178q0 -117 -71.5 -192.5t-211.5 -75.5q-127 0 -195 64t-73 167h176q7 -40 27 -63t65 -23q95 0 95 113q0 60 -22 87t-73 27q-68 0 -96 -63l-162 20q38 225 56 434h452z" />
    <glyph glyph-name="six.subs" unicode="&#x2086;" horiz-adv-x="659" 
d="M596 289h-172q-13 69 -84 69q-98 0 -104 -184q49 59 157 59q104 0 163.5 -64t59.5 -175q0 -119 -73 -194.5t-205 -75.5q-285 0 -285 370q0 66 8 123t28.5 110t52.5 90t82 59t114 22q128 0 189.5 -59.5t68.5 -149.5zM340 -131q44 0 68 30t24 87q0 114 -96 114
q-44 0 -69 -28t-25 -78q0 -52 23 -88.5t75 -36.5z" />
    <glyph glyph-name="seven.subs" unicode="&#x2087;" horiz-adv-x="587" 
d="M29 489h518v-137q-75 -111 -141 -273.5t-97 -344.5h-200q26 173 104 349t139 253h-323v153z" />
    <glyph glyph-name="eight.subs" unicode="&#x2088;" horiz-adv-x="645" 
d="M317 -276q-130 0 -202 61t-72 168q0 64 33 108.5t82 67.5q-86 55 -86 160q0 93 64.5 151t191.5 58q120 0 182.5 -59t62.5 -152q0 -107 -88 -152q48 -24 81.5 -69t33.5 -111q0 -107 -75.5 -169t-207.5 -62zM326 -141q45 0 69.5 27.5t24.5 72.5q0 102 -98 102
q-44 0 -69.5 -27.5t-25.5 -74.5q0 -43 25.5 -71.5t73.5 -28.5zM324 365q-40 0 -60 -23.5t-20 -60.5t19 -61.5t61 -24.5q38 0 57.5 23.5t19.5 60.5q0 86 -77 86z" />
    <glyph glyph-name="nine.subs" unicode="&#x2089;" horiz-adv-x="657" 
d="M55 -66h185q11 -36 27.5 -53.5t54.5 -17.5q93 0 98 200q-44 -53 -139 -53q-101 0 -169.5 57t-68.5 173q0 109 75 183.5t199 74.5q142 0 215.5 -88.5t73.5 -264.5q0 -203 -68.5 -311t-224.5 -108q-123 0 -187.5 57.5t-70.5 150.5zM322 358q-45 0 -71 -31t-26 -79
q0 -44 26 -73.5t73 -29.5q43 0 69.5 27.5t26.5 77.5q0 108 -98 108z" />
    <glyph glyph-name="parenleft.subs" unicode="&#x208d;" horiz-adv-x="417" 
d="M215 616h160q-139 -240 -139 -516q0 -286 139 -512h-160q-57 79 -101 210.5t-44 301.5q0 290 145 516z" />
    <glyph glyph-name="parenright.subs" unicode="&#x208e;" horiz-adv-x="417" 
d="M201 -412h-162q139 234 139 516q0 278 -139 512h162q56 -80 99.5 -211t43.5 -301q0 -298 -143 -516z" />
    <glyph glyph-name="colonmonetary" unicode="&#x20a1;" horiz-adv-x="917" 
d="M336 692q0 -260 31.5 -376.5t117.5 -116.5q72 0 105 47.5t39 138.5h235q-13 -276 -200 -354v-176h-138v147q-14 -2 -43 -2h-26v-145h-140v176q-130 58 -179.5 219t-49.5 440q0 250 54.5 404.5t174.5 214.5v164h140v-130q18 3 37 3h32v127h138v-154q71 -27 115 -82.5
t61.5 -121.5t19.5 -154h-235q-8 186 -133 186q-87 0 -121.5 -102.5t-34.5 -352.5z" />
    <glyph glyph-name="franc" unicode="&#x20a3;" horiz-adv-x="884" 
d="M154 0v252h-138v160h138v936h684v-215h-439v-314h408v-211h-408v-196h197v-160h-197v-252h-245z" />
    <glyph glyph-name="lira" unicode="&#x20a4;" horiz-adv-x="937" 
d="M840 0h-774v193q64 32 94 99t35 181h-142v131h140q-3 54 -9 103h-131v133h121q-4 74 -4 121q0 195 89 299t261 104q170 0 251 -95t81 -257h-223q-1 78 -27.5 112.5t-83.5 34.5q-62 0 -86 -46.5t-24 -151.5q0 -59 6 -121h266v-133h-254q4 -66 4 -103h250v-131h-254
q-13 -174 -82 -264h526z" />
    <glyph glyph-name="uni20A6" unicode="&#x20a6;" horiz-adv-x="921" 
d="M274 1094q10 -150 11 -203h47l-43 203h-15zM612 303h15q-13 149 -15 223h-45zM291 0h-189v526h-86v131h86v101h-86v133h86v457h295l95 -457h112v33v424h189v-457h86v-133h-86v-101h86v-131h-86v-526h-271l-112 526h-119v-82v-444zM608 657q-2 33 -2 101h-88l21 -101h69z
M381 657l-21 101h-71v-101h92z" />
    <glyph glyph-name="peseta" unicode="&#x20a7;" horiz-adv-x="940" 
d="M104 0v846h-96v155h96v347h355q171 0 269.5 -90t115.5 -257h80v-155h-80q-20 -171 -123 -262.5t-277 -91.5h-96v-492h-244zM344 1163v-162h258q-11 83 -51.5 122.5t-116.5 39.5h-90zM344 680h78q80 0 123.5 38.5t56.5 127.5h-258v-166z" />
    <glyph glyph-name="dong" unicode="&#x20ab;" horiz-adv-x="911" 
d="M94 -125h711v-160h-711v160zM567 1370h236v-121h106v-157h-106v-803q0 -112 6 -289h-213q-7 43 -10 117q-65 -133 -236 -133q-301 0 -301 514q0 227 87.5 356t238.5 129q141 0 192 -82v191h-329v157h329v121zM293 498q0 -169 32.5 -240.5t104.5 -71.5q50 0 79.5 25
t46.5 92.5t17 185.5q0 158 -29.5 222.5t-103.5 64.5q-77 0 -112 -67t-35 -211z" />
    <glyph glyph-name="Euro" unicode="&#x20ac;" horiz-adv-x="944" 
d="M674 354h229q-16 -169 -107.5 -270.5t-267.5 -101.5q-183 0 -273.5 129.5t-109.5 392.5h-104v131h98v49v51h-98v133h106q26 255 125.5 374.5t270.5 119.5q95 0 165 -30.5t108.5 -83t57 -110t21.5 -124.5h-229q-1 25 -6.5 47.5t-18 45t-37.5 35.5t-61 13q-69 0 -106 -61.5
t-48 -225.5h309v-133h-315v-45v-55h315v-131h-311q10 -169 45.5 -241.5t106.5 -72.5q64 0 94.5 42.5t40.5 121.5z" />
    <glyph glyph-name="uni20B1" unicode="&#x20b1;" horiz-adv-x="991" 
d="M147 0v725h-104v123h104v84h-104v123h104v293h324q156 0 254.5 -76t132.5 -217h96v-123h-80v-35q0 -33 -2 -49h82v-123h-100q-36 -142 -133 -217.5t-250 -75.5h-86v-432h-238zM383 1165v-110h242q-19 58 -58 84t-104 26h-80zM643 897v35h-260v-84h258q2 16 2 49zM383 614
h74q127 0 164 111h-238v-111z" />
    <glyph glyph-name="uni20B2" unicode="&#x20b2;" horiz-adv-x="944" 
d="M852 991h-229q-9 160 -142 160q-95 0 -134.5 -104t-39.5 -338q0 -278 44 -391t157 -113q59 0 102 16v486h238v-639q-150 -57 -281 -66v-156h-176v162q-179 34 -253.5 197.5t-76.5 484.5q0 586 330 647v119h176v-117q146 -22 212 -112.5t73 -235.5z" />
    <glyph glyph-name="uni20B4" unicode="&#x20b4;" horiz-adv-x="915" 
d="M324 1014h-215q5 153 93 251.5t259 98.5q165 0 250.5 -87t85.5 -237q0 -111 -39 -188h88v-129h-184q-40 -40 -103 -90h260v-131h-411q-44 -49 -60 -91t-16 -94q0 -61 34 -104t95 -43q135 0 145 180h219q-9 -187 -102 -277.5t-272 -90.5q-161 0 -259 84t-98 253
q0 107 43 183h-82v131h187q22 21 104 90h-264v129h410q41 47 56 89.5t15 96.5q0 59 -26.5 99.5t-85.5 40.5q-66 0 -94 -42.5t-33 -121.5z" />
    <glyph glyph-name="uni20B5" unicode="&#x20b5;" horiz-adv-x="907" 
d="M336 692q0 -260 31.5 -376.5t117.5 -116.5q72 0 105 47.5t39 138.5h235q-8 -160 -74.5 -256.5t-209.5 -120.5v-162h-177v160q-76 12 -131 50t-90.5 95t-56.5 142t-29 179t-8 218q0 290 74.5 452t240.5 195v119h177v-117q78 -11 133 -44.5t85.5 -86t45 -112t16.5 -135.5
h-235q-8 186 -133 186q-87 0 -121.5 -102.5t-34.5 -352.5z" />
    <glyph glyph-name="uni20B9" unicode="&#x20b9;" horiz-adv-x="901" 
d="M846 936h-146q-12 -274 -241 -363l340 -573h-275l-313 535h-137v198h166q102 0 156.5 48.5t60.5 154.5h-383v143h366q-46 107 -202 107h-164v162h772v-136h-234q50 -53 74 -133h160v-143z" />
    <glyph glyph-name="uni20BA" unicode="&#x20ba;" horiz-adv-x="909" 
d="M412 0h-252v537l-152 -68v162l152 67v95l-152 -68v164l152 67v392h246v-281l217 96v-164l-217 -96v-94l217 98v-164l-217 -96v-430q129 0 185 76t64 219h226q0 -63 -11 -126t-43 -135t-81.5 -125.5t-136 -89.5t-197.5 -36z" />
    <glyph glyph-name="uni20BD" unicode="&#x20bd;" horiz-adv-x="909" 
d="M111 0v315h-127v162h127v125h-127v180h127v566h331q216 0 325.5 -100t109.5 -267q0 -187 -112 -283t-327 -96h-88v-125h289v-162h-289v-315h-239zM350 1155v-373h74q106 0 158.5 50t52.5 139q0 92 -46 138t-157 46h-82z" />
    <glyph glyph-name="uni2113" unicode="&#x2113;" horiz-adv-x="827" 
d="M582 332h206q-3 -170 -88.5 -259t-242.5 -89q-73 0 -128.5 18.5t-90 49.5t-56.5 76.5t-30.5 94.5t-8.5 109v30q-40 -29 -118 -71v215q10 6 34 20.5t45.5 28.5t38.5 27v489q0 383 310 383q142 0 214 -92t74 -250q1 -192 -82.5 -334.5t-273.5 -288.5v-129q0 -41 3.5 -69
t12.5 -53t28.5 -37.5t49.5 -12.5q49 0 71.5 33t31.5 111zM385 1114v-360q135 154 135 370q0 133 -65 133q-34 0 -52 -32.5t-18 -110.5z" />
    <glyph glyph-name="uni2116" unicode="&#x2116;" horiz-adv-x="1691" 
d="M346 0h-225v1348h301q82 -293 152 -526t99.5 -327t33.5 -112h2q-13 180 -13 590v375h224v-1348h-287q-86 303 -158.5 547t-103 342t-35.5 121h-2q12 -172 12 -619v-391zM1219 891q0 -118 22 -173.5t80 -55.5q57 0 77.5 54t20.5 179q0 117 -23.5 164t-78.5 47
q-49 0 -73.5 -49.5t-24.5 -165.5zM1061 385h514v-170h-514v170zM1319 1274q143 0 222 -97t79 -286q0 -204 -81 -303t-222 -99q-299 0 -299 402q0 188 80 285.5t221 97.5z" />
    <glyph glyph-name="uni2117" unicode="&#x2117;" horiz-adv-x="1318" 
d="M440 342v696h260q105 0 172.5 -60t67.5 -161q0 -110 -64.5 -173.5t-183.5 -63.5h-98v-238h-154zM594 911v-209h84q106 0 106 109q0 100 -110 100h-80zM659 1354q123 0 229 -45t184 -129t122.5 -211.5t44.5 -284.5q0 -161 -44 -290t-122.5 -212t-183.5 -126.5t-230 -43.5
q-127 0 -233 44t-183.5 127.5t-121 212t-43.5 288.5q0 309 160.5 489.5t420.5 180.5zM659 1237q-216 0 -334 -141t-118 -414q0 -252 124 -402.5t328 -150.5q212 0 332.5 146t120.5 407q0 256 -126 405.5t-327 149.5z" />
    <glyph glyph-name="uni2120" unicode="&#x2120;" horiz-adv-x="937" 
d="M936 897h-123v145q0 78 8 250h-2q-17 -70 -44 -200t-42 -193h-115q-16 77 -40.5 210t-34.5 185h-4q8 -86 8 -284v-113h-117v489h197q10 -49 57 -294h2q13 79 68 294h182v-489zM31 1049h116q6 -66 64 -66q47 0 47 41q0 21 -16 34t-56 29q-88 30 -117.5 68.5t-29.5 93.5
q0 65 43.5 105.5t122.5 40.5q80 0 120 -41.5t42 -112.5h-113q-3 28 -14.5 42.5t-38.5 14.5q-43 0 -43 -36q0 -17 14.5 -30t50.5 -26q90 -33 122 -69t32 -99q0 -69 -43.5 -110t-128.5 -41q-76 0 -124.5 40.5t-49.5 121.5z" />
    <glyph glyph-name="trademark" unicode="&#x2122;" horiz-adv-x="909" 
d="M907 897h-123v145q0 55 2 105t5.5 93t3.5 52h-4q-12 -54 -40.5 -187.5t-45.5 -205.5h-115q-14 72 -39 202t-37 193h-4q10 -215 10 -288v-109h-119v489h197q32 -150 55 -290h2q8 48 70 290h182v-489zM-2 1386h360v-110h-116v-379h-127v379h-117v110z" />
    <glyph glyph-name="uni2126" unicode="&#x2126;" horiz-adv-x="1058" 
d="M537 1403q114 0 198 -42t134 -121t74 -184.5t24 -240.5q0 -254 -40.5 -393.5t-125.5 -204.5h192v-217h-422v229q83 48 113.5 179.5t30.5 408.5q0 55 -2.5 97t-9 87.5t-19.5 77.5t-32.5 58t-50 39.5t-69.5 13.5q-188 0 -188 -381q0 -272 30 -402.5t99 -177.5v-229h-410
v217h175q-150 141 -150 594q2 281 111.5 436.5t337.5 155.5z" />
    <glyph glyph-name="estimated" unicode="&#x212e;" horiz-adv-x="1472" 
d="M1401 637h-1034q-7 0 -7 -8v-267q0 -17 15 -43q55 -104 151.5 -155t216.5 -51q125 0 208 44.5t139 139.5h208q-88 -157 -234.5 -237t-324.5 -80q-138 0 -259.5 52t-209.5 143t-139 222t-51 283q0 142 52.5 271.5t141 223t210.5 148.5t255 55q138 0 258.5 -48.5t210 -137
t141.5 -222.5t52 -296v-37zM1122 793v223q0 15 -16 47q-103 188 -363 188q-250 0 -368 -192q-15 -23 -15 -47v-219q0 -4 2.5 -7.5t4.5 -3.5h747q8 0 8 11z" />
    <glyph glyph-name="onethird" unicode="&#x2153;" horiz-adv-x="1355" 
d="M299 0h-156l727 1348h156zM340 592h-184v561q-54 -8 -103 -4v135q101 13 156 72h131v-764zM936 324v143h43q90 0 90 76q0 75 -74 75q-9 0 -17 -1.5t-14 -4t-11.5 -7t-9 -7.5t-7 -10t-5.5 -10.5t-4.5 -11.5t-3.5 -10.5t-3 -11t-2 -9.5h-166q1 26 7 52.5t23.5 59t44 57
t73.5 41.5t108 17q124 0 183.5 -57t59.5 -148q0 -63 -31.5 -101t-68.5 -53q15 -4 29.5 -11t33.5 -21.5t33 -33t23.5 -49t9.5 -67.5q0 -103 -67.5 -167t-208.5 -64q-71 0 -124.5 20t-84 55t-45.5 74.5t-17 85.5h178q13 -94 95 -94q86 0 86 96q0 52 -27 74.5t-86 22.5h-43z
" />
    <glyph glyph-name="twothirds" unicode="&#x2154;" horiz-adv-x="1536" 
d="M487 0h-155l727 1348h155zM565 592h-508v16q0 110 48 194.5t163 176.5q113 93 113 147q0 84 -72 84q-41 0 -60 -27t-24 -81h-166q2 53 17 97t44.5 80t80.5 56.5t118 20.5q126 0 188 -65t62 -165q0 -16 -2.5 -32t-5 -28t-10.5 -26.5t-12 -22.5t-17 -22.5t-17 -20
t-21.5 -21t-21.5 -19t-25 -21t-25 -20.5q-69 -59 -98.5 -90t-39.5 -58h318zM1120 326v143h43q90 0 90 76t-73 76q-54 0 -72 -60q-1 -3 -6 -24h-166q1 26 7 52.5t23.5 59t44 57t73.5 41.5t108 17q124 0 184 -57.5t60 -147.5q0 -63 -32 -100.5t-69 -52.5q19 -6 38 -16.5
t41.5 -30.5t36 -55.5t13.5 -80.5q0 -103 -67.5 -167t-208.5 -64q-71 0 -124.5 20t-83.5 55t-45 74.5t-17 85.5h178q13 -94 94 -94q86 0 86 96q0 52 -27 74.5t-86 22.5h-43z" />
    <glyph glyph-name="oneeighth" unicode="&#x215b;" horiz-adv-x="1357" 
d="M299 0h-156l727 1348h156zM344 592h-184v561q-54 -8 -103 -4v135q101 13 156 72h131v-764zM1006 -10q-130 0 -202.5 61.5t-72.5 167.5q0 64 33 108.5t82 67.5q-86 55 -86 160q0 93 64.5 151t191.5 58q121 0 183.5 -59t62.5 -152q0 -107 -88 -152q48 -24 81 -69t33 -111
q0 -107 -75 -169t-207 -62zM1014 125q45 0 69.5 27.5t24.5 72.5q0 103 -98 103q-44 0 -69.5 -28t-25.5 -75q0 -43 25.5 -71.5t73.5 -28.5zM1012 631q-40 0 -60 -23.5t-20 -60.5t19 -61.5t61 -24.5q38 0 58 23.5t20 60.5q0 86 -78 86z" />
    <glyph glyph-name="threeeighths" unicode="&#x215c;" horiz-adv-x="1509" 
d="M463 0h-156l727 1348h156zM1159 -10q-130 0 -202 61t-72 168q0 64 32.5 108.5t81.5 67.5q-86 55 -86 160q0 93 64.5 151t191.5 58q121 0 183.5 -59t62.5 -152q0 -107 -88 -152q48 -24 81.5 -69t33.5 -111q0 -107 -75.5 -169t-207.5 -62zM1167 125q45 0 70 27.5t25 72.5
q0 103 -99 103q-44 0 -69 -27.5t-25 -75.5q0 -43 25 -71.5t73 -28.5zM1165 631q-40 0 -60 -23.5t-20 -60.5t19 -61.5t61 -24.5q38 0 58 23.5t20 60.5q0 86 -78 86zM242 918v143h43q90 0 90 76q0 75 -74 75q-57 0 -76 -78q-1 -4 -2 -6h-166q1 26 7 52.5t23.5 59.5t44 57.5
t73.5 41.5t108 17q124 0 184 -57.5t60 -147.5q0 -63 -31.5 -101t-68.5 -53q15 -4 29.5 -11t33.5 -21.5t33 -33t23.5 -49t9.5 -67.5q0 -103 -68 -167t-209 -64q-71 0 -124.5 20t-83.5 55t-45 74.5t-17 85.5h178q13 -94 94 -94q86 0 86 96q0 52 -26.5 74.5t-85.5 22.5h-43z
" />
    <glyph glyph-name="fiveeighths" unicode="&#x215d;" horiz-adv-x="1544" 
d="M481 0h-155l727 1348h155zM578 1348l-21 -148h-285q-1 -6 -6.5 -62.5t-7.5 -76.5q46 33 125 33q106 0 166.5 -64t60.5 -178q0 -117 -71 -192.5t-211 -75.5q-127 0 -195.5 64t-73.5 167h177q7 -40 27 -63t65 -23q94 0 94 113q0 60 -21.5 87t-72.5 27q-69 0 -97 -63
l-161 20q36 212 55 435h453zM1182 -12q-130 0 -202.5 61.5t-72.5 167.5q0 64 33 108.5t82 67.5q-86 55 -86 160q0 93 64.5 151t191.5 58q121 0 183.5 -59t62.5 -152q0 -107 -88 -152q48 -24 81 -69t33 -111q0 -107 -75 -169t-207 -62zM1190 123q45 0 69.5 27.5t24.5 72.5
q0 103 -98 103q-44 0 -69 -27.5t-25 -75.5q0 -43 25 -71.5t73 -28.5zM1188 629q-40 0 -60 -23.5t-20 -60.5t19 -61.5t61 -24.5q38 0 58 23.5t20 60.5q0 86 -78 86z" />
    <glyph glyph-name="seveneighths" unicode="&#x215e;" horiz-adv-x="1427" 
d="M340 0h-156l727 1348h156zM1073 -12q-130 0 -202 61t-72 168q0 64 32.5 108.5t81.5 67.5q-86 55 -86 160q0 93 64.5 151t191.5 58q121 0 183.5 -59t62.5 -152q0 -107 -88 -152q48 -24 81.5 -69t33.5 -111q0 -107 -75.5 -169t-207.5 -62zM1081 123q45 0 70 27.5t25 72.5
q0 103 -99 103q-44 0 -69 -27.5t-25 -75.5q0 -43 25 -71.5t73 -28.5zM1079 629q-40 0 -60 -23.5t-20 -60.5t19 -61.5t61 -24.5q38 0 58 23.5t20 60.5q0 86 -78 86zM66 1348h518v-138q-75 -111 -141 -273.5t-97 -344.5h-201q26 173 104.5 348.5t139.5 253.5h-323v154z" />
    <glyph glyph-name="uni2190" unicode="&#x2190;" horiz-adv-x="1392" 
d="M1331 612h-966l495 -499l-117 -127l-682 712v2l682 715l117 -131l-495 -498h966v-174z" />
    <glyph glyph-name="arrowup" unicode="&#x2191;" horiz-adv-x="1388" 
d="M606 18v1096l-424 -481l-121 115l631 679h2l633 -679l-129 -113l-418 479v-1096h-174z" />
    <glyph glyph-name="uni2192" unicode="&#x2192;" horiz-adv-x="1392" 
d="M61 788h967l-496 500l117 127l682 -713v-2l-682 -714l-117 131l496 497h-967v174z" />
    <glyph glyph-name="arrowdown" unicode="&#x2193;" horiz-adv-x="1388" 
d="M782 1384v-1095l424 481l121 -115l-631 -680h-2l-633 680l129 113l418 -479v1095h174z" />
    <glyph glyph-name="partialdiff" unicode="&#x2202;" horiz-adv-x="952" 
d="M162 1196v199q32 8 127 8q296 0 433.5 -208t137.5 -624q-2 -302 -97 -444.5t-312 -142.5q-182 0 -278.5 119.5t-96.5 336.5q0 206 97.5 317t262.5 111q126 0 172 -59v18q-2 75 -21.5 139t-59 118t-109 85t-162.5 31q-66 0 -94 -4zM469 174q75 0 110 64.5t35 203.5
q0 123 -34 178.5t-113 55.5q-148 0 -148 -242q0 -260 150 -260z" />
    <glyph glyph-name="uni2206" unicode="&#x2206;" horiz-adv-x="1038" 
d="M993 0h-948l-2 162l309 1224h316l327 -1224zM289 217h438l-156 629q-47 188 -71 319h-2q-17 -122 -64 -323z" />
    <glyph glyph-name="product" unicode="&#x220f;" horiz-adv-x="1112" 
d="M121 1386h868v-1546h-250v1325h-366v-1325h-252v1546z" />
    <glyph glyph-name="summation" unicode="&#x2211;" horiz-adv-x="854" 
d="M805 -160h-791v166l340 606l-323 598v176h753v-221h-469l295 -532l-311 -574h539z" />
    <glyph glyph-name="minus" unicode="&#x2212;" horiz-adv-x="1116" 
d="M1008 422h-902v184h902v-184z" />
    <glyph glyph-name="uni2215" unicode="&#x2215;" horiz-adv-x="266" 
d="M-156 0h-155l727 1348h155z" />
    <glyph glyph-name="uni2219" unicode="&#x2219;" horiz-adv-x="395" 
d="M322 410h-250v313h250v-313z" />
    <glyph glyph-name="radical" unicode="&#x221a;" horiz-adv-x="1032" 
d="M1042 1696l-368 -2026h-174l-258 822l-162 -62l-51 172l360 137q143 -488 182 -725q16 301 281 1682h190z" />
    <glyph glyph-name="infinity" unicode="&#x221e;" horiz-adv-x="1480" 
d="M381 217q-139 0 -225 90.5t-86 229.5q0 134 88 227.5t235 93.5q58 0 109 -14.5t97 -45.5t76.5 -57.5t74.5 -70.5q47 46 79 72.5t78 57t95.5 44.5t105.5 14q141 0 227 -87.5t86 -233.5q0 -139 -89.5 -228t-235.5 -92q-105 -1 -184.5 48.5t-168.5 142.5
q-47 -47 -77.5 -73.5t-77 -58t-97 -45.5t-110.5 -14zM395 406q48 0 89 18t68 41t73 70q-39 39 -58 56.5t-49.5 41t-58.5 32.5t-60 9q-58 0 -99.5 -35t-41.5 -102q0 -60 41.5 -95.5t95.5 -35.5zM1096 406q75 0 107 39t32 92q0 60 -36.5 98.5t-102.5 38.5q-61 0 -113.5 -31
t-116.5 -100q47 -46 74 -69t71 -45.5t85 -22.5z" />
    <glyph glyph-name="integral" unicode="&#x222b;" horiz-adv-x="579" 
d="M590 1651l-19 -205q-46 8 -69 8q-70 0 -94.5 -49t-24.5 -178q0 -130 13.5 -542.5t13.5 -541.5q0 -48 -0.5 -73t-3 -72.5t-7 -75t-14 -68.5t-23 -65t-35 -52.5t-48.5 -44t-65 -26t-83 -10.5q-81 0 -139 25l26 215q41 -13 91 -13q27 0 44.5 9.5t28 25t15.5 49.5t6 69t0 97
q-1 126 -12.5 519t-12.5 528q-1 64 2.5 115.5t13 111t30 103.5t51.5 82t80 57.5t112 19.5q81 0 123 -18z" />
    <glyph glyph-name="approxequal" unicode="&#x2248;" horiz-adv-x="1114" 
d="M274 201h-165v45q0 235 219 235q71 0 154 -28t157.5 -56t126.5 -28q36 0 53 18t17 66v18h168v-45q0 -135 -55.5 -186.5t-155.5 -51.5q-81 0 -166.5 28t-158.5 55.5t-122 27.5q-72 0 -72 -86v-12zM276 567h-167v43q0 130 57.5 184t157.5 54q74 0 157 -29t157 -57.5
t126 -28.5q37 0 54.5 20t17.5 70v15h168v-41q0 -71 -17 -121t-49 -76.5t-69.5 -37.5t-86.5 -11q-59 0 -125 18t-113.5 39.5t-102.5 39.5t-95 18q-70 0 -70 -84v-15z" />
    <glyph glyph-name="notequal" unicode="&#x2260;" horiz-adv-x="1112" 
d="M856 979l-80 -172h230v-184h-316l-102 -220h418v-184h-504l-78 -168h-156l78 168h-240v184h324l102 220h-426v184h510l80 172h160z" />
    <glyph glyph-name="lessequal" unicode="&#x2264;" horiz-adv-x="1056" 
d="M113 616v181l831 358v-201l-614 -245l614 -250v-203zM944 0h-831v182h831v-182z" />
    <glyph glyph-name="greaterequal" unicode="&#x2265;" horiz-adv-x="1056" 
d="M944 799v-183l-831 -360v205l616 241l-616 252v201zM944 0h-831v182h831v-182z" />
    <glyph glyph-name="uni25A0" unicode="&#x25a0;" horiz-adv-x="710" 
d="M131 303v449h449v-449h-449z" />
    <glyph glyph-name="triagup" unicode="&#x25b2;" horiz-adv-x="1128" 
d="M1061 10h-993l485 1155h6z" />
    <glyph glyph-name="uni25B3" unicode="&#x25b3;" horiz-adv-x="1128" 
d="M1061 10h-993l485 1155h6zM313 178h480l-242 596z" />
    <glyph glyph-name="uni25B6" unicode="&#x25b6;" horiz-adv-x="1259" 
d="M113 84v995l1083 -487v-4z" />
    <glyph glyph-name="uni25B7" unicode="&#x25b7;" horiz-adv-x="1259" 
d="M113 84v995l1083 -487v-4zM825 590l-544 239v-479z" />
    <glyph glyph-name="triagdn" unicode="&#x25bc;" horiz-adv-x="1128" 
d="M68 1135h993l-488 -1155h-4z" />
    <glyph glyph-name="uni25BD" unicode="&#x25bd;" horiz-adv-x="1128" 
d="M68 1145h993l-488 -1157h-4zM813 975h-477l239 -594z" />
    <glyph glyph-name="uni25C0" unicode="&#x25c0;" horiz-adv-x="1259" 
d="M1145 1079v-995l-1084 487v7z" />
    <glyph glyph-name="uni25C1" unicode="&#x25c1;" horiz-adv-x="1259" 
d="M1145 1079v-995l-1084 487v7zM977 813l-547 -240l547 -239v479z" />
    <glyph glyph-name="uni25C6" unicode="&#x25c6;" horiz-adv-x="802" 
d="M84 528l313 324l320 -332l-311 -323z" />
    <glyph glyph-name="uni25C9" unicode="&#x25c9;" horiz-adv-x="944" 
d="M475 657q58 0 95.5 -40t37.5 -95q0 -61 -37 -103t-96 -42q-60 0 -96.5 41t-36.5 104q0 55 37 95t96 40zM852 522q-2 -167 -109.5 -282t-267.5 -115q-162 0 -272 114.5t-109 282.5q-2 162 109.5 277.5t273.5 115.5q158 0 266.5 -115.5t108.5 -277.5zM475 782
q-104 0 -171.5 -76.5t-65.5 -183.5q0 -113 67 -188.5t170 -75.5q104 0 171 76t67 188q0 106 -69 183t-169 77z" />
    <glyph glyph-name="lozenge" unicode="&#x25ca;" horiz-adv-x="1017" 
d="M752 670l-195 409q-47 105 -49 109h-4q-11 -35 -47 -109l-193 -405l195 -416q35 -81 43 -106h4q5 12 24.5 52.5t24.5 51.5zM938 674l-358 -725h-154l-348 721l356 723h152z" />
    <glyph glyph-name="uni2610" unicode="&#x2610;" horiz-adv-x="1613" 
d="M238 1335h1212v-1263l-72 -72h-1214v1266zM244 1235v-1149h1095v1149h-1095z" />
    <glyph glyph-name="uni2611" unicode="&#x2611;" horiz-adv-x="1613" 
d="M238 1335h1212v-1263l-72 -72h-1214v1266zM244 1235v-1149h1095v1149h-1095zM1055 1118h184q-277 -427 -545 -930h-65q-110 154 -248 443l156 102q81 -213 135 -311q160 340 383 696z" />
    <glyph glyph-name="uni2713" unicode="&#x2713;" horiz-adv-x="1253" 
d="M989 1389h246q-375 -575 -786 -1420h-89q-186 311 -317 645l207 121q105 -352 168 -463q279 663 571 1117z" />
    <glyph glyph-name="uni2752" unicode="&#x2752;" horiz-adv-x="913" 
d="M123 727l151 154h514v-551l-139 -150h-524zM238 688v-387h364v387h-364z" />
    <glyph glyph-name="fi" unicode="&#xfb01;" horiz-adv-x="983" 
d="M375 0h-244v860h-123v201h123v102q0 141 70 223t221 82q54 0 100 -12v-205q-40 9 -57 9q-51 0 -70.5 -27.5t-19.5 -85.5v-86h151v-201h-151v-860zM631 0v1061h243v-1061h-243zM877 1212h-244v242h244v-242z" />
    <glyph glyph-name="fl" unicode="&#xfb02;" horiz-adv-x="983" 
d="M375 0h-244v860h-123v201h123v102q0 141 70 223t221 82q54 0 100 -12v-205q-40 9 -57 9q-51 0 -70.5 -27.5t-19.5 -85.5v-86h151v-201h-151v-860zM874 0h-243v1454h243v-1454z" />
    <glyph glyph-name="uni00470303" horiz-adv-x="1038" 
d="M944 778v-778h-188q-11 81 -13 119q-43 -79 -111 -111.5t-163 -32.5q-211 0 -303 178.5t-92 530.5q0 723 469 723q77 0 140 -18.5t103 -46t70 -69t45.5 -76t25 -78.5t12 -66t3.5 -49h-244q-14 194 -163 194q-58 0 -99 -37t-63.5 -108t-32.5 -160.5t-10 -208.5
q0 -128 8.5 -215.5t30 -154.5t60.5 -98.5t97 -31.5q95 0 133.5 73t38.5 232v78h-186v211h432zM362 1501h-157v55q0 106 47 152.5t123 46.5q59 0 150.5 -36t113.5 -36q45 0 45 56v18h156v-39q0 -121 -45 -170t-129 -49q-58 0 -146.5 35t-111.5 35q-20 0 -33 -11t-13 -32v-25z
" />
    <glyph glyph-name="uni00670303" horiz-adv-x="958" 
d="M850 741v-655q0 -118 -19.5 -203.5t-64.5 -151t-126 -98t-198 -32.5q-87 0 -154 20t-106.5 50.5t-65 73t-35 81.5t-11.5 82h243q2 -19 6.5 -32t17.5 -33.5t42 -32t72 -11.5q94 0 125.5 67.5t31.5 219.5v47q-60 -125 -227 -125q-164 0 -243 133.5t-79 376.5q0 269 91 414
t253 145q93 0 141 -33t64 -77q3 47 10 94h234q-2 -66 -2 -320zM311 524q0 -160 38 -235.5t114 -75.5q45 0 75 21t46 67.5t22 106t6 149.5q0 66 -2 106.5t-10 84.5t-23 67.5t-42 39t-66 15.5q-158 0 -158 -346zM346 1194h-164v59q0 191 162 191q46 0 92 -19t82 -38t57 -19
q37 0 37 64v14h160v-49q0 -116 -42.5 -160.5t-121.5 -44.5q-44 0 -88.5 18.5t-79.5 37t-57 18.5q-37 0 -37 -49v-23z" />
    <glyph glyph-name="zero.slash" horiz-adv-x="942" 
d="M475 1364q98 0 168 -34t120.5 -112t75.5 -210t25 -322q0 -368 -92 -536t-303 -168q-212 0 -302.5 164t-90.5 540q0 154 19 271.5t52 194t84 124.5t110 68t134 20zM471 1159q-93 0 -127.5 -101t-34.5 -364q0 -78 4 -188l275 581q-35 72 -117 72zM471 184q49 0 80.5 30.5
t49 97t24 155.5t6.5 223q0 83 -4 189l-281 -592q38 -103 125 -103z" />
    <glyph glyph-name="zero.slashtab" horiz-adv-x="942" 
d="M475 1364q98 0 168 -34t120.5 -112t75.5 -210t25 -322q0 -368 -92 -536t-303 -168q-212 0 -302.5 164t-90.5 540q0 154 19 271.5t52 194t84 124.5t110 68t134 20zM471 1159q-93 0 -127.5 -101t-34.5 -364q0 -78 4 -188l275 581q-35 72 -117 72zM471 184q49 0 80.5 30.5
t49 97t24 155.5t6.5 223q0 83 -4 189l-281 -592q38 -103 125 -103z" />
    <glyph glyph-name="zero.tab" horiz-adv-x="942" 
d="M475 1364q97 0 166 -32.5t121 -108.5t77 -209.5t25 -327.5q0 -260 -41.5 -414t-126.5 -222t-227 -68q-140 0 -225.5 70.5t-126.5 224.5t-41 409q0 160 19.5 279.5t53.5 195t85.5 121.5t109 64t131.5 18zM471 1159q-88 0 -118.5 -103t-30.5 -362q0 -92 2 -155t7 -125.5
t15.5 -101.5t27 -70t40.5 -44.5t57 -13.5q28 0 49.5 10.5t37 29.5t26.5 52.5t17.5 71t10 94t5 113t1.5 135.5q0 277 -27 373t-120 96z" />
    <glyph glyph-name="one.tab" horiz-adv-x="942" 
d="M809 0h-672v209h219v852q-99 -11 -196 -4v180q169 17 276 113h162v-1141h211v-209z" />
    <glyph glyph-name="two.tab" horiz-adv-x="942" 
d="M831 0h-749v14q1 165 71 302t232 319q87 98 122 145t53 97t18 118q0 84 -26 128t-95 44q-74 0 -103 -54.5t-32 -164.5h-238q1 84 21 155t62 131.5t117.5 95t178.5 34.5q187 0 275.5 -100.5t88.5 -276.5q0 -122 -42 -208t-171 -222q-211 -224 -249 -348h497z" />
    <glyph glyph-name="three.tab" horiz-adv-x="942" 
d="M311 983h-223q0 56 10 107.5t36 102.5t66.5 88t106 60t148.5 23q176 0 263 -91.5t87 -254.5q0 -222 -162 -281v-4q203 -68 203 -323q0 -73 -11.5 -134t-40.5 -116.5t-73.5 -94t-114.5 -61t-160 -22.5q-185 0 -278 98.5t-98 271.5h235q12 -178 148 -178q81 0 114 57.5
t33 171.5q0 118 -45 166.5t-162 48.5h-61v201h55q98 0 137 38.5t39 143.5q0 82 -26.5 124t-96.5 42q-120 0 -129 -184z" />
    <glyph glyph-name="four.tab" horiz-adv-x="942" 
d="M758 0h-226v319h-475v201l387 828h314v-830h123l-21 -199h-102v-319zM532 518v277q0 114 9 364q-50 -159 -258 -641h249z" />
    </font>
</defs>
</svg>
