<?xml version="1.0" standalone="no"?>
<!DOCTYPE svg PUBLIC "-//W3C//DTD SVG 1.1//EN" "http://www.w3.org/Graphics/SVG/1.1/DTD/svg11.dtd" >
<svg xmlns="http://www.w3.org/2000/svg" xmlns:xlink="http://www.w3.org/1999/xlink" version="1.1">
<metadata>
Created by FontForge 20170731 at Tue Apr 18 17:17:45 2023
 By Aleksey,,,
(c) 2014 Adobe Systems Incorporated. All Rights Reserved.
</metadata>
<defs>
<font id="AcuminProCond-Semibold" horiz-adv-x="819" >
  <font-face 
    font-family="Acumin Pro Condensed Semibold"
    font-weight="600"
    font-stretch="condensed"
    units-per-em="2048"
    panose-1="2 11 7 6 2 2 2 2 2 4"
    ascent="1505"
    descent="-543"
    x-height="1053"
    cap-height="1389"
    bbox="-342 -535 1991 2048"
    underline-thickness="102"
    underline-position="-307"
    unicode-range="U+0020-FB02"
  />
<missing-glyph horiz-adv-x="1024" 
d="M0 0v1434h1024v-1434h-1024zM512 809l348 522h-696zM573 717l349 -522v1044zM164 102h696l-348 523zM102 1239v-1044l349 522z" />
    <glyph glyph-name="f_f" unicode="ff" horiz-adv-x="944" 
d="M600 877h-254v-877h-213v877h-127v176h127v114q0 301 268 301q61 0 99 -10l-8 -178q-36 4 -54 4q-55 0 -73.5 -30t-18.5 -95v-106h254v108q0 309 270 309q65 0 95 -12l-7 -178q-27 6 -53 6q-52 0 -73 -34t-21 -99v-100h156v-176h-156v-877h-211v877z" />
    <glyph glyph-name=".notdef" horiz-adv-x="1024" 
d="M0 0v1434h1024v-1434h-1024zM512 809l348 522h-696zM573 717l349 -522v1044zM164 102h696l-348 523zM102 1239v-1044l349 522z" />
    <glyph glyph-name=".null" horiz-adv-x="0" 
 />
    <glyph glyph-name="nonmarkingreturn" horiz-adv-x="682" 
 />
    <glyph glyph-name="space" unicode=" " horiz-adv-x="385" 
 />
    <glyph glyph-name="exclam" unicode="!" horiz-adv-x="507" 
d="M381 481h-184l-21 668v240h227v-240zM393 0h-211v266h211v-266z" />
    <glyph glyph-name="quotedbl" unicode="&#x22;" horiz-adv-x="602" 
d="M233 940h-149l-16 334v182h184v-184zM516 940h-147l-19 334v182h185v-184z" />
    <glyph glyph-name="numbersign" unicode="#" horiz-adv-x="933" 
d="M426 0l70 393h-177l-69 -393h-150l70 393h-129v168h160l49 277h-141v166h170l61 346h147l-61 -346h178l62 346h149l-61 -346h127v-166h-156l-49 -277h141v-168h-170l-69 -393h-152zM526 561l49 277h-178l-49 -277h178z" />
    <glyph glyph-name="dollar" unicode="$" horiz-adv-x="880" 
d="M514 -160h-158v154q-301 34 -311 375h201q11 -213 188 -213q83 0 127.5 47t44.5 139q0 90 -44.5 144t-162.5 108q-123 54 -192.5 107t-105 126.5t-35.5 178.5q0 142 78 235t212 113v112h158v-114q264 -42 274 -348h-196q-8 188 -170 188q-77 0 -115.5 -45.5t-38.5 -124.5
q0 -77 48.5 -128.5t177.5 -109.5q173 -75 246 -171t73 -246q0 -155 -75 -251.5t-224 -119.5v-156z" />
    <glyph glyph-name="percent" unicode="%" horiz-adv-x="1433" 
d="M342 1366q129 0 200.5 -94t71.5 -287q0 -188 -69.5 -290t-204.5 -103q-272 0 -272 389q0 187 73 286t201 99zM342 1225q-58 0 -85.5 -57t-27.5 -185q0 -130 27 -189t86 -59q58 0 85.5 60.5t27.5 189.5q0 126 -26 183t-87 57zM420 0h-141l727 1350h143zM1094 752
q129 0 200.5 -93.5t71.5 -285.5q0 -190 -69 -291t-205 -102q-273 0 -273 389q0 186 73.5 284.5t201.5 98.5zM1094 612q-58 0 -85.5 -58t-27.5 -185q0 -129 27 -188.5t86 -59.5q57 0 84.5 60.5t27.5 189.5q0 127 -25.5 184t-86.5 57z" />
    <glyph glyph-name="ampersand" unicode="&#x26;" horiz-adv-x="1189" 
d="M442 166q58 0 100.5 33.5t90.5 113.5l-244 303q-56 -50 -80 -103t-24 -130q0 -102 41 -159.5t116 -57.5zM905 836h211l-256 -476l293 -360h-268l-135 168q-64 -96 -137.5 -141t-190.5 -45q-167 0 -257.5 102.5t-90.5 277.5q0 120 49 205.5t168 173.5q-66 89 -96.5 163.5
t-30.5 168.5q0 63 19 120.5t56 106t99.5 77t142.5 28.5q146 0 228 -86.5t82 -220.5q0 -123 -52.5 -202.5t-179.5 -166.5l180 -221zM479 1239q-55 0 -84.5 -42.5t-29.5 -113.5q0 -60 22 -112t76 -121q76 57 104.5 111.5t28.5 130.5q0 147 -117 147z" />
    <glyph glyph-name="quotesingle" unicode="'" horiz-adv-x="329" 
d="M244 938h-160l-16 334v184h194v-186z" />
    <glyph glyph-name="parenleft" unicode="(" horiz-adv-x="610" 
d="M360 1464h197q-262 -394 -262 -862q0 -475 262 -883h-197q-111 161 -183.5 386.5t-72.5 498.5q0 475 256 860z" />
    <glyph glyph-name="parenright" unicode=")" horiz-adv-x="610" 
d="M248 -281h-195q260 397 260 861q0 471 -260 884h195q111 -163 183.5 -388t72.5 -498q0 -474 -256 -859z" />
    <glyph glyph-name="asterisk" unicode="*" horiz-adv-x="700" 
d="M272 1389h150l-25 -242l187 143l82 -131l-222 -100l215 -101l-77 -131l-185 144l27 -242h-152l27 242l-188 -144l-76 131l213 101l-211 98l78 133l184 -143z" />
    <glyph glyph-name="plus" unicode="+" horiz-adv-x="1095" 
d="M467 973h166v-379h360v-162h-360v-383h-166v383h-365v162h365v379z" />
    <glyph glyph-name="comma" unicode="," horiz-adv-x="376" 
d="M176 -223h-170q51 136 82.5 278t36.5 240h201q-12 -141 -54 -282.5t-96 -235.5z" />
    <glyph glyph-name="hyphen" unicode="-" horiz-adv-x="571" 
d="M66 627h438v-187h-438v187z" />
    <glyph glyph-name="period" unicode="." horiz-adv-x="364" 
d="M291 0h-217v303h217v-303z" />
    <glyph glyph-name="slash" unicode="/" horiz-adv-x="671" 
d="M217 -41h-164l400 1438h161z" />
    <glyph glyph-name="zero" unicode="0" horiz-adv-x="923" 
d="M467 1366q127 0 207.5 -62t124 -213t43.5 -403q0 -382 -88 -544t-293 -162q-204 0 -292.5 165.5t-88.5 540.5q0 158 18 276t50.5 194t82 123t106.5 66t130 19zM463 1186q-95 0 -131.5 -109.5t-36.5 -382.5q0 -144 6 -234.5t23.5 -163.5t51.5 -105.5t87 -32.5
q52 0 85 31.5t51 103t24 162.5t6 235q0 286 -33 391t-133 105z" />
    <glyph glyph-name="one" unicode="1" horiz-adv-x="546" 
d="M412 0h-213v1104q-25 -9 -77.5 -16t-84.5 -7v164q67 11 132 43t99 66h144v-1354z" />
    <glyph glyph-name="two" unicode="2" horiz-adv-x="831" 
d="M778 0h-733v12q0 151 71.5 289.5t231.5 319.5q70 78 102 117.5t59.5 85.5t35.5 84.5t8 92.5q0 90 -30.5 141.5t-110.5 51.5t-114.5 -59t-39.5 -174h-205q1 65 12.5 122t38.5 110t68 90.5t104 60t142 22.5q93 0 162 -27.5t110 -78t60.5 -116.5t19.5 -149q0 -125 -45 -214
t-178 -228q-218 -239 -258 -371h518z" />
    <glyph glyph-name="three" unicode="3" horiz-adv-x="864" 
d="M266 999h-194q0 53 10 101.5t35 98t63.5 86t101 59t142.5 22.5q170 0 253 -92t83 -252q0 -222 -162 -283v-4q203 -66 203 -329q0 -70 -11 -130t-38.5 -115.5t-70.5 -94t-110.5 -61.5t-154.5 -23q-182 0 -272 99.5t-95 264.5h205q2 -39 11.5 -72t28 -61.5t50.5 -44.5
t76 -16q92 0 129 65t37 182q0 130 -51.5 184t-169.5 54h-60v174h55q101 0 145 43t44 156q0 90 -30 137t-107 47q-135 0 -146 -195z" />
    <glyph glyph-name="four" unicode="4" horiz-adv-x="880" 
d="M725 0h-199v334h-479v174l406 842h272v-842h125l-19 -174h-106v-334zM526 508v309q0 118 9 363q-45 -133 -289 -672h280z" />
    <glyph glyph-name="five" unicode="5" horiz-adv-x="890" 
d="M780 1350l-24 -185h-420q-13 -157 -35 -342q66 76 201 76q160 0 241.5 -113.5t81.5 -304.5q0 -499 -391 -499q-93 0 -162.5 27.5t-112 78t-64.5 115.5t-25 145h211q13 -194 159 -194q50 0 84 22t51.5 64.5t25 93t7.5 119.5q0 136 -35.5 204t-128.5 68q-69 0 -105 -38
t-58 -109l-195 28q18 115 41 353.5t33 390.5h620z" />
    <glyph glyph-name="six" unicode="6" horiz-adv-x="903" 
d="M809 1051h-199q-17 145 -139 145q-25 0 -46 -7t-37.5 -21.5t-29.5 -30.5t-22.5 -42t-16.5 -47t-12 -54.5t-7.5 -55.5t-4.5 -58.5t-2.5 -55.5t-1.5 -54q76 123 229 123q149 0 233.5 -110.5t84.5 -315.5q0 -103 -20.5 -187.5t-63.5 -153t-118 -106.5t-177 -38
q-91 0 -158 31.5t-109 86t-67.5 138.5t-35 177.5t-9.5 215.5q0 140 11.5 249.5t39.5 202.5t73.5 154t115 95t161.5 34q76 0 135.5 -22t94 -55t57.5 -77.5t31.5 -83t9.5 -77.5zM459 150q166 0 166 292q0 145 -38 211t-126 66t-130 -63t-42 -173q0 -333 170 -333z" />
    <glyph glyph-name="seven" unicode="7" horiz-adv-x="731" 
d="M12 1350h701v-168q-133 -234 -234 -547.5t-143 -634.5h-223q42 312 152.5 633t234.5 532h-488v185z" />
    <glyph glyph-name="eight" unicode="8" horiz-adv-x="897" 
d="M440 -18q-178 0 -273 108t-95 297q0 71 16 130.5t42 98t52.5 62.5t55.5 39q-134 85 -134 284q0 162 92.5 262.5t260.5 100.5q159 0 249.5 -92t90.5 -252q0 -123 -38.5 -196.5t-99.5 -102.5q168 -78 168 -338q0 -183 -99.5 -292t-287.5 -109zM451 150q165 0 165 239
q0 124 -41 182t-126 58q-88 0 -127 -60t-39 -178q0 -114 41 -177.5t127 -63.5zM451 1198q-74 0 -109 -52t-35 -140q0 -207 146 -207q143 0 143 202q0 197 -145 197z" />
    <glyph glyph-name="nine" unicode="9" horiz-adv-x="894" 
d="M80 289h205q5 -27 11 -45t20.5 -42.5t42 -37t67.5 -12.5q48 0 82 32t51.5 79t27.5 112.5t13 120t4 113.5v20q-64 -113 -217 -113q-149 0 -234 103.5t-85 298.5q0 213 96 330.5t276 117.5q193 0 283 -134.5t90 -445.5q0 -446 -86.5 -626t-310.5 -180q-301 0 -335 303
q-1 4 -1 6zM440 1192q-161 0 -161 -254q0 -250 163 -250q160 0 160 230q0 62 -6.5 107t-23 85t-49.5 61t-83 21z" />
    <glyph glyph-name="colon" unicode=":" horiz-adv-x="462" 
d="M332 0h-201v303h201v-303zM332 717h-201v303h201v-303z" />
    <glyph glyph-name="semicolon" unicode=";" horiz-adv-x="487" 
d="M199 -221h-170q46 110 78.5 267t37.5 251h203q-10 -139 -52.5 -283.5t-96.5 -234.5zM358 717h-202v303h202v-303z" />
    <glyph glyph-name="less" unicode="&#x3c;" horiz-adv-x="913" 
d="M113 432v164l688 375v-180l-531 -277l531 -278v-185z" />
    <glyph glyph-name="equal" unicode="=" horiz-adv-x="1099" 
d="M106 397h887v-166h-887v166zM106 795h887v-164h-887v164z" />
    <glyph glyph-name="greater" unicode="&#x3e;" horiz-adv-x="913" 
d="M801 592v-164l-688 -377v180l528 277l-528 278v185z" />
    <glyph glyph-name="question" unicode="?" horiz-adv-x="815" 
d="M518 428h-215v31q0 91 31 170.5t112 183.5q56 73 80.5 131.5t24.5 124.5q0 166 -129 166q-131 0 -141 -199h-199q2 73 20.5 135.5t57 116.5t108 85.5t162.5 31.5q92 -1 158.5 -28t103.5 -75t53.5 -105.5t16.5 -127.5q0 -107 -33 -184.5t-121 -194.5q-90 -119 -90 -246
v-16zM518 0h-215v295h215v-295z" />
    <glyph glyph-name="at" unicode="@" horiz-adv-x="1452" 
d="M1028 -113l41 -133q-132 -94 -364 -94q-308 0 -463.5 205t-155.5 575q0 138 25 262t78.5 232t131.5 187t190 124t247 45q291 0 451.5 -174.5t160.5 -492.5q0 -176 -36.5 -310t-116 -214.5t-193.5 -80.5q-148 0 -180 127q-67 -127 -211 -127q-207 0 -207 308
q0 287 76.5 449.5t210.5 162.5q68 0 105.5 -28.5t47.5 -71.5l8 82h179l-72 -605q-9 -73 6.5 -108t61.5 -35q55 0 94 63.5t56.5 159.5t17.5 211q0 539 -463 539q-107 0 -192.5 -38t-142.5 -103.5t-94.5 -156.5t-54 -192t-16.5 -215q0 -104 13 -191.5t46 -169.5t84.5 -138.5
t134 -90.5t189.5 -34q166 0 307 71zM754 770q-44 0 -75.5 -49.5t-45.5 -126t-19.5 -139t-5.5 -117.5q0 -150 80 -150q56 0 85 64t52 250q20 145 5 206.5t-76 61.5z" />
    <glyph glyph-name="A" unicode="A" horiz-adv-x="964" 
d="M643 381h-334l-80 -381h-215l326 1389h278l332 -1389h-225zM348 569h256q-17 81 -42 197.5t-38 178.5t-26.5 130.5t-20.5 112.5h-6q-5 -37 -13 -83.5t-22 -115.5t-24 -118t-31.5 -150t-32.5 -152z" />
    <glyph glyph-name="B" unicode="B" horiz-adv-x="999" 
d="M125 0v1389h401q171 0 266 -92.5t95 -256.5q0 -122 -47.5 -193t-116.5 -97q207 -81 207 -342q0 -191 -112 -299.5t-298 -108.5h-395zM336 825h133q117 0 164 47.5t47 149.5q0 192 -199 192h-145v-389zM336 655v-485h162q215 0 215 242q0 121 -58.5 182t-183.5 61h-135z
" />
    <glyph glyph-name="C" unicode="C" horiz-adv-x="958" 
d="M692 397h215q-2 -26 -4.5 -47.5t-14 -67.5t-27 -82t-46.5 -80t-71.5 -73.5t-102.5 -49.5t-137 -20q-81 0 -145.5 22t-108.5 57.5t-76 92t-50.5 114.5t-29 136t-13.5 145.5t-3 153.5q0 711 440 711q73 0 133 -18.5t99 -46t68.5 -68.5t45 -77.5t25.5 -81t12.5 -71
t3.5 -55.5h-215q-10 234 -174 234q-52 0 -90.5 -27t-62 -72.5t-38 -115.5t-19.5 -144.5t-5 -171.5q0 -90 4.5 -161t17.5 -143.5t35 -120.5t60 -78.5t90 -30.5q160 0 184 237z" />
    <glyph glyph-name="D" unicode="D" horiz-adv-x="1032" 
d="M127 0v1389h342q254 0 369.5 -165t115.5 -499q0 -181 -26.5 -312t-85 -225.5t-156 -141t-235.5 -46.5h-324zM344 1206v-1028h102q157 0 221 127.5t64 417.5q0 257 -63.5 370t-218.5 113h-105z" />
    <glyph glyph-name="E" unicode="E" horiz-adv-x="882" 
d="M791 821v-188h-451v-447h504l-27 -186h-690v1389h686v-191h-473v-377h451z" />
    <glyph glyph-name="F" unicode="F" horiz-adv-x="849" 
d="M127 0v1389h688v-191h-475v-393h446v-187h-446v-618h-213z" />
    <glyph glyph-name="G" unicode="G" horiz-adv-x="1019" 
d="M920 774v-774h-166q-10 102 -11 129q-80 -152 -276 -152q-108 0 -184 49t-120.5 144.5t-64.5 222t-20 295.5q0 721 454 721q74 0 135 -18t100 -45t68.5 -67t44.5 -74.5t24.5 -77t12 -65t3.5 -48.5h-213q-16 211 -181 211q-63 0 -107.5 -38.5t-70 -112t-36.5 -168
t-11 -218.5q0 -104 6 -183t20.5 -146t38.5 -109.5t61 -66t87 -23.5q109 0 151 85t42 269v74h-205v186h418z" />
    <glyph glyph-name="H" unicode="H" horiz-adv-x="1058" 
d="M127 0v1389h215v-564h375v564h215v-1389h-215v639h-375v-639h-215z" />
    <glyph glyph-name="I" unicode="I" horiz-adv-x="471" 
d="M127 1389h215v-1389h-215v1389z" />
    <glyph glyph-name="J" unicode="J" horiz-adv-x="567" 
d="M455 1389v-1035q0 -71 -6.5 -123t-26.5 -101t-53.5 -80t-90 -49.5t-133.5 -18.5q-49 0 -127 10v180q75 -6 91 -6q80 0 105.5 40t25.5 134v1049h215z" />
    <glyph glyph-name="K" unicode="K" horiz-adv-x="966" 
d="M127 0v1389h213v-646q31 48 181.5 294t219.5 352h248l-373 -549l381 -840h-241l-285 659l-131 -180v-479h-213z" />
    <glyph glyph-name="L" unicode="L" horiz-adv-x="825" 
d="M127 0v1389h215v-1205h481l-22 -184h-674z" />
    <glyph glyph-name="M" unicode="M" horiz-adv-x="1304" 
d="M973 0v543q0 355 8 663h-6q-7 -37 -43 -225t-60 -313.5t-63.5 -319t-73.5 -348.5h-196q-166 910 -217 1210h-9q15 -304 15 -696v-514h-199v1389h322q124 -580 196 -1035h2q36 231 215 1035h316v-1389h-207z" />
    <glyph glyph-name="N" unicode="N" horiz-adv-x="1079" 
d="M322 0h-195v1389h250q354 -925 376 -990q10 -31 15 -51h2q-12 209 -12 606v435h194v-1389h-239q-52 138 -136 363q-248 663 -263 717q0 3 -1 5h-2q11 -189 11 -634v-451z" />
    <glyph glyph-name="O" unicode="O" horiz-adv-x="1028" 
d="M518 1409q222 0 327 -172t105 -532q0 -376 -104.5 -552t-337.5 -176q-220 0 -325 177t-105 553q0 702 440 702zM514 1225q-114 0 -164.5 -129t-50.5 -387q0 -273 50.5 -411t164.5 -138q118 0 166.5 133.5t48.5 413.5q0 270 -49.5 394t-165.5 124z" />
    <glyph glyph-name="P" unicode="P" horiz-adv-x="960" 
d="M127 0v1389h397q175 0 282 -105.5t107 -300.5t-107 -300t-302 -105h-162v-578h-215zM342 1210v-458h137q110 0 163.5 57.5t53.5 177.5q0 107 -52.5 165t-149.5 58h-152z" />
    <glyph glyph-name="Q" unicode="Q" horiz-adv-x="1028" 
d="M518 1409q222 0 327 -172t105 -532q0 -401 -119 -574l224 -170l-125 -149l-256 194q-71 -29 -166 -29q-220 0 -325 177t-105 553q0 702 440 702zM514 1225q-114 0 -164.5 -129t-50.5 -387q0 -273 50.5 -411t164.5 -138q118 0 166.5 133.5t48.5 413.5q0 270 -49.5 394
t-165.5 124z" />
    <glyph glyph-name="R" unicode="R" horiz-adv-x="985" 
d="M469 608h-129v-608h-213v1389h403q184 0 282.5 -96.5t98.5 -276.5q0 -72 -17 -130.5t-46 -95.5t-58 -59.5t-61 -34.5q87 -37 124.5 -117.5t37.5 -230.5v-55q0 -182 18 -293h-209q-22 69 -22 295v49q0 147 -43 205.5t-166 58.5zM340 1210v-426h139q114 0 164.5 55.5
t50.5 168.5q0 202 -194 202h-160z" />
    <glyph glyph-name="S" unicode="S" horiz-adv-x="929" 
d="M47 381h215q10 -104 58 -167.5t143 -63.5q186 0 186 200q0 94 -51.5 155.5t-185.5 127.5q-121 57 -189 110.5t-102.5 126t-34.5 174.5q0 162 101 263.5t278 101.5q86 0 152.5 -23t107.5 -60t68 -88t37.5 -101.5t11.5 -106.5h-211q-3 29 -7 50.5t-16 53.5t-28.5 52.5
t-47.5 35.5t-71 15q-80 0 -120 -47.5t-40 -126.5q0 -83 45 -133t172 -109q190 -89 270 -188.5t80 -263.5q0 -83 -25 -153t-74.5 -124t-129.5 -84.5t-182 -30.5q-89 0 -158.5 22.5t-115 60t-75.5 90.5t-44 109.5t-17 121.5z" />
    <glyph glyph-name="T" unicode="T" horiz-adv-x="829" 
d="M307 0v1198h-301v191h817v-191h-301v-1198h-215z" />
    <glyph glyph-name="U" unicode="U" horiz-adv-x="1054" 
d="M115 1389h215v-963q0 -266 198 -266q58 0 97.5 19.5t60 58t29 83t8.5 105.5v963h217v-967q0 -445 -416 -445q-114 0 -195.5 32t-127 93t-66 138.5t-20.5 179.5v969z" />
    <glyph glyph-name="V" unicode="V" horiz-adv-x="960" 
d="M602 0h-252l-344 1389h232l135 -615q78 -339 102 -547h4q6 47 21.5 122.5t26.5 124.5t37 160t32 138l133 617h225z" />
    <glyph glyph-name="W" unicode="W" horiz-adv-x="1439" 
d="M510 0h-217l-266 1389h229q135 -788 158 -1088h2q21 136 104.5 554t104.5 534h196l65 -330t87 -453t49 -295h4q18 159 90.5 581.5t83.5 496.5h215l-289 -1389h-217q-19 103 -64 329.5t-80 412.5t-50 296h-2q-17 -115 -51 -291.5t-88 -437.5t-64 -309z" />
    <glyph glyph-name="X" unicode="X" horiz-adv-x="884" 
d="M905 0h-246l-223 539h-2l-227 -539h-227l333 713l-321 676h246l208 -486h3l210 486h228l-320 -654z" />
    <glyph glyph-name="Y" unicode="Y" horiz-adv-x="899" 
d="M557 0h-217v504q0 25 -8 41l-350 844h239q198 -530 234 -656q23 70 63 181.5t93 256t79 218.5h228l-355 -846q-6 -12 -6 -43v-500z" />
    <glyph glyph-name="Z" unicode="Z" horiz-adv-x="872" 
d="M35 0v152l557 1046h-514v191h749v-175l-540 -1026h563l-29 -188h-786z" />
    <glyph glyph-name="bracketleft" unicode="[" horiz-adv-x="583" 
d="M528 -281h-403v1743h403v-159h-231v-1426h231v-158z" />
    <glyph glyph-name="backslash" unicode="\" horiz-adv-x="671" 
d="M451 -41l-398 1438h164l399 -1438h-165z" />
    <glyph glyph-name="bracketright" unicode="]" horiz-adv-x="583" 
d="M57 1462h404v-1743h-404v158h232v1426h-232v159z" />
    <glyph glyph-name="asciicircum" unicode="^" horiz-adv-x="776" 
d="M741 674h-163l-197 512l-184 -512h-164l272 676h164z" />
    <glyph glyph-name="underscore" unicode="_" horiz-adv-x="1064" 
d="M0 -160h1065v-104h-1065v104z" />
    <glyph glyph-name="grave" unicode="`" 
d="M84 1473h250l203 -281h-189z" />
    <glyph glyph-name="a" unicode="a" horiz-adv-x="892" 
d="M776 770v-555q0 -43 8 -215h-192q-10 58 -10 104q-66 -122 -242 -122q-72 0 -127.5 27t-87.5 72t-48 98t-16 112q0 160 107.5 252t306.5 92q67 0 94 -4v125q0 30 -4 52.5t-16 46.5t-39.5 37t-69.5 13t-70 -12.5t-41 -37t-18 -45.5t-8 -54h-201q1 49 11.5 92t35 85
t62.5 71.5t99 48t139 18.5q327 0 327 -301zM573 432v43q-25 4 -88 4q-110 0 -161.5 -46.5t-51.5 -123.5q0 -64 34 -108.5t102 -44.5q95 0 130 66.5t35 209.5z" />
    <glyph glyph-name="b" unicode="b" horiz-adv-x="933" 
d="M115 293v1163h211v-520q66 135 239 135q307 0 307 -518q0 -571 -337 -571q-92 0 -140 35t-78 92q0 -39 -4 -109h-200q2 66 2 293zM659 551q0 174 -37 256t-126 82q-98 0 -137.5 -84.5t-39.5 -282.5q0 -192 36 -275t130 -83q92 0 133 92.5t41 294.5z" />
    <glyph glyph-name="c" unicode="c" horiz-adv-x="835" 
d="M584 344h207q-1 -24 -3.5 -44t-11.5 -59.5t-23 -70.5t-41 -68t-63 -61.5t-92 -41.5t-125 -17q-86 0 -151 28t-106 76.5t-66.5 120t-35.5 151t-10 177.5q0 112 20 204.5t62.5 169t118.5 119.5t180 43q68 0 123.5 -17t90.5 -42t61 -61.5t39 -67t21 -68.5t9.5 -56t2.5 -38
h-216q-8 174 -133 174q-87 0 -125 -92t-38 -271q0 -186 37 -279t122 -93q36 0 63 14.5t41.5 32.5t24 48.5t12 46.5t5.5 42z" />
    <glyph glyph-name="d" unicode="d" horiz-adv-x="933" 
d="M608 1456h213v-1171q0 -224 2 -285h-205q-6 81 -6 123q-53 -141 -239 -141q-161 0 -235.5 139.5t-74.5 415.5q0 252 87.5 393t261.5 141q155 0 196 -92v477zM279 532q0 -195 39.5 -281.5t123.5 -86.5q101 0 136.5 84.5t35.5 292.5q0 204 -31 276t-128 72q-86 0 -131 -82
t-45 -275z" />
    <glyph glyph-name="e" unicode="e" horiz-adv-x="874" 
d="M811 475h-535q0 -67 6.5 -117.5t23 -99t51.5 -74.5t87 -26q38 0 67.5 13.5t45.5 30.5t26.5 41.5t13.5 39t5 30.5h205q-28 -217 -187 -295q-77 -38 -180 -38q-95 0 -165.5 33t-110 83.5t-63.5 127t-31 147t-7 159.5q0 257 96 399t287 142q87 0 152.5 -26.5t106 -71
t66 -110.5t35 -136t9.5 -156q0 -56 -4 -96zM279 631h325q0 55 -6 97t-21.5 82.5t-48.5 62.5t-82 22q-33 0 -59 -11t-43 -27.5t-29.5 -42t-19 -47t-10.5 -51.5t-4.5 -46t-1.5 -39z" />
    <glyph glyph-name="f" unicode="f" horiz-adv-x="481" 
d="M346 0h-213v877h-127v176h127v116q0 137 66.5 218t210.5 81q61 0 94 -10v-180q-27 6 -62 6q-54 0 -75 -30.5t-21 -96.5v-104h156v-176h-156v-877z" />
    <glyph glyph-name="g" unicode="g" horiz-adv-x="937" 
d="M823 739v-659q0 -116 -18 -199.5t-61 -149t-121 -98t-193 -32.5q-83 0 -147.5 19.5t-102 50t-62.5 72t-34.5 79.5t-11.5 80h213q12 -127 153 -127q104 0 140 73t36 232v63q-57 -137 -231 -137q-162 0 -241 132t-79 376q0 270 91.5 413.5t251.5 143.5q167 0 208 -121
q0 16 1.5 35.5t4 39.5l3.5 28h204q-4 -122 -4 -314zM281 520q0 -334 168 -334q97 0 133 89t36 276q0 69 -3 116t-12.5 92.5t-26.5 71.5t-46 42t-71 16q-178 0 -178 -369z" />
    <glyph glyph-name="h" unicode="h" horiz-adv-x="942" 
d="M115 1456h211v-514q68 129 241 129q128 0 196 -82t68 -244v-745h-213v702q0 94 -29 140.5t-108 46.5q-85 0 -120 -63t-35 -187v-639h-211v1456z" />
    <glyph glyph-name="i" unicode="i" horiz-adv-x="440" 
d="M113 0v1053h213v-1053h-213zM328 1223h-213v233h213v-233z" />
    <glyph glyph-name="j" unicode="j" horiz-adv-x="442" 
d="M115 1053h211v-1088q0 -70 -4 -117.5t-19.5 -97.5t-43 -79t-76 -47.5t-117.5 -18.5q-53 0 -84 4v184q20 -2 49 -2q53 0 68.5 29.5t15.5 107.5v1125zM328 1223h-213v233h213v-233z" />
    <glyph glyph-name="k" unicode="k" horiz-adv-x="843" 
d="M326 1456v-868q39 66 141.5 232.5t142.5 232.5h236q-54 -82 -268 -391l288 -662h-241l-191 492q-12 -17 -52 -75.5t-56 -78.5v-338h-213v1456h213z" />
    <glyph glyph-name="l" unicode="l" horiz-adv-x="438" 
d="M326 0h-213v1456h213v-1456z" />
    <glyph glyph-name="m" unicode="m" horiz-adv-x="1402" 
d="M115 0v737q0 269 -2 316h202q7 -44 7 -117q74 135 233 135q164 0 215 -147q79 147 258 147q262 0 262 -313v-758h-209v725q0 164 -125 164q-147 0 -147 -223v-666h-211v721q0 84 -29 125t-94 41q-149 0 -149 -232v-655h-211z" />
    <glyph glyph-name="n" unicode="n" horiz-adv-x="944" 
d="M113 0v725q0 275 -2 328h204q7 -47 7 -119q68 137 239 137q127 0 198.5 -79.5t71.5 -239.5v-752h-213v705q0 91 -29.5 137.5t-103.5 46.5q-84 0 -121.5 -56.5t-37.5 -189.5v-643h-213z" />
    <glyph glyph-name="o" unicode="o" horiz-adv-x="897" 
d="M457 1071q185 0 281 -135.5t96 -398.5q0 -557 -388 -557q-191 0 -287 135t-96 417q0 269 104 404t290 135zM451 891q-88 0 -130 -87.5t-42 -271.5q0 -188 40.5 -280t131.5 -92q88 0 127.5 91.5t39.5 278.5t-39.5 274t-127.5 87z" />
    <glyph glyph-name="p" unicode="p" horiz-adv-x="935" 
d="M326 -383h-213v1131q0 239 -2 305h204q7 -40 7 -125q66 143 241 143q150 0 228.5 -132t78.5 -396q0 -288 -89.5 -425.5t-248.5 -137.5q-148 0 -206 110v-473zM655 532q0 189 -41 273t-129 84q-96 0 -132 -86t-36 -264q0 -67 2 -113t8 -92.5t17 -75t29 -52t45 -34
t63 -10.5q174 0 174 370z" />
    <glyph glyph-name="q" unicode="q" horiz-adv-x="935" 
d="M614 -383v498q-63 -133 -235 -133q-316 0 -316 542q0 264 90.5 405.5t247.5 141.5q165 0 213 -119q0 52 7 101h204q-2 -80 -2 -332v-1104h-209zM281 518q0 -356 168 -356q100 0 132.5 80.5t32.5 277.5q0 73 -1.5 119t-7.5 92t-16.5 72.5t-28 47.5t-43.5 29.5t-62 8.5
q-174 0 -174 -371z" />
    <glyph glyph-name="r" unicode="r" horiz-adv-x="618" 
d="M113 0v696q0 281 -2 357h202q6 -60 6 -179q31 93 102.5 144t174.5 51v-235q-135 0 -202.5 -63t-67.5 -206v-565h-213z" />
    <glyph glyph-name="s" unicode="s" horiz-adv-x="802" 
d="M43 313h209q2 -72 40 -120t114 -48q67 0 101 35t34 96q0 65 -36.5 103.5t-133.5 75.5q-174 64 -236.5 134.5t-62.5 188.5q0 56 18 106t55 93t102.5 68.5t151.5 25.5q75 0 134.5 -20t95.5 -51.5t59 -74.5t32 -84.5t9 -86.5h-205q0 17 -1.5 32.5t-9.5 39t-21 40t-38.5 29
t-60.5 12.5q-56 0 -85 -30.5t-29 -83.5q0 -54 35.5 -86.5t134.5 -69.5q166 -63 234.5 -136.5t68.5 -199.5q0 -153 -93 -236t-264 -83q-173 0 -261.5 91t-90.5 240z" />
    <glyph glyph-name="t" unicode="t" horiz-adv-x="536" 
d="M-6 877v176h141v268h211v-268h170v-176h-170v-615q0 -54 17.5 -78t72.5 -24q46 0 64 4v-158q-46 -20 -140 -20q-119 0 -172 53t-53 186v652h-141z" />
    <glyph glyph-name="u" unicode="u" horiz-adv-x="933" 
d="M823 1053v-750q0 -250 2 -303h-202q-7 37 -11 123q-62 -141 -239 -141q-262 0 -262 315v756h213v-707q0 -92 27.5 -137t97.5 -45q80 0 120.5 55.5t40.5 190.5v643h213z" />
    <glyph glyph-name="v" unicode="v" horiz-adv-x="831" 
d="M12 1053h228q152 -660 176 -828h2q8 64 41 207t79 331t68 290h213l-297 -1053h-229z" />
    <glyph glyph-name="w" unicode="w" horiz-adv-x="1290" 
d="M20 1053h226q117 -644 137 -824h4q8 63 24.5 143.5t60.5 282t85 398.5h193q149 -695 161 -820h2q23 164 146 820h213l-258 -1053h-217q-15 74 -47.5 229t-47 226t-31.5 162.5t-24 146.5h-2q-7 -54 -25 -142.5t-34.5 -163.5t-51 -224t-53.5 -234h-223z" />
    <glyph glyph-name="x" unicode="x" horiz-adv-x="751" 
d="M-14 1053h231q37 -80 74 -159t57 -122t31 -67h2q12 28 166 348h223l-270 -498l272 -555h-235q-140 314 -162 367h-2q-106 -234 -168 -367h-225l268 526z" />
    <glyph glyph-name="y" unicode="y" horiz-adv-x="835" 
d="M12 1053h232q20 -81 51.5 -209.5t48.5 -199t36.5 -155.5t30 -139.5t13.5 -89.5h2q33 185 182 793h215l-305 -1102q-26 -94 -56 -159.5t-58.5 -102t-68 -56.5t-73 -25t-84.5 -5q-55 0 -88 8v180q28 -4 74 -4q71 0 103.5 43t58.5 154z" />
    <glyph glyph-name="z" unicode="z" horiz-adv-x="739" 
d="M35 0v154q119 190 430 718h-402v181h639v-160q-201 -351 -421 -715h430l-23 -178h-653z" />
    <glyph glyph-name="braceleft" unicode="{" horiz-adv-x="663" 
d="M55 502v172q64 0 104.5 11.5t60 38t26 56.5t6.5 78l-10 277q0 176 80 251.5t233 75.5h55v-159h-37q-83 0 -114 -38t-31 -135l10 -251q2 -124 -37 -197t-133 -92q100 -24 136 -91.5t34 -197.5l-10 -254q0 -97 34 -134.5t113 -39.5h35v-160h-59q-70 0 -124 15.5t-97 50.5
t-65.5 99t-22.5 155l10 282q0 53 -6 83.5t-25.5 56.5t-59.5 36.5t-106 10.5z" />
    <glyph glyph-name="bar" unicode="|" horiz-adv-x="438" 
d="M131 1597h176v-2132h-176v2132z" />
    <glyph glyph-name="braceright" unicode="}" horiz-adv-x="663" 
d="M606 674v-172q-64 0 -103.5 -12t-59 -38.5t-25.5 -56t-6 -78.5l10 -276q0 -177 -80 -252.5t-233 -75.5h-56v158h35q85 1 116.5 39t31.5 135l-11 252q-2 124 37 197t133 92q-101 24 -136.5 90.5t-33.5 197.5l11 254q0 97 -34.5 133.5t-113.5 38.5h-35v162h60q71 0 124 -15
t96.5 -50t66 -99t22.5 -155l-10 -283q0 -43 3 -69t14 -51t32 -38t56.5 -20.5t88.5 -7.5z" />
    <glyph glyph-name="asciitilde" unicode="~" horiz-adv-x="1040" 
d="M270 377h-149v59q-3 118 49 173t141 55q69 0 150 -34t148.5 -68t103.5 -34q31 0 44 19.5t13 73.5v34h152v-49q0 -72 -15.5 -122t-43.5 -74.5t-58 -34.5t-68 -10q-67 0 -148.5 35.5t-150.5 70.5t-106 35q-62 0 -62 -86v-43z" />
    <glyph glyph-name="uni00A0" unicode="&#xa0;" horiz-adv-x="385" 
 />
    <glyph glyph-name="exclamdown" unicode="&#xa1;" horiz-adv-x="444" 
d="M100 569h187l22 -678v-239h-231v239zM88 1053h215v-273h-215v273z" />
    <glyph glyph-name="cent" unicode="&#xa2;" horiz-adv-x="894" 
d="M618 496h201q-21 -292 -270 -334v-152h-156v152q-153 23 -226 152t-73 364q0 217 74 346t225 156v120h156v-116q77 -11 132.5 -45.5t84 -84.5t41 -100t14.5 -106h-205q-2 34 -9.5 62.5t-23 55.5t-44 42.5t-68.5 15.5q-91 0 -128.5 -89t-37.5 -255q0 -186 37 -272t129 -86
q38 0 66 15t42.5 35t24 47.5t11.5 43.5t3 33z" />
    <glyph glyph-name="sterling" unicode="&#xa3;" horiz-adv-x="911" 
d="M821 0h-758v168q71 42 101.5 124.5t30.5 223.5q0 65 -2 96h-156v160h143q-8 122 -8 195q0 193 85 296t251 103q164 0 241.5 -93t77.5 -249h-194q-3 82 -32 122t-95 40q-71 0 -99 -52.5t-28 -164.5q0 -57 12 -197h232v-160h-224v-37q0 -138 -20 -232.5t-70 -160.5h541z
" />
    <glyph glyph-name="currency" unicode="&#xa4;" horiz-adv-x="894" 
d="M442 1071q103 0 183 -53l114 123l117 -121l-127 -131q39 -83 39 -197q0 -121 -37 -213l125 -133l-117 -123l-112 121q-77 -57 -193 -57q-107 0 -182 57l-113 -121l-116 123l124 133q-36 89 -36 209q0 115 41 199l-129 133l114 121l121 -125q76 55 184 55zM438 920
q-79 0 -120.5 -60t-41.5 -174q0 -126 43.5 -187t118.5 -61q80 0 120 57.5t40 194.5q0 109 -41 169.5t-119 60.5z" />
    <glyph glyph-name="yen" unicode="&#xa5;" horiz-adv-x="815" 
d="M715 328h-215v-328h-209v328h-207v141h207v100h-207v142h186l-290 639h229q160 -394 194 -519h3q18 71 188 519h225l-297 -639h193v-142h-215v-100h215v-141z" />
    <glyph glyph-name="brokenbar" unicode="&#xa6;" horiz-adv-x="430" 
d="M131 365h168v-732h-168v732zM131 1407h168v-727h-168v727z" />
    <glyph glyph-name="section" unicode="&#xa7;" horiz-adv-x="905" 
d="M784 1098h-190q-13 147 -143 147q-66 0 -100 -33.5t-34 -93.5q0 -55 41 -96t174 -115q164 -91 229.5 -179.5t65.5 -219.5q0 -185 -127 -291q72 -82 72 -209q0 -161 -93.5 -247.5t-254.5 -86.5q-177 0 -263.5 86.5t-92.5 233.5h200q3 -70 43.5 -116t112.5 -46
q149 0 149 145q0 53 -15.5 85t-65 70.5t-158.5 98.5q-158 87 -219.5 168.5t-61.5 206.5q0 179 152 293q-80 80 -80 199q0 85 33 152.5t109 111t186 43.5q164 0 246 -85.5t85 -221.5zM240 637q0 -65 34 -113.5t125 -101.5q52 -30 88 -51.5t56.5 -34.5t27.5 -17q64 67 64 166
q0 70 -30 119t-118 103q-34 21 -61 37.5t-42.5 26t-27 17t-16.5 10.5t-8.5 5.5t-5.5 3.5q-42 -29 -64 -74t-22 -96z" />
    <glyph glyph-name="dieresis" unicode="&#xa8;" 
d="M338 1223h-176v233h176v-233zM657 1223h-176v233h176v-233z" />
    <glyph glyph-name="copyright" unicode="&#xa9;" horiz-adv-x="1314" 
d="M768 567h150q-3 -33 -10.5 -64t-26.5 -66t-46 -60.5t-72 -42.5t-101 -17q-62 0 -109 19t-77 51t-49 79t-26.5 99t-7.5 115q0 176 65 278.5t208 102.5q66 0 116 -22t78 -59t41.5 -79t13.5 -88h-147q-2 53 -25.5 90t-78.5 37q-62 0 -90.5 -60.5t-28.5 -183.5
q0 -128 26.5 -193t90.5 -65q91 0 106 129zM659 1360q253 0 414.5 -182t161.5 -492q0 -160 -43 -288.5t-120.5 -212.5t-182.5 -128.5t-230 -44.5q-128 0 -234 45t-183 129.5t-119.5 212.5t-42.5 287q0 308 160 491t419 183zM657 1249q-214 0 -336 -145.5t-122 -419.5
q0 -255 125.5 -408t332.5 -153q215 0 337 148.5t122 412.5q0 259 -126.5 412t-332.5 153z" />
    <glyph glyph-name="ordfeminine" unicode="&#xaa;" horiz-adv-x="604" 
d="M532 1061v-307q0 -94 7 -162h-140q-8 24 -8 74q-30 -45 -68.5 -64.5t-101.5 -19.5q-86 0 -136 60.5t-50 143.5q0 49 17 87.5t45 62t67 38.5t78.5 21t83.5 6q39 0 53 -2v54q0 31 -4.5 51.5t-23 37.5t-52.5 17q-44 0 -63.5 -23t-22.5 -67h-150q2 41 14.5 75t38.5 63.5
t73.5 46t113.5 16.5q54 0 95 -11.5t66 -30.5t40.5 -46.5t21.5 -56.5t6 -64zM379 858v33h-47q-137 0 -137 -94q0 -38 19.5 -62t61.5 -24q52 0 77.5 35t25.5 112z" />
    <glyph glyph-name="guillemotleft" unicode="&#xab;" horiz-adv-x="897" 
d="M483 889l-235 -357l235 -358h-178l-239 358l239 357h178zM829 889l-235 -357l235 -358h-178l-239 358l239 357h178z" />
    <glyph glyph-name="logicalnot" unicode="&#xac;" horiz-adv-x="1052" 
d="M82 690h874v-520h-168v356h-706v164z" />
    <glyph glyph-name="uni00AD" unicode="&#xad;" horiz-adv-x="571" 
d="M66 627h438v-187h-438v187z" />
    <glyph glyph-name="registered" unicode="&#xae;" horiz-adv-x="571" 
d="M262 993h-65v271h112q46 0 77.5 -20t31.5 -62q0 -48 -45 -64q25 -11 31 -28.5t6 -47.5q0 -33 4 -49h-70q-4 8 -4 54q0 27 -9.5 37t-35.5 10h-33v-101zM266 1210v-65h41q39 0 39 33q0 32 -41 32h-39zM301 1403q118 0 193 -80t75 -201q0 -128 -75 -206t-193 -78
q-117 0 -192.5 79t-75.5 205q0 121 75 201t193 80zM299 1343q-93 0 -147 -62.5t-54 -160.5q0 -94 57.5 -157.5t143.5 -63.5q99 0 152 59.5t53 161.5q0 95 -57 159t-148 64z" />
    <glyph glyph-name="macron" unicode="&#xaf;" 
d="M160 1409h495v-168h-495v168z" />
    <glyph glyph-name="degree" unicode="&#xb0;" horiz-adv-x="587" 
d="M297 1366q112 0 180 -71t68 -179q0 -118 -72.5 -186t-177.5 -68q-111 0 -178.5 68t-67.5 180q0 113 70.5 184.5t177.5 71.5zM297 1251q-58 0 -89.5 -38t-31.5 -101q0 -60 32.5 -98.5t88.5 -38.5t87.5 38t31.5 101q0 58 -30 97.5t-89 39.5z" />
    <glyph glyph-name="plusminus" unicode="&#xb1;" horiz-adv-x="1101" 
d="M473 1124h158v-348h364v-153h-364v-351h-158v351h-367v153h367v348zM995 0h-889v156h889v-156z" />
    <glyph glyph-name="two.sups" unicode="&#xb2;" horiz-adv-x="600" 
d="M543 862h-492v15q0 103 49.5 188t161.5 176q66 55 90.5 91.5t24.5 68.5q0 94 -82 94q-46 0 -67.5 -29.5t-26.5 -89.5h-148q3 108 64 178t186 70q122 0 181 -63.5t59 -157.5q0 -38 -9 -68t-32 -59t-42 -47.5t-60 -54.5q-3 -2 -5 -4t-5 -4.5t-5 -4.5q-69 -58 -102 -94.5
t-43 -69.5h327z" />
    <glyph glyph-name="three.sups" unicode="&#xb3;" horiz-adv-x="614" 
d="M236 1196v129h43q102 0 102 86q0 84 -84 84q-25 0 -42 -8t-26.5 -25t-13.5 -28t-8 -31h-148q2 26 8.5 51t23.5 57.5t42.5 56t70.5 40t103 16.5q118 0 176 -56t58 -145q0 -64 -32 -102.5t-69 -50.5q21 -7 40.5 -19t41 -33t34.5 -55.5t13 -77.5q0 -103 -66 -167t-200 -64
q-71 0 -123.5 21t-81 56.5t-42 73.5t-15.5 80h156q8 -47 31 -76.5t77 -29.5q101 0 101 111q0 57 -32.5 81.5t-97.5 24.5h-40z" />
    <glyph glyph-name="acute" unicode="&#xb4;" 
d="M485 1473h248l-264 -281h-184z" />
    <glyph glyph-name="uni00B5" unicode="&#xb5;" horiz-adv-x="935" 
d="M420 -18q-82 0 -117 53q0 -53 10 -410l-207 -8q1 80 3.5 347t3.5 398v691h213v-699q0 -93 27.5 -140.5t103.5 -47.5q73 0 114 54.5t41 187.5v645h211v-750q0 -250 4 -303h-202q-11 50 -11 117q-31 -68 -76.5 -101.5t-117.5 -33.5z" />
    <glyph glyph-name="paragraph" unicode="&#xb6;" horiz-adv-x="937" 
d="M795 -272h-156v573h-145q-110 0 -188 26t-133.5 84.5t-82.5 155.5t-27 236q0 258 103.5 371.5t314.5 113.5h158q5 75 18 117h142q-4 -78 -4 -129v-1548zM594 467h45v666h-43q-53 0 -80.5 -24t-42 -95t-14.5 -211q0 -201 26 -268.5t109 -67.5z" />
    <glyph glyph-name="periodcentered" unicode="&#xb7;" horiz-adv-x="364" 
d="M291 410h-217v303h217v-303z" />
    <glyph glyph-name="cedilla" unicode="&#xb8;" 
d="M354 6h140l-41 -76q151 -47 151 -168q0 -79 -55.5 -126.5t-157.5 -47.5t-162 35l33 121q40 -25 107 -25q63 0 63 45q0 61 -137 78v52z" />
    <glyph glyph-name="one.sups" unicode="&#xb9;" horiz-adv-x="413" 
d="M315 862h-161v580q-59 -16 -111 -12v120q98 10 158 74h114v-762z" />
    <glyph glyph-name="ordmasculine" unicode="&#xba;" horiz-adv-x="614" 
d="M311 1270q128 0 193 -89t65 -249q0 -350 -264 -350q-125 0 -192.5 90t-67.5 258q0 162 68 251t198 89zM309 1143q-56 0 -80 -54t-24 -159q0 -116 24 -168.5t80 -52.5q57 0 82 52t25 173q0 106 -25 157.5t-82 51.5z" />
    <glyph glyph-name="guillemotright" unicode="&#xbb;" horiz-adv-x="897" 
d="M414 174l233 356l-233 361h178l237 -361l-237 -356h-178zM66 174l237 356l-237 361h178l239 -361l-239 -356h-178z" />
    <glyph glyph-name="onequarter" unicode="&#xbc;" horiz-adv-x="1292" 
d="M293 2h-139l729 1350h139zM338 596h-162v580q-61 -17 -110 -13v121q97 10 157 74h115v-762zM1114 2h-151v186h-306v119l261 447h196v-441h94l-12 -125h-82v-186zM809 313h154v115q0 116 6 186q-13 -27 -38.5 -75t-63.5 -118t-58 -108z" />
    <glyph glyph-name="onehalf" unicode="&#xbd;" horiz-adv-x="1339" 
d="M279 0h-140l729 1350h140zM328 596h-162v580q-61 -17 -111 -13v121q98 10 158 74h115v-762zM1239 2h-491v14q0 103 49 189t161 176q66 55 90.5 91.5t24.5 68.5q0 94 -82 94q-46 0 -67.5 -29.5t-26.5 -89.5h-147q2 70 26 123.5t81 89t142 35.5q122 0 181 -63.5t59 -157.5
q0 -38 -9 -68t-32 -59t-42 -47.5t-60 -54.5q-10 -8 -15 -13q-69 -58 -102 -94.5t-43 -69.5h328z" />
    <glyph glyph-name="threequarters" unicode="&#xbe;" horiz-adv-x="1419" 
d="M461 0h-139l729 1350h139zM1260 2h-152v186h-305v119l260 447h197v-441h94l-13 -125h-81v-186zM954 313h154v115q0 116 6 186q-13 -27 -38.5 -75t-63.5 -118t-58 -108zM250 930v129h43q102 0 102 86q0 84 -84 84q-25 0 -42 -8t-26.5 -25t-13.5 -28t-8 -31h-147
q2 26 8.5 51t23.5 57.5t42.5 56t70.5 40t103 16.5q118 0 175.5 -55.5t57.5 -145.5q0 -64 -31.5 -102.5t-68.5 -50.5q21 -7 40.5 -19t41 -33t34.5 -55.5t13 -77.5q0 -103 -66.5 -167t-200.5 -64q-71 0 -123.5 21t-81 56.5t-42 73.5t-15.5 80h156q8 -47 31 -76.5t77 -29.5
q101 0 101 110q0 57 -32 82t-97 25h-41z" />
    <glyph glyph-name="questiondown" unicode="&#xbf;" horiz-adv-x="765" 
d="M37 -16q0 106 33 184t120 192q91 123 91 248v17h213v-31q0 -90 -31 -169.5t-111 -184.5q-57 -74 -81.5 -132t-24.5 -124q0 -166 131 -166q70 0 103 51t38 147h197q-1 -57 -11.5 -108.5t-36.5 -100t-64.5 -83.5t-98.5 -56t-135 -20q-92 1 -158.5 28t-103.5 75t-53.5 105.5
t-16.5 127.5zM281 1053h215v-295h-215v295z" />
    <glyph glyph-name="Agrave" unicode="&#xc0;" horiz-adv-x="964" 
d="M643 381h-334l-80 -381h-215l326 1389h278l332 -1389h-225zM348 569h256q-17 81 -42 197.5t-38 178.5t-26.5 130.5t-20.5 112.5h-6q-5 -37 -13 -83.5t-22 -115.5t-24 -118t-31.5 -150t-32.5 -152zM102 1724h267l223 -245h-211z" />
    <glyph glyph-name="Aacute" unicode="&#xc1;" horiz-adv-x="964" 
d="M643 381h-334l-80 -381h-215l326 1389h278l332 -1389h-225zM348 569h256q-17 81 -42 197.5t-38 178.5t-26.5 130.5t-20.5 112.5h-6q-5 -37 -13 -83.5t-22 -115.5t-24 -118t-31.5 -150t-32.5 -152zM598 1731h258l-281 -246h-206z" />
    <glyph glyph-name="Acircumflex" unicode="&#xc2;" horiz-adv-x="964" 
d="M643 381h-334l-80 -381h-215l326 1389h278l332 -1389h-225zM348 569h256q-17 81 -42 197.5t-38 178.5t-26.5 130.5t-20.5 112.5h-6q-5 -37 -13 -83.5t-22 -115.5t-24 -118t-31.5 -150t-32.5 -152zM362 1720h236l201 -235h-215l-105 125l-102 -125h-213z" />
    <glyph glyph-name="Atilde" unicode="&#xc3;" horiz-adv-x="964" 
d="M643 381h-334l-80 -381h-215l326 1389h278l332 -1389h-225zM348 569h256q-17 81 -42 197.5t-38 178.5t-26.5 130.5t-20.5 112.5h-6q-5 -37 -13 -83.5t-22 -115.5t-24 -118t-31.5 -150t-32.5 -152zM317 1483h-139v47q0 100 44 144t116 44q57 0 148 -38t114 -38q47 0 47 60
v18h137v-34q0 -113 -41.5 -160t-121.5 -47q-55 0 -143.5 36.5t-112.5 36.5q-48 0 -48 -47v-22z" />
    <glyph glyph-name="Adieresis" unicode="&#xc4;" horiz-adv-x="964" 
d="M643 381h-334l-80 -381h-215l326 1389h278l332 -1389h-225zM348 569h256q-17 81 -42 197.5t-38 178.5t-26.5 130.5t-20.5 112.5h-6q-5 -37 -13 -83.5t-22 -115.5t-24 -118t-31.5 -150t-32.5 -152zM403 1487h-180v229h180v-229zM739 1487h-182v229h182v-229z" />
    <glyph glyph-name="Aring" unicode="&#xc5;" horiz-adv-x="964" 
d="M643 381h-334l-80 -381h-215l326 1389h278l332 -1389h-225zM348 569h256q-17 81 -42 197.5t-38 178.5t-26.5 130.5t-20.5 112.5h-6q-5 -37 -13 -83.5t-22 -115.5t-24 -118t-31.5 -150t-32.5 -152zM483 1456q-92 0 -146 52t-54 130q0 80 53 133.5t145 53.5t145.5 -52
t53.5 -133q0 -80 -54.5 -132t-142.5 -52zM481 1552q40 0 63 25.5t23 60.5q0 37 -22 64t-64 27q-43 0 -64.5 -26t-21.5 -63q0 -36 21.5 -62t64.5 -26z" />
    <glyph glyph-name="AE" unicode="&#xc6;" horiz-adv-x="1429" 
d="M532 1389h830v-193h-483v-375h460v-190h-460v-441h514l-27 -190h-700v449h-306l-178 -449h-225zM438 637h228v586h-4q-50 -119 -224 -586z" />
    <glyph glyph-name="Ccedilla" unicode="&#xc7;" horiz-adv-x="958" 
d="M692 397h215q-2 -24 -4.5 -43.5t-12 -61.5t-22.5 -75.5t-39 -75.5t-59 -72t-84 -54.5t-113 -32.5l-28 -52q151 -47 151 -168q0 -79 -55.5 -126.5t-157.5 -47.5q-101 0 -161 35l32 121q40 -25 107 -25q63 0 63 45q0 61 -137 78v52l47 88q-67 9 -121 36t-90.5 65
t-63.5 93.5t-42.5 111.5t-24.5 129.5t-11.5 136.5t-2.5 144q0 711 440 711q73 0 133 -18.5t99 -46t68.5 -68.5t45 -77.5t25.5 -81t12.5 -71t3.5 -55.5h-215q-10 234 -174 234q-52 0 -90.5 -27t-62 -72.5t-38 -115.5t-19.5 -144.5t-5 -171.5q0 -90 4.5 -161t17.5 -143.5
t35 -120.5t60 -78.5t90 -30.5q160 0 184 237z" />
    <glyph glyph-name="Egrave" unicode="&#xc8;" horiz-adv-x="882" 
d="M791 821v-188h-451v-447h504l-27 -186h-690v1389h686v-191h-473v-377h451zM100 1731h267l223 -246h-211z" />
    <glyph glyph-name="Eacute" unicode="&#xc9;" horiz-adv-x="882" 
d="M791 821v-188h-451v-447h504l-27 -186h-690v1389h686v-191h-473v-377h451zM569 1729h258l-280 -246h-207z" />
    <glyph glyph-name="Ecircumflex" unicode="&#xca;" horiz-adv-x="882" 
d="M791 821v-188h-451v-447h504l-27 -186h-690v1389h686v-191h-473v-377h451zM348 1718h236l200 -235h-215l-104 125l-103 -125h-212z" />
    <glyph glyph-name="Edieresis" unicode="&#xcb;" horiz-adv-x="882" 
d="M791 821v-188h-451v-447h504l-27 -186h-690v1389h686v-191h-473v-377h451zM389 1495h-180v229h180v-229zM725 1495h-182v229h182v-229z" />
    <glyph glyph-name="Igrave" unicode="&#xcc;" horiz-adv-x="471" 
d="M127 1389h215v-1389h-215v1389zM-139 1737h266l223 -246h-211z" />
    <glyph glyph-name="Iacute" unicode="&#xcd;" horiz-adv-x="471" 
d="M127 1389h215v-1389h-215v1389zM358 1731h258l-280 -246h-207z" />
    <glyph glyph-name="Icircumflex" unicode="&#xce;" horiz-adv-x="471" 
d="M127 1389h215v-1389h-215v1389zM117 1720h235l201 -235h-215l-105 125l-102 -125h-213z" />
    <glyph glyph-name="Idieresis" unicode="&#xcf;" horiz-adv-x="471" 
d="M127 1389h215v-1389h-215v1389zM158 1499h-181v230h181v-230zM494 1499h-183v230h183v-230z" />
    <glyph glyph-name="Eth" unicode="&#xd0;" horiz-adv-x="1052" 
d="M12 817h135v572h342q254 0 370 -165t116 -499q0 -365 -116.5 -545t-387.5 -180h-324v637h-135v180zM365 1206v-389h235v-180h-235v-459h102q157 0 221 127.5t64 417.5q0 257 -63.5 370t-219.5 113h-104z" />
    <glyph glyph-name="Ntilde" unicode="&#xd1;" horiz-adv-x="1079" 
d="M322 0h-195v1389h250q354 -925 376 -990q10 -31 15 -51h2q-12 209 -12 606v435h194v-1389h-239q-52 138 -136 363q-248 663 -263 717q0 3 -1 5h-2q11 -189 11 -634v-451zM375 1509h-139v47q0 100 44 144.5t115 44.5q57 0 148 -38t114 -38q48 0 48 60v18h137v-35
q0 -113 -42 -160t-122 -47q-55 0 -143.5 37t-112.5 37q-47 0 -47 -47v-23z" />
    <glyph glyph-name="Ograve" unicode="&#xd2;" horiz-adv-x="1028" 
d="M518 1409q222 0 327 -172t105 -532q0 -376 -104.5 -552t-337.5 -176q-220 0 -325 177t-105 553q0 702 440 702zM514 1225q-114 0 -164.5 -129t-50.5 -387q0 -273 50.5 -411t164.5 -138q118 0 166.5 133.5t48.5 413.5q0 270 -49.5 394t-165.5 124zM160 1745h266l223 -246
h-211z" />
    <glyph glyph-name="Oacute" unicode="&#xd3;" horiz-adv-x="1028" 
d="M518 1409q222 0 327 -172t105 -532q0 -376 -104.5 -552t-337.5 -176q-220 0 -325 177t-105 553q0 702 440 702zM514 1225q-114 0 -164.5 -129t-50.5 -387q0 -273 50.5 -411t164.5 -138q118 0 166.5 133.5t48.5 413.5q0 270 -49.5 394t-165.5 124zM616 1745h258l-280 -246
h-207z" />
    <glyph glyph-name="Ocircumflex" unicode="&#xd4;" horiz-adv-x="1028" 
d="M518 1409q222 0 327 -172t105 -532q0 -376 -104.5 -552t-337.5 -176q-220 0 -325 177t-105 553q0 702 440 702zM514 1225q-114 0 -164.5 -129t-50.5 -387q0 -273 50.5 -411t164.5 -138q118 0 166.5 133.5t48.5 413.5q0 270 -49.5 394t-165.5 124zM395 1735h236l200 -236
h-215l-104 125l-102 -125h-213z" />
    <glyph glyph-name="Otilde" unicode="&#xd5;" horiz-adv-x="1028" 
d="M518 1409q222 0 327 -172t105 -532q0 -376 -104.5 -552t-337.5 -176q-220 0 -325 177t-105 553q0 702 440 702zM514 1225q-114 0 -164.5 -129t-50.5 -387q0 -273 50.5 -411t164.5 -138q118 0 166.5 133.5t48.5 413.5q0 270 -49.5 394t-165.5 124zM350 1509h-139v47
q0 100 44 144.5t116 44.5q57 0 148 -38t114 -38q47 0 47 60v18h137v-35q0 -113 -42 -160t-122 -47q-55 0 -143.5 37t-112.5 37q-47 0 -47 -47v-23z" />
    <glyph glyph-name="Odieresis" unicode="&#xd6;" horiz-adv-x="1028" 
d="M518 1409q222 0 327 -172t105 -532q0 -376 -104.5 -552t-337.5 -176q-220 0 -325 177t-105 553q0 702 440 702zM514 1225q-114 0 -164.5 -129t-50.5 -387q0 -273 50.5 -411t164.5 -138q118 0 166.5 133.5t48.5 413.5q0 270 -49.5 394t-165.5 124zM436 1513h-180v230h180
v-230zM772 1513h-182v230h182v-230z" />
    <glyph glyph-name="multiply" unicode="&#xd7;" horiz-adv-x="1105" 
d="M993 170l-106 -113l-334 344l-332 -344l-108 113l333 344l-333 344l104 109l336 -344l334 344l106 -109l-334 -346z" />
    <glyph glyph-name="Oslash" unicode="&#xd8;" horiz-adv-x="1028" 
d="M518 1409q137 0 232 -68l22 50h127l-65 -138q116 -170 116 -548q0 -374 -102.5 -551t-339.5 -177q-156 0 -250 82l-29 -59h-125l76 156q-102 176 -102 551q0 359 110 530.5t330 171.5zM293 709q0 -158 16 -283l350 731q-51 72 -145 72q-117 0 -169 -129t-52 -391z
M514 158q119 0 170 136t51 413q0 190 -20 301l-359 -746q51 -104 158 -104z" />
    <glyph glyph-name="Ugrave" unicode="&#xd9;" horiz-adv-x="1054" 
d="M115 1389h215v-963q0 -266 198 -266q58 0 97.5 19.5t60 58t29 83t8.5 105.5v963h217v-967q0 -445 -416 -445q-114 0 -195.5 32t-127 93t-66 138.5t-20.5 179.5v969zM172 1726h266l224 -245h-211z" />
    <glyph glyph-name="Uacute" unicode="&#xda;" horiz-adv-x="1054" 
d="M115 1389h215v-963q0 -266 198 -266q58 0 97.5 19.5t60 58t29 83t8.5 105.5v963h217v-967q0 -445 -416 -445q-114 0 -195.5 32t-127 93t-66 138.5t-20.5 179.5v969zM629 1745h258l-281 -246h-207z" />
    <glyph glyph-name="Ucircumflex" unicode="&#xdb;" horiz-adv-x="1054" 
d="M115 1389h215v-963q0 -266 198 -266q58 0 97.5 19.5t60 58t29 83t8.5 105.5v963h217v-967q0 -445 -416 -445q-114 0 -195.5 32t-127 93t-66 138.5t-20.5 179.5v969zM408 1735h235l201 -236h-215l-105 125l-102 -125h-213z" />
    <glyph glyph-name="Udieresis" unicode="&#xdc;" horiz-adv-x="1054" 
d="M115 1389h215v-963q0 -266 198 -266q58 0 97.5 19.5t60 58t29 83t8.5 105.5v963h217v-967q0 -445 -416 -445q-114 0 -195.5 32t-127 93t-66 138.5t-20.5 179.5v969zM449 1513h-181v230h181v-230zM784 1513h-182v230h182v-230z" />
    <glyph glyph-name="Yacute" unicode="&#xdd;" horiz-adv-x="899" 
d="M557 0h-217v504q0 25 -8 41l-350 844h239q198 -530 234 -656q23 70 63 181.5t93 256t79 218.5h228l-355 -846q-6 -12 -6 -43v-500zM551 1731h258l-281 -246h-206z" />
    <glyph glyph-name="Thorn" unicode="&#xde;" horiz-adv-x="962" 
d="M127 0v1389h219v-285h182q177 0 281 -96.5t104 -284.5q0 -208 -106 -310t-309 -102h-152v-311h-219zM346 920v-426h137q110 0 162.5 52t52.5 167q0 101 -52 154t-150 53h-150z" />
    <glyph glyph-name="germandbls" unicode="&#xdf;" horiz-adv-x="966" 
d="M489 1468q86 0 152 -21t107 -55t67.5 -82.5t36.5 -99t10 -108.5v-78l-219 -221v-6l80 -80q104 -107 147 -192t43 -193q0 -73 -18 -134t-55.5 -110t-103 -76.5t-154.5 -27.5q-130 0 -193 53v196q80 -73 182 -73q131 0 131 147q0 61 -25.5 114t-94.5 120l-84 80
q-74 76 -73 138t75 146l153 164q2 50 -4.5 88t-23.5 70.5t-51.5 49.5t-84.5 17q-88 0 -126.5 -51.5t-38.5 -161.5v-1081h-211v1090q0 378 376 378z" />
    <glyph glyph-name="agrave" unicode="&#xe0;" horiz-adv-x="892" 
d="M776 770v-555q0 -43 8 -215h-192q-10 58 -10 104q-66 -122 -242 -122q-72 0 -127.5 27t-87.5 72t-48 98t-16 112q0 160 107.5 252t306.5 92q67 0 94 -4v125q0 30 -4 52.5t-16 46.5t-39.5 37t-69.5 13t-70 -12.5t-41 -37t-18 -45.5t-8 -54h-201q1 49 11.5 92t35 85
t62.5 71.5t99 48t139 18.5q327 0 327 -301zM573 432v43q-25 4 -88 4q-110 0 -161.5 -46.5t-51.5 -123.5q0 -64 34 -108.5t102 -44.5q95 0 130 66.5t35 209.5zM106 1473h250l203 -281h-188z" />
    <glyph glyph-name="aacute" unicode="&#xe1;" horiz-adv-x="892" 
d="M776 770v-555q0 -43 8 -215h-192q-10 58 -10 104q-66 -122 -242 -122q-72 0 -127.5 27t-87.5 72t-48 98t-16 112q0 160 107.5 252t306.5 92q67 0 94 -4v125q0 30 -4 52.5t-16 46.5t-39.5 37t-69.5 13t-70 -12.5t-41 -37t-18 -45.5t-8 -54h-201q1 49 11.5 92t35 85
t62.5 71.5t99 48t139 18.5q327 0 327 -301zM573 432v43q-25 4 -88 4q-110 0 -161.5 -46.5t-51.5 -123.5q0 -64 34 -108.5t102 -44.5q95 0 130 66.5t35 209.5zM518 1473h248l-264 -281h-185z" />
    <glyph glyph-name="acircumflex" unicode="&#xe2;" horiz-adv-x="892" 
d="M776 770v-555q0 -43 8 -215h-192q-10 58 -10 104q-66 -122 -242 -122q-72 0 -127.5 27t-87.5 72t-48 98t-16 112q0 160 107.5 252t306.5 92q67 0 94 -4v125q0 30 -4 52.5t-16 46.5t-39.5 37t-69.5 13t-70 -12.5t-41 -37t-18 -45.5t-8 -54h-201q1 49 11.5 92t35 85
t62.5 71.5t99 48t139 18.5q327 0 327 -301zM573 432v43q-25 4 -88 4q-110 0 -161.5 -46.5t-51.5 -123.5q0 -64 34 -108.5t102 -44.5q95 0 130 66.5t35 209.5zM330 1458h225l182 -276h-196l-99 155l-98 -155h-194z" />
    <glyph glyph-name="atilde" unicode="&#xe3;" horiz-adv-x="892" 
d="M776 770v-555q0 -43 8 -215h-192q-10 58 -10 104q-66 -122 -242 -122q-72 0 -127.5 27t-87.5 72t-48 98t-16 112q0 160 107.5 252t306.5 92q67 0 94 -4v125q0 30 -4 52.5t-16 46.5t-39.5 37t-69.5 13t-70 -12.5t-41 -37t-18 -45.5t-8 -54h-201q1 49 11.5 92t35 85
t62.5 71.5t99 48t139 18.5q327 0 327 -301zM573 432v43q-25 4 -88 4q-110 0 -161.5 -46.5t-51.5 -123.5q0 -64 34 -108.5t102 -44.5q95 0 130 66.5t35 209.5zM309 1202h-145v53q0 181 151 181q46 0 92.5 -20t83 -40t58.5 -20q20 0 29.5 14.5t9.5 52.5v15h141v-45
q0 -108 -40.5 -151.5t-113.5 -43.5q-43 0 -87.5 20t-81.5 40t-60 20q-37 0 -37 -53v-23z" />
    <glyph glyph-name="adieresis" unicode="&#xe4;" horiz-adv-x="892" 
d="M776 770v-555q0 -43 8 -215h-192q-10 58 -10 104q-66 -122 -242 -122q-72 0 -127.5 27t-87.5 72t-48 98t-16 112q0 160 107.5 252t306.5 92q67 0 94 -4v125q0 30 -4 52.5t-16 46.5t-39.5 37t-69.5 13t-70 -12.5t-41 -37t-18 -45.5t-8 -54h-201q1 49 11.5 92t35 85
t62.5 71.5t99 48t139 18.5q327 0 327 -301zM573 432v43q-25 4 -88 4q-110 0 -161.5 -46.5t-51.5 -123.5q0 -64 34 -108.5t102 -44.5q95 0 130 66.5t35 209.5zM373 1223h-176v233h176v-233zM692 1223h-176v233h176v-233z" />
    <glyph glyph-name="aring" unicode="&#xe5;" horiz-adv-x="892" 
d="M776 770v-555q0 -43 8 -215h-192q-10 58 -10 104q-66 -122 -242 -122q-72 0 -127.5 27t-87.5 72t-48 98t-16 112q0 160 107.5 252t306.5 92q67 0 94 -4v125q0 30 -4 52.5t-16 46.5t-39.5 37t-69.5 13t-70 -12.5t-41 -37t-18 -45.5t-8 -54h-201q1 49 11.5 92t35 85
t62.5 71.5t99 48t139 18.5q327 0 327 -301zM573 432v43q-25 4 -88 4q-110 0 -161.5 -46.5t-51.5 -123.5q0 -64 34 -108.5t102 -44.5q95 0 130 66.5t35 209.5zM451 1157q-92 0 -146.5 52t-54.5 130q0 80 53.5 133.5t145.5 53.5t145 -52t53 -133t-54 -132.5t-142 -51.5z
M449 1253q40 0 63 25.5t23 60.5q0 37 -22 64t-64 27q-43 0 -65 -26t-22 -63q0 -36 22 -62t65 -26z" />
    <glyph glyph-name="ae" unicode="&#xe6;" horiz-adv-x="1372" 
d="M1096 332h209q-2 -18 -4.5 -36t-9.5 -49t-19.5 -58t-30.5 -59t-46 -57t-63.5 -46.5t-86 -33t-109.5 -11.5q-114 0 -180 36.5t-111 108.5q-48 -72 -114.5 -108.5t-174.5 -36.5q-98 0 -166.5 44.5t-98.5 114t-30 156.5q0 75 25 135.5t77 107.5t140 73t207 26h63v100
q0 80 -29 123t-106 43q-130 0 -137 -149h-203q2 65 20.5 119t57 99.5t106.5 71t160 25.5q191 0 256 -108q85 105 254 108q82 1 145.5 -22.5t103.5 -64t65.5 -98.5t36 -121t10.5 -138q0 -64 -4 -146h-535q0 -166 36 -243.5t128 -77.5q43 0 74 15.5t47.5 43t24.5 53.5t12 60z
M578 428v53h-62q-123 0 -183.5 -41t-60.5 -129q0 -67 34.5 -111t101.5 -44q51 0 85 20t52 58.5t25.5 84.5t7.5 109zM776 639h324q0 124 -35.5 189t-122.5 65q-166 0 -166 -254z" />
    <glyph glyph-name="ccedilla" unicode="&#xe7;" horiz-adv-x="835" 
d="M584 344h207q-1 -22 -3 -40.5t-9.5 -54.5t-19.5 -65t-34.5 -64t-52 -60.5t-75 -46t-101.5 -27.5l-25 -47q152 -47 152 -168q0 -79 -55.5 -126.5t-157.5 -47.5q-104 0 -162 34l33 121q39 -24 106 -24q64 0 64 45q0 60 -138 77v52l45 86q-84 13 -143 60t-91.5 122.5
t-46.5 164t-14 200.5t20 204.5t62.5 169t118.5 119.5t180 43q68 0 123.5 -17t90.5 -42t61 -61.5t39 -67t21 -68.5t9.5 -56t2.5 -38h-216q-8 174 -133 174q-87 0 -125 -92t-38 -271q0 -186 37 -279t122 -93q36 0 63 14.5t41.5 32.5t24 48.5t12 46.5t5.5 42z" />
    <glyph glyph-name="egrave" unicode="&#xe8;" horiz-adv-x="874" 
d="M811 475h-535q0 -67 6.5 -117.5t23 -99t51.5 -74.5t87 -26q38 0 67.5 13.5t45.5 30.5t26.5 41.5t13.5 39t5 30.5h205q-28 -217 -187 -295q-77 -38 -180 -38q-95 0 -165.5 33t-110 83.5t-63.5 127t-31 147t-7 159.5q0 257 96 399t287 142q87 0 152.5 -26.5t106 -71
t66 -110.5t35 -136t9.5 -156q0 -56 -4 -96zM279 631h325q0 55 -6 97t-21.5 82.5t-48.5 62.5t-82 22q-33 0 -59 -11t-43 -27.5t-29.5 -42t-19 -47t-10.5 -51.5t-4.5 -46t-1.5 -39zM111 1473h249l203 -281h-188z" />
    <glyph glyph-name="eacute" unicode="&#xe9;" horiz-adv-x="874" 
d="M811 475h-535q0 -67 6.5 -117.5t23 -99t51.5 -74.5t87 -26q38 0 67.5 13.5t45.5 30.5t26.5 41.5t13.5 39t5 30.5h205q-28 -217 -187 -295q-77 -38 -180 -38q-95 0 -165.5 33t-110 83.5t-63.5 127t-31 147t-7 159.5q0 257 96 399t287 142q87 0 152.5 -26.5t106 -71
t66 -110.5t35 -136t9.5 -156q0 -56 -4 -96zM279 631h325q0 55 -6 97t-21.5 82.5t-48.5 62.5t-82 22q-33 0 -59 -11t-43 -27.5t-29.5 -42t-19 -47t-10.5 -51.5t-4.5 -46t-1.5 -39zM512 1473h248l-264 -281h-185z" />
    <glyph glyph-name="ecircumflex" unicode="&#xea;" horiz-adv-x="874" 
d="M811 475h-535q0 -67 6.5 -117.5t23 -99t51.5 -74.5t87 -26q38 0 67.5 13.5t45.5 30.5t26.5 41.5t13.5 39t5 30.5h205q-28 -217 -187 -295q-77 -38 -180 -38q-95 0 -165.5 33t-110 83.5t-63.5 127t-31 147t-7 159.5q0 257 96 399t287 142q87 0 152.5 -26.5t106 -71
t66 -110.5t35 -136t9.5 -156q0 -56 -4 -96zM279 631h325q0 55 -6 97t-21.5 82.5t-48.5 62.5t-82 22q-33 0 -59 -11t-43 -27.5t-29.5 -42t-19 -47t-10.5 -51.5t-4.5 -46t-1.5 -39zM322 1458h225l182 -276h-197l-98 155l-98 -155h-195z" />
    <glyph glyph-name="edieresis" unicode="&#xeb;" horiz-adv-x="874" 
d="M811 475h-535q0 -67 6.5 -117.5t23 -99t51.5 -74.5t87 -26q38 0 67.5 13.5t45.5 30.5t26.5 41.5t13.5 39t5 30.5h205q-28 -217 -187 -295q-77 -38 -180 -38q-95 0 -165.5 33t-110 83.5t-63.5 127t-31 147t-7 159.5q0 257 96 399t287 142q87 0 152.5 -26.5t106 -71
t66 -110.5t35 -136t9.5 -156q0 -56 -4 -96zM279 631h325q0 55 -6 97t-21.5 82.5t-48.5 62.5t-82 22q-33 0 -59 -11t-43 -27.5t-29.5 -42t-19 -47t-10.5 -51.5t-4.5 -46t-1.5 -39zM365 1223h-177v233h177v-233zM684 1223h-176v233h176v-233z" />
    <glyph glyph-name="igrave" unicode="&#xec;" horiz-adv-x="440" 
d="M113 0v1053h213v-1053h-213zM-121 1473h250l203 -281h-189z" />
    <glyph glyph-name="iacute" unicode="&#xed;" horiz-adv-x="440" 
d="M113 0v1053h213v-1053h-213zM309 1473h248l-264 -281h-184z" />
    <glyph glyph-name="icircumflex" unicode="&#xee;" horiz-adv-x="440" 
d="M113 0v1053h213v-1053h-213zM104 1458h226l182 -276h-197l-98 155l-98 -155h-195z" />
    <glyph glyph-name="idieresis" unicode="&#xef;" horiz-adv-x="440" 
d="M113 0v1053h213v-1053h-213zM147 1223h-176v233h176v-233zM467 1223h-176v233h176v-233z" />
    <glyph glyph-name="eth" unicode="&#xf0;" horiz-adv-x="901" 
d="M147 1298v172q234 -6 383 -100l168 119l52 -90l-136 -96q215 -211 215 -748q0 -292 -92.5 -432.5t-296.5 -140.5q-197 0 -287 134t-90 388q0 148 38.5 256.5t124.5 172.5t212 64q93 0 142 -34q-20 137 -121 227l-193 -139l-57 90l158 110q-89 47 -220 47zM449 825
q-90 0 -130 -80t-40 -243q0 -342 167 -342q92 0 131 80.5t39 267.5q0 174 -34 245.5t-133 71.5z" />
    <glyph glyph-name="ntilde" unicode="&#xf1;" horiz-adv-x="944" 
d="M113 0v725q0 275 -2 328h204q7 -47 7 -119q68 137 239 137q127 0 198.5 -79.5t71.5 -239.5v-752h-213v705q0 91 -29.5 137.5t-103.5 46.5q-84 0 -121.5 -56.5t-37.5 -189.5v-643h-213zM332 1202h-146v53q0 181 152 181q46 0 92 -20t82.5 -40t58.5 -20q20 0 29.5 14.5
t9.5 52.5v15h142v-45q0 -108 -40.5 -151.5t-113.5 -43.5q-43 0 -87.5 20t-81.5 40t-60 20q-37 0 -37 -53v-23z" />
    <glyph glyph-name="ograve" unicode="&#xf2;" horiz-adv-x="897" 
d="M457 1071q185 0 281 -135.5t96 -398.5q0 -557 -388 -557q-191 0 -287 135t-96 417q0 269 104 404t290 135zM451 891q-88 0 -130 -87.5t-42 -271.5q0 -188 40.5 -280t131.5 -92q88 0 127.5 91.5t39.5 278.5t-39.5 274t-127.5 87zM102 1481h250l203 -281h-188z" />
    <glyph glyph-name="oacute" unicode="&#xf3;" horiz-adv-x="897" 
d="M457 1071q185 0 281 -135.5t96 -398.5q0 -557 -388 -557q-191 0 -287 135t-96 417q0 269 104 404t290 135zM451 891q-88 0 -130 -87.5t-42 -271.5q0 -188 40.5 -280t131.5 -92q88 0 127.5 91.5t39.5 278.5t-39.5 274t-127.5 87zM535 1487h247l-264 -281h-184z" />
    <glyph glyph-name="ocircumflex" unicode="&#xf4;" horiz-adv-x="897" 
d="M457 1071q185 0 281 -135.5t96 -398.5q0 -557 -388 -557q-191 0 -287 135t-96 417q0 269 104 404t290 135zM451 891q-88 0 -130 -87.5t-42 -271.5q0 -188 40.5 -280t131.5 -92q88 0 127.5 91.5t39.5 278.5t-39.5 274t-127.5 87zM334 1458h225l182 -276h-196l-99 155
l-98 -155h-194z" />
    <glyph glyph-name="otilde" unicode="&#xf5;" horiz-adv-x="897" 
d="M457 1071q185 0 281 -135.5t96 -398.5q0 -557 -388 -557q-191 0 -287 135t-96 417q0 269 104 404t290 135zM451 891q-88 0 -130 -87.5t-42 -271.5q0 -188 40.5 -280t131.5 -92q88 0 127.5 91.5t39.5 278.5t-39.5 274t-127.5 87zM309 1202h-145v53q0 181 151 181
q46 0 92.5 -20t83 -40t58.5 -20q20 0 29.5 14.5t9.5 52.5v15h141v-45q0 -108 -40.5 -151.5t-113.5 -43.5q-43 0 -87.5 20t-81.5 40t-60 20q-37 0 -37 -53v-23z" />
    <glyph glyph-name="odieresis" unicode="&#xf6;" horiz-adv-x="897" 
d="M457 1071q185 0 281 -135.5t96 -398.5q0 -557 -388 -557q-191 0 -287 135t-96 417q0 269 104 404t290 135zM451 891q-88 0 -130 -87.5t-42 -271.5q0 -188 40.5 -280t131.5 -92q88 0 127.5 91.5t39.5 278.5t-39.5 274t-127.5 87zM377 1223h-176v233h176v-233zM696 1223
h-176v233h176v-233z" />
    <glyph glyph-name="divide" unicode="&#xf7;" horiz-adv-x="1099" 
d="M635 57h-168v213h168v-213zM993 432h-887v162h887v-162zM635 752h-168v215h168v-215z" />
    <glyph glyph-name="oslash" unicode="&#xf8;" horiz-adv-x="897" 
d="M457 1071q126 0 211 -61l26 47h109l-66 -117q97 -139 97 -403q0 -289 -97.5 -423t-290.5 -134q-138 0 -219 61l-30 -53h-107l70 123q-97 135 -97 426q0 268 102.5 401t291.5 133zM451 897q-179 0 -179 -362q0 -120 15 -197l284 500q-42 59 -120 59zM451 154
q91 0 131.5 89t40.5 298q0 98 -13 178l-280 -498q41 -67 121 -67z" />
    <glyph glyph-name="ugrave" unicode="&#xf9;" horiz-adv-x="933" 
d="M823 1053v-750q0 -250 2 -303h-202q-7 37 -11 123q-62 -141 -239 -141q-262 0 -262 315v756h213v-707q0 -92 27.5 -137t97.5 -45q80 0 120.5 55.5t40.5 190.5v643h213zM131 1473h250l203 -281h-189z" />
    <glyph glyph-name="uacute" unicode="&#xfa;" horiz-adv-x="933" 
d="M823 1053v-750q0 -250 2 -303h-202q-7 37 -11 123q-62 -141 -239 -141q-262 0 -262 315v756h213v-707q0 -92 27.5 -137t97.5 -45q80 0 120.5 55.5t40.5 190.5v643h213zM551 1473h248l-264 -281h-185z" />
    <glyph glyph-name="ucircumflex" unicode="&#xfb;" horiz-adv-x="933" 
d="M823 1053v-750q0 -250 2 -303h-202q-7 37 -11 123q-62 -141 -239 -141q-262 0 -262 315v756h213v-707q0 -92 27.5 -137t97.5 -45q80 0 120.5 55.5t40.5 190.5v643h213zM352 1458h226l182 -276h-197l-98 155l-98 -155h-195z" />
    <glyph glyph-name="udieresis" unicode="&#xfc;" horiz-adv-x="933" 
d="M823 1053v-750q0 -250 2 -303h-202q-7 37 -11 123q-62 -141 -239 -141q-262 0 -262 315v756h213v-707q0 -92 27.5 -137t97.5 -45q80 0 120.5 55.5t40.5 190.5v643h213zM395 1223h-176v233h176v-233zM715 1223h-176v233h176v-233z" />
    <glyph glyph-name="yacute" unicode="&#xfd;" horiz-adv-x="835" 
d="M12 1053h232q20 -81 51.5 -209.5t48.5 -199t36.5 -155.5t30 -139.5t13.5 -89.5h2q33 185 182 793h215l-305 -1102q-26 -94 -56 -159.5t-58.5 -102t-68 -56.5t-73 -25t-84.5 -5q-55 0 -88 8v180q28 -4 74 -4q71 0 103.5 43t58.5 154zM494 1473h247l-264 -281h-184z" />
    <glyph glyph-name="thorn" unicode="&#xfe;" horiz-adv-x="935" 
d="M326 -383h-213v1839h213v-526q29 68 84.5 104.5t154.5 36.5q305 0 305 -530q0 -281 -89.5 -421t-248.5 -140q-148 0 -206 110v-473zM655 526q0 201 -39.5 282t-128.5 81q-65 0 -104 -47.5t-52.5 -121.5t-13.5 -183q0 -73 3.5 -126t14 -102.5t28.5 -80t48 -48.5t72 -18
q86 0 129 95.5t43 268.5z" />
    <glyph glyph-name="ydieresis" unicode="&#xff;" horiz-adv-x="835" 
d="M12 1053h232q20 -81 51.5 -209.5t48.5 -199t36.5 -155.5t30 -139.5t13.5 -89.5h2q33 185 182 793h215l-305 -1102q-26 -94 -56 -159.5t-58.5 -102t-68 -56.5t-73 -25t-84.5 -5q-55 0 -88 8v180q28 -4 74 -4q71 0 103.5 43t58.5 154zM346 1223h-176v233h176v-233z
M666 1223h-177v233h177v-233z" />
    <glyph glyph-name="Amacron" unicode="&#x100;" horiz-adv-x="964" 
d="M643 381h-334l-80 -381h-215l326 1389h278l332 -1389h-225zM348 569h256q-17 81 -42 197.5t-38 178.5t-26.5 130.5t-20.5 112.5h-6q-5 -37 -13 -83.5t-22 -115.5t-24 -118t-31.5 -150t-32.5 -152zM221 1673h520v-162h-520v162z" />
    <glyph glyph-name="amacron" unicode="&#x101;" horiz-adv-x="892" 
d="M776 770v-555q0 -43 8 -215h-192q-10 58 -10 104q-66 -122 -242 -122q-72 0 -127.5 27t-87.5 72t-48 98t-16 112q0 160 107.5 252t306.5 92q67 0 94 -4v125q0 30 -4 52.5t-16 46.5t-39.5 37t-69.5 13t-70 -12.5t-41 -37t-18 -45.5t-8 -54h-201q1 49 11.5 92t35 85
t62.5 71.5t99 48t139 18.5q327 0 327 -301zM573 432v43q-25 4 -88 4q-110 0 -161.5 -46.5t-51.5 -123.5q0 -64 34 -108.5t102 -44.5q95 0 130 66.5t35 209.5zM199 1409h495v-168h-495v168z" />
    <glyph glyph-name="Abreve" unicode="&#x102;" horiz-adv-x="964" 
d="M643 381h-334l-80 -381h-215l326 1389h278l332 -1389h-225zM348 569h256q-17 81 -42 197.5t-38 178.5t-26.5 130.5t-20.5 112.5h-6q-5 -37 -13 -83.5t-22 -115.5t-24 -118t-31.5 -150t-32.5 -152zM195 1731h155q9 -45 44.5 -74t88.5 -29q108 0 131 103h154
q-15 -109 -87 -178.5t-202 -69.5q-136 0 -206 71t-78 177z" />
    <glyph glyph-name="abreve" unicode="&#x103;" horiz-adv-x="892" 
d="M776 770v-555q0 -43 8 -215h-192q-10 58 -10 104q-66 -122 -242 -122q-72 0 -127.5 27t-87.5 72t-48 98t-16 112q0 160 107.5 252t306.5 92q67 0 94 -4v125q0 30 -4 52.5t-16 46.5t-39.5 37t-69.5 13t-70 -12.5t-41 -37t-18 -45.5t-8 -54h-201q1 49 11.5 92t35 85
t62.5 71.5t99 48t139 18.5q327 0 327 -301zM573 432v43q-25 4 -88 4q-110 0 -161.5 -46.5t-51.5 -123.5q0 -64 34 -108.5t102 -44.5q95 0 130 66.5t35 209.5zM172 1442h160q18 -105 117 -105q56 0 80.5 28t35.5 77h156q-12 -112 -80.5 -185t-196.5 -73q-129 0 -197 76
t-75 182z" />
    <glyph glyph-name="Aogonek" unicode="&#x104;" horiz-adv-x="964" 
d="M643 381h-334l-80 -381h-215l326 1389h278l332 -1389h2q-82 -79 -82 -156q0 -40 23 -62t63 -22q37 0 78 13l17 -142q-54 -32 -164 -32q-97 0 -157 51t-60 145q0 107 88 205h-33zM348 569h256q-17 81 -42 197.5t-38 178.5t-26.5 130.5t-20.5 112.5h-6q-5 -37 -13 -83.5
t-22 -115.5t-24 -118t-31.5 -150t-32.5 -152z" />
    <glyph glyph-name="aogonek" unicode="&#x105;" horiz-adv-x="892" 
d="M776 770v-555q0 -43 8 -215q-82 -79 -82 -156q0 -40 23 -62t63 -22q37 0 78 13l17 -142q-54 -32 -164 -32q-97 0 -157 51t-60 145q0 109 90 205q-10 62 -10 104q-66 -122 -242 -122q-72 0 -127.5 27t-87.5 72t-48 98t-16 112q0 160 107.5 252t306.5 92q67 0 94 -4v125
q0 30 -4 52.5t-16 46.5t-39.5 37t-69.5 13t-70 -12.5t-41 -37t-18 -45.5t-8 -54h-201q1 49 11.5 92t35 85t62.5 71.5t99 48t139 18.5q327 0 327 -301zM573 432v43q-25 4 -88 4q-110 0 -161.5 -46.5t-51.5 -123.5q0 -64 34 -108.5t102 -44.5q95 0 130 66.5t35 209.5z" />
    <glyph glyph-name="Cacute" unicode="&#x106;" horiz-adv-x="958" 
d="M692 397h215q-2 -26 -4.5 -47.5t-14 -67.5t-27 -82t-46.5 -80t-71.5 -73.5t-102.5 -49.5t-137 -20q-81 0 -145.5 22t-108.5 57.5t-76 92t-50.5 114.5t-29 136t-13.5 145.5t-3 153.5q0 711 440 711q73 0 133 -18.5t99 -46t68.5 -68.5t45 -77.5t25.5 -81t12.5 -71
t3.5 -55.5h-215q-10 234 -174 234q-52 0 -90.5 -27t-62 -72.5t-38 -115.5t-19.5 -144.5t-5 -171.5q0 -90 4.5 -161t17.5 -143.5t35 -120.5t60 -78.5t90 -30.5q160 0 184 237zM588 1745h258l-281 -246h-207z" />
    <glyph glyph-name="cacute" unicode="&#x107;" horiz-adv-x="835" 
d="M584 344h207q-1 -24 -3.5 -44t-11.5 -59.5t-23 -70.5t-41 -68t-63 -61.5t-92 -41.5t-125 -17q-86 0 -151 28t-106 76.5t-66.5 120t-35.5 151t-10 177.5q0 112 20 204.5t62.5 169t118.5 119.5t180 43q68 0 123.5 -17t90.5 -42t61 -61.5t39 -67t21 -68.5t9.5 -56t2.5 -38
h-216q-8 174 -133 174q-87 0 -125 -92t-38 -271q0 -186 37 -279t122 -93q36 0 63 14.5t41.5 32.5t24 48.5t12 46.5t5.5 42zM512 1473h248l-264 -281h-185z" />
    <glyph glyph-name="Ccircumflex" unicode="&#x108;" horiz-adv-x="958" 
d="M692 397h215q-2 -26 -4.5 -47.5t-14 -67.5t-27 -82t-46.5 -80t-71.5 -73.5t-102.5 -49.5t-137 -20q-81 0 -145.5 22t-108.5 57.5t-76 92t-50.5 114.5t-29 136t-13.5 145.5t-3 153.5q0 711 440 711q73 0 133 -18.5t99 -46t68.5 -68.5t45 -77.5t25.5 -81t12.5 -71
t3.5 -55.5h-215q-10 234 -174 234q-52 0 -90.5 -27t-62 -72.5t-38 -115.5t-19.5 -144.5t-5 -171.5q0 -90 4.5 -161t17.5 -143.5t35 -120.5t60 -78.5t90 -30.5q160 0 184 237zM381 1735h235l201 -236h-215l-104 125l-103 -125h-213z" />
    <glyph glyph-name="ccircumflex" unicode="&#x109;" horiz-adv-x="835" 
d="M584 344h207q-1 -24 -3.5 -44t-11.5 -59.5t-23 -70.5t-41 -68t-63 -61.5t-92 -41.5t-125 -17q-86 0 -151 28t-106 76.5t-66.5 120t-35.5 151t-10 177.5q0 112 20 204.5t62.5 169t118.5 119.5t180 43q68 0 123.5 -17t90.5 -42t61 -61.5t39 -67t21 -68.5t9.5 -56t2.5 -38
h-216q-8 174 -133 174q-87 0 -125 -92t-38 -271q0 -186 37 -279t122 -93q36 0 63 14.5t41.5 32.5t24 48.5t12 46.5t5.5 42zM324 1458h225l182 -276h-196l-99 155l-98 -155h-195z" />
    <glyph glyph-name="Cdotaccent" unicode="&#x10a;" horiz-adv-x="958" 
d="M692 397h215q-2 -26 -4.5 -47.5t-14 -67.5t-27 -82t-46.5 -80t-71.5 -73.5t-102.5 -49.5t-137 -20q-81 0 -145.5 22t-108.5 57.5t-76 92t-50.5 114.5t-29 136t-13.5 145.5t-3 153.5q0 711 440 711q73 0 133 -18.5t99 -46t68.5 -68.5t45 -77.5t25.5 -81t12.5 -71
t3.5 -55.5h-215q-10 234 -174 234q-52 0 -90.5 -27t-62 -72.5t-38 -115.5t-19.5 -144.5t-5 -171.5q0 -90 4.5 -161t17.5 -143.5t35 -120.5t60 -78.5t90 -30.5q160 0 184 237zM606 1511h-215v230h215v-230z" />
    <glyph glyph-name="cdotaccent" unicode="&#x10b;" horiz-adv-x="835" 
d="M584 344h207q-1 -24 -3.5 -44t-11.5 -59.5t-23 -70.5t-41 -68t-63 -61.5t-92 -41.5t-125 -17q-86 0 -151 28t-106 76.5t-66.5 120t-35.5 151t-10 177.5q0 112 20 204.5t62.5 169t118.5 119.5t180 43q68 0 123.5 -17t90.5 -42t61 -61.5t39 -67t21 -68.5t9.5 -56t2.5 -38
h-216q-8 174 -133 174q-87 0 -125 -92t-38 -271q0 -186 37 -279t122 -93q36 0 63 14.5t41.5 32.5t24 48.5t12 46.5t5.5 42zM543 1225h-211v231h211v-231z" />
    <glyph glyph-name="Ccaron" unicode="&#x10c;" horiz-adv-x="958" 
d="M692 397h215q-2 -26 -4.5 -47.5t-14 -67.5t-27 -82t-46.5 -80t-71.5 -73.5t-102.5 -49.5t-137 -20q-81 0 -145.5 22t-108.5 57.5t-76 92t-50.5 114.5t-29 136t-13.5 145.5t-3 153.5q0 711 440 711q73 0 133 -18.5t99 -46t68.5 -68.5t45 -77.5t25.5 -81t12.5 -71
t3.5 -55.5h-215q-10 234 -174 234q-52 0 -90.5 -27t-62 -72.5t-38 -115.5t-19.5 -144.5t-5 -171.5q0 -90 4.5 -161t17.5 -143.5t35 -120.5t60 -78.5t90 -30.5q160 0 184 237zM618 1493h-237l-199 236h213l105 -130l102 130h215z" />
    <glyph glyph-name="ccaron" unicode="&#x10d;" horiz-adv-x="835" 
d="M584 344h207q-1 -24 -3.5 -44t-11.5 -59.5t-23 -70.5t-41 -68t-63 -61.5t-92 -41.5t-125 -17q-86 0 -151 28t-106 76.5t-66.5 120t-35.5 151t-10 177.5q0 112 20 204.5t62.5 169t118.5 119.5t180 43q68 0 123.5 -17t90.5 -42t61 -61.5t39 -67t21 -68.5t9.5 -56t2.5 -38
h-216q-8 174 -133 174q-87 0 -125 -92t-38 -271q0 -186 37 -279t122 -93q36 0 63 14.5t41.5 32.5t24 48.5t12 46.5t5.5 42zM551 1184h-225l-185 276h197l100 -155l99 155h196z" />
    <glyph glyph-name="Dcaron" unicode="&#x10e;" horiz-adv-x="1032" 
d="M127 0v1389h342q254 0 369.5 -165t115.5 -499q0 -181 -26.5 -312t-85 -225.5t-156 -141t-235.5 -46.5h-324zM344 1206v-1028h102q157 0 221 127.5t64 417.5q0 257 -63.5 370t-218.5 113h-105zM592 1489h-238l-198 235h213l104 -129l102 129h216z" />
    <glyph glyph-name="dcaron" unicode="&#x10f;" horiz-adv-x="1024" 
d="M608 1456h213v-1171q0 -224 2 -285h-205q-6 81 -6 123q-53 -141 -239 -141q-161 0 -235.5 139.5t-74.5 415.5q0 252 87.5 393t261.5 141q155 0 196 -92v477zM279 532q0 -195 39.5 -281.5t123.5 -86.5q101 0 136.5 84.5t35.5 292.5q0 204 -31 276t-128 72q-86 0 -131 -82
t-45 -275zM1047 967h-140l-10 489h162z" />
    <glyph glyph-name="Dcroat" unicode="&#x110;" horiz-adv-x="1052" 
d="M12 817h135v572h342q254 0 370 -165t116 -499q0 -365 -116.5 -545t-387.5 -180h-324v637h-135v180zM365 1206v-389h235v-180h-235v-459h102q157 0 221 127.5t64 417.5q0 257 -63.5 370t-219.5 113h-104z" />
    <glyph glyph-name="dcroat" unicode="&#x111;" horiz-adv-x="933" 
d="M596 1456h213v-145h119v-140h-119v-886q0 -224 2 -285h-205q-6 40 -6 123q-31 -69 -83 -105t-150 -36q-304 0 -304 548q0 235 85.5 373.5t248.5 138.5q160 0 199 -96v225h-332v140h332v145zM279 524q0 -191 38.5 -275.5t122.5 -84.5q95 0 128.5 86t33.5 270
q0 72 -3.5 121.5t-13 94t-26 70t-44 40t-66.5 14.5q-170 0 -170 -336z" />
    <glyph glyph-name="Emacron" unicode="&#x112;" horiz-adv-x="882" 
d="M791 821v-188h-451v-447h504l-27 -186h-690v1389h686v-191h-473v-377h451zM207 1683h520v-161h-520v161z" />
    <glyph glyph-name="emacron" unicode="&#x113;" horiz-adv-x="874" 
d="M811 475h-535q0 -67 6.5 -117.5t23 -99t51.5 -74.5t87 -26q38 0 67.5 13.5t45.5 30.5t26.5 41.5t13.5 39t5 30.5h205q-28 -217 -187 -295q-77 -38 -180 -38q-95 0 -165.5 33t-110 83.5t-63.5 127t-31 147t-7 159.5q0 257 96 399t287 142q87 0 152.5 -26.5t106 -71
t66 -110.5t35 -136t9.5 -156q0 -56 -4 -96zM279 631h325q0 55 -6 97t-21.5 82.5t-48.5 62.5t-82 22q-33 0 -59 -11t-43 -27.5t-29.5 -42t-19 -47t-10.5 -51.5t-4.5 -46t-1.5 -39zM186 1409h496v-168h-496v168z" />
    <glyph glyph-name="Ebreve" unicode="&#x114;" horiz-adv-x="882" 
d="M791 821v-188h-451v-447h504l-27 -186h-690v1389h686v-191h-473v-377h451zM180 1737h156q9 -45 44.5 -74t88.5 -29q108 0 131 103h154q-15 -109 -87 -178.5t-202 -69.5q-136 0 -206.5 71t-78.5 177z" />
    <glyph glyph-name="ebreve" unicode="&#x115;" horiz-adv-x="874" 
d="M811 475h-535q0 -67 6.5 -117.5t23 -99t51.5 -74.5t87 -26q38 0 67.5 13.5t45.5 30.5t26.5 41.5t13.5 39t5 30.5h205q-28 -217 -187 -295q-77 -38 -180 -38q-95 0 -165.5 33t-110 83.5t-63.5 127t-31 147t-7 159.5q0 257 96 399t287 142q87 0 152.5 -26.5t106 -71
t66 -110.5t35 -136t9.5 -156q0 -56 -4 -96zM279 631h325q0 55 -6 97t-21.5 82.5t-48.5 62.5t-82 22q-33 0 -59 -11t-43 -27.5t-29.5 -42t-19 -47t-10.5 -51.5t-4.5 -46t-1.5 -39zM160 1442h159q18 -105 117 -105q56 0 81 28t36 77h156q-12 -112 -80.5 -185t-196.5 -73
q-129 0 -197 76t-75 182z" />
    <glyph glyph-name="Edotaccent" unicode="&#x116;" horiz-adv-x="882" 
d="M791 821v-188h-451v-447h504l-27 -186h-690v1389h686v-191h-473v-377h451zM573 1511h-215v230h215v-230z" />
    <glyph glyph-name="edotaccent" unicode="&#x117;" horiz-adv-x="874" 
d="M811 475h-535q0 -67 6.5 -117.5t23 -99t51.5 -74.5t87 -26q38 0 67.5 13.5t45.5 30.5t26.5 41.5t13.5 39t5 30.5h205q-28 -217 -187 -295q-77 -38 -180 -38q-95 0 -165.5 33t-110 83.5t-63.5 127t-31 147t-7 159.5q0 257 96 399t287 142q87 0 152.5 -26.5t106 -71
t66 -110.5t35 -136t9.5 -156q0 -56 -4 -96zM279 631h325q0 55 -6 97t-21.5 82.5t-48.5 62.5t-82 22q-33 0 -59 -11t-43 -27.5t-29.5 -42t-19 -47t-10.5 -51.5t-4.5 -46t-1.5 -39zM541 1225h-211v231h211v-231z" />
    <glyph glyph-name="Eogonek" unicode="&#x118;" horiz-adv-x="882" 
d="M791 821v-188h-451v-447h504l-27 -186h-61q-82 -79 -82 -156q0 -40 23 -62t63 -22q37 0 78 13l16 -142q-54 -32 -164 -32q-97 0 -157 51t-60 145q0 107 88 205h-434v1389h686v-191h-473v-377h451z" />
    <glyph glyph-name="eogonek" unicode="&#x119;" horiz-adv-x="874" 
d="M811 475h-535q0 -67 6.5 -117.5t23 -99t51.5 -74.5t87 -26q38 0 67.5 13.5t45.5 30.5t26.5 41.5t13.5 39t5 30.5h205q-13 -84 -36 -135q-55 -119 -167 -168q-78 -78 -78 -151q0 -40 23 -62t63 -22t78 12l17 -141q-56 -33 -164 -33q-97 0 -157 51.5t-60 145.5q0 91 63 172
q-69 7 -122.5 32.5t-88 67.5t-58.5 90.5t-36 111.5t-16.5 120t-4.5 126q0 257 96 399t287 142q87 0 152.5 -26.5t106 -71t66 -110.5t35 -136t9.5 -156q0 -56 -4 -96zM279 631h325q0 55 -6 97t-21.5 82.5t-48.5 62.5t-82 22q-33 0 -59 -11t-43 -27.5t-29.5 -42t-19 -47
t-10.5 -51.5t-4.5 -46t-1.5 -39z" />
    <glyph glyph-name="Ecaron" unicode="&#x11a;" horiz-adv-x="882" 
d="M791 821v-188h-451v-447h504l-27 -186h-690v1389h686v-191h-473v-377h451zM586 1493h-238l-198 236h212l105 -130l102 130h215z" />
    <glyph glyph-name="ecaron" unicode="&#x11b;" horiz-adv-x="874" 
d="M811 475h-535q0 -67 6.5 -117.5t23 -99t51.5 -74.5t87 -26q38 0 67.5 13.5t45.5 30.5t26.5 41.5t13.5 39t5 30.5h205q-28 -217 -187 -295q-77 -38 -180 -38q-95 0 -165.5 33t-110 83.5t-63.5 127t-31 147t-7 159.5q0 257 96 399t287 142q87 0 152.5 -26.5t106 -71
t66 -110.5t35 -136t9.5 -156q0 -56 -4 -96zM279 631h325q0 55 -6 97t-21.5 82.5t-48.5 62.5t-82 22q-33 0 -59 -11t-43 -27.5t-29.5 -42t-19 -47t-10.5 -51.5t-4.5 -46t-1.5 -39zM549 1184h-225l-185 276h197l100 -155l99 155h196z" />
    <glyph glyph-name="Gcircumflex" unicode="&#x11c;" horiz-adv-x="1019" 
d="M920 774v-774h-166q-10 102 -11 129q-80 -152 -276 -152q-108 0 -184 49t-120.5 144.5t-64.5 222t-20 295.5q0 721 454 721q74 0 135 -18t100 -45t68.5 -67t44.5 -74.5t24.5 -77t12 -65t3.5 -48.5h-213q-16 211 -181 211q-63 0 -107.5 -38.5t-70 -112t-36.5 -168
t-11 -218.5q0 -104 6 -183t20.5 -146t38.5 -109.5t61 -66t87 -23.5q109 0 151 85t42 269v74h-205v186h418zM397 1735h236l201 -236h-216l-104 125l-102 -125h-213z" />
    <glyph glyph-name="gcircumflex" unicode="&#x11d;" horiz-adv-x="937" 
d="M823 739v-659q0 -116 -18 -199.5t-61 -149t-121 -98t-193 -32.5q-83 0 -147.5 19.5t-102 50t-62.5 72t-34.5 79.5t-11.5 80h213q12 -127 153 -127q104 0 140 73t36 232v63q-57 -137 -231 -137q-162 0 -241 132t-79 376q0 270 91.5 413.5t251.5 143.5q167 0 208 -121
q0 16 1.5 35.5t4 39.5l3.5 28h204q-4 -122 -4 -314zM281 520q0 -334 168 -334q97 0 133 89t36 276q0 69 -3 116t-12.5 92.5t-26.5 71.5t-46 42t-71 16q-178 0 -178 -369zM354 1458h226l182 -276h-197l-98 155l-98 -155h-195z" />
    <glyph glyph-name="Gbreve" unicode="&#x11e;" horiz-adv-x="1019" 
d="M920 774v-774h-166q-10 102 -11 129q-80 -152 -276 -152q-108 0 -184 49t-120.5 144.5t-64.5 222t-20 295.5q0 721 454 721q74 0 135 -18t100 -45t68.5 -67t44.5 -74.5t24.5 -77t12 -65t3.5 -48.5h-213q-16 211 -181 211q-63 0 -107.5 -38.5t-70 -112t-36.5 -168
t-11 -218.5q0 -104 6 -183t20.5 -146t38.5 -109.5t61 -66t87 -23.5q109 0 151 85t42 269v74h-205v186h418zM229 1737h156q9 -45 44.5 -74t88.5 -29q108 0 131 103h154q-15 -109 -87 -178.5t-202 -69.5q-136 0 -206.5 71t-78.5 177z" />
    <glyph glyph-name="gbreve" unicode="&#x11f;" horiz-adv-x="937" 
d="M823 739v-659q0 -116 -18 -199.5t-61 -149t-121 -98t-193 -32.5q-83 0 -147.5 19.5t-102 50t-62.5 72t-34.5 79.5t-11.5 80h213q12 -127 153 -127q104 0 140 73t36 232v63q-57 -137 -231 -137q-162 0 -241 132t-79 376q0 270 91.5 413.5t251.5 143.5q167 0 208 -121
q0 16 1.5 35.5t4 39.5l3.5 28h204q-4 -122 -4 -314zM281 520q0 -334 168 -334q97 0 133 89t36 276q0 69 -3 116t-12.5 92.5t-26.5 71.5t-46 42t-71 16q-178 0 -178 -369zM193 1442h159q18 -105 117 -105q56 0 81 28t36 77h155q-12 -112 -80 -185t-196 -73q-129 0 -197 76
t-75 182z" />
    <glyph glyph-name="Gdotaccent" unicode="&#x120;" horiz-adv-x="1019" 
d="M920 774v-774h-166q-10 102 -11 129q-80 -152 -276 -152q-108 0 -184 49t-120.5 144.5t-64.5 222t-20 295.5q0 721 454 721q74 0 135 -18t100 -45t68.5 -67t44.5 -74.5t24.5 -77t12 -65t3.5 -48.5h-213q-16 211 -181 211q-63 0 -107.5 -38.5t-70 -112t-36.5 -168
t-11 -218.5q0 -104 6 -183t20.5 -146t38.5 -109.5t61 -66t87 -23.5q109 0 151 85t42 269v74h-205v186h418zM623 1511h-215v230h215v-230z" />
    <glyph glyph-name="gdotaccent" unicode="&#x121;" horiz-adv-x="937" 
d="M823 739v-659q0 -116 -18 -199.5t-61 -149t-121 -98t-193 -32.5q-83 0 -147.5 19.5t-102 50t-62.5 72t-34.5 79.5t-11.5 80h213q12 -127 153 -127q104 0 140 73t36 232v63q-57 -137 -231 -137q-162 0 -241 132t-79 376q0 270 91.5 413.5t251.5 143.5q167 0 208 -121
q0 16 1.5 35.5t4 39.5l3.5 28h204q-4 -122 -4 -314zM281 520q0 -334 168 -334q97 0 133 89t36 276q0 69 -3 116t-12.5 92.5t-26.5 71.5t-46 42t-71 16q-178 0 -178 -369zM573 1225h-211v231h211v-231z" />
    <glyph glyph-name="uni0122" unicode="&#x122;" horiz-adv-x="1019" 
d="M920 774v-774h-166q-10 102 -11 129q-80 -152 -276 -152q-108 0 -184 49t-120.5 144.5t-64.5 222t-20 295.5q0 721 454 721q74 0 135 -18t100 -45t68.5 -67t44.5 -74.5t24.5 -77t12 -65t3.5 -48.5h-213q-16 211 -181 211q-63 0 -107.5 -38.5t-70 -112t-36.5 -168
t-11 -218.5q0 -104 6 -183t20.5 -146t38.5 -109.5t61 -66t87 -23.5q109 0 151 85t42 269v74h-205v186h418zM522 -459h-184q65 148 80 353h209q-7 -105 -36.5 -200.5t-68.5 -152.5z" />
    <glyph glyph-name="uni0123" unicode="&#x123;" horiz-adv-x="937" 
d="M453 1546h192q-80 -178 -94 -350h-207q7 93 39 189.5t70 160.5zM823 739v-659q0 -116 -18 -199.5t-61 -149t-121 -98t-193 -32.5q-83 0 -147.5 19.5t-102 50t-62.5 72t-34.5 79.5t-11.5 80h213q12 -127 153 -127q104 0 140 73t36 232v63q-57 -137 -231 -137
q-162 0 -241 132t-79 376q0 270 91.5 413.5t251.5 143.5q167 0 208 -121q0 16 1.5 35.5t4 39.5l3.5 28h204q-4 -122 -4 -314zM281 520q0 -334 168 -334q97 0 133 89t36 276q0 69 -3 116t-12.5 92.5t-26.5 71.5t-46 42t-71 16q-178 0 -178 -369z" />
    <glyph glyph-name="Hcircumflex" unicode="&#x124;" horiz-adv-x="1058" 
d="M127 0v1389h215v-564h375v564h215v-1389h-215v639h-375v-639h-215zM410 1735h235l201 -236h-215l-105 125l-102 -125h-213z" />
    <glyph glyph-name="hcircumflex" unicode="&#x125;" horiz-adv-x="942" 
d="M113 1735h227l199 -205h-199l-115 108l-112 -108h-201zM115 1456h211v-514q68 129 241 129q128 0 196 -82t68 -244v-745h-213v702q0 94 -29 140.5t-108 46.5q-85 0 -120 -63t-35 -187v-639h-211v1456z" />
    <glyph glyph-name="Hbar" unicode="&#x126;" horiz-adv-x="1058" 
d="M23 1157h104v232h215v-232h375v232h215v-232h102v-153h-102v-1004h-215v633h-375v-633h-215v1004h-104v153zM342 821h375v183h-375v-183z" />
    <glyph glyph-name="hbar" unicode="&#x127;" horiz-adv-x="942" 
d="M117 1456h213v-145h336v-140h-336v-264q64 129 239 129q128 0 195 -81.5t67 -243.5v-711h-213v668q0 94 -28 139t-107 45q-85 0 -119 -61.5t-34 -186.5v-604h-213v1171h-115v140h115v145z" />
    <glyph glyph-name="Itilde" unicode="&#x128;" horiz-adv-x="471" 
d="M127 1389h215v-1389h-215v1389zM72 1509h-140v47q0 100 44 144.5t116 44.5q57 0 148 -38t114 -38q47 0 47 60v18h138v-35q0 -113 -42 -160t-122 -47q-55 0 -143.5 37t-112.5 37q-47 0 -47 -47v-23z" />
    <glyph glyph-name="itilde" unicode="&#x129;" horiz-adv-x="440" 
d="M113 0v1053h213v-1053h-213zM80 1202h-146v53q0 181 152 181q46 0 92 -20t82.5 -40t58.5 -20q20 0 29.5 14.5t9.5 52.5v15h142v-45q0 -108 -40.5 -151.5t-113.5 -43.5q-43 0 -87.5 20t-81.5 40t-60 20q-37 0 -37 -53v-23z" />
    <glyph glyph-name="Imacron" unicode="&#x12a;" horiz-adv-x="471" 
d="M127 1389h215v-1389h-215v1389zM-25 1683h521v-161h-521v161z" />
    <glyph glyph-name="imacron" unicode="&#x12b;" horiz-adv-x="440" 
d="M113 0v1053h213v-1053h-213zM-31 1409h496v-168h-496v168z" />
    <glyph glyph-name="Iogonek" unicode="&#x12e;" horiz-adv-x="471" 
d="M127 1389h215v-1389h-10q-82 -79 -82 -156q0 -40 23 -62t63 -22q37 0 78 13l16 -142q-54 -32 -164 -32q-97 0 -157 51t-60 145q0 107 88 205h-10v1389z" />
    <glyph glyph-name="iogonek" unicode="&#x12f;" horiz-adv-x="440" 
d="M113 0v1053h213v-1053h-9q-81 -78 -81 -156q0 -40 23 -62t63 -22q36 0 77 13l17 -142q-54 -32 -164 -32q-97 0 -157 51t-60 145q0 107 88 205h-10zM328 1223h-213v233h213v-233z" />
    <glyph glyph-name="Idotaccent" unicode="&#x130;" horiz-adv-x="471" 
d="M127 1389h215v-1389h-215v1389zM342 1511h-215v230h215v-230z" />
    <glyph glyph-name="dotlessi" unicode="&#x131;" horiz-adv-x="440" 
d="M113 0v1053h213v-1053h-213z" />
    <glyph glyph-name="Jcircumflex" unicode="&#x134;" horiz-adv-x="567" 
d="M455 1389v-1035q0 -71 -6.5 -123t-26.5 -101t-53.5 -80t-90 -49.5t-133.5 -18.5q-49 0 -127 10v180q75 -6 91 -6q80 0 105.5 40t25.5 134v1049h215zM229 1726h236l201 -235h-215l-105 125l-102 -125h-213z" />
    <glyph glyph-name="jcircumflex" unicode="&#x135;" horiz-adv-x="442" 
d="M115 1053h211v-1088q0 -70 -4 -117.5t-19.5 -97.5t-43 -79t-76 -47.5t-117.5 -18.5q-53 0 -84 4v184q20 -2 49 -2q53 0 68.5 29.5t15.5 107.5v1125zM106 1458h226l182 -276h-197l-98 155l-98 -155h-195z" />
    <glyph glyph-name="uni0136" unicode="&#x136;" horiz-adv-x="966" 
d="M127 0v1389h213v-646q31 48 181.5 294t219.5 352h248l-373 -549l381 -840h-241l-285 659l-131 -180v-479h-213zM537 -442h-185q65 149 80 352h209q-7 -105 -36 -200t-68 -152z" />
    <glyph glyph-name="uni0137" unicode="&#x137;" horiz-adv-x="843" 
d="M326 1456v-868q39 66 141.5 232.5t142.5 232.5h236q-54 -82 -268 -391l288 -662h-241l-191 492q-12 -17 -52 -75.5t-56 -78.5v-338h-213v1456h213zM481 -444h-184q65 149 80 352h209q-7 -104 -36.5 -199.5t-68.5 -152.5z" />
    <glyph glyph-name="kgreenlandic" unicode="&#x138;" horiz-adv-x="843" 
d="M326 1053v-469q26 45 137 227t147 242h236q-48 -76 -266 -400q44 -100 142.5 -326t143.5 -327h-241q-104 265 -191 489q-54 -83 -108 -151v-338h-213v1053h213z" />
    <glyph glyph-name="Lacute" unicode="&#x139;" horiz-adv-x="825" 
d="M127 0v1389h215v-1205h481l-22 -184h-674zM350 1743h258l-280 -246h-207z" />
    <glyph glyph-name="lacute" unicode="&#x13a;" horiz-adv-x="438" 
d="M309 1751h244l-227 -211h-224zM326 0h-213v1456h213v-1456z" />
    <glyph glyph-name="uni013B" unicode="&#x13b;" horiz-adv-x="825" 
d="M127 0v1389h215v-1205h481l-22 -184h-674zM465 -459h-184q64 146 79 353h209q-7 -105 -36 -200.5t-68 -152.5z" />
    <glyph glyph-name="uni013C" unicode="&#x13c;" horiz-adv-x="438" 
d="M326 0h-213v1456h213v-1456zM219 -459h-184q65 148 80 353h209q-7 -105 -36.5 -200.5t-68.5 -152.5z" />
    <glyph glyph-name="Lcaron" unicode="&#x13d;" horiz-adv-x="825" 
d="M127 0v1389h215v-1205h481l-22 -184h-674zM680 899h-139l-11 490h162z" />
    <glyph glyph-name="lcaron" unicode="&#x13e;" horiz-adv-x="532" 
d="M326 0h-213v1456h213v-1456zM567 969h-139l-10 489h162z" />
    <glyph glyph-name="Ldot" unicode="&#x13f;" horiz-adv-x="825" 
d="M690 616h-196v279h196v-279zM127 0v1389h215v-1205h481l-22 -184h-674z" />
    <glyph glyph-name="ldot" unicode="&#x140;" horiz-adv-x="557" 
d="M590 764h-189v289h189v-289zM326 0h-213v1456h213v-1456z" />
    <glyph glyph-name="Lslash" unicode="&#x141;" horiz-adv-x="845" 
d="M594 797l-232 -125v-488h482l-23 -184h-674v555l-141 -78v164l141 78v670h215v-553l232 127v-166z" />
    <glyph glyph-name="lslash" unicode="&#x142;" horiz-adv-x="466" 
d="M348 0h-213v700l-112 -71v159l112 72v596h213v-463l125 80v-162l-125 -77v-834z" />
    <glyph glyph-name="Nacute" unicode="&#x143;" horiz-adv-x="1079" 
d="M322 0h-195v1389h250q354 -925 376 -990q10 -31 15 -51h2q-12 209 -12 606v435h194v-1389h-239q-52 138 -136 363q-248 663 -263 717q0 3 -1 5h-2q11 -189 11 -634v-451zM641 1739h258l-281 -246h-206z" />
    <glyph glyph-name="nacute" unicode="&#x144;" horiz-adv-x="944" 
d="M113 0v725q0 275 -2 328h204q7 -47 7 -119q68 137 239 137q127 0 198.5 -79.5t71.5 -239.5v-752h-213v705q0 91 -29.5 137.5t-103.5 46.5q-84 0 -121.5 -56.5t-37.5 -189.5v-643h-213zM547 1473h248l-265 -281h-184z" />
    <glyph glyph-name="uni0145" unicode="&#x145;" horiz-adv-x="1079" 
d="M322 0h-195v1389h250q354 -925 376 -990q10 -31 15 -51h2q-12 209 -12 606v435h194v-1389h-239q-52 138 -136 363q-248 663 -263 717q0 3 -1 5h-2q11 -189 11 -634v-451zM553 -459h-184q65 148 80 353h208q-7 -105 -36 -200.5t-68 -152.5z" />
    <glyph glyph-name="uni0146" unicode="&#x146;" horiz-adv-x="944" 
d="M113 0v725q0 275 -2 328h204q7 -47 7 -119q68 137 239 137q127 0 198.5 -79.5t71.5 -239.5v-752h-213v705q0 91 -29.5 137.5t-103.5 46.5q-84 0 -121.5 -56.5t-37.5 -189.5v-643h-213zM477 -459h-184q65 148 80 353h209q-7 -105 -36.5 -200.5t-68.5 -152.5z" />
    <glyph glyph-name="Ncaron" unicode="&#x147;" horiz-adv-x="1079" 
d="M322 0h-195v1389h250q354 -925 376 -990q10 -31 15 -51h2q-12 209 -12 606v435h194v-1389h-239q-52 138 -136 363q-248 663 -263 717q0 3 -1 5h-2q11 -189 11 -634v-451zM657 1489h-237l-199 235h213l105 -129l102 129h215z" />
    <glyph glyph-name="ncaron" unicode="&#x148;" horiz-adv-x="944" 
d="M113 0v725q0 275 -2 328h204q7 -47 7 -119q68 137 239 137q127 0 198.5 -79.5t71.5 -239.5v-752h-213v705q0 91 -29.5 137.5t-103.5 46.5q-84 0 -121.5 -56.5t-37.5 -189.5v-643h-213zM584 1184h-226l-184 276h197l100 -155l98 155h197z" />
    <glyph glyph-name="napostrophe" unicode="&#x149;" horiz-adv-x="944" 
d="M193 1147h-164q68 183 88 383h182q-4 -97 -34.5 -204.5t-71.5 -178.5zM113 0v725q0 275 -2 328h204q7 -47 7 -119q68 137 239 137q127 0 198.5 -79.5t71.5 -239.5v-752h-213v705q0 91 -29.5 137.5t-103.5 46.5q-84 0 -121.5 -56.5t-37.5 -189.5v-643h-213z" />
    <glyph glyph-name="Omacron" unicode="&#x14c;" horiz-adv-x="1028" 
d="M518 1409q222 0 327 -172t105 -532q0 -376 -104.5 -552t-337.5 -176q-220 0 -325 177t-105 553q0 702 440 702zM514 1225q-114 0 -164.5 -129t-50.5 -387q0 -273 50.5 -411t164.5 -138q118 0 166.5 133.5t48.5 413.5q0 270 -49.5 394t-165.5 124zM254 1683h520v-161h-520
v161z" />
    <glyph glyph-name="omacron" unicode="&#x14d;" horiz-adv-x="897" 
d="M457 1071q185 0 281 -135.5t96 -398.5q0 -557 -388 -557q-191 0 -287 135t-96 417q0 269 104 404t290 135zM451 891q-88 0 -130 -87.5t-42 -271.5q0 -188 40.5 -280t131.5 -92q88 0 127.5 91.5t39.5 278.5t-39.5 274t-127.5 87zM199 1409h495v-168h-495v168z" />
    <glyph glyph-name="Ohungarumlaut" unicode="&#x150;" horiz-adv-x="1028" 
d="M518 1409q222 0 327 -172t105 -532q0 -376 -104.5 -552t-337.5 -176q-220 0 -325 177t-105 553q0 702 440 702zM514 1225q-114 0 -164.5 -129t-50.5 -387q0 -273 50.5 -411t164.5 -138q118 0 166.5 133.5t48.5 413.5q0 270 -49.5 394t-165.5 124zM403 1747h215l-210 -246
h-175zM733 1747h211l-207 -246h-174z" />
    <glyph glyph-name="ohungarumlaut" unicode="&#x151;" horiz-adv-x="897" 
d="M457 1071q185 0 281 -135.5t96 -398.5q0 -557 -388 -557q-191 0 -287 135t-96 417q0 269 104 404t290 135zM451 891q-88 0 -130 -87.5t-42 -271.5q0 -188 40.5 -280t131.5 -92q88 0 127.5 91.5t39.5 278.5t-39.5 274t-127.5 87zM328 1180h-160l164 295h211zM662 1180
h-160l164 295h208z" />
    <glyph glyph-name="OE" unicode="&#x152;" horiz-adv-x="1462" 
d="M1393 1389v-193h-467v-375h442v-190h-442v-441h497l-28 -190h-615q-12 0 -79.5 -5t-125.5 -5q-117 0 -205.5 37t-143 99.5t-88.5 156.5t-47 195.5t-13 228.5q0 114 16.5 213t54 187.5t95 150.5t144.5 98.5t196 36.5q52 0 124 -2t78 -2h607zM711 184v1018q-36 8 -113 8
q-299 0 -299 -503q0 -276 70.5 -404.5t222.5 -128.5q64 0 119 10z" />
    <glyph glyph-name="oe" unicode="&#x153;" horiz-adv-x="1427" 
d="M991 -18q-183 0 -272 137q-92 -139 -273 -139q-193 0 -288 134t-95 427q0 269 102 399.5t292 130.5q184 0 272 -149q98 149 287 149q350 0 350 -481v-115h-541q0 -51 3.5 -92t14 -84t29 -72.5t50 -48t73.5 -18.5q135 0 153 151q1 4 1 6h211q-11 -72 -21 -103
q-60 -185 -250 -223q-46 -9 -98 -9zM451 891q-86 0 -129 -85t-43 -267q0 -194 41.5 -286.5t130.5 -92.5t128 91.5t39 295.5q0 179 -41 261.5t-126 82.5zM829 631h324q0 57 -6.5 100.5t-23 82t-49 59t-79.5 20.5q-158 0 -166 -262z" />
    <glyph glyph-name="Racute" unicode="&#x154;" horiz-adv-x="985" 
d="M469 608h-129v-608h-213v1389h403q184 0 282.5 -96.5t98.5 -276.5q0 -72 -17 -130.5t-46 -95.5t-58 -59.5t-61 -34.5q87 -37 124.5 -117.5t37.5 -230.5v-55q0 -182 18 -293h-209q-22 69 -22 295v49q0 147 -43 205.5t-166 58.5zM340 1210v-426h139q114 0 164.5 55.5
t50.5 168.5q0 202 -194 202h-160zM594 1745h258l-281 -246h-206z" />
    <glyph glyph-name="racute" unicode="&#x155;" horiz-adv-x="618" 
d="M113 0v696q0 281 -2 357h202q6 -60 6 -179q31 93 102.5 144t174.5 51v-235q-135 0 -202.5 -63t-67.5 -206v-565h-213zM406 1473h247l-264 -281h-184z" />
    <glyph glyph-name="uni0156" unicode="&#x156;" horiz-adv-x="985" 
d="M469 608h-129v-608h-213v1389h403q184 0 282.5 -96.5t98.5 -276.5q0 -72 -17 -130.5t-46 -95.5t-58 -59.5t-61 -34.5q87 -37 124.5 -117.5t37.5 -230.5v-55q0 -182 18 -293h-209q-22 69 -22 295v49q0 147 -43 205.5t-166 58.5zM340 1210v-426h139q114 0 164.5 55.5
t50.5 168.5q0 202 -194 202h-160zM512 -459h-184q65 148 80 353h208q-7 -105 -36 -200.5t-68 -152.5z" />
    <glyph glyph-name="uni0157" unicode="&#x157;" horiz-adv-x="618" 
d="M113 0v696q0 281 -2 357h202q6 -60 6 -179q31 93 102.5 144t174.5 51v-235q-135 0 -202.5 -63t-67.5 -206v-565h-213zM217 -459h-184q65 148 80 353h209q-7 -105 -36.5 -200.5t-68.5 -152.5z" />
    <glyph glyph-name="Rcaron" unicode="&#x158;" horiz-adv-x="985" 
d="M469 608h-129v-608h-213v1389h403q184 0 282.5 -96.5t98.5 -276.5q0 -72 -17 -130.5t-46 -95.5t-58 -59.5t-61 -34.5q87 -37 124.5 -117.5t37.5 -230.5v-55q0 -182 18 -293h-209q-22 69 -22 295v49q0 147 -43 205.5t-166 58.5zM340 1210v-426h139q114 0 164.5 55.5
t50.5 168.5q0 202 -194 202h-160zM604 1493h-237l-199 236h213l104 -130l103 130h215z" />
    <glyph glyph-name="rcaron" unicode="&#x159;" horiz-adv-x="618" 
d="M113 0v696q0 281 -2 357h202q6 -60 6 -179q31 93 102.5 144t174.5 51v-235q-135 0 -202.5 -63t-67.5 -206v-565h-213zM449 1184h-226l-184 276h197l100 -155l98 155h197z" />
    <glyph glyph-name="Sacute" unicode="&#x15a;" horiz-adv-x="929" 
d="M47 381h215q10 -104 58 -167.5t143 -63.5q186 0 186 200q0 94 -51.5 155.5t-185.5 127.5q-121 57 -189 110.5t-102.5 126t-34.5 174.5q0 162 101 263.5t278 101.5q86 0 152.5 -23t107.5 -60t68 -88t37.5 -101.5t11.5 -106.5h-211q-3 29 -7 50.5t-16 53.5t-28.5 52.5
t-47.5 35.5t-71 15q-80 0 -120 -47.5t-40 -126.5q0 -83 45 -133t172 -109q190 -89 270 -188.5t80 -263.5q0 -83 -25 -153t-74.5 -124t-129.5 -84.5t-182 -30.5q-89 0 -158.5 22.5t-115 60t-75.5 90.5t-44 109.5t-17 121.5zM567 1745h258l-280 -246h-207z" />
    <glyph glyph-name="sacute" unicode="&#x15b;" horiz-adv-x="802" 
d="M43 313h209q2 -72 40 -120t114 -48q67 0 101 35t34 96q0 65 -36.5 103.5t-133.5 75.5q-174 64 -236.5 134.5t-62.5 188.5q0 56 18 106t55 93t102.5 68.5t151.5 25.5q75 0 134.5 -20t95.5 -51.5t59 -74.5t32 -84.5t9 -86.5h-205q0 17 -1.5 32.5t-9.5 39t-21 40t-38.5 29
t-60.5 12.5q-56 0 -85 -30.5t-29 -83.5q0 -54 35.5 -86.5t134.5 -69.5q166 -63 234.5 -136.5t68.5 -199.5q0 -153 -93 -236t-264 -83q-173 0 -261.5 91t-90.5 240zM473 1473h248l-264 -281h-185z" />
    <glyph glyph-name="Scircumflex" unicode="&#x15c;" horiz-adv-x="929" 
d="M47 381h215q10 -104 58 -167.5t143 -63.5q186 0 186 200q0 94 -51.5 155.5t-185.5 127.5q-121 57 -189 110.5t-102.5 126t-34.5 174.5q0 162 101 263.5t278 101.5q86 0 152.5 -23t107.5 -60t68 -88t37.5 -101.5t11.5 -106.5h-211q-3 29 -7 50.5t-16 53.5t-28.5 52.5
t-47.5 35.5t-71 15q-80 0 -120 -47.5t-40 -126.5q0 -83 45 -133t172 -109q190 -89 270 -188.5t80 -263.5q0 -83 -25 -153t-74.5 -124t-129.5 -84.5t-182 -30.5q-89 0 -158.5 22.5t-115 60t-75.5 90.5t-44 109.5t-17 121.5zM346 1735h236l200 -236h-215l-104 125l-103 -125
h-213z" />
    <glyph glyph-name="scircumflex" unicode="&#x15d;" horiz-adv-x="802" 
d="M43 313h209q2 -72 40 -120t114 -48q67 0 101 35t34 96q0 65 -36.5 103.5t-133.5 75.5q-174 64 -236.5 134.5t-62.5 188.5q0 56 18 106t55 93t102.5 68.5t151.5 25.5q75 0 134.5 -20t95.5 -51.5t59 -74.5t32 -84.5t9 -86.5h-205q0 17 -1.5 32.5t-9.5 39t-21 40t-38.5 29
t-60.5 12.5q-56 0 -85 -30.5t-29 -83.5q0 -54 35.5 -86.5t134.5 -69.5q166 -63 234.5 -136.5t68.5 -199.5q0 -153 -93 -236t-264 -83q-173 0 -261.5 91t-90.5 240zM289 1458h225l182 -276h-196l-99 155l-98 -155h-194z" />
    <glyph glyph-name="uni015E" unicode="&#x15e;" horiz-adv-x="929" 
d="M47 381h215q10 -104 58 -167.5t143 -63.5q186 0 186 200q0 94 -51.5 155.5t-185.5 127.5q-121 57 -189 110.5t-102.5 126t-34.5 174.5q0 162 101 263.5t278 101.5q86 0 152.5 -23t107.5 -60t68 -88t37.5 -101.5t11.5 -106.5h-211q-3 29 -7 50.5t-16 53.5t-28.5 52.5
t-47.5 35.5t-71 15q-80 0 -120 -47.5t-40 -126.5q0 -83 45 -133t172 -109q190 -89 270 -188.5t80 -263.5q0 -153 -84.5 -259t-246.5 -128l-29 -52q151 -47 151 -168q0 -79 -55.5 -126.5t-157.5 -47.5q-101 0 -161 35l32 121q40 -25 107 -25q63 0 63 45q0 61 -137 78v52
l45 86q-75 7 -133.5 33t-97 63t-64.5 88t-38 103.5t-15 113.5z" />
    <glyph glyph-name="uni015F" unicode="&#x15f;" horiz-adv-x="802" 
d="M43 313h209q2 -72 40 -120t114 -48q67 0 101 35t34 96q0 65 -36.5 103.5t-133.5 75.5q-174 64 -236.5 134.5t-62.5 188.5q0 56 18 106t55 93t102.5 68.5t151.5 25.5q75 0 134.5 -20t95.5 -51.5t59 -74.5t32 -84.5t9 -86.5h-205q0 17 -1.5 32.5t-9.5 39t-21 40t-38.5 29
t-60.5 12.5q-56 0 -85 -30.5t-29 -83.5q0 -54 35.5 -86.5t134.5 -69.5q166 -63 234.5 -136.5t68.5 -199.5q0 -134 -72.5 -215t-208.5 -100l-31 -56q152 -47 152 -168q0 -79 -55.5 -126.5t-157.5 -47.5t-162 35l33 121q40 -25 106 -25q64 0 64 45q0 61 -137 78v52l49 92
q-142 17 -214.5 105t-74.5 222z" />
    <glyph glyph-name="Scaron" unicode="&#x160;" horiz-adv-x="929" 
d="M47 381h215q10 -104 58 -167.5t143 -63.5q186 0 186 200q0 94 -51.5 155.5t-185.5 127.5q-121 57 -189 110.5t-102.5 126t-34.5 174.5q0 162 101 263.5t278 101.5q86 0 152.5 -23t107.5 -60t68 -88t37.5 -101.5t11.5 -106.5h-211q-3 29 -7 50.5t-16 53.5t-28.5 52.5
t-47.5 35.5t-71 15q-80 0 -120 -47.5t-40 -126.5q0 -83 45 -133t172 -109q190 -89 270 -188.5t80 -263.5q0 -83 -25 -153t-74.5 -124t-129.5 -84.5t-182 -30.5q-89 0 -158.5 22.5t-115 60t-75.5 90.5t-44 109.5t-17 121.5zM584 1493h-238l-199 236h213l105 -130l102 130h215
z" />
    <glyph glyph-name="scaron" unicode="&#x161;" horiz-adv-x="802" 
d="M43 313h209q2 -72 40 -120t114 -48q67 0 101 35t34 96q0 65 -36.5 103.5t-133.5 75.5q-174 64 -236.5 134.5t-62.5 188.5q0 56 18 106t55 93t102.5 68.5t151.5 25.5q75 0 134.5 -20t95.5 -51.5t59 -74.5t32 -84.5t9 -86.5h-205q0 17 -1.5 32.5t-9.5 39t-21 40t-38.5 29
t-60.5 12.5q-56 0 -85 -30.5t-29 -83.5q0 -54 35.5 -86.5t134.5 -69.5q166 -63 234.5 -136.5t68.5 -199.5q0 -153 -93 -236t-264 -83q-173 0 -261.5 91t-90.5 240zM516 1184h-225l-185 276h197l100 -155l99 155h196z" />
    <glyph glyph-name="uni0162" unicode="&#x162;" horiz-adv-x="829" 
d="M307 0v1198h-301v191h817v-191h-301v-1198h-35l-36 -70q151 -47 151 -168q0 -79 -55.5 -126.5t-157.5 -47.5t-162 35l33 121q40 -25 107 -25q63 0 63 45q0 61 -137 78v52l55 106h-41z" />
    <glyph glyph-name="uni0163" unicode="&#x163;" horiz-adv-x="536" 
d="M-6 877v176h141v268h211v-268h170v-176h-170v-615q0 -54 17.5 -78t72.5 -24q46 0 64 4v-158q-46 -20 -125 -20l-27 -49q152 -47 152 -168q0 -79 -55.5 -127t-157.5 -48t-162 35l33 121q39 -24 106 -24q64 0 64 45q0 60 -138 77v52l56 102q-58 22 -84.5 74.5t-26.5 148.5
v652h-141z" />
    <glyph glyph-name="Tcaron" unicode="&#x164;" horiz-adv-x="829" 
d="M307 0v1198h-301v191h817v-191h-301v-1198h-215zM532 1493h-237l-199 236h213l105 -130l102 130h215z" />
    <glyph glyph-name="tcaron" unicode="&#x165;" horiz-adv-x="536" 
d="M598 1188h-137v420h164zM-6 877v176h141v268h211v-268h170v-176h-170v-615q0 -54 17.5 -78t72.5 -24q46 0 64 4v-158q-46 -20 -140 -20q-119 0 -172 53t-53 186v652h-141z" />
    <glyph glyph-name="Utilde" unicode="&#x168;" horiz-adv-x="1054" 
d="M115 1389h215v-963q0 -266 198 -266q58 0 97.5 19.5t60 58t29 83t8.5 105.5v963h217v-967q0 -445 -416 -445q-114 0 -195.5 32t-127 93t-66 138.5t-20.5 179.5v969zM362 1509h-139v47q0 100 44 144.5t116 44.5q57 0 148 -38t114 -38q47 0 47 60v18h137v-35
q0 -113 -41.5 -160t-121.5 -47q-55 0 -143.5 37t-112.5 37q-48 0 -48 -47v-23z" />
    <glyph glyph-name="utilde" unicode="&#x169;" horiz-adv-x="933" 
d="M823 1053v-750q0 -250 2 -303h-202q-7 37 -11 123q-62 -141 -239 -141q-262 0 -262 315v756h213v-707q0 -92 27.5 -137t97.5 -45q80 0 120.5 55.5t40.5 190.5v643h213zM328 1202h-146v53q0 181 152 181q46 0 92 -20t82.5 -40t58.5 -20q20 0 29.5 14.5t9.5 52.5v15h142
v-45q0 -108 -40.5 -151.5t-113.5 -43.5q-43 0 -87.5 20t-81.5 40t-60 20q-37 0 -37 -53v-23z" />
    <glyph glyph-name="Umacron" unicode="&#x16a;" horiz-adv-x="1054" 
d="M115 1389h215v-963q0 -266 198 -266q58 0 97.5 19.5t60 58t29 83t8.5 105.5v963h217v-967q0 -445 -416 -445q-114 0 -195.5 32t-127 93t-66 138.5t-20.5 179.5v969zM266 1683h520v-161h-520v161z" />
    <glyph glyph-name="umacron" unicode="&#x16b;" horiz-adv-x="933" 
d="M823 1053v-750q0 -250 2 -303h-202q-7 37 -11 123q-62 -141 -239 -141q-262 0 -262 315v756h213v-707q0 -92 27.5 -137t97.5 -45q80 0 120.5 55.5t40.5 190.5v643h213zM217 1409h496v-168h-496v168z" />
    <glyph glyph-name="Ubreve" unicode="&#x16c;" horiz-adv-x="1054" 
d="M115 1389h215v-963q0 -266 198 -266q58 0 97.5 19.5t60 58t29 83t8.5 105.5v963h217v-967q0 -445 -416 -445q-114 0 -195.5 32t-127 93t-66 138.5t-20.5 179.5v969zM240 1724h155q9 -45 44.5 -73.5t88.5 -28.5q108 0 131 102h154q-15 -109 -87 -178t-202 -69
q-136 0 -206 70.5t-78 176.5z" />
    <glyph glyph-name="ubreve" unicode="&#x16d;" horiz-adv-x="933" 
d="M823 1053v-750q0 -250 2 -303h-202q-7 37 -11 123q-62 -141 -239 -141q-262 0 -262 315v756h213v-707q0 -92 27.5 -137t97.5 -45q80 0 120.5 55.5t40.5 190.5v643h213zM190 1442h160q18 -105 117 -105q56 0 81 28t36 77h155q-12 -112 -80 -185t-196 -73q-129 0 -197.5 76
t-75.5 182z" />
    <glyph glyph-name="Uring" unicode="&#x16e;" horiz-adv-x="1054" 
d="M115 1389h215v-963q0 -266 198 -266q58 0 97.5 19.5t60 58t29 83t8.5 105.5v963h217v-967q0 -445 -416 -445q-114 0 -195.5 32t-127 93t-66 138.5t-20.5 179.5v969zM528 1460q-92 0 -146 52t-54 130q0 80 53 133.5t145 53.5t145.5 -51.5t53.5 -132.5t-54.5 -133
t-142.5 -52zM526 1556q40 0 63 25.5t23 60.5q0 37 -22 64t-64 27q-43 0 -64.5 -25.5t-21.5 -62.5q0 -36 21.5 -62.5t64.5 -26.5z" />
    <glyph glyph-name="uring" unicode="&#x16f;" horiz-adv-x="933" 
d="M823 1053v-750q0 -250 2 -303h-202q-7 37 -11 123q-62 -141 -239 -141q-262 0 -262 315v756h213v-707q0 -92 27.5 -137t97.5 -45q80 0 120.5 55.5t40.5 190.5v643h213zM469 1157q-92 0 -146.5 52t-54.5 130q0 80 53.5 133.5t145.5 53.5t145.5 -52t53.5 -133
q0 -80 -54.5 -132t-142.5 -52zM467 1253q40 0 63 25.5t23 60.5q0 37 -22 64t-64 27q-43 0 -64.5 -26t-21.5 -63q0 -36 21.5 -62t64.5 -26z" />
    <glyph glyph-name="Uhungarumlaut" unicode="&#x170;" horiz-adv-x="1054" 
d="M115 1389h215v-963q0 -266 198 -266q58 0 97.5 19.5t60 58t29 83t8.5 105.5v963h217v-967q0 -445 -416 -445q-114 0 -195.5 32t-127 93t-66 138.5t-20.5 179.5v969zM416 1747h215l-211 -246h-174zM745 1747h211l-206 -246h-175z" />
    <glyph glyph-name="uhungarumlaut" unicode="&#x171;" horiz-adv-x="933" 
d="M823 1053v-750q0 -250 2 -303h-202q-7 37 -11 123q-62 -141 -239 -141q-262 0 -262 315v756h213v-707q0 -92 27.5 -137t97.5 -45q80 0 120.5 55.5t40.5 190.5v643h213zM346 1180h-160l164 295h211zM680 1180h-160l164 295h209z" />
    <glyph glyph-name="Uogonek" unicode="&#x172;" horiz-adv-x="1054" 
d="M115 1389h215v-963q0 -266 198 -266q58 0 97.5 19.5t60 58t29 83t8.5 105.5v963h217v-967q0 -342 -244 -420q-73 -73 -73 -147q0 -40 23 -62t63 -22q39 0 77 12l17 -141q-56 -33 -164 -33q-97 0 -157 51t-60 145q0 90 63 175q-103 5 -176.5 39t-115 94t-60 135t-18.5 172
v969z" />
    <glyph glyph-name="uogonek" unicode="&#x173;" horiz-adv-x="933" 
d="M823 1053v-750q0 -250 2 -303h-6l4 -2q-82 -79 -82 -156q0 -40 23 -62t63 -22q37 0 78 13l17 -142q-54 -32 -164 -32q-97 0 -157 51t-60 145q0 111 90 207h-8q-7 37 -11 123q-62 -141 -239 -141q-262 0 -262 315v756h213v-707q0 -92 27.5 -137t97.5 -45q80 0 120.5 55.5
t40.5 190.5v643h213z" />
    <glyph glyph-name="Wcircumflex" unicode="&#x174;" horiz-adv-x="1439" 
d="M510 0h-217l-266 1389h229q135 -788 158 -1088h2q21 136 104.5 554t104.5 534h196l65 -330t87 -453t49 -295h4q18 159 90.5 581.5t83.5 496.5h215l-289 -1389h-217q-19 103 -64 329.5t-80 412.5t-50 296h-2q-17 -115 -51 -291.5t-88 -437.5t-64 -309zM600 1735h236
l200 -236h-215l-104 125l-103 -125h-213z" />
    <glyph glyph-name="wcircumflex" unicode="&#x175;" horiz-adv-x="1290" 
d="M20 1053h226q117 -644 137 -824h4q8 63 24.5 143.5t60.5 282t85 398.5h193q149 -695 161 -820h2q23 164 146 820h213l-258 -1053h-217q-15 74 -47.5 229t-47 226t-31.5 162.5t-24 146.5h-2q-7 -54 -25 -142.5t-34.5 -163.5t-51 -224t-53.5 -234h-223zM528 1458h226
l182 -276h-197l-98 155l-98 -155h-195z" />
    <glyph glyph-name="Ycircumflex" unicode="&#x176;" horiz-adv-x="899" 
d="M557 0h-217v504q0 25 -8 41l-350 844h239q198 -530 234 -656q23 70 63 181.5t93 256t79 218.5h228l-355 -846q-6 -12 -6 -43v-500zM330 1735h235l201 -236h-215l-105 125l-102 -125h-213z" />
    <glyph glyph-name="ycircumflex" unicode="&#x177;" horiz-adv-x="835" 
d="M12 1053h232q20 -81 51.5 -209.5t48.5 -199t36.5 -155.5t30 -139.5t13.5 -89.5h2q33 185 182 793h215l-305 -1102q-26 -94 -56 -159.5t-58.5 -102t-68 -56.5t-73 -25t-84.5 -5q-55 0 -88 8v180q28 -4 74 -4q71 0 103.5 43t58.5 154zM303 1458h225l183 -276h-197l-98 155
l-99 -155h-194z" />
    <glyph glyph-name="Ydieresis" unicode="&#x178;" horiz-adv-x="899" 
d="M557 0h-217v504q0 25 -8 41l-350 844h239q198 -530 234 -656q23 70 63 181.5t93 256t79 218.5h228l-355 -846q-6 -12 -6 -43v-500zM371 1501h-181v230h181v-230zM707 1501h-183v230h183v-230z" />
    <glyph glyph-name="Zacute" unicode="&#x179;" horiz-adv-x="872" 
d="M35 0v152l557 1046h-514v191h749v-175l-540 -1026h563l-29 -188h-786zM539 1745h258l-281 -246h-207z" />
    <glyph glyph-name="zacute" unicode="&#x17a;" horiz-adv-x="739" 
d="M35 0v154q119 190 430 718h-402v181h639v-160q-201 -351 -421 -715h430l-23 -178h-653zM444 1473h248l-264 -281h-184z" />
    <glyph glyph-name="Zdotaccent" unicode="&#x17b;" horiz-adv-x="872" 
d="M35 0v152l557 1046h-514v191h749v-175l-540 -1026h563l-29 -188h-786zM543 1511h-215v230h215v-230z" />
    <glyph glyph-name="zdotaccent" unicode="&#x17c;" horiz-adv-x="739" 
d="M35 0v154q119 190 430 718h-402v181h639v-160q-201 -351 -421 -715h430l-23 -178h-653zM479 1225h-211v231h211v-231z" />
    <glyph glyph-name="Zcaron" unicode="&#x17d;" horiz-adv-x="872" 
d="M35 0v152l557 1046h-514v191h749v-175l-540 -1026h563l-29 -188h-786zM575 1489h-237l-199 235h213l105 -129l102 129h215z" />
    <glyph glyph-name="zcaron" unicode="&#x17e;" horiz-adv-x="739" 
d="M35 0v154q119 190 430 718h-402v181h639v-160q-201 -351 -421 -715h430l-23 -178h-653zM502 1184h-226l-184 276h197l100 -155l98 155h197z" />
    <glyph glyph-name="uni018F" unicode="&#x18f;" horiz-adv-x="983" 
d="M905 715q0 -138 -11.5 -245.5t-40.5 -202.5t-76.5 -157t-122 -97.5t-173.5 -35.5q-98 0 -170 31t-117.5 86t-73 143.5t-38 190.5t-10.5 240v90h612q1 114 -7.5 195t-30 145t-62 95.5t-99.5 31.5q-165 0 -188 -207h-219q2 20 5.5 41.5t15.5 62t29 76t48.5 76t71 69
t99.5 47.5t132 19q100 0 174.5 -32.5t122.5 -90t77 -146.5t40.5 -191t11.5 -234zM684 582h-391q1 -78 6 -137.5t18 -115t34.5 -91t57 -57t83.5 -21.5q40 0 71.5 17t51.5 49.5t33.5 70t21 89.5t10.5 96t4 100z" />
    <glyph glyph-name="florin" unicode="&#x192;" horiz-adv-x="860" 
d="M838 1378l-37 -168q-43 21 -101 21t-83.5 -48.5t-38.5 -154.5l-23 -158h180v-161h-203l-73 -519q-14 -99 -33.5 -167t-52.5 -123t-84.5 -81t-124.5 -26q-117 0 -178 41l41 174q47 -24 104 -24q53 0 74.5 43t38.5 155l80 527h-150v161h174l21 140q9 65 20 115.5t34.5 107
t55.5 93t83.5 61t117.5 24.5q117 0 158 -33z" />
    <glyph glyph-name="Ohorn" unicode="&#x1a0;" horiz-adv-x="1028" 
d="M518 1409q145 0 240 -74q51 22 51 97q0 47 -14 108h188q12 -49 12 -113q0 -163 -135 -219q90 -170 90 -503q0 -376 -104.5 -552t-337.5 -176q-220 0 -325 177t-105 553q0 702 440 702zM514 1225q-114 0 -164.5 -129t-50.5 -387q0 -273 50.5 -411t164.5 -138
q118 0 166.5 133.5t48.5 413.5q0 270 -49.5 394t-165.5 124z" />
    <glyph glyph-name="ohorn" unicode="&#x1a1;" horiz-adv-x="897" 
d="M457 1071q117 0 194 -51q58 20 58 98q0 43 -15 109h189q12 -49 12 -113q0 -163 -133 -219q72 -132 72 -358q0 -557 -388 -557q-191 0 -287 135t-96 417q0 269 104 404t290 135zM451 891q-88 0 -130 -87.5t-42 -271.5q0 -188 40.5 -280t131.5 -92q88 0 127.5 91.5
t39.5 278.5t-39.5 274t-127.5 87z" />
    <glyph glyph-name="Uhorn" unicode="&#x1af;" horiz-adv-x="1054" 
d="M115 1389h215v-963q0 -266 198 -266q58 0 97.5 19.5t60 58t29 83t8.5 105.5v963h102q72 14 72 102q0 47 -14 108h188q12 -50 12 -112q0 -171 -143 -221v-844q0 -445 -416 -445q-114 0 -195.5 32t-127 93t-66 138.5t-20.5 179.5v969z" />
    <glyph glyph-name="uhorn" unicode="&#x1b0;" horiz-adv-x="933" 
d="M612 123q-62 -141 -239 -141q-262 0 -262 315v756h213v-707q0 -92 27.5 -137t97.5 -45q80 0 120.5 55.5t40.5 190.5v643h84q86 8 86 104q0 48 -14 109h188q13 -54 13 -113q0 -171 -144 -221v-629q0 -250 2 -303h-202q-7 37 -11 123z" />
    <glyph glyph-name="uni01CD" unicode="&#x1cd;" horiz-adv-x="964" 
d="M643 381h-334l-80 -381h-215l326 1389h278l332 -1389h-225zM348 569h256q-17 81 -42 197.5t-38 178.5t-26.5 130.5t-20.5 112.5h-6q-5 -37 -13 -83.5t-22 -115.5t-24 -118t-31.5 -150t-32.5 -152zM600 1479h-238l-198 235h213l104 -129l103 129h215z" />
    <glyph glyph-name="uni01CE" unicode="&#x1ce;" horiz-adv-x="892" 
d="M776 770v-555q0 -43 8 -215h-192q-10 58 -10 104q-66 -122 -242 -122q-72 0 -127.5 27t-87.5 72t-48 98t-16 112q0 160 107.5 252t306.5 92q67 0 94 -4v125q0 30 -4 52.5t-16 46.5t-39.5 37t-69.5 13t-70 -12.5t-41 -37t-18 -45.5t-8 -54h-201q1 49 11.5 92t35 85
t62.5 71.5t99 48t139 18.5q327 0 327 -301zM573 432v43q-25 4 -88 4q-110 0 -161.5 -46.5t-51.5 -123.5q0 -64 34 -108.5t102 -44.5q95 0 130 66.5t35 209.5zM561 1184h-225l-184 276h196l101 -155l98 155h196z" />
    <glyph glyph-name="uni01CF" unicode="&#x1cf;" horiz-adv-x="471" 
d="M127 1389h215v-1389h-215v1389zM354 1493h-237l-199 236h213l105 -130l102 130h215z" />
    <glyph glyph-name="uni01D0" unicode="&#x1d0;" horiz-adv-x="440" 
d="M113 0v1053h213v-1053h-213zM332 1184h-226l-184 276h197l100 -155l98 155h197z" />
    <glyph glyph-name="uni01D1" unicode="&#x1d1;" horiz-adv-x="1028" 
d="M518 1409q222 0 327 -172t105 -532q0 -376 -104.5 -552t-337.5 -176q-220 0 -325 177t-105 553q0 702 440 702zM514 1225q-114 0 -164.5 -129t-50.5 -387q0 -273 50.5 -411t164.5 -138q118 0 166.5 133.5t48.5 413.5q0 270 -49.5 394t-165.5 124zM633 1493h-238l-198 236
h213l104 -130l102 130h215z" />
    <glyph glyph-name="uni01D2" unicode="&#x1d2;" horiz-adv-x="897" 
d="M457 1071q185 0 281 -135.5t96 -398.5q0 -557 -388 -557q-191 0 -287 135t-96 417q0 269 104 404t290 135zM451 891q-88 0 -130 -87.5t-42 -271.5q0 -188 40.5 -280t131.5 -92q88 0 127.5 91.5t39.5 278.5t-39.5 274t-127.5 87zM561 1184h-225l-184 276h196l101 -155
l98 155h196z" />
    <glyph glyph-name="uni01D3" unicode="&#x1d3;" horiz-adv-x="1054" 
d="M115 1389h215v-963q0 -266 198 -266q58 0 97.5 19.5t60 58t29 83t8.5 105.5v963h217v-967q0 -445 -416 -445q-114 0 -195.5 32t-127 93t-66 138.5t-20.5 179.5v969zM645 1493h-237l-199 236h213l104 -130l103 130h215z" />
    <glyph glyph-name="uni01D4" unicode="&#x1d4;" horiz-adv-x="933" 
d="M823 1053v-750q0 -250 2 -303h-202q-7 37 -11 123q-62 -141 -239 -141q-262 0 -262 315v756h213v-707q0 -92 27.5 -137t97.5 -45q80 0 120.5 55.5t40.5 190.5v643h213zM580 1184h-226l-184 276h197l100 -155l98 155h197z" />
    <glyph glyph-name="uni01D5" unicode="&#x1d5;" horiz-adv-x="1054" 
d="M115 1389h215v-963q0 -266 198 -266q58 0 97.5 19.5t60 58t29 83t8.5 105.5v963h217v-967q0 -445 -416 -445q-114 0 -195.5 32t-127 93t-66 138.5t-20.5 179.5v969zM442 1479h-174v184h174v-184zM770 1749h-487v139h487v-139zM786 1479h-176v184h176v-184z" />
    <glyph glyph-name="uni01D6" unicode="&#x1d6;" horiz-adv-x="933" 
d="M823 1053v-750q0 -250 2 -303h-202q-7 37 -11 123q-62 -141 -239 -141q-262 0 -262 315v756h213v-707q0 -92 27.5 -137t97.5 -45q80 0 120.5 55.5t40.5 190.5v643h213zM385 1167h-178v179h178v-179zM717 1444h-502v145h502v-145zM725 1167h-180v179h180v-179z" />
    <glyph glyph-name="uni01D7" unicode="&#x1d7;" horiz-adv-x="1054" 
d="M115 1389h215v-963q0 -266 198 -266q58 0 97.5 19.5t60 58t29 83t8.5 105.5v963h217v-967q0 -445 -416 -445q-114 0 -195.5 32t-127 93t-66 138.5t-20.5 179.5v969zM264 1663h182v-184h-182v184zM414 1724l172 199h270l-242 -199h-200zM788 1479h-182v184h182v-184z" />
    <glyph glyph-name="uni01D8" unicode="&#x1d8;" horiz-adv-x="933" 
d="M823 1053v-750q0 -250 2 -303h-202q-7 37 -11 123q-62 -141 -239 -141q-262 0 -262 315v756h213v-707q0 -92 27.5 -137t97.5 -45q80 0 120.5 55.5t40.5 190.5v643h213zM207 1348h178v-181h-178v181zM545 1415h-199l162 211h260zM725 1167h-180v181h180v-181z" />
    <glyph glyph-name="uni01D9" unicode="&#x1d9;" horiz-adv-x="1054" 
d="M115 1389h215v-963q0 -266 198 -266q58 0 97.5 19.5t60 58t29 83t8.5 105.5v963h217v-967q0 -445 -416 -445q-114 0 -195.5 32t-127 93t-66 138.5t-20.5 179.5v969zM618 1724h-196l-191 201h191l100 -104l99 104h190zM446 1479h-182v184h182v-184zM788 1479h-182v184h182
v-184z" />
    <glyph glyph-name="uni01DA" unicode="&#x1da;" horiz-adv-x="933" 
d="M823 1053v-750q0 -250 2 -303h-202q-7 37 -11 123q-62 -141 -239 -141q-262 0 -262 315v756h213v-707q0 -92 27.5 -137t97.5 -45q80 0 120.5 55.5t40.5 190.5v643h213zM563 1405h-198l-189 211h191l98 -115l98 115h191zM385 1163h-180v183h180v-183zM727 1163h-180v183
h180v-183z" />
    <glyph glyph-name="uni01DB" unicode="&#x1db;" horiz-adv-x="1054" 
d="M115 1389h215v-963q0 -266 198 -266q58 0 97.5 19.5t60 58t29 83t8.5 105.5v963h217v-967q0 -445 -416 -445q-114 0 -195.5 32t-127 93t-66 138.5t-20.5 179.5v969zM264 1663h182v-184h-182v184zM637 1724h-199l-245 199h270zM788 1479h-182v184h182v-184z" />
    <glyph glyph-name="uni01DC" unicode="&#x1dc;" horiz-adv-x="933" 
d="M823 1053v-750q0 -250 2 -303h-202q-7 37 -11 123q-62 -141 -239 -141q-262 0 -262 315v756h213v-707q0 -92 27.5 -137t97.5 -45q80 0 120.5 55.5t40.5 190.5v643h213zM207 1348h178v-181h-178v181zM156 1626h262l160 -211h-197zM725 1167h-180v181h180v-181z" />
    <glyph glyph-name="Gcaron" unicode="&#x1e6;" horiz-adv-x="1019" 
d="M920 774v-774h-166q-10 102 -11 129q-80 -152 -276 -152q-108 0 -184 49t-120.5 144.5t-64.5 222t-20 295.5q0 721 454 721q74 0 135 -18t100 -45t68.5 -67t44.5 -74.5t24.5 -77t12 -65t3.5 -48.5h-213q-16 211 -181 211q-63 0 -107.5 -38.5t-70 -112t-36.5 -168
t-11 -218.5q0 -104 6 -183t20.5 -146t38.5 -109.5t61 -66t87 -23.5q109 0 151 85t42 269v74h-205v186h418zM635 1493h-238l-198 236h213l104 -130l102 130h216z" />
    <glyph glyph-name="gcaron" unicode="&#x1e7;" horiz-adv-x="937" 
d="M823 739v-659q0 -116 -18 -199.5t-61 -149t-121 -98t-193 -32.5q-83 0 -147.5 19.5t-102 50t-62.5 72t-34.5 79.5t-11.5 80h213q12 -127 153 -127q104 0 140 73t36 232v63q-57 -137 -231 -137q-162 0 -241 132t-79 376q0 270 91.5 413.5t251.5 143.5q167 0 208 -121
q0 16 1.5 35.5t4 39.5l3.5 28h204q-4 -122 -4 -314zM281 520q0 -334 168 -334q97 0 133 89t36 276q0 69 -3 116t-12.5 92.5t-26.5 71.5t-46 42t-71 16q-178 0 -178 -369zM582 1184h-226l-184 276h197l100 -155l98 155h197z" />
    <glyph glyph-name="uni0218" unicode="&#x218;" horiz-adv-x="929" 
d="M47 381h215q10 -104 58 -167.5t143 -63.5q186 0 186 200q0 94 -51.5 155.5t-185.5 127.5q-121 57 -189 110.5t-102.5 126t-34.5 174.5q0 162 101 263.5t278 101.5q86 0 152.5 -23t107.5 -60t68 -88t37.5 -101.5t11.5 -106.5h-211q-3 29 -7 50.5t-16 53.5t-28.5 52.5
t-47.5 35.5t-71 15q-80 0 -120 -47.5t-40 -126.5q0 -83 45 -133t172 -109q190 -89 270 -188.5t80 -263.5q0 -83 -25 -153t-74.5 -124t-129.5 -84.5t-182 -30.5q-89 0 -158.5 22.5t-115 60t-75.5 90.5t-44 109.5t-17 121.5zM485 -459h-184q65 148 80 353h209
q-7 -105 -36.5 -200.5t-68.5 -152.5z" />
    <glyph glyph-name="uni0219" unicode="&#x219;" horiz-adv-x="802" 
d="M43 313h209q2 -72 40 -120t114 -48q67 0 101 35t34 96q0 65 -36.5 103.5t-133.5 75.5q-174 64 -236.5 134.5t-62.5 188.5q0 56 18 106t55 93t102.5 68.5t151.5 25.5q75 0 134.5 -20t95.5 -51.5t59 -74.5t32 -84.5t9 -86.5h-205q0 17 -1.5 32.5t-9.5 39t-21 40t-38.5 29
t-60.5 12.5q-56 0 -85 -30.5t-29 -83.5q0 -54 35.5 -86.5t134.5 -69.5q166 -63 234.5 -136.5t68.5 -199.5q0 -153 -93 -236t-264 -83q-173 0 -261.5 91t-90.5 240zM418 -459h-185q65 148 80 353h209q-7 -105 -36 -200.5t-68 -152.5z" />
    <glyph glyph-name="uni021A" unicode="&#x21a;" horiz-adv-x="829" 
d="M307 0v1198h-301v191h817v-191h-301v-1198h-215zM414 -459h-185q65 148 80 353h209q-7 -105 -36 -200.5t-68 -152.5z" />
    <glyph glyph-name="uni021B" unicode="&#x21b;" horiz-adv-x="536" 
d="M-6 877v176h141v268h211v-268h170v-176h-170v-615q0 -54 17.5 -78t72.5 -24q46 0 64 4v-158q-46 -20 -140 -20q-119 0 -172 53t-53 186v652h-141zM301 -459h-184q65 148 80 353h209q-7 -105 -36.5 -200.5t-68.5 -152.5z" />
    <glyph glyph-name="uni0237" unicode="&#x237;" horiz-adv-x="442" 
d="M115 1053h211v-1088q0 -70 -4 -117.5t-19.5 -97.5t-43 -79t-76 -47.5t-117.5 -18.5q-53 0 -84 4v184q20 -2 49 -2q53 0 68.5 29.5t15.5 107.5v1125z" />
    <glyph glyph-name="uni0251" unicode="&#x251;" horiz-adv-x="933" 
d="M614 1053h207v-768q0 -204 8 -285h-204q-13 41 -13 123q-31 -69 -84 -105t-151 -36q-314 0 -314 555q0 160 36.5 278t116 187t196.5 69q160 0 196 -110q1 8 3 47t3 45zM279 535q0 -194 40 -282.5t123 -88.5q99 0 135.5 89t36.5 288q0 188 -33 268t-126 80
q-84 0 -130 -81.5t-46 -272.5z" />
    <glyph glyph-name="uni0259" unicode="&#x259;" horiz-adv-x="876" 
d="M66 578h534q0 67 -6.5 117.5t-23 99t-51.5 74.5t-87 26q-38 0 -67.5 -13.5t-45.5 -31t-26.5 -42t-13.5 -39t-5 -30.5h-204q29 227 198 302q73 32 168 32t165.5 -33t110 -84t63.5 -127.5t31 -147t7 -159.5q0 -257 -96 -398.5t-287 -141.5q-87 0 -152.5 26.5t-106 71
t-66 110t-35 135.5t-9.5 156q0 47 5 97zM598 422h-326q0 -55 6 -97t21.5 -82.5t48.5 -62.5t82 -22q161 0 168 264z" />
    <glyph glyph-name="uni0261" unicode="&#x261;" horiz-adv-x="937" 
d="M823 739v-659q0 -116 -18 -199.5t-61 -149t-121 -98t-193 -32.5q-83 0 -147.5 19.5t-102 50t-62.5 72t-34.5 79.5t-11.5 80h213q12 -127 153 -127q104 0 140 73t36 232v63q-57 -137 -231 -137q-162 0 -241 132t-79 376q0 270 91.5 413.5t251.5 143.5q167 0 208 -121
q0 16 1.5 35.5t4 39.5l3.5 28h204q-4 -122 -4 -314zM281 520q0 -334 168 -334q97 0 133 89t36 276q0 69 -3 116t-12.5 92.5t-26.5 71.5t-46 42t-71 16q-178 0 -178 -369z" />
    <glyph glyph-name="uni02BB" unicode="&#x2bb;" horiz-adv-x="684" 
d="M315 1460h166q-73 -273 -73 -497h-203q4 130 37.5 275.5t72.5 221.5z" />
    <glyph glyph-name="uni02BC" unicode="&#x2bc;" horiz-adv-x="684" 
d="M371 963h-166q74 276 74 497h200q-3 -129 -36 -274t-72 -223z" />
    <glyph glyph-name="uni02BE" unicode="&#x2be;" horiz-adv-x="630" 
d="M205 1262q84 6 84 71q0 30 -23 48t-61 20v117q99 0 160 -50t61 -135q0 -88 -61 -138t-160 -50v117z" />
    <glyph glyph-name="uni02BF" unicode="&#x2bf;" horiz-adv-x="630" 
d="M426 1264v-119q-98 0 -159.5 50t-61.5 134q0 89 61.5 139t159.5 50v-115q-82 -6 -82 -72q0 -30 22.5 -47.5t59.5 -19.5z" />
    <glyph glyph-name="circumflex" unicode="&#x2c6;" 
d="M295 1458h225l182 -276h-196l-98 155l-99 -155h-194z" />
    <glyph glyph-name="caron" unicode="&#x2c7;" 
d="M522 1184h-225l-184 276h196l101 -155l98 155h197z" />
    <glyph glyph-name="uni02C8" unicode="&#x2c8;" horiz-adv-x="598" 
d="M393 1188h-188v348h188v-348z" />
    <glyph glyph-name="uni02C9" unicode="&#x2c9;" horiz-adv-x="905" 
d="M205 1409h495v-168h-495v168z" />
    <glyph glyph-name="uni02CA" unicode="&#x2ca;" horiz-adv-x="841" 
d="M414 1473h248l-265 -281h-184z" />
    <glyph glyph-name="uni02CB" unicode="&#x2cb;" horiz-adv-x="845" 
d="M180 1473h250l203 -281h-189z" />
    <glyph glyph-name="uni02CC" unicode="&#x2cc;" horiz-adv-x="598" 
d="M393 -451h-188v349h188v-349z" />
    <glyph glyph-name="breve" unicode="&#x2d8;" 
d="M133 1442h160q18 -105 117 -105q56 0 80.5 28t35.5 77h156q-12 -112 -80 -185t-196 -73q-129 0 -197.5 76t-75.5 182z" />
    <glyph glyph-name="dotaccent" unicode="&#x2d9;" 
d="M514 1225h-211v231h211v-231z" />
    <glyph glyph-name="ring" unicode="&#x2da;" 
d="M412 1157q-92 0 -146.5 52t-54.5 130q0 80 53.5 133.5t145.5 53.5t145 -52t53 -133t-54 -132.5t-142 -51.5zM410 1253q40 0 63 25.5t23 60.5q0 37 -22 64t-64 27q-43 0 -64.5 -26t-21.5 -63q0 -36 21.5 -62t64.5 -26z" />
    <glyph glyph-name="ogonek" unicode="&#x2db;" 
d="M391 57l129 -57q-82 -79 -82 -156q0 -40 23 -62t63 -22q37 0 78 13l16 -142q-54 -32 -163 -32q-97 0 -157 51t-60 145q0 69 40.5 139.5t112.5 122.5z" />
    <glyph glyph-name="tilde" unicode="&#x2dc;" 
d="M270 1202h-145v53q0 181 151 181q46 0 92.5 -20t83 -40t58.5 -20q20 0 29.5 14.5t9.5 52.5v15h141v-45q0 -108 -40 -151.5t-113 -43.5q-43 0 -88 20t-82 40t-60 20q-37 0 -37 -53v-23z" />
    <glyph glyph-name="hungarumlaut" unicode="&#x2dd;" 
d="M289 1180h-160l164 295h211zM623 1180h-160l164 295h209z" />
    <glyph glyph-name="uni0300" unicode="&#x300;" horiz-adv-x="0" 
d="M-244 1473h250l203 -281h-189z" />
    <glyph glyph-name="uni0301" unicode="&#x301;" horiz-adv-x="0" 
d="M-6 1473h248l-265 -281h-184z" />
    <glyph glyph-name="uni0302" unicode="&#x302;" horiz-adv-x="0" 
d="M-115 1458h226l182 -276h-197l-98 155l-98 -155h-195z" />
    <glyph glyph-name="uni0303" unicode="&#x303;" horiz-adv-x="0" 
d="M-139 1202h-146v53q0 181 152 181q46 0 92 -20t82.5 -40t58.5 -20q20 0 29.5 14.5t9.5 52.5v15h142v-45q0 -108 -40.5 -151.5t-113.5 -43.5q-43 0 -87.5 20t-81.5 40t-60 20q-37 0 -37 -53v-23z" />
    <glyph glyph-name="uni0304" unicode="&#x304;" horiz-adv-x="0" 
d="M-250 1409h496v-168h-496v168z" />
    <glyph glyph-name="uni0306" unicode="&#x306;" horiz-adv-x="0" 
d="M-276 1442h159q18 -105 117 -105q56 0 81 28t36 77h155q-12 -112 -80 -185t-196 -73q-129 0 -197 76t-75 182z" />
    <glyph glyph-name="uni0307" unicode="&#x307;" horiz-adv-x="0" 
d="M104 1225h-210v231h210v-231z" />
    <glyph glyph-name="uni0308" unicode="&#x308;" horiz-adv-x="0" 
d="M-72 1223h-176v233h176v-233zM248 1223h-176v233h176v-233z" />
    <glyph glyph-name="uni0309" unicode="&#x309;" horiz-adv-x="0" 
d="M82 1180h-178q55 54 74.5 82.5t19.5 62.5q0 25 -17 41t-51 16q-50 0 -98 -30l-45 121q83 59 201 59q94 0 145 -46.5t51 -117.5q0 -95 -102 -188z" />
    <glyph glyph-name="uni030A" unicode="&#x30a;" horiz-adv-x="0" 
d="M2 1157q-92 0 -146.5 52t-54.5 130q0 80 53.5 133.5t145.5 53.5t145.5 -52t53.5 -133q0 -80 -54.5 -132t-142.5 -52zM0 1253q40 0 63 25.5t23 60.5q0 37 -22 64t-64 27q-43 0 -64.5 -26t-21.5 -63q0 -36 21.5 -62t64.5 -26z" />
    <glyph glyph-name="uni030B" unicode="&#x30b;" horiz-adv-x="0" 
d="M-182 1180h-160l164 295h211zM152 1180h-160l164 295h209z" />
    <glyph glyph-name="uni030C" unicode="&#x30c;" horiz-adv-x="0" 
d="M113 1184h-226l-184 276h197l100 -155l98 155h197z" />
    <glyph glyph-name="uni031B" unicode="&#x31b;" horiz-adv-x="0" 
d="M-68 942l-67 137q86 8 86 105q0 47 -14 108h188q12 -50 12 -112q0 -97 -50.5 -159t-154.5 -79z" />
    <glyph glyph-name="uni0323" unicode="&#x323;" horiz-adv-x="0" 
d="M109 -358h-222v229h222v-229z" />
    <glyph glyph-name="uni0324" unicode="&#x324;" horiz-adv-x="0" 
d="M-72 -367h-176v234h176v-234zM248 -367h-176v234h176v-234z" />
    <glyph glyph-name="uni0326" unicode="&#x326;" horiz-adv-x="0" 
d="M27 -459h-185q65 148 80 353h209q-7 -105 -36 -200.5t-68 -152.5z" />
    <glyph glyph-name="uni0327" unicode="&#x327;" horiz-adv-x="0" 
d="M-55 6h139l-41 -76q152 -47 152 -168q0 -79 -55.5 -126.5t-157.5 -47.5t-162 35l33 121q40 -25 106 -25q64 0 64 45q0 61 -138 78v52z" />
    <glyph glyph-name="uni0328" unicode="&#x328;" horiz-adv-x="0" 
d="M-39 57l129 -57q-82 -79 -82 -156q0 -40 23 -62t63 -22q37 0 78 13l16 -142q-54 -32 -163 -32q-97 0 -157.5 51t-60.5 145q0 69 41 139.5t113 122.5z" />
    <glyph glyph-name="uni032E" unicode="&#x32e;" horiz-adv-x="0" 
d="M-276 -109h159q18 -104 117 -104q56 0 81 28t36 76h155q-12 -112 -80 -185t-196 -73q-129 0 -197 76t-75 182z" />
    <glyph glyph-name="uni0331" unicode="&#x331;" horiz-adv-x="0" 
d="M-250 -152h496v-167h-496v167z" />
    <glyph glyph-name="pi" unicode="&#x3c0;" horiz-adv-x="958" 
d="M598 0v872h-242v-872h-213v872q-90 0 -131 -6v178q65 9 305 9h615l-2 -183h-121v-870h-211z" />
    <glyph glyph-name="uni1E0C" unicode="&#x1e0c;" horiz-adv-x="1032" 
d="M127 0v1389h342q254 0 369.5 -165t115.5 -499q0 -181 -26.5 -312t-85 -225.5t-156 -141t-235.5 -46.5h-324zM344 1206v-1028h102q157 0 221 127.5t64 417.5q0 257 -63.5 370t-218.5 113h-105zM584 -358h-222v229h222v-229z" />
    <glyph glyph-name="uni1E0D" unicode="&#x1e0d;" horiz-adv-x="933" 
d="M608 1456h213v-1171q0 -224 2 -285h-205q-6 81 -6 123q-53 -141 -239 -141q-161 0 -235.5 139.5t-74.5 415.5q0 252 87.5 393t261.5 141q155 0 196 -92v477zM279 532q0 -195 39.5 -281.5t123.5 -86.5q101 0 136.5 84.5t35.5 292.5q0 204 -31 276t-128 72q-86 0 -131 -82
t-45 -275zM575 -358h-221v229h221v-229z" />
    <glyph glyph-name="uni1E0E" unicode="&#x1e0e;" horiz-adv-x="1032" 
d="M127 0v1389h342q254 0 369.5 -165t115.5 -499q0 -181 -26.5 -312t-85 -225.5t-156 -141t-235.5 -46.5h-324zM344 1206v-1028h102q157 0 221 127.5t64 417.5q0 257 -63.5 370t-218.5 113h-105zM240 -152h495v-167h-495v167z" />
    <glyph glyph-name="uni1E0F" unicode="&#x1e0f;" horiz-adv-x="933" 
d="M608 1456h213v-1171q0 -224 2 -285h-205q-6 81 -6 123q-53 -141 -239 -141q-161 0 -235.5 139.5t-74.5 415.5q0 252 87.5 393t261.5 141q155 0 196 -92v477zM279 532q0 -195 39.5 -281.5t123.5 -86.5q101 0 136.5 84.5t35.5 292.5q0 204 -31 276t-128 72q-86 0 -131 -82
t-45 -275zM217 -152h496v-167h-496v167z" />
    <glyph glyph-name="uni1E20" unicode="&#x1e20;" horiz-adv-x="1019" 
d="M920 774v-774h-166q-10 102 -11 129q-80 -152 -276 -152q-108 0 -184 49t-120.5 144.5t-64.5 222t-20 295.5q0 721 454 721q74 0 135 -18t100 -45t68.5 -67t44.5 -74.5t24.5 -77t12 -65t3.5 -48.5h-213q-16 211 -181 211q-63 0 -107.5 -38.5t-70 -112t-36.5 -168
t-11 -218.5q0 -104 6 -183t20.5 -146t38.5 -109.5t61 -66t87 -23.5q109 0 151 85t42 269v74h-205v186h418zM256 1683h520v-161h-520v161z" />
    <glyph glyph-name="uni1E21" unicode="&#x1e21;" horiz-adv-x="937" 
d="M823 739v-659q0 -116 -18 -199.5t-61 -149t-121 -98t-193 -32.5q-83 0 -147.5 19.5t-102 50t-62.5 72t-34.5 79.5t-11.5 80h213q12 -127 153 -127q104 0 140 73t36 232v63q-57 -137 -231 -137q-162 0 -241 132t-79 376q0 270 91.5 413.5t251.5 143.5q167 0 208 -121
q0 16 1.5 35.5t4 39.5l3.5 28h204q-4 -122 -4 -314zM281 520q0 -334 168 -334q97 0 133 89t36 276q0 69 -3 116t-12.5 92.5t-26.5 71.5t-46 42t-71 16q-178 0 -178 -369zM219 1409h496v-168h-496v168z" />
    <glyph glyph-name="uni1E24" unicode="&#x1e24;" horiz-adv-x="1058" 
d="M127 0v1389h215v-564h375v564h215v-1389h-215v639h-375v-639h-215zM637 -358h-221v229h221v-229z" />
    <glyph glyph-name="uni1E25" unicode="&#x1e25;" horiz-adv-x="942" 
d="M115 1456h211v-514q68 129 241 129q128 0 196 -82t68 -244v-745h-213v702q0 94 -29 140.5t-108 46.5q-85 0 -120 -63t-35 -187v-639h-211v1456zM580 -358h-222v229h222v-229z" />
    <glyph glyph-name="uni1E2A" unicode="&#x1e2a;" horiz-adv-x="1058" 
d="M127 0v1389h215v-564h375v564h215v-1389h-215v639h-375v-639h-215zM252 -109h160q18 -104 116 -104q56 0 81 28t36 76h156q-12 -112 -80.5 -185t-196.5 -73q-129 0 -197 76t-75 182z" />
    <glyph glyph-name="uni1E2B" unicode="&#x1e2b;" horiz-adv-x="942" 
d="M115 1456h211v-514q68 129 241 129q128 0 196 -82t68 -244v-745h-213v702q0 94 -29 140.5t-108 46.5q-85 0 -120 -63t-35 -187v-639h-211v1456zM195 -109h159q18 -104 117 -104q56 0 81 28t36 76h155q-12 -112 -80 -185t-196 -73q-129 0 -197 76t-75 182z" />
    <glyph glyph-name="uni1E36" unicode="&#x1e36;" horiz-adv-x="825" 
d="M127 0v1389h215v-1205h481l-22 -184h-674zM588 -352h-221v229h221v-229z" />
    <glyph glyph-name="uni1E37" unicode="&#x1e37;" horiz-adv-x="438" 
d="M326 0h-213v1456h213v-1456zM328 -358h-222v229h222v-229z" />
    <glyph glyph-name="uni1E38" unicode="&#x1e38;" horiz-adv-x="825" 
d="M127 0v1389h215v-1205h481l-22 -184h-674zM594 -358h-221v229h221v-229zM-25 1675h521v-162h-521v162z" />
    <glyph glyph-name="uni1E39" unicode="&#x1e39;" horiz-adv-x="438" 
d="M326 0h-213v1456h213v-1456zM-31 1710h496v-168h-496v168zM328 -358h-222v229h222v-229z" />
    <glyph glyph-name="uni1E3A" unicode="&#x1e3a;" horiz-adv-x="825" 
d="M127 0v1389h215v-1205h481l-22 -184h-674zM223 -145h496v-168h-496v168z" />
    <glyph glyph-name="uni1E3B" unicode="&#x1e3b;" horiz-adv-x="438" 
d="M326 0h-213v1456h213v-1456zM-31 -152h496v-167h-496v167z" />
    <glyph glyph-name="uni1E42" unicode="&#x1e42;" horiz-adv-x="1304" 
d="M973 0v543q0 355 8 663h-6q-7 -37 -43 -225t-60 -313.5t-63.5 -319t-73.5 -348.5h-196q-166 910 -217 1210h-9q15 -304 15 -696v-514h-199v1389h322q124 -580 196 -1035h2q36 231 215 1035h316v-1389h-207zM745 -352h-221v229h221v-229z" />
    <glyph glyph-name="uni1E43" unicode="&#x1e43;" horiz-adv-x="1402" 
d="M115 0v737q0 269 -2 316h202q7 -44 7 -117q74 135 233 135q164 0 215 -147q79 147 258 147q262 0 262 -313v-758h-209v725q0 164 -125 164q-147 0 -147 -223v-666h-211v721q0 84 -29 125t-94 41q-149 0 -149 -232v-655h-211zM811 -358h-221v229h221v-229z" />
    <glyph glyph-name="uni1E44" unicode="&#x1e44;" horiz-adv-x="1079" 
d="M322 0h-195v1389h250q354 -925 376 -990q10 -31 15 -51h2q-12 209 -12 606v435h194v-1389h-239q-52 138 -136 363q-248 663 -263 717q0 3 -1 5h-2q11 -189 11 -634v-451zM645 1497h-215v229h215v-229z" />
    <glyph glyph-name="uni1E45" unicode="&#x1e45;" horiz-adv-x="944" 
d="M113 0v725q0 275 -2 328h204q7 -47 7 -119q68 137 239 137q127 0 198.5 -79.5t71.5 -239.5v-752h-213v705q0 91 -29.5 137.5t-103.5 46.5q-84 0 -121.5 -56.5t-37.5 -189.5v-643h-213zM575 1225h-210v231h210v-231z" />
    <glyph glyph-name="uni1E46" unicode="&#x1e46;" horiz-adv-x="1079" 
d="M322 0h-195v1389h250q354 -925 376 -990q10 -31 15 -51h2q-12 209 -12 606v435h194v-1389h-239q-52 138 -136 363q-248 663 -263 717q0 3 -1 5h-2q11 -189 11 -634v-451zM647 -352h-221v229h221v-229z" />
    <glyph glyph-name="uni1E47" unicode="&#x1e47;" horiz-adv-x="944" 
d="M113 0v725q0 275 -2 328h204q7 -47 7 -119q68 137 239 137q127 0 198.5 -79.5t71.5 -239.5v-752h-213v705q0 91 -29.5 137.5t-103.5 46.5q-84 0 -121.5 -56.5t-37.5 -189.5v-643h-213zM580 -358h-222v229h222v-229z" />
    <glyph glyph-name="uni1E48" unicode="&#x1e48;" horiz-adv-x="1079" 
d="M322 0h-195v1389h250q354 -925 376 -990q10 -31 15 -51h2q-12 209 -12 606v435h194v-1389h-239q-52 138 -136 363q-248 663 -263 717q0 3 -1 5h-2q11 -189 11 -634v-451zM289 -152h495v-167h-495v167z" />
    <glyph glyph-name="uni1E49" unicode="&#x1e49;" horiz-adv-x="944" 
d="M113 0v725q0 275 -2 328h204q7 -47 7 -119q68 137 239 137q127 0 198.5 -79.5t71.5 -239.5v-752h-213v705q0 91 -29.5 137.5t-103.5 46.5q-84 0 -121.5 -56.5t-37.5 -189.5v-643h-213zM221 -152h496v-167h-496v167z" />
    <glyph glyph-name="uni1E5A" unicode="&#x1e5a;" horiz-adv-x="985" 
d="M469 608h-129v-608h-213v1389h403q184 0 282.5 -96.5t98.5 -276.5q0 -72 -17 -130.5t-46 -95.5t-58 -59.5t-61 -34.5q87 -37 124.5 -117.5t37.5 -230.5v-55q0 -182 18 -293h-209q-22 69 -22 295v49q0 147 -43 205.5t-166 58.5zM340 1210v-426h139q114 0 164.5 55.5
t50.5 168.5q0 202 -194 202h-160zM621 -338h-222v229h222v-229z" />
    <glyph glyph-name="uni1E5B" unicode="&#x1e5b;" horiz-adv-x="618" 
d="M113 0v696q0 281 -2 357h202q6 -60 6 -179q31 93 102.5 144t174.5 51v-235q-135 0 -202.5 -63t-67.5 -206v-565h-213zM328 -358h-222v229h222v-229z" />
    <glyph glyph-name="uni1E5C" unicode="&#x1e5c;" horiz-adv-x="985" 
d="M469 608h-129v-608h-213v1389h403q184 0 282.5 -96.5t98.5 -276.5q0 -72 -17 -130.5t-46 -95.5t-58 -59.5t-61 -34.5q87 -37 124.5 -117.5t37.5 -230.5v-55q0 -182 18 -293h-209q-22 69 -22 295v49q0 147 -43 205.5t-166 58.5zM340 1210v-426h139q114 0 164.5 55.5
t50.5 168.5q0 202 -194 202h-160zM621 -338h-222v229h222v-229zM231 1683h521v-161h-521v161z" />
    <glyph glyph-name="uni1E5D" unicode="&#x1e5d;" horiz-adv-x="618" 
d="M113 0v696q0 281 -2 357h202q6 -60 6 -179q31 93 102.5 144t174.5 51v-235q-135 0 -202.5 -63t-67.5 -206v-565h-213zM98 1409h496v-168h-496v168zM328 -358h-222v229h222v-229z" />
    <glyph glyph-name="uni1E5E" unicode="&#x1e5e;" horiz-adv-x="985" 
d="M469 608h-129v-608h-213v1389h403q184 0 282.5 -96.5t98.5 -276.5q0 -72 -17 -130.5t-46 -95.5t-58 -59.5t-61 -34.5q87 -37 124.5 -117.5t37.5 -230.5v-55q0 -182 18 -293h-209q-22 69 -22 295v49q0 147 -43 205.5t-166 58.5zM340 1210v-426h139q114 0 164.5 55.5
t50.5 168.5q0 202 -194 202h-160zM262 -147h496v-168h-496v168z" />
    <glyph glyph-name="uni1E5F" unicode="&#x1e5f;" horiz-adv-x="618" 
d="M113 0v696q0 281 -2 357h202q6 -60 6 -179q31 93 102.5 144t174.5 51v-235q-135 0 -202.5 -63t-67.5 -206v-565h-213zM-20 -152h495v-167h-495v167z" />
    <glyph glyph-name="uni1E60" unicode="&#x1e60;" horiz-adv-x="929" 
d="M47 381h215q10 -104 58 -167.5t143 -63.5q186 0 186 200q0 94 -51.5 155.5t-185.5 127.5q-121 57 -189 110.5t-102.5 126t-34.5 174.5q0 162 101 263.5t278 101.5q86 0 152.5 -23t107.5 -60t68 -88t37.5 -101.5t11.5 -106.5h-211q-3 29 -7 50.5t-16 53.5t-28.5 52.5
t-47.5 35.5t-71 15q-80 0 -120 -47.5t-40 -126.5q0 -83 45 -133t172 -109q190 -89 270 -188.5t80 -263.5q0 -83 -25 -153t-74.5 -124t-129.5 -84.5t-182 -30.5q-89 0 -158.5 22.5t-115 60t-75.5 90.5t-44 109.5t-17 121.5zM571 1511h-215v230h215v-230z" />
    <glyph glyph-name="uni1E61" unicode="&#x1e61;" horiz-adv-x="802" 
d="M43 313h209q2 -72 40 -120t114 -48q67 0 101 35t34 96q0 65 -36.5 103.5t-133.5 75.5q-174 64 -236.5 134.5t-62.5 188.5q0 56 18 106t55 93t102.5 68.5t151.5 25.5q75 0 134.5 -20t95.5 -51.5t59 -74.5t32 -84.5t9 -86.5h-205q0 17 -1.5 32.5t-9.5 39t-21 40t-38.5 29
t-60.5 12.5q-56 0 -85 -30.5t-29 -83.5q0 -54 35.5 -86.5t134.5 -69.5q166 -63 234.5 -136.5t68.5 -199.5q0 -153 -93 -236t-264 -83q-173 0 -261.5 91t-90.5 240zM508 1225h-211v231h211v-231z" />
    <glyph glyph-name="uni1E62" unicode="&#x1e62;" horiz-adv-x="929" 
d="M47 381h215q10 -104 58 -167.5t143 -63.5q186 0 186 200q0 94 -51.5 155.5t-185.5 127.5q-121 57 -189 110.5t-102.5 126t-34.5 174.5q0 162 101 263.5t278 101.5q86 0 152.5 -23t107.5 -60t68 -88t37.5 -101.5t11.5 -106.5h-211q-3 29 -7 50.5t-16 53.5t-28.5 52.5
t-47.5 35.5t-71 15q-80 0 -120 -47.5t-40 -126.5q0 -83 45 -133t172 -109q190 -89 270 -188.5t80 -263.5q0 -83 -25 -153t-74.5 -124t-129.5 -84.5t-182 -30.5q-89 0 -158.5 22.5t-115 60t-75.5 90.5t-44 109.5t-17 121.5zM573 -358h-221v229h221v-229z" />
    <glyph glyph-name="uni1E63" unicode="&#x1e63;" horiz-adv-x="802" 
d="M43 313h209q2 -72 40 -120t114 -48q67 0 101 35t34 96q0 65 -36.5 103.5t-133.5 75.5q-174 64 -236.5 134.5t-62.5 188.5q0 56 18 106t55 93t102.5 68.5t151.5 25.5q75 0 134.5 -20t95.5 -51.5t59 -74.5t32 -84.5t9 -86.5h-205q0 17 -1.5 32.5t-9.5 39t-21 40t-38.5 29
t-60.5 12.5q-56 0 -85 -30.5t-29 -83.5q0 -54 35.5 -86.5t134.5 -69.5q166 -63 234.5 -136.5t68.5 -199.5q0 -153 -93 -236t-264 -83q-173 0 -261.5 91t-90.5 240zM512 -358h-221v229h221v-229z" />
    <glyph glyph-name="uni1E6C" unicode="&#x1e6c;" horiz-adv-x="829" 
d="M307 0v1198h-301v191h817v-191h-301v-1198h-215zM524 -358h-221v229h221v-229z" />
    <glyph glyph-name="uni1E6D" unicode="&#x1e6d;" horiz-adv-x="536" 
d="M-6 877v176h141v268h211v-268h170v-176h-170v-615q0 -54 17.5 -78t72.5 -24q46 0 64 4v-158q-46 -20 -140 -20q-119 0 -172 53t-53 186v652h-141zM403 -358h-221v229h221v-229z" />
    <glyph glyph-name="uni1E6E" unicode="&#x1e6e;" horiz-adv-x="829" 
d="M307 0v1198h-301v191h817v-191h-301v-1198h-215zM166 -152h496v-167h-496v167z" />
    <glyph glyph-name="uni1E6F" unicode="&#x1e6f;" horiz-adv-x="536" 
d="M-6 877v176h141v268h211v-268h170v-176h-170v-615q0 -54 17.5 -78t72.5 -24q46 0 64 4v-158q-46 -20 -140 -20q-119 0 -172 53t-53 186v652h-141zM59 -152h496v-167h-496v167z" />
    <glyph glyph-name="Wgrave" unicode="&#x1e80;" horiz-adv-x="1439" 
d="M510 0h-217l-266 1389h229q135 -788 158 -1088h2q21 136 104.5 554t104.5 534h196l65 -330t87 -453t49 -295h4q18 159 90.5 581.5t83.5 496.5h215l-289 -1389h-217q-19 103 -64 329.5t-80 412.5t-50 296h-2q-17 -115 -51 -291.5t-88 -437.5t-64 -309zM356 1745h267
l223 -246h-211z" />
    <glyph glyph-name="wgrave" unicode="&#x1e81;" horiz-adv-x="1290" 
d="M20 1053h226q117 -644 137 -824h4q8 63 24.5 143.5t60.5 282t85 398.5h193q149 -695 161 -820h2q23 164 146 820h213l-258 -1053h-217q-15 74 -47.5 229t-47 226t-31.5 162.5t-24 146.5h-2q-7 -54 -25 -142.5t-34.5 -163.5t-51 -224t-53.5 -234h-223zM297 1473h250
l203 -281h-189z" />
    <glyph glyph-name="Wacute" unicode="&#x1e82;" horiz-adv-x="1439" 
d="M510 0h-217l-266 1389h229q135 -788 158 -1088h2q21 136 104.5 554t104.5 534h196l65 -330t87 -453t49 -295h4q18 159 90.5 581.5t83.5 496.5h215l-289 -1389h-217q-19 103 -64 329.5t-80 412.5t-50 296h-2q-17 -115 -51 -291.5t-88 -437.5t-64 -309zM821 1745h258
l-280 -246h-207z" />
    <glyph glyph-name="wacute" unicode="&#x1e83;" horiz-adv-x="1290" 
d="M20 1053h226q117 -644 137 -824h4q8 63 24.5 143.5t60.5 282t85 398.5h193q149 -695 161 -820h2q23 164 146 820h213l-258 -1053h-217q-15 74 -47.5 229t-47 226t-31.5 162.5t-24 146.5h-2q-7 -54 -25 -142.5t-34.5 -163.5t-51 -224t-53.5 -234h-223zM754 1473h247
l-264 -281h-184z" />
    <glyph glyph-name="Wdieresis" unicode="&#x1e84;" horiz-adv-x="1439" 
d="M510 0h-217l-266 1389h229q135 -788 158 -1088h2q21 136 104.5 554t104.5 534h196l65 -330t87 -453t49 -295h4q18 159 90.5 581.5t83.5 496.5h215l-289 -1389h-217q-19 103 -64 329.5t-80 412.5t-50 296h-2q-17 -115 -51 -291.5t-88 -437.5t-64 -309zM641 1501h-180v230
h180v-230zM977 1501h-182v230h182v-230z" />
    <glyph glyph-name="wdieresis" unicode="&#x1e85;" horiz-adv-x="1290" 
d="M20 1053h226q117 -644 137 -824h4q8 63 24.5 143.5t60.5 282t85 398.5h193q149 -695 161 -820h2q23 164 146 820h213l-258 -1053h-217q-15 74 -47.5 229t-47 226t-31.5 162.5t-24 146.5h-2q-7 -54 -25 -142.5t-34.5 -163.5t-51 -224t-53.5 -234h-223zM571 1223h-176v233
h176v-233zM891 1223h-176v233h176v-233z" />
    <glyph glyph-name="uni1E8E" unicode="&#x1e8e;" horiz-adv-x="899" 
d="M557 0h-217v504q0 25 -8 41l-350 844h239q198 -530 234 -656q23 70 63 181.5t93 256t79 218.5h228l-355 -846q-6 -12 -6 -43v-500zM555 1511h-215v230h215v-230z" />
    <glyph glyph-name="uni1E8F" unicode="&#x1e8f;" horiz-adv-x="835" 
d="M12 1053h232q20 -81 51.5 -209.5t48.5 -199t36.5 -155.5t30 -139.5t13.5 -89.5h2q33 185 182 793h215l-305 -1102q-26 -94 -56 -159.5t-58.5 -102t-68 -56.5t-73 -25t-84.5 -5q-55 0 -88 8v180q28 -4 74 -4q71 0 103.5 43t58.5 154zM522 1225h-211v231h211v-231z" />
    <glyph glyph-name="uni1E92" unicode="&#x1e92;" horiz-adv-x="872" 
d="M35 0v152l557 1046h-514v191h749v-175l-540 -1026h563l-29 -188h-786zM545 -358h-221v229h221v-229z" />
    <glyph glyph-name="uni1E93" unicode="&#x1e93;" horiz-adv-x="739" 
d="M35 0v154q119 190 430 718h-402v181h639v-160q-201 -351 -421 -715h430l-23 -178h-653zM483 -358h-221v229h221v-229z" />
    <glyph glyph-name="uni1E97" unicode="&#x1e97;" horiz-adv-x="536" 
d="M-6 877v176h141v268h211v-268h170v-176h-170v-615q0 -54 17.5 -78t72.5 -24q46 0 64 4v-158q-46 -20 -140 -20q-119 0 -172 53t-53 186v652h-141zM174 1397h-176v233h176v-233zM494 1397h-177v233h177v-233z" />
    <glyph glyph-name="uni1E9E" unicode="&#x1e9e;" horiz-adv-x="1081" 
d="M348 1018v-1018h-223v1014q0 89 22.5 158.5t60 113.5t92 72t113 39.5t128.5 11.5q214 0 318 -101t104 -264v-59l-252 -205v-6l102 -78q117 -90 163 -173t46 -189q0 -166 -96.5 -260t-263.5 -94q-147 0 -232 55v194q95 -79 219 -79q78 0 117 43t39 114q0 69 -31.5 118
t-116.5 114l-139 106q-54 39 -55 98t55 111l217 193q0 182 -192 182q-98 0 -146.5 -54.5t-48.5 -156.5z" />
    <glyph glyph-name="uni1EA0" unicode="&#x1ea0;" horiz-adv-x="964" 
d="M643 381h-334l-80 -381h-215l326 1389h278l332 -1389h-225zM348 569h256q-17 81 -42 197.5t-38 178.5t-26.5 130.5t-20.5 112.5h-6q-5 -37 -13 -83.5t-22 -115.5t-24 -118t-31.5 -150t-32.5 -152zM590 -338h-221v229h221v-229z" />
    <glyph glyph-name="uni1EA1" unicode="&#x1ea1;" horiz-adv-x="892" 
d="M776 770v-555q0 -43 8 -215h-192q-10 58 -10 104q-66 -122 -242 -122q-72 0 -127.5 27t-87.5 72t-48 98t-16 112q0 160 107.5 252t306.5 92q67 0 94 -4v125q0 30 -4 52.5t-16 46.5t-39.5 37t-69.5 13t-70 -12.5t-41 -37t-18 -45.5t-8 -54h-201q1 49 11.5 92t35 85
t62.5 71.5t99 48t139 18.5q327 0 327 -301zM573 432v43q-25 4 -88 4q-110 0 -161.5 -46.5t-51.5 -123.5q0 -64 34 -108.5t102 -44.5q95 0 130 66.5t35 209.5zM557 -358h-221v229h221v-229z" />
    <glyph glyph-name="uni1EA2" unicode="&#x1ea2;" horiz-adv-x="964" 
d="M643 381h-334l-80 -381h-215l326 1389h278l332 -1389h-225zM348 569h256q-17 81 -42 197.5t-38 178.5t-26.5 130.5t-20.5 112.5h-6q-5 -37 -13 -83.5t-22 -115.5t-24 -118t-31.5 -150t-32.5 -152zM563 1477h-178q55 54 74.5 82.5t19.5 62.5q0 25 -17 41t-50 16
q-51 0 -99 -30l-45 120q85 60 201 60q94 0 145.5 -46.5t51.5 -117.5q0 -94 -103 -188z" />
    <glyph glyph-name="uni1EA3" unicode="&#x1ea3;" horiz-adv-x="892" 
d="M776 770v-555q0 -43 8 -215h-192q-10 58 -10 104q-66 -122 -242 -122q-72 0 -127.5 27t-87.5 72t-48 98t-16 112q0 160 107.5 252t306.5 92q67 0 94 -4v125q0 30 -4 52.5t-16 46.5t-39.5 37t-69.5 13t-70 -12.5t-41 -37t-18 -45.5t-8 -54h-201q1 49 11.5 92t35 85
t62.5 71.5t99 48t139 18.5q327 0 327 -301zM573 432v43q-25 4 -88 4q-110 0 -161.5 -46.5t-51.5 -123.5q0 -64 34 -108.5t102 -44.5q95 0 130 66.5t35 209.5zM530 1180h-178q55 54 74.5 82.5t19.5 62.5q0 25 -17 41t-50 16q-50 0 -98 -30l-45 121q83 59 200 59
q94 0 145.5 -46.5t51.5 -117.5q0 -94 -103 -188z" />
    <glyph glyph-name="uni1EA4" unicode="&#x1ea4;" horiz-adv-x="964" 
d="M643 381h-334l-80 -381h-215l326 1389h278l332 -1389h-225zM348 569h256q-17 81 -42 197.5t-38 178.5t-26.5 130.5t-20.5 112.5h-6q-5 -37 -13 -83.5t-22 -115.5t-24 -118t-31.5 -150t-32.5 -152zM365 1690h231l205 -213h-211l-111 112l-108 -112h-213zM877 1858h243
l-231 -205h-180z" />
    <glyph glyph-name="uni1EA5" unicode="&#x1ea5;" horiz-adv-x="892" 
d="M776 770v-555q0 -43 8 -215h-192q-10 58 -10 104q-66 -122 -242 -122q-72 0 -127.5 27t-87.5 72t-48 98t-16 112q0 160 107.5 252t306.5 92q67 0 94 -4v125q0 30 -4 52.5t-16 46.5t-39.5 37t-69.5 13t-70 -12.5t-41 -37t-18 -45.5t-8 -54h-201q1 49 11.5 92t35 85
t62.5 71.5t99 48t139 18.5q327 0 327 -301zM573 432v43q-25 4 -88 4q-110 0 -161.5 -46.5t-51.5 -123.5q0 -64 34 -108.5t102 -44.5q95 0 130 66.5t35 209.5zM346 1432h205l188 -252h-184l-109 145l-106 -145h-184zM817 1622h205l-213 -238h-160z" />
    <glyph glyph-name="uni1EA6" unicode="&#x1ea6;" horiz-adv-x="964" 
d="M643 381h-334l-80 -381h-215l326 1389h278l332 -1389h-225zM348 569h256q-17 81 -42 197.5t-38 178.5t-26.5 130.5t-20.5 112.5h-6q-5 -37 -13 -83.5t-22 -115.5t-24 -118t-31.5 -150t-32.5 -152zM365 1690h231l205 -213h-211l-111 112l-108 -112h-213zM578 1855h249
l170 -204h-174z" />
    <glyph glyph-name="uni1EA7" unicode="&#x1ea7;" horiz-adv-x="892" 
d="M776 770v-555q0 -43 8 -215h-192q-10 58 -10 104q-66 -122 -242 -122q-72 0 -127.5 27t-87.5 72t-48 98t-16 112q0 160 107.5 252t306.5 92q67 0 94 -4v125q0 30 -4 52.5t-16 46.5t-39.5 37t-69.5 13t-70 -12.5t-41 -37t-18 -45.5t-8 -54h-201q1 49 11.5 92t35 85
t62.5 71.5t99 48t139 18.5q327 0 327 -301zM573 432v43q-25 4 -88 4q-110 0 -161.5 -46.5t-51.5 -123.5q0 -64 34 -108.5t102 -44.5q95 0 130 66.5t35 209.5zM346 1432h205l188 -252h-184l-109 145l-106 -145h-184zM545 1626h219l170 -248h-162z" />
    <glyph glyph-name="uni1EA8" unicode="&#x1ea8;" horiz-adv-x="964" 
d="M643 381h-334l-80 -381h-215l326 1389h278l332 -1389h-225zM348 569h256q-17 81 -42 197.5t-38 178.5t-26.5 130.5t-20.5 112.5h-6q-5 -37 -13 -83.5t-22 -115.5t-24 -118t-31.5 -150t-32.5 -152zM881 1657h-150q48 43 67 70t19 57q0 47 -61 47q-46 0 -97 -33l-45 98
q77 68 189 68q82 0 126 -41.5t44 -105.5q0 -88 -92 -160zM365 1690h231l205 -213h-211l-111 112l-108 -112h-213z" />
    <glyph glyph-name="uni1EA9" unicode="&#x1ea9;" horiz-adv-x="892" 
d="M776 770v-555q0 -43 8 -215h-192q-10 58 -10 104q-66 -122 -242 -122q-72 0 -127.5 27t-87.5 72t-48 98t-16 112q0 160 107.5 252t306.5 92q67 0 94 -4v125q0 30 -4 52.5t-16 46.5t-39.5 37t-69.5 13t-70 -12.5t-41 -37t-18 -45.5t-8 -54h-201q1 49 11.5 92t35 85
t62.5 71.5t99 48t139 18.5q327 0 327 -301zM573 432v43q-25 4 -88 4q-110 0 -161.5 -46.5t-51.5 -123.5q0 -64 34 -108.5t102 -44.5q95 0 130 66.5t35 209.5zM838 1389h-160q94 78 94 129q0 49 -59 49q-56 0 -95 -33l-43 102q80 62 185 62q84 0 127 -39.5t43 -106.5
q0 -97 -92 -163zM344 1434h209l190 -254h-186l-111 145l-108 -145h-186z" />
    <glyph glyph-name="uni1EAA" unicode="&#x1eaa;" horiz-adv-x="964" 
d="M643 381h-334l-80 -381h-215l326 1389h278l332 -1389h-225zM348 569h256q-17 81 -42 197.5t-38 178.5t-26.5 130.5t-20.5 112.5h-6q-5 -37 -13 -83.5t-22 -115.5t-24 -118t-31.5 -150t-32.5 -152zM315 1712h-125v21q0 170 148 170q61 0 149.5 -31t118.5 -31
q22 0 32.5 9.5t10.5 35.5v17h125v-27q0 -91 -37.5 -128.5t-107.5 -37.5q-53 0 -148 29.5t-125 29.5q-41 0 -41 -45v-12zM369 1647h225l211 -183h-213l-115 92l-106 -92h-213z" />
    <glyph glyph-name="uni1EAB" unicode="&#x1eab;" horiz-adv-x="892" 
d="M776 770v-555q0 -43 8 -215h-192q-10 58 -10 104q-66 -122 -242 -122q-72 0 -127.5 27t-87.5 72t-48 98t-16 112q0 160 107.5 252t306.5 92q67 0 94 -4v125q0 30 -4 52.5t-16 46.5t-39.5 37t-69.5 13t-70 -12.5t-41 -37t-18 -45.5t-8 -54h-201q1 49 11.5 92t35 85
t62.5 71.5t99 48t139 18.5q327 0 327 -301zM573 432v43q-25 4 -88 4q-110 0 -161.5 -46.5t-51.5 -123.5q0 -64 34 -108.5t102 -44.5q95 0 130 66.5t35 209.5zM305 1438h-125v20q0 172 144 172q57 0 132.5 -30.5t94.5 -30.5q22 0 32.5 9.5t10.5 35.5v14h125v-24
q0 -168 -146 -168q-50 0 -125.5 29.5t-99.5 29.5q-43 0 -43 -45v-12zM336 1360h223l205 -201h-205l-115 107l-110 -107h-201z" />
    <glyph glyph-name="uni1EAC" unicode="&#x1eac;" horiz-adv-x="964" 
d="M643 381h-334l-80 -381h-215l326 1389h278l332 -1389h-225zM348 569h256q-17 81 -42 197.5t-38 178.5t-26.5 130.5t-20.5 112.5h-6q-5 -37 -13 -83.5t-22 -115.5t-24 -118t-31.5 -150t-32.5 -152zM590 -338h-221v229h221v-229zM362 1714h236l201 -235h-215l-105 125
l-102 -125h-213z" />
    <glyph glyph-name="uni1EAD" unicode="&#x1ead;" horiz-adv-x="892" 
d="M776 770v-555q0 -43 8 -215h-192q-10 58 -10 104q-66 -122 -242 -122q-72 0 -127.5 27t-87.5 72t-48 98t-16 112q0 160 107.5 252t306.5 92q67 0 94 -4v125q0 30 -4 52.5t-16 46.5t-39.5 37t-69.5 13t-70 -12.5t-41 -37t-18 -45.5t-8 -54h-201q1 49 11.5 92t35 85
t62.5 71.5t99 48t139 18.5q327 0 327 -301zM573 432v43q-25 4 -88 4q-110 0 -161.5 -46.5t-51.5 -123.5q0 -64 34 -108.5t102 -44.5q95 0 130 66.5t35 209.5zM557 -358h-221v229h221v-229zM334 1458h225l182 -276h-196l-99 155l-98 -155h-194z" />
    <glyph glyph-name="uni1EAE" unicode="&#x1eae;" horiz-adv-x="964" 
d="M643 381h-334l-80 -381h-215l326 1389h278l332 -1389h-225zM348 569h256q-17 81 -42 197.5t-38 178.5t-26.5 130.5t-20.5 112.5h-6q-5 -37 -13 -83.5t-22 -115.5t-24 -118t-31.5 -150t-32.5 -152zM182 1681h166q13 -35 47 -57t86 -22q104 0 135 79h164
q-20 -94 -93 -157.5t-208 -63.5q-74 0 -132 22t-90.5 57t-50.5 70.5t-24 71.5zM561 1909h275l-258 -178h-199z" />
    <glyph glyph-name="uni1EAF" unicode="&#x1eaf;" horiz-adv-x="892" 
d="M776 770v-555q0 -43 8 -215h-192q-10 58 -10 104q-66 -122 -242 -122q-72 0 -127.5 27t-87.5 72t-48 98t-16 112q0 160 107.5 252t306.5 92q67 0 94 -4v125q0 30 -4 52.5t-16 46.5t-39.5 37t-69.5 13t-70 -12.5t-41 -37t-18 -45.5t-8 -54h-201q1 49 11.5 92t35 85
t62.5 71.5t99 48t139 18.5q327 0 327 -301zM573 432v43q-25 4 -88 4q-110 0 -161.5 -46.5t-51.5 -123.5q0 -64 34 -108.5t102 -44.5q95 0 130 66.5t35 209.5zM162 1391h160q24 -88 127 -88q59 0 86 23.5t40 64.5h156q-16 -102 -87 -165t-198 -63t-198 66.5t-86 161.5z
M530 1642h242l-240 -204h-184z" />
    <glyph glyph-name="uni1EB0" unicode="&#x1eb0;" horiz-adv-x="964" 
d="M643 381h-334l-80 -381h-215l326 1389h278l332 -1389h-225zM348 569h256q-17 81 -42 197.5t-38 178.5t-26.5 130.5t-20.5 112.5h-6q-5 -37 -13 -83.5t-22 -115.5t-24 -118t-31.5 -150t-32.5 -152zM182 1681h166q13 -35 47 -57t86 -22q104 0 135 79h164
q-20 -94 -93 -157.5t-208 -63.5q-74 0 -132 22t-90.5 57t-50.5 70.5t-24 71.5zM127 1909h315l181 -178h-238z" />
    <glyph glyph-name="uni1EB1" unicode="&#x1eb1;" horiz-adv-x="892" 
d="M776 770v-555q0 -43 8 -215h-192q-10 58 -10 104q-66 -122 -242 -122q-72 0 -127.5 27t-87.5 72t-48 98t-16 112q0 160 107.5 252t306.5 92q67 0 94 -4v125q0 30 -4 52.5t-16 46.5t-39.5 37t-69.5 13t-70 -12.5t-41 -37t-18 -45.5t-8 -54h-201q1 49 11.5 92t35 85
t62.5 71.5t99 48t139 18.5q327 0 327 -301zM573 432v43q-25 4 -88 4q-110 0 -161.5 -46.5t-51.5 -123.5q0 -64 34 -108.5t102 -44.5q95 0 130 66.5t35 209.5zM162 1391h160q24 -88 127 -88q59 0 86 23.5t40 64.5h156q-16 -102 -87 -165t-198 -63t-198 66.5t-86 161.5z
M113 1642h268l182 -204h-201z" />
    <glyph glyph-name="uni1EB2" unicode="&#x1eb2;" horiz-adv-x="964" 
d="M643 381h-334l-80 -381h-215l326 1389h278l332 -1389h-225zM348 569h256q-17 81 -42 197.5t-38 178.5t-26.5 130.5t-20.5 112.5h-6q-5 -37 -13 -83.5t-22 -115.5t-24 -118t-31.5 -150t-32.5 -152zM553 1729h-160q48 42 68 68.5t20 53.5q0 47 -59 47q-45 0 -96 -28l-45 98
q81 60 190 60q82 0 127 -40t45 -104q0 -86 -90 -155zM180 1686h166q13 -35 47.5 -57.5t87.5 -22.5q106 0 137 80h164q-20 -94 -94 -158t-209 -64q-74 0 -132 21.5t-91.5 57t-51.5 71t-24 72.5z" />
    <glyph glyph-name="uni1EB3" unicode="&#x1eb3;" horiz-adv-x="892" 
d="M776 770v-555q0 -43 8 -215h-192q-10 58 -10 104q-66 -122 -242 -122q-72 0 -127.5 27t-87.5 72t-48 98t-16 112q0 160 107.5 252t306.5 92q67 0 94 -4v125q0 30 -4 52.5t-16 46.5t-39.5 37t-69.5 13t-70 -12.5t-41 -37t-18 -45.5t-8 -54h-201q1 49 11.5 92t35 85
t62.5 71.5t99 48t139 18.5q327 0 327 -301zM573 432v43q-25 4 -88 4q-110 0 -161.5 -46.5t-51.5 -123.5q0 -64 34 -108.5t102 -44.5q95 0 130 66.5t35 209.5zM508 1427h-152q99 77 99 129q0 50 -58 50q-43 0 -90 -31l-41 98q66 58 176 58q82 0 124 -38.5t42 -105.5
q0 -94 -100 -160zM162 1391h160q24 -88 127 -88q59 0 86 23.5t40 64.5h156q-16 -102 -87 -165t-198 -63t-198 66.5t-86 161.5z" />
    <glyph glyph-name="uni1EB4" unicode="&#x1eb4;" horiz-adv-x="964" 
d="M643 381h-334l-80 -381h-215l326 1389h278l332 -1389h-225zM348 569h256q-17 81 -42 197.5t-38 178.5t-26.5 130.5t-20.5 112.5h-6q-5 -37 -13 -83.5t-22 -115.5t-24 -118t-31.5 -150t-32.5 -152zM315 1739h-125v20q0 170 148 170q61 0 149.5 -30.5t118.5 -30.5
q22 0 32.5 9.5t10.5 35.5v16h125v-26q0 -91 -37.5 -128.5t-107.5 -37.5q-53 0 -148 29.5t-125 29.5q-41 0 -41 -45v-12zM182 1683h164q32 -81 135 -81q60 0 90.5 22t46.5 59h164q-22 -94 -95 -157.5t-208 -63.5q-74 0 -132 21.5t-91 56.5t-51 71t-23 72z" />
    <glyph glyph-name="uni1EB5" unicode="&#x1eb5;" horiz-adv-x="892" 
d="M776 770v-555q0 -43 8 -215h-192q-10 58 -10 104q-66 -122 -242 -122q-72 0 -127.5 27t-87.5 72t-48 98t-16 112q0 160 107.5 252t306.5 92q67 0 94 -4v125q0 30 -4 52.5t-16 46.5t-39.5 37t-69.5 13t-70 -12.5t-41 -37t-18 -45.5t-8 -54h-201q1 49 11.5 92t35 85
t62.5 71.5t99 48t139 18.5q327 0 327 -301zM573 432v43q-25 4 -88 4q-110 0 -161.5 -46.5t-51.5 -123.5q0 -64 34 -108.5t102 -44.5q95 0 130 66.5t35 209.5zM305 1454h-125v21q0 90 39.5 131t104.5 41q57 0 132.5 -31t94.5 -31q23 0 33 10t10 35v15h125v-25
q0 -168 -146 -168q-49 0 -125 30.5t-100 30.5q-43 0 -43 -47v-12zM180 1374h150q31 -82 121 -82q54 0 79.5 22.5t38.5 59.5h150q-14 -94 -83.5 -154.5t-189.5 -60.5t-187 63.5t-79 151.5z" />
    <glyph glyph-name="uni1EB6" unicode="&#x1eb6;" horiz-adv-x="964" 
d="M643 381h-334l-80 -381h-215l326 1389h278l332 -1389h-225zM348 569h256q-17 81 -42 197.5t-38 178.5t-26.5 130.5t-20.5 112.5h-6q-5 -37 -13 -83.5t-22 -115.5t-24 -118t-31.5 -150t-32.5 -152zM590 -338h-221v229h221v-229zM195 1722h155q9 -45 44.5 -73.5t88.5 -28.5
q108 0 131 102h154q-15 -109 -87 -178t-202 -69q-136 0 -206 70.5t-78 176.5z" />
    <glyph glyph-name="uni1EB7" unicode="&#x1eb7;" horiz-adv-x="892" 
d="M776 770v-555q0 -43 8 -215h-192q-10 58 -10 104q-66 -122 -242 -122q-72 0 -127.5 27t-87.5 72t-48 98t-16 112q0 160 107.5 252t306.5 92q67 0 94 -4v125q0 30 -4 52.5t-16 46.5t-39.5 37t-69.5 13t-70 -12.5t-41 -37t-18 -45.5t-8 -54h-201q1 49 11.5 92t35 85
t62.5 71.5t99 48t139 18.5q327 0 327 -301zM573 432v43q-25 4 -88 4q-110 0 -161.5 -46.5t-51.5 -123.5q0 -64 34 -108.5t102 -44.5q95 0 130 66.5t35 209.5zM172 1442h160q18 -105 117 -105q56 0 80.5 28t35.5 77h156q-12 -112 -80.5 -185t-196.5 -73q-129 0 -197 76
t-75 182zM557 -358h-221v229h221v-229z" />
    <glyph glyph-name="uni1EB8" unicode="&#x1eb8;" horiz-adv-x="882" 
d="M791 821v-188h-451v-447h504l-27 -186h-690v1389h686v-191h-473v-377h451zM596 -344h-221v229h221v-229z" />
    <glyph glyph-name="uni1EB9" unicode="&#x1eb9;" horiz-adv-x="874" 
d="M811 475h-535q0 -67 6.5 -117.5t23 -99t51.5 -74.5t87 -26q38 0 67.5 13.5t45.5 30.5t26.5 41.5t13.5 39t5 30.5h205q-28 -217 -187 -295q-77 -38 -180 -38q-95 0 -165.5 33t-110 83.5t-63.5 127t-31 147t-7 159.5q0 257 96 399t287 142q87 0 152.5 -26.5t106 -71
t66 -110.5t35 -136t9.5 -156q0 -56 -4 -96zM279 631h325q0 55 -6 97t-21.5 82.5t-48.5 62.5t-82 22q-33 0 -59 -11t-43 -27.5t-29.5 -42t-19 -47t-10.5 -51.5t-4.5 -46t-1.5 -39zM551 -358h-221v229h221v-229z" />
    <glyph glyph-name="uni1EBA" unicode="&#x1eba;" horiz-adv-x="882" 
d="M791 821v-188h-451v-447h504l-27 -186h-690v1389h686v-191h-473v-377h451zM549 1479h-178q55 54 74.5 82.5t19.5 62.5q0 25 -17 41t-51 16q-50 0 -98 -30l-45 121q83 59 201 59q94 0 145 -46.5t51 -117.5q0 -95 -102 -188z" />
    <glyph glyph-name="uni1EBB" unicode="&#x1ebb;" horiz-adv-x="874" 
d="M811 475h-535q0 -67 6.5 -117.5t23 -99t51.5 -74.5t87 -26q38 0 67.5 13.5t45.5 30.5t26.5 41.5t13.5 39t5 30.5h205q-28 -217 -187 -295q-77 -38 -180 -38q-95 0 -165.5 33t-110 83.5t-63.5 127t-31 147t-7 159.5q0 257 96 399t287 142q87 0 152.5 -26.5t106 -71
t66 -110.5t35 -136t9.5 -156q0 -56 -4 -96zM279 631h325q0 55 -6 97t-21.5 82.5t-48.5 62.5t-82 22q-33 0 -59 -11t-43 -27.5t-29.5 -42t-19 -47t-10.5 -51.5t-4.5 -46t-1.5 -39zM518 1180h-178q55 54 74.5 82.5t19.5 62.5q0 25 -17 41t-50 16q-51 0 -99 -30l-45 121
q83 59 201 59q94 0 145.5 -46.5t51.5 -117.5q0 -94 -103 -188z" />
    <glyph glyph-name="uni1EBC" unicode="&#x1ebc;" horiz-adv-x="882" 
d="M791 821v-188h-451v-447h504l-27 -186h-690v1389h686v-191h-473v-377h451zM303 1509h-139v47q0 100 44 144.5t116 44.5q57 0 148 -38t114 -38q47 0 47 60v18h137v-35q0 -113 -42 -160t-122 -47q-55 0 -143.5 37t-112.5 37q-47 0 -47 -47v-23z" />
    <glyph glyph-name="uni1EBD" unicode="&#x1ebd;" horiz-adv-x="874" 
d="M811 475h-535q0 -67 6.5 -117.5t23 -99t51.5 -74.5t87 -26q38 0 67.5 13.5t45.5 30.5t26.5 41.5t13.5 39t5 30.5h205q-28 -217 -187 -295q-77 -38 -180 -38q-95 0 -165.5 33t-110 83.5t-63.5 127t-31 147t-7 159.5q0 257 96 399t287 142q87 0 152.5 -26.5t106 -71
t66 -110.5t35 -136t9.5 -156q0 -56 -4 -96zM279 631h325q0 55 -6 97t-21.5 82.5t-48.5 62.5t-82 22q-33 0 -59 -11t-43 -27.5t-29.5 -42t-19 -47t-10.5 -51.5t-4.5 -46t-1.5 -39zM297 1202h-145v53q0 181 151 181q46 0 92.5 -20t83 -40t58.5 -20q20 0 29 14.5t9 52.5v15h142
v-45q0 -108 -40.5 -151.5t-113.5 -43.5q-43 0 -87.5 20t-81.5 40t-60 20q-37 0 -37 -53v-23z" />
    <glyph glyph-name="uni1EBE" unicode="&#x1ebe;" horiz-adv-x="882" 
d="M791 821v-188h-451v-447h504l-27 -186h-690v1389h686v-191h-473v-377h451zM350 1710h232l204 -213h-211l-110 113l-109 -113h-213zM862 1878h244l-232 -205h-180z" />
    <glyph glyph-name="uni1EBF" unicode="&#x1ebf;" horiz-adv-x="874" 
d="M811 475h-535q0 -67 6.5 -117.5t23 -99t51.5 -74.5t87 -26q38 0 67.5 13.5t45.5 30.5t26.5 41.5t13.5 39t5 30.5h205q-28 -217 -187 -295q-77 -38 -180 -38q-95 0 -165.5 33t-110 83.5t-63.5 127t-31 147t-7 159.5q0 257 96 399t287 142q87 0 152.5 -26.5t106 -71
t66 -110.5t35 -136t9.5 -156q0 -56 -4 -96zM279 631h325q0 55 -6 97t-21.5 82.5t-48.5 62.5t-82 22q-33 0 -59 -11t-43 -27.5t-29.5 -42t-19 -47t-10.5 -51.5t-4.5 -46t-1.5 -39zM334 1432h205l188 -252h-184l-109 145l-106 -145h-185zM805 1622h205l-213 -238h-160z" />
    <glyph glyph-name="uni1EC0" unicode="&#x1ec0;" horiz-adv-x="882" 
d="M791 821v-188h-451v-447h504l-27 -186h-690v1389h686v-191h-473v-377h451zM350 1710h232l204 -213h-211l-110 113l-109 -113h-213zM563 1876h250l170 -205h-174z" />
    <glyph glyph-name="uni1EC1" unicode="&#x1ec1;" horiz-adv-x="874" 
d="M811 475h-535q0 -67 6.5 -117.5t23 -99t51.5 -74.5t87 -26q38 0 67.5 13.5t45.5 30.5t26.5 41.5t13.5 39t5 30.5h205q-28 -217 -187 -295q-77 -38 -180 -38q-95 0 -165.5 33t-110 83.5t-63.5 127t-31 147t-7 159.5q0 257 96 399t287 142q87 0 152.5 -26.5t106 -71
t66 -110.5t35 -136t9.5 -156q0 -56 -4 -96zM279 631h325q0 55 -6 97t-21.5 82.5t-48.5 62.5t-82 22q-33 0 -59 -11t-43 -27.5t-29.5 -42t-19 -47t-10.5 -51.5t-4.5 -46t-1.5 -39zM334 1432h205l188 -252h-184l-109 145l-106 -145h-185zM532 1626h220l170 -248h-162z" />
    <glyph glyph-name="uni1EC2" unicode="&#x1ec2;" horiz-adv-x="882" 
d="M791 821v-188h-451v-447h504l-27 -186h-690v1389h686v-191h-473v-377h451zM866 1673h-149q48 43 67 70t19 57q0 21 -15 34t-47 13q-46 0 -96 -32l-45 98q76 67 188 67q82 0 126 -41.5t44 -105.5q0 -88 -92 -160zM350 1706h232l204 -213h-211l-110 113l-109 -113h-213z
" />
    <glyph glyph-name="uni1EC3" unicode="&#x1ec3;" horiz-adv-x="874" 
d="M811 475h-535q0 -67 6.5 -117.5t23 -99t51.5 -74.5t87 -26q38 0 67.5 13.5t45.5 30.5t26.5 41.5t13.5 39t5 30.5h205q-28 -217 -187 -295q-77 -38 -180 -38q-95 0 -165.5 33t-110 83.5t-63.5 127t-31 147t-7 159.5q0 257 96 399t287 142q87 0 152.5 -26.5t106 -71
t66 -110.5t35 -136t9.5 -156q0 -56 -4 -96zM279 631h325q0 55 -6 97t-21.5 82.5t-48.5 62.5t-82 22q-33 0 -59 -11t-43 -27.5t-29.5 -42t-19 -47t-10.5 -51.5t-4.5 -46t-1.5 -39zM825 1389h-159q94 78 94 129q0 49 -60 49q-55 0 -94 -33l-43 102q80 62 185 62
q84 0 127 -39.5t43 -106.5q0 -97 -93 -163zM332 1434h209l190 -254h-186l-111 145l-108 -145h-187z" />
    <glyph glyph-name="uni1EC4" unicode="&#x1ec4;" horiz-adv-x="882" 
d="M791 821v-188h-451v-447h504l-27 -186h-690v1389h686v-191h-473v-377h451zM301 1733h-125v20q0 170 148 170q61 0 149.5 -30.5t118.5 -30.5q22 0 32.5 9.5t10.5 35.5v16h125v-27q0 -91 -38 -128t-108 -37q-53 0 -147.5 29.5t-124.5 29.5q-41 0 -41 -45v-12zM354 1667h226
l211 -182h-213l-115 92l-107 -92h-213z" />
    <glyph glyph-name="uni1EC5" unicode="&#x1ec5;" horiz-adv-x="874" 
d="M811 475h-535q0 -67 6.5 -117.5t23 -99t51.5 -74.5t87 -26q38 0 67.5 13.5t45.5 30.5t26.5 41.5t13.5 39t5 30.5h205q-28 -217 -187 -295q-77 -38 -180 -38q-95 0 -165.5 33t-110 83.5t-63.5 127t-31 147t-7 159.5q0 257 96 399t287 142q87 0 152.5 -26.5t106 -71
t66 -110.5t35 -136t9.5 -156q0 -56 -4 -96zM279 631h325q0 55 -6 97t-21.5 82.5t-48.5 62.5t-82 22q-33 0 -59 -11t-43 -27.5t-29.5 -42t-19 -47t-10.5 -51.5t-4.5 -46t-1.5 -39zM293 1438h-125v20q0 172 143 172q57 0 133 -30.5t95 -30.5q22 0 32.5 9.5t10.5 35.5v14h125
v-24q0 -168 -146 -168q-50 0 -125.5 29.5t-99.5 29.5q-43 0 -43 -45v-12zM324 1360h223l205 -201h-205l-115 107l-110 -107h-201z" />
    <glyph glyph-name="uni1EC6" unicode="&#x1ec6;" horiz-adv-x="882" 
d="M791 821v-188h-451v-447h504l-27 -186h-690v1389h686v-191h-473v-377h451zM596 -358h-221v229h221v-229zM348 1735h236l200 -236h-215l-104 125l-103 -125h-212z" />
    <glyph glyph-name="uni1EC7" unicode="&#x1ec7;" horiz-adv-x="874" 
d="M811 475h-535q0 -67 6.5 -117.5t23 -99t51.5 -74.5t87 -26q38 0 67.5 13.5t45.5 30.5t26.5 41.5t13.5 39t5 30.5h205q-28 -217 -187 -295q-77 -38 -180 -38q-95 0 -165.5 33t-110 83.5t-63.5 127t-31 147t-7 159.5q0 257 96 399t287 142q87 0 152.5 -26.5t106 -71
t66 -110.5t35 -136t9.5 -156q0 -56 -4 -96zM279 631h325q0 55 -6 97t-21.5 82.5t-48.5 62.5t-82 22q-33 0 -59 -11t-43 -27.5t-29.5 -42t-19 -47t-10.5 -51.5t-4.5 -46t-1.5 -39zM545 -358h-221v229h221v-229zM322 1458h225l182 -276h-197l-98 155l-98 -155h-195z" />
    <glyph glyph-name="uni1EC8" unicode="&#x1ec8;" horiz-adv-x="471" 
d="M127 1389h215v-1389h-215v1389zM317 1483h-178q55 54 74.5 82.5t19.5 62.5q0 25 -17 41.5t-50 16.5q-48 0 -98 -31l-45 121q83 59 200 59q94 0 145.5 -46.5t51.5 -117.5q0 -94 -103 -188z" />
    <glyph glyph-name="uni1EC9" unicode="&#x1ec9;" horiz-adv-x="440" 
d="M113 0v1053h213v-1053h-213zM301 1180h-178q55 54 74.5 82.5t19.5 62.5q0 25 -17 41t-50 16q-51 0 -99 -30l-45 121q83 59 201 59q94 0 145 -46.5t51 -117.5q0 -95 -102 -188z" />
    <glyph glyph-name="uni1ECA" unicode="&#x1eca;" horiz-adv-x="471" 
d="M127 1389h215v-1389h-215v1389zM344 -358h-221v229h221v-229z" />
    <glyph glyph-name="uni1ECB" unicode="&#x1ecb;" horiz-adv-x="440" 
d="M113 0v1053h213v-1053h-213zM328 1223h-213v233h213v-233zM328 -358h-222v229h222v-229z" />
    <glyph glyph-name="uni1ECC" unicode="&#x1ecc;" horiz-adv-x="1028" 
d="M518 1409q222 0 327 -172t105 -532q0 -376 -104.5 -552t-337.5 -176q-220 0 -325 177t-105 553q0 702 440 702zM514 1225q-114 0 -164.5 -129t-50.5 -387q0 -273 50.5 -411t164.5 -138q118 0 166.5 133.5t48.5 413.5q0 270 -49.5 394t-165.5 124zM623 -358h-222v229h222
v-229z" />
    <glyph glyph-name="uni1ECD" unicode="&#x1ecd;" horiz-adv-x="897" 
d="M457 1071q185 0 281 -135.5t96 -398.5q0 -557 -388 -557q-191 0 -287 135t-96 417q0 269 104 404t290 135zM451 891q-88 0 -130 -87.5t-42 -271.5q0 -188 40.5 -280t131.5 -92q88 0 127.5 91.5t39.5 278.5t-39.5 274t-127.5 87zM557 -358h-221v229h221v-229z" />
    <glyph glyph-name="uni1ECE" unicode="&#x1ece;" horiz-adv-x="1028" 
d="M518 1409q222 0 327 -172t105 -532q0 -376 -104.5 -552t-337.5 -176q-220 0 -325 177t-105 553q0 702 440 702zM514 1225q-114 0 -164.5 -129t-50.5 -387q0 -273 50.5 -411t164.5 -138q118 0 166.5 133.5t48.5 413.5q0 270 -49.5 394t-165.5 124zM594 1483h-178
q55 54 74.5 82.5t19.5 62.5q0 25 -17.5 41.5t-50.5 16.5q-48 0 -98 -31l-45 121q83 59 201 59q94 0 145 -46.5t51 -117.5q0 -95 -102 -188z" />
    <glyph glyph-name="uni1ECF" unicode="&#x1ecf;" horiz-adv-x="897" 
d="M457 1071q185 0 281 -135.5t96 -398.5q0 -557 -388 -557q-191 0 -287 135t-96 417q0 269 104 404t290 135zM451 891q-88 0 -130 -87.5t-42 -271.5q0 -188 40.5 -280t131.5 -92q88 0 127.5 91.5t39.5 278.5t-39.5 274t-127.5 87zM530 1180h-178q55 54 74.5 82.5t19.5 62.5
q0 25 -17 41t-50 16q-50 0 -98 -30l-45 121q83 59 200 59q94 0 145.5 -46.5t51.5 -117.5q0 -94 -103 -188z" />
    <glyph glyph-name="uni1ED0" unicode="&#x1ed0;" horiz-adv-x="1028" 
d="M518 1409q222 0 327 -172t105 -532q0 -376 -104.5 -552t-337.5 -176q-220 0 -325 177t-105 553q0 702 440 702zM514 1225q-114 0 -164.5 -129t-50.5 -387q0 -273 50.5 -411t164.5 -138q118 0 166.5 133.5t48.5 413.5q0 270 -49.5 394t-165.5 124zM397 1696h232l205 -213
h-211l-111 112l-109 -112h-213zM909 1864h244l-231 -205h-181z" />
    <glyph glyph-name="uni1ED1" unicode="&#x1ed1;" horiz-adv-x="897" 
d="M457 1071q185 0 281 -135.5t96 -398.5q0 -557 -388 -557q-191 0 -287 135t-96 417q0 269 104 404t290 135zM451 891q-88 0 -130 -87.5t-42 -271.5q0 -188 40.5 -280t131.5 -92q88 0 127.5 91.5t39.5 278.5t-39.5 274t-127.5 87zM346 1432h205l188 -252h-184l-109 145
l-106 -145h-184zM817 1622h205l-213 -238h-160z" />
    <glyph glyph-name="uni1ED2" unicode="&#x1ed2;" horiz-adv-x="1028" 
d="M518 1409q222 0 327 -172t105 -532q0 -376 -104.5 -552t-337.5 -176q-220 0 -325 177t-105 553q0 702 440 702zM514 1225q-114 0 -164.5 -129t-50.5 -387q0 -273 50.5 -411t164.5 -138q118 0 166.5 133.5t48.5 413.5q0 270 -49.5 394t-165.5 124zM397 1696h232l205 -213
h-211l-111 112l-109 -112h-213zM610 1862h250l170 -205h-174z" />
    <glyph glyph-name="uni1ED3" unicode="&#x1ed3;" horiz-adv-x="897" 
d="M457 1071q185 0 281 -135.5t96 -398.5q0 -557 -388 -557q-191 0 -287 135t-96 417q0 269 104 404t290 135zM451 891q-88 0 -130 -87.5t-42 -271.5q0 -188 40.5 -280t131.5 -92q88 0 127.5 91.5t39.5 278.5t-39.5 274t-127.5 87zM346 1432h205l188 -252h-184l-109 145
l-106 -145h-184zM545 1626h219l170 -248h-162z" />
    <glyph glyph-name="uni1ED4" unicode="&#x1ed4;" horiz-adv-x="1028" 
d="M518 1409q222 0 327 -172t105 -532q0 -376 -104.5 -552t-337.5 -176q-220 0 -325 177t-105 553q0 702 440 702zM514 1225q-114 0 -164.5 -129t-50.5 -387q0 -273 50.5 -411t164.5 -138q118 0 166.5 133.5t48.5 413.5q0 270 -49.5 394t-165.5 124zM913 1663h-149
q48 43 67 70t19 57q0 21 -15 34t-47 13q-45 0 -96 -33l-45 99q76 67 189 67q82 0 126 -41.5t44 -105.5q0 -88 -93 -160zM397 1696h232l205 -213h-211l-111 112l-109 -112h-213z" />
    <glyph glyph-name="uni1ED5" unicode="&#x1ed5;" horiz-adv-x="897" 
d="M457 1071q185 0 281 -135.5t96 -398.5q0 -557 -388 -557q-191 0 -287 135t-96 417q0 269 104 404t290 135zM451 891q-88 0 -130 -87.5t-42 -271.5q0 -188 40.5 -280t131.5 -92q88 0 127.5 91.5t39.5 278.5t-39.5 274t-127.5 87zM838 1389h-160q94 78 94 129q0 49 -59 49
q-56 0 -95 -33l-43 102q80 62 185 62q84 0 127 -39.5t43 -106.5q0 -97 -92 -163zM344 1434h209l190 -254h-186l-111 145l-108 -145h-186z" />
    <glyph glyph-name="uni1ED6" unicode="&#x1ed6;" horiz-adv-x="1028" 
d="M518 1409q222 0 327 -172t105 -532q0 -376 -104.5 -552t-337.5 -176q-220 0 -325 177t-105 553q0 702 440 702zM514 1225q-114 0 -164.5 -129t-50.5 -387q0 -273 50.5 -411t164.5 -138q118 0 166.5 133.5t48.5 413.5q0 270 -49.5 394t-165.5 124zM348 1724h-125v21
q0 170 148 170q61 0 149.5 -31t118.5 -31q22 0 32.5 9.5t10.5 35.5v17h125v-27q0 -91 -37.5 -128.5t-107.5 -37.5q-53 0 -148 30t-125 30q-41 0 -41 -45v-13zM401 1659h226l211 -182h-213l-115 92l-107 -92h-213z" />
    <glyph glyph-name="uni1ED7" unicode="&#x1ed7;" horiz-adv-x="897" 
d="M457 1071q185 0 281 -135.5t96 -398.5q0 -557 -388 -557q-191 0 -287 135t-96 417q0 269 104 404t290 135zM451 891q-88 0 -130 -87.5t-42 -271.5q0 -188 40.5 -280t131.5 -92q88 0 127.5 91.5t39.5 278.5t-39.5 274t-127.5 87zM305 1438h-125v20q0 172 144 172
q57 0 132.5 -30.5t94.5 -30.5q22 0 32.5 9.5t10.5 35.5v14h125v-24q0 -168 -146 -168q-50 0 -125.5 29.5t-99.5 29.5q-43 0 -43 -45v-12zM336 1360h223l205 -201h-205l-115 107l-110 -107h-201z" />
    <glyph glyph-name="uni1ED8" unicode="&#x1ed8;" horiz-adv-x="1028" 
d="M518 1409q222 0 327 -172t105 -532q0 -376 -104.5 -552t-337.5 -176q-220 0 -325 177t-105 553q0 702 440 702zM514 1225q-114 0 -164.5 -129t-50.5 -387q0 -273 50.5 -411t164.5 -138q118 0 166.5 133.5t48.5 413.5q0 270 -49.5 394t-165.5 124zM623 -358h-222v229h222
v-229zM395 1735h236l200 -236h-215l-104 125l-102 -125h-213z" />
    <glyph glyph-name="uni1ED9" unicode="&#x1ed9;" horiz-adv-x="897" 
d="M457 1071q185 0 281 -135.5t96 -398.5q0 -557 -388 -557q-191 0 -287 135t-96 417q0 269 104 404t290 135zM451 891q-88 0 -130 -87.5t-42 -271.5q0 -188 40.5 -280t131.5 -92q88 0 127.5 91.5t39.5 278.5t-39.5 274t-127.5 87zM557 -358h-221v229h221v-229zM334 1458
h225l182 -276h-196l-99 155l-98 -155h-194z" />
    <glyph glyph-name="uni1EDA" unicode="&#x1eda;" horiz-adv-x="1028" 
d="M518 1409q145 0 240 -74q51 22 51 97q0 47 -14 108h188q12 -49 12 -113q0 -163 -135 -219q90 -170 90 -503q0 -376 -104.5 -552t-337.5 -176q-220 0 -325 177t-105 553q0 702 440 702zM514 1225q-114 0 -164.5 -129t-50.5 -387q0 -273 50.5 -411t164.5 -138
q118 0 166.5 133.5t48.5 413.5q0 270 -49.5 394t-165.5 124zM616 1745h258l-280 -246h-207z" />
    <glyph glyph-name="uni1EDB" unicode="&#x1edb;" horiz-adv-x="897" 
d="M457 1071q117 0 194 -51q58 20 58 98q0 43 -15 109h189q12 -49 12 -113q0 -163 -133 -219q72 -132 72 -358q0 -557 -388 -557q-191 0 -287 135t-96 417q0 269 104 404t290 135zM451 891q-88 0 -130 -87.5t-42 -271.5q0 -188 40.5 -280t131.5 -92q88 0 127.5 91.5
t39.5 278.5t-39.5 274t-127.5 87zM524 1473h248l-264 -281h-184z" />
    <glyph glyph-name="uni1EDC" unicode="&#x1edc;" horiz-adv-x="1028" 
d="M518 1409q145 0 240 -74q51 22 51 97q0 47 -14 108h188q12 -49 12 -113q0 -163 -135 -219q90 -170 90 -503q0 -376 -104.5 -552t-337.5 -176q-220 0 -325 177t-105 553q0 702 440 702zM514 1225q-114 0 -164.5 -129t-50.5 -387q0 -273 50.5 -411t164.5 -138
q118 0 166.5 133.5t48.5 413.5q0 270 -49.5 394t-165.5 124zM145 1745h267l223 -246h-211z" />
    <glyph glyph-name="uni1EDD" unicode="&#x1edd;" horiz-adv-x="897" 
d="M457 1071q117 0 194 -51q58 20 58 98q0 43 -15 109h189q12 -49 12 -113q0 -163 -133 -219q72 -132 72 -358q0 -557 -388 -557q-191 0 -287 135t-96 417q0 269 104 404t290 135zM451 891q-88 0 -130 -87.5t-42 -271.5q0 -188 40.5 -280t131.5 -92q88 0 127.5 91.5
t39.5 278.5t-39.5 274t-127.5 87zM123 1473h250l202 -281h-188z" />
    <glyph glyph-name="uni1EDE" unicode="&#x1ede;" horiz-adv-x="1028" 
d="M518 1409q145 0 240 -74q51 22 51 97q0 47 -14 108h188q12 -49 12 -113q0 -163 -135 -219q90 -170 90 -503q0 -376 -104.5 -552t-337.5 -176q-220 0 -325 177t-105 553q0 702 440 702zM514 1225q-114 0 -164.5 -129t-50.5 -387q0 -273 50.5 -411t164.5 -138
q118 0 166.5 133.5t48.5 413.5q0 270 -49.5 394t-165.5 124zM592 1483h-178q55 54 74.5 82.5t19.5 62.5q0 25 -17.5 41.5t-50.5 16.5q-48 0 -98 -31l-45 121q83 59 201 59q94 0 145 -46.5t51 -117.5q0 -95 -102 -188z" />
    <glyph glyph-name="uni1EDF" unicode="&#x1edf;" horiz-adv-x="897" 
d="M457 1071q117 0 194 -51q58 20 58 98q0 43 -15 109h189q12 -49 12 -113q0 -163 -133 -219q72 -132 72 -358q0 -557 -388 -557q-191 0 -287 135t-96 417q0 269 104 404t290 135zM451 891q-88 0 -130 -87.5t-42 -271.5q0 -188 40.5 -280t131.5 -92q88 0 127.5 91.5
t39.5 278.5t-39.5 274t-127.5 87zM530 1180h-178q55 54 74.5 82.5t19.5 62.5q0 25 -17 41t-50 16q-50 0 -98 -30l-45 121q83 59 200 59q94 0 145.5 -46.5t51.5 -117.5q0 -94 -103 -188z" />
    <glyph glyph-name="uni1EE0" unicode="&#x1ee0;" horiz-adv-x="1028" 
d="M518 1409q145 0 240 -74q51 22 51 97q0 47 -14 108h188q12 -49 12 -113q0 -163 -135 -219q90 -170 90 -503q0 -376 -104.5 -552t-337.5 -176q-220 0 -325 177t-105 553q0 702 440 702zM514 1225q-114 0 -164.5 -129t-50.5 -387q0 -273 50.5 -411t164.5 -138
q118 0 166.5 133.5t48.5 413.5q0 270 -49.5 394t-165.5 124zM344 1524h-139v47q0 100 44 144t116 44q57 0 148 -38t114 -38q47 0 47 60v18h137v-35q0 -113 -42 -159.5t-122 -46.5q-55 0 -143.5 36.5t-112.5 36.5q-47 0 -47 -47v-22z" />
    <glyph glyph-name="uni1EE1" unicode="&#x1ee1;" horiz-adv-x="897" 
d="M457 1071q117 0 194 -51q58 20 58 98q0 43 -15 109h189q12 -49 12 -113q0 -163 -133 -219q72 -132 72 -358q0 -557 -388 -557q-191 0 -287 135t-96 417q0 269 104 404t290 135zM451 891q-88 0 -130 -87.5t-42 -271.5q0 -188 40.5 -280t131.5 -92q88 0 127.5 91.5
t39.5 278.5t-39.5 274t-127.5 87zM309 1202h-145v53q0 181 151 181q46 0 92.5 -20t83 -40t58.5 -20q20 0 29.5 14.5t9.5 52.5v15h141v-45q0 -108 -40.5 -151.5t-113.5 -43.5q-43 0 -87.5 20t-81.5 40t-60 20q-37 0 -37 -53v-23z" />
    <glyph glyph-name="uni1EE2" unicode="&#x1ee2;" horiz-adv-x="1028" 
d="M518 1409q145 0 240 -74q51 22 51 97q0 47 -14 108h188q12 -49 12 -113q0 -163 -135 -219q90 -170 90 -503q0 -376 -104.5 -552t-337.5 -176q-220 0 -325 177t-105 553q0 702 440 702zM514 1225q-114 0 -164.5 -129t-50.5 -387q0 -273 50.5 -411t164.5 -138
q118 0 166.5 133.5t48.5 413.5q0 270 -49.5 394t-165.5 124zM623 -358h-222v229h222v-229z" />
    <glyph glyph-name="uni1EE3" unicode="&#x1ee3;" horiz-adv-x="897" 
d="M457 1071q117 0 194 -51q58 20 58 98q0 43 -15 109h189q12 -49 12 -113q0 -163 -133 -219q72 -132 72 -358q0 -557 -388 -557q-191 0 -287 135t-96 417q0 269 104 404t290 135zM451 891q-88 0 -130 -87.5t-42 -271.5q0 -188 40.5 -280t131.5 -92q88 0 127.5 91.5
t39.5 278.5t-39.5 274t-127.5 87zM557 -358h-221v229h221v-229z" />
    <glyph glyph-name="uni1EE4" unicode="&#x1ee4;" horiz-adv-x="1054" 
d="M115 1389h215v-963q0 -266 198 -266q58 0 97.5 19.5t60 58t29 83t8.5 105.5v963h217v-967q0 -445 -416 -445q-114 0 -195.5 32t-127 93t-66 138.5t-20.5 179.5v969zM635 -358h-221v229h221v-229z" />
    <glyph glyph-name="uni1EE5" unicode="&#x1ee5;" horiz-adv-x="933" 
d="M823 1053v-750q0 -250 2 -303h-202q-7 37 -11 123q-62 -141 -239 -141q-262 0 -262 315v756h213v-707q0 -92 27.5 -137t97.5 -45q80 0 120.5 55.5t40.5 190.5v643h213zM575 -358h-221v229h221v-229z" />
    <glyph glyph-name="uni1EE6" unicode="&#x1ee6;" horiz-adv-x="1054" 
d="M115 1389h215v-963q0 -266 198 -266q58 0 97.5 19.5t60 58t29 83t8.5 105.5v963h217v-967q0 -445 -416 -445q-114 0 -195.5 32t-127 93t-66 138.5t-20.5 179.5v969zM606 1462h-178q55 53 74.5 82.5t19.5 63.5q0 25 -17 41t-50 16q-49 0 -99 -31l-45 121q85 60 201 60
q94 0 145.5 -46.5t51.5 -117.5q0 -95 -103 -189z" />
    <glyph glyph-name="uni1EE7" unicode="&#x1ee7;" horiz-adv-x="933" 
d="M823 1053v-750q0 -250 2 -303h-202q-7 37 -11 123q-62 -141 -239 -141q-262 0 -262 315v756h213v-707q0 -92 27.5 -137t97.5 -45q80 0 120.5 55.5t40.5 190.5v643h213zM549 1180h-178q55 54 74.5 82.5t19.5 62.5q0 25 -17 41t-51 16q-50 0 -98 -30l-45 121q83 59 201 59
q94 0 145 -46.5t51 -117.5q0 -95 -102 -188z" />
    <glyph glyph-name="uni1EE8" unicode="&#x1ee8;" horiz-adv-x="1054" 
d="M115 1389h215v-963q0 -266 198 -266q58 0 97.5 19.5t60 58t29 83t8.5 105.5v963h102q72 14 72 102q0 47 -14 108h188q12 -50 12 -112q0 -171 -143 -221v-844q0 -445 -416 -445q-114 0 -195.5 32t-127 93t-66 138.5t-20.5 179.5v969zM629 1745h258l-281 -246h-207z" />
    <glyph glyph-name="uni1EE9" unicode="&#x1ee9;" horiz-adv-x="933" 
d="M612 123q-62 -141 -239 -141q-262 0 -262 315v756h213v-707q0 -92 27.5 -137t97.5 -45q80 0 120.5 55.5t40.5 190.5v643h84q86 8 86 104q0 48 -14 109h188q13 -54 13 -113q0 -171 -144 -221v-629q0 -250 2 -303h-202q-7 37 -11 123zM543 1473h248l-265 -281h-184z" />
    <glyph glyph-name="uni1EEA" unicode="&#x1eea;" horiz-adv-x="1054" 
d="M115 1389h215v-963q0 -266 198 -266q58 0 97.5 19.5t60 58t29 83t8.5 105.5v963h102q72 14 72 102q0 47 -14 108h188q12 -50 12 -112q0 -171 -143 -221v-844q0 -445 -416 -445q-114 0 -195.5 32t-127 93t-66 138.5t-20.5 179.5v969zM172 1745h266l224 -246h-211z" />
    <glyph glyph-name="uni1EEB" unicode="&#x1eeb;" horiz-adv-x="933" 
d="M612 123q-62 -141 -239 -141q-262 0 -262 315v756h213v-707q0 -92 27.5 -137t97.5 -45q80 0 120.5 55.5t40.5 190.5v643h84q86 8 86 104q0 48 -14 109h188q13 -54 13 -113q0 -171 -144 -221v-629q0 -250 2 -303h-202q-7 37 -11 123zM141 1473h250l203 -281h-188z" />
    <glyph glyph-name="uni1EEC" unicode="&#x1eec;" horiz-adv-x="1054" 
d="M115 1389h215v-963q0 -266 198 -266q58 0 97.5 19.5t60 58t29 83t8.5 105.5v963h102q72 14 72 102q0 47 -14 108h188q12 -50 12 -112q0 -171 -143 -221v-844q0 -445 -416 -445q-114 0 -195.5 32t-127 93t-66 138.5t-20.5 179.5v969zM608 1477h-178q55 54 74.5 82.5
t19.5 62.5q0 25 -17 41t-50 16q-51 0 -99 -30l-45 120q85 60 201 60q94 0 145.5 -46.5t51.5 -117.5q0 -94 -103 -188z" />
    <glyph glyph-name="uni1EED" unicode="&#x1eed;" horiz-adv-x="933" 
d="M612 123q-62 -141 -239 -141q-262 0 -262 315v756h213v-707q0 -92 27.5 -137t97.5 -45q80 0 120.5 55.5t40.5 190.5v643h84q86 8 86 104q0 48 -14 109h188q13 -54 13 -113q0 -171 -144 -221v-629q0 -250 2 -303h-202q-7 37 -11 123zM549 1180h-178q55 54 74.5 82.5
t19.5 62.5q0 25 -17 41t-51 16q-50 0 -98 -30l-45 121q83 59 201 59q94 0 145 -46.5t51 -117.5q0 -95 -102 -188z" />
    <glyph glyph-name="uni1EEE" unicode="&#x1eee;" horiz-adv-x="1054" 
d="M115 1389h215v-963q0 -266 198 -266q58 0 97.5 19.5t60 58t29 83t8.5 105.5v963h102q72 14 72 102q0 47 -14 108h188q12 -50 12 -112q0 -171 -143 -221v-844q0 -445 -416 -445q-114 0 -195.5 32t-127 93t-66 138.5t-20.5 179.5v969zM362 1524h-139v47q0 100 44 144
t116 44q57 0 148 -38t114 -38q47 0 47 60v18h137v-35q0 -113 -41.5 -159.5t-121.5 -46.5q-55 0 -143.5 36.5t-112.5 36.5q-48 0 -48 -47v-22z" />
    <glyph glyph-name="uni1EEF" unicode="&#x1eef;" horiz-adv-x="933" 
d="M612 123q-62 -141 -239 -141q-262 0 -262 315v756h213v-707q0 -92 27.5 -137t97.5 -45q80 0 120.5 55.5t40.5 190.5v643h84q86 8 86 104q0 48 -14 109h188q13 -54 13 -113q0 -171 -144 -221v-629q0 -250 2 -303h-202q-7 37 -11 123zM328 1202h-146v53q0 181 152 181
q46 0 92 -20t82.5 -40t58.5 -20q20 0 29.5 14.5t9.5 52.5v15h142v-45q0 -108 -40.5 -151.5t-113.5 -43.5q-43 0 -87.5 20t-81.5 40t-60 20q-37 0 -37 -53v-23z" />
    <glyph glyph-name="uni1EF0" unicode="&#x1ef0;" horiz-adv-x="1054" 
d="M115 1389h215v-963q0 -266 198 -266q58 0 97.5 19.5t60 58t29 83t8.5 105.5v963h102q72 14 72 102q0 47 -14 108h188q12 -50 12 -112q0 -171 -143 -221v-844q0 -445 -416 -445q-114 0 -195.5 32t-127 93t-66 138.5t-20.5 179.5v969zM635 -358h-221v229h221v-229z" />
    <glyph glyph-name="uni1EF1" unicode="&#x1ef1;" horiz-adv-x="933" 
d="M612 123q-62 -141 -239 -141q-262 0 -262 315v756h213v-707q0 -92 27.5 -137t97.5 -45q80 0 120.5 55.5t40.5 190.5v643h84q86 8 86 104q0 48 -14 109h188q13 -54 13 -113q0 -171 -144 -221v-629q0 -250 2 -303h-202q-7 37 -11 123zM575 -358h-221v229h221v-229z" />
    <glyph glyph-name="Ygrave" unicode="&#x1ef2;" horiz-adv-x="899" 
d="M557 0h-217v504q0 25 -8 41l-350 844h239q198 -530 234 -656q23 70 63 181.5t93 256t79 218.5h228l-355 -846q-6 -12 -6 -43v-500zM94 1731h266l224 -246h-211z" />
    <glyph glyph-name="ygrave" unicode="&#x1ef3;" horiz-adv-x="835" 
d="M12 1053h232q20 -81 51.5 -209.5t48.5 -199t36.5 -155.5t30 -139.5t13.5 -89.5h2q33 185 182 793h215l-305 -1102q-26 -94 -56 -159.5t-58.5 -102t-68 -56.5t-73 -25t-84.5 -5q-55 0 -88 8v180q28 -4 74 -4q71 0 103.5 43t58.5 154zM92 1473h250l203 -281h-189z" />
    <glyph glyph-name="uni1EF4" unicode="&#x1ef4;" horiz-adv-x="899" 
d="M557 0h-217v504q0 25 -8 41l-350 844h239q198 -530 234 -656q23 70 63 181.5t93 256t79 218.5h228l-355 -846q-6 -12 -6 -43v-500zM557 -358h-221v229h221v-229z" />
    <glyph glyph-name="uni1EF5" unicode="&#x1ef5;" horiz-adv-x="835" 
d="M12 1053h232q20 -81 51.5 -209.5t48.5 -199t36.5 -155.5t30 -139.5t13.5 -89.5h2q33 185 182 793h215l-305 -1102q-26 -94 -56 -159.5t-58.5 -102t-68 -56.5t-73 -25t-84.5 -5q-55 0 -88 8v180q28 -4 74 -4q71 0 103.5 43t58.5 154zM797 -358h-222v229h222v-229z" />
    <glyph glyph-name="uni1EF6" unicode="&#x1ef6;" horiz-adv-x="899" 
d="M557 0h-217v504q0 25 -8 41l-350 844h239q198 -530 234 -656q23 70 63 181.5t93 256t79 218.5h228l-355 -846q-6 -12 -6 -43v-500zM526 1460h-178q55 53 74.5 82.5t19.5 63.5q0 25 -17 41t-50 16q-49 0 -99 -31l-45 121q83 59 201 59q94 0 145.5 -46t51.5 -117
q0 -95 -103 -189z" />
    <glyph glyph-name="uni1EF7" unicode="&#x1ef7;" horiz-adv-x="835" 
d="M12 1053h232q20 -81 51.5 -209.5t48.5 -199t36.5 -155.5t30 -139.5t13.5 -89.5h2q33 185 182 793h215l-305 -1102q-26 -94 -56 -159.5t-58.5 -102t-68 -56.5t-73 -25t-84.5 -5q-55 0 -88 8v180q28 -4 74 -4q71 0 103.5 43t58.5 154zM500 1180h-178q55 54 74.5 82.5
t19.5 62.5q0 25 -17 41t-51 16q-50 0 -98 -30l-45 121q83 59 201 59q94 0 145 -46.5t51 -117.5q0 -95 -102 -188z" />
    <glyph glyph-name="uni1EF8" unicode="&#x1ef8;" horiz-adv-x="899" 
d="M557 0h-217v504q0 25 -8 41l-350 844h239q198 -530 234 -656q23 70 63 181.5t93 256t79 218.5h228l-355 -846q-6 -12 -6 -43v-500zM285 1509h-140v47q0 100 44 144.5t116 44.5q57 0 148 -38t114 -38q47 0 47 60v18h138v-35q0 -113 -42 -160t-122 -47q-55 0 -143.5 37
t-112.5 37q-47 0 -47 -47v-23z" />
    <glyph glyph-name="uni1EF9" unicode="&#x1ef9;" horiz-adv-x="835" 
d="M12 1053h232q20 -81 51.5 -209.5t48.5 -199t36.5 -155.5t30 -139.5t13.5 -89.5h2q33 185 182 793h215l-305 -1102q-26 -94 -56 -159.5t-58.5 -102t-68 -56.5t-73 -25t-84.5 -5q-55 0 -88 8v180q28 -4 74 -4q71 0 103.5 43t58.5 154zM279 1202h-146v53q0 181 152 181
q46 0 92 -20t82.5 -40t58.5 -20q20 0 29.5 14.5t9.5 52.5v15h141v-45q0 -108 -40 -151.5t-113 -43.5q-43 0 -88 20t-82 40t-60 20q-36 0 -36 -53v-23z" />
    <glyph glyph-name="uni2007" unicode="&#x2007;" horiz-adv-x="923" 
 />
    <glyph glyph-name="uni2010" unicode="&#x2010;" horiz-adv-x="571" 
d="M66 627h438v-187h-438v187z" />
    <glyph glyph-name="figuredash" unicode="&#x2012;" horiz-adv-x="923" 
d="M141 748h637v-183h-637v183z" />
    <glyph glyph-name="endash" unicode="&#x2013;" horiz-adv-x="768" 
d="M70 625h628v-183h-628v183z" />
    <glyph glyph-name="emdash" unicode="&#x2014;" horiz-adv-x="1337" 
d="M70 625h1200v-183h-1200v183z" />
    <glyph glyph-name="uni2015" unicode="&#x2015;" horiz-adv-x="1337" 
d="M70 625h1200v-183h-1200v183z" />
    <glyph glyph-name="quoteleft" unicode="&#x2018;" horiz-adv-x="360" 
d="M160 1460h166q-74 -276 -74 -497h-203q4 129 38 275t73 222z" />
    <glyph glyph-name="quoteright" unicode="&#x2019;" horiz-adv-x="360" 
d="M201 963h-166q74 276 74 497h200q-3 -129 -36 -274t-72 -223z" />
    <glyph glyph-name="quotesinglbase" unicode="&#x201a;" horiz-adv-x="360" 
d="M201 -193h-166q74 276 74 498h200q-3 -129 -36 -275.5t-72 -222.5z" />
    <glyph glyph-name="quotedblleft" unicode="&#x201c;" horiz-adv-x="628" 
d="M438 1460h156q-33 -114 -53.5 -252t-20.5 -245h-186q3 133 33 269.5t71 227.5zM156 1460h153q-30 -95 -49.5 -242.5t-21.5 -254.5h-189q4 132 36 271.5t71 225.5z" />
    <glyph glyph-name="quotedblright" unicode="&#x201d;" horiz-adv-x="628" 
d="M188 963h-153q32 116 53 254.5t21 242.5h186q-3 -133 -33.5 -269t-73.5 -228zM473 963h-156q32 96 52 243t22 254h187q-4 -131 -35.5 -269.5t-69.5 -227.5z" />
    <glyph glyph-name="quotedblbase" unicode="&#x201e;" horiz-adv-x="628" 
d="M188 -190h-153q32 115 53 253t21 242h186q-3 -132 -34 -268.5t-73 -226.5zM473 -190h-156q31 94 51.5 241.5t22.5 253.5h187q-4 -130 -35.5 -269t-69.5 -226z" />
    <glyph glyph-name="dagger" unicode="&#x2020;" horiz-adv-x="808" 
d="M293 1290h188l-10 -399l266 12v-182l-266 12l10 -911h-188l12 911l-266 -12v182l266 -12z" />
    <glyph glyph-name="daggerdbl" unicode="&#x2021;" horiz-adv-x="806" 
d="M305 365v407l-266 -10v182l266 -14l-12 358h188l-8 -358l262 14v-182l-262 10v-407l262 12v-182l-262 12l8 -408h-188l12 408l-266 -12v182z" />
    <glyph glyph-name="bullet" unicode="&#x2022;" horiz-adv-x="538" 
d="M102 700h334v-346h-334v346z" />
    <glyph glyph-name="ellipsis" unicode="&#x2026;" horiz-adv-x="1306" 
d="M299 0h-217v303h217v-303zM731 0h-217v303h217v-303zM1157 0h-217v303h217v-303z" />
    <glyph glyph-name="perthousand" unicode="&#x2030;" horiz-adv-x="2060" 
d="M1720 752q129 0 200 -93.5t71 -285.5q0 -190 -69 -291t-206 -102q-272 0 -272 389q0 186 73.5 284.5t202.5 98.5zM1718 612q-57 0 -84.5 -58t-27.5 -185q0 -129 27 -188.5t87 -59.5q113 0 113 250q0 126 -26.5 183.5t-88.5 57.5zM342 1366q129 0 200.5 -94t71.5 -287
q0 -188 -69.5 -290t-204.5 -103q-272 0 -272 389q0 187 73 286t201 99zM342 1225q-58 0 -85.5 -57t-27.5 -185q0 -130 27 -189t86 -59q58 0 85.5 60.5t27.5 189.5q0 126 -26 183t-87 57zM420 0h-141l727 1350h143zM1094 752q129 0 200.5 -93.5t71.5 -285.5q0 -190 -69 -291
t-205 -102q-273 0 -273 389q0 186 73.5 284.5t201.5 98.5zM1094 612q-58 0 -85.5 -58t-27.5 -185q0 -129 27 -188.5t86 -59.5q57 0 84.5 60.5t27.5 189.5q0 127 -25.5 184t-86.5 57z" />
    <glyph glyph-name="uni2032" unicode="&#x2032;" horiz-adv-x="473" 
d="M260 938h-158l74 518h195z" />
    <glyph glyph-name="uni2033" unicode="&#x2033;" horiz-adv-x="747" 
d="M252 940h-150l74 516h184zM535 940h-150l76 516h184z" />
    <glyph glyph-name="guilsinglleft" unicode="&#x2039;" horiz-adv-x="569" 
d="M502 889l-248 -357l250 -358h-185l-253 358l253 357h183z" />
    <glyph glyph-name="guilsinglright" unicode="&#x203a;" horiz-adv-x="569" 
d="M66 174l249 356l-249 361h182l256 -361l-256 -356h-182z" />
    <glyph glyph-name="fraction" unicode="&#x2044;" horiz-adv-x="258" 
d="M-168 0h-139l729 1350h139z" />
    <glyph glyph-name="zero.sups" unicode="&#x2070;" horiz-adv-x="649" 
d="M330 1622q137 0 200.5 -94.5t63.5 -286.5q0 -197 -65 -294t-207 -97q-138 0 -202.5 99t-64.5 292q0 381 275 381zM328 1489q-55 0 -82 -53.5t-27 -194.5q0 -146 27 -200t80 -54q56 0 80 57t24 197t-23.5 194t-78.5 54z" />
    <glyph glyph-name="four.sups" unicode="&#x2074;" horiz-adv-x="616" 
d="M496 862h-152v187h-305v118l260 447h197v-440h94l-12 -125h-82v-187zM190 1174h154v114q0 116 6 187q-13 -27 -38.5 -75t-63.5 -118t-58 -108z" />
    <glyph glyph-name="five.sups" unicode="&#x2075;" horiz-adv-x="636" 
d="M553 1616l-21 -131h-284q-8 -91 -19 -164q48 41 131 41q105 0 164.5 -63.5t59.5 -178.5q0 -116 -69.5 -191t-203.5 -75q-122 0 -187.5 62t-70.5 163h154q15 -96 106 -96q105 0 105 129q0 66 -24 96.5t-79 30.5q-74 0 -106 -68l-143 19q34 215 53 426h434z" />
    <glyph glyph-name="six.sups" unicode="&#x2076;" horiz-adv-x="638" 
d="M575 1421h-151q-6 35 -25.5 56.5t-66.5 21.5q-112 0 -117 -207q50 66 162 66q103 0 161 -65t58 -175q0 -115 -70 -190.5t-196 -75.5q-275 0 -275 369q0 85 13.5 153.5t44 127t86 90.5t133.5 32q119 0 177.5 -57t65.5 -146zM330 981q50 0 77 34.5t27 96.5q0 127 -106 127
q-50 0 -78.5 -32.5t-28.5 -84.5q0 -57 25.5 -99t83.5 -42z" />
    <glyph glyph-name="seven.sups" unicode="&#x2077;" horiz-adv-x="571" 
d="M31 1616h499v-121q-78 -114 -146.5 -282t-98.5 -351h-174q26 175 103.5 355t141.5 264h-325v135z" />
    <glyph glyph-name="eight.sups" unicode="&#x2078;" horiz-adv-x="628" 
d="M309 852q-124 0 -194 62t-70 165q0 66 34 111t83 67q-88 54 -88 162q0 90 62 147.5t183 57.5q115 0 175.5 -58t60.5 -149q0 -105 -90 -153q49 -21 83 -68t34 -115q0 -105 -73 -167t-200 -62zM315 973q53 0 80 30t27 82q0 113 -109 113q-50 0 -78 -29.5t-28 -83.5
q0 -49 27.5 -80.5t80.5 -31.5zM315 1505q-45 0 -66.5 -26.5t-21.5 -67.5q0 -40 20.5 -67t67.5 -27q42 0 64 25.5t22 68.5q0 94 -86 94z" />
    <glyph glyph-name="nine.sups" unicode="&#x2079;" horiz-adv-x="638" 
d="M55 1057h162q10 -39 30.5 -59.5t63.5 -20.5q33 0 56 21t33.5 59t15 69.5t6.5 73.5q-44 -59 -148 -59q-99 0 -164 57.5t-65 171.5q0 107 71 180.5t191 73.5q277 0 277 -352q0 -203 -66 -311.5t-215 -108.5q-117 0 -178.5 58t-69.5 147zM309 1501q-49 0 -76.5 -34.5
t-27.5 -90.5q0 -50 27.5 -82t78.5 -32q47 0 77 30t30 84q0 32 -8 57.5t-34 46.5t-67 21z" />
    <glyph glyph-name="parenleft.sups" unicode="&#x207d;" horiz-adv-x="403" 
d="M217 1743h141q-139 -234 -139 -516q0 -284 139 -514h-141q-57 79 -101 211.5t-44 302.5q0 295 145 516z" />
    <glyph glyph-name="parenright.sups" unicode="&#x207e;" horiz-adv-x="403" 
d="M184 713h-143q141 234 141 518q0 281 -141 512h143q57 -78 100.5 -210.5t43.5 -301.5q0 -296 -144 -518z" />
    <glyph glyph-name="n.sups" unicode="&#x207f;" horiz-adv-x="645" 
d="M72 594v446q0 174 -2 217h143q5 -16 8 -83q51 96 168 96q79 0 131.5 -50.5t52.5 -172.5v-453h-153v422q0 59 -19.5 89t-68.5 30q-107 0 -107 -154v-387h-153z" />
    <glyph glyph-name="zero.subs" unicode="&#x2080;" horiz-adv-x="649" 
d="M330 496q137 0 200.5 -94.5t63.5 -286.5q0 -197 -65 -294t-207 -97q-138 0 -202.5 99t-64.5 292q0 381 275 381zM328 362q-55 0 -82 -53t-27 -194q0 -146 27 -200t80 -54q56 0 80 57t24 197q0 139 -23.5 193t-78.5 54z" />
    <glyph glyph-name="one.subs" unicode="&#x2081;" horiz-adv-x="413" 
d="M315 -264h-161v579q-59 -16 -111 -12v121q98 10 158 74h114v-762z" />
    <glyph glyph-name="two.subs" unicode="&#x2082;" horiz-adv-x="600" 
d="M543 -264h-492v14q0 103 49.5 188.5t161.5 176.5q66 55 90.5 91t24.5 68q0 95 -82 95q-46 0 -67.5 -29.5t-26.5 -89.5h-148q3 108 64 178t186 70q122 0 181 -64t59 -158q0 -30 -8 -57.5t-16 -45t-32 -43.5t-36 -37t-49 -43q-3 -3 -5.5 -5t-5.5 -5t-6 -5
q-69 -58 -102 -94.5t-43 -69.5h327z" />
    <glyph glyph-name="three.subs" unicode="&#x2083;" horiz-adv-x="614" 
d="M236 70v129h43q102 0 102 86q0 84 -84 84q-25 0 -42 -8.5t-26.5 -25.5t-13.5 -28t-8 -31h-148q2 26 8.5 51t23.5 57.5t42.5 56.5t70.5 40.5t103 16.5q118 0 176 -56t58 -145q0 -64 -32 -103t-69 -51q21 -7 40.5 -18.5t41 -32.5t34.5 -55.5t13 -77.5q0 -103 -66 -167
t-200 -64q-71 0 -123.5 21t-81 56.5t-42 73.5t-15.5 80h156q8 -47 31 -76.5t77 -29.5q101 0 101 110q0 57 -32.5 82t-97.5 25h-40z" />
    <glyph glyph-name="four.subs" unicode="&#x2084;" horiz-adv-x="616" 
d="M496 -264h-152v186h-305v119l260 446h197v-440h94l-12 -125h-82v-186zM190 47h154v115q0 116 6 186q-13 -27 -38.5 -75t-63.5 -118t-58 -108z" />
    <glyph glyph-name="five.subs" unicode="&#x2085;" horiz-adv-x="636" 
d="M553 489l-21 -131h-284q-8 -88 -19 -163q48 41 131 41q105 0 164.5 -63.5t59.5 -178.5q0 -116 -69.5 -191t-203.5 -75q-122 0 -187.5 62t-70.5 163h154q15 -96 106 -96q105 0 105 129q0 66 -24 96.5t-79 30.5q-74 0 -106 -68l-143 18q34 215 53 426h434z" />
    <glyph glyph-name="six.subs" unicode="&#x2086;" horiz-adv-x="638" 
d="M575 295h-151q-6 35 -25.5 56.5t-66.5 21.5q-112 0 -117 -207q49 65 162 65q103 0 161 -64.5t58 -174.5q0 -115 -70 -190.5t-196 -75.5q-275 0 -275 368q0 85 13.5 154t44 127t86 90.5t133.5 32.5q119 0 177.5 -57t65.5 -146zM330 -145q50 0 77 34.5t27 96.5
q0 127 -106 127q-50 0 -78.5 -32.5t-28.5 -84.5q0 -57 25.5 -99t83.5 -42z" />
    <glyph glyph-name="seven.subs" unicode="&#x2087;" horiz-adv-x="571" 
d="M31 489h499v-120q-78 -114 -146.5 -282t-98.5 -351h-174q26 175 103.5 354t141.5 264h-325v135z" />
    <glyph glyph-name="eight.subs" unicode="&#x2088;" horiz-adv-x="628" 
d="M309 -274q-124 0 -194 62t-70 165q0 66 34 111t83 67q-88 54 -88 162q0 90 62 147.5t183 57.5q115 0 175.5 -58t60.5 -149q0 -106 -90 -154q49 -21 83 -67.5t34 -114.5q0 -105 -73 -167t-200 -62zM315 -154q53 0 80 30t27 83q0 113 -109 113q-50 0 -78 -29.5t-28 -83.5
q0 -49 27.5 -81t80.5 -32zM315 379q-45 0 -66.5 -26.5t-21.5 -67.5t20.5 -68t67.5 -27q41 0 63.5 26t22.5 69q0 94 -86 94z" />
    <glyph glyph-name="nine.subs" unicode="&#x2089;" horiz-adv-x="638" 
d="M55 -70h162q10 -39 30.5 -59.5t63.5 -20.5q33 0 56 21t33.5 59.5t15 70t6.5 73.5q-45 -60 -148 -60q-99 0 -164 58t-65 172q0 107 71 180.5t191 73.5q277 0 277 -353q0 -202 -66 -310.5t-215 -108.5q-117 0 -178.5 57.5t-69.5 146.5zM309 375q-49 0 -76.5 -34.5
t-27.5 -90.5q0 -50 28 -82.5t78 -32.5q47 0 77 30.5t30 84.5q0 32 -8 57.5t-34 46.5t-67 21z" />
    <glyph glyph-name="parenleft.subs" unicode="&#x208d;" horiz-adv-x="403" 
d="M217 616h141q-139 -234 -139 -516q0 -284 139 -514h-141q-57 79 -101 211.5t-44 302.5q0 295 145 516z" />
    <glyph glyph-name="parenright.subs" unicode="&#x208e;" horiz-adv-x="403" 
d="M184 -414h-143q141 234 141 518q0 281 -141 512h143q57 -78 100.5 -210.5t43.5 -301.5q0 -296 -144 -518z" />
    <glyph glyph-name="colonmonetary" unicode="&#x20a1;" horiz-adv-x="901" 
d="M305 694q0 -270 37.5 -395t132.5 -125q84 0 119.5 54t42.5 149h203q-14 -275 -199 -348v-179h-125v152q-14 -2 -43 -2h-29v-150h-125v179q-130 55 -179.5 218t-49.5 445q0 252 54.5 407.5t174.5 213.5v168h125v-135q12 2 41 2h31v133h125v-158q190 -67 197 -348h-205
q-8 199 -152 199q-97 0 -136.5 -111.5t-39.5 -368.5z" />
    <glyph glyph-name="franc" unicode="&#x20a3;" horiz-adv-x="860" 
d="M158 0v272h-140v142h140v936h655v-187h-442v-352h409v-186h-409v-211h204v-142h-204v-272h-213z" />
    <glyph glyph-name="lira" unicode="&#x20a4;" horiz-adv-x="911" 
d="M821 0h-758v168q66 37 97.5 114t34.5 205h-150v119h148q-3 57 -9 109h-139v121h129q-4 82 -4 131q0 193 85 296t251 103q84 0 147 -25.5t100 -72.5t54.5 -108t17.5 -136h-194q-2 81 -31 121.5t-96 40.5q-71 0 -99 -52.5t-28 -164.5q0 -20 1 -42t2.5 -49t2.5 -42h266v-121
h-256q6 -52 6 -109h250v-119h-254q-9 -206 -86 -305h541z" />
    <glyph glyph-name="uni20A6" unicode="&#x20a6;" horiz-adv-x="903" 
d="M258 1126q8 -155 10 -245h60l-60 245h-10zM614 270h13q-13 187 -15 262h-59zM272 0h-166v532h-88v119h88v109h-88v121h88v469h259l108 -469h133v4v465h166v-469h88v-121h-88v-109h88v-119h-88v-532h-235l-127 532h-138v-45v-487zM608 651q0 17 -1 53.5t-1 55.5h-104
l24 -109h82zM381 651l-25 109h-86q0 -17 1 -53.5t1 -55.5h109z" />
    <glyph glyph-name="peseta" unicode="&#x20a7;" horiz-adv-x="919" 
d="M109 0v862h-99v139h99v349h333q170 0 266 -90.5t111 -258.5h80v-139h-82q-19 -170 -119.5 -261t-275.5 -91h-103v-510h-210zM317 1186v-185h289q-9 94 -53.5 139.5t-130.5 45.5h-105zM317 676h89q92 0 140 43.5t60 142.5h-289v-186z" />
    <glyph glyph-name="dong" unicode="&#x20ab;" horiz-adv-x="894" 
d="M94 -129h688v-143h-688v143zM573 1378h205v-131h109v-139h-109v-827q0 -98 6 -281h-184q-7 44 -10 127q-63 -143 -238 -143q-301 0 -301 520q0 228 87.5 356.5t238.5 128.5q143 0 196 -90v209h-335v139h335v131zM262 502q0 -185 38.5 -262.5t117.5 -77.5q55 0 89.5 29.5
t53.5 104.5t19 204q0 171 -34 240t-118 69q-85 0 -125.5 -75t-40.5 -232z" />
    <glyph glyph-name="Euro" unicode="&#x20ac;" horiz-adv-x="927" 
d="M682 346h199q-6 -71 -28.5 -132t-63 -115t-110 -85.5t-159.5 -31.5q-179 0 -264.5 131.5t-103.5 400.5h-111v119h104v55v51h-104v121h111q25 257 120.5 380.5t262.5 123.5q76 0 135.5 -22t96 -56t60.5 -80t34 -90.5t11 -91.5h-200q0 25 -5.5 49.5t-19 51t-42.5 43
t-70 16.5q-78 0 -120.5 -73t-54.5 -251h314v-121h-318v-47v-59h318v-119h-314q11 -186 50 -268t120 -82q129 0 152 182z" />
    <glyph glyph-name="uni20B1" unicode="&#x20b1;" horiz-adv-x="960" 
d="M143 0v748h-108v112h108v92h-108v113h108v285h310q153 0 247 -73.5t125 -211.5h99v-113h-82v-39q0 -37 -2 -53h84v-112h-101q-34 -140 -129.5 -213.5t-249.5 -73.5h-94v-461h-207zM348 1188v-123h275q-40 123 -179 123h-96zM641 913v39h-293v-92h291q2 16 2 53zM348 623
h86q73 0 118.5 30t68.5 95h-273v-125z" />
    <glyph glyph-name="uni20B2" unicode="&#x20b2;" horiz-adv-x="925" 
d="M829 1006h-198q-11 172 -160 172q-104 0 -147 -113t-43 -354q0 -289 49 -410t170 -121q69 0 118 19v503h205v-636q-139 -55 -270 -64v-162h-158v168q-178 31 -252.5 196.5t-74.5 491.5q0 588 327 647v123h158v-123q265 -40 276 -337z" />
    <glyph glyph-name="uni20B4" unicode="&#x20b4;" horiz-adv-x="890" 
d="M297 1024h-188q3 70 24 129.5t60 108.5t105 76.5t151 27.5q161 0 243 -87t82 -232q0 -115 -47 -201h92v-117h-184q-39 -39 -115 -98h273v-117h-408q-50 -52 -67 -96t-17 -101q0 -72 38.5 -121t106.5 -49q155 0 166 197h191q-6 -175 -97 -268.5t-268 -93.5
q-157 0 -250.5 84.5t-93.5 252.5q0 114 51 195h-88v117h185q42 42 114 98h-272v117h408q45 49 62 94t17 104q-2 67 -32 112.5t-99 45.5q-75 0 -105.5 -46.5t-37.5 -131.5z" />
    <glyph glyph-name="uni20B5" unicode="&#x20b5;" horiz-adv-x="888" 
d="M305 694q0 -270 37.5 -395t132.5 -125q44 0 75 16t48.5 45.5t26.5 63.5t12 78h203q-14 -328 -279 -371v-166h-158v164q-75 12 -130 49.5t-90 95t-56 143t-29 180.5t-8 220q0 292 74 454.5t239 192.5v127h158v-123q77 -11 132 -45t85 -86t44 -109.5t16 -129.5h-205
q-9 201 -152 201q-97 0 -136.5 -111.5t-39.5 -368.5z" />
    <glyph glyph-name="uni20B9" unicode="&#x20b9;" horiz-adv-x="878" 
d="M825 956h-145q-6 -286 -248 -372l344 -584h-239l-324 551h-137v174h153q116 0 176 54t64 177h-393v131h375q-49 117 -218 117h-157v146h749v-125h-239q58 -61 80 -138h159v-131z" />
    <glyph glyph-name="uni20BA" unicode="&#x20ba;" horiz-adv-x="897" 
d="M391 0h-219v549l-156 -70v148l156 67v107l-156 -70v150l156 67v402h215v-306l221 97v-148l-221 -98v-104l221 96v-146l-221 -98v-453q140 0 204.5 82t74.5 240h196q-1 -69 -13.5 -134t-46 -136t-83.5 -122.5t-135 -85.5t-193 -34z" />
    <glyph glyph-name="uni20BD" unicode="&#x20bd;" horiz-adv-x="897" 
d="M125 0v340h-133v145h133v133h-133v160h133v572h315q211 0 316.5 -98.5t105.5 -262.5q0 -177 -108 -274t-316 -97h-104v-133h284v-145h-284v-340h-209zM334 1180v-402h94q115 0 170 54.5t55 148.5q0 97 -51 148t-168 51h-100z" />
    <glyph glyph-name="uni2113" unicode="&#x2113;" horiz-adv-x="796" 
d="M573 319h183q-5 -163 -86 -249t-230 -86q-84 0 -143 25.5t-91.5 74t-46.5 106.5t-14 134v55q-39 -29 -118 -74v189q8 6 51.5 33.5t66.5 45.5v510q0 373 291 373q135 1 202 -90t69 -244q1 -188 -82 -333t-271 -297v-144q0 -89 23 -136.5t84 -47.5q52 0 77.5 35.5
t34.5 119.5zM354 1122v-399q158 176 158 410q0 151 -76 151q-82 0 -82 -162z" />
    <glyph glyph-name="uni2116" unicode="&#x2116;" horiz-adv-x="1658" 
d="M322 0h-195v1350h262q67 -236 147 -480t129 -384t52 -152h2q-10 145 -10 592v424h194v-1350h-252q-69 244 -152 499t-133 399t-53 159h-2q11 -156 11 -619v-438zM1184 893q0 -128 24.5 -189t89.5 -61q63 0 86 60t23 192q0 120 -26.5 173.5t-86.5 53.5q-57 0 -83.5 -53.5
t-26.5 -175.5zM1049 383h491v-152h-491v152zM1296 1272q140 0 214.5 -97.5t74.5 -281.5q0 -203 -76.5 -302t-214.5 -99q-288 0 -288 401q0 186 77 282.5t213 96.5z" />
    <glyph glyph-name="uni2117" unicode="&#x2117;" horiz-adv-x="1314" 
d="M444 338v706h252q105 0 172.5 -60t67.5 -161q0 -110 -65.5 -173.5t-182.5 -63.5h-106v-248h-138zM582 930v-232h94q119 0 119 119q0 113 -121 113h-92zM659 1360q253 0 414.5 -182t161.5 -492q0 -160 -43 -288.5t-120.5 -212.5t-182.5 -128.5t-230 -44.5q-128 0 -234 45
t-183 129.5t-119.5 212.5t-42.5 287q0 308 160 491t419 183zM657 1249q-214 0 -336 -145.5t-122 -419.5q0 -255 125.5 -408t332.5 -153q215 0 337 148.5t122 412.5q0 259 -126.5 412t-332.5 153z" />
    <glyph glyph-name="uni2120" unicode="&#x2120;" horiz-adv-x="913" 
d="M909 905h-110v150q0 143 10 250h-4q-14 -58 -46 -194t-50 -206h-103q-17 77 -46 215t-40 187h-4q8 -86 8 -285v-117h-104v484h176q34 -144 70 -314h2q25 126 77 314h164v-484zM29 1055h104q8 -74 72 -74q53 0 53 47q0 23 -17 39t-57 31q-86 30 -114.5 67t-28.5 90
q0 63 42 102.5t118 39.5q75 0 114 -40t41 -110h-102q-4 30 -16 47t-43 17q-50 0 -50 -43q0 -20 15 -33.5t55 -28.5q87 -32 118.5 -68t31.5 -98q0 -65 -42.5 -105t-123.5 -40q-75 0 -122 39.5t-48 120.5z" />
    <glyph glyph-name="trademark" unicode="&#x2122;" horiz-adv-x="888" 
d="M885 905h-109v150q0 78 8 250h-4q-11 -46 -43.5 -186.5t-52.5 -213.5h-102q-17 77 -46 215t-40 187h-4q10 -108 10 -289v-113h-107v484h176q44 -185 68 -310h2q20 94 80 310h164v-484zM-4 1389h354v-99h-119v-385h-114v385h-121v99z" />
    <glyph glyph-name="uni2126" unicode="&#x2126;" horiz-adv-x="1036" 
d="M524 1405q113 0 195.5 -43.5t131 -124.5t71 -186t22.5 -238q0 -265 -44.5 -411t-131.5 -214h203v-188h-404v203q84 51 120 189.5t36 420.5q0 73 -4 127.5t-17 109.5t-34.5 90t-59 57t-88.5 22q-207 0 -207 -414q0 -279 36.5 -415t109.5 -187v-203h-393v188h184
q-160 157 -160 619q1 135 26 242.5t76 188t135 124t197 43.5z" />
    <glyph glyph-name="estimated" unicode="&#x212e;" horiz-adv-x="1466" 
d="M1397 643h-1049q-6 0 -6 -8v-277q0 -18 14 -43q59 -108 159 -160.5t224 -52.5q127 0 213 45t148 142h192q-89 -151 -234.5 -230t-322.5 -79q-138 0 -259.5 52t-209.5 143.5t-139 222t-51 280.5q0 143 52.5 272.5t141 222.5t210 148t255.5 55q138 0 259 -49.5t210.5 -139
t141 -222.5t51.5 -291v-31zM1133 782v236q0 13 -17 47q-114 195 -377 195q-129 0 -226 -52t-157 -147q-14 -21 -14 -47v-232q0 -10 6 -10h776q9 0 9 10z" />
    <glyph glyph-name="onethird" unicode="&#x2153;" horiz-adv-x="1329" 
d="M281 2h-140l729 1350h140zM322 596h-162v580q-61 -17 -111 -13v121q98 10 158 74h115v-762zM920 334v129h43q102 0 102 86q0 84 -84 84q-25 0 -42 -8t-26.5 -25t-13.5 -28t-8 -31h-148q2 26 8.5 51t23.5 57.5t42.5 56t70.5 40t103 16.5q118 0 176 -56t58 -145
q0 -64 -32 -102.5t-69 -50.5q21 -7 40.5 -19t41 -33t34.5 -55.5t13 -77.5q0 -103 -66 -167t-200 -64q-71 0 -123.5 21t-81 56.5t-42 73.5t-15.5 80h156q8 -47 31 -76.5t77 -29.5q101 0 101 110q0 57 -32 82t-97 25h-41z" />
    <glyph glyph-name="twothirds" unicode="&#x2154;" horiz-adv-x="1495" 
d="M459 2h-140l730 1350h139zM549 596h-492v14q0 103 49.5 188.5t161.5 176.5q66 55 90.5 91.5t24.5 68.5q0 94 -82 94q-46 0 -67.5 -29.5t-26.5 -89.5h-148q3 108 64 178t186 70q122 0 181 -63.5t59 -157.5q0 -38 -9 -68t-32 -59t-42 -47.5t-60 -54.5q-3 -2 -5 -4t-5 -4.5
t-5 -4.5q-69 -58 -102 -94.5t-43 -69.5h327zM1090 336v129h43q102 0 102 86q0 84 -84 84q-25 0 -42 -8t-26.5 -25t-13.5 -28t-8 -31h-148q2 26 8.5 51t23.5 57.5t42.5 56t70.5 40t103 16.5q118 0 176 -56t58 -145q0 -64 -32 -102.5t-69 -50.5q21 -7 40.5 -19t41 -33
t34.5 -55.5t13 -77.5q0 -103 -66 -167t-200 -64q-71 0 -123.5 21t-81 56.5t-42 73.5t-15.5 80h156q8 -47 31 -76.5t77 -29.5q101 0 101 110q0 57 -32.5 82t-97.5 25h-40z" />
    <glyph glyph-name="oneeighth" unicode="&#x215b;" horiz-adv-x="1327" 
d="M276 2h-139l729 1350h140zM330 596h-162v580q-61 -17 -111 -13v121q98 10 158 74h115v-762zM983 -8q-124 0 -194 62t-70 165q0 66 34 111t83 67q-88 54 -88 162q0 90 62 147.5t183 57.5q115 0 175.5 -58t60.5 -149q0 -106 -90 -154q49 -21 82.5 -67.5t33.5 -114.5
q0 -105 -72.5 -167t-199.5 -62zM989 113q53 0 80 30t27 82q0 113 -109 113q-50 0 -78 -29.5t-28 -83.5q0 -49 27.5 -80.5t80.5 -31.5zM989 645q-45 0 -66.5 -26.5t-21.5 -67.5q0 -40 20.5 -67t67.5 -27q42 0 64 25.5t22 68.5q0 94 -86 94z" />
    <glyph glyph-name="threeeighths" unicode="&#x215c;" horiz-adv-x="1468" 
d="M434 2h-139l729 1350h139zM1128 -8q-124 0 -194 62t-70 165q0 66 34 111t83 67q-88 54 -88 162q0 90 62 147.5t184 57.5q115 0 175 -58t60 -149q0 -106 -90 -154q49 -21 83 -67.5t34 -114.5q0 -105 -73 -167t-200 -62zM1135 113q53 0 79.5 29.5t26.5 82.5q0 113 -108 113
q-50 0 -78.5 -29.5t-28.5 -83.5q0 -49 28 -80.5t81 -31.5zM1135 645q-45 0 -66.5 -26.5t-21.5 -67.5q0 -40 20.5 -67t67.5 -27q42 0 64 25.5t22 68.5q0 94 -86 94zM233 930v129h43q103 0 103 86q0 84 -84 84q-25 0 -42 -8t-26.5 -25t-13.5 -28t-8 -31h-148q2 26 8.5 51
t23.5 57.5t42.5 56t70.5 40t103 16.5q118 0 176 -56t58 -145q0 -64 -32 -102.5t-69 -50.5q21 -7 40.5 -19t41 -33t34.5 -55.5t13 -77.5q0 -103 -66 -167t-200 -64q-71 0 -123.5 21t-81 56.5t-42 73.5t-15.5 80h156q8 -47 31 -76.5t77 -29.5q100 0 100 110q0 57 -32 82
t-97 25h-41z" />
    <glyph glyph-name="fiveeighths" unicode="&#x215d;" horiz-adv-x="1505" 
d="M457 2h-140l730 1350h139zM563 1350l-20 -131h-285q-9 -105 -18 -164q48 41 131 41q105 0 164 -63.5t59 -178.5q0 -116 -69 -191t-203 -75q-122 0 -188 62.5t-71 162.5h154q15 -96 107 -96q104 0 104 129q0 66 -23.5 96.5t-78.5 30.5q-75 0 -107 -68l-143 19
q34 215 53 426h434zM1155 -10q-124 0 -194 62t-70 165q0 66 34 111t83 67q-88 54 -88 162q0 90 62 147.5t183 57.5q115 0 175.5 -58t60.5 -149q0 -106 -90 -154q49 -21 82.5 -67.5t33.5 -114.5q0 -105 -72.5 -167t-199.5 -62zM1161 111q53 0 80 30t27 82q0 113 -109 113
q-50 0 -78 -29.5t-28 -83.5q0 -49 27.5 -80.5t80.5 -31.5zM1161 643q-45 0 -66.5 -26.5t-21.5 -67.5q0 -40 20.5 -67t67.5 -27q42 0 64 25.5t22 68.5q0 94 -86 94z" />
    <glyph glyph-name="seveneighths" unicode="&#x215e;" horiz-adv-x="1384" 
d="M307 0h-139l729 1350h139zM1042 -10q-124 0 -194 62t-70 165q0 66 34 111t83 67q-88 54 -88 162q0 90 62 147.5t184 57.5q115 0 175 -58t60 -149q0 -106 -90 -154q49 -21 83 -67.5t34 -114.5q0 -105 -73 -167t-200 -62zM1049 111q53 0 79.5 29.5t26.5 82.5
q0 113 -108 113q-50 0 -78.5 -29.5t-28.5 -83.5q0 -49 28 -80.5t81 -31.5zM1049 643q-45 0 -66.5 -26.5t-21.5 -67.5q0 -40 20.5 -67t67.5 -27q42 0 64 25.5t22 68.5q0 94 -86 94zM63 1352h500v-121q-79 -115 -147.5 -282.5t-98.5 -350.5h-174q26 175 104 354.5t142 264.5
h-326v135z" />
    <glyph glyph-name="uni2190" unicode="&#x2190;" horiz-adv-x="1384" 
d="M1323 625h-991l512 -514l-105 -115l-678 704v2l678 709l103 -117l-510 -516h991v-153z" />
    <glyph glyph-name="arrowup" unicode="&#x2191;" horiz-adv-x="1388" 
d="M614 16v1123l-444 -502l-109 104l629 678h2l635 -678l-115 -102l-442 500v-1123h-156z" />
    <glyph glyph-name="uni2192" unicode="&#x2192;" horiz-adv-x="1384" 
d="M61 784h992l-512 514l104 115l678 -704v-2l-678 -709l-102 117l510 516h-992v153z" />
    <glyph glyph-name="arrowdown" unicode="&#x2193;" horiz-adv-x="1388" 
d="M774 1382v-1122l445 502l108 -105l-629 -677h-2l-635 677l115 103l442 -500v1122h156z" />
    <glyph glyph-name="partialdiff" unicode="&#x2202;" horiz-adv-x="923" 
d="M158 1223l-2 174q40 8 123 8q286 0 419 -205t133 -622q-2 -307 -92 -450.5t-301 -143.5q-178 0 -269 120t-91 336q0 203 95 316.5t255 113.5q133 0 184 -73v18q-2 63 -13.5 119.5t-38 111t-66 94t-101.5 63.5t-141 24q-66 0 -94 -4zM453 150q85 0 124 71t39 223
q0 132 -38 194t-125 62q-77 0 -120.5 -65t-43.5 -199q0 -286 164 -286z" />
    <glyph glyph-name="uni2206" unicode="&#x2206;" horiz-adv-x="1013" 
d="M969 0h-924v141l317 1248h273l334 -1248v-141zM258 188h477l-170 676q-56 225 -73 328h-3q-19 -122 -67 -330z" />
    <glyph glyph-name="product" unicode="&#x220f;" horiz-adv-x="1089" 
d="M125 1389h838v-1549h-218v1356h-401v-1356h-219v1549z" />
    <glyph glyph-name="summation" unicode="&#x2211;" horiz-adv-x="835" 
d="M788 -160h-772v146l349 628l-332 621v154h731v-193h-481l307 -565l-326 -600h553z" />
    <glyph glyph-name="minus" unicode="&#x2212;" horiz-adv-x="1101" 
d="M995 432h-889v162h889v-162z" />
    <glyph glyph-name="uni2215" unicode="&#x2215;" horiz-adv-x="258" 
d="M-168 0h-139l729 1350h139z" />
    <glyph glyph-name="uni2219" unicode="&#x2219;" horiz-adv-x="364" 
d="M291 410h-217v303h217v-303z" />
    <glyph glyph-name="radical" unicode="&#x221a;" horiz-adv-x="1024" 
d="M1026 1698l-371 -2028h-153l-262 840l-160 -64l-45 154l336 131q154 -529 194 -758q15 279 291 1725h170z" />
    <glyph glyph-name="infinity" unicode="&#x221e;" horiz-adv-x="1443" 
d="M371 227q-134 0 -217.5 88t-83.5 224q0 131 86 222t229 91q46 0 90 -12.5t75.5 -28t70 -46t59.5 -51t57 -57.5q52 50 81 75t77 58t97 47.5t106 14.5q136 0 219.5 -86t83.5 -227q0 -133 -88 -221t-228 -91q-55 0 -104.5 15.5t-94.5 47t-77.5 61t-75.5 75.5
q-42 -42 -61.5 -60.5t-60 -51t-71.5 -47.5t-76 -27.5t-93 -12.5zM385 393q37 0 69 10t64 33.5t52.5 43t56.5 57.5q-39 41 -58 59.5t-51.5 44.5t-63.5 36.5t-65 10.5q-65 0 -109 -39.5t-44 -109.5q0 -66 44.5 -106t104.5 -40zM1085 393q80 0 115 43.5t35 102.5
q0 64 -39.5 106.5t-110.5 42.5q-64 0 -118 -33.5t-125 -109.5q40 -40 58.5 -57t53.5 -44.5t66.5 -39t64.5 -11.5z" />
    <glyph glyph-name="integral" unicode="&#x222b;" horiz-adv-x="569" 
d="M573 1649l-18 -181q-37 11 -70 11q-75 0 -99 -56.5t-24 -199.5q1 -124 15 -536t14 -550q0 -74 -1.5 -113t-8 -105.5t-23.5 -103.5t-45 -77.5t-75 -59t-111 -18.5q-78 0 -131 23l27 190q40 -14 88 -14q29 0 47.5 11.5t29.5 30.5t16 57t6.5 75.5t0.5 101.5
q-2 110 -14 507.5t-13 547.5q0 52 1.5 94t7.5 93.5t17.5 91t32 78.5t49 64.5t70.5 41.5t95 16q72 0 116 -20z" />
    <glyph glyph-name="approxequal" unicode="&#x2248;" horiz-adv-x="1101" 
d="M256 211h-150v41q0 120 58 171.5t153 51.5q56 0 122 -18.5t115.5 -40t108.5 -40t103 -18.5q39 0 56.5 20.5t17.5 70.5v16h147v-39q0 -127 -53.5 -177t-149.5 -50q-63 0 -131.5 18t-117.5 39t-106 39t-99 18q-74 0 -74 -90v-12zM256 569h-150v39q0 226 207 226
q58 0 124.5 -18.5t116 -40t108 -40t102.5 -18.5q40 0 58 21t18 71v14h147v-35q0 -129 -56 -180t-153 -51q-60 0 -126.5 18t-115 39.5t-106 39.5t-100.5 18q-74 0 -74 -88v-15z" />
    <glyph glyph-name="notequal" unicode="&#x2260;" horiz-adv-x="1099" 
d="M844 971l-86 -176h235v-164h-313l-113 -234h426v-166h-506l-84 -172h-143l84 172h-238v166h318l113 234h-431v164h508l86 176h144z" />
    <glyph glyph-name="lessequal" unicode="&#x2264;" horiz-adv-x="1062" 
d="M119 614v162l827 365v-178l-635 -265l635 -270v-180zM946 0h-827v162h827v-162z" />
    <glyph glyph-name="greaterequal" unicode="&#x2265;" horiz-adv-x="1062" 
d="M946 776v-162l-827 -366v182l635 260l-635 273v178zM946 0h-827v162h827v-162z" />
    <glyph glyph-name="uni25A0" unicode="&#x25a0;" horiz-adv-x="686" 
d="M127 311v430h430v-430h-430z" />
    <glyph glyph-name="triagup" unicode="&#x25b2;" horiz-adv-x="1114" 
d="M1047 12h-979l479 1149h6z" />
    <glyph glyph-name="uni25B3" unicode="&#x25b3;" horiz-adv-x="1114" 
d="M1047 12h-979l479 1149h6zM289 162h516l-258 645z" />
    <glyph glyph-name="uni25B6" unicode="&#x25b6;" horiz-adv-x="1251" 
d="M113 88v981l1075 -481v-4z" />
    <glyph glyph-name="uni25B7" unicode="&#x25b7;" horiz-adv-x="1251" 
d="M113 88v981l1075 -481v-4zM852 586l-588 258v-516z" />
    <glyph glyph-name="triagdn" unicode="&#x25bc;" horiz-adv-x="1114" 
d="M68 1130h979l-480 -1150h-6z" />
    <glyph glyph-name="uni25BD" unicode="&#x25bd;" horiz-adv-x="1114" 
d="M68 1137h979l-480 -1149h-6zM825 985h-516l258 -643z" />
    <glyph glyph-name="uni25C0" unicode="&#x25c0;" horiz-adv-x="1251" 
d="M1137 1069v-981l-1076 481v4z" />
    <glyph glyph-name="uni25C1" unicode="&#x25c1;" horiz-adv-x="1251" 
d="M1137 1069v-981l-1076 481v4zM983 829l-588 -258l588 -258v516z" />
    <glyph glyph-name="uni25C6" unicode="&#x25c6;" horiz-adv-x="772" 
d="M84 528l299 310l305 -320l-297 -307z" />
    <glyph glyph-name="uni25C9" unicode="&#x25c9;" horiz-adv-x="925" 
d="M465 651q55 0 91 -38t36 -91q0 -59 -35.5 -99t-91.5 -40q-57 0 -92 39.5t-35 99.5q0 53 35 91t92 38zM834 522q-2 -162 -107.5 -274.5t-261.5 -112.5q-157 0 -264.5 111.5t-106.5 275.5q-1 104 48 192t135 139.5t190 51.5q154 0 260.5 -112.5t106.5 -270.5zM465 784
q-105 0 -173 -77t-65 -185q0 -113 67.5 -189.5t170.5 -76.5q105 0 172.5 77t67.5 189q0 107 -69.5 184.5t-170.5 77.5z" />
    <glyph glyph-name="lozenge" unicode="&#x25ca;" horiz-adv-x="1001" 
d="M754 668l-205 436q-40 88 -49 113h-4q-12 -41 -47 -113l-201 -430l203 -438q36 -86 43 -113h6q18 56 49 108zM920 672l-353 -723h-145l-342 721l348 723h145z" />
    <glyph glyph-name="uni2610" unicode="&#x2610;" horiz-adv-x="1619" 
d="M231 1341h1225v-1271l-70 -70h-1222v1276zM240 1243v-1159h1110v1159h-1110z" />
    <glyph glyph-name="uni2611" unicode="&#x2611;" horiz-adv-x="1619" 
d="M231 1341h1225v-1271l-70 -70h-1222v1276zM240 1243v-1159h1110v1159h-1110zM1075 1126h166q-269 -406 -553 -936h-57q-101 140 -242 437l139 92q74 -196 140 -320q175 367 407 727z" />
    <glyph glyph-name="uni2713" unicode="&#x2713;" horiz-adv-x="1236" 
d="M1001 1395h216q-376 -593 -783 -1430h-76q-191 325 -311 629l184 108q97 -327 177 -469q306 709 593 1162z" />
    <glyph glyph-name="uni2752" unicode="&#x2752;" horiz-adv-x="913" 
d="M123 721l151 153h512v-548l-139 -150h-522zM233 688v-397h375l-2 397h-373z" />
    <glyph glyph-name="fi" unicode="&#xfb01;" horiz-adv-x="935" 
d="M346 0h-213v877h-127v176h127v116q0 137 66.5 218t210.5 81q61 0 94 -10v-180q-27 6 -62 6q-54 0 -75 -30.5t-21 -96.5v-104h156v-176h-156v-877zM610 0v1053h213v-1053h-213zM825 1223h-213v233h213v-233z" />
    <glyph glyph-name="fl" unicode="&#xfb02;" horiz-adv-x="933" 
d="M346 0h-213v877h-127v176h127v116q0 137 66.5 218t210.5 81q61 0 94 -10v-180q-27 6 -62 6q-54 0 -75 -30.5t-21 -96.5v-104h156v-176h-156v-877zM823 0h-213v1456h213v-1456z" />
    <glyph glyph-name="uni00470303" horiz-adv-x="1019" 
d="M920 774v-774h-166q-10 102 -11 129q-80 -152 -276 -152q-108 0 -184 49t-120.5 144.5t-64.5 222t-20 295.5q0 721 454 721q74 0 135 -18t100 -45t68.5 -67t44.5 -74.5t24.5 -77t12 -65t3.5 -48.5h-213q-16 211 -181 211q-63 0 -107.5 -38.5t-70 -112t-36.5 -168
t-11 -218.5q0 -104 6 -183t20.5 -146t38.5 -109.5t61 -66t87 -23.5q109 0 151 85t42 269v74h-205v186h418zM352 1509h-139v47q0 100 44 144.5t116 44.5q57 0 148 -38t114 -38q47 0 47 60v18h137v-35q0 -113 -42 -160t-122 -47q-55 0 -143.5 37t-112.5 37q-47 0 -47 -47v-23z
" />
    <glyph glyph-name="uni00670303" horiz-adv-x="937" 
d="M823 739v-659q0 -116 -18 -199.5t-61 -149t-121 -98t-193 -32.5q-83 0 -147.5 19.5t-102 50t-62.5 72t-34.5 79.5t-11.5 80h213q12 -127 153 -127q104 0 140 73t36 232v63q-57 -137 -231 -137q-162 0 -241 132t-79 376q0 270 91.5 413.5t251.5 143.5q167 0 208 -121
q0 16 1.5 35.5t4 39.5l3.5 28h204q-4 -122 -4 -314zM281 520q0 -334 168 -334q97 0 133 89t36 276q0 69 -3 116t-12.5 92.5t-26.5 71.5t-46 42t-71 16q-178 0 -178 -369zM330 1202h-146v53q0 181 152 181q46 0 92 -20t82.5 -40t58.5 -20q20 0 29.5 14.5t9.5 52.5v15h142v-45
q0 -108 -40.5 -151.5t-113.5 -43.5q-43 0 -87.5 20t-81.5 40t-60 20q-37 0 -37 -53v-23z" />
    <glyph glyph-name="zero.slash" horiz-adv-x="923" 
d="M467 1366q128 0 208.5 -64t123.5 -215t43 -399q0 -368 -88.5 -537t-292.5 -169q-206 0 -293.5 167.5t-87.5 538.5q0 190 26.5 323.5t78.5 210.5t120.5 110.5t161.5 33.5zM463 1186q-100 0 -139 -107t-39 -385q0 -131 6 -225l297 639q-38 78 -125 78zM463 158
q101 0 138.5 125t37.5 407q0 159 -10 238l-301 -658q40 -112 135 -112z" />
    <glyph glyph-name="zero.slashtab" horiz-adv-x="923" 
d="M465 1366q128 0 208.5 -64t123.5 -215t43 -399q0 -368 -88.5 -537t-292.5 -169q-206 0 -293.5 167.5t-87.5 538.5q0 190 26.5 323.5t78.5 210.5t120.5 110.5t161.5 33.5zM461 1186q-100 0 -139 -107t-39 -385q0 -131 6 -225l297 639q-38 78 -125 78zM461 158
q101 0 138.5 125t37.5 407q0 159 -10 238l-301 -658q40 -112 135 -112z" />
    <glyph glyph-name="zero.tab" horiz-adv-x="923" 
d="M465 1366q127 0 207.5 -62t124 -213t43.5 -403q0 -382 -88 -544t-293 -162q-204 0 -292.5 165.5t-88.5 540.5q0 158 18 276t50.5 194t82 123t106.5 66t130 19zM461 1186q-95 0 -131.5 -109.5t-36.5 -382.5q0 -144 6 -234.5t23.5 -163.5t51.5 -105.5t87 -32.5
q52 0 85 31.5t51 103t24 162.5t6 235q0 286 -33 391t-133 105z" />
    <glyph glyph-name="one.tab" horiz-adv-x="923" 
d="M791 0h-654v182h225v916q-130 -24 -204 -21v158q163 18 274 117h141v-1170h218v-182z" />
    <glyph glyph-name="two.tab" horiz-adv-x="923" 
d="M815 0h-733v12q0 151 71.5 289.5t231.5 319.5q70 78 102 117.5t59.5 85.5t35.5 84.5t8 92.5q0 90 -30.5 141.5t-110.5 51.5t-114.5 -59t-39.5 -174h-205q1 65 12.5 122t38.5 110t68 90.5t104 60t142 22.5q93 0 162 -27.5t110 -78t60.5 -116.5t19.5 -149q0 -125 -45 -214
t-178 -228q-218 -239 -258 -371h518z" />
    <glyph glyph-name="three.tab" horiz-adv-x="923" 
d="M289 999h-195q0 53 10 101.5t35 98t63.5 86t101 59t142.5 22.5q170 0 253 -92t83 -252q0 -223 -161 -283v-4q202 -66 202 -329q0 -70 -11 -130t-38.5 -115.5t-70.5 -94t-110.5 -61.5t-154.5 -23q-181 0 -271 99t-95 265h204q2 -39 11.5 -72t28 -61.5t50.5 -44.5t76 -16
q92 0 129 65t37 182q0 130 -51.5 184t-169.5 54h-59v174h55q101 0 144.5 43t43.5 156q0 90 -30 137t-107 47q-134 0 -145 -195z" />
    <glyph glyph-name="four.tab" horiz-adv-x="923" 
d="M735 0h-198v334h-480v174l406 842h272v-842h125l-18 -174h-107v-334zM537 508v309q0 145 8 363q-45 -133 -289 -672h281z" />
    <glyph glyph-name="five.tab" horiz-adv-x="923" 
d="M793 1350l-25 -185h-420q-13 -157 -35 -342q66 76 201 76q160 0 242 -113.5t82 -304.5q0 -499 -392 -499q-93 0 -162.5 27.5t-112 78t-64.5 115.5t-25 145h211q13 -194 160 -194q50 0 84 22t51.5 64.5t25 93t7.5 119.5q0 136 -35.5 204t-128.5 68q-69 0 -106 -38.5
t-58 -108.5l-195 28q18 115 41 353.5t33 390.5h621z" />
    <glyph glyph-name="six.tab" horiz-adv-x="923" 
d="M811 1051h-199q-17 145 -139 145q-25 0 -46 -7t-37.5 -21.5t-29.5 -30.5t-22.5 -42t-16.5 -47t-12 -54.5t-7.5 -55.5t-4.5 -58.5t-2.5 -55.5t-1.5 -54q76 123 229 123q149 0 233.5 -110.5t84.5 -315.5q0 -103 -20.5 -187.5t-63.5 -153t-118 -106.5t-177 -38
q-91 0 -158 31.5t-109 86t-67.5 138.5t-35 177.5t-9.5 215.5q0 140 11.5 249.5t39.5 202.5t73.5 154t115 95t161.5 34q76 0 135.5 -22t94 -55t57.5 -77.5t31.5 -83t9.5 -77.5zM461 150q166 0 166 292q0 145 -38 211t-126 66t-130 -63t-42 -173q0 -333 170 -333z" />
    <glyph glyph-name="seven.tab" horiz-adv-x="923" 
d="M106 1350h701v-168q-133 -234 -234 -547.5t-143 -634.5h-223q42 312 152.5 633t234.5 532h-488v185z" />
    <glyph glyph-name="eight.tab" horiz-adv-x="923" 
d="M442 -18q-178 0 -273 108t-95 297q0 71 16 130.5t42 98t52.5 62.5t55.5 39q-134 85 -134 284q0 162 92.5 262.5t260.5 100.5q159 0 249.5 -92t90.5 -252q0 -123 -38.5 -196.5t-98.5 -102.5q167 -78 167 -338q0 -183 -99.5 -292t-287.5 -109zM453 150q165 0 165 239
q0 124 -41 182t-126 58q-88 0 -127 -60t-39 -178q0 -114 41 -177.5t127 -63.5zM453 1198q-74 0 -109 -52t-35 -140q0 -207 146 -207q143 0 143 202q0 197 -145 197z" />
    <glyph glyph-name="nine.tab" horiz-adv-x="923" 
d="M84 289h205q5 -27 11 -45t20.5 -42.5t42 -37t67.5 -12.5q48 0 82 32t51.5 79t27.5 112.5t13 120t4 113.5v20q-64 -113 -217 -113q-149 0 -234 103.5t-85 298.5q0 213 96 330.5t276 117.5q193 0 283 -134.5t90 -445.5q0 -446 -86.5 -626t-310.5 -180q-301 0 -335 303
q-1 4 -1 6zM444 1192q-161 0 -161 -254q0 -250 163 -250q160 0 160 230q0 62 -6.5 107t-23 85t-49.5 61t-83 21z" />
    </font>
</defs>
</svg>
