<?xml version="1.0" standalone="no"?>
<!DOCTYPE svg PUBLIC "-//W3C//DTD SVG 20010904//EN"
 "http://www.w3.org/TR/2001/REC-SVG-20010904/DTD/svg10.dtd">
<svg version="1.0" xmlns="http://www.w3.org/2000/svg"
 width="1500.000000pt" height="854.000000pt" viewBox="0 0 1500.000000 854.000000"
 preserveAspectRatio="xMidYMid meet">

<g transform="translate(0.000000,854.000000) scale(0.100000,-0.100000)"
fill="#000000" stroke="none">
<path d="M6590 6257 c-3 -2 -36 -7 -75 -11 -235 -22 -511 -152 -684 -323 -116
-115 -244 -327 -267 -442 -16 -77 -24 -29 -24 133 l0 175 -117 143 c-65 79
-140 171 -168 206 l-50 62 -502 0 -501 0 -20 -62 c-11 -35 -37 -121 -57 -193
-21 -71 -52 -179 -70 -240 -64 -213 -95 -320 -101 -353 -4 -18 -10 -30 -14
-25 -4 4 -40 105 -80 223 -39 118 -82 231 -95 250 -13 19 -63 83 -112 141 -48
59 -115 141 -148 182 l-60 76 -487 0 -488 1 0 -1105 0 -1106 167 -204 167
-205 350 0 349 0 -6 288 -5 287 26 -81 c21 -64 40 -97 92 -161 36 -44 111
-137 168 -206 l103 -127 267 0 267 0 54 163 c29 89 57 166 61 170 4 4 69 -69
145 -163 l139 -170 363 0 363 0 0 595 c0 390 3 595 10 595 6 0 10 -9 10 -20 0
-27 55 -162 92 -230 51 -91 64 -107 381 -499 178 -219 292 -311 497 -401 194
-85 423 -119 672 -100 304 23 555 131 760 328 229 221 338 491 338 842 0 158
-18 282 -58 400 -53 154 -97 228 -258 427 -55 67 -142 175 -195 240 -161 198
-270 289 -449 375 -83 39 -236 91 -302 102 -18 3 -46 9 -63 12 -40 7 -379 18
-385 11z m395 -57 c459 -78 791 -368 901 -785 35 -132 45 -381 20 -520 -70
-404 -329 -710 -716 -849 -151 -55 -247 -69 -455 -69 -208 0 -304 14 -455 69
-434 156 -706 530 -727 1001 -15 342 87 625 306 844 178 178 411 284 706 322
95 12 311 6 420 -13z m-3439 -440 c74 -217 163 -484 200 -593 l66 -198 36 3
36 3 48 165 c27 91 78 266 114 390 36 124 81 279 101 345 19 66 45 156 57 200
l22 80 470 3 469 2 -3 -1065 -2 -1065 -321 0 -322 0 7 333 c3 182 9 461 12
618 l6 286 -42 7 c-24 4 -44 5 -45 4 -1 -2 -94 -282 -206 -623 l-205 -620
-233 0 -233 0 -18 50 c-10 28 -78 232 -150 455 -72 223 -156 480 -186 573
l-56 167 -39 0 -39 0 0 -102 c0 -57 4 -231 9 -388 6 -157 13 -392 16 -522 l7
-238 -306 0 -306 0 0 1065 0 1065 451 -2 452 -3 133 -395z"/>
<path d="M6615 5606 c-74 -18 -169 -73 -219 -126 -184 -197 -180 -561 8 -759
115 -120 268 -165 438 -130 303 63 462 464 308 776 -96 195 -315 293 -535 239z
m555 -500 c0 -24 -6 -78 -14 -119 -42 -219 -212 -367 -421 -367 -94 0 -95 1
-95 84 0 89 21 163 67 236 45 71 76 104 134 141 77 49 144 68 242 69 l87 0 0
-44z"/>
<path d="M8080 5889 l0 -310 175 -215 176 -214 99 0 100 0 0 -580 0 -581 167
-204 167 -205 373 0 373 0 0 785 0 785 215 0 215 0 0 -584 c0 -495 2 -585 14
-595 8 -7 83 -98 167 -202 l152 -189 359 0 358 0 -5 108 c-6 122 -25 657 -25
714 0 68 -8 79 183 -252 65 -112 129 -205 199 -291 57 -69 131 -160 166 -202
l62 -77 385 0 385 0 0 1099 0 1099 -81 98 c-44 55 -121 150 -171 212 l-91 112
-353 0 -354 0 0 -72 c0 -40 5 -235 11 -433 6 -198 9 -373 7 -389 -3 -24 -11
-14 -66 85 -211 380 -217 389 -357 562 -77 94 -155 188 -174 209 l-33 38 -369
0 -369 0 0 -130 c0 -71 -3 -130 -7 -130 -5 1 -55 59 -113 130 l-104 130 -918
0 -918 0 0 -311z m1800 -4 l0 -275 -275 0 -275 0 0 -790 0 -790 -330 0 -330 0
0 790 0 790 -270 0 -270 0 0 275 0 275 875 0 875 0 0 -275z m1270 -247 c368
-656 332 -598 375 -598 30 0 35 3 35 23 0 12 -7 256 -15 542 -8 286 -15 528
-15 538 0 16 21 17 310 17 l310 0 0 -1065 0 -1065 -346 2 -346 3 -302 520
-302 520 -40 3 c-39 3 -41 2 -38 -25 2 -15 8 -237 14 -493 6 -256 13 -480 15
-497 l4 -33 -315 0 -314 0 0 1065 0 1065 338 0 338 0 294 -522z"/>
<path d="M9936 3158 c-19 -17 -27 -37 -32 -80 l-6 -58 81 0 c80 0 81 0 81 25
0 22 -4 25 -39 25 -46 0 -69 21 -46 40 8 7 24 10 36 7 27 -7 51 39 28 54 -26
16 -77 10 -103 -13z"/>
<path d="M3347 2976 c-69 -25 -97 -66 -97 -140 0 -61 32 -97 112 -126 96 -35
120 -66 81 -105 -21 -22 -81 -15 -121 14 l-29 20 -31 -32 c-18 -18 -32 -39
-32 -45 0 -25 101 -62 168 -62 107 0 166 44 178 133 11 79 -30 125 -144 162
-58 19 -79 44 -62 75 15 29 77 30 119 3 22 -14 25 -13 57 18 19 18 34 36 34
41 0 4 -19 17 -42 29 -53 27 -141 34 -191 15z"/>
<path d="M2460 2745 l0 -235 60 0 60 0 0 90 0 90 90 0 90 0 0 45 0 45 -90 0
-90 0 0 50 0 50 95 0 95 0 0 50 0 50 -155 0 -155 0 0 -235z"/>
<path d="M2850 2745 l0 -235 165 0 165 0 0 50 0 50 -110 0 -110 0 0 45 0 44
98 3 97 3 3 42 3 42 -98 3 -98 3 -3 43 -3 42 105 0 106 0 0 50 0 50 -160 0
-160 0 0 -235z"/>
<path d="M3610 2930 l0 -50 65 0 65 0 0 -185 0 -185 58 0 57 0 0 183 0 182 68
3 68 3 -3 47 -3 47 -187 3 -188 2 0 -50z"/>
<path d="M4047 2973 c-4 -3 -7 -109 -7 -235 l0 -228 60 0 60 0 0 235 0 235
-53 0 c-30 0 -57 -3 -60 -7z"/>
<path d="M4210 2972 c0 -5 27 -81 60 -168 34 -87 72 -189 86 -226 l26 -68 58
0 c46 0 59 4 65 18 4 9 35 91 70 182 34 91 72 189 84 218 l21 52 -64 0 -64 0
-52 -161 c-28 -89 -54 -158 -58 -154 -4 3 -30 75 -58 158 l-51 152 -61 3 c-34
2 -62 -1 -62 -6z"/>
<path d="M4747 2751 c-54 -127 -97 -233 -97 -236 0 -3 28 -5 62 -3 l61 3 15
43 14 42 92 0 92 0 15 -42 16 -43 65 -3 66 -3 -97 233 -97 233 -56 3 -55 3
-96 -230z m171 37 c39 -106 41 -98 -22 -98 -31 0 -56 2 -56 4 0 9 52 146 55
146 2 0 12 -24 23 -52z"/>
<path d="M5190 2745 l0 -235 150 0 150 0 0 50 0 50 -90 0 -90 0 0 185 0 185
-60 0 -60 0 0 -235z"/>
<path d="M7470 2745 l0 -235 55 0 55 0 0 235 0 235 -55 0 -55 0 0 -235z"/>
<path d="M7860 2744 l0 -235 143 5 c78 3 153 5 167 6 14 0 57 -2 96 -6 69 -6
186 14 207 35 12 12 -11 127 -33 171 -10 20 -37 53 -59 73 -105 95 -236 59
-276 -75 -8 -28 -15 -59 -15 -68 0 -28 -22 -40 -72 -40 l-48 0 0 185 0 185
-55 0 -55 0 0 -236z m435 -16 c28 -22 68 -96 59 -110 -13 -20 -154 -1 -154 21
0 25 25 88 38 99 21 16 25 16 57 -10z"/>
<path d="M8820 2795 l0 -185 -55 0 -55 0 0 140 0 140 -50 0 -50 0 0 -140 0
-140 -40 0 -40 0 0 -50 0 -50 200 0 200 0 0 235 0 235 -55 0 -55 0 0 -185z"/>
<path d="M9020 2745 l0 -235 55 0 55 0 0 235 0 235 -55 0 -55 0 0 -235z"/>
<path d="M9920 2745 l0 -235 60 0 60 0 -2 233 -3 232 -57 3 -58 3 0 -236z"/>
<path d="M10810 2745 l0 -235 274 0 275 0 7 47 c5 32 3 48 -5 51 -6 2 -11 25
-11 53 0 28 -6 62 -14 77 -26 50 -86 92 -153 107 -37 7 -132 -9 -158 -29 -16
-12 -16 -15 4 -54 12 -23 23 -42 25 -42 2 0 21 7 42 16 76 32 144 -7 144 -83
l0 -43 -160 0 -160 0 0 185 0 185 -55 0 -55 0 0 -235z"/>
<path d="M7058 2963 c-36 -9 -34 -77 2 -88 50 -16 86 60 41 85 -11 5 -21 9
-23 9 -2 -1 -11 -3 -20 -6z"/>
<path d="M7158 2959 c-25 -14 -24 -65 1 -79 27 -14 37 -13 55 6 40 39 -8 101
-56 73z"/>
<path d="M10463 2898 c-34 -44 -14 -98 35 -98 37 0 52 17 52 57 0 22 -6 36
-19 43 -26 14 -56 13 -68 -2z"/>
<path d="M11803 2859 c-65 -19 -123 -119 -123 -213 l0 -36 -60 0 -60 0 0 110
0 110 -55 0 -55 0 0 -163 c0 -131 -3 -167 -16 -185 -8 -12 -22 -22 -31 -22
-13 0 -15 -8 -9 -47 3 -25 7 -48 9 -49 1 -2 22 2 45 8 48 12 100 63 109 109 5
28 7 29 68 29 l62 0 21 -49 c39 -95 132 -170 210 -171 18 0 50 10 71 22 38 22
39 24 43 90 7 91 20 105 106 112 90 8 106 8 184 0 49 -4 87 -2 138 11 l70 17
0 47 c0 148 -125 278 -245 255 -68 -12 -105 -59 -128 -161 -15 -63 -20 -67
-93 -80 l-51 -9 -11 73 c-20 142 -100 220 -199 192z m67 -131 c11 -24 20 -60
20 -80 l0 -38 -51 0 -52 0 6 50 c6 50 33 110 50 110 4 0 17 -19 27 -42z m490
-5 c16 -16 37 -45 45 -66 14 -34 14 -38 0 -43 -23 -9 -124 1 -137 14 -24 24
18 122 52 122 5 0 23 -12 40 -27z m-434 -273 c-5 -33 -15 -60 -21 -60 -20 0
-95 90 -95 114 0 3 28 6 63 6 l63 0 -10 -60z"/>
<path d="M9520 2802 c-27 -26 -43 -56 -55 -97 -11 -38 -27 -67 -46 -82 -38
-33 -52 -82 -47 -167 4 -50 13 -86 32 -123 14 -29 28 -53 31 -53 2 0 24 10 48
21 l45 22 -24 35 c-35 52 -49 106 -38 150 10 42 21 44 94 17 52 -20 169 -16
235 8 40 14 40 15 39 64 -4 133 -105 243 -225 243 -46 0 -55 -4 -89 -38z m148
-85 c25 -26 54 -92 45 -101 -11 -10 -101 -7 -128 6 -18 8 -24 17 -20 30 3 10
8 28 11 41 15 52 55 63 92 24z"/>
<path d="M7280 2720 l0 -110 -145 0 c-140 0 -145 1 -160 23 -16 24 -8 74 15
102 9 11 2 21 -32 45 l-43 31 -23 -28 c-64 -80 -48 -219 32 -257 28 -13 71
-16 250 -16 l216 0 0 160 0 160 -55 0 -55 0 0 -110z"/>
<path d="M7670 2662 c0 -151 -2 -171 -18 -185 -10 -10 -24 -17 -32 -17 -9 0
-11 -12 -6 -47 3 -25 7 -48 9 -49 8 -9 85 20 105 39 48 44 52 65 52 252 l0
175 -55 0 -55 0 0 -168z"/>
<path d="M10640 2746 c-33 -17 -44 -28 -42 -42 2 -10 6 -49 9 -86 5 -67 5 -68
-30 -103 -27 -27 -43 -35 -71 -35 -78 0 -116 43 -116 134 l0 57 -47 20 c-53
23 -57 20 -67 -48 -20 -145 81 -263 224 -263 152 0 249 126 219 287 -6 32 -16
68 -22 80 l-12 22 -45 -23z"/>
<path d="M5710 2560 l0 -50 430 0 430 0 0 50 0 50 -430 0 -430 0 0 -50z"/>
<path d="M8635 2471 c-33 -14 -43 -32 -50 -93 l-7 -58 81 0 c80 0 81 0 81 25
0 22 -4 25 -39 25 -46 0 -69 21 -46 40 8 7 24 10 36 7 15 -4 23 1 31 19 6 13
9 27 6 29 -11 11 -73 15 -93 6z"/>
<path d="M11107 2442 c-33 -37 -13 -92 33 -92 54 0 80 58 42 93 -24 22 -55 21
-75 -1z"/>
</g>
</svg>
