<?xml version="1.0" standalone="no"?>
<!DOCTYPE svg PUBLIC "-//W3C//DTD SVG 1.1//EN" "http://www.w3.org/Graphics/SVG/1.1/DTD/svg11.dtd" >
<svg xmlns="http://www.w3.org/2000/svg" xmlns:xlink="http://www.w3.org/1999/xlink" version="1.1">
<metadata>
Created by FontForge 20170731 at Tue Apr 18 17:17:43 2023
 By Aleksey,,,
(c) 2014 Adobe Systems Incorporated. All Rights Reserved.
</metadata>
<defs>
<font id="AcuminProCond-Black" horiz-adv-x="819" >
  <font-face 
    font-family="Acumin Pro Condensed Black"
    font-weight="900"
    font-stretch="condensed"
    units-per-em="2048"
    panose-1="2 11 9 6 2 2 2 2 2 4"
    ascent="1505"
    descent="-543"
    x-height="1077"
    cap-height="1382"
    bbox="-385 -535 2058 2044"
    underline-thickness="102"
    underline-position="-307"
    unicode-range="U+0020-FB02"
  />
<missing-glyph horiz-adv-x="1024" 
d="M0 0v1434h1024v-1434h-1024zM512 809l348 522h-696zM573 717l349 -522v1044zM164 102h696l-348 523zM102 1239v-1044l349 522z" />
    <glyph glyph-name="f_f" unicode="ff" horiz-adv-x="1083" 
d="M643 829h-209v-829h-311v829h-115v248h115v68q0 155 71.5 237t235.5 82q77 0 127 -12l-4 -231q-16 2 -45 2q-42 0 -58 -21.5t-16 -64.5v-60h209v64q0 155 72.5 239t236.5 84q90 0 127 -12l-6 -231q-14 2 -43 2q-74 0 -74 -88v-58h136v-248h-136v-829h-313v829z" />
    <glyph glyph-name=".notdef" horiz-adv-x="1024" 
d="M0 0v1434h1024v-1434h-1024zM512 809l348 522h-696zM573 717l349 -522v1044zM164 102h696l-348 523zM102 1239v-1044l349 522z" />
    <glyph glyph-name=".null" horiz-adv-x="0" 
 />
    <glyph glyph-name="nonmarkingreturn" horiz-adv-x="682" 
 />
    <glyph glyph-name="space" unicode=" " horiz-adv-x="350" 
 />
    <glyph glyph-name="exclam" unicode="!" horiz-adv-x="575" 
d="M455 514h-271l-32 633v235h335v-233zM473 0h-309v348h309v-348z" />
    <glyph glyph-name="quotedbl" unicode="&#x22;" horiz-adv-x="694" 
d="M279 891h-199l-23 360v197h246v-199zM612 891h-200l-21 360v197h246v-199z" />
    <glyph glyph-name="numbersign" unicode="#" horiz-adv-x="985" 
d="M444 0l60 350h-144l-59 -350h-203l60 350h-111v238h152l34 207h-127v233h168l54 315h198l-53 -315h145l54 315h200l-53 -315h111v-233h-150l-35 -207h127v-238h-165l-60 -350h-203zM545 588l35 207h-146l-35 -207h146z" />
    <glyph glyph-name="dollar" unicode="$" horiz-adv-x="935" 
d="M561 -139h-205v137q-307 46 -317 387h291q3 -79 32 -122.5t97 -43.5q54 0 83 35t29 94q0 70 -36 113.5t-132 85.5q-130 55 -203.5 110.5t-110 132t-36.5 185.5q0 146 80 244.5t223 123.5v107h205v-107q146 -24 215 -116t72 -250h-281q-3 147 -116 147q-52 0 -78.5 -31.5
t-26.5 -88.5q0 -59 39.5 -99t142.5 -84q184 -77 263 -176.5t79 -257.5q0 -159 -76 -260.5t-233 -126.5v-139z" />
    <glyph glyph-name="percent" unicode="%" horiz-adv-x="1466" 
d="M352 1364q291 0 291 -383q0 -187 -73.5 -286.5t-217.5 -100.5q-148 0 -220.5 95t-72.5 288q0 184 73 285.5t220 101.5zM352 1188q-40 0 -58 -46.5t-18 -162.5q0 -114 17.5 -160.5t58.5 -46.5t59.5 48t18.5 161q0 117 -17.5 162t-60.5 45zM451 0h-166l723 1343h166z
M1116 750q144 0 217.5 -97.5t73.5 -283.5q0 -185 -74 -286t-217 -101q-293 0 -293 383q0 182 73.5 283.5t219.5 101.5zM1116 573q-40 0 -58 -45t-18 -161q0 -114 17.5 -160.5t58.5 -46.5t59.5 48t18.5 161q0 116 -17.5 160t-60.5 44z" />
    <glyph glyph-name="ampersand" unicode="&#x26;" horiz-adv-x="1261" 
d="M492 229q72 0 126 74l-206 256q-56 -63 -56 -158q0 -81 35 -126.5t101 -45.5zM924 831h288l-272 -469l295 -362h-369l-92 113q-61 -67 -135.5 -99t-187.5 -32q-186 0 -288 104.5t-102 288.5q0 119 47 201t164 163q-61 86 -90.5 158t-29.5 156q0 67 21 127.5t62.5 111.5
t113.5 81t165 30q168 0 261 -91.5t93 -230.5q0 -117 -51 -195t-174 -157l133 -164zM516 1184q-39 0 -60.5 -31t-21.5 -82q0 -45 18.5 -85.5t61.5 -96.5q50 38 69 80.5t19 103.5q0 111 -86 111z" />
    <glyph glyph-name="quotesingle" unicode="'" horiz-adv-x="378" 
d="M297 891h-217l-23 366v191h262v-193z" />
    <glyph glyph-name="parenleft" unicode="(" horiz-adv-x="653" 
d="M344 1458h266q-252 -400 -252 -850q0 -460 252 -874h-266q-113 166 -183.5 388t-70.5 488q0 464 254 848z" />
    <glyph glyph-name="parenright" unicode=")" horiz-adv-x="653" 
d="M309 -266h-266q252 400 252 852q0 458 -252 872h266q113 -166 182.5 -386.5t69.5 -487.5q0 -469 -252 -850z" />
    <glyph glyph-name="asterisk" unicode="*" horiz-adv-x="765" 
d="M281 1374h202l-39 -254l183 162l106 -174l-229 -90l223 -84l-102 -172l-181 158l39 -250h-202l41 248l-187 -154l-102 174l223 80l-221 90l104 174l183 -160z" />
    <glyph glyph-name="plus" unicode="+" horiz-adv-x="1112" 
d="M442 979h232v-354h342v-230h-342v-358h-232v358h-344v230h344v354z" />
    <glyph glyph-name="comma" unicode="," horiz-adv-x="466" 
d="M238 -203h-232q52 153 84 308.5t37 256.5h287q-14 -156 -65.5 -312.5t-110.5 -252.5z" />
    <glyph glyph-name="hyphen" unicode="-" horiz-adv-x="579" 
d="M59 664h461v-248h-461v248z" />
    <glyph glyph-name="period" unicode="." horiz-adv-x="444" 
d="M377 0h-309v360h309v-360z" />
    <glyph glyph-name="slash" unicode="/" horiz-adv-x="679" 
d="M268 -49h-221l365 1440h219z" />
    <glyph glyph-name="zero" unicode="0" horiz-adv-x="974" 
d="M489 1364q73 0 130 -15t113 -58.5t92.5 -117t59.5 -197.5t23 -292q0 -170 -21 -295.5t-56.5 -203t-90.5 -124.5t-115 -64t-139 -17q-78 0 -137.5 17.5t-114 65t-89.5 125.5t-55.5 204t-20.5 296t24 295t62 197t95.5 114.5t113 56t126.5 13.5zM487 1124q-35 0 -56 -19
t-33.5 -72t-16.5 -130.5t-4 -210.5q0 -282 19.5 -378.5t90.5 -96.5q70 0 89.5 96t19.5 375q0 72 -0.5 120t-2.5 96t-5 77t-9 56.5t-13.5 42t-19 25.5t-26 15t-33.5 4z" />
    <glyph glyph-name="one" unicode="1" horiz-adv-x="591" 
d="M481 0h-311v1022q-55 3 -125 12v219q70 6 130 33.5t93 63.5h213v-1350z" />
    <glyph glyph-name="two" unicode="2" horiz-adv-x="890" 
d="M829 0h-780v16q1 185 67.5 319.5t231.5 319.5q80 90 112 134t47 90t15 114q0 69 -17.5 104.5t-68.5 35.5q-58 0 -78.5 -47.5t-23.5 -157.5h-287q0 70 11 130t39 117.5t72.5 98.5t115.5 65.5t164 24.5q202 0 294.5 -103.5t92.5 -283.5q0 -123 -42 -209.5t-169 -222.5
q-93 -102 -144.5 -169.5t-70.5 -121.5h458z" />
    <glyph glyph-name="three" unicode="3" horiz-adv-x="933" 
d="M348 973h-285q1 57 11.5 108t38 104.5t70 91.5t113.5 62.5t163 24.5q190 0 285.5 -91.5t95.5 -258.5q0 -222 -166 -283v-4q87 -27 145 -103t58 -210q0 -98 -20.5 -173t-67.5 -135t-132 -92t-206 -32q-206 0 -301.5 103t-98.5 282h295q3 -77 26.5 -118.5t82.5 -41.5
t82.5 45.5t23.5 146.5q0 116 -36 159.5t-142 43.5h-70v229h66q91 0 123.5 31.5t32.5 130.5q0 77 -19.5 111.5t-73.5 34.5q-27 0 -46 -13t-28.5 -38t-13.5 -51.5t-6 -63.5z" />
    <glyph glyph-name="four" unicode="4" horiz-adv-x="933" 
d="M795 0h-287v297h-463v242l336 804h414v-804h110l-22 -242h-88v-297zM508 539v192q0 126 10 391q-38 -140 -199 -583h189z" />
    <glyph glyph-name="five" unicode="5" horiz-adv-x="942" 
d="M844 1343l-35 -256h-401q-2 -17 -11.5 -108.5t-11.5 -128.5q64 61 190 61q161 0 238.5 -115t77.5 -311q0 -120 -22 -210t-71 -158t-133.5 -102.5t-203.5 -34.5q-87 0 -155 21t-113 56.5t-75 86.5t-43.5 107t-15.5 122h299q3 -79 26.5 -121.5t78.5 -42.5q67 0 89.5 56
t22.5 184q0 126 -23.5 177.5t-90.5 51.5q-48 0 -72 -31t-37 -92l-276 29q14 109 36.5 365.5t30.5 393.5h701z" />
    <glyph glyph-name="six" unicode="6" horiz-adv-x="958" 
d="M879 1020h-289q-3 26 -6.5 42t-13 35.5t-29 29.5t-47.5 10q-22 0 -39.5 -9.5t-29.5 -24t-21 -40.5t-14 -51t-8 -64t-4.5 -70.5t-2.5 -78.5q68 100 217 100q148 0 229.5 -106t81.5 -316q0 -241 -105 -369t-313 -128q-228 0 -322.5 156t-94.5 495q0 145 13 256t44 203
t80.5 151t124 91t174.5 32q90 0 159.5 -25t108 -60.5t63.5 -85.5t33.5 -90t10.5 -83zM481 207q59 0 85 57.5t26 179.5q0 124 -23.5 172t-85.5 48q-58 0 -84 -46.5t-26 -162.5q0 -128 25 -188t83 -60z" />
    <glyph glyph-name="seven" unicode="7" horiz-adv-x="788" 
d="M10 1343h758v-231q-128 -228 -217 -520.5t-125 -591.5h-330q41 301 146.5 593t226.5 494h-459v256z" />
    <glyph glyph-name="eight" unicode="8" horiz-adv-x="958" 
d="M467 -20q-197 0 -302.5 108t-105.5 303q0 121 49 202.5t117 117.5q-133 86 -133 282q0 170 100.5 269.5t292.5 99.5q182 0 283.5 -92.5t101.5 -265.5q0 -113 -38.5 -185t-100.5 -104q168 -80 168 -324q0 -194 -107.5 -302.5t-324.5 -108.5zM481 203q57 0 82 46t25 152
q0 104 -27 147.5t-84 43.5q-56 0 -82 -44.5t-26 -148.5q0 -103 26 -149.5t86 -46.5zM479 1141q-98 0 -98 -154q0 -89 23.5 -127.5t74.5 -38.5q52 0 75.5 39.5t23.5 124.5q0 80 -23.5 118t-75.5 38z" />
    <glyph glyph-name="nine" unicode="9" horiz-adv-x="954" 
d="M74 315h297q4 -23 8 -36.5t14 -31.5t28.5 -27t45.5 -9q32 0 54 24t33.5 59.5t17.5 85.5t7.5 92t2.5 89v23q-61 -88 -199 -88q-153 0 -239.5 105.5t-86.5 305.5q0 215 106 336t308 121q221 0 320.5 -145t99.5 -461q0 -173 -13 -297t-43 -219.5t-81.5 -152t-125.5 -84.5
t-177 -28q-71 0 -129.5 15t-96 38t-66.5 56.5t-44 63t-25 65.5t-12.5 57t-3.5 43zM475 1133q-57 0 -82.5 -49t-25.5 -152q0 -105 26.5 -153t83.5 -48q55 0 80 43t25 141q0 115 -22 166.5t-85 51.5z" />
    <glyph glyph-name="colon" unicode=":" horiz-adv-x="552" 
d="M424 0h-293v354h293v-354zM424 676h-293v354h293v-354z" />
    <glyph glyph-name="semicolon" unicode=";" horiz-adv-x="577" 
d="M260 -203h-231q48 126 80.5 293.5t40.5 271.5h284q-11 -151 -62.5 -310.5t-111.5 -254.5zM449 676h-293v354h293v-354z" />
    <glyph glyph-name="less" unicode="&#x3c;" horiz-adv-x="905" 
d="M96 393v232l713 352v-250l-477 -215l477 -219v-254z" />
    <glyph glyph-name="equal" unicode="=" horiz-adv-x="1112" 
d="M96 418h918v-230h-918v230zM96 829h918v-229h-918v229z" />
    <glyph glyph-name="greater" unicode="&#x3e;" horiz-adv-x="905" 
d="M809 623v-232l-713 -352v250l477 215l-477 219v254z" />
    <glyph glyph-name="question" unicode="?" horiz-adv-x="892" 
d="M614 451h-313v47q0 95 33.5 173t114.5 181q47 62 67.5 110t20.5 105q0 58 -19 85.5t-61 27.5q-49 0 -68 -39t-22 -119h-285q1 81 22 147t64.5 120.5t121.5 84.5t183 29t180.5 -28.5t116.5 -77.5t59.5 -108.5t18.5 -131.5q0 -103 -31 -174t-115 -183q-49 -65 -68.5 -116
t-19.5 -109v-24zM614 0h-313v356h313v-356z" />
    <glyph glyph-name="at" unicode="@" horiz-adv-x="1527" 
d="M1090 -84l47 -168q-142 -94 -400 -94q-151 0 -271.5 47.5t-208.5 141.5t-135.5 244t-47.5 347q0 184 47.5 343t137 279t229.5 188.5t315 68.5q300 0 475.5 -177.5t175.5 -498.5q0 -293 -103.5 -451.5t-291.5 -158.5q-162 0 -201 118q-70 -118 -211 -118q-99 0 -156 75
t-57 238q0 278 80 438t209 160q65 0 105 -26t49 -68l10 74h241l-77 -578q-8 -58 5 -86.5t50 -28.5q51 0 88 56.5t54.5 143.5t17.5 191q0 263 -117 387.5t-350 124.5q-172 0 -290 -89t-173 -243t-55 -364q0 -134 27 -239.5t83 -185.5t149 -122.5t218 -42.5q180 0 332 74z
M795 711q-41 0 -69 -74t-37 -148.5t-9 -132.5q0 -53 13.5 -76.5t41.5 -23.5q38 0 58.5 50t42.5 196q18 114 9.5 161.5t-50.5 47.5z" />
    <glyph glyph-name="A" unicode="A" horiz-adv-x="1015" 
d="M627 297h-252l-47 -297h-318l273 1382h446l277 -1382h-330zM416 563h170q-45 276 -80 555h-10q-19 -178 -80 -555z" />
    <glyph glyph-name="B" unicode="B" horiz-adv-x="1040" 
d="M102 0v1382h461q186 0 285.5 -91t99.5 -263q0 -120 -46 -189.5t-118 -95.5q203 -85 203 -333q0 -200 -115 -305t-319 -105h-451zM412 844h86q84 0 113.5 34.5t29.5 118.5q0 81 -33.5 117.5t-107.5 36.5h-88v-307zM412 621v-392h100q76 0 113 44t37 149q0 107 -37.5 153
t-130.5 46h-82z" />
    <glyph glyph-name="C" unicode="C" horiz-adv-x="1017" 
d="M653 434h318q-1 -36 -5.5 -71t-17 -82.5t-31.5 -88.5t-53 -82.5t-78.5 -70.5t-110.5 -47.5t-145 -18.5q-113 0 -195 33.5t-133 92t-81.5 152t-41.5 198t-11 245.5q0 370 117 541.5t358 171.5q105 0 185 -31.5t124.5 -77.5t72 -110t36.5 -116.5t10 -110.5h-318
q-1 25 -1.5 36t-3 36t-6.5 38.5t-12.5 32.5t-20 28.5t-29.5 17t-41 7.5q-81 0 -109.5 -102t-28.5 -363q0 -248 26 -359.5t108 -111.5q23 0 41 8t29.5 19t20.5 31t13.5 35t7.5 41.5t4 39.5t2 39z" />
    <glyph glyph-name="D" unicode="D" horiz-adv-x="1075" 
d="M104 0v1382h396q268 0 388 -158.5t120 -504.5q0 -374 -121.5 -546.5t-399.5 -172.5h-383zM424 1139v-897h59q75 0 115.5 42.5t58 144.5t17.5 294q0 239 -39 327.5t-150 88.5h-61z" />
    <glyph glyph-name="E" unicode="E" horiz-adv-x="923" 
d="M836 846v-260h-420v-330h475l-37 -256h-750v1382h750v-260h-438v-276h420z" />
    <glyph glyph-name="F" unicode="F" horiz-adv-x="892" 
d="M104 0v1382h750v-258h-434v-299h405v-256h-405v-569h-316z" />
    <glyph glyph-name="G" unicode="G" horiz-adv-x="1067" 
d="M987 793v-793h-233q-11 66 -13 109q-76 -136 -272 -136q-207 0 -304 168t-97 541q0 202 33.5 344.5t99 225t153 119t205.5 36.5q80 0 145.5 -18t108.5 -45.5t75.5 -67t49.5 -76.5t28 -80.5t13.5 -71.5t3.5 -57h-317q-2 27 -4 44.5t-9 43t-19 40.5t-33.5 26.5t-51.5 11.5
q-86 0 -117 -111.5t-31 -365.5q0 -257 29 -357t113 -100q69 0 97 57t28 175v88h-136v250h455z" />
    <glyph glyph-name="H" unicode="H" horiz-adv-x="1085" 
d="M104 0v1382h318v-522h240v522h319v-1382h-319v594h-240v-594h-318z" />
    <glyph glyph-name="I" unicode="I" horiz-adv-x="528" 
d="M104 1382h318v-1382h-318v1382z" />
    <glyph glyph-name="J" unicode="J" horiz-adv-x="624" 
d="M532 1382v-991q0 -83 -8 -142.5t-31 -113t-62.5 -86t-104 -51t-154.5 -18.5q-83 0 -145 12v250q69 -6 79 -6q68 0 88.5 27t20.5 97v1022h317z" />
    <glyph glyph-name="K" unicode="K" horiz-adv-x="1032" 
d="M104 0v1382h310v-575q18 37 79.5 164.5t113.5 234.5t89 176h353l-314 -540l320 -842h-346l-197 567l-98 -147v-420h-310z" />
    <glyph glyph-name="L" unicode="L" horiz-adv-x="874" 
d="M104 0v1382h318v-1124h438l-29 -258h-727z" />
    <glyph glyph-name="M" unicode="M" horiz-adv-x="1349" 
d="M946 0v442q0 334 8 670h-8q-9 -62 -42.5 -311.5t-62.5 -445.5t-57 -355h-256q-26 197 -76 592t-67 522h-10q12 -324 12 -682v-432h-281v1382h449q76 -489 111 -829h6q12 92 32.5 220.5t50.5 310.5t48 298h442v-1382h-299z" />
    <glyph glyph-name="N" unicode="N" horiz-adv-x="1097" 
d="M387 0h-283v1382h349q248 -764 272 -870h6q-18 224 -18 616v254h280v-1382h-342q-254 835 -274 918h-6q16 -266 16 -648v-270z" />
    <glyph glyph-name="O" unicode="O" horiz-adv-x="1079" 
d="M543 1409q243 0 356 -173t113 -536q0 -383 -112.5 -555t-369.5 -172q-241 0 -351.5 175.5t-110.5 558.5q0 365 117 533.5t358 168.5zM539 1157q-80 0 -110 -101t-30 -349q0 -263 30 -373.5t110 -110.5q84 0 112.5 106t28.5 378q0 255 -28.5 352.5t-112.5 97.5z" />
    <glyph glyph-name="P" unicode="P" horiz-adv-x="1011" 
d="M104 0v1382h455q188 0 300 -105.5t112 -311.5q0 -213 -109.5 -318.5t-316.5 -105.5h-125v-541h-316zM420 1145v-363h82q82 0 116.5 43t34.5 142q0 178 -143 178h-90z" />
    <glyph glyph-name="Q" unicode="Q" horiz-adv-x="1079" 
d="M543 1409q243 0 356 -173t113 -536q0 -364 -101 -536l201 -144l-160 -204l-256 180q-70 -23 -166 -23q-241 0 -351.5 175.5t-110.5 558.5q0 365 117 533.5t358 168.5zM539 1157q-80 0 -110 -101t-30 -349q0 -263 30 -373.5t110 -110.5q84 0 112.5 106t28.5 378
q0 255 -28.5 352.5t-112.5 97.5z" />
    <glyph glyph-name="R" unicode="R" horiz-adv-x="1032" 
d="M487 565h-69v-565h-314v1382h467q199 0 301.5 -97t102.5 -286q0 -130 -52 -207t-126 -106q84 -38 121.5 -114t37.5 -222v-49q0 -187 15 -301h-307q-23 76 -23 311v47q0 123 -31.5 165t-122.5 42zM418 1147v-342h74q92 0 128.5 39t36.5 139q0 86 -34 125t-111 39h-94z" />
    <glyph glyph-name="S" unicode="S" horiz-adv-x="983" 
d="M43 401h313q7 -93 37.5 -142.5t98.5 -49.5q120 0 120 141q0 72 -45 123t-166 113q-183 94 -256 187t-73 243q0 182 107.5 287.5t309.5 105.5q94 0 167.5 -23t119.5 -61.5t76 -93t42 -112t13 -124.5h-305q-3 55 -12 90.5t-34.5 62t-68.5 26.5q-102 0 -102 -123
q0 -62 35.5 -101.5t146.5 -93.5q134 -68 210 -129.5t115.5 -144.5t39.5 -197q0 -88 -26.5 -161.5t-79 -130t-139.5 -88.5t-200 -32q-433 0 -444 428z" />
    <glyph glyph-name="T" unicode="T" horiz-adv-x="897" 
d="M291 0v1122h-273v260h861v-260h-271v-1122h-317z" />
    <glyph glyph-name="U" unicode="U" horiz-adv-x="1083" 
d="M92 1382h320v-966q0 -193 131 -193q39 0 65.5 15t39 43t17.5 59t5 74v968h319v-958q0 -451 -454 -451q-232 0 -337.5 115.5t-105.5 337.5v956z" />
    <glyph glyph-name="V" unicode="V" horiz-adv-x="999" 
d="M696 0h-395l-301 1382h338l90 -536q47 -272 70 -531h10q12 136 76 527l88 540h327z" />
    <glyph glyph-name="W" unicode="W" horiz-adv-x="1437" 
d="M571 0h-321l-230 1382h334q67 -589 90 -950h9q21 148 73 487t70 463h270q87 -565 135 -940h11q15 183 98 940h307l-246 -1382h-319q-10 57 -32.5 189t-37 217t-33 205t-30.5 216h-8q-16 -122 -40 -265.5t-56.5 -319.5t-43.5 -242z" />
    <glyph glyph-name="X" unicode="X" horiz-adv-x="933" 
d="M956 0h-352q-3 22 -71.5 239t-71.5 246h-6q-3 -31 -75 -249t-75 -236h-328l283 705l-274 677h352q2 -24 66.5 -218t66.5 -216l4 2q3 24 67.5 216t67.5 216h326l-274 -649z" />
    <glyph glyph-name="Y" unicode="Y" horiz-adv-x="946" 
d="M631 0h-318v449q0 35 -12 63l-324 870h351q113 -415 155 -618q21 90 80.5 318.5t77.5 299.5h328l-328 -872q-10 -27 -10 -55v-455z" />
    <glyph glyph-name="Z" unicode="Z" horiz-adv-x="917" 
d="M37 0v203l483 919h-446v260h788v-229l-454 -893h483l-37 -260h-817z" />
    <glyph glyph-name="bracketleft" unicode="[" horiz-adv-x="595" 
d="M543 -266h-439v1722h439v-213h-201v-1298h201v-211z" />
    <glyph glyph-name="backslash" unicode="\" horiz-adv-x="677" 
d="M408 -49l-361 1440h219l363 -1440h-221z" />
    <glyph glyph-name="bracketright" unicode="]" horiz-adv-x="595" 
d="M55 1456h439v-1722h-439v211h199v1298h-199v213z" />
    <glyph glyph-name="asciicircum" unicode="^" horiz-adv-x="839" 
d="M815 651h-233q-6 20 -83.5 235.5t-84.5 241.5q-6 -25 -81 -247t-77 -230h-231l266 695h256z" />
    <glyph glyph-name="underscore" unicode="_" horiz-adv-x="1058" 
d="M2 -158h1053v-112h-1053v112z" />
    <glyph glyph-name="grave" unicode="`" 
d="M41 1456h346l186 -276h-256z" />
    <glyph glyph-name="a" unicode="a" horiz-adv-x="954" 
d="M860 772v-506q0 -54 8 -266h-282q-9 34 -13 94q-77 -112 -239 -112q-137 0 -212 93t-75 238q0 174 110.5 264.5t309.5 90.5q66 0 86 -2v104q0 53 -16 81t-68 28q-50 0 -67.5 -29t-20.5 -94h-293q7 340 393 340q379 0 379 -324zM557 418v51q-18 2 -59 2q-142 0 -142 -131
q0 -50 22.5 -82.5t70.5 -32.5q65 0 86.5 46.5t21.5 146.5z" />
    <glyph glyph-name="b" unicode="b" horiz-adv-x="993" 
d="M92 287v1161h314v-467q70 115 227 115t231 -129t74 -396q0 -299 -78 -444t-258 -145q-46 0 -82 10t-59.5 28.5t-36.5 34.5t-27 39q0 -48 -6 -94h-301q2 86 2 287zM623 559q0 161 -21.5 224t-87.5 63q-45 0 -68.5 -25t-35 -90.5t-11.5 -191.5q0 -129 9.5 -194t32 -90.5
t67.5 -25.5q66 0 90.5 71.5t24.5 258.5z" />
    <glyph glyph-name="c" unicode="c" horiz-adv-x="905" 
d="M567 383h297q-1 -53 -9.5 -100.5t-35 -105.5t-68 -98.5t-116.5 -68.5t-174 -28q-97 0 -169 28.5t-117 76.5t-72 122t-37.5 154.5t-10.5 183.5q0 126 24 224.5t73.5 172.5t132 113t194.5 39q100 0 174.5 -30.5t113.5 -73t62.5 -101.5t29.5 -100t7 -86h-307q-1 30 -2 47.5
t-6 41.5t-13.5 36.5t-24 22t-38.5 9.5q-57 0 -79.5 -68.5t-22.5 -246.5q0 -185 21 -257.5t79 -72.5q29 0 48 12.5t28.5 39t12.5 50.5t5 64z" />
    <glyph glyph-name="d" unicode="d" horiz-adv-x="991" 
d="M588 1448h313v-1129q0 -262 2 -319h-299q-4 20 -10 106q-60 -124 -232 -124q-157 0 -232 136t-75 431q0 269 87.5 408t258.5 139q74 0 120.5 -22.5t66.5 -55.5v430zM373 545q0 -180 24 -249t84 -69q68 0 89.5 66t21.5 260q0 179 -18.5 236t-84.5 57q-40 0 -63.5 -22.5
t-38 -90t-14.5 -188.5z" />
    <glyph glyph-name="e" unicode="e" horiz-adv-x="942" 
d="M885 463h-518q0 -58 4 -98t15 -77t34.5 -55t58.5 -18q98 0 103 123h299q-2 -23 -5 -43.5t-14 -59t-27.5 -70t-48 -67.5t-72 -60.5t-103 -41t-138.5 -16.5q-75 0 -136 16.5t-104 44.5t-75 70.5t-51.5 89t-31.5 106.5t-16 116t-4 124q0 271 107.5 410t316.5 139
q93 0 164 -25.5t117.5 -69.5t75.5 -110t41 -141t12 -168q0 -95 -4 -119zM371 662h209q0 38 -1 62t-7 53.5t-16.5 46t-30.5 28.5t-48 12q-35 0 -57.5 -16.5t-32.5 -48.5t-13 -62t-3 -75z" />
    <glyph glyph-name="f" unicode="f" horiz-adv-x="563" 
d="M434 0h-311v829h-115v248h115v70q0 153 73 235t238 82q75 0 125 -12v-233q-16 4 -49 4q-43 0 -59.5 -21t-16.5 -67v-58h135v-248h-135v-829z" />
    <glyph glyph-name="g" unicode="g" horiz-adv-x="993" 
d="M901 739v-643q0 -122 -20 -207t-69 -149.5t-135 -95.5t-214 -31q-89 0 -158.5 19t-112.5 49t-71 73t-39.5 86t-13.5 92h307q2 -18 5.5 -29.5t13 -27.5t30.5 -24.5t53 -8.5q67 0 90 51.5t23 169.5v74q-61 -117 -221 -117q-314 0 -314 519q0 277 87 417t249 140
q155 0 201 -107q2 24 12 88h301q-4 -132 -4 -338zM375 545q0 -154 26.5 -217.5t83.5 -63.5q65 0 87 67.5t22 239.5q0 55 -1 86t-4 67.5t-9.5 55t-17.5 36t-28.5 24t-41.5 6.5q-60 0 -88.5 -67.5t-28.5 -233.5z" />
    <glyph glyph-name="h" unicode="h" horiz-adv-x="997" 
d="M92 1448h314v-465q70 113 235 113q264 0 264 -330v-766h-313v713q0 69 -18 101t-72 32q-56 0 -76 -39.5t-20 -126.5v-680h-314v1448z" />
    <glyph glyph-name="i" unicode="i" horiz-adv-x="499" 
d="M92 0v1077h314v-1077h-314zM406 1194h-312v254h312v-254z" />
    <glyph glyph-name="j" unicode="j" horiz-adv-x="501" 
d="M94 1077h314v-1036q0 -52 -1.5 -89.5t-6.5 -80.5t-15 -73.5t-26 -61.5t-40 -51.5t-56 -37t-75.5 -24.5t-97.5 -8q-61 0 -113 8v252q18 -2 50 -2q41 0 54 21t13 77v1106zM408 1194h-314v254h314v-254z" />
    <glyph glyph-name="k" unicode="k" horiz-adv-x="933" 
d="M403 1448v-817q155 346 205 446h338q-84 -150 -235 -397q11 -33 122 -335t125 -345h-350q-3 23 -56.5 222.5t-55.5 213.5q-73 -117 -93 -145v-291h-311v1448h311z" />
    <glyph glyph-name="l" unicode="l" horiz-adv-x="497" 
d="M406 0h-314v1448h314v-1448z" />
    <glyph glyph-name="m" unicode="m" horiz-adv-x="1468" 
d="M94 0v743q0 244 -4 334h297q10 -45 10 -98q81 117 232 117q160 0 215 -131q89 131 262 131q129 0 199.5 -82t70.5 -244v-770h-305v733q0 113 -84 113q-53 0 -74.5 -37.5t-21.5 -118.5v-690h-309v731q0 115 -84 115q-52 0 -74.5 -37.5t-22.5 -122.5v-686h-307z" />
    <glyph glyph-name="n" unicode="n" horiz-adv-x="997" 
d="M92 0v739q0 283 -2 338h301q8 -46 8 -98q77 117 236 117q135 0 202.5 -82.5t67.5 -239.5v-774h-313v717q0 67 -18 98t-70 31q-53 0 -75.5 -34t-22.5 -122v-690h-314z" />
    <glyph glyph-name="o" unicode="o" horiz-adv-x="962" 
d="M487 1096q200 0 310 -132.5t110 -412.5q0 -157 -30 -269t-87.5 -177.5t-134 -95t-178.5 -29.5q-99 0 -173.5 29t-132 93t-87 175.5t-29.5 267.5q0 149 32.5 257.5t92 171.5t135.5 92.5t172 29.5zM483 852q-63 0 -86.5 -66t-23.5 -239q0 -179 23 -251.5t89 -72.5
q61 0 83 73t22 251q0 177 -22.5 241t-84.5 64z" />
    <glyph glyph-name="p" unicode="p" horiz-adv-x="991" 
d="M406 -371h-314v1137q0 245 -2 311h299q8 -58 8 -110q74 129 236 129q149 0 227 -130t78 -411q0 -158 -23 -270t-68 -178.5t-105.5 -96.5t-141.5 -30q-68 0 -118.5 26t-75.5 74v-451zM621 547q0 122 -12.5 188t-35.5 88.5t-65 22.5q-65 0 -87 -64t-22 -231
q0 -190 19.5 -256t87.5 -66q60 0 87.5 70.5t27.5 247.5z" />
    <glyph glyph-name="q" unicode="q" horiz-adv-x="993" 
d="M592 -371v467q-64 -114 -225 -114q-70 0 -124 27t-97.5 87.5t-67 171.5t-23.5 267q0 283 87.5 422t248.5 139q156 0 203 -111q0 60 8 92h301q0 -29 -1 -135.5t-1 -198.5v-1114h-309zM375 526q0 -162 25.5 -230.5t84.5 -68.5q68 0 87.5 63t19.5 242q0 198 -16.5 256
t-83.5 58q-41 0 -65 -25t-38 -96.5t-14 -198.5z" />
    <glyph glyph-name="r" unicode="r" horiz-adv-x="692" 
d="M92 0v711q0 292 -2 366h299q6 -75 6 -174q28 90 99 141.5t176 51.5v-340q-143 3 -203.5 -46.5t-60.5 -187.5v-522h-314z" />
    <glyph glyph-name="s" unicode="s" horiz-adv-x="870" 
d="M37 334h295q0 -57 24.5 -94t79.5 -37q88 0 88 88q0 47 -29.5 75t-115.5 60q-185 68 -252.5 143t-67.5 205q0 64 20.5 119.5t62.5 102t115.5 73.5t170.5 27q90 0 159.5 -22.5t109 -56.5t64.5 -81t33.5 -89t8.5 -87h-283q0 123 -90 123q-36 0 -56 -21t-20 -57q0 -43 32 -69
t124 -60q173 -63 245 -141.5t72 -206.5q0 -167 -98.5 -256.5t-298.5 -89.5q-106 0 -184.5 29t-122.5 80t-64.5 111.5t-21.5 131.5z" />
    <glyph glyph-name="t" unicode="t" horiz-adv-x="610" 
d="M-2 829v248h129v254h309v-254h148v-248h-148v-514q0 -46 16 -66t66 -20q31 0 49 2v-223q-58 -22 -174 -22q-151 0 -210.5 62t-59.5 212v569h-125z" />
    <glyph glyph-name="u" unicode="u" horiz-adv-x="993" 
d="M901 1077v-739q0 -285 2 -338h-297q-6 26 -12 109q-40 -69 -97 -98t-143 -29q-127 0 -195.5 74.5t-68.5 244.5v776h313v-717q0 -68 17.5 -98.5t64.5 -30.5q55 0 79 36.5t24 127.5v682h313z" />
    <glyph glyph-name="v" unicode="v" horiz-adv-x="907" 
d="M4 1077h336q88 -502 117 -770h8q6 64 21.5 164.5t27 166t41 228.5t37.5 211h311l-270 -1077h-367z" />
    <glyph glyph-name="w" unicode="w" horiz-adv-x="1370" 
d="M8 1077h334q62 -447 88 -749h8q11 102 117 749h285q99 -601 112 -749h6q1 14 8 78t13 119t16 140.5t24.5 191t31.5 220.5h313l-248 -1077h-325q-84 499 -103 643h-6q-5 -40 -13 -92.5t-21.5 -124t-24.5 -126t-30.5 -152t-29.5 -148.5h-325z" />
    <glyph glyph-name="x" unicode="x" horiz-adv-x="839" 
d="M-27 1077h342q53 -141 107 -323h8q43 150 109 323h329l-258 -504l258 -573h-342q-50 140 -106 336h-6q-28 -114 -113 -336h-332l246 537z" />
    <glyph glyph-name="y" unicode="y" horiz-adv-x="903" 
d="M-4 1077h342q6 -33 25.5 -132t27.5 -143t23 -125.5t22.5 -127t15 -97.5t9.5 -85h6q29 207 123 710h315q-13 -51 -134.5 -510.5t-147.5 -556.5q-34 -127 -69 -204t-83.5 -119.5t-103.5 -57t-140 -14.5q-64 0 -129 10v248q36 -4 76 -4q63 0 92 26.5t41 94.5z" />
    <glyph glyph-name="z" unicode="z" horiz-adv-x="806" 
d="M33 0v213q144 224 379 612h-351v252h707v-221q-351 -584 -365 -606h375l-30 -250h-715z" />
    <glyph glyph-name="braceleft" unicode="{" horiz-adv-x="673" 
d="M47 469v244q60 0 96.5 9t54.5 31t23.5 47.5t5.5 69.5l-6 250q0 97 24.5 165t70.5 104t101 51.5t128 15.5h76v-213h-35q-65 0 -87 -28t-22 -103l6 -233q2 -122 -41.5 -191.5t-140.5 -89.5q100 -20 142 -87t40 -192l-6 -241q0 -75 24 -105.5t89 -31.5h31v-211h-78
q-72 0 -126 14t-100.5 49t-71 102.5t-24.5 165.5l6 250q0 38 -3.5 61t-13.5 44t-30 31t-52 16t-81 6z" />
    <glyph glyph-name="bar" unicode="|" horiz-adv-x="466" 
d="M117 1602h235v-2137h-235v2137z" />
    <glyph glyph-name="braceright" unicode="}" horiz-adv-x="673" 
d="M625 717v-244q-59 0 -95.5 -9.5t-54.5 -31.5t-23.5 -48t-5.5 -69l7 -249q0 -97 -24.5 -165t-70.5 -104t-101 -51.5t-128 -15.5h-78v211h35q66 1 88.5 29.5t22.5 103.5l-9 233q0 122 43.5 191.5t141.5 89.5q-101 20 -143 86.5t-42 191.5l9 242q0 74 -24.5 105t-88.5 32
h-33v211h80q56 0 101 -8t87.5 -30.5t71 -59t45.5 -96t17 -138.5l-7 -250q0 -63 11 -93.5t50 -47t118 -16.5z" />
    <glyph glyph-name="asciitilde" unicode="~" horiz-adv-x="1085" 
d="M326 350h-213v86q-1 137 59 198.5t158 61.5q56 0 119.5 -20t109 -44.5t91 -44.5t69.5 -20q23 0 33 15t10 63v37h211v-80q0 -81 -17 -137t-48.5 -83.5t-64.5 -38.5t-75 -11q-54 0 -118 21.5t-110.5 47t-94 47t-72.5 21.5q-47 0 -47 -72v-47z" />
    <glyph glyph-name="uni00A0" unicode="&#xa0;" horiz-adv-x="350" 
 />
    <glyph glyph-name="exclamdown" unicode="&#xa1;" horiz-adv-x="528" 
d="M98 561h271l34 -649v-229h-337v227zM80 1077h311v-352h-311v352z" />
    <glyph glyph-name="cent" unicode="&#xa2;" horiz-adv-x="940" 
d="M596 512h285q-3 -50 -10.5 -92t-27.5 -89t-50.5 -81.5t-81 -62.5t-117.5 -40v-139h-205v139q-163 27 -238 158t-75 369q0 456 313 516v115h205v-113q66 -11 117 -37.5t82.5 -60.5t51.5 -79t27.5 -88t8.5 -91h-287q-2 73 -24.5 110t-73.5 37q-62 0 -86.5 -69.5
t-24.5 -235.5q0 -183 24 -249.5t89 -66.5q98 0 98 150z" />
    <glyph glyph-name="sterling" unicode="&#xa3;" horiz-adv-x="962" 
d="M868 0h-807v231q123 53 123 273q0 46 -2 69h-139v203h123q-8 110 -8 178q0 202 96 306t278 104q96 0 167 -28.5t112.5 -80.5t60.5 -118t17 -146h-271q0 75 -18.5 104t-60.5 29q-43 0 -61.5 -34t-18.5 -109q0 -32 14 -205h219v-203h-209q-6 -224 -84 -319h506z" />
    <glyph glyph-name="currency" unicode="&#xa4;" horiz-adv-x="954" 
d="M475 1061q96 0 172 -43l117 119l162 -172l-129 -127q28 -73 28 -164q0 -103 -28 -185l129 -129l-164 -174l-117 121q-77 -45 -180 -45q-95 0 -168 43l-119 -119l-164 174l129 129q-28 79 -28 179q0 91 28 170l-129 127l160 172l121 -121q79 45 180 45zM469 854
q-115 0 -115 -186q0 -106 30 -150.5t85 -44.5q58 0 85.5 43t27.5 154q0 184 -113 184z" />
    <glyph glyph-name="yen" unicode="&#xa5;" horiz-adv-x="890" 
d="M784 279h-194v-279h-309v279h-193v178h193v78h-193v176h164l-277 632h340q94 -283 127 -458h9q25 131 124 458h326l-283 -632h166v-176h-194v-78h194v-178z" />
    <glyph glyph-name="brokenbar" unicode="&#xa6;" horiz-adv-x="460" 
d="M117 369h227v-738h-227v738zM117 1421h227v-735h-227v735z" />
    <glyph glyph-name="section" unicode="&#xa7;" horiz-adv-x="946" 
d="M840 1073h-258q-4 53 -25 86t-76 33q-46 0 -70 -22.5t-24 -63.5t38.5 -73t156.5 -95q163 -89 232 -180t69 -230q0 -181 -125 -290q69 -82 69 -207q0 -168 -101 -255t-277 -87q-195 0 -289 90.5t-99 238.5h277q3 -55 30 -87.5t78 -32.5q103 0 103 94q0 40 -13 65t-56 57.5
t-136 82.5q-164 87 -230.5 174t-66.5 219q0 94 37.5 169.5t101.5 125.5q-69 78 -69 194q0 142 92 233t268 91q96 0 168 -26.5t113.5 -73.5t61.5 -104.5t20 -125.5zM303 635q0 -56 29.5 -93t103.5 -81q109 -66 142 -82q40 45 40 119q0 57 -24.5 95t-93.5 79q-109 66 -142 88
q-55 -52 -55 -125z" />
    <glyph glyph-name="dieresis" unicode="&#xa8;" 
d="M358 1190h-254v258h254v-258zM715 1190h-252v258h252v-258z" />
    <glyph glyph-name="copyright" unicode="&#xa9;" horiz-adv-x="1316" 
d="M733 586h205q-3 -41 -12.5 -77t-30 -71.5t-50.5 -61t-77 -41.5t-106 -16q-283 0 -283 365q0 177 69.5 275t215.5 98q73 0 128 -23.5t85 -63.5t44 -84.5t15 -94.5h-201q-2 50 -16 76t-53 26q-41 0 -59.5 -44.5t-18.5 -152.5q0 -116 16.5 -164.5t57.5 -48.5q64 0 71 103z
M659 1362q120 0 224.5 -42.5t185.5 -124t127.5 -213.5t46.5 -300q0 -169 -46.5 -300.5t-127.5 -212t-185 -122t-225 -41.5q-125 0 -230.5 42t-186.5 123.5t-126.5 212t-45.5 298.5q0 163 45 293t125 214t187 128.5t232 44.5zM657 1227q-208 0 -325 -135t-117 -408
q0 -130 34 -234.5t93.5 -172t140 -103t174.5 -35.5q203 0 323 137.5t120 403.5t-123 406.5t-320 140.5z" />
    <glyph glyph-name="ordfeminine" unicode="&#xaa;" horiz-adv-x="649" 
d="M588 1057v-277q0 -114 6 -184h-193q-2 7 -10 61q-31 -39 -69.5 -56t-98.5 -17q-87 0 -139.5 60t-52.5 153q0 215 293 215h47v43q0 75 -52 75q-30 0 -42.5 -16.5t-14.5 -50.5h-203q1 41 13.5 75t41 65.5t82.5 49t130 17.5q262 0 262 -213zM373 850v31h-35q-88 0 -88 -70
q0 -63 57 -63q34 0 50 23.5t16 78.5z" />
    <glyph glyph-name="guillemotleft" unicode="&#xab;" horiz-adv-x="962" 
d="M516 909l-217 -370l217 -367h-233l-222 367l222 370h233zM901 909l-217 -370l217 -367h-233l-222 367l222 370h233z" />
    <glyph glyph-name="logicalnot" unicode="&#xac;" horiz-adv-x="1085" 
d="M84 723h899v-578h-231v351h-668v227z" />
    <glyph glyph-name="uni00AD" unicode="&#xad;" horiz-adv-x="579" 
d="M59 664h461v-248h-461v248z" />
    <glyph glyph-name="registered" unicode="&#xae;" horiz-adv-x="587" 
d="M274 1001h-79v256h122q44 0 75.5 -17.5t31.5 -59.5q0 -45 -43 -62q21 -8 27 -25t6 -44q0 -32 4 -48h-82q-4 6 -4 50q0 22 -7.5 30.5t-27.5 8.5h-23v-89zM281 1198v-49h26q29 0 29 25q0 24 -31 24h-24zM301 1403q120 0 197 -78t77 -201q0 -128 -76.5 -205t-197.5 -77
q-116 0 -193 79t-77 203q0 120 75.5 199.5t194.5 79.5zM299 1335q-86 0 -139.5 -58t-53.5 -155q0 -89 55.5 -151t137.5 -62q97 0 149 57t52 158q0 92 -55 151.5t-146 59.5z" />
    <glyph glyph-name="macron" unicode="&#xaf;" 
d="M137 1421h543v-215h-543v215z" />
    <glyph glyph-name="degree" unicode="&#xb0;" horiz-adv-x="622" 
d="M311 1364q120 0 193.5 -72.5t73.5 -189.5q0 -124 -78 -194t-191 -70q-118 0 -190 70t-72 190q0 121 74 193.5t190 72.5zM311 1223q-49 0 -75.5 -33t-26.5 -92q0 -53 27.5 -86t72.5 -33q49 0 76 33t27 88t-25 89t-76 34z" />
    <glyph glyph-name="plusminus" unicode="&#xb1;" horiz-adv-x="1114" 
d="M444 1159h226v-309h346v-223h-346v-310h-226v310h-348v223h348v309zM1016 0h-918v223h918v-223z" />
    <glyph glyph-name="two.sups" unicode="&#xb2;" horiz-adv-x="649" 
d="M590 862h-539v21q0 122 47.5 203.5t163.5 170.5q62 48 84.5 76.5t22.5 52.5q0 66 -54 66q-32 0 -45 -24t-18 -74h-205q1 53 15.5 98t45.5 84t88 61.5t134 22.5q136 0 203 -67t67 -171q0 -71 -35.5 -115.5t-120.5 -107.5q-104 -81 -122 -117h296z" />
    <glyph glyph-name="three.sups" unicode="&#xb3;" horiz-adv-x="655" 
d="M248 1176v155h49q39 0 56.5 15.5t17.5 50.5q0 61 -56 61q-33 0 -45 -20.5t-16 -53.5h-203q2 30 9 58t25.5 62t47.5 58.5t79.5 41t115.5 16.5q137 0 200.5 -58.5t63.5 -148.5q0 -62 -32 -99t-73 -50q19 -6 38 -16.5t41.5 -30t36 -53.5t13.5 -77q0 -106 -72 -170.5
t-220 -64.5q-80 0 -137.5 21.5t-88 59t-45 77t-16.5 86.5h217q4 -82 70 -82q65 0 65 80q0 44 -23 63t-73 19h-45z" />
    <glyph glyph-name="acute" unicode="&#xb4;" 
d="M438 1456h342l-274 -276h-258z" />
    <glyph glyph-name="uni00B5" unicode="&#xb5;" horiz-adv-x="993" 
d="M436 -18q-36 0 -59 20q0 -12 2.5 -85.5t5.5 -151t6 -130.5l-305 -6q0 51 2 336t2 354v758h311v-710q0 -70 19.5 -103t71.5 -33q45 0 70.5 33.5t25.5 124.5v688h313v-739q0 -310 2 -338h-295q-8 19 -14 96q-29 -60 -67 -87t-91 -27z" />
    <glyph glyph-name="paragraph" unicode="&#xb6;" horiz-adv-x="980" 
d="M858 -279h-211v553h-137q-152 0 -249 49t-149.5 164.5t-52.5 305.5q0 268 110.5 385.5t322.5 117.5h157q4 77 19 117h194q-4 -86 -4 -137v-1555zM610 496h37v591h-41q-42 0 -64.5 -20t-35 -83.5t-12.5 -186.5q0 -180 23.5 -240.5t92.5 -60.5z" />
    <glyph glyph-name="periodcentered" unicode="&#xb7;" horiz-adv-x="444" 
d="M377 410h-309v360h309v-360z" />
    <glyph glyph-name="cedilla" unicode="&#xb8;" 
d="M348 10h184l-43 -63q148 -51 148 -174q0 -88 -64 -139.5t-176 -51.5q-113 0 -184 35l43 150q40 -21 96 -21q49 0 49 33q0 45 -118 59v64z" />
    <glyph glyph-name="one.sups" unicode="&#xb9;" horiz-adv-x="438" 
d="M356 862h-225v520q-55 0 -90 7v161q105 8 156 66h159v-754z" />
    <glyph glyph-name="ordmasculine" unicode="&#xba;" horiz-adv-x="659" 
d="M334 1270q137 0 209.5 -87.5t72.5 -250.5q0 -348 -288 -348q-140 0 -213.5 88.5t-73.5 257.5q0 166 76 253t217 87zM330 1106q-37 0 -52.5 -40.5t-15.5 -131.5q0 -105 15.5 -145.5t52.5 -40.5q39 0 54 39t15 149q0 95 -15 132.5t-54 37.5z" />
    <glyph glyph-name="guillemotright" unicode="&#xbb;" horiz-adv-x="962" 
d="M444 172l218 369l-218 368h234l221 -368l-221 -369h-234zM59 172l217 369l-215 368h232l221 -368l-221 -369h-234z" />
    <glyph glyph-name="onequarter" unicode="&#xbc;" horiz-adv-x="1335" 
d="M336 0h-168l698 1346h168zM379 596h-225v520q-61 0 -91 6v162q105 8 156 66h160v-754zM1182 0h-211v166h-303v164l225 420h289v-418h86l-17 -166h-69v-166zM864 332h107v61q0 78 4 176q-41 -100 -111 -237z" />
    <glyph glyph-name="onehalf" unicode="&#xbd;" horiz-adv-x="1382" 
d="M330 0h-168l698 1346h168zM373 596h-226v520q-60 0 -90 6v162q105 8 156 66h160v-754zM1288 0h-538v20q0 122 48 204.5t163 170.5q62 48 84 76.5t22 52.5q0 66 -53 66q-32 0 -45.5 -24t-18.5 -74h-205q1 53 15.5 98t45.5 84t88 61.5t134 22.5q136 0 203 -67t67 -171
q0 -50 -21.5 -90.5t-49 -65.5t-84.5 -67q-58 -46 -85 -70.5t-38 -46.5h297z" />
    <glyph glyph-name="threequarters" unicode="&#xbe;" horiz-adv-x="1499" 
d="M522 0h-168l699 1346h168zM1354 0h-211v166h-303v164l225 420h289v-418h86l-17 -166h-69v-166zM1036 332h107v61q0 78 4 176q-41 -100 -111 -237zM264 909v156h49q39 0 56.5 15t17.5 50q0 62 -55 62q-33 0 -45.5 -20.5t-16.5 -53.5h-202q2 30 8.5 58t25.5 62t47.5 58.5
t79 41t115.5 16.5q137 0 200.5 -58.5t63.5 -148.5q0 -62 -32 -99.5t-72 -50.5q19 -6 38 -16t41.5 -29.5t36 -53.5t13.5 -77q0 -106 -72.5 -170.5t-220.5 -64.5q-80 0 -137.5 21.5t-88 58.5t-45 76.5t-16.5 86.5h217q4 -81 70 -81t66 79q0 44 -23.5 63t-73.5 19h-45z" />
    <glyph glyph-name="questiondown" unicode="&#xbf;" horiz-adv-x="866" 
d="M35 20q0 103 31 173.5t116 183.5q49 65 68.5 116t19.5 109v25h312v-47q0 -96 -33.5 -174.5t-114.5 -180.5q-47 -62 -67.5 -110t-20.5 -105q0 -58 19 -85t61 -27q49 0 69 39t23 118h281q-2 -81 -22 -147t-63.5 -120.5t-120.5 -84.5t-183 -29q-105 1 -180.5 28.5
t-116.5 77.5t-59.5 108.5t-18.5 131.5zM270 1077h312v-356h-312v356z" />
    <glyph glyph-name="Agrave" unicode="&#xc0;" horiz-adv-x="1015" 
d="M627 297h-252l-47 -297h-318l273 1382h446l277 -1382h-330zM416 563h170q-45 276 -80 555h-10q-19 -178 -80 -555zM82 1708h369l213 -240h-287z" />
    <glyph glyph-name="Aacute" unicode="&#xc1;" horiz-adv-x="1015" 
d="M627 297h-252l-47 -297h-318l273 1382h446l277 -1382h-330zM416 563h170q-45 276 -80 555h-10q-19 -178 -80 -555zM567 1708h365l-295 -240h-285z" />
    <glyph glyph-name="Acircumflex" unicode="&#xc2;" horiz-adv-x="1015" 
d="M627 297h-252l-47 -297h-318l273 1382h446l277 -1382h-330zM416 563h170q-45 276 -80 555h-10q-19 -178 -80 -555zM342 1708h336l186 -238h-274l-82 107l-80 -107h-278z" />
    <glyph glyph-name="Atilde" unicode="&#xc3;" horiz-adv-x="1015" 
d="M627 297h-252l-47 -297h-318l273 1382h446l277 -1382h-330zM416 563h170q-45 276 -80 555h-10q-19 -178 -80 -555zM365 1468h-185v56q0 211 178 211q62 0 151 -32t109 -32q37 0 37 45v19h181v-43q0 -131 -47 -180.5t-132 -49.5q-57 0 -146.5 32t-111.5 32q-34 0 -34 -37
v-21z" />
    <glyph glyph-name="Adieresis" unicode="&#xc4;" horiz-adv-x="1015" 
d="M627 297h-252l-47 -297h-318l273 1382h446l277 -1382h-330zM416 563h170q-45 276 -80 555h-10q-19 -178 -80 -555zM453 1477h-250v254h250v-254zM813 1477h-250v254h250v-254z" />
    <glyph glyph-name="Aring" unicode="&#xc5;" horiz-adv-x="1015" 
d="M627 297h-252l-47 -297h-318l273 1382h446l277 -1382h-330zM416 563h170q-45 276 -80 555h-10q-19 -178 -80 -555zM510 1442q-101 0 -160 54.5t-59 139.5q0 86 58 141.5t159 55.5t160 -53.5t59 -141.5q0 -89 -60 -142.5t-157 -53.5zM508 1565q38 0 58 20t20 51
q0 32 -19.5 54t-56.5 22q-39 0 -58.5 -22t-19.5 -54q0 -29 19.5 -50t56.5 -21z" />
    <glyph glyph-name="AE" unicode="&#xc6;" horiz-adv-x="1439" 
d="M424 1382h946v-262h-430v-278h412v-260h-412v-322h467l-37 -260h-737v344h-242l-115 -344h-323zM473 610h160v535h-8q-22 -74 -73.5 -258.5t-78.5 -276.5z" />
    <glyph glyph-name="Ccedilla" unicode="&#xc7;" horiz-adv-x="1017" 
d="M653 434h318q-1 -33 -4.5 -65t-14 -75.5t-26.5 -81.5t-43.5 -78t-63.5 -70t-89.5 -53t-117.5 -31l-22 -33q147 -51 147 -174q0 -88 -63.5 -139.5t-175.5 -51.5q-114 0 -185 35l43 150q40 -21 97 -21q49 0 49 33q0 44 -119 59v64l47 80q-87 13 -151.5 53.5t-104.5 100
t-64 148.5t-33 185.5t-9 224.5q0 370 117 541.5t358 171.5q105 0 185 -31.5t124.5 -77.5t72 -110t36.5 -116.5t10 -110.5h-318q-1 25 -1.5 36t-3 36t-6.5 38.5t-12.5 32.5t-20 28.5t-29.5 17t-41 7.5q-81 0 -109.5 -102t-28.5 -363q0 -248 26 -359.5t108 -111.5q23 0 41 8
t29.5 19t20.5 31t13.5 35t7.5 41.5t4 39.5t2 39z" />
    <glyph glyph-name="Egrave" unicode="&#xc8;" horiz-adv-x="923" 
d="M836 846v-260h-420v-330h475l-37 -256h-750v1382h750v-260h-438v-276h420zM61 1708h369l213 -240h-287z" />
    <glyph glyph-name="Eacute" unicode="&#xc9;" horiz-adv-x="923" 
d="M836 846v-260h-420v-330h475l-37 -256h-750v1382h750v-260h-438v-276h420zM520 1708h365l-295 -240h-285z" />
    <glyph glyph-name="Ecircumflex" unicode="&#xca;" horiz-adv-x="923" 
d="M836 846v-260h-420v-330h475l-37 -256h-750v1382h750v-260h-438v-276h420zM307 1704h336l186 -238h-274l-82 107l-80 -107h-278z" />
    <glyph glyph-name="Edieresis" unicode="&#xcb;" horiz-adv-x="923" 
d="M836 846v-260h-420v-330h475l-37 -256h-750v1382h750v-260h-438v-276h420zM418 1477h-250v254h250v-254zM778 1477h-250v254h250v-254z" />
    <glyph glyph-name="Igrave" unicode="&#xcc;" horiz-adv-x="528" 
d="M104 1382h318v-1382h-318v1382zM-162 1716h369l213 -239h-287z" />
    <glyph glyph-name="Iacute" unicode="&#xcd;" horiz-adv-x="528" 
d="M104 1382h318v-1382h-318v1382zM324 1708h364l-295 -240h-284z" />
    <glyph glyph-name="Icircumflex" unicode="&#xce;" horiz-adv-x="528" 
d="M104 1382h318v-1382h-318v1382zM98 1700h336l187 -238h-275l-82 107l-80 -107h-278z" />
    <glyph glyph-name="Idieresis" unicode="&#xcf;" horiz-adv-x="528" 
d="M104 1382h318v-1382h-318v1382zM209 1477h-250v254h250v-254zM569 1477h-250v254h250v-254z" />
    <glyph glyph-name="Eth" unicode="&#xd0;" horiz-adv-x="1095" 
d="M14 831h111v551h395q268 0 388 -158.5t120 -504.5q0 -374 -121 -546.5t-399 -172.5h-383v592h-111v239zM444 1139v-308h154v-239h-154v-350h60q75 0 115 42.5t57.5 144.5t17.5 294q0 240 -38.5 328t-149.5 88h-62z" />
    <glyph glyph-name="Ntilde" unicode="&#xd1;" horiz-adv-x="1097" 
d="M387 0h-283v1382h349q248 -764 272 -870h6q-18 224 -18 616v254h280v-1382h-342q-254 835 -274 918h-6q16 -266 16 -648v-270zM406 1483h-185v55q0 211 178 211q61 0 151 -31.5t109 -31.5q37 0 37 45v18h181v-43q0 -131 -47 -180t-132 -49q-57 0 -146.5 31.5t-111.5 31.5
q-34 0 -34 -37v-20z" />
    <glyph glyph-name="Ograve" unicode="&#xd2;" horiz-adv-x="1079" 
d="M543 1409q243 0 356 -173t113 -536q0 -383 -112.5 -555t-369.5 -172q-241 0 -351.5 175.5t-110.5 558.5q0 365 117 533.5t358 168.5zM539 1157q-80 0 -110 -101t-30 -349q0 -263 30 -373.5t110 -110.5q84 0 112.5 106t28.5 378q0 255 -28.5 352.5t-112.5 97.5zM121 1722
h368l213 -239h-286z" />
    <glyph glyph-name="Oacute" unicode="&#xd3;" horiz-adv-x="1079" 
d="M543 1409q243 0 356 -173t113 -536q0 -383 -112.5 -555t-369.5 -172q-241 0 -351.5 175.5t-110.5 558.5q0 365 117 533.5t358 168.5zM539 1157q-80 0 -110 -101t-30 -349q0 -263 30 -373.5t110 -110.5q84 0 112.5 106t28.5 378q0 255 -28.5 352.5t-112.5 97.5zM580 1722
h364l-295 -239h-284z" />
    <glyph glyph-name="Ocircumflex" unicode="&#xd4;" horiz-adv-x="1079" 
d="M543 1409q243 0 356 -173t113 -536q0 -383 -112.5 -555t-369.5 -172q-241 0 -351.5 175.5t-110.5 558.5q0 365 117 533.5t358 168.5zM539 1157q-80 0 -110 -101t-30 -349q0 -263 30 -373.5t110 -110.5q84 0 112.5 106t28.5 378q0 255 -28.5 352.5t-112.5 97.5zM367 1714
h335l187 -237h-275l-82 106l-79 -106h-279z" />
    <glyph glyph-name="Otilde" unicode="&#xd5;" horiz-adv-x="1079" 
d="M543 1409q243 0 356 -173t113 -536q0 -383 -112.5 -555t-369.5 -172q-241 0 -351.5 175.5t-110.5 558.5q0 365 117 533.5t358 168.5zM539 1157q-80 0 -110 -101t-30 -349q0 -263 30 -373.5t110 -110.5q84 0 112.5 106t28.5 378q0 255 -28.5 352.5t-112.5 97.5zM389 1483
h-184v55q0 211 178 211q61 0 151 -31.5t109 -31.5q37 0 37 45v18h180v-43q0 -131 -46.5 -180t-131.5 -49q-57 0 -146.5 31.5t-111.5 31.5q-35 0 -35 -37v-20z" />
    <glyph glyph-name="Odieresis" unicode="&#xd6;" horiz-adv-x="1079" 
d="M543 1409q243 0 356 -173t113 -536q0 -383 -112.5 -555t-369.5 -172q-241 0 -351.5 175.5t-110.5 558.5q0 365 117 533.5t358 168.5zM539 1157q-80 0 -110 -101t-30 -349q0 -263 30 -373.5t110 -110.5q84 0 112.5 106t28.5 378q0 255 -28.5 352.5t-112.5 97.5zM477 1491
h-250v254h250v-254zM838 1491h-250v254h250v-254z" />
    <glyph glyph-name="multiply" unicode="&#xd7;" horiz-adv-x="1112" 
d="M1012 195l-146 -154l-309 315l-305 -315l-152 154l310 315l-310 315l148 150l309 -316l309 316l146 -150l-307 -317z" />
    <glyph glyph-name="Oslash" unicode="&#xd8;" horiz-adv-x="1079" 
d="M543 1407q141 0 239 -59l19 38h139l-61 -124q133 -172 133 -562q0 -207 -31 -349t-95 -224t-149.5 -117t-206.5 -35q-156 0 -256 70l-24 -47h-135l69 141q-116 172 -116 568q0 159 22.5 280t62.5 200t100.5 129t131 70.5t158.5 20.5zM387 707q0 -107 2 -152l264 532
q-18 39 -45 55.5t-69 16.5q-86 0 -119 -101.5t-33 -350.5zM539 221q88 0 120.5 110t32.5 376q0 76 -4 174l-272 -547q19 -61 48 -87t75 -26z" />
    <glyph glyph-name="Ugrave" unicode="&#xd9;" horiz-adv-x="1083" 
d="M92 1382h320v-966q0 -193 131 -193q39 0 65.5 15t39 43t17.5 59t5 74v968h319v-958q0 -451 -454 -451q-232 0 -337.5 115.5t-105.5 337.5v956zM129 1708h369l213 -240h-287z" />
    <glyph glyph-name="Uacute" unicode="&#xda;" horiz-adv-x="1083" 
d="M92 1382h320v-966q0 -193 131 -193q39 0 65.5 15t39 43t17.5 59t5 74v968h319v-958q0 -451 -454 -451q-232 0 -337.5 115.5t-105.5 337.5v956zM588 1722h364l-295 -239h-284z" />
    <glyph glyph-name="Ucircumflex" unicode="&#xdb;" horiz-adv-x="1083" 
d="M92 1382h320v-966q0 -193 131 -193q39 0 65.5 15t39 43t17.5 59t5 74v968h319v-958q0 -451 -454 -451q-232 0 -337.5 115.5t-105.5 337.5v956zM375 1714h336l186 -237h-274l-82 106l-80 -106h-279z" />
    <glyph glyph-name="Udieresis" unicode="&#xdc;" horiz-adv-x="1083" 
d="M92 1382h320v-966q0 -193 131 -193q39 0 65.5 15t39 43t17.5 59t5 74v968h319v-958q0 -451 -454 -451q-232 0 -337.5 115.5t-105.5 337.5v956zM485 1491h-249v254h249v-254zM846 1491h-250v254h250v-254z" />
    <glyph glyph-name="Yacute" unicode="&#xdd;" horiz-adv-x="946" 
d="M631 0h-318v449q0 35 -12 63l-324 870h351q113 -415 155 -618q21 90 80.5 318.5t77.5 299.5h328l-328 -872q-10 -27 -10 -55v-455zM520 1708h365l-295 -240h-285z" />
    <glyph glyph-name="Thorn" unicode="&#xde;" horiz-adv-x="1015" 
d="M106 0v1382h316v-260h162q191 0 290 -105.5t99 -301.5q0 -208 -104.5 -319t-313.5 -111h-133v-285h-316zM424 885v-355h80q83 0 119 40.5t36 138.5q0 94 -35.5 135t-111.5 41h-88z" />
    <glyph glyph-name="germandbls" unicode="&#xdf;" horiz-adv-x="1062" 
d="M530 1464q98 0 174.5 -21.5t124.5 -57t78.5 -86t43 -104.5t12.5 -116v-75l-181 -199v-6l62 -70q92 -98 133 -182t41 -189q0 -168 -88.5 -272t-276.5 -104q-56 0 -110.5 10.5t-83.5 27.5v252q65 -49 153 -49q99 0 99 101q0 44 -20 82t-77 96l-59 63q-84 87 -87 166t75 176
l114 140q0 98 -26.5 141t-100.5 43q-67 0 -95.5 -42t-28.5 -140v-1049h-314v1059q0 114 30.5 194t90 125.5t137 65.5t180.5 20z" />
    <glyph glyph-name="agrave" unicode="&#xe0;" horiz-adv-x="954" 
d="M860 772v-506q0 -54 8 -266h-282q-9 34 -13 94q-77 -112 -239 -112q-137 0 -212 93t-75 238q0 174 110.5 264.5t309.5 90.5q66 0 86 -2v104q0 53 -16 81t-68 28q-50 0 -67.5 -29t-20.5 -94h-293q7 340 393 340q379 0 379 -324zM557 418v51q-18 2 -59 2q-142 0 -142 -131
q0 -50 22.5 -82.5t70.5 -32.5q65 0 86.5 46.5t21.5 146.5zM100 1456h346l187 -276h-256z" />
    <glyph glyph-name="aacute" unicode="&#xe1;" horiz-adv-x="954" 
d="M860 772v-506q0 -54 8 -266h-282q-9 34 -13 94q-77 -112 -239 -112q-137 0 -212 93t-75 238q0 174 110.5 264.5t309.5 90.5q66 0 86 -2v104q0 53 -16 81t-68 28q-50 0 -67.5 -29t-20.5 -94h-293q7 340 393 340q379 0 379 -324zM557 418v51q-18 2 -59 2q-142 0 -142 -131
q0 -50 22.5 -82.5t70.5 -32.5q65 0 86.5 46.5t21.5 146.5zM508 1456h342l-275 -276h-258z" />
    <glyph glyph-name="acircumflex" unicode="&#xe2;" horiz-adv-x="954" 
d="M860 772v-506q0 -54 8 -266h-282q-9 34 -13 94q-77 -112 -239 -112q-137 0 -212 93t-75 238q0 174 110.5 264.5t309.5 90.5q66 0 86 -2v104q0 53 -16 81t-68 28q-50 0 -67.5 -29t-20.5 -94h-293q7 340 393 340q379 0 379 -324zM557 418v51q-18 2 -59 2q-142 0 -142 -131
q0 -50 22.5 -82.5t70.5 -32.5q65 0 86.5 46.5t21.5 146.5zM319 1446h324l176 -272h-262l-80 126l-74 -126h-264z" />
    <glyph glyph-name="atilde" unicode="&#xe3;" horiz-adv-x="954" 
d="M860 772v-506q0 -54 8 -266h-282q-9 34 -13 94q-77 -112 -239 -112q-137 0 -212 93t-75 238q0 174 110.5 264.5t309.5 90.5q66 0 86 -2v104q0 53 -16 81t-68 28q-50 0 -67.5 -29t-20.5 -94h-293q7 340 393 340q379 0 379 -324zM557 418v51q-18 2 -59 2q-142 0 -142 -131
q0 -50 22.5 -82.5t70.5 -32.5q65 0 86.5 46.5t21.5 146.5zM354 1180h-190v63q0 115 47 161t127 46q48 0 96 -18.5t84.5 -37t56.5 -18.5q31 0 31 54v18h187v-53q0 -68 -14 -113.5t-40.5 -68t-54.5 -31t-66 -8.5q-57 0 -134 35.5t-99 35.5q-31 0 -31 -43v-22z" />
    <glyph glyph-name="adieresis" unicode="&#xe4;" horiz-adv-x="954" 
d="M860 772v-506q0 -54 8 -266h-282q-9 34 -13 94q-77 -112 -239 -112q-137 0 -212 93t-75 238q0 174 110.5 264.5t309.5 90.5q66 0 86 -2v104q0 53 -16 81t-68 28q-50 0 -67.5 -29t-20.5 -94h-293q7 340 393 340q379 0 379 -324zM557 418v51q-18 2 -59 2q-142 0 -142 -131
q0 -50 22.5 -82.5t70.5 -32.5q65 0 86.5 46.5t21.5 146.5zM428 1190h-254v258h254v-258zM784 1190h-252v258h252v-258z" />
    <glyph glyph-name="aring" unicode="&#xe5;" horiz-adv-x="954" 
d="M860 772v-506q0 -54 8 -266h-282q-9 34 -13 94q-77 -112 -239 -112q-137 0 -212 93t-75 238q0 174 110.5 264.5t309.5 90.5q66 0 86 -2v104q0 53 -16 81t-68 28q-50 0 -67.5 -29t-20.5 -94h-293q7 340 393 340q379 0 379 -324zM557 418v51q-18 2 -59 2q-142 0 -142 -131
q0 -50 22.5 -82.5t70.5 -32.5q65 0 86.5 46.5t21.5 146.5zM481 1149q-101 0 -160 54.5t-59 139.5q0 86 58 141.5t159 55.5t160 -53.5t59 -140.5q0 -89 -60 -143t-157 -54zM479 1272q38 0 58 20t20 51q0 32 -19.5 54t-56.5 22q-39 0 -58.5 -22t-19.5 -54q0 -29 19.5 -50
t56.5 -21z" />
    <glyph glyph-name="ae" unicode="&#xe6;" horiz-adv-x="1431" 
d="M1067 348h305q-1 -24 -4.5 -49t-14.5 -63t-28 -70.5t-48.5 -67.5t-72.5 -59.5t-103 -40.5t-138 -16q-120 0 -193.5 33t-120.5 94q-63 -65 -130.5 -96t-168.5 -31q-147 0 -225 89t-78 246q0 170 113 260.5t344 90.5h53v92q0 62 -17.5 90.5t-70.5 28.5q-52 0 -71 -32
t-19 -93h-297q2 159 95 250.5t286 91.5q188 0 264 -82q93 79 258 82q111 1 189.5 -34.5t122 -102t62.5 -147.5t19 -185q0 -18 -1 -82t-1 -78h-518q0 -141 22.5 -195.5t82.5 -54.5q96 0 104 131zM561 406v63h-43q-162 0 -162 -125q0 -119 93 -119q44 0 69.5 26t34 63.5
t8.5 91.5zM860 666h207q0 106 -20.5 151t-81.5 45q-58 0 -81.5 -47.5t-23.5 -148.5z" />
    <glyph glyph-name="ccedilla" unicode="&#xe7;" horiz-adv-x="905" 
d="M567 383h297q-1 -48 -8 -90.5t-27.5 -95t-53 -92.5t-89.5 -72.5t-133 -44.5l-25 -37q148 -51 148 -174q0 -88 -64 -139.5t-176 -51.5q-113 0 -184 35l43 150q41 -21 96 -21q49 0 49 33q0 45 -118 59v64l49 82q-74 12 -130 46.5t-91 83.5t-56.5 118t-30 143.5t-8.5 167.5
q0 126 24 224.5t73.5 172.5t132 113t194.5 39q100 0 174.5 -30.5t113.5 -73t62.5 -101.5t29.5 -100t7 -86h-307q-1 30 -2 47.5t-6 41.5t-13.5 36.5t-24 22t-38.5 9.5q-57 0 -79.5 -68.5t-22.5 -246.5q0 -185 21 -257.5t79 -72.5q29 0 48 12.5t28.5 39t12.5 50.5t5 64z" />
    <glyph glyph-name="egrave" unicode="&#xe8;" horiz-adv-x="942" 
d="M885 463h-518q0 -58 4 -98t15 -77t34.5 -55t58.5 -18q98 0 103 123h299q-2 -23 -5 -43.5t-14 -59t-27.5 -70t-48 -67.5t-72 -60.5t-103 -41t-138.5 -16.5q-75 0 -136 16.5t-104 44.5t-75 70.5t-51.5 89t-31.5 106.5t-16 116t-4 124q0 271 107.5 410t316.5 139
q93 0 164 -25.5t117.5 -69.5t75.5 -110t41 -141t12 -168q0 -95 -4 -119zM371 662h209q0 38 -1 62t-7 53.5t-16.5 46t-30.5 28.5t-48 12q-35 0 -57.5 -16.5t-32.5 -48.5t-13 -62t-3 -75zM100 1456h346l187 -276h-256z" />
    <glyph glyph-name="eacute" unicode="&#xe9;" horiz-adv-x="942" 
d="M885 463h-518q0 -58 4 -98t15 -77t34.5 -55t58.5 -18q98 0 103 123h299q-2 -23 -5 -43.5t-14 -59t-27.5 -70t-48 -67.5t-72 -60.5t-103 -41t-138.5 -16.5q-75 0 -136 16.5t-104 44.5t-75 70.5t-51.5 89t-31.5 106.5t-16 116t-4 124q0 271 107.5 410t316.5 139
q93 0 164 -25.5t117.5 -69.5t75.5 -110t41 -141t12 -168q0 -95 -4 -119zM371 662h209q0 38 -1 62t-7 53.5t-16.5 46t-30.5 28.5t-48 12q-35 0 -57.5 -16.5t-32.5 -48.5t-13 -62t-3 -75zM498 1456h342l-275 -276h-258z" />
    <glyph glyph-name="ecircumflex" unicode="&#xea;" horiz-adv-x="942" 
d="M885 463h-518q0 -58 4 -98t15 -77t34.5 -55t58.5 -18q98 0 103 123h299q-2 -23 -5 -43.5t-14 -59t-27.5 -70t-48 -67.5t-72 -60.5t-103 -41t-138.5 -16.5q-75 0 -136 16.5t-104 44.5t-75 70.5t-51.5 89t-31.5 106.5t-16 116t-4 124q0 271 107.5 410t316.5 139
q93 0 164 -25.5t117.5 -69.5t75.5 -110t41 -141t12 -168q0 -95 -4 -119zM371 662h209q0 38 -1 62t-7 53.5t-16.5 46t-30.5 28.5t-48 12q-35 0 -57.5 -16.5t-32.5 -48.5t-13 -62t-3 -75zM309 1446h324l176 -272h-262l-80 126l-74 -126h-264z" />
    <glyph glyph-name="edieresis" unicode="&#xeb;" horiz-adv-x="942" 
d="M885 463h-518q0 -58 4 -98t15 -77t34.5 -55t58.5 -18q98 0 103 123h299q-2 -23 -5 -43.5t-14 -59t-27.5 -70t-48 -67.5t-72 -60.5t-103 -41t-138.5 -16.5q-75 0 -136 16.5t-104 44.5t-75 70.5t-51.5 89t-31.5 106.5t-16 116t-4 124q0 271 107.5 410t316.5 139
q93 0 164 -25.5t117.5 -69.5t75.5 -110t41 -141t12 -168q0 -95 -4 -119zM371 662h209q0 38 -1 62t-7 53.5t-16.5 46t-30.5 28.5t-48 12q-35 0 -57.5 -16.5t-32.5 -48.5t-13 -62t-3 -75zM418 1190h-254v258h254v-258zM774 1190h-252v258h252v-258z" />
    <glyph glyph-name="igrave" unicode="&#xec;" horiz-adv-x="499" 
d="M92 0v1077h314v-1077h-314zM-133 1456h346l186 -276h-256z" />
    <glyph glyph-name="iacute" unicode="&#xed;" horiz-adv-x="499" 
d="M92 0v1077h314v-1077h-314zM291 1456h342l-275 -276h-258z" />
    <glyph glyph-name="icircumflex" unicode="&#xee;" horiz-adv-x="499" 
d="M92 0v1077h314v-1077h-314zM88 1446h324l176 -272h-262l-80 126l-74 -126h-264z" />
    <glyph glyph-name="idieresis" unicode="&#xef;" horiz-adv-x="499" 
d="M92 0v1077h314v-1077h-314zM197 1190h-254v258h254v-258zM553 1190h-252v258h252v-258z" />
    <glyph glyph-name="eth" unicode="&#xf0;" horiz-adv-x="962" 
d="M145 1239v227q270 0 439 -100l174 115l57 -111l-129 -84q215 -212 215 -713q0 -216 -48.5 -347t-140.5 -187.5t-237 -56.5q-214 0 -317 127.5t-103 384.5q0 245 104 370t306 125q57 0 80 -10q-14 88 -88 156l-197 -131l-61 108l141 92q-85 32 -195 35zM479 758
q-60 0 -84 -56.5t-24 -203.5q0 -145 24 -211t86 -66q60 0 83.5 59.5t23.5 219.5q0 155 -22 206.5t-87 51.5z" />
    <glyph glyph-name="ntilde" unicode="&#xf1;" horiz-adv-x="997" 
d="M92 0v739q0 283 -2 338h301q8 -46 8 -98q77 117 236 117q135 0 202.5 -82.5t67.5 -239.5v-774h-313v717q0 67 -18 98t-70 31q-53 0 -75.5 -34t-22.5 -122v-690h-314zM375 1188h-191v63q0 115 47 161t127 46q48 0 96.5 -18.5t85 -37t56.5 -18.5q31 0 31 54v18h186v-53
q0 -68 -14 -113.5t-40 -68t-54 -31t-66 -8.5q-57 0 -134 35.5t-99 35.5q-31 0 -31 -43v-22z" />
    <glyph glyph-name="ograve" unicode="&#xf2;" horiz-adv-x="962" 
d="M487 1096q200 0 310 -132.5t110 -412.5q0 -157 -30 -269t-87.5 -177.5t-134 -95t-178.5 -29.5q-99 0 -173.5 29t-132 93t-87 175.5t-29.5 267.5q0 149 32.5 257.5t92 171.5t135.5 92.5t172 29.5zM483 852q-63 0 -86.5 -66t-23.5 -239q0 -179 23 -251.5t89 -72.5
q61 0 83 73t22 251q0 177 -22.5 241t-84.5 64zM96 1462h346l187 -276h-256z" />
    <glyph glyph-name="oacute" unicode="&#xf3;" horiz-adv-x="962" 
d="M487 1096q200 0 310 -132.5t110 -412.5q0 -157 -30 -269t-87.5 -177.5t-134 -95t-178.5 -29.5q-99 0 -173.5 29t-132 93t-87 175.5t-29.5 267.5q0 149 32.5 257.5t92 171.5t135.5 92.5t172 29.5zM483 852q-63 0 -86.5 -66t-23.5 -239q0 -179 23 -251.5t89 -72.5
q61 0 83 73t22 251q0 177 -22.5 241t-84.5 64zM516 1470h342l-274 -276h-258z" />
    <glyph glyph-name="ocircumflex" unicode="&#xf4;" horiz-adv-x="962" 
d="M487 1096q200 0 310 -132.5t110 -412.5q0 -157 -30 -269t-87.5 -177.5t-134 -95t-178.5 -29.5q-99 0 -173.5 29t-132 93t-87 175.5t-29.5 267.5q0 149 32.5 257.5t92 171.5t135.5 92.5t172 29.5zM483 852q-63 0 -86.5 -66t-23.5 -239q0 -179 23 -251.5t89 -72.5
q61 0 83 73t22 251q0 177 -22.5 241t-84.5 64zM319 1446h324l176 -272h-262l-80 126l-74 -126h-264z" />
    <glyph glyph-name="otilde" unicode="&#xf5;" horiz-adv-x="962" 
d="M487 1096q200 0 310 -132.5t110 -412.5q0 -157 -30 -269t-87.5 -177.5t-134 -95t-178.5 -29.5q-99 0 -173.5 29t-132 93t-87 175.5t-29.5 267.5q0 149 32.5 257.5t92 171.5t135.5 92.5t172 29.5zM483 852q-63 0 -86.5 -66t-23.5 -239q0 -179 23 -251.5t89 -72.5
q61 0 83 73t22 251q0 177 -22.5 241t-84.5 64zM354 1180h-190v63q0 115 47 161t127 46q48 0 96 -18.5t84.5 -37t56.5 -18.5q31 0 31 54v18h187v-53q0 -68 -14 -113.5t-40.5 -68t-54.5 -31t-66 -8.5q-57 0 -134 35.5t-99 35.5q-31 0 -31 -43v-22z" />
    <glyph glyph-name="odieresis" unicode="&#xf6;" horiz-adv-x="962" 
d="M487 1096q200 0 310 -132.5t110 -412.5q0 -157 -30 -269t-87.5 -177.5t-134 -95t-178.5 -29.5q-99 0 -173.5 29t-132 93t-87 175.5t-29.5 267.5q0 149 32.5 257.5t92 171.5t135.5 92.5t172 29.5zM483 852q-63 0 -86.5 -66t-23.5 -239q0 -179 23 -251.5t89 -72.5
q61 0 83 73t22 251q0 177 -22.5 241t-84.5 64zM428 1190h-254v258h254v-258zM784 1190h-252v258h252v-258z" />
    <glyph glyph-name="divide" unicode="&#xf7;" horiz-adv-x="1112" 
d="M678 37h-240v239h240v-239zM1014 395h-920v228h920v-228zM678 739h-240v246h240v-246z" />
    <glyph glyph-name="oslash" unicode="&#xf8;" horiz-adv-x="962" 
d="M487 1096q136 0 230 -58l24 41h121l-65 -112q110 -134 110 -422q0 -161 -29.5 -273t-88 -175t-134 -90t-178.5 -27q-140 0 -233 55l-27 -45h-117l66 112q-111 140 -111 443q0 551 432 551zM483 856q-43 0 -69 -27t-40 -96.5t-14 -189.5q0 -76 2 -107l213 363
q-24 57 -92 57zM485 217q45 0 69.5 29t36 100.5t11.5 204.5q0 61 -2 86l-209 -354q24 -66 94 -66z" />
    <glyph glyph-name="ugrave" unicode="&#xf9;" horiz-adv-x="993" 
d="M901 1077v-739q0 -285 2 -338h-297q-6 26 -12 109q-40 -69 -97 -98t-143 -29q-127 0 -195.5 74.5t-68.5 244.5v776h313v-717q0 -68 17.5 -98.5t64.5 -30.5q55 0 79 36.5t24 127.5v682h313zM111 1456h346l186 -276h-256z" />
    <glyph glyph-name="uacute" unicode="&#xfa;" horiz-adv-x="993" 
d="M901 1077v-739q0 -285 2 -338h-297q-6 26 -12 109q-40 -69 -97 -98t-143 -29q-127 0 -195.5 74.5t-68.5 244.5v776h313v-717q0 -68 17.5 -98.5t64.5 -30.5q55 0 79 36.5t24 127.5v682h313zM532 1456h342l-274 -276h-258z" />
    <glyph glyph-name="ucircumflex" unicode="&#xfb;" horiz-adv-x="993" 
d="M901 1077v-739q0 -285 2 -338h-297q-6 26 -12 109q-40 -69 -97 -98t-143 -29q-127 0 -195.5 74.5t-68.5 244.5v776h313v-717q0 -68 17.5 -98.5t64.5 -30.5q55 0 79 36.5t24 127.5v682h313zM336 1446h323l177 -272h-263l-79 126l-74 -126h-264z" />
    <glyph glyph-name="udieresis" unicode="&#xfc;" horiz-adv-x="993" 
d="M901 1077v-739q0 -285 2 -338h-297q-6 26 -12 109q-40 -69 -97 -98t-143 -29q-127 0 -195.5 74.5t-68.5 244.5v776h313v-717q0 -68 17.5 -98.5t64.5 -30.5q55 0 79 36.5t24 127.5v682h313zM444 1190h-254v258h254v-258zM801 1190h-252v258h252v-258z" />
    <glyph glyph-name="yacute" unicode="&#xfd;" horiz-adv-x="903" 
d="M-4 1077h342q6 -33 25.5 -132t27.5 -143t23 -125.5t22.5 -127t15 -97.5t9.5 -85h6q29 207 123 710h315q-13 -51 -134.5 -510.5t-147.5 -556.5q-34 -127 -69 -204t-83.5 -119.5t-103.5 -57t-140 -14.5q-64 0 -129 10v248q36 -4 76 -4q63 0 92 26.5t41 94.5zM479 1456h342
l-274 -276h-258z" />
    <glyph glyph-name="thorn" unicode="&#xfe;" horiz-adv-x="991" 
d="M406 -371h-314v1819h314v-473q29 56 81 88.5t148 32.5q303 0 303 -543q0 -573 -336 -573q-144 0 -196 100v-451zM621 539q0 130 -13 198t-35.5 88.5t-64.5 20.5q-64 0 -86.5 -68.5t-22.5 -228.5q0 -176 21.5 -248t85.5 -72q61 0 88 71.5t27 238.5z" />
    <glyph glyph-name="ydieresis" unicode="&#xff;" horiz-adv-x="903" 
d="M-4 1077h342q6 -33 25.5 -132t27.5 -143t23 -125.5t22.5 -127t15 -97.5t9.5 -85h6q29 207 123 710h315q-13 -51 -134.5 -510.5t-147.5 -556.5q-34 -127 -69 -204t-83.5 -119.5t-103.5 -57t-140 -14.5q-64 0 -129 10v248q36 -4 76 -4q63 0 92 26.5t41 94.5zM399 1190h-254
v258h254v-258zM756 1190h-252v258h252v-258z" />
    <glyph glyph-name="Amacron" unicode="&#x100;" horiz-adv-x="1015" 
d="M627 297h-252l-47 -297h-318l273 1382h446l277 -1382h-330zM416 563h170q-45 276 -80 555h-10q-19 -178 -80 -555zM227 1696h561v-209h-561v209z" />
    <glyph glyph-name="amacron" unicode="&#x101;" horiz-adv-x="954" 
d="M860 772v-506q0 -54 8 -266h-282q-9 34 -13 94q-77 -112 -239 -112q-137 0 -212 93t-75 238q0 174 110.5 264.5t309.5 90.5q66 0 86 -2v104q0 53 -16 81t-68 28q-50 0 -67.5 -29t-20.5 -94h-293q7 340 393 340q379 0 379 -324zM557 418v51q-18 2 -59 2q-142 0 -142 -131
q0 -50 22.5 -82.5t70.5 -32.5q65 0 86.5 46.5t21.5 146.5zM207 1421h543v-215h-543v215z" />
    <glyph glyph-name="Abreve" unicode="&#x102;" horiz-adv-x="1015" 
d="M627 297h-252l-47 -297h-318l273 1382h446l277 -1382h-330zM416 563h170q-45 276 -80 555h-10q-19 -178 -80 -555zM193 1735h215q6 -36 32.5 -60t69.5 -24q86 0 98 84h215q-7 -52 -27 -96.5t-55.5 -85t-96.5 -64t-140 -23.5t-139 23.5t-95.5 63t-54 85.5t-22.5 97z" />
    <glyph glyph-name="abreve" unicode="&#x103;" horiz-adv-x="954" 
d="M860 772v-506q0 -54 8 -266h-282q-9 34 -13 94q-77 -112 -239 -112q-137 0 -212 93t-75 238q0 174 110.5 264.5t309.5 90.5q66 0 86 -2v104q0 53 -16 81t-68 28q-50 0 -67.5 -29t-20.5 -94h-293q7 340 393 340q379 0 379 -324zM557 418v51q-18 2 -59 2q-142 0 -142 -131
q0 -50 22.5 -82.5t70.5 -32.5q65 0 86.5 46.5t21.5 146.5zM172 1440h221q15 -80 86 -80q43 0 61 21t25 59h219q-6 -52 -24.5 -97.5t-53 -86.5t-94 -65t-137.5 -24q-76 0 -135.5 24t-93.5 64.5t-52.5 87t-21.5 97.5z" />
    <glyph glyph-name="Aogonek" unicode="&#x104;" horiz-adv-x="1015" 
d="M627 297h-252l-47 -297h-318l273 1382h446l277 -1382h-15q-71 -64 -71 -125q0 -31 20.5 -50.5t56.5 -19.5q23 0 64 9l16 -187q-62 -37 -190 -37q-115 0 -178.5 55.5t-63.5 151.5q0 113 90 203h-59zM416 563h170q-45 276 -80 555h-10q-19 -178 -80 -555z" />
    <glyph glyph-name="aogonek" unicode="&#x105;" horiz-adv-x="954" 
d="M860 772v-506q0 -54 8 -266h-6q-71 -64 -71 -125q0 -31 20.5 -50.5t56.5 -19.5q23 0 64 9l16 -187q-62 -37 -190 -37q-115 0 -178.5 55.5t-63.5 151.5q0 113 90 203h-20q-9 34 -13 94q-77 -112 -239 -112q-137 0 -212 93t-75 238q0 174 110.5 264.5t309.5 90.5
q66 0 86 -2v104q0 53 -16 81t-68 28q-50 0 -67.5 -29t-20.5 -94h-293q7 340 393 340q379 0 379 -324zM557 418v51q-18 2 -59 2q-142 0 -142 -131q0 -50 22.5 -82.5t70.5 -32.5q65 0 86.5 46.5t21.5 146.5z" />
    <glyph glyph-name="Cacute" unicode="&#x106;" horiz-adv-x="1017" 
d="M653 434h318q-1 -36 -5.5 -71t-17 -82.5t-31.5 -88.5t-53 -82.5t-78.5 -70.5t-110.5 -47.5t-145 -18.5q-113 0 -195 33.5t-133 92t-81.5 152t-41.5 198t-11 245.5q0 370 117 541.5t358 171.5q105 0 185 -31.5t124.5 -77.5t72 -110t36.5 -116.5t10 -110.5h-318
q-1 25 -1.5 36t-3 36t-6.5 38.5t-12.5 32.5t-20 28.5t-29.5 17t-41 7.5q-81 0 -109.5 -102t-28.5 -363q0 -248 26 -359.5t108 -111.5q23 0 41 8t29.5 19t20.5 31t13.5 35t7.5 41.5t4 39.5t2 39zM553 1722h365l-295 -239h-285z" />
    <glyph glyph-name="cacute" unicode="&#x107;" horiz-adv-x="905" 
d="M567 383h297q-1 -53 -9.5 -100.5t-35 -105.5t-68 -98.5t-116.5 -68.5t-174 -28q-97 0 -169 28.5t-117 76.5t-72 122t-37.5 154.5t-10.5 183.5q0 126 24 224.5t73.5 172.5t132 113t194.5 39q100 0 174.5 -30.5t113.5 -73t62.5 -101.5t29.5 -100t7 -86h-307q-1 30 -2 47.5
t-6 41.5t-13.5 36.5t-24 22t-38.5 9.5q-57 0 -79.5 -68.5t-22.5 -246.5q0 -185 21 -257.5t79 -72.5q29 0 48 12.5t28.5 39t12.5 50.5t5 64zM496 1456h342l-275 -276h-258z" />
    <glyph glyph-name="Ccircumflex" unicode="&#x108;" horiz-adv-x="1017" 
d="M653 434h318q-1 -36 -5.5 -71t-17 -82.5t-31.5 -88.5t-53 -82.5t-78.5 -70.5t-110.5 -47.5t-145 -18.5q-113 0 -195 33.5t-133 92t-81.5 152t-41.5 198t-11 245.5q0 370 117 541.5t358 171.5q105 0 185 -31.5t124.5 -77.5t72 -110t36.5 -116.5t10 -110.5h-318
q-1 25 -1.5 36t-3 36t-6.5 38.5t-12.5 32.5t-20 28.5t-29.5 17t-41 7.5q-81 0 -109.5 -102t-28.5 -363q0 -248 26 -359.5t108 -111.5q23 0 41 8t29.5 19t20.5 31t13.5 35t7.5 41.5t4 39.5t2 39zM352 1714h336l186 -237h-274l-82 106l-80 -106h-278z" />
    <glyph glyph-name="ccircumflex" unicode="&#x109;" horiz-adv-x="905" 
d="M567 383h297q-1 -53 -9.5 -100.5t-35 -105.5t-68 -98.5t-116.5 -68.5t-174 -28q-97 0 -169 28.5t-117 76.5t-72 122t-37.5 154.5t-10.5 183.5q0 126 24 224.5t73.5 172.5t132 113t194.5 39q100 0 174.5 -30.5t113.5 -73t62.5 -101.5t29.5 -100t7 -86h-307q-1 30 -2 47.5
t-6 41.5t-13.5 36.5t-24 22t-38.5 9.5q-57 0 -79.5 -68.5t-22.5 -246.5q0 -185 21 -257.5t79 -72.5q29 0 48 12.5t28.5 39t12.5 50.5t5 64zM303 1446h324l176 -272h-262l-80 126l-74 -126h-264z" />
    <glyph glyph-name="Cdotaccent" unicode="&#x10a;" horiz-adv-x="1017" 
d="M653 434h318q-1 -36 -5.5 -71t-17 -82.5t-31.5 -88.5t-53 -82.5t-78.5 -70.5t-110.5 -47.5t-145 -18.5q-113 0 -195 33.5t-133 92t-81.5 152t-41.5 198t-11 245.5q0 370 117 541.5t358 171.5q105 0 185 -31.5t124.5 -77.5t72 -110t36.5 -116.5t10 -110.5h-318
q-1 25 -1.5 36t-3 36t-6.5 38.5t-12.5 32.5t-20 28.5t-29.5 17t-41 7.5q-81 0 -109.5 -102t-28.5 -363q0 -248 26 -359.5t108 -111.5q23 0 41 8t29.5 19t20.5 31t13.5 35t7.5 41.5t4 39.5t2 39zM668 1487h-301v260h301v-260z" />
    <glyph glyph-name="cdotaccent" unicode="&#x10b;" horiz-adv-x="905" 
d="M567 383h297q-1 -53 -9.5 -100.5t-35 -105.5t-68 -98.5t-116.5 -68.5t-174 -28q-97 0 -169 28.5t-117 76.5t-72 122t-37.5 154.5t-10.5 183.5q0 126 24 224.5t73.5 172.5t132 113t194.5 39q100 0 174.5 -30.5t113.5 -73t62.5 -101.5t29.5 -100t7 -86h-307q-1 30 -2 47.5
t-6 41.5t-13.5 36.5t-24 22t-38.5 9.5q-57 0 -79.5 -68.5t-22.5 -246.5q0 -185 21 -257.5t79 -72.5q29 0 48 12.5t28.5 39t12.5 50.5t5 64zM629 1190h-316v258h316v-258z" />
    <glyph glyph-name="Ccaron" unicode="&#x10c;" horiz-adv-x="1017" 
d="M653 434h318q-1 -36 -5.5 -71t-17 -82.5t-31.5 -88.5t-53 -82.5t-78.5 -70.5t-110.5 -47.5t-145 -18.5q-113 0 -195 33.5t-133 92t-81.5 152t-41.5 198t-11 245.5q0 370 117 541.5t358 171.5q105 0 185 -31.5t124.5 -77.5t72 -110t36.5 -116.5t10 -110.5h-318
q-1 25 -1.5 36t-3 36t-6.5 38.5t-12.5 32.5t-20 28.5t-29.5 17t-41 7.5q-81 0 -109.5 -102t-28.5 -363q0 -248 26 -359.5t108 -111.5q23 0 41 8t29.5 19t20.5 31t13.5 35t7.5 41.5t4 39.5t2 39zM694 1483h-336l-190 237h276l82 -108l80 108h277z" />
    <glyph glyph-name="ccaron" unicode="&#x10d;" horiz-adv-x="905" 
d="M567 383h297q-1 -53 -9.5 -100.5t-35 -105.5t-68 -98.5t-116.5 -68.5t-174 -28q-97 0 -169 28.5t-117 76.5t-72 122t-37.5 154.5t-10.5 183.5q0 126 24 224.5t73.5 172.5t132 113t194.5 39q100 0 174.5 -30.5t113.5 -73t62.5 -101.5t29.5 -100t7 -86h-307q-1 30 -2 47.5
t-6 41.5t-13.5 36.5t-24 22t-38.5 9.5q-57 0 -79.5 -68.5t-22.5 -246.5q0 -185 21 -257.5t79 -72.5q29 0 48 12.5t28.5 39t12.5 50.5t5 64zM631 1176h-324l-176 270h260l80 -125l76 125h264z" />
    <glyph glyph-name="Dcaron" unicode="&#x10e;" horiz-adv-x="1075" 
d="M104 0v1382h396q268 0 388 -158.5t120 -504.5q0 -374 -121.5 -546.5t-399.5 -172.5h-383zM424 1139v-897h59q75 0 115.5 42.5t58 144.5t17.5 294q0 239 -39 327.5t-150 88.5h-61zM662 1475h-336l-191 237h277l82 -108l79 108h277z" />
    <glyph glyph-name="dcaron" unicode="&#x10f;" horiz-adv-x="1085" 
d="M588 1448h313v-1129q0 -262 2 -319h-299q-4 20 -10 106q-60 -124 -232 -124q-157 0 -232 136t-75 431q0 269 87.5 408t258.5 139q74 0 120.5 -22.5t66.5 -55.5v430zM373 545q0 -180 24 -249t84 -69q68 0 89.5 66t21.5 260q0 179 -18.5 236t-84.5 57q-40 0 -63.5 -22.5
t-38 -90t-14.5 -188.5zM1165 915h-198l-13 533h228z" />
    <glyph glyph-name="Dcroat" unicode="&#x110;" horiz-adv-x="1095" 
d="M14 831h111v551h395q268 0 388 -158.5t120 -504.5q0 -374 -121 -546.5t-399 -172.5h-383v592h-111v239zM444 1139v-308h154v-239h-154v-350h60q75 0 115 42.5t57.5 144.5t17.5 294q0 240 -38.5 328t-149.5 88h-62z" />
    <glyph glyph-name="dcroat" unicode="&#x111;" horiz-adv-x="991" 
d="M575 1448h314v-117h106v-176h-106v-836q0 -262 2 -319h-299q-4 20 -10 106q-32 -64 -84 -94t-142 -30q-152 0 -226.5 135.5t-74.5 417.5q0 255 86.5 387.5t249.5 132.5q74 0 121 -23t63 -59v182h-313v176h313v117zM373 528q0 -170 23 -235.5t81 -65.5q28 0 47 11.5
t30.5 32t17.5 60t8 82.5t2 113q0 53 -1 86t-4.5 68.5t-10 55.5t-17.5 37.5t-28 24.5t-40 7q-56 0 -82 -60.5t-26 -216.5z" />
    <glyph glyph-name="Emacron" unicode="&#x112;" horiz-adv-x="923" 
d="M836 846v-260h-420v-330h475l-37 -256h-750v1382h750v-260h-438v-276h420zM193 1702h561v-209h-561v209z" />
    <glyph glyph-name="emacron" unicode="&#x113;" horiz-adv-x="942" 
d="M885 463h-518q0 -58 4 -98t15 -77t34.5 -55t58.5 -18q98 0 103 123h299q-2 -23 -5 -43.5t-14 -59t-27.5 -70t-48 -67.5t-72 -60.5t-103 -41t-138.5 -16.5q-75 0 -136 16.5t-104 44.5t-75 70.5t-51.5 89t-31.5 106.5t-16 116t-4 124q0 271 107.5 410t316.5 139
q93 0 164 -25.5t117.5 -69.5t75.5 -110t41 -141t12 -168q0 -95 -4 -119zM371 662h209q0 38 -1 62t-7 53.5t-16.5 46t-30.5 28.5t-48 12q-35 0 -57.5 -16.5t-32.5 -48.5t-13 -62t-3 -75zM197 1421h542v-215h-542v215z" />
    <glyph glyph-name="Ebreve" unicode="&#x114;" horiz-adv-x="923" 
d="M836 846v-260h-420v-330h475l-37 -256h-750v1382h750v-260h-438v-276h420zM158 1735h215q6 -36 32.5 -60t69.5 -24q86 0 98 84h215q-7 -52 -27 -96.5t-55.5 -85t-96.5 -64t-140 -23.5t-139 23.5t-95.5 63t-54 85.5t-22.5 97z" />
    <glyph glyph-name="ebreve" unicode="&#x115;" horiz-adv-x="942" 
d="M885 463h-518q0 -58 4 -98t15 -77t34.5 -55t58.5 -18q98 0 103 123h299q-2 -23 -5 -43.5t-14 -59t-27.5 -70t-48 -67.5t-72 -60.5t-103 -41t-138.5 -16.5q-75 0 -136 16.5t-104 44.5t-75 70.5t-51.5 89t-31.5 106.5t-16 116t-4 124q0 271 107.5 410t316.5 139
q93 0 164 -25.5t117.5 -69.5t75.5 -110t41 -141t12 -168q0 -95 -4 -119zM371 662h209q0 38 -1 62t-7 53.5t-16.5 46t-30.5 28.5t-48 12q-35 0 -57.5 -16.5t-32.5 -48.5t-13 -62t-3 -75zM162 1440h221q15 -80 86 -80q43 0 61 21t25 59h219q-6 -52 -24.5 -97.5t-53 -86.5
t-94 -65t-137.5 -24q-76 0 -135.5 24t-93.5 64.5t-52.5 87t-21.5 97.5z" />
    <glyph glyph-name="Edotaccent" unicode="&#x116;" horiz-adv-x="923" 
d="M836 846v-260h-420v-330h475l-37 -256h-750v1382h750v-260h-438v-276h420zM623 1487h-301v260h301v-260z" />
    <glyph glyph-name="edotaccent" unicode="&#x117;" horiz-adv-x="942" 
d="M885 463h-518q0 -58 4 -98t15 -77t34.5 -55t58.5 -18q98 0 103 123h299q-2 -23 -5 -43.5t-14 -59t-27.5 -70t-48 -67.5t-72 -60.5t-103 -41t-138.5 -16.5q-75 0 -136 16.5t-104 44.5t-75 70.5t-51.5 89t-31.5 106.5t-16 116t-4 124q0 271 107.5 410t316.5 139
q93 0 164 -25.5t117.5 -69.5t75.5 -110t41 -141t12 -168q0 -95 -4 -119zM371 662h209q0 38 -1 62t-7 53.5t-16.5 46t-30.5 28.5t-48 12q-35 0 -57.5 -16.5t-32.5 -48.5t-13 -62t-3 -75zM627 1190h-316v258h316v-258z" />
    <glyph glyph-name="Eogonek" unicode="&#x118;" horiz-adv-x="923" 
d="M836 846v-260h-420v-330h475l-37 -256h-63q-72 -65 -72 -125q0 -31 21 -50.5t57 -19.5q23 0 63 9l17 -187q-62 -37 -191 -37q-115 0 -178.5 55.5t-63.5 151.5q0 112 91 203h-431v1382h750v-260h-438v-276h420z" />
    <glyph glyph-name="eogonek" unicode="&#x119;" horiz-adv-x="942" 
d="M885 463h-518q0 -58 4 -98t15 -77t34.5 -55t58.5 -18q98 0 103 123h299q-2 -25 -6 -50.5t-18.5 -69.5t-37 -79.5t-66 -72.5t-100.5 -58q-67 -63 -67 -121q0 -31 21 -50t57 -19q27 0 63 8l16 -186q-62 -37 -190 -37q-115 0 -178.5 55.5t-63.5 151.5q0 97 68 178
q-67 11 -119 38t-87 68.5t-58.5 90t-36.5 110.5t-18 121.5t-5 130.5q0 271 107.5 410t316.5 139q93 0 164 -25.5t117.5 -69.5t75.5 -110t41 -141t12 -168q0 -95 -4 -119zM371 662h209q0 38 -1 62t-7 53.5t-16.5 46t-30.5 28.5t-48 12q-35 0 -57.5 -16.5t-32.5 -48.5t-13 -62
t-3 -75z" />
    <glyph glyph-name="Ecaron" unicode="&#x11a;" horiz-adv-x="923" 
d="M836 846v-260h-420v-330h475l-37 -256h-750v1382h750v-260h-438v-276h420zM641 1475h-336l-190 237h276l82 -108l80 108h276z" />
    <glyph glyph-name="ecaron" unicode="&#x11b;" horiz-adv-x="942" 
d="M885 463h-518q0 -58 4 -98t15 -77t34.5 -55t58.5 -18q98 0 103 123h299q-2 -23 -5 -43.5t-14 -59t-27.5 -70t-48 -67.5t-72 -60.5t-103 -41t-138.5 -16.5q-75 0 -136 16.5t-104 44.5t-75 70.5t-51.5 89t-31.5 106.5t-16 116t-4 124q0 271 107.5 410t316.5 139
q93 0 164 -25.5t117.5 -69.5t75.5 -110t41 -141t12 -168q0 -95 -4 -119zM371 662h209q0 38 -1 62t-7 53.5t-16.5 46t-30.5 28.5t-48 12q-35 0 -57.5 -16.5t-32.5 -48.5t-13 -62t-3 -75zM629 1176h-324l-176 270h260l80 -125l76 125h264z" />
    <glyph glyph-name="Gcircumflex" unicode="&#x11c;" horiz-adv-x="1067" 
d="M987 793v-793h-233q-11 66 -13 109q-76 -136 -272 -136q-207 0 -304 168t-97 541q0 202 33.5 344.5t99 225t153 119t205.5 36.5q80 0 145.5 -18t108.5 -45.5t75.5 -67t49.5 -76.5t28 -80.5t13.5 -71.5t3.5 -57h-317q-2 27 -4 44.5t-9 43t-19 40.5t-33.5 26.5t-51.5 11.5
q-86 0 -117 -111.5t-31 -365.5q0 -257 29 -357t113 -100q69 0 97 57t28 175v88h-136v250h455zM365 1714h335l187 -237h-275l-82 106l-79 -106h-279z" />
    <glyph glyph-name="gcircumflex" unicode="&#x11d;" horiz-adv-x="993" 
d="M901 739v-643q0 -122 -20 -207t-69 -149.5t-135 -95.5t-214 -31q-89 0 -158.5 19t-112.5 49t-71 73t-39.5 86t-13.5 92h307q2 -18 5.5 -29.5t13 -27.5t30.5 -24.5t53 -8.5q67 0 90 51.5t23 169.5v74q-61 -117 -221 -117q-314 0 -314 519q0 277 87 417t249 140
q155 0 201 -107q2 24 12 88h301q-4 -132 -4 -338zM375 545q0 -154 26.5 -217.5t83.5 -63.5q65 0 87 67.5t22 239.5q0 55 -1 86t-4 67.5t-9.5 55t-17.5 36t-28.5 24t-41.5 6.5q-60 0 -88.5 -67.5t-28.5 -233.5zM336 1454h323l177 -272h-263l-79 127l-74 -127h-264z" />
    <glyph glyph-name="Gbreve" unicode="&#x11e;" horiz-adv-x="1067" 
d="M987 793v-793h-233q-11 66 -13 109q-76 -136 -272 -136q-207 0 -304 168t-97 541q0 202 33.5 344.5t99 225t153 119t205.5 36.5q80 0 145.5 -18t108.5 -45.5t75.5 -67t49.5 -76.5t28 -80.5t13.5 -71.5t3.5 -57h-317q-2 27 -4 44.5t-9 43t-19 40.5t-33.5 26.5t-51.5 11.5
q-86 0 -117 -111.5t-31 -365.5q0 -257 29 -357t113 -100q69 0 97 57t28 175v88h-136v250h455zM215 1735h215q6 -36 32.5 -60t69.5 -24q47 0 70.5 24t28.5 60h215q-7 -51 -27 -96t-56 -85.5t-97 -64t-140 -23.5t-139 23.5t-95.5 63t-54 85.5t-22.5 97z" />
    <glyph glyph-name="gbreve" unicode="&#x11f;" horiz-adv-x="993" 
d="M901 739v-643q0 -122 -20 -207t-69 -149.5t-135 -95.5t-214 -31q-89 0 -158.5 19t-112.5 49t-71 73t-39.5 86t-13.5 92h307q2 -18 5.5 -29.5t13 -27.5t30.5 -24.5t53 -8.5q67 0 90 51.5t23 169.5v74q-61 -117 -221 -117q-314 0 -314 519q0 277 87 417t249 140
q155 0 201 -107q2 24 12 88h301q-4 -132 -4 -338zM375 545q0 -154 26.5 -217.5t83.5 -63.5q65 0 87 67.5t22 239.5q0 55 -1 86t-4 67.5t-9.5 55t-17.5 36t-28.5 24t-41.5 6.5q-60 0 -88.5 -67.5t-28.5 -233.5zM188 1440h222q15 -80 86 -80q43 0 61 21t25 59h219
q-6 -52 -24.5 -97.5t-53 -86.5t-94 -65t-137.5 -24q-76 0 -135.5 24t-94 64.5t-53 87t-21.5 97.5z" />
    <glyph glyph-name="Gdotaccent" unicode="&#x120;" horiz-adv-x="1067" 
d="M987 793v-793h-233q-11 66 -13 109q-76 -136 -272 -136q-207 0 -304 168t-97 541q0 202 33.5 344.5t99 225t153 119t205.5 36.5q80 0 145.5 -18t108.5 -45.5t75.5 -67t49.5 -76.5t28 -80.5t13.5 -71.5t3.5 -57h-317q-2 27 -4 44.5t-9 43t-19 40.5t-33.5 26.5t-51.5 11.5
q-86 0 -117 -111.5t-31 -365.5q0 -257 29 -357t113 -100q69 0 97 57t28 175v88h-136v250h455zM680 1487h-301v260h301v-260z" />
    <glyph glyph-name="gdotaccent" unicode="&#x121;" horiz-adv-x="993" 
d="M901 739v-643q0 -122 -20 -207t-69 -149.5t-135 -95.5t-214 -31q-89 0 -158.5 19t-112.5 49t-71 73t-39.5 86t-13.5 92h307q2 -18 5.5 -29.5t13 -27.5t30.5 -24.5t53 -8.5q67 0 90 51.5t23 169.5v74q-61 -117 -221 -117q-314 0 -314 519q0 277 87 417t249 140
q155 0 201 -107q2 24 12 88h301q-4 -132 -4 -338zM375 545q0 -154 26.5 -217.5t83.5 -63.5q65 0 87 67.5t22 239.5q0 55 -1 86t-4 67.5t-9.5 55t-17.5 36t-28.5 24t-41.5 6.5q-60 0 -88.5 -67.5t-28.5 -233.5zM653 1190h-315v258h315v-258z" />
    <glyph glyph-name="uni0122" unicode="&#x122;" horiz-adv-x="1067" 
d="M987 793v-793h-233q-11 66 -13 109q-76 -136 -272 -136q-207 0 -304 168t-97 541q0 202 33.5 344.5t99 225t153 119t205.5 36.5q80 0 145.5 -18t108.5 -45.5t75.5 -67t49.5 -76.5t28 -80.5t13.5 -71.5t3.5 -57h-317q-2 27 -4 44.5t-9 43t-19 40.5t-33.5 26.5t-51.5 11.5
q-86 0 -117 -111.5t-31 -365.5q0 -257 29 -357t113 -100q69 0 97 57t28 175v88h-136v250h455zM578 -451h-267q69 149 88 353h301q-9 -102 -43.5 -199.5t-78.5 -153.5z" />
    <glyph glyph-name="uni0123" unicode="&#x123;" horiz-adv-x="993" 
d="M455 1548h270q-75 -183 -88 -360h-295q4 93 36.5 194t76.5 166zM901 739v-643q0 -122 -20 -207t-69 -149.5t-135 -95.5t-214 -31q-89 0 -158.5 19t-112.5 49t-71 73t-39.5 86t-13.5 92h307q2 -18 5.5 -29.5t13 -27.5t30.5 -24.5t53 -8.5q67 0 90 51.5t23 169.5v74
q-61 -117 -221 -117q-314 0 -314 519q0 277 87 417t249 140q155 0 201 -107q2 24 12 88h301q-4 -132 -4 -338zM375 545q0 -154 26.5 -217.5t83.5 -63.5q65 0 87 67.5t22 239.5q0 55 -1 86t-4 67.5t-9.5 55t-17.5 36t-28.5 24t-41.5 6.5q-60 0 -88.5 -67.5t-28.5 -233.5z" />
    <glyph glyph-name="Hcircumflex" unicode="&#x124;" horiz-adv-x="1085" 
d="M104 0v1382h318v-522h240v522h319v-1382h-319v594h-240v-594h-318zM377 1714h336l186 -237h-274l-82 106l-80 -106h-279z" />
    <glyph glyph-name="hcircumflex" unicode="&#x125;" horiz-adv-x="997" 
d="M88 1737h334l194 -217h-272l-90 96l-88 -96h-279zM92 1448h314v-465q70 113 235 113q264 0 264 -330v-766h-313v713q0 69 -18 101t-72 32q-56 0 -76 -39.5t-20 -126.5v-680h-314v1448z" />
    <glyph glyph-name="Hbar" unicode="&#x126;" horiz-adv-x="1085" 
d="M14 1194h90v188h318v-188h240v188h319v-188h90v-199h-90v-995h-319v586h-240v-586h-318v995h-90v199zM422 852h240v143h-240v-143z" />
    <glyph glyph-name="hbar" unicode="&#x127;" horiz-adv-x="997" 
d="M92 1448h314v-117h307v-176h-307v-213q70 113 233 113q135 0 200.5 -85.5t65.5 -244.5v-725h-313v672q0 69 -18 101t-72 32q-56 0 -76 -39.5t-20 -126.5v-639h-314v1155h-112v176h112v117z" />
    <glyph glyph-name="Itilde" unicode="&#x128;" horiz-adv-x="528" 
d="M104 1382h318v-1382h-318v1382zM121 1483h-184v55q0 211 178 211q61 0 151 -31.5t109 -31.5q37 0 37 45v18h180v-43q0 -131 -46.5 -180t-131.5 -49q-57 0 -146.5 31.5t-111.5 31.5q-35 0 -35 -37v-20z" />
    <glyph glyph-name="itilde" unicode="&#x129;" horiz-adv-x="499" 
d="M92 0v1077h314v-1077h-314zM123 1180h-191v63q0 115 47 161t127 46q48 0 96.5 -18.5t85 -37t56.5 -18.5q31 0 31 54v18h186v-53q0 -68 -14 -113.5t-40 -68t-54 -31t-66 -8.5q-57 0 -134 35.5t-99 35.5q-31 0 -31 -43v-22z" />
    <glyph glyph-name="Imacron" unicode="&#x12a;" horiz-adv-x="528" 
d="M104 1382h318v-1382h-318v1382zM-16 1702h561v-209h-561v209z" />
    <glyph glyph-name="imacron" unicode="&#x12b;" horiz-adv-x="499" 
d="M92 0v1077h314v-1077h-314zM-25 1421h543v-215h-543v215z" />
    <glyph glyph-name="Iogonek" unicode="&#x12e;" horiz-adv-x="528" 
d="M104 1382h318v-1382h-27q-71 -64 -71 -125q0 -31 20.5 -50.5t56.5 -19.5q23 0 64 9l16 -187q-62 -37 -190 -37q-115 0 -178.5 55.5t-63.5 151.5q0 113 90 203h-35v1382z" />
    <glyph glyph-name="iogonek" unicode="&#x12f;" horiz-adv-x="499" 
d="M92 0v1077h314v-1077h-21q-72 -65 -72 -125q0 -31 21 -50.5t57 -19.5q23 0 64 9l16 -187q-62 -37 -190 -37q-115 0 -178.5 55.5t-63.5 151.5q0 113 90 203h-37zM406 1194h-312v254h312v-254z" />
    <glyph glyph-name="Idotaccent" unicode="&#x130;" horiz-adv-x="528" 
d="M104 1382h318v-1382h-318v1382zM414 1487h-301v260h301v-260z" />
    <glyph glyph-name="dotlessi" unicode="&#x131;" horiz-adv-x="499" 
d="M92 0v1077h314v-1077h-314z" />
    <glyph glyph-name="Jcircumflex" unicode="&#x134;" horiz-adv-x="624" 
d="M532 1382v-991q0 -83 -8 -142.5t-31 -113t-62.5 -86t-104 -51t-154.5 -18.5q-83 0 -145 12v250q69 -6 79 -6q68 0 88.5 27t20.5 97v1022h317zM207 1712h336l186 -237h-274l-82 106l-80 -106h-279z" />
    <glyph glyph-name="jcircumflex" unicode="&#x135;" horiz-adv-x="501" 
d="M94 1077h314v-1036q0 -59 -2 -101.5t-9.5 -90t-21 -79.5t-37 -63.5t-57 -50t-81.5 -30t-110 -11.5q-61 0 -113 8v252q18 -2 50 -2q41 0 54 21t13 77v1106zM90 1446h324l176 -272h-262l-80 126l-74 -126h-264z" />
    <glyph glyph-name="uni0136" unicode="&#x136;" horiz-adv-x="1032" 
d="M104 0v1382h310v-575q18 37 79.5 164.5t113.5 234.5t89 176h353l-314 -540l320 -842h-346l-197 567l-98 -147v-420h-310zM588 -434h-266q69 149 88 352h301q-9 -101 -44 -198.5t-79 -153.5z" />
    <glyph glyph-name="uni0137" unicode="&#x137;" horiz-adv-x="933" 
d="M403 1448v-817q155 346 205 446h338q-84 -150 -235 -397q11 -33 122 -335t125 -345h-350q-3 23 -56.5 222.5t-55.5 213.5q-73 -117 -93 -145v-291h-311v1448h311zM545 -436h-266q69 149 88 352h301q-9 -101 -44 -198.5t-79 -153.5z" />
    <glyph glyph-name="kgreenlandic" unicode="&#x138;" horiz-adv-x="933" 
d="M403 1077v-442q79 192 205 442h338q-83 -151 -235 -399q175 -476 247 -678h-350q-94 365 -112 438q-61 -97 -93 -143v-295h-311v1077h311z" />
    <glyph glyph-name="Lacute" unicode="&#x139;" horiz-adv-x="874" 
d="M104 0v1382h318v-1124h438l-29 -258h-727zM328 1714h364l-295 -239h-284z" />
    <glyph glyph-name="lacute" unicode="&#x13a;" horiz-adv-x="497" 
d="M297 1755h344l-242 -223h-313zM406 0h-314v1448h314v-1448z" />
    <glyph glyph-name="uni013B" unicode="&#x13b;" horiz-adv-x="874" 
d="M104 0v1382h318v-1124h438l-29 -258h-727zM510 -451h-266q69 149 88 353h301q-9 -101 -44 -199t-79 -154z" />
    <glyph glyph-name="uni013C" unicode="&#x13c;" horiz-adv-x="497" 
d="M406 0h-314v1448h314v-1448zM276 -451h-266q69 149 88 353h301q-9 -101 -44 -199t-79 -154z" />
    <glyph glyph-name="Lcaron" unicode="&#x13d;" horiz-adv-x="874" 
d="M104 0v1382h318v-1124h438l-29 -258h-727zM778 850h-198l-13 532h228z" />
    <glyph glyph-name="lcaron" unicode="&#x13e;" horiz-adv-x="612" 
d="M406 0h-314v1448h314v-1448zM686 918h-199l-12 532h227z" />
    <glyph glyph-name="Ldot" unicode="&#x13f;" horiz-adv-x="874" 
d="M795 602h-265v305h265v-305zM104 0v1382h318v-1124h438l-29 -258h-727z" />
    <glyph glyph-name="ldot" unicode="&#x140;" horiz-adv-x="681" 
d="M713 688h-252v318h252v-318zM406 0h-314v1448h314v-1448z" />
    <glyph glyph-name="Lslash" unicode="&#x141;" horiz-adv-x="894" 
d="M649 788l-207 -106v-424h439l-29 -258h-727v520l-123 -63v211l123 63v651h317v-489l207 104v-209z" />
    <glyph glyph-name="lslash" unicode="&#x142;" horiz-adv-x="520" 
d="M422 0h-313v643l-95 -53v207l95 53v598h313v-420l110 64v-205l-110 -64v-823z" />
    <glyph glyph-name="Nacute" unicode="&#x143;" horiz-adv-x="1097" 
d="M387 0h-283v1382h349q248 -764 272 -870h6q-18 224 -18 616v254h280v-1382h-342q-254 835 -274 918h-6q16 -266 16 -648v-270zM596 1722h365l-295 -239h-285z" />
    <glyph glyph-name="nacute" unicode="&#x144;" horiz-adv-x="997" 
d="M92 0v739q0 283 -2 338h301q8 -46 8 -98q77 117 236 117q135 0 202.5 -82.5t67.5 -239.5v-774h-313v717q0 67 -18 98t-70 31q-53 0 -75.5 -34t-22.5 -122v-690h-314zM528 1456h342l-274 -276h-258z" />
    <glyph glyph-name="uni0145" unicode="&#x145;" horiz-adv-x="1097" 
d="M387 0h-283v1382h349q248 -764 272 -870h6q-18 224 -18 616v254h280v-1382h-342q-254 835 -274 918h-6q16 -266 16 -648v-270zM584 -442h-267q70 152 89 352h301q-9 -101 -44 -198.5t-79 -153.5z" />
    <glyph glyph-name="uni0146" unicode="&#x146;" horiz-adv-x="997" 
d="M92 0v739q0 283 -2 338h301q8 -46 8 -98q77 117 236 117q135 0 202.5 -82.5t67.5 -239.5v-774h-313v717q0 67 -18 98t-70 31q-53 0 -75.5 -34t-22.5 -122v-690h-314zM530 -442h-266q69 149 88 352h301q-9 -101 -44 -198.5t-79 -153.5z" />
    <glyph glyph-name="Ncaron" unicode="&#x147;" horiz-adv-x="1097" 
d="M387 0h-283v1382h349q248 -764 272 -870h6q-18 224 -18 616v254h280v-1382h-342q-254 835 -274 918h-6q16 -266 16 -648v-270zM717 1475h-336l-191 237h277l82 -108l80 108h276z" />
    <glyph glyph-name="ncaron" unicode="&#x148;" horiz-adv-x="997" 
d="M92 0v739q0 283 -2 338h301q8 -46 8 -98q77 117 236 117q135 0 202.5 -82.5t67.5 -239.5v-774h-313v717q0 67 -18 98t-70 31q-53 0 -75.5 -34t-22.5 -122v-690h-314zM659 1176h-323l-176 270h260l80 -125l75 125h265z" />
    <glyph glyph-name="napostrophe" unicode="&#x149;" horiz-adv-x="997" 
d="M229 1165h-231q73 182 90 404h260q-3 -92 -37.5 -209t-81.5 -195zM92 0v739q0 283 -2 338h301q8 -46 8 -98q77 117 236 117q135 0 202.5 -82.5t67.5 -239.5v-774h-313v717q0 67 -18 98t-70 31q-53 0 -75.5 -34t-22.5 -122v-690h-314z" />
    <glyph glyph-name="Omacron" unicode="&#x14c;" horiz-adv-x="1079" 
d="M543 1409q243 0 356 -173t113 -536q0 -383 -112.5 -555t-369.5 -172q-241 0 -351.5 175.5t-110.5 558.5q0 365 117 533.5t358 168.5zM539 1157q-80 0 -110 -101t-30 -349q0 -263 30 -373.5t110 -110.5q84 0 112.5 106t28.5 378q0 255 -28.5 352.5t-112.5 97.5zM252 1702
h561v-209h-561v209z" />
    <glyph glyph-name="omacron" unicode="&#x14d;" horiz-adv-x="962" 
d="M487 1096q200 0 310 -132.5t110 -412.5q0 -157 -30 -269t-87.5 -177.5t-134 -95t-178.5 -29.5q-99 0 -173.5 29t-132 93t-87 175.5t-29.5 267.5q0 149 32.5 257.5t92 171.5t135.5 92.5t172 29.5zM483 852q-63 0 -86.5 -66t-23.5 -239q0 -179 23 -251.5t89 -72.5
q61 0 83 73t22 251q0 177 -22.5 241t-84.5 64zM207 1421h543v-215h-543v215z" />
    <glyph glyph-name="Ohungarumlaut" unicode="&#x150;" horiz-adv-x="1079" 
d="M543 1409q243 0 356 -173t113 -536q0 -383 -112.5 -555t-369.5 -172q-241 0 -351.5 175.5t-110.5 558.5q0 365 117 533.5t358 168.5zM539 1157q-80 0 -110 -101t-30 -349q0 -263 30 -373.5t110 -110.5q84 0 112.5 106t28.5 378q0 255 -28.5 352.5t-112.5 97.5zM367 1720
h280l-211 -237h-227zM735 1720h275l-207 -237h-223z" />
    <glyph glyph-name="ohungarumlaut" unicode="&#x151;" horiz-adv-x="962" 
d="M487 1096q200 0 310 -132.5t110 -412.5q0 -157 -30 -269t-87.5 -177.5t-134 -95t-178.5 -29.5q-99 0 -173.5 29t-132 93t-87 175.5t-29.5 267.5q0 149 32.5 257.5t92 171.5t135.5 92.5t172 29.5zM483 852q-63 0 -86.5 -66t-23.5 -239q0 -179 23 -251.5t89 -72.5
q61 0 83 73t22 251q0 177 -22.5 241t-84.5 64zM377 1176h-213l160 290h272zM743 1176h-213l160 290h273z" />
    <glyph glyph-name="OE" unicode="&#x152;" horiz-adv-x="1503" 
d="M1432 1382v-262h-431v-278h410v-260h-410v-322h469l-36 -260h-639q-8 0 -80 -5t-137 -5q-145 0 -244.5 46t-157.5 140.5t-83 222t-25 306.5q0 686 516 686q58 0 137 -4.5t84 -4.5h627zM690 246v889q-34 6 -82 6q-112 0 -160.5 -100t-48.5 -341q0 -255 46.5 -356.5
t158.5 -101.5q36 0 86 4z" />
    <glyph glyph-name="oe" unicode="&#x153;" horiz-adv-x="1470" 
d="M999 -18q-164 0 -258 88q-100 -90 -266 -90q-79 0 -141.5 17t-115.5 57.5t-88.5 105t-55 162.5t-19.5 227q0 547 430 547q162 0 263 -101q107 101 276 101q108 0 186 -37t122.5 -106t64.5 -157.5t20 -203.5v-129h-522q0 -38 1 -65.5t5 -58t11.5 -50.5t19 -37.5t30 -26
t42.5 -8.5q27 0 46.5 9t29 19.5t16 31t7.5 29.5t3 30h305q-2 -25 -5.5 -46t-15 -59.5t-28 -68.5t-48 -65.5t-72.5 -59t-104 -39.5t-139 -16zM483 852q-61 0 -85.5 -66.5t-24.5 -236.5q0 -184 24 -255t88 -71q62 0 83.5 71t21.5 263q0 170 -23.5 232.5t-83.5 62.5zM897 662
h209q0 40 -1.5 65.5t-7.5 53.5t-16.5 44t-30 26.5t-46.5 10.5q-35 0 -58 -17t-33 -49t-13 -62t-3 -72z" />
    <glyph glyph-name="Racute" unicode="&#x154;" horiz-adv-x="1032" 
d="M487 565h-69v-565h-314v1382h467q199 0 301.5 -97t102.5 -286q0 -130 -52 -207t-126 -106q84 -38 121.5 -114t37.5 -222v-49q0 -187 15 -301h-307q-23 76 -23 311v47q0 123 -31.5 165t-122.5 42zM418 1147v-342h74q92 0 128.5 39t36.5 139q0 86 -34 125t-111 39h-94z
M561 1722h365l-295 -239h-285z" />
    <glyph glyph-name="racute" unicode="&#x155;" horiz-adv-x="692" 
d="M92 0v711q0 292 -2 366h299q6 -75 6 -174q28 90 99 141.5t176 51.5v-340q-143 3 -203.5 -46.5t-60.5 -187.5v-522h-314zM373 1456h342l-275 -276h-258z" />
    <glyph glyph-name="uni0156" unicode="&#x156;" horiz-adv-x="1032" 
d="M487 565h-69v-565h-314v1382h467q199 0 301.5 -97t102.5 -286q0 -130 -52 -207t-126 -106q84 -38 121.5 -114t37.5 -222v-49q0 -187 15 -301h-307q-23 76 -23 311v47q0 123 -31.5 165t-122.5 42zM418 1147v-342h74q92 0 128.5 39t36.5 139q0 86 -34 125t-111 39h-94z
M567 -451h-266q69 149 88 353h301q-9 -101 -44 -199t-79 -154z" />
    <glyph glyph-name="uni0157" unicode="&#x157;" horiz-adv-x="692" 
d="M92 0v711q0 292 -2 366h299q6 -75 6 -174q28 90 99 141.5t176 51.5v-340q-143 3 -203.5 -46.5t-60.5 -187.5v-522h-314zM272 -451h-266q69 149 88 353h301q-9 -101 -44 -199t-79 -154z" />
    <glyph glyph-name="Rcaron" unicode="&#x158;" horiz-adv-x="1032" 
d="M487 565h-69v-565h-314v1382h467q199 0 301.5 -97t102.5 -286q0 -130 -52 -207t-126 -106q84 -38 121.5 -114t37.5 -222v-49q0 -187 15 -301h-307q-23 76 -23 311v47q0 123 -31.5 165t-122.5 42zM418 1147v-342h74q92 0 128.5 39t36.5 139q0 86 -34 125t-111 39h-94z
M682 1475h-336l-190 237h276l82 -108l80 108h276z" />
    <glyph glyph-name="rcaron" unicode="&#x159;" horiz-adv-x="692" 
d="M92 0v711q0 292 -2 366h299q6 -75 6 -174q28 90 99 141.5t176 51.5v-340q-143 3 -203.5 -46.5t-60.5 -187.5v-522h-314zM518 1176h-323l-177 270h261l79 -125l76 125h264z" />
    <glyph glyph-name="Sacute" unicode="&#x15a;" horiz-adv-x="983" 
d="M43 401h313q7 -93 37.5 -142.5t98.5 -49.5q120 0 120 141q0 72 -45 123t-166 113q-183 94 -256 187t-73 243q0 182 107.5 287.5t309.5 105.5q94 0 167.5 -23t119.5 -61.5t76 -93t42 -112t13 -124.5h-305q-3 55 -12 90.5t-34.5 62t-68.5 26.5q-102 0 -102 -123
q0 -62 35.5 -101.5t146.5 -93.5q134 -68 210 -129.5t115.5 -144.5t39.5 -197q0 -88 -26.5 -161.5t-79 -130t-139.5 -88.5t-200 -32q-433 0 -444 428zM539 1722h364l-295 -239h-284z" />
    <glyph glyph-name="sacute" unicode="&#x15b;" horiz-adv-x="870" 
d="M37 334h295q0 -57 24.5 -94t79.5 -37q88 0 88 88q0 47 -29.5 75t-115.5 60q-185 68 -252.5 143t-67.5 205q0 64 20.5 119.5t62.5 102t115.5 73.5t170.5 27q90 0 159.5 -22.5t109 -56.5t64.5 -81t33.5 -89t8.5 -87h-283q0 123 -90 123q-36 0 -56 -21t-20 -57q0 -43 32 -69
t124 -60q173 -63 245 -141.5t72 -206.5q0 -167 -98.5 -256.5t-298.5 -89.5q-106 0 -184.5 29t-122.5 80t-64.5 111.5t-21.5 131.5zM457 1458h342l-275 -276h-258z" />
    <glyph glyph-name="Scircumflex" unicode="&#x15c;" horiz-adv-x="983" 
d="M43 401h313q7 -93 37.5 -142.5t98.5 -49.5q120 0 120 141q0 72 -45 123t-166 113q-183 94 -256 187t-73 243q0 182 107.5 287.5t309.5 105.5q94 0 167.5 -23t119.5 -61.5t76 -93t42 -112t13 -124.5h-305q-3 55 -12 90.5t-34.5 62t-68.5 26.5q-102 0 -102 -123
q0 -62 35.5 -101.5t146.5 -93.5q134 -68 210 -129.5t115.5 -144.5t39.5 -197q0 -88 -26.5 -161.5t-79 -130t-139.5 -88.5t-200 -32q-433 0 -444 428zM326 1714h336l186 -237h-275l-81 106l-80 -106h-279z" />
    <glyph glyph-name="scircumflex" unicode="&#x15d;" horiz-adv-x="870" 
d="M37 334h295q0 -57 24.5 -94t79.5 -37q88 0 88 88q0 47 -29.5 75t-115.5 60q-185 68 -252.5 143t-67.5 205q0 64 20.5 119.5t62.5 102t115.5 73.5t170.5 27q90 0 159.5 -22.5t109 -56.5t64.5 -81t33.5 -89t8.5 -87h-283q0 123 -90 123q-36 0 -56 -21t-20 -57q0 -43 32 -69
t124 -60q173 -63 245 -141.5t72 -206.5q0 -167 -98.5 -256.5t-298.5 -89.5q-106 0 -184.5 29t-122.5 80t-64.5 111.5t-21.5 131.5zM274 1446h324l176 -272h-262l-80 126l-74 -126h-264z" />
    <glyph glyph-name="uni015E" unicode="&#x15e;" horiz-adv-x="983" 
d="M43 401h313q7 -93 37.5 -142.5t98.5 -49.5q120 0 120 141q0 72 -45 123t-166 113q-183 94 -256 187t-73 243q0 182 107.5 287.5t309.5 105.5q94 0 167.5 -23t119.5 -61.5t76 -93t42 -112t13 -124.5h-305q-3 55 -12 90.5t-34.5 62t-68.5 26.5q-102 0 -102 -123
q0 -62 35.5 -101.5t146.5 -93.5q134 -68 210 -129.5t115.5 -144.5t39.5 -197q0 -161 -86 -270.5t-260 -134.5l-23 -33q148 -51 148 -174q0 -88 -64 -139.5t-176 -51.5q-113 0 -184 35l43 150q40 -21 96 -21q49 0 49 33q0 44 -119 59v64l45 75q-347 40 -358 424z" />
    <glyph glyph-name="uni015F" unicode="&#x15f;" horiz-adv-x="870" 
d="M37 334h295q0 -57 24.5 -94t79.5 -37q88 0 88 88q0 47 -29.5 75t-115.5 60q-185 68 -252.5 143t-67.5 205q0 64 20.5 119.5t62.5 102t115.5 73.5t170.5 27q90 0 159.5 -22.5t109 -56.5t64.5 -81t33.5 -89t8.5 -87h-283q0 123 -90 123q-36 0 -56 -21t-20 -57q0 -43 32 -69
t124 -60q173 -63 245 -141.5t72 -206.5q0 -143 -72 -230t-220 -108l-29 -43q147 -51 147 -174q0 -88 -63.5 -139.5t-175.5 -51.5q-114 0 -185 35l43 150q40 -21 97 -21q49 0 49 33q0 44 -119 59v64l51 84q-84 10 -146.5 43t-97.5 81.5t-51.5 104t-17.5 119.5z" />
    <glyph glyph-name="Scaron" unicode="&#x160;" horiz-adv-x="983" 
d="M43 401h313q7 -93 37.5 -142.5t98.5 -49.5q120 0 120 141q0 72 -45 123t-166 113q-183 94 -256 187t-73 243q0 182 107.5 287.5t309.5 105.5q94 0 167.5 -23t119.5 -61.5t76 -93t42 -112t13 -124.5h-305q-3 55 -12 90.5t-34.5 62t-68.5 26.5q-102 0 -102 -123
q0 -62 35.5 -101.5t146.5 -93.5q134 -68 210 -129.5t115.5 -144.5t39.5 -197q0 -88 -26.5 -161.5t-79 -130t-139.5 -88.5t-200 -32q-433 0 -444 428zM659 1481h-335l-191 237h277l82 -108l79 108h277z" />
    <glyph glyph-name="scaron" unicode="&#x161;" horiz-adv-x="870" 
d="M37 334h295q0 -57 24.5 -94t79.5 -37q88 0 88 88q0 47 -29.5 75t-115.5 60q-185 68 -252.5 143t-67.5 205q0 64 20.5 119.5t62.5 102t115.5 73.5t170.5 27q90 0 159.5 -22.5t109 -56.5t64.5 -81t33.5 -89t8.5 -87h-283q0 123 -90 123q-36 0 -56 -21t-20 -57q0 -43 32 -69
t124 -60q173 -63 245 -141.5t72 -206.5q0 -167 -98.5 -256.5t-298.5 -89.5q-106 0 -184.5 29t-122.5 80t-64.5 111.5t-21.5 131.5zM594 1176h-324l-176 270h260l80 -125l76 125h264z" />
    <glyph glyph-name="uni0162" unicode="&#x162;" horiz-adv-x="897" 
d="M291 0v1122h-273v260h861v-260h-271v-1122h-57l-37 -53q148 -51 148 -174q0 -88 -64 -139.5t-176 -51.5q-113 0 -184 35l43 150q41 -21 96 -21q49 0 49 33q0 44 -119 59v64l60 98h-76z" />
    <glyph glyph-name="uni0163" unicode="&#x163;" horiz-adv-x="610" 
d="M-2 829v248h129v254h309v-254h148v-248h-148v-514q0 -46 16 -66t66 -20q31 0 49 2v-223q-50 -18 -135 -22l-26 -39q147 -51 147 -174q0 -88 -64 -139.5t-176 -51.5q-113 0 -184 35l43 150q40 -21 96 -21q49 0 49 33q0 45 -118 59v64l61 100q-74 24 -105.5 85.5
t-31.5 172.5v569h-125z" />
    <glyph glyph-name="Tcaron" unicode="&#x164;" horiz-adv-x="897" 
d="M291 0v1122h-273v260h861v-260h-271v-1122h-317zM616 1475h-335l-191 237h277l82 -108l79 108h277z" />
    <glyph glyph-name="tcaron" unicode="&#x165;" horiz-adv-x="610" 
d="M717 1176h-193l-4 446h219zM-2 829v248h129v254h309v-254h148v-248h-148v-514q0 -46 16 -66t66 -20q31 0 49 2v-223q-58 -22 -174 -22q-151 0 -210.5 62t-59.5 212v569h-125z" />
    <glyph glyph-name="Utilde" unicode="&#x168;" horiz-adv-x="1083" 
d="M92 1382h320v-966q0 -193 131 -193q39 0 65.5 15t39 43t17.5 59t5 74v968h319v-958q0 -451 -454 -451q-232 0 -337.5 115.5t-105.5 337.5v956zM397 1483h-184v55q0 211 178 211q62 0 151.5 -31.5t108.5 -31.5q37 0 37 45v18h180v-43q0 -131 -46.5 -180t-131.5 -49
q-57 0 -146.5 31.5t-111.5 31.5q-35 0 -35 -37v-20z" />
    <glyph glyph-name="utilde" unicode="&#x169;" horiz-adv-x="993" 
d="M901 1077v-739q0 -285 2 -338h-297q-6 26 -12 109q-40 -69 -97 -98t-143 -29q-127 0 -195.5 74.5t-68.5 244.5v776h313v-717q0 -68 17.5 -98.5t64.5 -30.5q55 0 79 36.5t24 127.5v682h313zM371 1188h-191v63q0 115 47 161t127 46q48 0 96.5 -18.5t85 -37t56.5 -18.5
q31 0 31 54v18h186v-53q0 -68 -14 -113.5t-40 -68t-54 -31t-66 -8.5q-57 0 -134.5 35.5t-99.5 35.5q-30 0 -30 -43v-22z" />
    <glyph glyph-name="Umacron" unicode="&#x16a;" horiz-adv-x="1083" 
d="M92 1382h320v-966q0 -193 131 -193q39 0 65.5 15t39 43t17.5 59t5 74v968h319v-958q0 -451 -454 -451q-232 0 -337.5 115.5t-105.5 337.5v956zM260 1702h561v-209h-561v209z" />
    <glyph glyph-name="umacron" unicode="&#x16b;" horiz-adv-x="993" 
d="M901 1077v-739q0 -285 2 -338h-297q-6 26 -12 109q-40 -69 -97 -98t-143 -29q-127 0 -195.5 74.5t-68.5 244.5v776h313v-717q0 -68 17.5 -98.5t64.5 -30.5q55 0 79 36.5t24 127.5v682h313zM223 1421h543v-215h-543v215z" />
    <glyph glyph-name="Ubreve" unicode="&#x16c;" horiz-adv-x="1083" 
d="M92 1382h320v-966q0 -193 131 -193q39 0 65.5 15t39 43t17.5 59t5 74v968h319v-958q0 -451 -454 -451q-232 0 -337.5 115.5t-105.5 337.5v956zM225 1729h215q6 -36 33 -60t70 -24q86 0 98 84h215q-7 -52 -27 -96.5t-55.5 -85t-96.5 -64t-140 -23.5t-139.5 23.5t-95.5 63
t-54 85.5t-23 97z" />
    <glyph glyph-name="ubreve" unicode="&#x16d;" horiz-adv-x="993" 
d="M901 1077v-739q0 -285 2 -338h-297q-6 26 -12 109q-40 -69 -97 -98t-143 -29q-127 0 -195.5 74.5t-68.5 244.5v776h313v-717q0 -68 17.5 -98.5t64.5 -30.5q55 0 79 36.5t24 127.5v682h313zM188 1440h222q15 -80 86 -80q43 0 61 21t25 59h219q-6 -52 -24.5 -97.5
t-53 -86.5t-94 -65t-137.5 -24q-76 0 -135.5 24t-94 64.5t-53 87t-21.5 97.5z" />
    <glyph glyph-name="Uring" unicode="&#x16e;" horiz-adv-x="1083" 
d="M92 1382h320v-966q0 -193 131 -193q39 0 65.5 15t39 43t17.5 59t5 74v968h319v-958q0 -451 -454 -451q-232 0 -337.5 115.5t-105.5 337.5v956zM543 1446q-101 0 -160 54.5t-59 139.5q0 86 58 141.5t159 55.5t160 -53.5t59 -141.5q0 -89 -60 -142.5t-157 -53.5zM541 1569
q38 0 57.5 20t19.5 51q0 32 -19 54t-56 22q-39 0 -58.5 -22t-19.5 -54q0 -29 19.5 -50t56.5 -21z" />
    <glyph glyph-name="uring" unicode="&#x16f;" horiz-adv-x="993" 
d="M901 1077v-739q0 -285 2 -338h-297q-6 26 -12 109q-40 -69 -97 -98t-143 -29q-127 0 -195.5 74.5t-68.5 244.5v776h313v-717q0 -68 17.5 -98.5t64.5 -30.5q55 0 79 36.5t24 127.5v682h313zM498 1149q-101 0 -160 54.5t-59 139.5q0 86 58 141.5t159 55.5t160 -53.5
t59 -140.5q0 -89 -60 -143t-157 -54zM496 1272q38 0 57.5 20t19.5 51q0 32 -19 54t-56 22q-39 0 -58.5 -22t-19.5 -54q0 -29 19.5 -50t56.5 -21z" />
    <glyph glyph-name="Uhungarumlaut" unicode="&#x170;" horiz-adv-x="1083" 
d="M92 1382h320v-966q0 -193 131 -193q39 0 65.5 15t39 43t17.5 59t5 74v968h319v-958q0 -451 -454 -451q-232 0 -337.5 115.5t-105.5 337.5v956zM375 1720h280l-211 -237h-227zM743 1720h275l-207 -237h-223z" />
    <glyph glyph-name="uhungarumlaut" unicode="&#x171;" horiz-adv-x="993" 
d="M901 1077v-739q0 -285 2 -338h-297q-6 26 -12 109q-40 -69 -97 -98t-143 -29q-127 0 -195.5 74.5t-68.5 244.5v776h313v-717q0 -68 17.5 -98.5t64.5 -30.5q55 0 79 36.5t24 127.5v682h313zM393 1176h-213l160 290h272zM760 1176h-213l160 290h272z" />
    <glyph glyph-name="Uogonek" unicode="&#x172;" horiz-adv-x="1083" 
d="M92 1382h320v-966q0 -193 131 -193q39 0 65.5 15t39 43t17.5 59t5 74v968h319v-958q0 -341 -262 -424q-65 -61 -65 -119q0 -31 20.5 -50t56.5 -19q28 0 64 8l16 -187q-60 -36 -190 -36q-115 0 -178.5 55t-63.5 151q0 95 66 174q-361 38 -361 449v956z" />
    <glyph glyph-name="uogonek" unicode="&#x173;" horiz-adv-x="993" 
d="M901 1077v-739q0 -285 2 -338h-24l10 -2q-72 -65 -72 -125q0 -31 21 -50.5t57 -19.5q23 0 63 9l17 -187q-62 -37 -191 -37q-114 0 -177.5 55.5t-63.5 151.5q0 113 92 205h-29q-6 26 -12 109q-40 -69 -97 -98t-143 -29q-127 0 -195.5 74.5t-68.5 244.5v776h313v-717
q0 -68 17.5 -98.5t64.5 -30.5q55 0 79 36.5t24 127.5v682h313z" />
    <glyph glyph-name="Wcircumflex" unicode="&#x174;" horiz-adv-x="1437" 
d="M571 0h-321l-230 1382h334q67 -589 90 -950h9q21 148 73 487t70 463h270q87 -565 135 -940h11q15 183 98 940h307l-246 -1382h-319q-10 57 -32.5 189t-37 217t-33 205t-30.5 216h-8q-16 -122 -40 -265.5t-56.5 -319.5t-43.5 -242zM553 1714h336l186 -237h-274l-82 106
l-80 -106h-279z" />
    <glyph glyph-name="wcircumflex" unicode="&#x175;" horiz-adv-x="1370" 
d="M8 1077h334q62 -447 88 -749h8q11 102 117 749h285q99 -601 112 -749h6q1 14 8 78t13 119t16 140.5t24.5 191t31.5 220.5h313l-248 -1077h-325q-84 499 -103 643h-6q-5 -40 -13 -92.5t-21.5 -124t-24.5 -126t-30.5 -152t-29.5 -148.5h-325zM524 1446h324l176 -272h-262
l-80 126l-74 -126h-264z" />
    <glyph glyph-name="Ycircumflex" unicode="&#x176;" horiz-adv-x="946" 
d="M631 0h-318v449q0 35 -12 63l-324 870h351q113 -415 155 -618q21 90 80.5 318.5t77.5 299.5h328l-328 -872q-10 -27 -10 -55v-455zM307 1714h336l186 -237h-274l-82 106l-80 -106h-278z" />
    <glyph glyph-name="ycircumflex" unicode="&#x177;" horiz-adv-x="903" 
d="M-4 1077h342q6 -33 25.5 -132t27.5 -143t23 -125.5t22.5 -127t15 -97.5t9.5 -85h6q29 207 123 710h315q-13 -51 -134.5 -510.5t-147.5 -556.5q-34 -127 -69 -204t-83.5 -119.5t-103.5 -57t-140 -14.5q-64 0 -129 10v248q36 -4 76 -4q63 0 92 26.5t41 94.5zM291 1450h323
l177 -272h-263l-79 127l-74 -127h-264z" />
    <glyph glyph-name="Ydieresis" unicode="&#x178;" horiz-adv-x="946" 
d="M631 0h-318v449q0 35 -12 63l-324 870h351q113 -415 155 -618q21 90 80.5 318.5t77.5 299.5h328l-328 -872q-10 -27 -10 -55v-455zM418 1481h-250v254h250v-254zM778 1481h-250v254h250v-254z" />
    <glyph glyph-name="Zacute" unicode="&#x179;" horiz-adv-x="917" 
d="M37 0v203l483 919h-446v260h788v-229l-454 -893h483l-37 -260h-817zM506 1722h364l-295 -239h-284z" />
    <glyph glyph-name="zacute" unicode="&#x17a;" horiz-adv-x="806" 
d="M33 0v213q144 224 379 612h-351v252h707v-221q-351 -584 -365 -606h375l-30 -250h-715zM432 1460h342l-274 -276h-258z" />
    <glyph glyph-name="Zdotaccent" unicode="&#x17b;" horiz-adv-x="917" 
d="M37 0v203l483 919h-446v260h788v-229l-454 -893h483l-37 -260h-817zM608 1487h-301v260h301v-260z" />
    <glyph glyph-name="zdotaccent" unicode="&#x17c;" horiz-adv-x="806" 
d="M33 0v213q144 224 379 612h-351v252h707v-221q-351 -584 -365 -606h375l-30 -250h-715zM567 1192h-315v258h315v-258z" />
    <glyph glyph-name="Zcaron" unicode="&#x17d;" horiz-adv-x="917" 
d="M37 0v203l483 919h-446v260h788v-229l-454 -893h483l-37 -260h-817zM639 1470h-336l-190 238h276l82 -109l80 109h276z" />
    <glyph glyph-name="zcaron" unicode="&#x17e;" horiz-adv-x="806" 
d="M33 0v213q144 224 379 612h-351v252h707v-221q-351 -584 -365 -606h375l-30 -250h-715zM575 1176h-323l-176 270h260l80 -125l76 125h264z" />
    <glyph glyph-name="uni018F" unicode="&#x18f;" horiz-adv-x="1044" 
d="M977 711q0 -184 -23 -316t-76.5 -228.5t-144 -144t-221.5 -47.5q-112 0 -192.5 31.5t-130 85.5t-78.5 141.5t-39.5 184t-10.5 229.5v144h586q0 195 -25.5 279.5t-103.5 84.5q-37 0 -62.5 -13.5t-38.5 -39.5t-18.5 -49t-9.5 -56h-323q3 29 8 57.5t19 71t34 79t54.5 75
t78 65.5t108.5 44.5t142 17.5q131 0 220.5 -41.5t144 -130t78.5 -215.5t24 -309zM647 553h-258q2 -178 28.5 -253t102.5 -75q38 0 63 19.5t38.5 64t18.5 100.5t7 144z" />
    <glyph glyph-name="florin" unicode="&#x192;" horiz-adv-x="907" 
d="M885 1370l-49 -231q-46 16 -88 16t-63 -33t-30 -106l-18 -131h162v-211h-191l-61 -449q-15 -108 -35.5 -178.5t-58 -126t-95.5 -81t-143 -25.5q-139 0 -205 39l43 241q41 -20 94 -20q41 0 57 29.5t29 111.5l66 459h-131v211h162l16 108q9 65 20 115t36.5 109t61 97.5
t94.5 64.5t136 26q139 0 191 -35z" />
    <glyph glyph-name="Ohorn" unicode="&#x1a0;" horiz-adv-x="1079" 
d="M543 1409q144 0 245 -61q23 20 23 69q0 55 -18 113h254q14 -55 14 -127q0 -167 -127 -229q78 -169 78 -474q0 -383 -112.5 -555t-369.5 -172q-241 0 -351.5 175.5t-110.5 558.5q0 365 117 533.5t358 168.5zM539 1157q-80 0 -110 -101t-30 -349q0 -263 30 -373.5
t110 -110.5q84 0 112.5 106t28.5 378q0 255 -28.5 352.5t-112.5 97.5z" />
    <glyph glyph-name="ohorn" unicode="&#x1a1;" horiz-adv-x="962" 
d="M487 1096q122 0 213 -49q37 16 37 79q0 54 -18 113h254q14 -55 14 -127q0 -173 -137 -235q57 -126 57 -326q0 -157 -30 -269t-87.5 -177.5t-134 -95t-178.5 -29.5q-99 0 -173.5 29t-132 93t-87 175.5t-29.5 267.5q0 149 32.5 257.5t92 171.5t135.5 92.5t172 29.5z
M483 852q-63 0 -86.5 -66t-23.5 -239q0 -179 23 -251.5t89 -72.5q61 0 83 73t22 251q0 177 -22.5 241t-84.5 64z" />
    <glyph glyph-name="Uhorn" unicode="&#x1af;" horiz-adv-x="1083" 
d="M92 1382h320v-966q0 -193 131 -193q39 0 65.5 15t39 43t17.5 59t5 74v968h174q47 14 47 84q0 51 -19 113h254q15 -58 15 -127q0 -184 -152 -240v-788q0 -451 -454 -451q-232 0 -337.5 115.5t-105.5 337.5v956z" />
    <glyph glyph-name="uhorn" unicode="&#x1b0;" horiz-adv-x="993" 
d="M594 109q-40 -69 -97 -98t-143 -29q-127 0 -195.5 74.5t-68.5 244.5v776h313v-717q0 -68 17.5 -98.5t64.5 -30.5q55 0 79 36.5t24 127.5v682h147q64 9 64 88q0 51 -19 113h254q15 -59 15 -127q0 -182 -148 -240v-573q0 -285 2 -338h-297q-6 26 -12 109z" />
    <glyph glyph-name="uni01CD" unicode="&#x1cd;" horiz-adv-x="1015" 
d="M627 297h-252l-47 -297h-318l273 1382h446l277 -1382h-330zM416 563h170q-45 276 -80 555h-10q-19 -178 -80 -555zM676 1468h-336l-190 238h276l82 -109l80 109h276z" />
    <glyph glyph-name="uni01CE" unicode="&#x1ce;" horiz-adv-x="954" 
d="M860 772v-506q0 -54 8 -266h-282q-9 34 -13 94q-77 -112 -239 -112q-137 0 -212 93t-75 238q0 174 110.5 264.5t309.5 90.5q66 0 86 -2v104q0 53 -16 81t-68 28q-50 0 -67.5 -29t-20.5 -94h-293q7 340 393 340q379 0 379 -324zM557 418v51q-18 2 -59 2q-142 0 -142 -131
q0 -50 22.5 -82.5t70.5 -32.5q65 0 86.5 46.5t21.5 146.5zM639 1184h-324l-176 270h260l80 -125l76 125h264z" />
    <glyph glyph-name="uni01CF" unicode="&#x1cf;" horiz-adv-x="528" 
d="M104 1382h318v-1382h-318v1382zM432 1475h-336l-190 237h276l82 -108l80 108h277z" />
    <glyph glyph-name="uni01D0" unicode="&#x1d0;" horiz-adv-x="499" 
d="M92 0v1077h314v-1077h-314zM408 1176h-324l-176 270h260l80 -125l76 125h264z" />
    <glyph glyph-name="uni01D1" unicode="&#x1d1;" horiz-adv-x="1079" 
d="M543 1409q243 0 356 -173t113 -536q0 -383 -112.5 -555t-369.5 -172q-241 0 -351.5 175.5t-110.5 558.5q0 365 117 533.5t358 168.5zM539 1157q-80 0 -110 -101t-30 -349q0 -263 30 -373.5t110 -110.5q84 0 112.5 106t28.5 378q0 255 -28.5 352.5t-112.5 97.5zM700 1483
h-335l-191 237h277l81 -108l80 108h277z" />
    <glyph glyph-name="uni01D2" unicode="&#x1d2;" horiz-adv-x="962" 
d="M487 1096q200 0 310 -132.5t110 -412.5q0 -157 -30 -269t-87.5 -177.5t-134 -95t-178.5 -29.5q-99 0 -173.5 29t-132 93t-87 175.5t-29.5 267.5q0 149 32.5 257.5t92 171.5t135.5 92.5t172 29.5zM483 852q-63 0 -86.5 -66t-23.5 -239q0 -179 23 -251.5t89 -72.5
q61 0 83 73t22 251q0 177 -22.5 241t-84.5 64zM639 1180h-324l-176 270h260l80 -125l76 125h264z" />
    <glyph glyph-name="uni01D3" unicode="&#x1d3;" horiz-adv-x="1083" 
d="M92 1382h320v-966q0 -193 131 -193q39 0 65.5 15t39 43t17.5 59t5 74v968h319v-958q0 -451 -454 -451q-232 0 -337.5 115.5t-105.5 337.5v956zM709 1475h-336l-191 237h277l82 -108l80 108h276z" />
    <glyph glyph-name="uni01D4" unicode="&#x1d4;" horiz-adv-x="993" 
d="M901 1077v-739q0 -285 2 -338h-297q-6 26 -12 109q-40 -69 -97 -98t-143 -29q-127 0 -195.5 74.5t-68.5 244.5v776h313v-717q0 -68 17.5 -98.5t64.5 -30.5q55 0 79 36.5t24 127.5v682h313zM655 1176h-323l-176 270h260l80 -125l75 125h265z" />
    <glyph glyph-name="uni01D5" unicode="&#x1d5;" horiz-adv-x="1083" 
d="M92 1382h320v-966q0 -193 131 -193q39 0 65.5 15t39 43t17.5 59t5 74v968h319v-958q0 -451 -454 -451q-232 0 -337.5 115.5t-105.5 337.5v956zM483 1456h-237v207h237v-207zM815 1739h-549v170h549v-170zM836 1456h-238v207h238v-207z" />
    <glyph glyph-name="uni01D6" unicode="&#x1d6;" horiz-adv-x="993" 
d="M901 1077v-739q0 -285 2 -338h-297q-6 26 -12 109q-40 -69 -97 -98t-143 -29q-127 0 -195.5 74.5t-68.5 244.5v776h313v-717q0 -68 17.5 -98.5t64.5 -30.5q55 0 79 36.5t24 127.5v682h313zM438 1171h-243v205h243v-205zM776 1458h-563v178h563v-178zM795 1171h-244v205
h244v-205z" />
    <glyph glyph-name="uni01D7" unicode="&#x1d7;" horiz-adv-x="1083" 
d="M92 1382h320v-966q0 -193 131 -193q39 0 65.5 15t39 43t17.5 59t5 74v968h319v-958q0 -451 -454 -451q-232 0 -337.5 115.5t-105.5 337.5v956zM233 1669h250v-211h-250v211zM393 1726l178 193h367l-274 -193h-271zM848 1458h-250v211h250v-211z" />
    <glyph glyph-name="uni01D8" unicode="&#x1d8;" horiz-adv-x="993" 
d="M901 1077v-739q0 -285 2 -338h-297q-6 26 -12 109q-40 -69 -97 -98t-143 -29q-127 0 -195.5 74.5t-68.5 244.5v776h313v-717q0 -68 17.5 -98.5t64.5 -30.5q55 0 79 36.5t24 127.5v682h313zM193 1380h245v-204h-245v204zM610 1438h-272l164 204h350zM797 1176h-246v204
h246v-204z" />
    <glyph glyph-name="uni01D9" unicode="&#x1d9;" horiz-adv-x="1083" 
d="M92 1382h320v-966q0 -193 131 -193q39 0 65.5 15t39 43t17.5 59t5 74v968h319v-958q0 -451 -454 -451q-232 0 -337.5 115.5t-105.5 337.5v956zM682 1722h-297l-182 201h254l78 -90l75 90h258zM483 1456h-250v213h250v-213zM848 1456h-250v213h250v-213z" />
    <glyph glyph-name="uni01DA" unicode="&#x1da;" horiz-adv-x="993" 
d="M901 1077v-739q0 -285 2 -338h-297q-6 26 -12 109q-40 -69 -97 -98t-143 -29q-127 0 -195.5 74.5t-68.5 244.5v776h313v-717q0 -68 17.5 -98.5t64.5 -30.5q55 0 79 36.5t24 127.5v682h313zM637 1425h-289l-186 209h252l80 -96l77 96h256zM438 1163h-248v207h248v-207z
M799 1163h-248v207h248v-207z" />
    <glyph glyph-name="uni01DB" unicode="&#x1db;" horiz-adv-x="1083" 
d="M92 1382h320v-966q0 -193 131 -193q39 0 65.5 15t39 43t17.5 59t5 74v968h319v-958q0 -451 -454 -451q-232 0 -337.5 115.5t-105.5 337.5v956zM233 1669h250v-211h-250v211zM688 1726h-268l-277 193h367zM848 1458h-250v211h250v-211z" />
    <glyph glyph-name="uni01DC" unicode="&#x1dc;" horiz-adv-x="993" 
d="M901 1077v-739q0 -285 2 -338h-297q-6 26 -12 109q-40 -69 -97 -98t-143 -29q-127 0 -195.5 74.5t-68.5 244.5v776h313v-717q0 -68 17.5 -98.5t64.5 -30.5q55 0 79 36.5t24 127.5v682h313zM193 1372h243v-205h-243v205zM129 1634h350l164 -204h-266zM797 1167h-246v205
h246v-205z" />
    <glyph glyph-name="Gcaron" unicode="&#x1e6;" horiz-adv-x="1067" 
d="M987 793v-793h-233q-11 66 -13 109q-76 -136 -272 -136q-207 0 -304 168t-97 541q0 202 33.5 344.5t99 225t153 119t205.5 36.5q80 0 145.5 -18t108.5 -45.5t75.5 -67t49.5 -76.5t28 -80.5t13.5 -71.5t3.5 -57h-317q-2 27 -4 44.5t-9 43t-19 40.5t-33.5 26.5t-51.5 11.5
q-86 0 -117 -111.5t-31 -365.5q0 -257 29 -357t113 -100q69 0 97 57t28 175v88h-136v250h455zM698 1483h-336l-190 237h277l81 -108l80 108h277z" />
    <glyph glyph-name="gcaron" unicode="&#x1e7;" horiz-adv-x="993" 
d="M901 739v-643q0 -122 -20 -207t-69 -149.5t-135 -95.5t-214 -31q-89 0 -158.5 19t-112.5 49t-71 73t-39.5 86t-13.5 92h307q2 -18 5.5 -29.5t13 -27.5t30.5 -24.5t53 -8.5q67 0 90 51.5t23 169.5v74q-61 -117 -221 -117q-314 0 -314 519q0 277 87 417t249 140
q155 0 201 -107q2 24 12 88h301q-4 -132 -4 -338zM375 545q0 -154 26.5 -217.5t83.5 -63.5q65 0 87 67.5t22 239.5q0 55 -1 86t-4 67.5t-9.5 55t-17.5 36t-28.5 24t-41.5 6.5q-60 0 -88.5 -67.5t-28.5 -233.5zM655 1176h-323l-176 270h260l80 -125l75 125h265z" />
    <glyph glyph-name="uni0218" unicode="&#x218;" horiz-adv-x="983" 
d="M43 401h313q7 -93 37.5 -142.5t98.5 -49.5q120 0 120 141q0 72 -45 123t-166 113q-183 94 -256 187t-73 243q0 182 107.5 287.5t309.5 105.5q94 0 167.5 -23t119.5 -61.5t76 -93t42 -112t13 -124.5h-305q-3 55 -12 90.5t-34.5 62t-68.5 26.5q-102 0 -102 -123
q0 -62 35.5 -101.5t146.5 -93.5q134 -68 210 -129.5t115.5 -144.5t39.5 -197q0 -88 -26.5 -161.5t-79 -130t-139.5 -88.5t-200 -32q-433 0 -444 428zM537 -451h-267q69 149 88 353h301q-9 -102 -43.5 -199.5t-78.5 -153.5z" />
    <glyph glyph-name="uni0219" unicode="&#x219;" horiz-adv-x="870" 
d="M37 334h295q0 -57 24.5 -94t79.5 -37q88 0 88 88q0 47 -29.5 75t-115.5 60q-185 68 -252.5 143t-67.5 205q0 64 20.5 119.5t62.5 102t115.5 73.5t170.5 27q90 0 159.5 -22.5t109 -56.5t64.5 -81t33.5 -89t8.5 -87h-283q0 123 -90 123q-36 0 -56 -21t-20 -57q0 -43 32 -69
t124 -60q173 -63 245 -141.5t72 -206.5q0 -167 -98.5 -256.5t-298.5 -89.5q-106 0 -184.5 29t-122.5 80t-64.5 111.5t-21.5 131.5zM479 -451h-266q69 149 88 353h301q-9 -101 -44 -199t-79 -154z" />
    <glyph glyph-name="uni021A" unicode="&#x21a;" horiz-adv-x="897" 
d="M291 0v1122h-273v260h861v-260h-271v-1122h-317zM475 -451h-266q69 149 88 353h301q-9 -101 -44 -199t-79 -154z" />
    <glyph glyph-name="uni021B" unicode="&#x21b;" horiz-adv-x="610" 
d="M-2 829v248h129v254h309v-254h148v-248h-148v-514q0 -46 16 -66t66 -20q31 0 49 2v-223q-58 -22 -174 -22q-151 0 -210.5 62t-59.5 212v569h-125zM365 -451h-267q69 149 88 353h301q-9 -102 -43.5 -199.5t-78.5 -153.5z" />
    <glyph glyph-name="uni0237" unicode="&#x237;" horiz-adv-x="501" 
d="M94 1077h314v-1036q0 -59 -2 -101.5t-9.5 -90t-21 -79.5t-37 -63.5t-57 -50t-81.5 -30t-110 -11.5q-61 0 -113 8v252q18 -2 50 -2q41 0 54 21t13 77v1106z" />
    <glyph glyph-name="uni0251" unicode="&#x251;" horiz-adv-x="991" 
d="M596 1077h305v-758q0 -243 8 -319h-301q-8 22 -14 106q-32 -64 -85 -94t-144 -30q-154 0 -232 136t-78 431q0 260 89 403.5t259 143.5q143 0 185 -86q4 50 8 67zM373 545q0 -179 24.5 -248.5t83.5 -69.5q68 0 89.5 70t21.5 250q0 179 -19 239t-84 60q-39 0 -62.5 -22
t-38.5 -90t-15 -189z" />
    <glyph glyph-name="uni0259" unicode="&#x259;" horiz-adv-x="948" 
d="M59 614h519q0 58 -4 98.5t-15.5 77t-35 54.5t-58.5 18q-98 0 -103 -123h-299q2 23 5 44t14 59.5t27.5 69.5t48 67.5t72 61t103 41t138.5 16.5q104 0 180.5 -32t121.5 -82.5t71.5 -128t35.5 -153t9 -172.5q0 -271 -107.5 -409.5t-316.5 -138.5q-93 0 -164 25.5
t-117.5 69.5t-75.5 110t-41 141t-12 168q0 94 4 118zM573 416h-208q0 -32 1 -52t4 -46.5t9.5 -42.5t17.5 -31.5t28.5 -23t41.5 -7.5q35 0 57.5 16.5t32.5 49t13 62.5t3 75z" />
    <glyph glyph-name="uni0261" unicode="&#x261;" horiz-adv-x="993" 
d="M901 739v-643q0 -122 -20 -207t-69 -149.5t-135 -95.5t-214 -31q-89 0 -158.5 19t-112.5 49t-71 73t-39.5 86t-13.5 92h307q2 -18 5.5 -29.5t13 -27.5t30.5 -24.5t53 -8.5q67 0 90 51.5t23 169.5v74q-61 -117 -221 -117q-314 0 -314 519q0 277 87 417t249 140
q155 0 201 -107q2 24 12 88h301q-4 -132 -4 -338zM375 545q0 -154 26.5 -217.5t83.5 -63.5q65 0 87 67.5t22 239.5q0 55 -1 86t-4 67.5t-9.5 55t-17.5 36t-28.5 24t-41.5 6.5q-60 0 -88.5 -67.5t-28.5 -233.5z" />
    <glyph glyph-name="uni02BB" unicode="&#x2bb;" horiz-adv-x="755" 
d="M332 1452h219q-67 -260 -74 -539h-272q7 145 46 302t81 237z" />
    <glyph glyph-name="uni02BC" unicode="&#x2bc;" horiz-adv-x="755" 
d="M426 913h-221q71 274 74 539h272q-7 -145 -45.5 -302.5t-79.5 -236.5z" />
    <glyph glyph-name="uni02BE" unicode="&#x2be;" horiz-adv-x="659" 
d="M205 1284q71 6 71 57q0 24 -18.5 39.5t-52.5 16.5v143q118 0 184 -51.5t66 -142.5q0 -95 -66 -148t-184 -53v139z" />
    <glyph glyph-name="uni02BF" unicode="&#x2bf;" horiz-adv-x="659" 
d="M455 1288v-143q-116 0 -183 52t-67 144q0 94 66.5 146.5t183.5 52.5v-139q-35 -1 -52.5 -17t-17.5 -41q0 -24 18 -39t52 -16z" />
    <glyph glyph-name="circumflex" unicode="&#x2c6;" 
d="M250 1446h323l177 -272h-263l-79 126l-74 -126h-264z" />
    <glyph glyph-name="caron" unicode="&#x2c7;" 
d="M569 1176h-323l-176 270h260l80 -125l75 125h265z" />
    <glyph glyph-name="uni02C8" unicode="&#x2c8;" horiz-adv-x="667" 
d="M463 1147h-258v389h258v-389z" />
    <glyph glyph-name="uni02C9" unicode="&#x2c9;" horiz-adv-x="952" 
d="M205 1421h543v-215h-543v215z" />
    <glyph glyph-name="uni02CA" unicode="&#x2ca;" horiz-adv-x="935" 
d="M410 1456h342l-275 -276h-258z" />
    <glyph glyph-name="uni02CB" unicode="&#x2cb;" horiz-adv-x="935" 
d="M184 1456h346l187 -276h-256z" />
    <glyph glyph-name="uni02CC" unicode="&#x2cc;" horiz-adv-x="667" 
d="M463 -492h-258v390h258v-390z" />
    <glyph glyph-name="breve" unicode="&#x2d8;" 
d="M102 1440h222q15 -80 86 -80q43 0 61 21t25 59h219q-6 -52 -24.5 -97.5t-53 -86.5t-94 -65t-137.5 -24q-76 0 -135.5 24t-94 64.5t-53 87t-21.5 97.5z" />
    <glyph glyph-name="dotaccent" unicode="&#x2d9;" 
d="M567 1190h-315v258h315v-258z" />
    <glyph glyph-name="ring" unicode="&#x2da;" 
d="M412 1149q-101 0 -160 54.5t-59 139.5q0 86 58 141.5t159 55.5t160 -53.5t59 -140.5q0 -89 -60 -143t-157 -54zM410 1272q38 0 57.5 20t19.5 51q0 32 -19 54t-56 22q-39 0 -58.5 -22t-19.5 -54q0 -29 19.5 -50t56.5 -21z" />
    <glyph glyph-name="ogonek" unicode="&#x2db;" 
d="M354 43l205 -43q-72 -65 -72 -125q0 -31 21 -50.5t57 -19.5q23 0 64 9l16 -187q-62 -37 -190 -37q-115 0 -178.5 55.5t-63.5 151.5q0 72 38 136t103 110z" />
    <glyph glyph-name="tilde" unicode="&#x2dc;" 
d="M285 1180h-191v63q0 115 47 161t127 46q48 0 96.5 -18.5t85 -37t56.5 -18.5q31 0 31 54v18h186v-53q0 -68 -14 -113.5t-40 -68t-54 -31t-66 -8.5q-57 0 -134.5 35.5t-99.5 35.5q-30 0 -30 -43v-22z" />
    <glyph glyph-name="hungarumlaut" unicode="&#x2dd;" 
d="M307 1176h-213l160 290h272zM674 1176h-213l160 290h272z" />
    <glyph glyph-name="uni0300" unicode="&#x300;" horiz-adv-x="0" 
d="M-287 1456h346l187 -276h-256z" />
    <glyph glyph-name="uni0301" unicode="&#x301;" horiz-adv-x="0" 
d="M-53 1456h342l-275 -276h-258z" />
    <glyph glyph-name="uni0302" unicode="&#x302;" horiz-adv-x="0" 
d="M-160 1446h324l176 -272h-262l-80 126l-74 -126h-264z" />
    <glyph glyph-name="uni0303" unicode="&#x303;" horiz-adv-x="0" 
d="M-125 1180h-190v63q0 115 47 161t127 46q48 0 96 -18.5t84.5 -37t56.5 -18.5q31 0 31 54v18h186v-53q0 -68 -14 -113.5t-40 -68t-54 -31t-66 -8.5q-57 0 -134 35.5t-99 35.5q-31 0 -31 -43v-22z" />
    <glyph glyph-name="uni0304" unicode="&#x304;" horiz-adv-x="0" 
d="M-272 1421h542v-215h-542v215z" />
    <glyph glyph-name="uni0306" unicode="&#x306;" horiz-adv-x="0" 
d="M-307 1440h221q15 -80 86 -80q43 0 61 21t25 59h219q-6 -52 -24.5 -97.5t-53 -86.5t-94 -65t-137.5 -24q-76 0 -135.5 24t-93.5 64.5t-52.5 87t-21.5 97.5z" />
    <glyph glyph-name="uni0307" unicode="&#x307;" horiz-adv-x="0" 
d="M158 1190h-316v258h316v-258z" />
    <glyph glyph-name="uni0308" unicode="&#x308;" horiz-adv-x="0" 
d="M-51 1190h-254v258h254v-258zM305 1190h-252v258h252v-258z" />
    <glyph glyph-name="uni0309" unicode="&#x309;" horiz-adv-x="0" 
d="M109 1174h-228q44 47 60 72t16 52q0 18 -12.5 29.5t-36.5 11.5q-40 0 -82 -22l-55 153q92 58 221 58q104 0 158.5 -46.5t54.5 -123.5q0 -97 -96 -184z" />
    <glyph glyph-name="uni030A" unicode="&#x30a;" horiz-adv-x="0" 
d="M2 1149q-101 0 -160 54.5t-59 139.5q0 86 58 141.5t159 55.5t160 -53.5t59 -140.5q0 -89 -60 -143t-157 -54zM0 1272q38 0 58 20t20 51q0 32 -19.5 54t-56.5 22q-39 0 -58.5 -22t-19.5 -54q0 -29 19.5 -50t56.5 -21z" />
    <glyph glyph-name="uni030B" unicode="&#x30b;" horiz-adv-x="0" 
d="M-172 1176h-213l160 290h272zM195 1176h-213l159 290h273z" />
    <glyph glyph-name="uni030C" unicode="&#x30c;" horiz-adv-x="0" 
d="M160 1176h-324l-176 270h260l80 -125l76 125h264z" />
    <glyph glyph-name="uni031B" unicode="&#x31b;" horiz-adv-x="0" 
d="M-53 920l-103 182q64 9 64 88q0 51 -19 113h254q15 -59 15 -127q0 -99 -50.5 -168t-160.5 -88z" />
    <glyph glyph-name="uni0323" unicode="&#x323;" horiz-adv-x="0" 
d="M147 -379h-299v279h299v-279z" />
    <glyph glyph-name="uni0324" unicode="&#x324;" horiz-adv-x="0" 
d="M-51 -410h-254v258h254v-258zM305 -410h-252v258h252v-258z" />
    <glyph glyph-name="uni0326" unicode="&#x326;" horiz-adv-x="0" 
d="M59 -451h-266q69 149 88 353h301q-9 -101 -44 -199t-79 -154z" />
    <glyph glyph-name="uni0327" unicode="&#x327;" horiz-adv-x="0" 
d="M-70 10h185l-43 -63q147 -51 147 -174q0 -88 -63.5 -139.5t-175.5 -51.5q-114 0 -185 35l43 150q40 -21 96 -21q50 0 50 33q0 44 -119 59v64z" />
    <glyph glyph-name="uni0328" unicode="&#x328;" horiz-adv-x="0" 
d="M-76 43l205 -43q-72 -65 -72 -125q0 -31 21 -50.5t57 -19.5q23 0 64 9l16 -187q-62 -37 -190 -37q-115 0 -178.5 55.5t-63.5 151.5q0 72 38 136t103 110z" />
    <glyph glyph-name="uni032E" unicode="&#x32e;" horiz-adv-x="0" 
d="M-307 -98h221q15 -80 86 -80q43 0 61 21t25 59h219q-6 -52 -24.5 -97.5t-53 -86.5t-94 -65t-137.5 -24q-76 0 -135.5 24t-93.5 64.5t-52.5 87t-21.5 97.5z" />
    <glyph glyph-name="uni0331" unicode="&#x331;" horiz-adv-x="0" 
d="M-272 -121h542v-215h-542v215z" />
    <glyph glyph-name="pi" unicode="&#x3c0;" horiz-adv-x="1030" 
d="M590 0v838h-170v-838h-297v838q-83 0 -119 -7v236q61 10 305 10h699v-243h-117v-834h-301z" />
    <glyph glyph-name="uni1E0C" unicode="&#x1e0c;" horiz-adv-x="1075" 
d="M104 0v1382h396q268 0 388 -158.5t120 -504.5q0 -374 -121.5 -546.5t-399.5 -172.5h-383zM424 1139v-897h59q75 0 115.5 42.5t58 144.5t17.5 294q0 239 -39 327.5t-150 88.5h-61zM641 -379h-299v279h299v-279z" />
    <glyph glyph-name="uni1E0D" unicode="&#x1e0d;" horiz-adv-x="991" 
d="M588 1448h313v-1129q0 -262 2 -319h-299q-4 20 -10 106q-60 -124 -232 -124q-157 0 -232 136t-75 431q0 269 87.5 408t258.5 139q74 0 120.5 -22.5t66.5 -55.5v430zM373 545q0 -180 24 -249t84 -69q68 0 89.5 66t21.5 260q0 179 -18.5 236t-84.5 57q-40 0 -63.5 -22.5
t-38 -90t-14.5 -188.5zM641 -379h-299v279h299v-279z" />
    <glyph glyph-name="uni1E0E" unicode="&#x1e0e;" horiz-adv-x="1075" 
d="M104 0v1382h396q268 0 388 -158.5t120 -504.5q0 -374 -121.5 -546.5t-399.5 -172.5h-383zM424 1139v-897h59q75 0 115.5 42.5t58 144.5t17.5 294q0 239 -39 327.5t-150 88.5h-61zM233 -119h543v-215h-543v215z" />
    <glyph glyph-name="uni1E0F" unicode="&#x1e0f;" horiz-adv-x="991" 
d="M588 1448h313v-1129q0 -262 2 -319h-299q-4 20 -10 106q-60 -124 -232 -124q-157 0 -232 136t-75 431q0 269 87.5 408t258.5 139q74 0 120.5 -22.5t66.5 -55.5v430zM373 545q0 -180 24 -249t84 -69q68 0 89.5 66t21.5 260q0 179 -18.5 236t-84.5 57q-40 0 -63.5 -22.5
t-38 -90t-14.5 -188.5zM221 -121h543v-215h-543v215z" />
    <glyph glyph-name="uni1E20" unicode="&#x1e20;" horiz-adv-x="1067" 
d="M987 793v-793h-233q-11 66 -13 109q-76 -136 -272 -136q-207 0 -304 168t-97 541q0 202 33.5 344.5t99 225t153 119t205.5 36.5q80 0 145.5 -18t108.5 -45.5t75.5 -67t49.5 -76.5t28 -80.5t13.5 -71.5t3.5 -57h-317q-2 27 -4 44.5t-9 43t-19 40.5t-33.5 26.5t-51.5 11.5
q-86 0 -117 -111.5t-31 -365.5q0 -257 29 -357t113 -100q69 0 97 57t28 175v88h-136v250h455zM250 1702h561v-209h-561v209z" />
    <glyph glyph-name="uni1E21" unicode="&#x1e21;" horiz-adv-x="993" 
d="M901 739v-643q0 -122 -20 -207t-69 -149.5t-135 -95.5t-214 -31q-89 0 -158.5 19t-112.5 49t-71 73t-39.5 86t-13.5 92h307q2 -18 5.5 -29.5t13 -27.5t30.5 -24.5t53 -8.5q67 0 90 51.5t23 169.5v74q-61 -117 -221 -117q-314 0 -314 519q0 277 87 417t249 140
q155 0 201 -107q2 24 12 88h301q-4 -132 -4 -338zM375 545q0 -154 26.5 -217.5t83.5 -63.5q65 0 87 67.5t22 239.5q0 55 -1 86t-4 67.5t-9.5 55t-17.5 36t-28.5 24t-41.5 6.5q-60 0 -88.5 -67.5t-28.5 -233.5zM223 1421h543v-215h-543v215z" />
    <glyph glyph-name="uni1E24" unicode="&#x1e24;" horiz-adv-x="1085" 
d="M104 0v1382h318v-522h240v522h319v-1382h-319v594h-240v-594h-318zM690 -379h-299v279h299v-279z" />
    <glyph glyph-name="uni1E25" unicode="&#x1e25;" horiz-adv-x="997" 
d="M92 1448h314v-465q70 113 235 113q264 0 264 -330v-766h-313v713q0 69 -18 101t-72 32q-56 0 -76 -39.5t-20 -126.5v-680h-314v1448zM647 -379h-299v279h299v-279z" />
    <glyph glyph-name="uni1E2A" unicode="&#x1e2a;" horiz-adv-x="1085" 
d="M104 0v1382h318v-522h240v522h319v-1382h-319v594h-240v-594h-318zM236 -98h221q15 -80 86 -80q43 0 61 21t25 59h219q-6 -52 -24.5 -97.5t-53 -86.5t-94 -65t-137.5 -24q-76 0 -135.5 24t-93.5 64.5t-52.5 87t-21.5 97.5z" />
    <glyph glyph-name="uni1E2B" unicode="&#x1e2b;" horiz-adv-x="997" 
d="M92 1448h314v-465q70 113 235 113q264 0 264 -330v-766h-313v713q0 69 -18 101t-72 32q-56 0 -76 -39.5t-20 -126.5v-680h-314v1448zM193 -90h221q15 -80 86 -80q43 0 61 21t25 59h219q-4 -41 -16 -78t-36.5 -73t-58 -62.5t-84.5 -42.5t-114 -16q-76 0 -135.5 24
t-93.5 64t-52.5 86.5t-21.5 97.5z" />
    <glyph glyph-name="uni1E36" unicode="&#x1e36;" horiz-adv-x="874" 
d="M104 0v1382h318v-1124h438l-29 -258h-727zM625 -379h-299v279h299v-279z" />
    <glyph glyph-name="uni1E37" unicode="&#x1e37;" horiz-adv-x="497" 
d="M406 0h-314v1448h314v-1448zM395 -379h-299v279h299v-279z" />
    <glyph glyph-name="uni1E38" unicode="&#x1e38;" horiz-adv-x="874" 
d="M104 0v1382h318v-1124h438l-29 -258h-727zM625 -379h-299v279h299v-279zM-16 1696h561v-209h-561v209z" />
    <glyph glyph-name="uni1E39" unicode="&#x1e39;" horiz-adv-x="497" 
d="M406 0h-314v1448h314v-1448zM-25 1737h543v-215h-543v215zM395 -379h-299v279h299v-279z" />
    <glyph glyph-name="uni1E3A" unicode="&#x1e3a;" horiz-adv-x="874" 
d="M104 0v1382h318v-1124h438l-29 -258h-727zM199 -121h542v-215h-542v215z" />
    <glyph glyph-name="uni1E3B" unicode="&#x1e3b;" horiz-adv-x="497" 
d="M406 0h-314v1448h314v-1448zM-25 -121h543v-215h-543v215z" />
    <glyph glyph-name="uni1E42" unicode="&#x1e42;" horiz-adv-x="1349" 
d="M946 0v442q0 334 8 670h-8q-9 -62 -42.5 -311.5t-62.5 -445.5t-57 -355h-256q-26 197 -76 592t-67 522h-10q12 -324 12 -682v-432h-281v1382h449q76 -489 111 -829h6q12 92 32.5 220.5t50.5 310.5t48 298h442v-1382h-299zM803 -379h-299v279h299v-279z" />
    <glyph glyph-name="uni1E43" unicode="&#x1e43;" horiz-adv-x="1468" 
d="M94 0v743q0 244 -4 334h297q10 -45 10 -98q81 117 232 117q160 0 215 -131q89 131 262 131q129 0 199.5 -82t70.5 -244v-770h-305v733q0 113 -84 113q-53 0 -74.5 -37.5t-21.5 -118.5v-690h-309v731q0 115 -84 115q-52 0 -74.5 -37.5t-22.5 -122.5v-686h-307zM883 -379
h-299v279h299v-279z" />
    <glyph glyph-name="uni1E44" unicode="&#x1e44;" horiz-adv-x="1097" 
d="M387 0h-283v1382h349q248 -764 272 -870h6q-18 224 -18 616v254h280v-1382h-342q-254 835 -274 918h-6q16 -266 16 -648v-270zM698 1473h-301v260h301v-260z" />
    <glyph glyph-name="uni1E45" unicode="&#x1e45;" horiz-adv-x="997" 
d="M92 0v739q0 283 -2 338h301q8 -46 8 -98q77 117 236 117q135 0 202.5 -82.5t67.5 -239.5v-774h-313v717q0 67 -18 98t-70 31q-53 0 -75.5 -34t-22.5 -122v-690h-314zM657 1194h-315v258h315v-258z" />
    <glyph glyph-name="uni1E46" unicode="&#x1e46;" horiz-adv-x="1097" 
d="M387 0h-283v1382h349q248 -764 272 -870h6q-18 224 -18 616v254h280v-1382h-342q-254 835 -274 918h-6q16 -266 16 -648v-270zM696 -379h-299v279h299v-279z" />
    <glyph glyph-name="uni1E47" unicode="&#x1e47;" horiz-adv-x="997" 
d="M92 0v739q0 283 -2 338h301q8 -46 8 -98q77 117 236 117q135 0 202.5 -82.5t67.5 -239.5v-774h-313v717q0 67 -18 98t-70 31q-53 0 -75.5 -34t-22.5 -122v-690h-314zM647 -379h-299v279h299v-279z" />
    <glyph glyph-name="uni1E48" unicode="&#x1e48;" horiz-adv-x="1097" 
d="M387 0h-283v1382h349q248 -764 272 -870h6q-18 224 -18 616v254h280v-1382h-342q-254 835 -274 918h-6q16 -266 16 -648v-270zM276 -113h543v-215h-543v215z" />
    <glyph glyph-name="uni1E49" unicode="&#x1e49;" horiz-adv-x="997" 
d="M92 0v739q0 283 -2 338h301q8 -46 8 -98q77 117 236 117q135 0 202.5 -82.5t67.5 -239.5v-774h-313v717q0 67 -18 98t-70 31q-53 0 -75.5 -34t-22.5 -122v-690h-314zM227 -121h543v-215h-543v215z" />
    <glyph glyph-name="uni1E5A" unicode="&#x1e5a;" horiz-adv-x="1032" 
d="M487 565h-69v-565h-314v1382h467q199 0 301.5 -97t102.5 -286q0 -130 -52 -207t-126 -106q84 -38 121.5 -114t37.5 -222v-49q0 -187 15 -301h-307q-23 76 -23 311v47q0 123 -31.5 165t-122.5 42zM418 1147v-342h74q92 0 128.5 39t36.5 139q0 86 -34 125t-111 39h-94z
M676 -365h-299v279h299v-279z" />
    <glyph glyph-name="uni1E5B" unicode="&#x1e5b;" horiz-adv-x="692" 
d="M92 0v711q0 292 -2 366h299q6 -75 6 -174q28 90 99 141.5t176 51.5v-340q-143 3 -203.5 -46.5t-60.5 -187.5v-522h-314zM397 -379h-299v279h299v-279z" />
    <glyph glyph-name="uni1E5C" unicode="&#x1e5c;" horiz-adv-x="1032" 
d="M487 565h-69v-565h-314v1382h467q199 0 301.5 -97t102.5 -286q0 -130 -52 -207t-126 -106q84 -38 121.5 -114t37.5 -222v-49q0 -187 15 -301h-307q-23 76 -23 311v47q0 123 -31.5 165t-122.5 42zM418 1147v-342h74q92 0 128.5 39t36.5 139q0 86 -34 125t-111 39h-94z
M676 -365h-299v279h299v-279zM233 1702h562v-209h-562v209z" />
    <glyph glyph-name="uni1E5D" unicode="&#x1e5d;" horiz-adv-x="692" 
d="M92 0v711q0 292 -2 366h299q6 -75 6 -174q28 90 99 141.5t176 51.5v-340q-143 3 -203.5 -46.5t-60.5 -187.5v-522h-314zM98 1421h543v-215h-543v215zM397 -379h-299v279h299v-279z" />
    <glyph glyph-name="uni1E5E" unicode="&#x1e5e;" horiz-adv-x="1032" 
d="M487 565h-69v-565h-314v1382h467q199 0 301.5 -97t102.5 -286q0 -130 -52 -207t-126 -106q84 -38 121.5 -114t37.5 -222v-49q0 -187 15 -301h-307q-23 76 -23 311v47q0 123 -31.5 165t-122.5 42zM418 1147v-342h74q92 0 128.5 39t36.5 139q0 86 -34 125t-111 39h-94z
M256 -115h543v-215h-543v215z" />
    <glyph glyph-name="uni1E5F" unicode="&#x1e5f;" horiz-adv-x="692" 
d="M92 0v711q0 292 -2 366h299q6 -75 6 -174q28 90 99 141.5t176 51.5v-340q-143 3 -203.5 -46.5t-60.5 -187.5v-522h-314zM-14 -121h542v-215h-542v215z" />
    <glyph glyph-name="uni1E60" unicode="&#x1e60;" horiz-adv-x="983" 
d="M43 401h313q7 -93 37.5 -142.5t98.5 -49.5q120 0 120 141q0 72 -45 123t-166 113q-183 94 -256 187t-73 243q0 182 107.5 287.5t309.5 105.5q94 0 167.5 -23t119.5 -61.5t76 -93t42 -112t13 -124.5h-305q-3 55 -12 90.5t-34.5 62t-68.5 26.5q-102 0 -102 -123
q0 -62 35.5 -101.5t146.5 -93.5q134 -68 210 -129.5t115.5 -144.5t39.5 -197q0 -88 -26.5 -161.5t-79 -130t-139.5 -88.5t-200 -32q-433 0 -444 428zM641 1495h-301v260h301v-260z" />
    <glyph glyph-name="uni1E61" unicode="&#x1e61;" horiz-adv-x="870" 
d="M37 334h295q0 -57 24.5 -94t79.5 -37q88 0 88 88q0 47 -29.5 75t-115.5 60q-185 68 -252.5 143t-67.5 205q0 64 20.5 119.5t62.5 102t115.5 73.5t170.5 27q90 0 159.5 -22.5t109 -56.5t64.5 -81t33.5 -89t8.5 -87h-283q0 123 -90 123q-36 0 -56 -21t-20 -57q0 -43 32 -69
t124 -60q173 -63 245 -141.5t72 -206.5q0 -167 -98.5 -256.5t-298.5 -89.5q-106 0 -184.5 29t-122.5 80t-64.5 111.5t-21.5 131.5zM592 1194h-316v258h316v-258z" />
    <glyph glyph-name="uni1E62" unicode="&#x1e62;" horiz-adv-x="983" 
d="M43 401h313q7 -93 37.5 -142.5t98.5 -49.5q120 0 120 141q0 72 -45 123t-166 113q-183 94 -256 187t-73 243q0 182 107.5 287.5t309.5 105.5q94 0 167.5 -23t119.5 -61.5t76 -93t42 -112t13 -124.5h-305q-3 55 -12 90.5t-34.5 62t-68.5 26.5q-102 0 -102 -123
q0 -62 35.5 -101.5t146.5 -93.5q134 -68 210 -129.5t115.5 -144.5t39.5 -197q0 -88 -26.5 -161.5t-79 -130t-139.5 -88.5t-200 -32q-433 0 -444 428zM639 -379h-299v279h299v-279z" />
    <glyph glyph-name="uni1E63" unicode="&#x1e63;" horiz-adv-x="870" 
d="M37 334h295q0 -57 24.5 -94t79.5 -37q88 0 88 88q0 47 -29.5 75t-115.5 60q-185 68 -252.5 143t-67.5 205q0 64 20.5 119.5t62.5 102t115.5 73.5t170.5 27q90 0 159.5 -22.5t109 -56.5t64.5 -81t33.5 -89t8.5 -87h-283q0 123 -90 123q-36 0 -56 -21t-20 -57q0 -43 32 -69
t124 -60q173 -63 245 -141.5t72 -206.5q0 -167 -98.5 -256.5t-298.5 -89.5q-106 0 -184.5 29t-122.5 80t-64.5 111.5t-21.5 131.5zM582 -379h-299v279h299v-279z" />
    <glyph glyph-name="uni1E6C" unicode="&#x1e6c;" horiz-adv-x="897" 
d="M291 0v1122h-273v260h861v-260h-271v-1122h-317zM598 -379h-299v279h299v-279z" />
    <glyph glyph-name="uni1E6D" unicode="&#x1e6d;" horiz-adv-x="610" 
d="M-2 829v248h129v254h309v-254h148v-248h-148v-514q0 -46 16 -66t66 -20q31 0 49 2v-223q-58 -22 -174 -22q-151 0 -210.5 62t-59.5 212v569h-125zM467 -379h-299v279h299v-279z" />
    <glyph glyph-name="uni1E6E" unicode="&#x1e6e;" horiz-adv-x="897" 
d="M291 0v1122h-273v260h861v-260h-271v-1122h-317zM176 -113h543v-215h-543v215z" />
    <glyph glyph-name="uni1E6F" unicode="&#x1e6f;" horiz-adv-x="610" 
d="M-2 829v248h129v254h309v-254h148v-248h-148v-514q0 -46 16 -66t66 -20q31 0 49 2v-223q-58 -22 -174 -22q-151 0 -210.5 62t-59.5 212v569h-125zM68 -121h542v-215h-542v215z" />
    <glyph glyph-name="Wgrave" unicode="&#x1e80;" horiz-adv-x="1437" 
d="M571 0h-321l-230 1382h334q67 -589 90 -950h9q21 148 73 487t70 463h270q87 -565 135 -940h11q15 183 98 940h307l-246 -1382h-319q-10 57 -32.5 189t-37 217t-33 205t-30.5 216h-8q-16 -122 -40 -265.5t-56.5 -319.5t-43.5 -242zM307 1722h369l213 -239h-287z" />
    <glyph glyph-name="wgrave" unicode="&#x1e81;" horiz-adv-x="1370" 
d="M8 1077h334q62 -447 88 -749h8q11 102 117 749h285q99 -601 112 -749h6q1 14 8 78t13 119t16 140.5t24.5 191t31.5 220.5h313l-248 -1077h-325q-84 499 -103 643h-6q-5 -40 -13 -92.5t-21.5 -124t-24.5 -126t-30.5 -152t-29.5 -148.5h-325zM303 1456h346l187 -276h-256z
" />
    <glyph glyph-name="Wacute" unicode="&#x1e82;" horiz-adv-x="1437" 
d="M571 0h-321l-230 1382h334q67 -589 90 -950h9q21 148 73 487t70 463h270q87 -565 135 -940h11q15 183 98 940h307l-246 -1382h-319q-10 57 -32.5 189t-37 217t-33 205t-30.5 216h-8q-16 -122 -40 -265.5t-56.5 -319.5t-43.5 -242zM780 1722h365l-295 -239h-285z" />
    <glyph glyph-name="wacute" unicode="&#x1e83;" horiz-adv-x="1370" 
d="M8 1077h334q62 -447 88 -749h8q11 102 117 749h285q99 -601 112 -749h6q1 14 8 78t13 119t16 140.5t24.5 191t31.5 220.5h313l-248 -1077h-325q-84 499 -103 643h-6q-5 -40 -13 -92.5t-21.5 -124t-24.5 -126t-30.5 -152t-29.5 -148.5h-325zM739 1456h342l-274 -276h-258z
" />
    <glyph glyph-name="Wdieresis" unicode="&#x1e84;" horiz-adv-x="1437" 
d="M571 0h-321l-230 1382h334q67 -589 90 -950h9q21 148 73 487t70 463h270q87 -565 135 -940h11q15 183 98 940h307l-246 -1382h-319q-10 57 -32.5 189t-37 217t-33 205t-30.5 216h-8q-16 -122 -40 -265.5t-56.5 -319.5t-43.5 -242zM664 1479h-250v254h250v-254zM1024 1479
h-250v254h250v-254z" />
    <glyph glyph-name="wdieresis" unicode="&#x1e85;" horiz-adv-x="1370" 
d="M8 1077h334q62 -447 88 -749h8q11 102 117 749h285q99 -601 112 -749h6q1 14 8 78t13 119t16 140.5t24.5 191t31.5 220.5h313l-248 -1077h-325q-84 499 -103 643h-6q-5 -40 -13 -92.5t-21.5 -124t-24.5 -126t-30.5 -152t-29.5 -148.5h-325zM633 1190h-254v258h254v-258z
M989 1190h-252v258h252v-258z" />
    <glyph glyph-name="uni1E8E" unicode="&#x1e8e;" horiz-adv-x="946" 
d="M631 0h-318v449q0 35 -12 63l-324 870h351q113 -415 155 -618q21 90 80.5 318.5t77.5 299.5h328l-328 -872q-10 -27 -10 -55v-455zM623 1487h-301v260h301v-260z" />
    <glyph glyph-name="uni1E8F" unicode="&#x1e8f;" horiz-adv-x="903" 
d="M-4 1077h342q6 -33 25.5 -132t27.5 -143t23 -125.5t22.5 -127t15 -97.5t9.5 -85h6q29 207 123 710h315q-13 -51 -134.5 -510.5t-147.5 -556.5q-34 -127 -69 -204t-83.5 -119.5t-103.5 -57t-140 -14.5q-64 0 -129 10v248q36 -4 76 -4q63 0 92 26.5t41 94.5zM608 1190h-315
v258h315v-258z" />
    <glyph glyph-name="uni1E92" unicode="&#x1e92;" horiz-adv-x="917" 
d="M37 0v203l483 919h-446v260h788v-229l-454 -893h483l-37 -260h-817zM606 -379h-299v279h299v-279z" />
    <glyph glyph-name="uni1E93" unicode="&#x1e93;" horiz-adv-x="806" 
d="M33 0v213q144 224 379 612h-351v252h707v-221q-351 -584 -365 -606h375l-30 -250h-715zM551 -379h-299v279h299v-279z" />
    <glyph glyph-name="uni1E97" unicode="&#x1e97;" horiz-adv-x="610" 
d="M-2 829v248h129v254h309v-254h148v-248h-148v-514q0 -46 16 -66t66 -20q31 0 49 2v-223q-58 -22 -174 -22q-151 0 -210.5 62t-59.5 212v569h-125zM233 1405h-253v258h253v-258zM590 1405h-252v258h252v-258z" />
    <glyph glyph-name="uni1E9E" unicode="&#x1e9e;" horiz-adv-x="1130" 
d="M424 1004v-1004h-322v1006q0 110 32.5 189t94.5 125t143.5 66.5t188.5 20.5q129 0 222.5 -31.5t145 -88t74.5 -124t23 -149.5v-47l-211 -176v-7l88 -82q99 -85 139.5 -165.5t40.5 -184.5q0 -171 -94.5 -271.5t-283.5 -100.5q-136 0 -216 38v250q77 -53 170 -53
q55 0 82 27.5t27 72.5q0 51 -23.5 86.5t-87.5 90.5l-116 104q-59 51 -59 129.5t61 136.5l164 154q0 32 -4.5 55t-17.5 47t-43 36.5t-75 12.5t-75 -14t-44 -39.5t-19 -51t-5 -58.5z" />
    <glyph glyph-name="uni1EA0" unicode="&#x1ea0;" horiz-adv-x="1015" 
d="M627 297h-252l-47 -297h-318l273 1382h446l277 -1382h-330zM416 563h170q-45 276 -80 555h-10q-19 -178 -80 -555zM655 -358h-299v278h299v-278z" />
    <glyph glyph-name="uni1EA1" unicode="&#x1ea1;" horiz-adv-x="954" 
d="M860 772v-506q0 -54 8 -266h-282q-9 34 -13 94q-77 -112 -239 -112q-137 0 -212 93t-75 238q0 174 110.5 264.5t309.5 90.5q66 0 86 -2v104q0 53 -16 81t-68 28q-50 0 -67.5 -29t-20.5 -94h-293q7 340 393 340q379 0 379 -324zM557 418v51q-18 2 -59 2q-142 0 -142 -131
q0 -50 22.5 -82.5t70.5 -32.5q65 0 86.5 46.5t21.5 146.5zM627 -379h-299v279h299v-279z" />
    <glyph glyph-name="uni1EA2" unicode="&#x1ea2;" horiz-adv-x="1015" 
d="M627 297h-252l-47 -297h-318l273 1382h446l277 -1382h-330zM416 563h170q-45 276 -80 555h-10q-19 -178 -80 -555zM608 1466h-227q43 47 59.5 72.5t16.5 52.5q0 18 -12.5 29.5t-36.5 11.5q-40 0 -82 -22l-56 153q92 58 222 58q104 0 158.5 -46.5t54.5 -123.5
q0 -97 -97 -185z" />
    <glyph glyph-name="uni1EA3" unicode="&#x1ea3;" horiz-adv-x="954" 
d="M860 772v-506q0 -54 8 -266h-282q-9 34 -13 94q-77 -112 -239 -112q-137 0 -212 93t-75 238q0 174 110.5 264.5t309.5 90.5q66 0 86 -2v104q0 53 -16 81t-68 28q-50 0 -67.5 -29t-20.5 -94h-293q7 340 393 340q379 0 379 -324zM557 418v51q-18 2 -59 2q-142 0 -142 -131
q0 -50 22.5 -82.5t70.5 -32.5q65 0 86.5 46.5t21.5 146.5zM588 1174h-228q44 47 60 72t16 52q0 18 -12.5 29.5t-36.5 11.5q-40 0 -82 -22l-55 153q92 58 221 58q104 0 158.5 -46.5t54.5 -123.5q0 -97 -96 -184z" />
    <glyph glyph-name="uni1EA4" unicode="&#x1ea4;" horiz-adv-x="1015" 
d="M627 297h-252l-47 -297h-318l273 1382h446l277 -1382h-330zM416 563h170q-45 276 -80 555h-10q-19 -178 -80 -555zM352 1679h310l194 -221h-262l-88 101l-86 -101h-264zM926 1833h297l-242 -209h-217z" />
    <glyph glyph-name="uni1EA5" unicode="&#x1ea5;" horiz-adv-x="954" 
d="M860 772v-506q0 -54 8 -266h-282q-9 34 -13 94q-77 -112 -239 -112q-137 0 -212 93t-75 238q0 174 110.5 264.5t309.5 90.5q66 0 86 -2v104q0 53 -16 81t-68 28q-50 0 -67.5 -29t-20.5 -94h-293q7 340 393 340q379 0 379 -324zM557 418v51q-18 2 -59 2q-142 0 -142 -131
q0 -50 22.5 -82.5t70.5 -32.5q65 0 86.5 46.5t21.5 146.5zM338 1415h285l182 -241h-244l-84 114l-82 -114h-243zM864 1593h260l-221 -231h-198z" />
    <glyph glyph-name="uni1EA6" unicode="&#x1ea6;" horiz-adv-x="1015" 
d="M627 297h-252l-47 -297h-318l273 1382h446l277 -1382h-330zM416 563h170q-45 276 -80 555h-10q-19 -178 -80 -555zM352 1679h310l194 -221h-262l-88 101l-86 -101h-264zM602 1847h307l164 -213h-209z" />
    <glyph glyph-name="uni1EA7" unicode="&#x1ea7;" horiz-adv-x="954" 
d="M860 772v-506q0 -54 8 -266h-282q-9 34 -13 94q-77 -112 -239 -112q-137 0 -212 93t-75 238q0 174 110.5 264.5t309.5 90.5q66 0 86 -2v104q0 53 -16 81t-68 28q-50 0 -67.5 -29t-20.5 -94h-293q7 340 393 340q379 0 379 -324zM557 418v51q-18 2 -59 2q-142 0 -142 -131
q0 -50 22.5 -82.5t70.5 -32.5q65 0 86.5 46.5t21.5 146.5zM338 1415h285l182 -241h-244l-84 114l-82 -114h-243zM580 1599h278l166 -239h-207z" />
    <glyph glyph-name="uni1EA8" unicode="&#x1ea8;" horiz-adv-x="1015" 
d="M627 297h-252l-47 -297h-318l273 1382h446l277 -1382h-330zM416 563h170q-45 276 -80 555h-10q-19 -178 -80 -555zM965 1628h-187q68 65 68 109q0 30 -45 30q-38 0 -80 -22l-47 127q79 61 198 61q88 0 133.5 -40.5t45.5 -108.5q0 -87 -86 -156zM352 1679h310l194 -221
h-262l-88 101l-86 -101h-264z" />
    <glyph glyph-name="uni1EA9" unicode="&#x1ea9;" horiz-adv-x="954" 
d="M860 772v-506q0 -54 8 -266h-282q-9 34 -13 94q-77 -112 -239 -112q-137 0 -212 93t-75 238q0 174 110.5 264.5t309.5 90.5q66 0 86 -2v104q0 53 -16 81t-68 28q-50 0 -67.5 -29t-20.5 -94h-293q7 340 393 340q379 0 379 -324zM557 418v51q-18 2 -59 2q-142 0 -142 -131
q0 -50 22.5 -82.5t70.5 -32.5q65 0 86.5 46.5t21.5 146.5zM930 1360h-197q76 70 76 110q0 33 -43 33q-44 0 -78 -22l-49 131q87 57 197 57q89 0 133.5 -39.5t44.5 -109.5q0 -98 -84 -160zM338 1417h285l186 -243h-246l-86 114l-82 -114h-248z" />
    <glyph glyph-name="uni1EAA" unicode="&#x1eaa;" horiz-adv-x="1015" 
d="M627 297h-252l-47 -297h-318l273 1382h446l277 -1382h-330zM416 563h170q-45 276 -80 555h-10q-19 -178 -80 -555zM362 1694h-172v26q0 187 170 187q65 0 150.5 -28t110.5 -28q17 0 25.5 7.5t8.5 29.5v15h166v-25q0 -106 -43 -146t-119 -40q-59 0 -149 26.5t-115 26.5
q-33 0 -33 -35v-16zM350 1636h316l198 -188h-274l-88 82l-80 -82h-270z" />
    <glyph glyph-name="uni1EAB" unicode="&#x1eab;" horiz-adv-x="954" 
d="M860 772v-506q0 -54 8 -266h-282q-9 34 -13 94q-77 -112 -239 -112q-137 0 -212 93t-75 238q0 174 110.5 264.5t309.5 90.5q66 0 86 -2v104q0 53 -16 81t-68 28q-50 0 -67.5 -29t-20.5 -94h-293q7 340 393 340q379 0 379 -324zM557 418v51q-18 2 -59 2q-142 0 -142 -131
q0 -50 22.5 -82.5t70.5 -32.5q65 0 86.5 46.5t21.5 146.5zM350 1432h-174v26q0 193 164 193q48 0 96.5 -14t84.5 -28t54 -14q17 0 25 7.5t8 27.5v17h170v-25q0 -192 -164 -192q-55 0 -132.5 26.5t-98.5 26.5q-19 0 -26 -7.5t-7 -27.5v-16zM322 1366h311l198 -207h-270
l-88 92l-84 -92h-264z" />
    <glyph glyph-name="uni1EAC" unicode="&#x1eac;" horiz-adv-x="1015" 
d="M627 297h-252l-47 -297h-318l273 1382h446l277 -1382h-330zM416 563h170q-45 276 -80 555h-10q-19 -178 -80 -555zM655 -365h-299v279h299v-279zM342 1700h336l186 -238h-274l-82 107l-80 -107h-278z" />
    <glyph glyph-name="uni1EAD" unicode="&#x1ead;" horiz-adv-x="954" 
d="M860 772v-506q0 -54 8 -266h-282q-9 34 -13 94q-77 -112 -239 -112q-137 0 -212 93t-75 238q0 174 110.5 264.5t309.5 90.5q66 0 86 -2v104q0 53 -16 81t-68 28q-50 0 -67.5 -29t-20.5 -94h-293q7 340 393 340q379 0 379 -324zM557 418v51q-18 2 -59 2q-142 0 -142 -131
q0 -50 22.5 -82.5t70.5 -32.5q65 0 86.5 46.5t21.5 146.5zM627 -379h-299v279h299v-279zM319 1446h324l176 -272h-262l-80 126l-74 -126h-264z" />
    <glyph glyph-name="uni1EAE" unicode="&#x1eae;" horiz-adv-x="1015" 
d="M627 297h-252l-47 -297h-318l273 1382h446l277 -1382h-330zM416 563h170q-45 276 -80 555h-10q-19 -178 -80 -555zM190 1686h211q26 -68 107 -68t106 68h213q-8 -43 -28 -81.5t-55.5 -75.5t-97 -59t-140.5 -22q-80 0 -141.5 23t-96.5 60.5t-53.5 76t-24.5 78.5zM561 1913
h352l-278 -174h-260z" />
    <glyph glyph-name="uni1EAF" unicode="&#x1eaf;" horiz-adv-x="954" 
d="M860 772v-506q0 -54 8 -266h-282q-9 34 -13 94q-77 -112 -239 -112q-137 0 -212 93t-75 238q0 174 110.5 264.5t309.5 90.5q66 0 86 -2v104q0 53 -16 81t-68 28q-50 0 -67.5 -29t-20.5 -94h-293q7 340 393 340q379 0 379 -324zM557 418v51q-18 2 -59 2q-142 0 -142 -131
q0 -50 22.5 -82.5t70.5 -32.5q65 0 86.5 46.5t21.5 146.5zM168 1401h209q17 -74 102 -74t101 74h208q-7 -46 -26.5 -86t-54 -76.5t-94.5 -58t-138 -21.5q-75 0 -133 21.5t-93 58.5t-54.5 77t-26.5 85zM532 1638h330l-264 -188h-248z" />
    <glyph glyph-name="uni1EB0" unicode="&#x1eb0;" horiz-adv-x="1015" 
d="M627 297h-252l-47 -297h-318l273 1382h446l277 -1382h-330zM416 563h170q-45 276 -80 555h-10q-19 -178 -80 -555zM190 1686h211q26 -68 107 -68t106 68h213q-8 -43 -28 -81.5t-55.5 -75.5t-97 -59t-140.5 -22q-80 0 -141.5 23t-96.5 60.5t-53.5 76t-24.5 78.5zM92 1913
h393l185 -174h-291z" />
    <glyph glyph-name="uni1EB1" unicode="&#x1eb1;" horiz-adv-x="954" 
d="M860 772v-506q0 -54 8 -266h-282q-9 34 -13 94q-77 -112 -239 -112q-137 0 -212 93t-75 238q0 174 110.5 264.5t309.5 90.5q66 0 86 -2v104q0 53 -16 81t-68 28q-50 0 -67.5 -29t-20.5 -94h-293q7 340 393 340q379 0 379 -324zM557 418v51q-18 2 -59 2q-142 0 -142 -131
q0 -50 22.5 -82.5t70.5 -32.5q65 0 86.5 46.5t21.5 146.5zM168 1401h209q17 -74 102 -74t101 74h208q-7 -46 -26.5 -86t-54 -76.5t-94.5 -58t-138 -21.5q-75 0 -133 21.5t-93 58.5t-54.5 77t-26.5 85zM90 1638h350l183 -188h-263z" />
    <glyph glyph-name="uni1EB2" unicode="&#x1eb2;" horiz-adv-x="1015" 
d="M627 297h-252l-47 -297h-318l273 1382h446l277 -1382h-330zM416 563h170q-45 276 -80 555h-10q-19 -178 -80 -555zM604 1735h-205q68 60 68 100q0 33 -43 33q-32 0 -76 -21l-49 127q83 56 205 56q91 0 137.5 -40.5t46.5 -109.5q0 -81 -84 -145zM188 1690h213
q10 -30 37 -50t70 -20q86 0 106 70h213q-7 -43 -27 -82.5t-56 -77t-97.5 -60t-140.5 -22.5q-80 0 -141.5 23.5t-96.5 61.5t-54 77t-26 80z" />
    <glyph glyph-name="uni1EB3" unicode="&#x1eb3;" horiz-adv-x="954" 
d="M860 772v-506q0 -54 8 -266h-282q-9 34 -13 94q-77 -112 -239 -112q-137 0 -212 93t-75 238q0 174 110.5 264.5t309.5 90.5q66 0 86 -2v104q0 53 -16 81t-68 28q-50 0 -67.5 -29t-20.5 -94h-293q7 340 393 340q379 0 379 -324zM557 418v51q-18 2 -59 2q-142 0 -142 -131
q0 -50 22.5 -82.5t70.5 -32.5q65 0 86.5 46.5t21.5 146.5zM565 1442h-196q73 58 73 104q0 35 -43 35q-31 0 -69 -20l-45 127q69 51 190 51q91 0 135.5 -39.5t44.5 -108.5q0 -92 -90 -149zM168 1401h209q17 -74 102 -74t101 74h208q-7 -46 -26.5 -86t-54 -76.5t-94.5 -58
t-138 -21.5q-75 0 -133 21.5t-93 58.5t-54.5 77t-26.5 85z" />
    <glyph glyph-name="uni1EB4" unicode="&#x1eb4;" horiz-adv-x="1015" 
d="M627 297h-252l-47 -297h-318l273 1382h446l277 -1382h-330zM416 563h170q-45 276 -80 555h-10q-19 -178 -80 -555zM365 1718h-172v25q0 186 167 186q66 0 151.5 -27.5t111.5 -27.5q32 0 32 37v14h168v-24q0 -105 -43 -146t-118 -41q-59 0 -149.5 25.5t-115.5 25.5
q-18 0 -25 -7t-7 -25v-15zM195 1675h208q24 -63 105 -63q82 0 106 63h209q-8 -42 -28.5 -80t-56 -73t-95.5 -55.5t-137 -20.5q-78 0 -138.5 22t-95.5 58t-53.5 73t-23.5 76z" />
    <glyph glyph-name="uni1EB5" unicode="&#x1eb5;" horiz-adv-x="954" 
d="M860 772v-506q0 -54 8 -266h-282q-9 34 -13 94q-77 -112 -239 -112q-137 0 -212 93t-75 238q0 174 110.5 264.5t309.5 90.5q66 0 86 -2v104q0 53 -16 81t-68 28q-50 0 -67.5 -29t-20.5 -94h-293q7 340 393 340q379 0 379 -324zM557 418v51q-18 2 -59 2q-142 0 -142 -131
q0 -50 22.5 -82.5t70.5 -32.5q65 0 86.5 46.5t21.5 146.5zM352 1450h-172v27q0 190 164 190q63 0 141 -27.5t95 -27.5q32 0 32 37v14h168v-23q0 -194 -164 -194q-55 0 -131.5 27.5t-97.5 27.5q-35 0 -35 -37v-14zM186 1386h199q23 -67 96 -67q31 0 51.5 11t28.5 24t14 32
h201q-14 -95 -87.5 -161t-211.5 -66q-136 0 -208.5 67t-82.5 160z" />
    <glyph glyph-name="uni1EB6" unicode="&#x1eb6;" horiz-adv-x="1015" 
d="M627 297h-252l-47 -297h-318l273 1382h446l277 -1382h-330zM416 563h170q-45 276 -80 555h-10q-19 -178 -80 -555zM655 -365h-299v279h299v-279zM193 1720h215q6 -36 32.5 -60t69.5 -24q86 0 98 84h215q-7 -52 -27 -96.5t-55.5 -84.5t-96.5 -63.5t-140 -23.5t-139 23
t-95.5 63t-54 85.5t-22.5 96.5z" />
    <glyph glyph-name="uni1EB7" unicode="&#x1eb7;" horiz-adv-x="954" 
d="M860 772v-506q0 -54 8 -266h-282q-9 34 -13 94q-77 -112 -239 -112q-137 0 -212 93t-75 238q0 174 110.5 264.5t309.5 90.5q66 0 86 -2v104q0 53 -16 81t-68 28q-50 0 -67.5 -29t-20.5 -94h-293q7 340 393 340q379 0 379 -324zM557 418v51q-18 2 -59 2q-142 0 -142 -131
q0 -50 22.5 -82.5t70.5 -32.5q65 0 86.5 46.5t21.5 146.5zM172 1440h221q15 -80 86 -80q43 0 61 21t25 59h219q-6 -52 -24.5 -97.5t-53 -86.5t-94 -65t-137.5 -24q-76 0 -135.5 24t-93.5 64.5t-52.5 87t-21.5 97.5zM627 -379h-299v279h299v-279z" />
    <glyph glyph-name="uni1EB8" unicode="&#x1eb8;" horiz-adv-x="923" 
d="M836 846v-260h-420v-330h475l-37 -256h-750v1382h750v-260h-438v-276h420zM641 -365h-299v279h299v-279z" />
    <glyph glyph-name="uni1EB9" unicode="&#x1eb9;" horiz-adv-x="942" 
d="M885 463h-518q0 -58 4 -98t15 -77t34.5 -55t58.5 -18q98 0 103 123h299q-2 -23 -5 -43.5t-14 -59t-27.5 -70t-48 -67.5t-72 -60.5t-103 -41t-138.5 -16.5q-75 0 -136 16.5t-104 44.5t-75 70.5t-51.5 89t-31.5 106.5t-16 116t-4 124q0 271 107.5 410t316.5 139
q93 0 164 -25.5t117.5 -69.5t75.5 -110t41 -141t12 -168q0 -95 -4 -119zM371 662h209q0 38 -1 62t-7 53.5t-16.5 46t-30.5 28.5t-48 12q-35 0 -57.5 -16.5t-32.5 -48.5t-13 -62t-3 -75zM616 -379h-299v279h299v-279z" />
    <glyph glyph-name="uni1EBA" unicode="&#x1eba;" horiz-adv-x="923" 
d="M836 846v-260h-420v-330h475l-37 -256h-750v1382h750v-260h-438v-276h420zM582 1462h-228q43 47 59.5 72.5t16.5 52.5q0 18 -12.5 29.5t-36.5 11.5q-40 0 -82 -22l-55 153q92 58 221 58q104 0 158.5 -46.5t54.5 -123.5q0 -98 -96 -185z" />
    <glyph glyph-name="uni1EBB" unicode="&#x1ebb;" horiz-adv-x="942" 
d="M885 463h-518q0 -58 4 -98t15 -77t34.5 -55t58.5 -18q98 0 103 123h299q-2 -23 -5 -43.5t-14 -59t-27.5 -70t-48 -67.5t-72 -60.5t-103 -41t-138.5 -16.5q-75 0 -136 16.5t-104 44.5t-75 70.5t-51.5 89t-31.5 106.5t-16 116t-4 124q0 271 107.5 410t316.5 139
q93 0 164 -25.5t117.5 -69.5t75.5 -110t41 -141t12 -168q0 -95 -4 -119zM371 662h209q0 38 -1 62t-7 53.5t-16.5 46t-30.5 28.5t-48 12q-35 0 -57.5 -16.5t-32.5 -48.5t-13 -62t-3 -75zM578 1174h-228q44 47 60 72t16 52q0 18 -12.5 29.5t-36.5 11.5q-40 0 -82 -22l-55 153
q92 58 221 58q104 0 158.5 -46.5t54.5 -123.5q0 -97 -96 -184z" />
    <glyph glyph-name="uni1EBC" unicode="&#x1ebc;" horiz-adv-x="923" 
d="M836 846v-260h-420v-330h475l-37 -256h-750v1382h750v-260h-438v-276h420zM330 1483h-185v55q0 211 179 211q62 0 151 -31.5t109 -31.5q37 0 37 45v18h180v-43q0 -131 -46.5 -180t-131.5 -49q-57 0 -146.5 31.5t-111.5 31.5q-35 0 -35 -37v-20z" />
    <glyph glyph-name="uni1EBD" unicode="&#x1ebd;" horiz-adv-x="942" 
d="M885 463h-518q0 -58 4 -98t15 -77t34.5 -55t58.5 -18q98 0 103 123h299q-2 -23 -5 -43.5t-14 -59t-27.5 -70t-48 -67.5t-72 -60.5t-103 -41t-138.5 -16.5q-75 0 -136 16.5t-104 44.5t-75 70.5t-51.5 89t-31.5 106.5t-16 116t-4 124q0 271 107.5 410t316.5 139
q93 0 164 -25.5t117.5 -69.5t75.5 -110t41 -141t12 -168q0 -95 -4 -119zM371 662h209q0 38 -1 62t-7 53.5t-16.5 46t-30.5 28.5t-48 12q-35 0 -57.5 -16.5t-32.5 -48.5t-13 -62t-3 -75zM344 1180h-190v63q0 115 47 161t127 46q48 0 96 -18.5t84.5 -37t56.5 -18.5q31 0 31 54
v18h186v-53q0 -68 -14 -113.5t-40 -68t-54 -31t-66 -8.5q-57 0 -134 35.5t-99 35.5q-31 0 -31 -43v-22z" />
    <glyph glyph-name="uni1EBE" unicode="&#x1ebe;" horiz-adv-x="923" 
d="M836 846v-260h-420v-330h475l-37 -256h-750v1382h750v-260h-438v-276h420zM317 1694h310l194 -221h-262l-88 100l-86 -100h-264zM891 1847h297l-242 -209h-217z" />
    <glyph glyph-name="uni1EBF" unicode="&#x1ebf;" horiz-adv-x="942" 
d="M885 463h-518q0 -58 4 -98t15 -77t34.5 -55t58.5 -18q98 0 103 123h299q-2 -23 -5 -43.5t-14 -59t-27.5 -70t-48 -67.5t-72 -60.5t-103 -41t-138.5 -16.5q-75 0 -136 16.5t-104 44.5t-75 70.5t-51.5 89t-31.5 106.5t-16 116t-4 124q0 271 107.5 410t316.5 139
q93 0 164 -25.5t117.5 -69.5t75.5 -110t41 -141t12 -168q0 -95 -4 -119zM371 662h209q0 38 -1 62t-7 53.5t-16.5 46t-30.5 28.5t-48 12q-35 0 -57.5 -16.5t-32.5 -48.5t-13 -62t-3 -75zM328 1415h284l183 -241h-244l-84 114l-82 -114h-244zM854 1593h260l-221 -231h-199z
" />
    <glyph glyph-name="uni1EC0" unicode="&#x1ec0;" horiz-adv-x="923" 
d="M836 846v-260h-420v-330h475l-37 -256h-750v1382h750v-260h-438v-276h420zM317 1694h310l194 -221h-262l-88 100l-86 -100h-264zM567 1862h307l164 -213h-209z" />
    <glyph glyph-name="uni1EC1" unicode="&#x1ec1;" horiz-adv-x="942" 
d="M885 463h-518q0 -58 4 -98t15 -77t34.5 -55t58.5 -18q98 0 103 123h299q-2 -23 -5 -43.5t-14 -59t-27.5 -70t-48 -67.5t-72 -60.5t-103 -41t-138.5 -16.5q-75 0 -136 16.5t-104 44.5t-75 70.5t-51.5 89t-31.5 106.5t-16 116t-4 124q0 271 107.5 410t316.5 139
q93 0 164 -25.5t117.5 -69.5t75.5 -110t41 -141t12 -168q0 -95 -4 -119zM371 662h209q0 38 -1 62t-7 53.5t-16.5 46t-30.5 28.5t-48 12q-35 0 -57.5 -16.5t-32.5 -48.5t-13 -62t-3 -75zM328 1415h284l183 -241h-244l-84 114l-82 -114h-244zM569 1599h279l166 -239h-207z" />
    <glyph glyph-name="uni1EC2" unicode="&#x1ec2;" horiz-adv-x="923" 
d="M836 846v-260h-420v-330h475l-37 -256h-750v1382h750v-260h-438v-276h420zM930 1642h-187q68 65 68 109q0 31 -45 31q-36 0 -80 -23l-47 127q80 62 199 62q88 0 133 -40.5t45 -109.5q0 -87 -86 -156zM317 1694h310l194 -221h-262l-88 100l-86 -100h-264z" />
    <glyph glyph-name="uni1EC3" unicode="&#x1ec3;" horiz-adv-x="942" 
d="M885 463h-518q0 -58 4 -98t15 -77t34.5 -55t58.5 -18q98 0 103 123h299q-2 -23 -5 -43.5t-14 -59t-27.5 -70t-48 -67.5t-72 -60.5t-103 -41t-138.5 -16.5q-75 0 -136 16.5t-104 44.5t-75 70.5t-51.5 89t-31.5 106.5t-16 116t-4 124q0 271 107.5 410t316.5 139
q93 0 164 -25.5t117.5 -69.5t75.5 -110t41 -141t12 -168q0 -95 -4 -119zM371 662h209q0 38 -1 62t-7 53.5t-16.5 46t-30.5 28.5t-48 12q-35 0 -57.5 -16.5t-32.5 -48.5t-13 -62t-3 -75zM920 1360h-197q76 70 76 110q0 33 -43 33q-44 0 -78 -22l-49 131q87 57 196 57
q90 0 134.5 -39.5t44.5 -109.5q0 -98 -84 -160zM328 1417h284l187 -243h-246l-86 114l-82 -114h-248z" />
    <glyph glyph-name="uni1EC4" unicode="&#x1ec4;" horiz-adv-x="923" 
d="M836 846v-260h-420v-330h475l-37 -256h-750v1382h750v-260h-438v-276h420zM328 1712h-172v27q0 186 170 186q65 0 150 -27.5t110 -27.5q17 0 26 7.5t9 29.5v14h165v-25q0 -106 -42.5 -146t-118.5 -40q-59 0 -149.5 26.5t-115.5 26.5q-17 0 -24.5 -7.5t-7.5 -26.5v-17z
M315 1655h316l198 -189h-274l-88 82l-80 -82h-270z" />
    <glyph glyph-name="uni1EC5" unicode="&#x1ec5;" horiz-adv-x="942" 
d="M885 463h-518q0 -58 4 -98t15 -77t34.5 -55t58.5 -18q98 0 103 123h299q-2 -23 -5 -43.5t-14 -59t-27.5 -70t-48 -67.5t-72 -60.5t-103 -41t-138.5 -16.5q-75 0 -136 16.5t-104 44.5t-75 70.5t-51.5 89t-31.5 106.5t-16 116t-4 124q0 271 107.5 410t316.5 139
q93 0 164 -25.5t117.5 -69.5t75.5 -110t41 -141t12 -168q0 -95 -4 -119zM371 662h209q0 38 -1 62t-7 53.5t-16.5 46t-30.5 28.5t-48 12q-35 0 -57.5 -16.5t-32.5 -48.5t-13 -62t-3 -75zM340 1432h-174v26q0 193 164 193q48 0 96.5 -14t84.5 -28t54 -14q17 0 25 7.5t8 27.5
v17h170v-25q0 -192 -164 -192q-55 0 -132.5 26.5t-98.5 26.5q-19 0 -26 -7.5t-7 -27.5v-16zM311 1366h312l198 -207h-270l-88 92l-84 -92h-264z" />
    <glyph glyph-name="uni1EC6" unicode="&#x1ec6;" horiz-adv-x="923" 
d="M836 846v-260h-420v-330h475l-37 -256h-750v1382h750v-260h-438v-276h420zM641 -379h-299v279h299v-279zM307 1714h336l186 -237h-274l-82 106l-80 -106h-278z" />
    <glyph glyph-name="uni1EC7" unicode="&#x1ec7;" horiz-adv-x="942" 
d="M885 463h-518q0 -58 4 -98t15 -77t34.5 -55t58.5 -18q98 0 103 123h299q-2 -23 -5 -43.5t-14 -59t-27.5 -70t-48 -67.5t-72 -60.5t-103 -41t-138.5 -16.5q-75 0 -136 16.5t-104 44.5t-75 70.5t-51.5 89t-31.5 106.5t-16 116t-4 124q0 271 107.5 410t316.5 139
q93 0 164 -25.5t117.5 -69.5t75.5 -110t41 -141t12 -168q0 -95 -4 -119zM371 662h209q0 38 -1 62t-7 53.5t-16.5 46t-30.5 28.5t-48 12q-35 0 -57.5 -16.5t-32.5 -48.5t-13 -62t-3 -75zM616 -379h-299v279h299v-279zM309 1446h324l176 -272h-262l-80 126l-74 -126h-264z" />
    <glyph glyph-name="uni1EC8" unicode="&#x1ec8;" horiz-adv-x="528" 
d="M104 1382h318v-1382h-318v1382zM373 1464h-228q43 47 59.5 72.5t16.5 52.5q0 18 -12.5 29.5t-36.5 11.5q-40 0 -82 -22l-55 153q92 58 221 58q104 0 158.5 -46.5t54.5 -123.5q0 -98 -96 -185z" />
    <glyph glyph-name="uni1EC9" unicode="&#x1ec9;" horiz-adv-x="499" 
d="M92 0v1077h314v-1077h-314zM356 1174h-227q44 47 60 72t16 52q0 18 -12.5 29.5t-36.5 11.5q-40 0 -82 -22l-56 153q92 58 222 58q104 0 158.5 -46.5t54.5 -123.5q0 -96 -97 -184z" />
    <glyph glyph-name="uni1ECA" unicode="&#x1eca;" horiz-adv-x="528" 
d="M104 1382h318v-1382h-318v1382zM412 -379h-299v279h299v-279z" />
    <glyph glyph-name="uni1ECB" unicode="&#x1ecb;" horiz-adv-x="499" 
d="M92 0v1077h314v-1077h-314zM406 1194h-312v254h312v-254zM395 -379h-299v279h299v-279z" />
    <glyph glyph-name="uni1ECC" unicode="&#x1ecc;" horiz-adv-x="1079" 
d="M543 1409q243 0 356 -173t113 -536q0 -383 -112.5 -555t-369.5 -172q-241 0 -351.5 175.5t-110.5 558.5q0 365 117 533.5t358 168.5zM539 1157q-80 0 -110 -101t-30 -349q0 -263 30 -373.5t110 -110.5q84 0 112.5 106t28.5 378q0 255 -28.5 352.5t-112.5 97.5zM680 -387
h-299v278h299v-278z" />
    <glyph glyph-name="uni1ECD" unicode="&#x1ecd;" horiz-adv-x="962" 
d="M487 1096q200 0 310 -132.5t110 -412.5q0 -157 -30 -269t-87.5 -177.5t-134 -95t-178.5 -29.5q-99 0 -173.5 29t-132 93t-87 175.5t-29.5 267.5q0 149 32.5 257.5t92 171.5t135.5 92.5t172 29.5zM483 852q-63 0 -86.5 -66t-23.5 -239q0 -179 23 -251.5t89 -72.5
q61 0 83 73t22 251q0 177 -22.5 241t-84.5 64zM627 -379h-299v279h299v-279z" />
    <glyph glyph-name="uni1ECE" unicode="&#x1ece;" horiz-adv-x="1079" 
d="M543 1409q243 0 356 -173t113 -536q0 -383 -112.5 -555t-369.5 -172q-241 0 -351.5 175.5t-110.5 558.5q0 365 117 533.5t358 168.5zM539 1157q-80 0 -110 -101t-30 -349q0 -263 30 -373.5t110 -110.5q84 0 112.5 106t28.5 378q0 255 -28.5 352.5t-112.5 97.5zM641 1466
h-227q43 46 59 72t16 53q0 18 -12.5 29.5t-36.5 11.5q-40 0 -82 -22l-55 153q92 58 221 58q104 0 158.5 -46.5t54.5 -123.5q0 -98 -96 -185z" />
    <glyph glyph-name="uni1ECF" unicode="&#x1ecf;" horiz-adv-x="962" 
d="M487 1096q200 0 310 -132.5t110 -412.5q0 -157 -30 -269t-87.5 -177.5t-134 -95t-178.5 -29.5q-99 0 -173.5 29t-132 93t-87 175.5t-29.5 267.5q0 149 32.5 257.5t92 171.5t135.5 92.5t172 29.5zM483 852q-63 0 -86.5 -66t-23.5 -239q0 -179 23 -251.5t89 -72.5
q61 0 83 73t22 251q0 177 -22.5 241t-84.5 64zM588 1174h-228q44 47 60 72t16 52q0 18 -12.5 29.5t-36.5 11.5q-40 0 -82 -22l-55 153q92 58 221 58q104 0 158.5 -46.5t54.5 -123.5q0 -97 -96 -184z" />
    <glyph glyph-name="uni1ED0" unicode="&#x1ed0;" horiz-adv-x="1079" 
d="M543 1409q243 0 356 -173t113 -536q0 -383 -112.5 -555t-369.5 -172q-241 0 -351.5 175.5t-110.5 558.5q0 365 117 533.5t358 168.5zM539 1157q-80 0 -110 -101t-30 -349q0 -263 30 -373.5t110 -110.5q84 0 112.5 106t28.5 378q0 255 -28.5 352.5t-112.5 97.5zM377 1688
h309l195 -222h-263l-88 101l-86 -101h-264zM950 1841h297l-241 -209h-218z" />
    <glyph glyph-name="uni1ED1" unicode="&#x1ed1;" horiz-adv-x="962" 
d="M487 1096q200 0 310 -132.5t110 -412.5q0 -157 -30 -269t-87.5 -177.5t-134 -95t-178.5 -29.5q-99 0 -173.5 29t-132 93t-87 175.5t-29.5 267.5q0 149 32.5 257.5t92 171.5t135.5 92.5t172 29.5zM483 852q-63 0 -86.5 -66t-23.5 -239q0 -179 23 -251.5t89 -72.5
q61 0 83 73t22 251q0 177 -22.5 241t-84.5 64zM338 1415h285l182 -241h-244l-84 114l-82 -114h-243zM864 1593h260l-221 -231h-198z" />
    <glyph glyph-name="uni1ED2" unicode="&#x1ed2;" horiz-adv-x="1079" 
d="M543 1409q243 0 356 -173t113 -536q0 -383 -112.5 -555t-369.5 -172q-241 0 -351.5 175.5t-110.5 558.5q0 365 117 533.5t358 168.5zM539 1157q-80 0 -110 -101t-30 -349q0 -263 30 -373.5t110 -110.5q84 0 112.5 106t28.5 378q0 255 -28.5 352.5t-112.5 97.5zM377 1688
h309l195 -222h-263l-88 101l-86 -101h-264zM627 1855h307l164 -213h-209z" />
    <glyph glyph-name="uni1ED3" unicode="&#x1ed3;" horiz-adv-x="962" 
d="M487 1096q200 0 310 -132.5t110 -412.5q0 -157 -30 -269t-87.5 -177.5t-134 -95t-178.5 -29.5q-99 0 -173.5 29t-132 93t-87 175.5t-29.5 267.5q0 149 32.5 257.5t92 171.5t135.5 92.5t172 29.5zM483 852q-63 0 -86.5 -66t-23.5 -239q0 -179 23 -251.5t89 -72.5
q61 0 83 73t22 251q0 177 -22.5 241t-84.5 64zM338 1415h285l182 -241h-244l-84 114l-82 -114h-243zM580 1599h278l166 -239h-207z" />
    <glyph glyph-name="uni1ED4" unicode="&#x1ed4;" horiz-adv-x="1079" 
d="M543 1409q243 0 356 -173t113 -536q0 -383 -112.5 -555t-369.5 -172q-241 0 -351.5 175.5t-110.5 558.5q0 365 117 533.5t358 168.5zM539 1157q-80 0 -110 -101t-30 -349q0 -263 30 -373.5t110 -110.5q84 0 112.5 106t28.5 378q0 255 -28.5 352.5t-112.5 97.5zM989 1636
h-186q67 64 67 109q0 31 -45 31q-36 0 -80 -23l-47 127q80 62 199 62q88 0 133 -40.5t45 -109.5q0 -87 -86 -156zM377 1688h309l195 -222h-263l-88 101l-86 -101h-264z" />
    <glyph glyph-name="uni1ED5" unicode="&#x1ed5;" horiz-adv-x="962" 
d="M487 1096q200 0 310 -132.5t110 -412.5q0 -157 -30 -269t-87.5 -177.5t-134 -95t-178.5 -29.5q-99 0 -173.5 29t-132 93t-87 175.5t-29.5 267.5q0 149 32.5 257.5t92 171.5t135.5 92.5t172 29.5zM483 852q-63 0 -86.5 -66t-23.5 -239q0 -179 23 -251.5t89 -72.5
q61 0 83 73t22 251q0 177 -22.5 241t-84.5 64zM930 1360h-197q76 70 76 110q0 33 -43 33q-44 0 -78 -22l-49 131q87 57 197 57q89 0 133.5 -39.5t44.5 -109.5q0 -98 -84 -160zM338 1417h285l186 -243h-246l-86 114l-82 -114h-248z" />
    <glyph glyph-name="uni1ED6" unicode="&#x1ed6;" horiz-adv-x="1079" 
d="M543 1409q243 0 356 -173t113 -536q0 -383 -112.5 -555t-369.5 -172q-241 0 -351.5 175.5t-110.5 558.5q0 365 117 533.5t358 168.5zM539 1157q-80 0 -110 -101t-30 -349q0 -263 30 -373.5t110 -110.5q84 0 112.5 106t28.5 378q0 255 -28.5 352.5t-112.5 97.5zM387 1708
h-172v27q0 186 170 186q65 0 150 -27.5t110 -27.5q17 0 26 7.5t9 29.5v14h166v-25q0 -106 -43 -146t-119 -40q-59 0 -149 26.5t-115 26.5q-33 0 -33 -35v-16zM375 1651h315l199 -189h-275l-88 82l-80 -82h-270z" />
    <glyph glyph-name="uni1ED7" unicode="&#x1ed7;" horiz-adv-x="962" 
d="M487 1096q200 0 310 -132.5t110 -412.5q0 -157 -30 -269t-87.5 -177.5t-134 -95t-178.5 -29.5q-99 0 -173.5 29t-132 93t-87 175.5t-29.5 267.5q0 149 32.5 257.5t92 171.5t135.5 92.5t172 29.5zM483 852q-63 0 -86.5 -66t-23.5 -239q0 -179 23 -251.5t89 -72.5
q61 0 83 73t22 251q0 177 -22.5 241t-84.5 64zM350 1432h-174v26q0 193 164 193q48 0 96.5 -14t84.5 -28t54 -14q17 0 25 7.5t8 27.5v17h170v-25q0 -192 -164 -192q-55 0 -132.5 26.5t-98.5 26.5q-19 0 -26 -7.5t-7 -27.5v-16zM322 1366h311l198 -207h-270l-88 92l-84 -92
h-264z" />
    <glyph glyph-name="uni1ED8" unicode="&#x1ed8;" horiz-adv-x="1079" 
d="M543 1409q243 0 356 -173t113 -536q0 -383 -112.5 -555t-369.5 -172q-241 0 -351.5 175.5t-110.5 558.5q0 365 117 533.5t358 168.5zM539 1157q-80 0 -110 -101t-30 -349q0 -263 30 -373.5t110 -110.5q84 0 112.5 106t28.5 378q0 255 -28.5 352.5t-112.5 97.5zM680 -387
h-299v278h299v-278zM367 1714h335l187 -237h-275l-82 106l-79 -106h-279z" />
    <glyph glyph-name="uni1ED9" unicode="&#x1ed9;" horiz-adv-x="962" 
d="M487 1096q200 0 310 -132.5t110 -412.5q0 -157 -30 -269t-87.5 -177.5t-134 -95t-178.5 -29.5q-99 0 -173.5 29t-132 93t-87 175.5t-29.5 267.5q0 149 32.5 257.5t92 171.5t135.5 92.5t172 29.5zM483 852q-63 0 -86.5 -66t-23.5 -239q0 -179 23 -251.5t89 -72.5
q61 0 83 73t22 251q0 177 -22.5 241t-84.5 64zM627 -379h-299v279h299v-279zM319 1446h324l176 -272h-262l-80 126l-74 -126h-264z" />
    <glyph glyph-name="uni1EDA" unicode="&#x1eda;" horiz-adv-x="1079" 
d="M543 1409q144 0 245 -61q23 20 23 69q0 55 -18 113h254q14 -55 14 -127q0 -167 -127 -229q78 -169 78 -474q0 -383 -112.5 -555t-369.5 -172q-241 0 -351.5 175.5t-110.5 558.5q0 365 117 533.5t358 168.5zM539 1157q-80 0 -110 -101t-30 -349q0 -263 30 -373.5
t110 -110.5q84 0 112.5 106t28.5 378q0 255 -28.5 352.5t-112.5 97.5zM586 1722h364l-295 -239h-284z" />
    <glyph glyph-name="uni1EDB" unicode="&#x1edb;" horiz-adv-x="962" 
d="M487 1096q122 0 213 -49q37 16 37 79q0 54 -18 113h254q14 -55 14 -127q0 -173 -137 -235q57 -126 57 -326q0 -157 -30 -269t-87.5 -177.5t-134 -95t-178.5 -29.5q-99 0 -173.5 29t-132 93t-87 175.5t-29.5 267.5q0 149 32.5 257.5t92 171.5t135.5 92.5t172 29.5z
M483 852q-63 0 -86.5 -66t-23.5 -239q0 -179 23 -251.5t89 -72.5q61 0 83 73t22 251q0 177 -22.5 241t-84.5 64zM510 1456h342l-274 -276h-259z" />
    <glyph glyph-name="uni1EDC" unicode="&#x1edc;" horiz-adv-x="1079" 
d="M543 1409q144 0 245 -61q23 20 23 69q0 55 -18 113h254q14 -55 14 -127q0 -167 -127 -229q78 -169 78 -474q0 -383 -112.5 -555t-369.5 -172q-241 0 -351.5 175.5t-110.5 558.5q0 365 117 533.5t358 168.5zM539 1157q-80 0 -110 -101t-30 -349q0 -263 30 -373.5
t110 -110.5q84 0 112.5 106t28.5 378q0 255 -28.5 352.5t-112.5 97.5zM115 1722h368l213 -239h-286z" />
    <glyph glyph-name="uni1EDD" unicode="&#x1edd;" horiz-adv-x="962" 
d="M487 1096q122 0 213 -49q37 16 37 79q0 54 -18 113h254q14 -55 14 -127q0 -173 -137 -235q57 -126 57 -326q0 -157 -30 -269t-87.5 -177.5t-134 -95t-178.5 -29.5q-99 0 -173.5 29t-132 93t-87 175.5t-29.5 267.5q0 149 32.5 257.5t92 171.5t135.5 92.5t172 29.5z
M483 852q-63 0 -86.5 -66t-23.5 -239q0 -179 23 -251.5t89 -72.5q61 0 83 73t22 251q0 177 -22.5 241t-84.5 64zM113 1456h346l186 -276h-256z" />
    <glyph glyph-name="uni1EDE" unicode="&#x1ede;" horiz-adv-x="1079" 
d="M543 1409q144 0 245 -61q23 20 23 69q0 55 -18 113h254q14 -55 14 -127q0 -167 -127 -229q78 -169 78 -474q0 -383 -112.5 -555t-369.5 -172q-241 0 -351.5 175.5t-110.5 558.5q0 365 117 533.5t358 168.5zM539 1157q-80 0 -110 -101t-30 -349q0 -263 30 -373.5
t110 -110.5q84 0 112.5 106t28.5 378q0 255 -28.5 352.5t-112.5 97.5zM647 1470h-227q43 47 59.5 72.5t16.5 52.5q0 18 -13 29.5t-37 11.5q-39 0 -81 -22l-56 153q92 58 221 58q104 0 158.5 -46.5t54.5 -123.5q0 -98 -96 -185z" />
    <glyph glyph-name="uni1EDF" unicode="&#x1edf;" horiz-adv-x="962" 
d="M487 1096q122 0 213 -49q37 16 37 79q0 54 -18 113h254q14 -55 14 -127q0 -173 -137 -235q57 -126 57 -326q0 -157 -30 -269t-87.5 -177.5t-134 -95t-178.5 -29.5q-99 0 -173.5 29t-132 93t-87 175.5t-29.5 267.5q0 149 32.5 257.5t92 171.5t135.5 92.5t172 29.5z
M483 852q-63 0 -86.5 -66t-23.5 -239q0 -179 23 -251.5t89 -72.5q61 0 83 73t22 251q0 177 -22.5 241t-84.5 64zM590 1174h-228q44 47 60 72t16 52q0 18 -12.5 29.5t-36.5 11.5q-40 0 -82 -22l-55 153q92 58 221 58q104 0 158.5 -46.5t54.5 -123.5q0 -97 -96 -184z" />
    <glyph glyph-name="uni1EE0" unicode="&#x1ee0;" horiz-adv-x="1079" 
d="M543 1409q144 0 245 -61q23 20 23 69q0 53 -16 109q-39 -29 -111 -29q-57 0 -146.5 32t-111.5 32q-35 0 -35 -37v-21h-184v56q0 210 178 210q61 0 151 -31.5t109 -31.5q37 0 37 45v18h180v-43q0 -146 -63 -196h248q14 -55 14 -127q0 -167 -127 -229q78 -169 78 -474
q0 -383 -112.5 -555t-369.5 -172q-241 0 -351.5 175.5t-110.5 558.5q0 365 117 533.5t358 168.5zM539 1157q-80 0 -110 -101t-30 -349q0 -263 30 -373.5t110 -110.5q84 0 112.5 106t28.5 378q0 255 -28.5 352.5t-112.5 97.5z" />
    <glyph glyph-name="uni1EE1" unicode="&#x1ee1;" horiz-adv-x="962" 
d="M487 1096q122 0 213 -49q37 16 37 79q0 45 -8 76q-38 -28 -108 -28q-57 0 -134.5 35.5t-99.5 35.5q-31 0 -31 -43v-22h-190v63q0 115 47 161t127 46q48 0 96.5 -18.5t85 -37t56.5 -18.5q30 0 30 54v18h187v-53q0 -102 -33 -156h211q14 -55 14 -127q0 -173 -137 -235
q57 -126 57 -326q0 -157 -30 -269t-87.5 -177.5t-134 -95t-178.5 -29.5q-99 0 -173.5 29t-132 93t-87 175.5t-29.5 267.5q0 149 32.5 257.5t92 171.5t135.5 92.5t172 29.5zM483 852q-63 0 -86.5 -66t-23.5 -239q0 -179 23 -251.5t89 -72.5q61 0 83 73t22 251
q0 177 -22.5 241t-84.5 64z" />
    <glyph glyph-name="uni1EE2" unicode="&#x1ee2;" horiz-adv-x="1079" 
d="M543 1409q144 0 245 -61q23 20 23 69q0 55 -18 113h254q14 -55 14 -127q0 -167 -127 -229q78 -169 78 -474q0 -383 -112.5 -555t-369.5 -172q-241 0 -351.5 175.5t-110.5 558.5q0 365 117 533.5t358 168.5zM539 1157q-80 0 -110 -101t-30 -349q0 -263 30 -373.5
t110 -110.5q84 0 112.5 106t28.5 378q0 255 -28.5 352.5t-112.5 97.5zM686 -379h-299v279h299v-279z" />
    <glyph glyph-name="uni1EE3" unicode="&#x1ee3;" horiz-adv-x="962" 
d="M487 1096q122 0 213 -49q37 16 37 79q0 54 -18 113h254q14 -55 14 -127q0 -173 -137 -235q57 -126 57 -326q0 -157 -30 -269t-87.5 -177.5t-134 -95t-178.5 -29.5q-99 0 -173.5 29t-132 93t-87 175.5t-29.5 267.5q0 149 32.5 257.5t92 171.5t135.5 92.5t172 29.5z
M483 852q-63 0 -86.5 -66t-23.5 -239q0 -179 23 -251.5t89 -72.5q61 0 83 73t22 251q0 177 -22.5 241t-84.5 64zM629 -379h-299v279h299v-279z" />
    <glyph glyph-name="uni1EE4" unicode="&#x1ee4;" horiz-adv-x="1083" 
d="M92 1382h320v-966q0 -193 131 -193q39 0 65.5 15t39 43t17.5 59t5 74v968h319v-958q0 -451 -454 -451q-232 0 -337.5 115.5t-105.5 337.5v956zM688 -379h-299v279h299v-279z" />
    <glyph glyph-name="uni1EE5" unicode="&#x1ee5;" horiz-adv-x="993" 
d="M901 1077v-739q0 -285 2 -338h-297q-6 26 -12 109q-40 -69 -97 -98t-143 -29q-127 0 -195.5 74.5t-68.5 244.5v776h313v-717q0 -68 17.5 -98.5t64.5 -30.5q55 0 79 36.5t24 127.5v682h313zM643 -379h-299v279h299v-279z" />
    <glyph glyph-name="uni1EE6" unicode="&#x1ee6;" horiz-adv-x="1083" 
d="M92 1382h320v-966q0 -193 131 -193q39 0 65.5 15t39 43t17.5 59t5 74v968h319v-958q0 -451 -454 -451q-232 0 -337.5 115.5t-105.5 337.5v956zM649 1450h-227q43 47 59.5 72.5t16.5 52.5q0 18 -12.5 29.5t-36.5 11.5q-38 0 -82 -23l-56 154q91 57 221 57
q104 0 158.5 -46.5t54.5 -123.5q0 -97 -96 -184z" />
    <glyph glyph-name="uni1EE7" unicode="&#x1ee7;" horiz-adv-x="993" 
d="M901 1077v-739q0 -285 2 -338h-297q-6 26 -12 109q-40 -69 -97 -98t-143 -29q-127 0 -195.5 74.5t-68.5 244.5v776h313v-717q0 -68 17.5 -98.5t64.5 -30.5q55 0 79 36.5t24 127.5v682h313zM604 1174h-227q44 47 60 72t16 52q0 18 -13 29.5t-37 11.5q-39 0 -81 -22
l-56 153q92 58 221 58q104 0 158.5 -46.5t54.5 -123.5q0 -97 -96 -184z" />
    <glyph glyph-name="uni1EE8" unicode="&#x1ee8;" horiz-adv-x="1083" 
d="M92 1382h320v-966q0 -193 131 -193q39 0 65.5 15t39 43t17.5 59t5 74v968h174q47 14 47 84q0 51 -19 113h254q15 -58 15 -127q0 -184 -152 -240v-788q0 -451 -454 -451q-232 0 -337.5 115.5t-105.5 337.5v956zM588 1722h364l-295 -239h-284z" />
    <glyph glyph-name="uni1EE9" unicode="&#x1ee9;" horiz-adv-x="993" 
d="M594 109q-40 -69 -97 -98t-143 -29q-127 0 -195.5 74.5t-68.5 244.5v776h313v-717q0 -68 17.5 -98.5t64.5 -30.5q55 0 79 36.5t24 127.5v682h147q64 9 64 88q0 51 -19 113h254q15 -59 15 -127q0 -182 -148 -240v-573q0 -285 2 -338h-297q-6 26 -12 109zM524 1456h342
l-274 -276h-258z" />
    <glyph glyph-name="uni1EEA" unicode="&#x1eea;" horiz-adv-x="1083" 
d="M92 1382h320v-966q0 -193 131 -193q39 0 65.5 15t39 43t17.5 59t5 74v968h174q47 14 47 84q0 51 -19 113h254q15 -58 15 -127q0 -184 -152 -240v-788q0 -451 -454 -451q-232 0 -337.5 115.5t-105.5 337.5v956zM129 1722h369l213 -239h-287z" />
    <glyph glyph-name="uni1EEB" unicode="&#x1eeb;" horiz-adv-x="993" 
d="M594 109q-40 -69 -97 -98t-143 -29q-127 0 -195.5 74.5t-68.5 244.5v776h313v-717q0 -68 17.5 -98.5t64.5 -30.5q55 0 79 36.5t24 127.5v682h147q64 9 64 88q0 51 -19 113h254q15 -59 15 -127q0 -182 -148 -240v-573q0 -285 2 -338h-297q-6 26 -12 109zM127 1456h346
l186 -276h-256z" />
    <glyph glyph-name="uni1EEC" unicode="&#x1eec;" horiz-adv-x="1083" 
d="M92 1382h320v-966q0 -193 131 -193q39 0 65.5 15t39 43t17.5 59t5 74v968h174q47 14 47 84q0 51 -19 113h254q15 -58 15 -127q0 -184 -152 -240v-788q0 -451 -454 -451q-232 0 -337.5 115.5t-105.5 337.5v956zM649 1460h-227q43 47 59.5 72.5t16.5 52.5q0 18 -12.5 29.5
t-36.5 11.5q-40 0 -82 -22l-56 153q92 58 221 58q104 0 158.5 -46.5t54.5 -123.5q0 -98 -96 -185z" />
    <glyph glyph-name="uni1EED" unicode="&#x1eed;" horiz-adv-x="993" 
d="M594 109q-40 -69 -97 -98t-143 -29q-127 0 -195.5 74.5t-68.5 244.5v776h313v-717q0 -68 17.5 -98.5t64.5 -30.5q55 0 79 36.5t24 127.5v682h147q64 9 64 88q0 51 -19 113h254q15 -59 15 -127q0 -182 -148 -240v-573q0 -285 2 -338h-297q-6 26 -12 109zM604 1174h-227
q44 47 60 72t16 52q0 18 -13 29.5t-37 11.5q-39 0 -81 -22l-56 153q92 58 221 58q104 0 158.5 -46.5t54.5 -123.5q0 -97 -96 -184z" />
    <glyph glyph-name="uni1EEE" unicode="&#x1eee;" horiz-adv-x="1083" 
d="M92 1382h320v-966q0 -193 131 -193q39 0 65.5 15t39 43t17.5 59t5 74v968h174q47 14 47 84q0 51 -19 113h254q15 -58 15 -127q0 -184 -152 -240v-788q0 -451 -454 -451q-232 0 -337.5 115.5t-105.5 337.5v956zM397 1497h-184v55q0 211 178 211q62 0 151.5 -31.5
t108.5 -31.5q37 0 37 45v18h180v-43q0 -131 -46.5 -180t-131.5 -49q-57 0 -146.5 31.5t-111.5 31.5q-35 0 -35 -36v-21z" />
    <glyph glyph-name="uni1EEF" unicode="&#x1eef;" horiz-adv-x="993" 
d="M371 1180h-191v63q0 115 47 161t127 46q48 0 96.5 -18.5t85 -37t56.5 -18.5q31 0 31 54v18h186v-53q0 -67 -16 -117h241q15 -59 15 -127q0 -182 -148 -240v-573q0 -285 2 -338h-297q-6 26 -12 109q-40 -69 -97 -98t-143 -29q-127 0 -195.5 74.5t-68.5 244.5v776h313v-717
q0 -68 17.5 -98.5t64.5 -30.5q55 0 79 36.5t24 127.5v682h147q64 9 64 88q0 45 -13 95q-37 -86 -151 -86q-57 0 -134.5 35.5t-99.5 35.5q-30 0 -30 -43v-22z" />
    <glyph glyph-name="uni1EF0" unicode="&#x1ef0;" horiz-adv-x="1083" 
d="M92 1382h320v-966q0 -193 131 -193q39 0 65.5 15t39 43t17.5 59t5 74v968h174q47 14 47 84q0 51 -19 113h254q15 -58 15 -127q0 -184 -152 -240v-788q0 -451 -454 -451q-232 0 -337.5 115.5t-105.5 337.5v956zM688 -379h-299v279h299v-279z" />
    <glyph glyph-name="uni1EF1" unicode="&#x1ef1;" horiz-adv-x="993" 
d="M594 109q-40 -69 -97 -98t-143 -29q-127 0 -195.5 74.5t-68.5 244.5v776h313v-717q0 -68 17.5 -98.5t64.5 -30.5q55 0 79 36.5t24 127.5v682h147q64 9 64 88q0 51 -19 113h254q15 -59 15 -127q0 -182 -148 -240v-573q0 -285 2 -338h-297q-6 26 -12 109zM643 -379h-299
v279h299v-279z" />
    <glyph glyph-name="Ygrave" unicode="&#x1ef2;" horiz-adv-x="946" 
d="M631 0h-318v449q0 35 -12 63l-324 870h351q113 -415 155 -618q21 90 80.5 318.5t77.5 299.5h328l-328 -872q-10 -27 -10 -55v-455zM61 1708h369l213 -240h-287z" />
    <glyph glyph-name="ygrave" unicode="&#x1ef3;" horiz-adv-x="903" 
d="M-4 1077h342q6 -33 25.5 -132t27.5 -143t23 -125.5t22.5 -127t15 -97.5t9.5 -85h6q29 207 123 710h315q-13 -51 -134.5 -510.5t-147.5 -556.5q-34 -127 -69 -204t-83.5 -119.5t-103.5 -57t-140 -14.5q-64 0 -129 10v248q36 -4 76 -4q63 0 92 26.5t41 94.5zM82 1456h346
l186 -276h-256z" />
    <glyph glyph-name="uni1EF4" unicode="&#x1ef4;" horiz-adv-x="946" 
d="M631 0h-318v449q0 35 -12 63l-324 870h351q113 -415 155 -618q21 90 80.5 318.5t77.5 299.5h328l-328 -872q-10 -27 -10 -55v-455zM621 -379h-299v279h299v-279z" />
    <glyph glyph-name="uni1EF5" unicode="&#x1ef5;" horiz-adv-x="903" 
d="M-4 1077h342q6 -33 25.5 -132t27.5 -143t23 -125.5t22.5 -127t15 -97.5t9.5 -85h6q29 207 123 710h315q-13 -51 -134.5 -510.5t-147.5 -556.5q-34 -127 -69 -204t-83.5 -119.5t-103.5 -57t-140 -14.5q-64 0 -129 10v248q36 -4 76 -4q63 0 92 26.5t41 94.5zM940 -369h-299
v279h299v-279z" />
    <glyph glyph-name="uni1EF6" unicode="&#x1ef6;" horiz-adv-x="946" 
d="M631 0h-318v449q0 35 -12 63l-324 870h351q113 -415 155 -618q21 90 80.5 318.5t77.5 299.5h328l-328 -872q-10 -27 -10 -55v-455zM582 1448h-228q43 47 59.5 72.5t16.5 52.5q0 18 -12.5 29.5t-36.5 11.5q-38 0 -82 -23l-55 154q91 57 221 57q104 0 158.5 -46.5
t54.5 -123.5q0 -97 -96 -184z" />
    <glyph glyph-name="uni1EF7" unicode="&#x1ef7;" horiz-adv-x="903" 
d="M-4 1077h342q6 -33 25.5 -132t27.5 -143t23 -125.5t22.5 -127t15 -97.5t9.5 -85h6q29 207 123 710h315q-13 -51 -134.5 -510.5t-147.5 -556.5q-34 -127 -69 -204t-83.5 -119.5t-103.5 -57t-140 -14.5q-64 0 -129 10v248q36 -4 76 -4q63 0 92 26.5t41 94.5zM559 1174h-227
q44 47 60 72t16 52q0 18 -13 29.5t-37 11.5q-40 0 -82 -22l-55 153q92 58 221 58q104 0 158.5 -46.5t54.5 -123.5q0 -97 -96 -184z" />
    <glyph glyph-name="uni1EF8" unicode="&#x1ef8;" horiz-adv-x="946" 
d="M631 0h-318v449q0 35 -12 63l-324 870h351q113 -415 155 -618q21 90 80.5 318.5t77.5 299.5h328l-328 -872q-10 -27 -10 -55v-455zM330 1483h-185v55q0 211 179 211q62 0 151 -31.5t109 -31.5q37 0 37 45v18h180v-43q0 -131 -46.5 -180t-131.5 -49q-57 0 -146.5 31.5
t-111.5 31.5q-35 0 -35 -37v-20z" />
    <glyph glyph-name="uni1EF9" unicode="&#x1ef9;" horiz-adv-x="903" 
d="M-4 1077h342q6 -33 25.5 -132t27.5 -143t23 -125.5t22.5 -127t15 -97.5t9.5 -85h6q29 207 123 710h315q-13 -51 -134.5 -510.5t-147.5 -556.5q-34 -127 -69 -204t-83.5 -119.5t-103.5 -57t-140 -14.5q-64 0 -129 10v248q36 -4 76 -4q63 0 92 26.5t41 94.5zM326 1180h-191
v63q0 115 47 161t127 46q48 0 96.5 -18.5t85 -37t56.5 -18.5q31 0 31 54v18h186v-53q0 -68 -14 -113.5t-40 -68t-54 -31t-66 -8.5q-57 0 -134.5 35.5t-99.5 35.5q-30 0 -30 -43v-22z" />
    <glyph glyph-name="uni2007" unicode="&#x2007;" horiz-adv-x="972" 
 />
    <glyph glyph-name="uni2010" unicode="&#x2010;" horiz-adv-x="579" 
d="M59 664h461v-248h-461v248z" />
    <glyph glyph-name="figuredash" unicode="&#x2012;" horiz-adv-x="972" 
d="M143 786h684v-245h-684v245z" />
    <glyph glyph-name="endash" unicode="&#x2013;" horiz-adv-x="755" 
d="M59 662h637v-244h-637v244z" />
    <glyph glyph-name="emdash" unicode="&#x2014;" horiz-adv-x="1353" 
d="M59 662h1235v-244h-1235v244z" />
    <glyph glyph-name="uni2015" unicode="&#x2015;" horiz-adv-x="1353" 
d="M59 662h1235v-244h-1235v244z" />
    <glyph glyph-name="quoteleft" unicode="&#x2018;" horiz-adv-x="423" 
d="M172 1452h219q-67 -260 -74 -539h-272q7 145 46 302t81 237z" />
    <glyph glyph-name="quoteright" unicode="&#x2019;" horiz-adv-x="423" 
d="M254 913h-221q70 270 73 539h273q-7 -145 -45.5 -302.5t-79.5 -236.5z" />
    <glyph glyph-name="quotesinglbase" unicode="&#x201a;" horiz-adv-x="421" 
d="M252 -197h-219q66 265 73 537h273q-7 -143 -46 -300t-81 -237z" />
    <glyph glyph-name="quotedblleft" unicode="&#x201c;" horiz-adv-x="722" 
d="M489 1452h201q-33 -122 -53.5 -281.5t-20.5 -257.5h-247q7 150 41.5 296.5t78.5 242.5zM166 1452h201q-34 -109 -54 -271.5t-20 -267.5h-250q7 155 43.5 300t79.5 239z" />
    <glyph glyph-name="quotedblright" unicode="&#x201d;" horiz-adv-x="722" 
d="M233 913h-200q34 120 53.5 278.5t19.5 260.5h248q-7 -149 -42 -295.5t-79 -243.5zM557 913h-199q32 108 52 269.5t22 269.5h248q-7 -155 -43.5 -300t-79.5 -239z" />
    <glyph glyph-name="quotedblbase" unicode="&#x201e;" horiz-adv-x="722" 
d="M233 -195h-200q34 119 53.5 277t19.5 260h248q-7 -149 -42 -294.5t-79 -242.5zM557 -195h-199q32 108 52 269t22 268h248q-7 -155 -43 -299t-80 -238z" />
    <glyph glyph-name="dagger" unicode="&#x2020;" horiz-adv-x="841" 
d="M279 1298h258l-15 -370l258 10v-242l-258 13l15 -865h-258l14 865l-258 -13v242l258 -10z" />
    <glyph glyph-name="daggerdbl" unicode="&#x2021;" horiz-adv-x="841" 
d="M293 418v334l-258 -13v242l258 -12l-17 329h261l-13 -329l256 12v-242l-256 13v-334l256 12v-237l-256 10l13 -373h-261l17 373l-258 -10v237z" />
    <glyph glyph-name="bullet" unicode="&#x2022;" horiz-adv-x="614" 
d="M96 750h424v-431h-424v431z" />
    <glyph glyph-name="ellipsis" unicode="&#x2026;" horiz-adv-x="1476" 
d="M391 0h-309v360h309v-360zM883 0h-310v360h310v-360zM1362 0h-309v360h309v-360z" />
    <glyph glyph-name="perthousand" unicode="&#x2030;" horiz-adv-x="2117" 
d="M1767 750q142 0 216.5 -98t74.5 -283t-75 -286t-218 -101q-292 0 -292 383q0 182 73.5 283.5t220.5 101.5zM1767 573q-40 0 -58.5 -45t-18.5 -161q0 -113 17.5 -160t59.5 -47q40 0 58 47.5t18 161.5q0 116 -16.5 160t-59.5 44zM352 1364q291 0 291 -383
q0 -187 -73.5 -286.5t-217.5 -100.5q-148 0 -220.5 95t-72.5 288q0 184 73 285.5t220 101.5zM352 1188q-40 0 -58 -46.5t-18 -162.5q0 -114 17.5 -160.5t58.5 -46.5t59.5 48t18.5 161q0 117 -17.5 162t-60.5 45zM451 0h-166l723 1343h166zM1116 750q144 0 217.5 -97.5
t73.5 -283.5q0 -185 -74 -286t-217 -101q-293 0 -293 383q0 182 73.5 283.5t219.5 101.5zM1116 573q-40 0 -58 -45t-18 -161q0 -114 17.5 -160.5t58.5 -46.5t59.5 48t18.5 161q0 116 -17.5 160t-60.5 44z" />
    <glyph glyph-name="uni2032" unicode="&#x2032;" horiz-adv-x="544" 
d="M317 891h-215l78 557h262z" />
    <glyph glyph-name="uni2033" unicode="&#x2033;" horiz-adv-x="860" 
d="M301 891h-199l78 557h246zM635 891h-201l78 557h246z" />
    <glyph glyph-name="guilsinglleft" unicode="&#x2039;" horiz-adv-x="604" 
d="M543 909l-240 -370l240 -367h-238l-244 367l244 370h238z" />
    <glyph glyph-name="guilsinglright" unicode="&#x203a;" horiz-adv-x="604" 
d="M59 172l238 367l-238 370h238l244 -370l-244 -367h-238z" />
    <glyph glyph-name="fraction" unicode="&#x2044;" horiz-adv-x="253" 
d="M-141 0h-168l698 1346h168z" />
    <glyph glyph-name="zero.sups" unicode="&#x2070;" horiz-adv-x="688" 
d="M346 1620q153 0 223 -94.5t70 -286.5q0 -193 -71 -290t-228 -97q-153 0 -223 98t-70 291q0 188 77.5 283.5t221.5 95.5zM346 1448q-38 0 -54 -42t-16 -167q0 -127 15.5 -171t54.5 -44t53.5 45.5t14.5 169.5q0 86 -6.5 131t-20.5 61.5t-41 16.5z" />
    <glyph glyph-name="four.sups" unicode="&#x2074;" horiz-adv-x="669" 
d="M555 862h-211v166h-303v164l225 420h289v-418h86l-16 -166h-70v-166zM238 1194h106v61q0 79 4 177q-47 -115 -110 -238z" />
    <glyph glyph-name="five.sups" unicode="&#x2075;" horiz-adv-x="673" 
d="M600 1610l-27 -172h-278q-3 -13 -12 -107q45 29 120 29q108 0 167 -63.5t59 -174.5q0 -118 -73.5 -194t-219.5 -76q-138 0 -210.5 63t-78.5 172h217q5 -33 19 -51t49 -18q69 0 69 94q0 50 -17 72t-54 22q-57 0 -72 -51l-203 21q29 167 56 434h489z" />
    <glyph glyph-name="six.sups" unicode="&#x2076;" horiz-adv-x="679" 
d="M625 1403h-215q-7 55 -62 55q-24 0 -39.5 -12t-23 -35.5t-10 -45t-3.5 -52.5q53 47 148 47q103 0 163 -64.5t60 -173.5q0 -124 -77.5 -197t-219.5 -73q-299 0 -299 375q0 83 14.5 150t48 123.5t94.5 88t146 31.5q71 0 124.5 -18t84.5 -50t47 -69t19 -80zM348 1016
q70 0 70 98q0 96 -72 96q-70 0 -70 -94q0 -100 72 -100z" />
    <glyph glyph-name="seven.sups" unicode="&#x2077;" horiz-adv-x="610" 
d="M31 1610h542v-170q-73 -102 -133.5 -257t-87.5 -321h-248q24 159 96.5 319.5t139.5 241.5h-309v187z" />
    <glyph glyph-name="eight.sups" unicode="&#x2078;" horiz-adv-x="667" 
d="M328 852q-135 0 -212 60.5t-77 166.5q0 63 32 106.5t83 65.5q-88 53 -88 158q0 96 67.5 153.5t204.5 57.5q129 0 196.5 -59.5t67.5 -153.5q0 -101 -88 -150q48 -21 81.5 -64t33.5 -110q0 -111 -80.5 -171t-220.5 -60zM336 1006q34 0 52 22.5t18 61.5q0 86 -72 86
q-34 0 -52 -23t-18 -61q0 -39 17.5 -62.5t54.5 -23.5zM334 1466q-60 0 -60 -71q0 -70 62 -70q59 0 59 70q0 71 -61 71z" />
    <glyph glyph-name="nine.sups" unicode="&#x2079;" horiz-adv-x="684" 
d="M53 1069h221q7 -28 20 -41.5t42 -13.5q70 0 74 162q-46 -46 -134 -46q-102 0 -168.5 56.5t-66.5 171.5t79.5 188.5t213.5 73.5q301 0 301 -356q0 -199 -70.5 -305.5t-238.5 -106.5q-131 0 -198.5 61t-74.5 156zM336 1456q-33 0 -51.5 -24.5t-18.5 -65.5q0 -82 74 -82
q31 0 50.5 21t19.5 63q0 88 -74 88z" />
    <glyph glyph-name="parenleft.sups" unicode="&#x207d;" horiz-adv-x="436" 
d="M207 1735h192q-131 -247 -131 -510q0 -273 131 -512h-192q-53 74 -97 208t-44 304q0 292 141 510z" />
    <glyph glyph-name="parenright.sups" unicode="&#x207e;" horiz-adv-x="436" 
d="M227 713h-192q131 243 131 512q0 162 -36 282t-95 228h192q54 -74 98 -207.5t44 -302.5q0 -292 -142 -512z" />
    <glyph glyph-name="n.sups" unicode="&#x207f;" horiz-adv-x="684" 
d="M61 596v444q0 176 -2 217h205q2 -7 10 -69q53 82 162 82q84 0 135.5 -52t51.5 -167v-455h-217v418q0 80 -58 80q-35 0 -52 -22.5t-17 -78.5v-397h-218z" />
    <glyph glyph-name="zero.subs" unicode="&#x2080;" horiz-adv-x="688" 
d="M346 479q153 0 223 -94.5t70 -286.5q0 -193 -71 -290t-228 -97q-153 0 -223 98t-70 291q0 188 77.5 283.5t221.5 95.5zM346 307q-38 0 -54 -42t-16 -167q0 -127 15.5 -171t54.5 -44t53.5 45.5t14.5 169.5q0 86 -6.5 131t-20.5 61.5t-41 16.5z" />
    <glyph glyph-name="one.subs" unicode="&#x2081;" horiz-adv-x="438" 
d="M356 -279h-225v521q-60 0 -90 6v162q106 8 156 65h159v-754z" />
    <glyph glyph-name="two.subs" unicode="&#x2082;" horiz-adv-x="649" 
d="M590 -279h-539v21q0 122 48 204.5t163 170.5q62 48 84.5 76.5t22.5 52.5q0 65 -54 65q-32 0 -45 -24t-18 -74h-205q1 53 15.5 98t45.5 84t88 61.5t134 22.5q136 0 203 -66.5t67 -170.5q0 -38 -10 -68t-34 -58t-46.5 -47t-65.5 -51q-105 -82 -122 -116h296z" />
    <glyph glyph-name="three.subs" unicode="&#x2083;" horiz-adv-x="655" 
d="M248 35v155h49q39 0 56.5 15.5t17.5 50.5q0 61 -56 61q-33 0 -45 -20t-16 -53h-203q2 30 9 58t25.5 61.5t47.5 58t79.5 41t115.5 16.5q137 0 200.5 -58.5t63.5 -148.5q0 -62 -32 -99t-73 -50q19 -6 38 -16t41.5 -29.5t36 -53.5t13.5 -77q0 -106 -72 -171t-220 -65
q-80 0 -137.5 21.5t-88 59t-45 77t-16.5 86.5h217q4 -82 70 -82q65 0 65 80q0 44 -23 63t-73 19h-45z" />
    <glyph glyph-name="four.subs" unicode="&#x2084;" horiz-adv-x="669" 
d="M555 -279h-211v166h-303v164l225 420h289v-418h86l-16 -166h-70v-166zM238 53h106v62q0 78 4 176q-47 -115 -110 -238z" />
    <glyph glyph-name="five.subs" unicode="&#x2085;" horiz-adv-x="673" 
d="M600 469l-27 -172h-278q-3 -13 -12 -107q45 29 120 29q108 0 167 -63t59 -174q0 -118 -73.5 -194.5t-219.5 -76.5q-138 0 -210.5 63.5t-78.5 172.5h217q5 -34 19 -52t49 -18q69 0 69 94q0 51 -17 73t-54 22q-57 0 -72 -52l-203 21q29 167 56 434h489z" />
    <glyph glyph-name="six.subs" unicode="&#x2086;" horiz-adv-x="679" 
d="M625 262h-215q-7 55 -62 55q-24 0 -39.5 -12t-23 -35.5t-10 -45t-3.5 -52.5q53 47 148 47q103 0 163 -64t60 -173q0 -124 -77.5 -197.5t-219.5 -73.5q-299 0 -299 375q0 83 14.5 150t48 123.5t94.5 88t146 31.5q71 0 124.5 -18t84.5 -50t47 -69t19 -80zM348 -125
q70 0 70 98q0 97 -72 97q-70 0 -70 -95q0 -100 72 -100z" />
    <glyph glyph-name="seven.subs" unicode="&#x2087;" horiz-adv-x="610" 
d="M31 469h542v-170q-73 -102 -133.5 -257t-87.5 -321h-248q24 159 96.5 320t139.5 242h-309v186z" />
    <glyph glyph-name="eight.subs" unicode="&#x2088;" horiz-adv-x="667" 
d="M328 -289q-135 0 -212 61t-77 167q0 63 32 106.5t83 65.5q-88 53 -88 157q0 96 67.5 153.5t204.5 57.5q129 0 196.5 -59.5t67.5 -153.5q0 -100 -88 -149q48 -21 81.5 -64t33.5 -110q0 -111 -80.5 -171.5t-220.5 -60.5zM336 -135q34 0 52 22.5t18 61.5q0 86 -72 86
q-34 0 -52 -23t-18 -61q0 -39 17.5 -62.5t54.5 -23.5zM334 326q-60 0 -60 -72q0 -70 62 -70q59 0 59 70q0 72 -61 72z" />
    <glyph glyph-name="nine.subs" unicode="&#x2089;" horiz-adv-x="684" 
d="M53 -72h221q7 -28 20 -41.5t42 -13.5q70 0 74 162q-45 -45 -134 -45q-102 0 -168.5 56.5t-66.5 170.5q0 115 79.5 188.5t213.5 73.5q301 0 301 -356q0 -199 -70.5 -305.5t-238.5 -106.5q-131 0 -198.5 61t-74.5 156zM336 315q-33 0 -51.5 -24.5t-18.5 -65.5q0 -82 74 -82
q31 0 50.5 21t19.5 63q0 88 -74 88z" />
    <glyph glyph-name="parenleft.subs" unicode="&#x208d;" horiz-adv-x="436" 
d="M207 594h192q-131 -247 -131 -510q0 -273 131 -512h-192q-53 74 -97 208t-44 304q0 292 141 510z" />
    <glyph glyph-name="parenright.subs" unicode="&#x208e;" horiz-adv-x="436" 
d="M227 -428h-192q131 243 131 512q0 162 -36 282t-95 228h192q54 -74 98 -207.5t44 -302.5q0 -292 -142 -512z" />
    <glyph glyph-name="colonmonetary" unicode="&#x20a1;" horiz-adv-x="954" 
d="M391 686q0 -253 22.5 -350.5t88.5 -97.5q57 0 80 39.5t28 130.5h297q-4 -92 -24.5 -162t-67.5 -126.5t-119 -84.5v-174h-153v141q-14 -2 -45 -2h-23v-139h-158v170q-135 56 -189 215.5t-54 441.5q0 254 58.5 406.5t184.5 210.5v151h158v-115h29h39v115h153v-145
q75 -29 121.5 -86.5t65 -126t20.5 -158.5h-293q-3 166 -102 166q-46 0 -70.5 -37t-35.5 -126t-11 -257z" />
    <glyph glyph-name="franc" unicode="&#x20a3;" horiz-adv-x="913" 
d="M137 0v225h-121v176h121v942h727v-253h-413v-261h383v-247h-383v-181h176v-176h-176v-225h-314z" />
    <glyph glyph-name="lira" unicode="&#x20a4;" horiz-adv-x="962" 
d="M868 0h-807v231q60 26 89 84t34 156h-135v145h131q-1 13 -4 40t-4 42h-123v146h113q-4 70 -4 110q0 202 96 306t278 104q96 0 167 -28.5t112.5 -80.5t60.5 -118t17 -146h-271q0 75 -18.5 104t-60.5 29q-43 0 -61.5 -34t-18.5 -109q0 -39 8 -137h244v-146h-232
q4 -62 4 -82h228v-145h-234q-16 -140 -78 -217h506z" />
    <glyph glyph-name="uni20A6" unicode="&#x20a6;" horiz-adv-x="974" 
d="M324 1016q3 -58 6 -113h28l-18 113h-16zM621 379h18q-4 40 -8 127h-31zM336 0h-232v506h-81v153h81v86h-81v158h81v440h365l70 -440h77v131v309h232v-440h84v-158h-84v-86h84v-153h-84v-506h-338l-84 506h-90v-182v-324zM623 659q0 15 -1 43t-1 43h-58l12 -86h48z
M399 659l-14 86h-53q2 -29 2 -86h65z" />
    <glyph glyph-name="peseta" unicode="&#x20a7;" horiz-adv-x="987" 
d="M100 0v827h-92v177h92v339h396q176 0 278.5 -87.5t122.5 -251.5h78v-177h-78q-22 -170 -126 -261t-286 -91h-82v-475h-303zM401 1133v-129h197q-9 70 -39 99.5t-92 29.5h-66zM401 694h58q59 0 92.5 29.5t44.5 103.5h-195v-133z" />
    <glyph glyph-name="dong" unicode="&#x20ab;" horiz-adv-x="958" 
d="M94 -111h770v-186h-770v186zM559 1360h303v-107h94v-180h-94v-758q0 -144 6 -315h-278q-4 27 -12 102q-34 -62 -90 -89t-140 -27q-152 0 -225.5 134.5t-73.5 377.5q0 227 86 357t240 130q143 0 184 -74v162h-305v180h305v107zM358 496q0 -146 24 -206.5t79 -60.5
q57 0 80.5 55t23.5 208q0 141 -20 194t-78 53q-59 0 -84 -56.5t-25 -186.5z" />
    <glyph glyph-name="Euro" unicode="&#x20ac;" horiz-adv-x="985" 
d="M659 362h287q-34 -380 -401 -380q-193 0 -288.5 128.5t-117.5 389.5h-98v145h92v41v41h-92v147h100q28 248 131.5 367t288.5 119q86 0 153 -23t107.5 -59.5t67 -86.5t37 -97t12.5 -99h-287q-2 57 -21 90t-69 33q-34 0 -55 -17.5t-36 -72t-21 -154.5h278v-147h-283v-37
v-45h283v-145h-278q7 -158 31.5 -216.5t78.5 -58.5q46 0 69.5 32t30.5 105z" />
    <glyph glyph-name="uni20B1" unicode="&#x20b1;" horiz-adv-x="1030" 
d="M135 0v711h-90v131h90v69h-90v131h90v301h371q162 0 264 -76.5t137 -224.5h90v-131h-73v-32v-37h73v-131h-90q-35 -150 -134 -231t-261 -81h-78v-399h-299zM430 1135v-93h186q-15 49 -44.5 71t-79.5 22h-62zM633 879v32h-203v-69h203v37zM430 616h59q98 0 125 95h-184
v-95z" />
    <glyph glyph-name="uni20B2" unicode="&#x20b2;" horiz-adv-x="976" 
d="M891 967h-291q-2 71 -24 108t-80 37q-47 0 -74 -36.5t-40 -125t-13 -245.5q0 -188 13 -285.5t44 -138.5t90 -41q44 0 74 10v455h299v-637q-144 -55 -291 -66v-154h-205v158q-185 32 -261.5 193.5t-76.5 494.5q0 290 83 448.5t255 190.5v115h205v-113q287 -45 293 -368z
" />
    <glyph glyph-name="uni20B4" unicode="&#x20b4;" horiz-adv-x="956" 
d="M369 997h-273q2 75 24 139t65.5 116.5t118.5 82t173 29.5q181 0 275 -89.5t94 -244.5q0 -95 -31 -174h74v-141h-170q-51 -51 -82 -78h233v-139h-391q-48 -51 -66 -93t-18 -88q0 -45 24 -76.5t68 -31.5q54 0 78 39t27 119h276q-6 -200 -103 -293.5t-298 -93.5
q-63 0 -117.5 11.5t-103.5 37.5t-83.5 65t-54.5 97.5t-20 132.5q0 104 37 174h-68v139h174q20 22 84 78h-239v141h399q70 78 70 174q0 46 -19.5 76.5t-62.5 30.5q-49 0 -70 -35t-24 -105z" />
    <glyph glyph-name="uni20B5" unicode="&#x20b5;" horiz-adv-x="956" 
d="M391 686q0 -253 22.5 -350.5t88.5 -97.5q57 0 80 39.5t28 130.5h297q-14 -349 -297 -398v-155h-204v151q-96 16 -161 66.5t-102 139t-53 203t-16 273.5q0 293 80 452.5t252 192.5v115h204v-115q66 -11 116.5 -36.5t83 -61t53.5 -83.5t30 -99.5t10 -112.5h-293
q-3 166 -102 166q-46 0 -70.5 -37t-35.5 -126t-11 -257z" />
    <glyph glyph-name="uni20B9" unicode="&#x20b9;" horiz-adv-x="942" 
d="M891 893h-141q-20 -244 -228 -336l324 -557h-346l-285 506h-143v237h176q82 0 128 35t58 115h-362v168h344q-42 86 -172 86h-172v196h819v-159h-217q41 -50 63 -123h154v-168z" />
    <glyph glyph-name="uni20BA" unicode="&#x20ba;" horiz-adv-x="962" 
d="M457 0h-312v508l-141 -62v187l141 61v94l-141 -61v186l141 62v368h312v-235l207 90v-188l-207 -88v-95l207 91v-187l-207 -90v-387q58 0 99.5 20.5t63.5 59.5t33 81.5t15 100.5h268q0 -40 -4 -81t-17 -93.5t-34.5 -98.5t-59 -91.5t-86 -78.5t-120.5 -53t-158 -20z" />
    <glyph glyph-name="uni20BD" unicode="&#x20bd;" horiz-adv-x="962" 
d="M106 0v276h-124v185h124v117h-124v208h124v557h390q214 0 326 -101.5t112 -272.5q0 -194 -114.5 -292.5t-334.5 -98.5h-71v-117h264v-185h-264v-276h-308zM414 1120v-334h49q162 0 162 168q0 83 -34.5 124.5t-119.5 41.5h-57z" />
    <glyph glyph-name="uni2113" unicode="&#x2113;" horiz-adv-x="892" 
d="M596 348h260q-3 -168 -93 -267t-278 -99q-93 0 -161.5 27t-108 76.5t-58 112.5t-18.5 142v12q-39 -25 -110 -57v256q74 41 104 63v426q0 213 95.5 310.5t258.5 95.5q162 0 246 -96t86 -265q1 -98 -22.5 -179.5t-74 -152t-117 -130t-163.5 -125.5v-133q0 -72 14.5 -107
t57.5 -35q41 0 58.5 28t23.5 97zM442 1098v-293q109 126 109 301q0 106 -53 106q-28 0 -42 -25.5t-14 -88.5z" />
    <glyph glyph-name="uni2116" unicode="&#x2116;" horiz-adv-x="1757" 
d="M389 0h-276v1352h379q189 -795 204 -885h9q-17 261 -17 618v267h275v-1352h-365q-116 489 -219 938h-6q16 -227 16 -657v-281zM1290 895q0 -117 17 -163t65 -46q45 0 61.5 45t16.5 166q0 114 -18.5 153.5t-61.5 39.5q-41 0 -60.5 -42t-19.5 -153zM1094 399h555v-190h-555
v190zM1370 1284q151 0 237.5 -98t86.5 -291q0 -208 -85.5 -307t-240.5 -99q-326 0 -326 406q0 193 87 291t241 98z" />
    <glyph glyph-name="uni2117" unicode="&#x2117;" horiz-adv-x="1314" 
d="M424 342v690h283q110 0 177.5 -59.5t67.5 -169.5q0 -112 -64 -174t-175 -62h-95v-225h-194zM616 887v-180h64q80 0 80 94q0 45 -20.5 65.5t-63.5 20.5h-60zM659 1362q120 0 224.5 -42.5t185.5 -124t127.5 -213.5t46.5 -300q0 -169 -46.5 -300.5t-127.5 -212t-185 -122
t-225 -41.5q-125 0 -230.5 42t-186.5 123.5t-126.5 212t-45.5 298.5q0 163 45 293t125 214t187 128.5t232 44.5zM657 1227q-208 0 -325 -135t-117 -408q0 -130 34 -234.5t93.5 -172t140 -103t174.5 -35.5q203 0 323 137.5t120 403.5t-123 406.5t-320 140.5z" />
    <glyph glyph-name="uni2120" unicode="&#x2120;" horiz-adv-x="892" 
d="M893 915h-135v115q0 51 2 101t5 96.5t3 54.5h-4q-13 -68 -33 -184.5t-33 -179.5h-118q-28 178 -56 364h-6q8 -156 8 -266v-101h-129v467h213q8 -46 20.5 -132.5t16.5 -110.5h4q15 109 43 243h199v-467zM20 1061h125q6 -53 48 -53q32 0 32 28q0 18 -13.5 30t-47.5 26
q-83 31 -111 68t-28 89q0 68 42 106t119 38q82 0 120 -42t40 -106h-123q-3 45 -37 45q-32 0 -32 -26q0 -24 55 -45q87 -35 116 -71t29 -97q0 -67 -42 -106.5t-124 -39.5q-79 0 -123.5 41t-44.5 115z" />
    <glyph glyph-name="trademark" unicode="&#x2122;" horiz-adv-x="874" 
d="M874 915h-135v115q0 106 13 252h-7q-12 -58 -32 -177t-35 -187h-117q-6 37 -55 364h-6q8 -156 8 -268v-99h-129v467h213q24 -138 35 -241h4q9 72 45 241h198v-467zM0 1382h344v-116h-104v-351h-138v351h-102v116z" />
    <glyph glyph-name="uni2126" unicode="&#x2126;" horiz-adv-x="1071" 
d="M543 1403q456 0 456 -584q0 -233 -41 -363t-120 -196h180v-260h-447v274q63 39 84 155.5t21 397.5q0 53 -1.5 90t-6 77.5t-14 66.5t-24 48.5t-37 33t-52.5 10.5q-76 0 -108 -82t-32 -248q0 -278 19.5 -395t73.5 -154v-274h-439v260h166q-147 132 -147 559q3 584 469 584z
" />
    <glyph glyph-name="estimated" unicode="&#x212e;" horiz-adv-x="1404" 
d="M1339 633h-942q-6 0 -6 -6v-269q0 -19 15 -45q43 -86 121.5 -133t181.5 -47q111 0 181.5 41t119.5 127h231q-58 -113 -144 -186t-182.5 -104t-209.5 -31q-180 0 -324 87.5t-226.5 247.5t-82.5 363q0 194 85.5 354t230.5 250t317 90q132 0 247.5 -48.5t201.5 -137
t135.5 -223t49.5 -297.5v-33zM1024 803v213q0 23 -16 47q-84 158 -299 158q-210 0 -306 -164q-12 -24 -12 -47v-207q0 -10 6 -10h619q8 0 8 10z" />
    <glyph glyph-name="onethird" unicode="&#x2153;" horiz-adv-x="1376" 
d="M324 0h-168l698 1346h168zM367 596h-226v520q-60 0 -90 6v162q105 8 156 66h160v-754zM934 309v156h49q39 0 56.5 15t17.5 50q0 62 -56 62q-33 0 -45 -20.5t-16 -53.5h-203q2 30 9 58t25.5 62t47.5 58.5t79.5 41t115.5 16.5q137 0 200.5 -58.5t63.5 -148.5
q0 -62 -32 -99.5t-72 -50.5q19 -6 38 -16t41.5 -29.5t36 -53.5t13.5 -77q0 -106 -72.5 -170.5t-220.5 -64.5q-80 0 -137.5 21.5t-88 58.5t-45 76.5t-16.5 86.5h217q4 -82 70 -82q65 0 65 80q0 44 -23 63t-73 19h-45z" />
    <glyph glyph-name="twothirds" unicode="&#x2154;" horiz-adv-x="1568" 
d="M526 0h-168l699 1346h168zM596 596h-539v20q0 122 48 204.5t163 170.5q62 48 84.5 76.5t22.5 52.5q0 66 -53 66q-32 0 -45.5 -24.5t-18.5 -74.5h-205q1 53 15.5 98.5t45.5 84.5t88 61.5t134 22.5q136 0 203 -67t67 -171q0 -50 -21.5 -90.5t-49 -65.5t-84.5 -67
q-58 -46 -85 -70.5t-38 -46.5h297zM1135 311v156h49q39 0 56 15t17 50q0 62 -55 62q-33 0 -45 -20.5t-16 -53.5h-203q2 30 8.5 58t25.5 62t47.5 58.5t79 41t115.5 16.5q137 0 201 -58.5t64 -148.5q0 -62 -32 -99.5t-73 -50.5q19 -6 38 -16t41.5 -29.5t36 -53.5t13.5 -77
q0 -106 -72.5 -170.5t-220.5 -64.5q-80 0 -137.5 21.5t-87.5 58.5t-44.5 76.5t-16.5 86.5h217q4 -81 69 -81q66 0 66 79q0 44 -23 63t-73 19h-45z" />
    <glyph glyph-name="oneeighth" unicode="&#x215b;" horiz-adv-x="1398" 
d="M340 0h-168l698 1346h168zM379 596h-225v520q-61 0 -91 6v162q105 8 156 66h160v-754zM1032 -12q-135 0 -212 60.5t-77 166.5q0 63 32 106.5t83 65.5q-88 53 -88 158q0 96 67.5 153.5t204.5 57.5q129 0 197 -59.5t68 -153.5q0 -101 -88 -150q47 -21 80.5 -64t33.5 -110
q0 -111 -80.5 -171t-220.5 -60zM1040 141q34 0 52 22.5t18 61.5q0 86 -72 86q-34 0 -51.5 -23t-17.5 -61q0 -86 71 -86zM1038 602q-59 0 -59 -72q0 -69 61 -69q60 0 60 69q0 72 -62 72z" />
    <glyph glyph-name="threeeighths" unicode="&#x215c;" horiz-adv-x="1550" 
d="M504 0h-168l698 1346h168zM1186 -12q-135 0 -212 60.5t-77 166.5q0 63 32 106.5t83 65.5q-88 53 -88 158q0 96 67.5 153.5t204.5 57.5q129 0 196.5 -59.5t67.5 -153.5q0 -101 -88 -150q48 -21 81.5 -64t33.5 -110q0 -111 -80.5 -171t-220.5 -60zM1194 141q34 0 52 22.5
t18 61.5q0 86 -72 86q-34 0 -52 -23t-18 -61q0 -39 17.5 -62.5t54.5 -23.5zM1192 602q-59 0 -59 -72q0 -69 61 -69q59 0 59 69q0 72 -61 72zM250 909v156h49q39 0 56.5 15t17.5 50q0 62 -56 62q-33 0 -45 -20.5t-16 -53.5h-203q2 30 9 58t25.5 62t47.5 58.5t79.5 41
t115.5 16.5q137 0 200.5 -58.5t63.5 -148.5q0 -62 -32 -99.5t-73 -50.5q19 -6 38 -16t41.5 -29.5t36 -53.5t13.5 -77q0 -106 -72 -170.5t-220 -64.5q-80 0 -137.5 21.5t-88 58.5t-45 76.5t-16.5 86.5h217q4 -81 70 -81q65 0 65 79q0 44 -23 63t-73 19h-45z" />
    <glyph glyph-name="fiveeighths" unicode="&#x215d;" horiz-adv-x="1570" 
d="M512 0h-168l698 1346h168zM606 1343l-26 -172h-279q-3 -14 -12 -106q45 29 121 29q108 0 166.5 -63.5t58.5 -174.5q0 -118 -73.5 -194t-219.5 -76q-138 0 -210.5 63t-78.5 172h217q5 -33 19 -51t49 -18q70 0 70 94q0 50 -17.5 72t-54.5 22q-57 0 -72 -51l-203 20
q29 167 56 434h489zM1198 -14q-135 0 -212 60.5t-77 166.5q0 63 32 106.5t83 65.5q-88 53 -88 158q0 96 67.5 153.5t204.5 57.5q129 0 197 -59.5t68 -153.5q0 -100 -89 -150q48 -21 81.5 -64t33.5 -110q0 -111 -80.5 -171t-220.5 -60zM1206 139q34 0 52 22.5t18 61.5
q0 86 -72 86q-34 0 -51.5 -23t-17.5 -61q0 -86 71 -86zM1204 600q-59 0 -59 -72q0 -69 61 -69q60 0 60 69q0 72 -62 72z" />
    <glyph glyph-name="seveneighths" unicode="&#x215e;" horiz-adv-x="1472" 
d="M387 0h-168l699 1346h167zM1106 -12q-135 0 -212 60.5t-77 166.5q0 63 32 106.5t83 65.5q-88 53 -88 158q0 96 67.5 153.5t204.5 57.5q129 0 196.5 -59.5t67.5 -153.5q0 -101 -88 -150q48 -21 81.5 -64t33.5 -110q0 -111 -80.5 -171t-220.5 -60zM1114 141q34 0 52 22.5
t18 61.5q0 86 -72 86q-34 0 -52 -23t-18 -61q0 -39 17.5 -62.5t54.5 -23.5zM1112 602q-59 0 -59 -72q0 -69 61 -69q60 0 60 69q0 72 -62 72zM72 1343h542v-169q-73 -102 -133.5 -257t-87.5 -321h-248q24 159 96.5 319.5t139.5 241.5h-309v186z" />
    <glyph glyph-name="uni2190" unicode="&#x2190;" horiz-adv-x="1460" 
d="M1403 586h-959l474 -475l-142 -150l-719 731v2l719 731l142 -155l-474 -469h959v-215z" />
    <glyph glyph-name="arrowup" unicode="&#x2191;" horiz-adv-x="1452" 
d="M618 -8v1059l-413 -455l-148 149l668 701h2l668 -701l-156 -147l-405 453v-1059h-216z" />
    <glyph glyph-name="uni2192" unicode="&#x2192;" horiz-adv-x="1460" 
d="M57 801h959l-473 475l141 149l719 -731v-2l-719 -731l-141 156l473 469h-959v215z" />
    <glyph glyph-name="arrowdown" unicode="&#x2193;" horiz-adv-x="1452" 
d="M834 1401v-1059l413 455l148 -150l-668 -700h-2l-668 700l156 148l405 -453v1059h216z" />
    <glyph glyph-name="partialdiff" unicode="&#x2202;" horiz-adv-x="985" 
d="M152 1161l-2 238q92 8 133 8q324 0 473 -205.5t149 -623.5q-1 -151 -24 -259t-74 -184.5t-134.5 -113.5t-203.5 -37q-197 0 -300 121.5t-103 345.5q0 215 104.5 325.5t280.5 110.5q94 0 127 -33v14q-2 55 -19 104.5t-52.5 94.5t-101 71.5t-153.5 26.5q-64 0 -100 -4z
M485 211q59 0 83 54t24 186q0 117 -24 162.5t-83 45.5q-56 0 -82 -52t-26 -165q0 -125 25.5 -178t82.5 -53z" />
    <glyph glyph-name="uni2206" unicode="&#x2206;" horiz-adv-x="1044" 
d="M1006 0h-967l-2 203l268 1179h424l279 -1179zM342 260h330l-113 569q-29 134 -55 304h-4q-10 -83 -47 -306z" />
    <glyph glyph-name="product" unicode="&#x220f;" horiz-adv-x="1116" 
d="M106 1382h904v-1529h-320v1267h-266v-1267h-318v1529z" />
    <glyph glyph-name="summation" unicode="&#x2211;" horiz-adv-x="882" 
d="M829 -150h-806v207l309 555l-301 547v223h784v-262h-430l270 -483l-284 -526h493z" />
    <glyph glyph-name="minus" unicode="&#x2212;" horiz-adv-x="1110" 
d="M1014 395h-920v230h920v-230z" />
    <glyph glyph-name="uni2215" unicode="&#x2215;" horiz-adv-x="253" 
d="M-141 0h-168l698 1346h168z" />
    <glyph glyph-name="uni2219" unicode="&#x2219;" horiz-adv-x="444" 
d="M377 410h-309v360h309v-360z" />
    <glyph glyph-name="radical" unicode="&#x221a;" horiz-adv-x="1064" 
d="M1081 1681l-383 -1990h-190l-266 784l-158 -59l-64 200l400 158q64 -213 109.5 -393.5t56.5 -247.5q24 257 272 1548h223z" />
    <glyph glyph-name="infinity" unicode="&#x221e;" horiz-adv-x="1501" 
d="M387 197q-151 0 -237.5 93.5t-86.5 241.5q0 139 91 236.5t247 97.5q108 0 187.5 -48t165.5 -136q47 45 77 70.5t76 56t96 44t107 13.5q148 0 238 -92.5t90 -241.5q0 -144 -94 -239t-248 -96q-102 -1 -183.5 47t-164.5 135q-47 -45 -77.5 -70.5t-76.5 -55t-96.5 -43
t-110.5 -13.5zM408 418q59 0 99 24.5t99 83.5q-59 64 -101 93.5t-93 29.5q-50 0 -86.5 -29.5t-36.5 -87.5q0 -53 37 -83.5t82 -30.5zM1090 418q62 0 91 33t29 81q0 53 -31.5 85t-86.5 32q-52 0 -97.5 -27.5t-99.5 -84.5q38 -38 63 -59.5t61.5 -40.5t70.5 -19z" />
    <glyph glyph-name="integral" unicode="&#x222b;" horiz-adv-x="604" 
d="M618 1651l-22 -254q-54 8 -76 8q-61 0 -81.5 -42t-18.5 -161q0 -122 12 -530t12 -531q0 -72 -2 -115t-10 -109.5t-27.5 -106.5t-51.5 -81.5t-86 -61t-126 -19.5q-97 0 -159 28l32 263q41 -13 92 -13q53 0 65.5 43t12.5 183q-1 118 -11 499.5t-11 511.5q-1 57 1 104.5
t9.5 101.5t21 96t37.5 82t56.5 66t80.5 42t107 16q97 0 143 -20z" />
    <glyph glyph-name="approxequal" unicode="&#x2248;" horiz-adv-x="1105" 
d="M309 182h-209v58q0 249 230 249q68 0 147.5 -26.5t149.5 -53t114 -26.5q28 0 43 14.5t15 55.5v24h207v-57q0 -61 -12 -106.5t-31.5 -73t-49 -44t-59.5 -22.5t-68 -6q-64 0 -130.5 16.5t-111 36.5t-94 36.5t-83.5 16.5q-58 0 -58 -71v-21zM309 565h-209v58
q0 73 17.5 123.5t50.5 77t71 37.5t87 11q72 0 151.5 -26t148.5 -52t115 -26q28 0 43 15t15 57v20h207v-53q0 -76 -18 -129t-51 -80t-70.5 -38t-86.5 -11q-76 0 -156 27.5t-146.5 55t-110.5 27.5q-58 0 -58 -71v-23z" />
    <glyph glyph-name="notequal" unicode="&#x2260;" horiz-adv-x="1110" 
d="M872 987l-73 -158h215v-229h-320l-84 -182h404v-230h-510l-70 -151h-184l69 151h-223v230h328l84 182h-412v229h518l72 158h186z" />
    <glyph glyph-name="lessequal" unicode="&#x2264;" horiz-adv-x="1019" 
d="M96 625v229l822 336v-246l-560 -203l560 -206v-246zM918 0h-822v227h822v-227z" />
    <glyph glyph-name="greaterequal" unicode="&#x2265;" horiz-adv-x="1019" 
d="M918 856v-231l-822 -336v246l559 200l-559 207v248zM918 0h-822v227h822v-227z" />
    <glyph glyph-name="uni25A0" unicode="&#x25a0;" horiz-adv-x="761" 
d="M119 274v527h524v-527h-524z" />
    <glyph glyph-name="triagup" unicode="&#x25b2;" horiz-adv-x="1196" 
d="M1139 8h-1082l529 1163h8z" />
    <glyph glyph-name="uni25B3" unicode="&#x25b3;" horiz-adv-x="1196" 
d="M1139 6h-1082l529 1165h8zM387 219h395l-200 471z" />
    <glyph glyph-name="uni25B6" unicode="&#x25b6;" horiz-adv-x="1280" 
d="M86 37v1081l1118 -528v-6z" />
    <glyph glyph-name="uni25B7" unicode="&#x25b7;" horiz-adv-x="1280" 
d="M86 37v1081l1120 -528v-6zM741 590l-440 196v-395z" />
    <glyph glyph-name="triagdn" unicode="&#x25bc;" horiz-adv-x="1196" 
d="M55 1143h1082l-529 -1166h-8z" />
    <glyph glyph-name="uni25BD" unicode="&#x25bd;" horiz-adv-x="1196" 
d="M55 1145h1082l-529 -1168h-8zM807 930h-395l200 -471z" />
    <glyph glyph-name="uni25C0" unicode="&#x25c0;" horiz-adv-x="1280" 
d="M1174 1118v-1081l-1121 530v6z" />
    <glyph glyph-name="uni25C1" unicode="&#x25c1;" horiz-adv-x="1280" 
d="M1174 1118v-1081l-1121 530v6zM958 768l-440 -203l440 -194v397z" />
    <glyph glyph-name="uni25C6" unicode="&#x25c6;" horiz-adv-x="901" 
d="M72 543l377 377l378 -392l-372 -378z" />
    <glyph glyph-name="uni25C9" unicode="&#x25c9;" horiz-adv-x="985" 
d="M494 684q67 0 110 -46.5t43 -111.5q0 -69 -42.5 -117.5t-108.5 -48.5q-69 0 -111.5 47.5t-42.5 118.5q0 65 42.5 111.5t109.5 46.5zM907 526q-2 -180 -120 -305t-291 -125q-175 0 -296 124.5t-120 305.5q-1 116 54 214.5t151.5 156t212.5 57.5q171 0 290 -126.5
t119 -301.5zM494 795q-107 0 -177.5 -78.5t-70.5 -190.5q0 -116 71 -194t179 -78t177.5 77t69.5 195q0 112 -71.5 190.5t-177.5 78.5z" />
    <glyph glyph-name="lozenge" unicode="&#x25ca;" horiz-adv-x="1052" 
d="M743 668l-161 336q-5 12 -18 40t-23 51t-15 38h-6q-16 -55 -55 -132l-156 -327l154 -328q37 -77 59 -143h4q8 20 62 137zM985 672l-369 -723h-190l-360 719l366 721h191z" />
    <glyph glyph-name="uni2610" unicode="&#x2610;" horiz-adv-x="1617" 
d="M231 1354h1244v-1280l-93 -90h-1239v1284zM233 1235v-1157h1113v1157h-1113z" />
    <glyph glyph-name="uni2611" unicode="&#x2611;" horiz-adv-x="1617" 
d="M231 1354h1244v-1280l-93 -90h-1239v1284zM233 1235v-1157h1113v1157h-1113zM1038 1133h205q-274 -423 -555 -959h-65q-116 152 -254 438l176 115q69 -195 117 -285q159 347 376 691z" />
    <glyph glyph-name="uni2713" unicode="&#x2713;" horiz-adv-x="1269" 
d="M975 1389h276q-371 -589 -786 -1438h-92q-192 305 -330 647l233 135q94 -323 152 -430q125 303 268.5 588.5t278.5 497.5z" />
    <glyph glyph-name="uni2752" unicode="&#x2752;" horiz-adv-x="964" 
d="M119 756l164 162h561v-594l-152 -162h-571zM262 692v-383h361v383h-361z" />
    <glyph glyph-name="fi" unicode="&#xfb01;" horiz-adv-x="1060" 
d="M434 0h-311v829h-115v248h115v70q0 153 73 235t238 82q75 0 125 -12v-233q-16 4 -49 4q-43 0 -59.5 -21t-16.5 -67v-58h135v-248h-135v-829zM659 0v1077h314v-1077h-314zM973 1194h-311v254h311v-254z" />
    <glyph glyph-name="fl" unicode="&#xfb02;" horiz-adv-x="1058" 
d="M434 0h-311v829h-115v248h115v70q0 153 73 235t238 82q75 0 125 -12v-233q-16 4 -49 4q-43 0 -59.5 -21t-16.5 -67v-58h135v-248h-135v-829zM973 0h-314v1448h314v-1448z" />
    <glyph glyph-name="uni00470303" horiz-adv-x="1067" 
d="M987 793v-793h-233q-11 66 -13 109q-76 -136 -272 -136q-207 0 -304 168t-97 541q0 202 33.5 344.5t99 225t153 119t205.5 36.5q80 0 145.5 -18t108.5 -45.5t75.5 -67t49.5 -76.5t28 -80.5t13.5 -71.5t3.5 -57h-317q-2 27 -4 44.5t-9 43t-19 40.5t-33.5 26.5t-51.5 11.5
q-86 0 -117 -111.5t-31 -365.5q0 -257 29 -357t113 -100q69 0 97 57t28 175v88h-136v250h455zM387 1483h-184v55q0 211 178 211q61 0 151 -31.5t109 -31.5q37 0 37 45v18h180v-43q0 -131 -46.5 -180t-131.5 -49q-57 0 -146.5 31.5t-111.5 31.5q-35 0 -35 -37v-20z" />
    <glyph glyph-name="uni00670303" horiz-adv-x="993" 
d="M901 739v-643q0 -122 -20 -207t-69 -149.5t-135 -95.5t-214 -31q-89 0 -158.5 19t-112.5 49t-71 73t-39.5 86t-13.5 92h307q2 -18 5.5 -29.5t13 -27.5t30.5 -24.5t53 -8.5q67 0 90 51.5t23 169.5v74q-61 -117 -221 -117q-314 0 -314 519q0 277 87 417t249 140
q155 0 201 -107q2 24 12 88h301q-4 -132 -4 -338zM375 545q0 -154 26.5 -217.5t83.5 -63.5q65 0 87 67.5t22 239.5q0 55 -1 86t-4 67.5t-9.5 55t-17.5 36t-28.5 24t-41.5 6.5q-60 0 -88.5 -67.5t-28.5 -233.5zM371 1188h-191v63q0 115 47 161t127 46q48 0 96.5 -18.5t85 -37
t56.5 -18.5q31 0 31 54v18h186v-53q0 -68 -14 -113.5t-40 -68t-54 -31t-66 -8.5q-57 0 -134.5 35.5t-99.5 35.5q-30 0 -30 -43v-22z" />
    <glyph glyph-name="zero.slash" horiz-adv-x="974" 
d="M489 1364q81 0 142.5 -18.5t115 -65t87.5 -123t53.5 -195t19.5 -278.5q0 -158 -18 -277t-51.5 -200t-86 -131.5t-117.5 -73t-149 -22.5q-85 0 -149 21.5t-116 71t-84.5 131t-50 202t-17.5 282.5q0 158 20.5 277t56 194.5t89.5 121.5t115.5 64.5t139.5 18.5zM487 1124
q-52 0 -78 -36.5t-37.5 -127t-11.5 -268.5q0 -92 2 -131l222 488q-13 41 -36.5 58t-60.5 17zM487 217q76 0 100.5 100.5t24.5 370.5q0 94 -2 133l-227 -499q13 -55 38.5 -80t65.5 -25z" />
    <glyph glyph-name="zero.slashtab" horiz-adv-x="972" 
d="M487 1364q81 0 142.5 -18.5t115 -65t87.5 -123t53.5 -195t19.5 -278.5q0 -158 -18 -277t-51.5 -200t-86 -131.5t-117.5 -73t-149 -22.5q-85 0 -149 21.5t-116 71t-84.5 131t-50 202t-17.5 282.5q0 158 20.5 277t56 194.5t89.5 121.5t115.5 64.5t139.5 18.5zM485 1124
q-52 0 -78 -36.5t-37.5 -127t-11.5 -268.5q0 -92 2 -131l222 488q-13 41 -36.5 58t-60.5 17zM485 217q76 0 100.5 100.5t24.5 370.5q0 94 -2 133l-227 -499q13 -55 38.5 -80t65.5 -25z" />
    <glyph glyph-name="zero.tab" horiz-adv-x="972" 
d="M487 1364q73 0 130 -15t113 -58.5t92.5 -117t59.5 -197.5t23 -292q0 -170 -21 -295.5t-56.5 -203t-90.5 -124.5t-115 -64t-139 -17q-78 0 -137.5 17.5t-114 65t-89.5 125.5t-55.5 204t-20.5 296t24 295t62 197t95.5 114.5t113 56t126.5 13.5zM485 1124q-35 0 -56 -19
t-33.5 -72t-16.5 -130.5t-4 -210.5q0 -282 19.5 -378.5t90.5 -96.5q70 0 89.5 96t19.5 375q0 72 -0.5 120t-2.5 96t-5 77t-9 56.5t-13.5 42t-19 25.5t-26 15t-33.5 4z" />
    <glyph glyph-name="one.tab" horiz-adv-x="972" 
d="M844 0h-713v252h203v760q-86 0 -180 12v213q179 14 276 111h215v-1096h199v-252z" />
    <glyph glyph-name="two.tab" horiz-adv-x="972" 
d="M860 0h-780v16q1 185 67.5 319.5t231.5 319.5q80 90 112 134t47 90t15 114q0 69 -17.5 104.5t-68.5 35.5q-58 0 -78.5 -47.5t-23.5 -157.5h-287q0 70 11 130t39 118t72 98.5t115 65t164 24.5q202 0 294.5 -103.5t92.5 -283.5q0 -123 -42 -209.5t-169 -222.5
q-93 -102 -144.5 -169.5t-70.5 -121.5h459z" />
    <glyph glyph-name="three.tab" horiz-adv-x="972" 
d="M360 973h-284q1 57 11.5 108t38 104.5t69.5 91.5t113 62.5t163 24.5q190 0 285.5 -91.5t95.5 -258.5q0 -222 -166 -283v-4q87 -27 145 -103t58 -210q0 -98 -20.5 -173t-67.5 -135t-132 -92t-206 -32q-206 0 -301.5 103t-98.5 282h295q3 -77 26.5 -118.5t82.5 -41.5
t82.5 45.5t23.5 146.5q0 116 -36 159.5t-142 43.5h-69v229h65q91 0 123.5 31.5t32.5 130.5q0 77 -19 111.5t-73 34.5q-52 0 -71.5 -44t-23.5 -122z" />
    <glyph glyph-name="four.tab" horiz-adv-x="972" 
d="M803 0h-287v297h-463v242l336 804h414v-804h110l-22 -242h-88v-297zM516 539v192q0 126 10 391q-40 -150 -198 -583h188z" />
    <glyph glyph-name="five.tab" horiz-adv-x="972" 
d="M854 1343l-35 -256h-401q-2 -17 -11.5 -108.5t-11.5 -128.5q64 61 191 61q161 0 238 -115t77 -311q0 -120 -22 -210t-71 -158t-133.5 -102.5t-203.5 -34.5q-108 0 -186.5 31t-123.5 87t-67 124t-24 151h299q3 -79 26 -121.5t78 -42.5q67 0 90 56.5t23 183.5
q0 126 -24 177.5t-91 51.5q-48 0 -72 -31t-37 -92l-276 29q15 110 37.5 367.5t30.5 391.5h700z" />
    <glyph glyph-name="six.tab" horiz-adv-x="972" 
d="M881 1020h-289q-3 26 -6.5 42t-13 35.5t-29 29.5t-47.5 10q-22 0 -39.5 -9.5t-29.5 -24t-21 -40.5t-14 -51t-8 -64t-4.5 -70.5t-2.5 -78.5q68 100 217 100q148 0 229.5 -106t81.5 -316q0 -241 -105 -369t-313 -128q-228 0 -322.5 156t-94.5 495q0 145 13 256t44 203
t80.5 151t124 91t174.5 32q90 0 159.5 -25t108 -60.5t63.5 -85.5t33.5 -90t10.5 -83zM483 207q59 0 85 57.5t26 179.5q0 124 -23.5 172t-85.5 48q-58 0 -84 -46.5t-26 -162.5q0 -128 25 -188t83 -60z" />
    <glyph glyph-name="seven.tab" horiz-adv-x="972" 
d="M100 1343h758v-231q-128 -228 -217 -520.5t-125 -591.5h-330q41 301 146.5 593t226.5 494h-459v256z" />
    <glyph glyph-name="eight.tab" horiz-adv-x="972" 
d="M463 -20q-197 0 -302.5 108t-105.5 303q0 121 49 202.5t117 117.5q-133 86 -133 282q0 170 100.5 269.5t292.5 99.5q182 0 283.5 -92.5t101.5 -265.5q0 -113 -38.5 -185t-100.5 -104q168 -80 168 -324q0 -194 -107.5 -302.5t-324.5 -108.5zM477 203q57 0 82 46t25 152
q0 104 -27 147.5t-84 43.5q-56 0 -82 -44.5t-26 -148.5q0 -103 26 -149.5t86 -46.5zM475 1141q-98 0 -98 -154q0 -89 23.5 -127.5t74.5 -38.5q52 0 75 39t23 125q0 81 -23 118.5t-75 37.5z" />
    <glyph glyph-name="nine.tab" horiz-adv-x="972" 
d="M72 315h297q4 -23 8 -36.5t14 -31.5t28.5 -27t45.5 -9q32 0 54 24t33.5 59.5t17.5 85.5t7.5 92t2.5 89v23q-61 -88 -199 -88q-153 0 -239.5 105.5t-86.5 305.5q0 215 106 336t308 121q221 0 320.5 -145t99.5 -461q0 -173 -13 -297t-43 -219.5t-81.5 -152t-125.5 -84.5
t-177 -28q-71 0 -129.5 15t-96 38t-66.5 56.5t-44 63t-25 65.5t-12.5 57t-3.5 43zM473 1133q-57 0 -82.5 -49t-25.5 -152q0 -105 26.5 -153t83.5 -48q55 0 80 43t25 141q0 115 -22 166.5t-85 51.5z" />
    <glyph glyph-name="zero.slashcap" horiz-adv-x="1001" 
d="M506 1403q81 0 144.5 -19.5t118 -67t90 -125t55.5 -197.5t20 -279q0 -273 -49 -436.5t-142 -231t-243 -67.5q-110 0 -188 36t-133.5 119.5t-82 223.5t-26.5 343q0 201 31 340.5t91 217t136 110.5t178 33zM504 1169q-48 0 -75 -35.5t-41.5 -137t-14.5 -289.5q0 -84 2 -121
l227 501q-13 46 -36.5 64t-61.5 18zM502 211q79 0 104 105.5t25 390.5q0 108 -2 151l-234 -514q25 -133 107 -133z" />
    <glyph glyph-name="zero.cap" horiz-adv-x="1001" 
d="M506 1403q81 0 143 -18t117.5 -64t91 -122.5t56 -198t20.5 -285.5q0 -169 -18 -294t-52 -209.5t-88 -136t-120.5 -73.5t-155.5 -22q-84 0 -149 21.5t-119 73t-89 133.5t-54 206t-19 288q0 166 22 290.5t59.5 202t94.5 125t119 65.5t141 18zM504 1161q-46 0 -70 -39
t-34.5 -134.5t-10.5 -280.5q0 -280 21.5 -383t91.5 -103q76 0 94 97.5t18 388.5q0 100 -1.5 163t-5.5 119t-11 85t-20 51t-30 29t-42 7z" />
    <glyph glyph-name="one.cap" horiz-adv-x="600" 
d="M485 0h-315v1059q-70 4 -131 14v213q149 13 229 100h217v-1386z" />
    <glyph glyph-name="two.cap" horiz-adv-x="923" 
d="M856 0h-805v18q1 189 74.5 340.5t234.5 331.5q109 124 135 164q44 67 46 153v11q0 73 -17.5 111t-70.5 38q-60 0 -81.5 -47t-23.5 -166h-297q0 77 12.5 141.5t42.5 122.5t76.5 98t119 63.5t165.5 23.5q397 0 397 -399q0 -118 -49 -210.5t-178 -232.5
q-98 -104 -148 -174.5t-67 -130.5h471z" />
    <glyph glyph-name="three.cap" horiz-adv-x="960" 
d="M358 1012h-290q17 391 405 391q198 0 293.5 -96t95.5 -273q0 -112 -42.5 -177.5t-106.5 -92.5v-4q188 -74 188 -346q0 -434 -436 -434q-111 0 -192 30.5t-127.5 86t-68.5 124.5t-24 154h303q5 -80 30 -121t81 -41q62 0 88.5 48t26.5 147q0 126 -34.5 168t-137.5 42h-80
v234h73q88 2 120.5 33.5t31.5 128.5q0 81 -20 119t-76 38q-55 0 -76.5 -40t-24.5 -119z" />
    </font>
</defs>
</svg>
