<?xml version="1.0" standalone="no"?>
<!DOCTYPE svg PUBLIC "-//W3C//DTD SVG 1.1//EN" "http://www.w3.org/Graphics/SVG/1.1/DTD/svg11.dtd" >
<svg xmlns="http://www.w3.org/2000/svg" xmlns:xlink="http://www.w3.org/1999/xlink" version="1.1">
<metadata>
Created by FontForge 20170731 at Tue Apr 18 17:17:44 2023
 By Aleksey,,,
(c) 2014 Adobe Systems Incorporated. All Rights Reserved.
</metadata>
<defs>
<font id="AcuminProCond-Medium" horiz-adv-x="819" >
  <font-face 
    font-family="Acumin Pro Condensed Medium"
    font-weight="500"
    font-stretch="condensed"
    units-per-em="2048"
    panose-1="2 11 6 6 2 2 2 2 2 4"
    ascent="1505"
    descent="-543"
    x-height="1042"
    cap-height="1391"
    bbox="-317 -537 1915 2034"
    underline-thickness="102"
    underline-position="-307"
    unicode-range="U+0020-FB02"
  />
<missing-glyph horiz-adv-x="1024" 
d="M0 0v1434h1024v-1434h-1024zM512 809l348 522h-696zM573 717l349 -522v1044zM164 102h696l-348 523zM102 1239v-1044l349 522z" />
    <glyph glyph-name="f_f" unicode="ff" horiz-adv-x="878" 
d="M573 901h-268v-901h-168v901h-133v141h133v136q0 292 246 292q50 0 90 -12l-8 -143q-27 6 -57 6q-59 0 -81 -36t-22 -111v-132h268v129q0 302 248 302q55 0 88 -13l-6 -143q-27 6 -59 6q-58 0 -80.5 -39t-22.5 -117v-125h162v-141h-162v-901h-168v901z" />
    <glyph glyph-name=".notdef" horiz-adv-x="1024" 
d="M0 0v1434h1024v-1434h-1024zM512 809l348 522h-696zM573 717l349 -522v1044zM164 102h696l-348 523zM102 1239v-1044l349 522z" />
    <glyph glyph-name=".null" horiz-adv-x="0" 
 />
    <glyph glyph-name="nonmarkingreturn" horiz-adv-x="682" 
 />
    <glyph glyph-name="space" unicode=" " horiz-adv-x="389" 
 />
    <glyph glyph-name="exclam" unicode="!" horiz-adv-x="483" 
d="M352 461h-147l-17 688v242h181v-244zM360 0h-170v233h170v-233z" />
    <glyph glyph-name="quotedbl" unicode="&#x22;" horiz-adv-x="530" 
d="M199 969h-121l-15 315v174h152v-176zM451 969h-121l-15 315v174h152v-176z" />
    <glyph glyph-name="numbersign" unicode="#" horiz-adv-x="897" 
d="M414 0l73 412h-190l-74 -412h-125l74 412h-135v137h160l55 309h-146v135h170l64 359h123l-64 -359h191l63 359h125l-63 -359h133v-135h-158l-53 -309h143v-137h-168l-73 -412h-125zM512 549l53 309h-190l-53 -309h190z" />
    <glyph glyph-name="dollar" unicode="$" horiz-adv-x="862" 
d="M231 1032q0 -68 34 -117t110 -94v402q-144 -21 -144 -191zM627 340q0 80 -35.5 136.5t-118.5 105.5v-455q154 21 154 213zM473 -160h-98v152q-162 14 -241 109t-87 251h162q14 -199 166 -225v506q-107 51 -170 100.5t-98 120t-35 166.5q0 143 81.5 234.5t221.5 103.5v117
h98v-117q77 -8 133.5 -38t90 -76t50.5 -100.5t19 -119.5h-158q-8 166 -135 195v-447q170 -78 244 -174.5t74 -241.5q0 -157 -80.5 -254.5t-237.5 -109.5v-152z" />
    <glyph glyph-name="percent" unicode="%" horiz-adv-x="1384" 
d="M334 1368q124 0 191 -92t67 -283q0 -187 -64.5 -288.5t-197.5 -102.5q-258 0 -258 387q0 184 69.5 281.5t192.5 97.5zM332 1249q-65 0 -96 -61t-31 -199q0 -140 31.5 -204t97.5 -64q65 0 95 64.5t30 205.5q0 134 -29 196t-98 62zM383 0h-123l735 1352h123zM1053 743
q124 0 192 -92t68 -280q0 -388 -262 -391q-132 0 -195 96t-63 289q0 182 69 280t191 98zM1053 627q-127 0 -127 -260q0 -140 31 -204.5t96 -64.5t96 65t31 206q0 131 -30 194.5t-97 63.5z" />
    <glyph glyph-name="ampersand" unicode="&#x26;" horiz-adv-x="1142" 
d="M422 131q66 0 115 42t102 142l-260 326q-72 -62 -100.5 -123t-28.5 -147q0 -111 45.5 -175.5t126.5 -64.5zM893 842h170l-244 -488l287 -354h-213l-158 197q-66 -110 -139 -161.5t-188 -51.5q-159 0 -242.5 100.5t-83.5 271.5q0 122 49.5 208.5t169.5 176.5
q-68 92 -99.5 168.5t-31.5 175.5q0 61 17.5 116.5t52 102.5t92.5 75t133 28q137 0 212 -83t75 -212q0 -128 -54 -208t-184 -173l205 -254zM463 1272q-62 0 -96.5 -48.5t-34.5 -131.5q0 -70 22 -127.5t82 -133.5q92 68 125 128t33 145q0 168 -131 168z" />
    <glyph glyph-name="quotesingle" unicode="'" horiz-adv-x="284" 
d="M207 963h-129l-15 315v180h158v-180z" />
    <glyph glyph-name="parenleft" unicode="(" horiz-adv-x="573" 
d="M358 1464h160q-119 -180 -189.5 -388t-70.5 -472q0 -256 66 -471.5t194 -415.5h-160q-110 162 -183 386.5t-73 502.5q0 479 256 858z" />
    <glyph glyph-name="parenright" unicode=")" horiz-adv-x="573" 
d="M213 -283h-158q119 182 189.5 390t70.5 473q0 254 -66.5 469t-193.5 415h158q111 -159 184.5 -383.5t73.5 -502.5q0 -481 -258 -861z" />
    <glyph glyph-name="asterisk" unicode="*" horiz-adv-x="675" 
d="M270 1391h131l-24 -248l192 149l72 -116l-225 -105l219 -106l-68 -115l-190 147l26 -249h-133l25 247l-193 -145l-65 115l217 104l-217 105l67 114l191 -145z" />
    <glyph glyph-name="plus" unicode="+" horiz-adv-x="1071" 
d="M469 965h137v-385h369v-136h-369v-391h-137v391h-373v136h373v385z" />
    <glyph glyph-name="comma" unicode="," horiz-adv-x="329" 
d="M141 -229h-137q101 258 115 499h162q-10 -136 -50 -273.5t-90 -225.5z" />
    <glyph glyph-name="hyphen" unicode="-" horiz-adv-x="563" 
d="M70 606h424v-149h-424v149z" />
    <glyph glyph-name="period" unicode="." horiz-adv-x="321" 
d="M246 -2h-170v289h170v-289z" />
    <glyph glyph-name="slash" unicode="/" horiz-adv-x="653" 
d="M197 -41h-136l394 1440h135z" />
    <glyph glyph-name="zero" unicode="0" horiz-adv-x="899" 
d="M455 1368q125 0 202 -66.5t115.5 -215.5t38.5 -396q0 -378 -83 -544t-279 -166q-198 0 -280.5 170.5t-82.5 539.5q0 154 16.5 270t47 193.5t77 125.5t102 68.5t126.5 20.5zM451 1223q-72 0 -114 -50.5t-61.5 -165t-19.5 -311.5q0 -151 8 -251t29 -176t59.5 -111t96.5 -35
q113 0 152.5 132t39.5 437q0 297 -40.5 414t-149.5 117z" />
    <glyph glyph-name="one" unicode="1" horiz-adv-x="526" 
d="M379 0h-168v1153q-31 -15 -90 -30.5t-94 -16.5v133q69 14 136 48.5t101 68.5h115v-1356z" />
    <glyph glyph-name="two" unicode="2" horiz-adv-x="806" 
d="M754 0h-711v10q1 135 75 277t232 315q133 147 175 222t42 184q0 221 -164 221q-90 0 -132.5 -65t-47.5 -189h-164q1 79 20.5 147t59 124.5t108 89t159.5 32.5q175 0 255 -99.5t80 -264.5q0 -130 -48.5 -221t-186.5 -238q-221 -236 -268 -398h540z" />
    <glyph glyph-name="three" unicode="3" horiz-adv-x="829" 
d="M229 1020h-155q1 48 10 93t32.5 92.5t59.5 82.5t95.5 57.5t134.5 22.5q163 0 240 -91.5t77 -246.5q0 -229 -164 -289v-4q205 -67 205 -340q0 -84 -18 -154.5t-58 -131t-114 -95t-177 -34.5q-91 0 -159 28.5t-107.5 79t-59.5 112t-22 134.5h162q2 -41 13 -77t32.5 -68
t58.5 -51t86 -19q193 0 193 272q0 148 -60.5 207t-181.5 59h-59v140h57q104 0 154.5 49.5t50.5 171.5q0 209 -158 209q-155 0 -168 -209z" />
    <glyph glyph-name="four" unicode="4" horiz-adv-x="849" 
d="M690 0h-160v352h-483v142l428 858h215v-858h131l-16 -142h-115v-352zM530 494v354q0 176 7 358q-16 -44 -44.5 -109.5t-69 -152.5t-70.5 -150t-79 -165t-65 -135h321z" />
    <glyph glyph-name="five" unicode="5" horiz-adv-x="860" 
d="M745 1352l-20 -148h-424q-5 -71 -20.5 -229.5t-16.5 -171.5q64 88 209 88q158 0 238 -113.5t80 -304.5q0 -491 -371 -491q-91 0 -158.5 28.5t-106.5 79.5t-58.5 111.5t-22.5 134.5h168q3 -33 8 -58.5t17.5 -56.5t31 -51.5t51.5 -34.5t76 -14q54 0 92.5 25t59 72
t29.5 104.5t9 132.5q0 68 -8.5 119.5t-28.5 93t-56.5 63t-88.5 21.5q-78 0 -120.5 -42.5t-67.5 -119.5l-156 24q16 111 38.5 343t33.5 395h583z" />
    <glyph glyph-name="six" unicode="6" horiz-adv-x="878" 
d="M778 1065h-157q-14 96 -62 135q-38 31 -96 31q-46 0 -81.5 -22t-57 -60.5t-36 -85t-20.5 -101t-9 -103t-5 -96.5v-5.5v-5.5q32 59 91.5 97t150.5 38q151 0 232 -113t81 -315q0 -100 -19 -183t-60 -151t-112.5 -106.5t-168.5 -38.5q-88 0 -152.5 32.5t-104.5 88t-64 141.5
t-33 180t-9 217q0 138 11 246t38.5 201t71 153.5t110 94.5t154.5 34q73 0 129.5 -23t88.5 -55.5t52.5 -76.5t28 -79t8.5 -69zM449 119q92 0 141 81t49 242q0 151 -44 227t-142 76q-101 0 -150 -70.5t-49 -178.5q0 -74 9 -136.5t29.5 -119t60.5 -89t96 -32.5z" />
    <glyph glyph-name="seven" unicode="7" horiz-adv-x="710" 
d="M12 1352h680v-135q-136 -239 -241 -564t-150 -653h-176q41 309 155.5 647t241.5 555h-510v150z" />
    <glyph glyph-name="eight" unicode="8" horiz-adv-x="872" 
d="M428 -18q-171 0 -260.5 109.5t-89.5 291.5q0 76 16 137t43.5 100t54 63t56.5 40q-137 80 -137 289q0 154 85.5 254t247.5 100q153 0 236.5 -94t83.5 -246q0 -125 -40 -198t-101 -101q172 -79 172 -346q0 -181 -93.5 -290t-273.5 -109zM436 119q191 0 191 264
q0 136 -47 201t-146 65q-101 0 -144.5 -68t-43.5 -194q0 -123 46.5 -195.5t143.5 -72.5zM436 1231q-58 0 -95.5 -31t-52 -77t-14.5 -105q0 -227 164 -227q83 0 123.5 53.5t40.5 169.5q0 98 -40 157.5t-126 59.5z" />
    <glyph glyph-name="nine" unicode="9" horiz-adv-x="868" 
d="M86 274h164q4 -22 8.5 -39t16 -40t27.5 -37.5t44.5 -25.5t65.5 -11q46 0 80.5 22.5t55 69.5t34 91t19.5 117.5t8 116t3 117.5q-64 -131 -227 -131q-147 0 -229 105t-82 297q0 213 93 327.5t259 114.5q120 0 195.5 -52.5t117 -180.5t41.5 -340q0 -446 -82 -629.5
t-295 -183.5q-59 0 -108 13.5t-80.5 33t-56 50.5t-36.5 55t-21 57t-11 47.5t-4 35.5zM426 1227q-90 0 -137 -73t-47 -214q0 -276 182 -276q93 0 138.5 67.5t45.5 188.5q0 52 -4 93t-15.5 83t-31 69t-53 44.5t-78.5 17.5z" />
    <glyph glyph-name="colon" unicode=":" horiz-adv-x="428" 
d="M295 -2h-162v289h162v-289zM295 725h-162v287h162v-287z" />
    <glyph glyph-name="semicolon" unicode=";" horiz-adv-x="452" 
d="M174 -229h-135q43 105 74.5 252.5t36.5 248.5h161q-9 -139 -47.5 -277t-89.5 -224zM317 725h-159v287h159v-287z" />
    <glyph glyph-name="less" unicode="&#x3c;" horiz-adv-x="909" 
d="M115 444v136l680 383v-150l-549 -299l549 -305v-154z" />
    <glyph glyph-name="equal" unicode="=" horiz-adv-x="1081" 
d="M102 387h875v-135h-875v135zM102 776h875v-135h-875v135z" />
    <glyph glyph-name="greater" unicode="&#x3e;" horiz-adv-x="909" 
d="M795 575v-135l-680 -385v152l549 299l-549 305v152z" />
    <glyph glyph-name="question" unicode="?" horiz-adv-x="782" 
d="M475 420h-168v29q0 88 29.5 166.5t109.5 183.5q61 81 85 142.5t24 131.5q0 197 -154 197q-151 0 -161 -230h-158q1 54 10.5 103t33 98.5t59.5 85t94 58t131 22.5q85 -1 147.5 -27t98 -72.5t52.5 -104.5t17 -128q0 -106 -34 -185.5t-122 -195.5q-94 -125 -94 -258v-16z
M475 -2h-170v270h170v-270z" />
    <glyph glyph-name="at" unicode="@" horiz-adv-x="1392" 
d="M981 -135l35 -113q-122 -84 -336 -84q-157 0 -272.5 57.5t-184.5 163t-102 244t-33 311.5q0 110 17 212.5t50 196.5t86.5 171t122.5 134t162 88.5t201 31.5q284 0 433 -173.5t149 -490.5q0 -121 -18.5 -226t-56 -189.5t-101.5 -133.5t-148 -49q-146 0 -168 136
q-69 -136 -207 -136q-198 0 -198 306q0 287 74.5 451.5t207.5 164.5q131 0 154 -107l8 89h148l-72 -619q-9 -82 6.5 -118t65.5 -36q82 0 129 129.5t47 325.5q0 553 -455 553q-107 0 -193 -40t-141.5 -107t-92.5 -159.5t-53 -192.5t-16 -212q0 -647 463 -647q150 0 289 68z
M723 801q-35 0 -62.5 -26t-44 -70t-28.5 -93.5t-17.5 -106.5t-7.5 -97.5t-2 -77.5q0 -87 21 -129.5t69 -42.5q65 0 99.5 71t60.5 269q20 163 1 233t-89 70z" />
    <glyph glyph-name="A" unicode="A" horiz-adv-x="933" 
d="M637 424h-352l-97 -424h-170l334 1391h221l342 -1391h-182zM317 575h287q-123 528 -145 654h-4q-6 -43 -21.5 -118t-29.5 -140.5t-42.5 -194t-44.5 -201.5z" />
    <glyph glyph-name="B" unicode="B" horiz-adv-x="968" 
d="M133 0v1391h375q160 0 251 -90.5t91 -251.5q0 -126 -48.5 -197.5t-119.5 -97.5q91 -32 152 -116t61 -230q0 -188 -107.5 -298t-289.5 -110h-365zM301 815h154q124 0 176.5 53.5t52.5 165.5q0 103 -54.5 159t-158.5 56h-170v-434zM301 676v-537h180q117 0 179.5 68.5
t62.5 200.5q0 268 -270 268h-152z" />
    <glyph glyph-name="C" unicode="C" horiz-adv-x="929" 
d="M702 389h172q-2 -25 -5 -48.5t-13.5 -67t-26.5 -79.5t-45.5 -77.5t-67.5 -70t-97 -47.5t-130 -19q-78 0 -140.5 23t-104.5 60t-72.5 95t-47.5 116t-27 137t-12.5 143t-2.5 148q0 160 23 286t72 223t132 148.5t197 51.5q70 0 127 -18t93.5 -46t64.5 -68t42 -75.5t23 -78.5
t11 -68t3 -51h-170q-8 98 -32 149q-50 104 -166 105q-60 0 -104.5 -32t-70.5 -83t-41.5 -127t-20.5 -150t-5 -166q0 -79 3.5 -143.5t12.5 -133t26 -120t42 -93t63 -63.5t87 -22q50 0 89 21.5t59.5 50t34.5 70t18 66.5t7 54z" />
    <glyph glyph-name="D" unicode="D" horiz-adv-x="1007" 
d="M135 0v1391h320q242 0 355.5 -165t113.5 -497q0 -366 -115 -547.5t-377 -181.5h-297zM307 1243v-1100h119q178 0 250 140t72 442q0 273 -74 395.5t-246 122.5h-121z" />
    <glyph glyph-name="E" unicode="E" horiz-adv-x="854" 
d="M764 809v-152h-461v-507h512l-22 -150h-658v1391h651v-152h-483v-430h461z" />
    <glyph glyph-name="F" unicode="F" 
d="M135 0v1391h653v-152h-483v-444h455v-150h-455v-645h-170z" />
    <glyph glyph-name="G" unicode="G" horiz-adv-x="991" 
d="M887 766v-766h-133q-11 72 -11 143q-40 -80 -104 -121.5t-174 -41.5q-88 0 -154.5 35t-109.5 96t-70 152.5t-38 195t-11 233.5q0 719 438 719q70 0 127.5 -17.5t94.5 -43.5t65 -65t42 -72t23 -74.5t11.5 -64t3.5 -48.5h-170q-19 236 -203 236q-254 0 -254 -568
q0 -136 11 -235t37.5 -177t74 -117.5t117.5 -39.5q126 0 172.5 101.5t46.5 320.5v69h-232v150h400z" />
    <glyph glyph-name="H" unicode="H" horiz-adv-x="1040" 
d="M135 0v1391h170v-580h430v580h170v-1391h-170v659h-430v-659h-170z" />
    <glyph glyph-name="I" unicode="I" horiz-adv-x="442" 
d="M135 1391h170v-1391h-170v1391z" />
    <glyph glyph-name="J" unicode="J" horiz-adv-x="532" 
d="M412 1391v-1051q0 -66 -5.5 -114.5t-23 -97t-47.5 -78.5t-82.5 -49t-124.5 -19q-70 0 -115 10v145q38 -6 90 -6q82 0 109 45.5t27 149.5v1065h172z" />
    <glyph glyph-name="K" unicode="K" horiz-adv-x="927" 
d="M135 0v1391h168v-676q48 69 215 322t236 354h194l-389 -560l402 -831h-195l-324 688l-139 -186v-502h-168z" />
    <glyph glyph-name="L" unicode="L" horiz-adv-x="794" 
d="M135 0v1391h170v-1241h494l-23 -150h-641z" />
    <glyph glyph-name="M" unicode="M" horiz-adv-x="1271" 
d="M971 0v578q0 371 8 665h-2q-164 -786 -277 -1243h-159q-203 988 -252 1247h-6q14 -283 14 -704v-543h-160v1391h254q70 -289 138.5 -616.5t99.5 -500.5h2q20 120 99.5 465.5t156.5 651.5h252v-1391h-168z" />
    <glyph glyph-name="N" unicode="N" horiz-adv-x="1060" 
d="M293 0h-158v1391h205q420 -1059 438 -1123h2q-12 221 -12 619v504h158v-1391h-197q-430 1107 -446 1161h-2q12 -206 12 -645v-516z" />
    <glyph glyph-name="O" unicode="O" horiz-adv-x="999" 
d="M504 1411q216 0 315 -172.5t99 -531.5q0 -368 -99 -547.5t-323 -179.5q-214 0 -314 178.5t-100 546.5q0 706 422 706zM500 1262q-242 0 -242 -553q0 -584 242 -584q128 0 184.5 142t56.5 440q0 291 -57.5 423t-183.5 132z" />
    <glyph glyph-name="P" unicode="P" horiz-adv-x="931" 
d="M135 0v1391h369q170 0 272.5 -103t102.5 -291q0 -189 -103 -296t-293 -107h-178v-594h-170zM305 1247v-510h160q242 0 242 262q0 116 -58.5 182t-167.5 66h-176z" />
    <glyph glyph-name="Q" unicode="Q" horiz-adv-x="999" 
d="M504 1411q216 0 315 -172.5t99 -531.5q0 -429 -136 -601l238 -176l-100 -120l-267 198q-70 -28 -157 -28q-214 0 -314 178.5t-100 546.5q0 706 422 706zM500 1262q-242 0 -242 -553q0 -584 242 -584q128 0 184.5 142t56.5 440q0 291 -57.5 423t-183.5 132z" />
    <glyph glyph-name="R" unicode="R" horiz-adv-x="954" 
d="M461 631h-156v-631h-170v1391h375q176 0 269 -95t93 -268q0 -74 -16.5 -133t-45 -96t-58.5 -59.5t-64 -34.5q91 -34 128.5 -118.5t37.5 -236.5v-55q0 -186 20 -295h-169q-21 74 -21 299v47q0 155 -46 220t-177 65zM305 1247v-473h166q121 0 174 62.5t53 185.5
q0 106 -51.5 165.5t-159.5 59.5h-182z" />
    <glyph glyph-name="S" unicode="S" horiz-adv-x="894" 
d="M51 371h170q10 -113 64.5 -181.5t158.5 -68.5q211 0 211 227q0 106 -53 173t-192 134q-172 81 -245 169.5t-73 234.5q0 154 95 252t264 98q80 0 142.5 -22t100.5 -57t63.5 -84t36 -97t11.5 -102h-168q-3 24 -6 41.5t-11 46.5t-21.5 49.5t-33 41t-51 31.5t-70.5 11
q-90 0 -135 -54t-45 -139q0 -94 49 -150.5t179 -117.5q185 -89 261 -188t76 -257q0 -171 -99.5 -276.5t-289.5 -105.5q-104 0 -180 31.5t-119 88t-64.5 123t-25.5 148.5z" />
    <glyph glyph-name="T" unicode="T" horiz-adv-x="784" 
d="M307 0v1239h-307v152h786v-152h-309v-1239h-170z" />
    <glyph glyph-name="U" unicode="U" horiz-adv-x="1026" 
d="M123 1391h172v-973q0 -293 219 -293q123 0 171 76t48 217v973h170v-975q0 -99 -19.5 -175.5t-63.5 -137.5t-122 -93.5t-188 -32.5q-107 0 -183.5 30.5t-120.5 89.5t-63.5 135.5t-19.5 177.5v981z" />
    <glyph glyph-name="V" unicode="V" horiz-adv-x="927" 
d="M559 0h-203l-344 1391h183l149 -648q89 -380 113 -563h4q6 44 22 120t28.5 129t41 167t35.5 145l151 650h179z" />
    <glyph glyph-name="W" unicode="W" horiz-adv-x="1421" 
d="M479 0h-176l-272 1391h182q164 -905 186 -1153h2q13 91 54.5 300.5t96 473t77.5 379.5h162q12 -60 73 -360.5t99 -498.5t49 -286h4q17 149 106.5 620.5t98.5 524.5h170l-293 -1391h-178q-13 64 -70.5 350.5t-94 478t-50.5 289.5h-3q-10 -66 -29.5 -170.5t-47.5 -242.5
l-49 -241.5t-54 -259.5t-43 -204z" />
    <glyph glyph-name="X" unicode="X" horiz-adv-x="849" 
d="M864 0h-194l-250 575h-2l-252 -575h-180l338 717l-324 674h195l233 -519h2l236 519h180l-324 -656z" />
    <glyph glyph-name="Y" unicode="Y" horiz-adv-x="858" 
d="M514 0h-172v522q0 24 -8 37l-352 832h192q25 -66 91.5 -235t108 -277t60.5 -166q21 63 64 174.5t108 275.5t90 228h181l-357 -832q-6 -12 -6 -39v-520z" />
    <glyph glyph-name="Z" unicode="Z" horiz-adv-x="837" 
d="M31 0v123l581 1116h-536v152h725v-140l-570 -1099h586l-24 -152h-762z" />
    <glyph glyph-name="bracketleft" unicode="[" horiz-adv-x="569" 
d="M512 -283h-383v1747h383v-133h-240v-1481h240v-133z" />
    <glyph glyph-name="backslash" unicode="\" horiz-adv-x="653" 
d="M455 -41l-394 1440h136l395 -1440h-137z" />
    <glyph glyph-name="bracketright" unicode="]" horiz-adv-x="569" 
d="M57 1464h383v-1747h-383v133h240v1481h-240v133z" />
    <glyph glyph-name="asciicircum" unicode="^" horiz-adv-x="761" 
d="M719 684h-139l-205 530l-197 -530h-135l268 668h138z" />
    <glyph glyph-name="underscore" unicode="_" horiz-adv-x="1064" 
d="M0 -160h1065v-104h-1065v104z" />
    <glyph glyph-name="grave" unicode="`" 
d="M102 1477h201l215 -283h-156z" />
    <glyph glyph-name="a" unicode="a" horiz-adv-x="862" 
d="M741 768v-575q0 -114 9 -193h-154q-10 38 -10 115q-63 -133 -244 -133q-72 0 -127 26.5t-86 71t-46 96.5t-15 109q0 152 103.5 244t299.5 92q68 0 104 -5v136q0 34 -4.5 60t-18.5 54.5t-45.5 44t-78.5 15.5q-41 0 -71 -12t-45.5 -27.5t-25.5 -42.5t-13 -44.5t-5 -45.5
h-159q2 62 18 113t51 96.5t100 71.5t156 26q307 0 307 -293zM580 434v53q-31 5 -99 5q-126 0 -185.5 -53t-59.5 -142q0 -73 38.5 -123.5t114.5 -50.5q105 0 148 75t43 236z" />
    <glyph glyph-name="b" unicode="b" horiz-adv-x="905" 
d="M121 287v1171h168v-547q69 150 246 150q303 0 303 -514q0 -563 -334 -563q-161 0 -221 135q0 -41 -4 -119h-160q2 57 2 287zM668 545q0 189 -43.5 278.5t-139.5 89.5q-111 0 -156.5 -95.5t-45.5 -299.5q0 -198 41.5 -293.5t146.5 -95.5q101 0 149 100.5t48 315.5z" />
    <glyph glyph-name="c" unicode="c" horiz-adv-x="811" 
d="M594 326h166q-1 -21 -3.5 -39t-11 -55.5t-22 -67.5t-39.5 -65.5t-59.5 -59.5t-86 -40.5t-116.5 -16.5q-101 0 -172 41t-109 118t-54.5 170t-16.5 215q0 90 11.5 167t39 146t68.5 117.5t103.5 76.5t141.5 28q64 0 116 -16.5t84.5 -40.5t57.5 -59t37 -64.5t19.5 -65.5
t9 -52.5t2.5 -35.5h-172q-1 18 -3.5 36t-12 48.5t-24.5 52t-45 38t-69 16.5q-192 0 -192 -392q0 -196 43.5 -298.5t140.5 -102.5q29 0 53.5 9t40.5 20.5t29.5 32.5t20 35.5t12.5 39.5t7.5 34.5t4.5 29.5z" />
    <glyph glyph-name="d" unicode="d" horiz-adv-x="905" 
d="M618 1458h168v-1186q0 -211 2 -272h-161q-6 40 -6 135q-57 -153 -244 -153q-160 0 -233.5 136t-73.5 414q0 250 88.5 389.5t253.5 139.5q157 0 206 -105v502zM242 530q0 -213 45.5 -307t140.5 -94q111 0 153 95.5t42 312.5q0 149 -16.5 228t-55.5 113.5t-113 34.5
q-196 0 -196 -383z" />
    <glyph glyph-name="e" unicode="e" horiz-adv-x="845" 
d="M776 487h-538q0 -79 7.5 -138.5t27 -113.5t58.5 -83t97 -29q44 0 78 16t51.5 36.5t30 49.5t15.5 44t5 32h164q-31 -223 -197 -292q-66 -27 -149 -27q-65 0 -118 16.5t-89.5 44.5t-64 70t-43 87t-25.5 102t-13 108t-3 112q0 255 90.5 397t273.5 142q81 0 143 -26.5
t100 -70t61.5 -108t32.5 -133t9 -152.5q0 -38 -4 -84zM242 616h370q0 67 -8 117.5t-27 94t-55.5 67t-89.5 23.5q-182 0 -190 -302z" />
    <glyph glyph-name="f" unicode="f" horiz-adv-x="446" 
d="M305 0h-168v901h-133v141h133v136q0 131 59.5 211.5t194.5 80.5q48 0 88 -12v-145q-36 8 -67 8q-58 0 -82.5 -36.5t-24.5 -113.5v-129h162v-141h-162v-901z" />
    <glyph glyph-name="g" unicode="g" horiz-adv-x="911" 
d="M788 739v-669q0 -89 -9.5 -156.5t-34.5 -128t-66 -99t-107 -61t-155 -22.5q-79 0 -140 19.5t-97 48.5t-59.5 69.5t-32.5 76t-11 74.5h170q2 -23 10 -45t25.5 -47t54 -40t86.5 -15q117 0 159 79.5t42 246.5v86q-58 -152 -240 -152q-158 0 -236.5 129t-78.5 377
q0 271 91 411t247 140q96 0 148.5 -38t68.5 -93q0 66 8 112h160q-3 -83 -3 -303zM242 512q0 -362 188 -362q109 0 152 98.5t43 292.5q0 75 -4 129t-16 102t-32 77.5t-53 46.5t-78 17q-98 0 -149 -101.5t-51 -299.5z" />
    <glyph glyph-name="h" unicode="h" horiz-adv-x="917" 
d="M121 1458h170v-536q64 139 246 139q123 0 192.5 -79.5t69.5 -240.5v-741h-168v707q0 100 -35.5 153t-122.5 53q-97 0 -139.5 -73t-42.5 -211v-629h-170v1458z" />
    <glyph glyph-name="i" unicode="i" horiz-adv-x="409" 
d="M121 0v1042h168v-1042h-168zM289 1237h-168v221h168v-221z" />
    <glyph glyph-name="j" unicode="j" horiz-adv-x="413" 
d="M123 1042h168v-1097q0 -66 -4 -111.5t-18.5 -92.5t-39.5 -75t-68.5 -45.5t-105.5 -17.5q-30 0 -71 6v147q20 -2 49 -2q56 0 73 34t17 122v1132zM293 1237h-168v221h168v-221z" />
    <glyph glyph-name="k" unicode="k" horiz-adv-x="802" 
d="M289 1458v-897q32 49 152.5 227.5t168.5 253.5h187q-76 -108 -283 -395l309 -647h-190l-232 512q-17 -21 -58.5 -79t-53.5 -73v-360h-168v1458h168z" />
    <glyph glyph-name="l" unicode="l" horiz-adv-x="407" 
d="M289 0h-168v1458h168v-1458z" />
    <glyph glyph-name="m" unicode="m" horiz-adv-x="1361" 
d="M121 0v729q0 264 -2 313h162q6 -44 6 -127q68 146 231 146q169 0 215 -154q33 68 95.5 111t158.5 43q254 0 254 -305v-756h-166v727q0 186 -139 186q-90 0 -130 -67.5t-40 -179.5v-666h-166v723q0 94 -33.5 141t-105.5 47q-86 0 -129 -69t-43 -189v-653h-168z" />
    <glyph glyph-name="n" unicode="n" horiz-adv-x="917" 
d="M121 0v719q0 128 -1 223.5t-1 99.5h162q6 -75 6 -131q65 150 243 150q123 0 196 -78t73 -240v-743h-170v709q0 99 -35 151.5t-117 52.5q-99 0 -143.5 -67.5t-44.5 -220.5v-625h-168z" />
    <glyph glyph-name="o" unicode="o" horiz-adv-x="870" 
d="M442 1061q174 0 266.5 -134t92.5 -395q0 -550 -367 -550q-184 0 -274 134.5t-90 411.5q0 267 97.5 400t274.5 133zM436 915q-97 0 -145.5 -94t-48.5 -293q0 -403 194 -403q193 0 193 403q0 387 -193 387z" />
    <glyph glyph-name="p" unicode="p" horiz-adv-x="905" 
d="M289 -381h-168v1120q0 237 -2 303h162q6 -60 6 -135q63 154 245 154q149 0 226.5 -131.5t77.5 -392.5q0 -278 -88.5 -416.5t-245.5 -138.5q-160 0 -213 120v-483zM666 528q0 196 -46.5 290.5t-142.5 94.5q-109 0 -151.5 -96t-42.5 -289q0 -82 3.5 -137t14.5 -109.5
t31 -85.5t54 -50t83 -19q97 0 147 105t50 296z" />
    <glyph glyph-name="q" unicode="q" horiz-adv-x="907" 
d="M623 -381v508q-64 -145 -242 -145q-311 0 -311 538q0 258 90 399.5t246 141.5q94 0 145.5 -36.5t69.5 -90.5q3 82 6 108h161q-2 -76 -2 -313v-1110h-163zM242 518q0 -391 188 -391q115 0 154 92.5t39 302.5q0 70 -2.5 119t-9 96.5t-19 77.5t-33 53.5t-50 34t-69.5 10.5
q-95 0 -146.5 -100t-51.5 -295z" />
    <glyph glyph-name="r" unicode="r" horiz-adv-x="579" 
d="M121 0v688q0 280 -2 354h160q6 -75 6 -182q32 93 103.5 145.5t170.5 53.5v-187q-270 -6 -270 -297v-575h-168z" />
    <glyph glyph-name="s" unicode="s" horiz-adv-x="772" 
d="M45 303h166q5 -83 49.5 -134.5t126.5 -51.5q77 0 117.5 41.5t40.5 111.5q0 74 -41.5 118t-143.5 83q-162 62 -222 130t-60 179q0 55 17.5 103.5t52.5 89.5t95.5 64.5t139.5 23.5q86 0 149 -27t96 -73t48 -96t16 -107h-164q-7 168 -149 168q-67 0 -101 -37t-34 -98
t36.5 -97.5t139.5 -75.5q161 -61 228 -131.5t67 -199.5q0 -145 -87.5 -225t-248.5 -80t-246 87.5t-88 233.5z" />
    <glyph glyph-name="t" unicode="t" horiz-adv-x="501" 
d="M-6 901v141h145v275h166v-275h178v-141h-178v-663q0 -57 19.5 -84t74.5 -27q52 0 70 4v-127q-48 -18 -127 -18q-103 0 -153 49.5t-50 171.5v694h-145z" />
    <glyph glyph-name="u" unicode="u" horiz-adv-x="909" 
d="M791 1042v-753q0 -238 2 -289h-162q-5 37 -8 133q-59 -151 -244 -151q-260 0 -260 311v749h168v-710q0 -101 33 -152t114 -51q90 0 138.5 64t48.5 215v634h170z" />
    <glyph glyph-name="v" unicode="v" horiz-adv-x="794" 
d="M16 1042h181q11 -47 47.5 -196t52.5 -216t41 -173t38 -170t19 -103h2q6 55 46 215t92.5 359t72.5 284h170l-297 -1042h-182z" />
    <glyph glyph-name="w" unicode="w" horiz-adv-x="1249" 
d="M29 1042h178q131 -666 150 -797q5 -33 8 -61h4q6 49 20.5 120t30.5 144t56 250.5t77 343.5h160q163 -743 176 -852h2q13 107 166 852h170l-256 -1042h-176q-15 71 -51.5 238.5t-53 244.5t-36 177.5t-27.5 156.5h-2q-5 -44 -16 -104t-31 -149.5t-36 -157t-47.5 -200
t-48.5 -206.5h-180z" />
    <glyph glyph-name="x" unicode="x" horiz-adv-x="714" 
d="M-8 1042h186q60 -127 118.5 -245.5t63.5 -128.5h2q14 32 40 84t71 139.5t76 150.5h178l-272 -495l274 -547h-186q-55 117 -115.5 243t-71.5 150h-2q-8 -15 -73 -150.5t-117 -242.5h-178l270 522z" />
    <glyph glyph-name="y" unicode="y" horiz-adv-x="798" 
d="M16 1042h185q23 -90 59.5 -231t55 -214.5t40.5 -162.5t33 -142.5t14 -86.5h3q19 118 204 837h172l-305 -1093q-21 -77 -42.5 -133t-45.5 -94t-47.5 -62t-54.5 -36.5t-60 -16.5t-69 -4q-48 0 -78 6v147q28 -4 70 -4q74 0 108.5 49.5t65.5 178.5z" />
    <glyph glyph-name="z" unicode="z" horiz-adv-x="704" 
d="M33 0v123q130 215 448 774h-415v145h606v-129q-275 -484 -443 -770h451l-23 -143h-624z" />
    <glyph glyph-name="braceleft" unicode="{" horiz-adv-x="643" 
d="M53 518v141q65 0 105.5 12t60.5 39.5t26.5 60t6.5 85.5l-10 291q0 167 76 241t223 74h49v-129h-35q-91 -1 -126.5 -43t-35.5 -145l10 -271q2 -124 -34.5 -194t-124.5 -88q94 -24 127.5 -90t31.5 -199l-10 -270q0 -104 39 -144.5t123 -42.5h35v-131h-53q-67 0 -118 15
t-92 48.5t-63 95.5t-22 149l10 299q0 55 -6 87t-26.5 59t-60.5 38.5t-106 11.5z" />
    <glyph glyph-name="bar" unicode="|" horiz-adv-x="415" 
d="M135 1597h144v-2134h-144v2134z" />
    <glyph glyph-name="braceright" unicode="}" horiz-adv-x="643" 
d="M592 659v-141q-65 0 -106 -12t-61.5 -40t-27 -60t-6.5 -84l10 -293q0 -166 -75.5 -240t-221.5 -74h-49v129h33q90 0 126 42t36 145l-10 270q-2 125 34.5 196t124.5 89q-94 24 -127.5 89.5t-31.5 196.5l10 271q0 105 -39 145.5t-123 42.5h-33v131h54q138 0 215 -69
t77 -238l-10 -299q0 -56 5.5 -87.5t25.5 -59t61 -39t109 -11.5z" />
    <glyph glyph-name="asciitilde" unicode="~" horiz-adv-x="1009" 
d="M242 385h-125v53q-1 107 48 159t132 52q54 0 117 -21.5t109.5 -48t97.5 -48t84 -21.5q35 0 49 22t14 78v33h125v-43q0 -66 -14 -111.5t-39.5 -69t-54.5 -33t-66 -9.5q-51 0 -113 22.5t-110 49t-100 49t-85 22.5q-69 0 -69 -96v-39z" />
    <glyph glyph-name="uni00A0" unicode="&#xa0;" horiz-adv-x="389" 
 />
    <glyph glyph-name="exclamdown" unicode="&#xa1;" horiz-adv-x="411" 
d="M104 578h150l18 -695v-241h-184v243zM94 1042h174v-241h-174v241z" />
    <glyph glyph-name="cent" unicode="&#xa2;" horiz-adv-x="872" 
d="M621 477h161q-2 -34 -9 -67.5t-26 -76.5t-48 -76t-80 -59.5t-117 -33.5v-172h-101v172q-154 19 -227.5 146.5t-73.5 367.5q0 227 75.5 354.5t225.5 147.5v137h101v-135q80 -6 137.5 -38.5t86.5 -81t42 -97.5t14 -103h-164q-8 157 -116 180v-741q112 26 119 176zM268 680
q0 -167 31 -259t102 -116v737q-73 -23 -103 -110t-30 -252z" />
    <glyph glyph-name="sterling" unicode="&#xa3;" horiz-adv-x="872" 
d="M797 0h-738v133q74 53 104 141.5t30 243.5q0 21 -1.5 59.5t-1.5 57.5h-161v131h153q-8 140 -8 209q0 190 79 291.5t236 101.5q158 0 231 -90.5t73 -239.5h-156q-3 87 -36.5 136t-113.5 49q-83 0 -116 -59.5t-33 -184.5q0 -23 10 -213h236v-131h-230q2 -25 2 -78
q0 -144 -21 -242t-75 -168h561z" />
    <glyph glyph-name="currency" unicode="&#xa4;" horiz-adv-x="860" 
d="M426 1073q108 0 184 -61l113 123l96 -99l-123 -131q43 -88 43 -211q0 -137 -41 -227l121 -129l-96 -100l-111 116q-79 -61 -192 -61q-109 0 -184 63l-109 -118l-98 100l123 131q-43 94 -43 223q0 123 45 211l-125 133l96 99l115 -123q76 61 186 61zM422 946
q-86 0 -131 -65.5t-45 -190.5q0 -136 48.5 -203t129.5 -67q88 0 132 63t44 211q0 120 -44.5 186t-133.5 66z" />
    <glyph glyph-name="yen" unicode="&#xa5;" horiz-adv-x="786" 
d="M682 360h-219v-360h-164v360h-213v117h213v113h-213v119h195l-297 643h184q176 -415 219 -547h2q25 82 215 547h178l-301 -643h201v-119h-219v-113h219v-117z" />
    <glyph glyph-name="brokenbar" unicode="&#xa6;" horiz-adv-x="409" 
d="M135 365h139v-732h-139v732zM135 1407h139v-727h-139v727z" />
    <glyph glyph-name="section" unicode="&#xa7;" horiz-adv-x="884" 
d="M754 1104h-154q-4 73 -41.5 122.5t-122.5 49.5q-75 0 -113 -40.5t-38 -111.5q0 -61 42.5 -107.5t178.5 -123.5q163 -92 228 -176.5t65 -212.5q0 -185 -127 -291q71 -77 71 -211q0 -159 -88.5 -242.5t-240.5 -83.5q-167 0 -250.5 86t-89.5 232h162q3 -78 49 -132.5
t129 -54.5q170 0 170 173q0 57 -15 91.5t-70.5 78t-172.5 106.5q-152 83 -210.5 162t-58.5 198q0 179 154 289q-84 84 -84 203q0 129 78.5 214t232.5 85q159 0 236 -84t80 -219zM211 639q0 -67 35.5 -120t134.5 -109q127 -73 188 -111q74 77 74 186q0 74 -34 129t-136 117
q-37 22 -67 40.5t-45 27.5t-26 15.5t-16 9.5t-8 5q-100 -66 -100 -190z" />
    <glyph glyph-name="dieresis" unicode="&#xa8;" 
d="M330 1237h-144v221h144v-221zM633 1237h-146v221h146v-221z" />
    <glyph glyph-name="copyright" unicode="&#xa9;" horiz-adv-x="1310" 
d="M782 561h125q-3 -41 -16 -80.5t-39.5 -79.5t-77 -65t-117.5 -25q-262 0 -262 373q0 179 64.5 283t204.5 104q51 0 93 -15t69 -40t45.5 -58t26 -66.5t7.5 -68.5h-123q-4 60 -31.5 102t-88.5 42q-142 0 -142 -273q0 -278 137 -278q110 0 125 145zM655 1366
q255 0 414.5 -184.5t159.5 -491.5q0 -317 -158.5 -497.5t-415.5 -180.5q-260 0 -417.5 180.5t-157.5 497.5q0 304 160 490t415 186zM655 1266q-216 0 -341.5 -151.5t-125.5 -428.5q0 -260 127 -416.5t340 -156.5q219 0 342 153t123 422q0 264 -127 421t-338 157z" />
    <glyph glyph-name="ordfeminine" unicode="&#xaa;" horiz-adv-x="579" 
d="M506 1069v-319q0 -84 4 -154h-115q-8 36 -8 78q-29 -48 -68 -68t-100 -20q-87 0 -134.5 59.5t-47.5 138.5q0 62 25 105.5t68 66t90.5 32t103.5 9.5h57v62q0 56 -19.5 88.5t-76.5 32.5q-92 0 -99 -103h-123q2 38 13 70.5t35.5 62t70 47t107.5 17.5q64 0 108 -16t67 -46
t32.5 -64.5t9.5 -78.5zM381 860v45h-53q-162 0 -162 -110q0 -45 23.5 -74t72.5 -29q119 0 119 168z" />
    <glyph glyph-name="guillemotleft" unicode="&#xab;" horiz-adv-x="847" 
d="M459 881l-238 -353l238 -356h-148l-241 356l241 353h148zM778 881l-239 -353l239 -356h-147l-244 356l244 353h147z" />
    <glyph glyph-name="logicalnot" unicode="&#xac;" horiz-adv-x="1034" 
d="M76 682h860v-496h-137v361h-723v135z" />
    <glyph glyph-name="uni00AD" unicode="&#xad;" horiz-adv-x="563" 
d="M70 606h424v-149h-424v149z" />
    <glyph glyph-name="registered" unicode="&#xae;" horiz-adv-x="544" 
d="M250 997h-60v273h107q46 0 76 -19.5t30 -62.5q0 -50 -45 -64q24 -9 30.5 -27.5t6.5 -47.5q0 -36 4 -52h-59q-4 10 -4 56q0 27 -11.5 39t-39.5 12h-35v-107zM252 1223v-74h45q45 0 45 37t-47 37h-43zM293 1405q116 0 189 -79t73 -198q0 -125 -73 -202.5t-189 -77.5
t-190 77.5t-74 202.5q0 120 73.5 198.5t190.5 78.5zM291 1350q-96 0 -149.5 -63t-53.5 -161q0 -95 57.5 -158t145.5 -63q99 0 152 60t53 161q0 95 -57 159.5t-148 64.5z" />
    <glyph glyph-name="macron" unicode="&#xaf;" 
d="M172 1399h471v-142h-471v142z" />
    <glyph glyph-name="degree" unicode="&#xb0;" horiz-adv-x="567" 
d="M289 1368q107 0 172 -69t65 -173q0 -114 -69.5 -179.5t-169.5 -65.5q-106 0 -172 66t-66 173q0 108 69 178t171 70zM287 1270q-61 0 -93 -41t-32 -107q0 -62 33.5 -102.5t91.5 -40.5q59 0 93 40t34 107q0 60 -32 102t-95 42z" />
    <glyph glyph-name="plusminus" unicode="&#xb1;" horiz-adv-x="1081" 
d="M477 1108h129v-365h371v-127h-371v-368h-129v368h-375v127h375v365zM977 0h-873v127h873v-127z" />
    <glyph glyph-name="two.sups" unicode="&#xb2;" horiz-adv-x="577" 
d="M522 866h-471v13q0 94 52.5 181t162.5 177q68 58 91.5 97t23.5 79q0 107 -96 107q-100 0 -109 -136h-121q3 107 61 174.5t177 67.5q115 0 169 -62t54 -149q0 -40 -8.5 -70.5t-33 -62.5t-45.5 -53t-69 -64q-74 -65 -109.5 -106.5t-45.5 -79.5h338z" />
    <glyph glyph-name="three.sups" unicode="&#xb3;" horiz-adv-x="593" 
d="M227 1214v107h43q119 0 119 100q0 99 -98 99q-29 0 -50 -9.5t-32 -27.5t-16 -33t-9 -35h-121q2 25 8.5 49.5t23.5 55t41.5 53t66.5 38t96 15.5q110 0 165.5 -53.5t55.5 -140.5q0 -64 -32.5 -103.5t-71.5 -52.5q53 -17 93 -62t40 -124q0 -102 -64.5 -167t-189.5 -65
q-71 0 -123 22.5t-78 59t-37.5 72t-13.5 73.5h125q17 -120 127 -120q59 0 89 33t30 94q0 122 -148 122h-39z" />
    <glyph glyph-name="acute" unicode="&#xb4;" 
d="M516 1479h199l-260 -285h-152z" />
    <glyph glyph-name="uni00B5" unicode="&#xb5;" horiz-adv-x="911" 
d="M416 -18q-101 0 -144 71q10 -388 11 -430l-168 -4q0 18 6 739v684h170v-702q0 -101 33.5 -155t117.5 -54q183 0 183 281v630h168v-753q0 -238 4 -289h-162q-8 40 -8 129q-62 -147 -211 -147z" />
    <glyph glyph-name="paragraph" unicode="&#xb6;" horiz-adv-x="907" 
d="M758 -272h-131v591h-154q-212 0 -311 113t-99 377q0 256 100.5 366.5t307.5 110.5h158q0 65 16 115h117q-4 -78 -4 -139v-1534zM586 457h41v698h-41q-55 0 -83.5 -23.5t-44.5 -99.5t-16 -223q0 -146 12.5 -219.5t42.5 -103t89 -29.5z" />
    <glyph glyph-name="periodcentered" unicode="&#xb7;" horiz-adv-x="321" 
d="M246 408h-170v288h170v-288z" />
    <glyph glyph-name="cedilla" unicode="&#xb8;" 
d="M360 4h119l-45 -82q158 -38 158 -164q0 -79 -55 -123.5t-148 -44.5q-94 0 -153 35l28 107q44 -27 111 -27q74 0 74 53q0 67 -150 84v47z" />
    <glyph glyph-name="one.sups" unicode="&#xb9;" horiz-adv-x="399" 
d="M293 866h-133v607q-21 -10 -60 -18.5t-59 -8.5v100q98 16 162 80h90v-760z" />
    <glyph glyph-name="ordmasculine" unicode="&#xba;" horiz-adv-x="589" 
d="M297 1274q126 0 186 -90t60 -250q0 -348 -252 -348q-119 0 -181.5 90t-62.5 256q0 160 63 251t187 91zM295 1167q-119 0 -119 -235q0 -242 119 -242q65 0 94 60t29 186q0 231 -123 231z" />
    <glyph glyph-name="guillemotright" unicode="&#xbb;" horiz-adv-x="847" 
d="M389 172l238 354l-238 357h148l241 -357l-241 -354h-148zM70 172l239 354l-239 357h149l242 -357l-242 -354h-149z" />
    <glyph glyph-name="onequarter" unicode="&#xbc;" horiz-adv-x="1245" 
d="M266 2h-121l732 1352h120zM311 600h-133v606q-20 -10 -59.5 -18t-59.5 -8v100q98 16 162 80h90v-760zM1069 4h-123v195h-309v96l272 459h160v-453h94l-10 -102h-84v-195zM764 301h182v150q0 92 4 186q-17 -37 -90 -165.5t-96 -170.5z" />
    <glyph glyph-name="onehalf" unicode="&#xbd;" horiz-adv-x="1304" 
d="M254 0h-121l731 1352h121zM307 600h-133v606q-20 -10 -59.5 -18t-59.5 -8v100q98 16 162 80h90v-760zM1208 2h-471v12q0 183 215 359q68 58 91.5 97t23.5 79q0 106 -96 106q-100 0 -109 -135h-121q3 107 61 174.5t177 67.5q115 0 169 -62t54 -149q0 -75 -33 -122.5
t-122 -127.5q-75 -65 -110.5 -106.5t-45.5 -79.5h338z" />
    <glyph glyph-name="threequarters" unicode="&#xbe;" horiz-adv-x="1378" 
d="M432 0h-121l731 1352h121zM1214 2h-122v195h-310v96l273 459h159v-453h95l-11 -102h-84v-195zM909 299h183v150q0 92 4 186q-17 -37 -90 -164.5t-97 -171.5zM242 948v107h43q118 0 118 100q0 98 -98 98q-29 0 -49.5 -9.5t-31.5 -27t-16 -32t-9 -35.5h-121q2 25 8.5 49.5
t23 55t41 53t66.5 38t96 15.5q110 0 166 -54t56 -141q0 -64 -32.5 -102.5t-72.5 -52.5q53 -17 93 -62.5t40 -124.5q0 -102 -64.5 -166.5t-189.5 -64.5q-71 0 -123 22.5t-78 59t-37.5 72t-13.5 73.5h125q17 -121 127 -121q59 0 89 33t30 94q0 123 -147 123h-39z" />
    <glyph glyph-name="questiondown" unicode="&#xbf;" horiz-adv-x="722" 
d="M41 -33q0 106 34 184t122 195q92 126 92 258v17h170v-29q0 -86 -30 -164t-110 -184q-61 -81 -85.5 -143.5t-24.5 -133.5q0 -89 36.5 -141.5t116.5 -52.5q154 0 164 229h158q-1 -54 -11 -103t-33.5 -99t-59.5 -85.5t-94 -58t-132 -21.5q-164 0 -238.5 91.5t-74.5 240.5z
M289 1042h170v-268h-170v268z" />
    <glyph glyph-name="Agrave" unicode="&#xc0;" horiz-adv-x="933" 
d="M637 424h-352l-97 -424h-170l334 1391h221l342 -1391h-182zM317 575h287q-123 528 -145 654h-4q-6 -43 -21.5 -118t-29.5 -140.5t-42.5 -194t-44.5 -201.5zM111 1726h217l225 -243h-174z" />
    <glyph glyph-name="Aacute" unicode="&#xc1;" horiz-adv-x="933" 
d="M637 424h-352l-97 -424h-170l334 1391h221l342 -1391h-182zM317 575h287q-123 528 -145 654h-4q-6 -43 -21.5 -118t-29.5 -140.5t-42.5 -194t-44.5 -201.5zM598 1737h209l-270 -244h-170z" />
    <glyph glyph-name="Acircumflex" unicode="&#xc2;" horiz-adv-x="933" 
d="M637 424h-352l-97 -424h-170l334 1391h221l342 -1391h-182zM317 575h287q-123 528 -145 654h-4q-6 -43 -21.5 -118t-29.5 -140.5t-42.5 -194t-44.5 -201.5zM373 1720h184l203 -233h-176l-121 137l-115 -137h-176z" />
    <glyph glyph-name="Atilde" unicode="&#xc3;" horiz-adv-x="933" 
d="M637 424h-352l-97 -424h-170l334 1391h221l342 -1391h-182zM317 575h287q-123 528 -145 654h-4q-6 -43 -21.5 -118t-29.5 -140.5t-42.5 -194t-44.5 -201.5zM297 1487h-115v41q0 90 40 131t106 41q55 0 145.5 -40t114.5 -40t36.5 13.5t12.5 49.5v21h115v-31
q0 -188 -150 -188q-53 0 -140 40t-116 40q-49 0 -49 -54v-24z" />
    <glyph glyph-name="Adieresis" unicode="&#xc4;" horiz-adv-x="933" 
d="M637 424h-352l-97 -424h-170l334 1391h221l342 -1391h-182zM317 575h287q-123 528 -145 654h-4q-6 -43 -21.5 -118t-29.5 -140.5t-42.5 -194t-44.5 -201.5zM379 1489h-150v219h150v-219zM702 1489h-149v219h149v-219z" />
    <glyph glyph-name="Aring" unicode="&#xc5;" horiz-adv-x="933" 
d="M637 424h-352l-97 -424h-170l334 1391h221l342 -1391h-182zM317 575h287q-123 528 -145 654h-4q-6 -43 -21.5 -118t-29.5 -140.5t-42.5 -194t-44.5 -201.5zM463 1460q-85 0 -136 50.5t-51 125.5q0 77 50 129t135 52q87 0 137.5 -50t50.5 -129q0 -78 -51 -128t-135 -50z
M463 1544q42 0 65 27t23 65q0 39 -22.5 68t-65.5 29t-66.5 -27.5t-23.5 -65.5q0 -39 23 -67.5t67 -28.5z" />
    <glyph glyph-name="AE" unicode="&#xc6;" horiz-adv-x="1398" 
d="M563 1391h768v-154h-491v-432h469v-152h-469v-501h522l-23 -152h-669v485h-318l-205 -485h-180zM414 637h256v618h-4q-97 -233 -252 -618z" />
    <glyph glyph-name="Ccedilla" unicode="&#xc7;" horiz-adv-x="929" 
d="M702 389h172q-2 -24 -4.5 -45t-12 -62t-22.5 -74t-38 -73.5t-57 -69t-81.5 -51.5t-109.5 -30l-33 -62q158 -38 158 -164q0 -79 -55 -123.5t-148 -44.5q-95 0 -154 35l29 107q44 -27 111 -27q38 0 55.5 12.5t17.5 40.5q0 67 -149 84v47l49 95q-67 8 -120 35.5t-89 66
t-62 96t-40.5 113.5t-23 131t-11 136t-2.5 140q0 160 23 286t72 223t132 148.5t197 51.5q70 0 127 -18t93.5 -46t64.5 -68t42 -75.5t23 -78.5t11 -68t3 -51h-170q-8 98 -32 149q-50 104 -166 105q-60 0 -104.5 -32t-70.5 -83t-41.5 -127t-20.5 -150t-5 -166
q0 -79 3.5 -143.5t12.5 -133t26 -120t42 -93t63 -63.5t87 -22q50 0 89 21.5t59.5 50t34.5 70t18 66.5t7 54z" />
    <glyph glyph-name="Egrave" unicode="&#xc8;" horiz-adv-x="854" 
d="M764 809v-152h-461v-507h512l-22 -150h-658v1391h651v-152h-483v-430h461zM111 1737h217l225 -244h-174z" />
    <glyph glyph-name="Eacute" unicode="&#xc9;" horiz-adv-x="854" 
d="M764 809v-152h-461v-507h512l-22 -150h-658v1391h651v-152h-483v-430h461zM582 1733h209l-271 -244h-170z" />
    <glyph glyph-name="Ecircumflex" unicode="&#xca;" horiz-adv-x="854" 
d="M764 809v-152h-461v-507h512l-22 -150h-658v1391h651v-152h-483v-430h461zM365 1718h184l203 -233h-177l-120 137l-115 -137h-176z" />
    <glyph glyph-name="Edieresis" unicode="&#xcb;" horiz-adv-x="854" 
d="M764 809v-152h-461v-507h512l-22 -150h-658v1391h651v-152h-483v-430h461zM371 1503h-150v219h150v-219zM694 1503h-149v219h149v-219z" />
    <glyph glyph-name="Igrave" unicode="&#xcc;" horiz-adv-x="442" 
d="M135 1391h170v-1391h-170v1391zM-125 1743h217l225 -244h-174z" />
    <glyph glyph-name="Iacute" unicode="&#xcd;" horiz-adv-x="442" 
d="M135 1391h170v-1391h-170v1391zM365 1737h208l-270 -244h-170z" />
    <glyph glyph-name="Icircumflex" unicode="&#xce;" horiz-adv-x="442" 
d="M135 1391h170v-1391h-170v1391zM127 1726h184l203 -233h-176l-121 137l-115 -137h-176z" />
    <glyph glyph-name="Idieresis" unicode="&#xcf;" horiz-adv-x="442" 
d="M135 1391h170v-1391h-170v1391zM133 1509h-149v220h149v-220zM457 1509h-150v220h150v-220z" />
    <glyph glyph-name="Eth" unicode="&#xd0;" horiz-adv-x="1028" 
d="M14 803h142v588h319q242 0 355.5 -165t113.5 -497q0 -366 -114.5 -547.5t-376.5 -181.5h-297v657h-142v146zM328 1243v-440h264v-146h-264v-514h118q178 0 250 140t72 442q0 273 -74 395.5t-245 122.5h-121z" />
    <glyph glyph-name="Ntilde" unicode="&#xd1;" horiz-adv-x="1060" 
d="M293 0h-158v1391h205q420 -1059 438 -1123h2q-12 221 -12 619v504h158v-1391h-197q-430 1107 -446 1161h-2q12 -206 12 -645v-516zM358 1518h-114v41q0 90 40 131t105 41q55 0 145.5 -40t114.5 -40t36.5 13.5t12.5 49.5v21h115v-31q0 -188 -149 -188q-53 0 -140 39.5
t-116 39.5q-50 0 -50 -53v-24z" />
    <glyph glyph-name="Ograve" unicode="&#xd2;" horiz-adv-x="999" 
d="M504 1411q216 0 315 -172.5t99 -531.5q0 -368 -99 -547.5t-323 -179.5q-214 0 -314 178.5t-100 546.5q0 706 422 706zM500 1262q-242 0 -242 -553q0 -584 242 -584q128 0 184.5 142t56.5 440q0 291 -57.5 423t-183.5 132zM174 1747h217l225 -244h-174z" />
    <glyph glyph-name="Oacute" unicode="&#xd3;" horiz-adv-x="999" 
d="M504 1411q216 0 315 -172.5t99 -531.5q0 -368 -99 -547.5t-323 -179.5q-214 0 -314 178.5t-100 546.5q0 706 422 706zM500 1262q-242 0 -242 -553q0 -584 242 -584q128 0 184.5 142t56.5 440q0 291 -57.5 423t-183.5 132zM623 1747h208l-270 -244h-170z" />
    <glyph glyph-name="Ocircumflex" unicode="&#xd4;" horiz-adv-x="999" 
d="M504 1411q216 0 315 -172.5t99 -531.5q0 -368 -99 -547.5t-323 -179.5q-214 0 -314 178.5t-100 546.5q0 706 422 706zM500 1262q-242 0 -242 -553q0 -584 242 -584q128 0 184.5 142t56.5 440q0 291 -57.5 423t-183.5 132zM406 1737h184l203 -234h-177l-120 137l-115 -137
h-176z" />
    <glyph glyph-name="Otilde" unicode="&#xd5;" horiz-adv-x="999" 
d="M504 1411q216 0 315 -172.5t99 -531.5q0 -368 -99 -547.5t-323 -179.5q-214 0 -314 178.5t-100 546.5q0 706 422 706zM500 1262q-242 0 -242 -553q0 -584 242 -584q128 0 184.5 142t56.5 440q0 291 -57.5 423t-183.5 132zM330 1518h-115v41q0 90 40 131t105 41
q55 0 146 -40t115 -40t36.5 13.5t12.5 49.5v21h114v-31q0 -188 -149 -188q-53 0 -140 39.5t-116 39.5q-49 0 -49 -53v-24z" />
    <glyph glyph-name="Odieresis" unicode="&#xd6;" horiz-adv-x="999" 
d="M504 1411q216 0 315 -172.5t99 -531.5q0 -368 -99 -547.5t-323 -179.5q-214 0 -314 178.5t-100 546.5q0 706 422 706zM500 1262q-242 0 -242 -553q0 -584 242 -584q128 0 184.5 142t56.5 440q0 291 -57.5 423t-183.5 132zM412 1520h-150v219h150v-219zM735 1520h-149v219
h149v-219z" />
    <glyph glyph-name="multiply" unicode="&#xd7;" horiz-adv-x="1085" 
d="M975 160l-90 -94l-342 352l-342 -352l-90 94l342 352l-342 352l86 92l344 -352l344 352l90 -92l-342 -354z" />
    <glyph glyph-name="Oslash" unicode="&#xd8;" horiz-adv-x="999" 
d="M504 1411q136 0 229 -72l25 54h110l-63 -136q113 -169 113 -550q0 -368 -98 -547.5t-324 -179.5q-155 0 -248 90l-33 -70h-111l76 160q-98 174 -98 545q0 356 105 531t317 175zM256 709q0 -198 25 -332l381 809q-55 78 -162 78q-127 0 -185.5 -135t-58.5 -420zM500 125
q129 0 187 142t58 440q0 236 -32 356l-387 -825q59 -113 174 -113z" />
    <glyph glyph-name="Ugrave" unicode="&#xd9;" horiz-adv-x="1026" 
d="M123 1391h172v-973q0 -293 219 -293q123 0 171 76t48 217v973h170v-975q0 -99 -19.5 -175.5t-63.5 -137.5t-122 -93.5t-188 -32.5q-107 0 -183.5 30.5t-120.5 89.5t-63.5 135.5t-19.5 177.5v981zM186 1731h217l226 -244h-174z" />
    <glyph glyph-name="Uacute" unicode="&#xda;" horiz-adv-x="1026" 
d="M123 1391h172v-973q0 -293 219 -293q123 0 171 76t48 217v973h170v-975q0 -99 -19.5 -175.5t-63.5 -137.5t-122 -93.5t-188 -32.5q-107 0 -183.5 30.5t-120.5 89.5t-63.5 135.5t-19.5 177.5v981zM635 1747h209l-271 -244h-170z" />
    <glyph glyph-name="Ucircumflex" unicode="&#xdb;" horiz-adv-x="1026" 
d="M123 1391h172v-973q0 -293 219 -293q123 0 171 76t48 217v973h170v-975q0 -99 -19.5 -175.5t-63.5 -137.5t-122 -93.5t-188 -32.5q-107 0 -183.5 30.5t-120.5 89.5t-63.5 135.5t-19.5 177.5v981zM418 1737h184l203 -234h-176l-121 137l-115 -137h-176z" />
    <glyph glyph-name="Udieresis" unicode="&#xdc;" horiz-adv-x="1026" 
d="M123 1391h172v-973q0 -293 219 -293q123 0 171 76t48 217v973h170v-975q0 -99 -19.5 -175.5t-63.5 -137.5t-122 -93.5t-188 -32.5q-107 0 -183.5 30.5t-120.5 89.5t-63.5 135.5t-19.5 177.5v981zM424 1520h-150v219h150v-219zM748 1520h-150v219h150v-219z" />
    <glyph glyph-name="Yacute" unicode="&#xdd;" horiz-adv-x="858" 
d="M514 0h-172v522q0 24 -8 37l-352 832h192q25 -66 91.5 -235t108 -277t60.5 -166q21 63 64 174.5t108 275.5t90 228h181l-357 -832q-6 -12 -6 -39v-520zM551 1737h209l-271 -244h-170z" />
    <glyph glyph-name="Thorn" unicode="&#xde;" horiz-adv-x="931" 
d="M135 0v1391h172v-289h191q174 0 276.5 -93.5t102.5 -279.5q0 -405 -410 -405h-160v-324h-172zM307 954v-483h152q126 0 187 59.5t61 192.5q0 113 -62 172t-172 59h-166z" />
    <glyph glyph-name="germandbls" unicode="&#xdf;" horiz-adv-x="933" 
d="M475 1470q98 0 168.5 -29.5t108 -81.5t54.5 -111.5t17 -131.5v-78l-241 -231v-6l98 -94q107 -105 150.5 -190t43.5 -195q0 -153 -77 -246.5t-236 -93.5q-138 0 -205 67v170q87 -94 199 -94q78 0 115 48.5t37 131.5q0 67 -31.5 128t-108.5 134l-98 90q-64 64 -61.5 118
t67.5 124l182 178q12 252 -182 252q-100 0 -144 -58.5t-44 -168.5v-1102h-166v1108q0 180 92 271t262 91z" />
    <glyph glyph-name="agrave" unicode="&#xe0;" horiz-adv-x="862" 
d="M741 768v-575q0 -114 9 -193h-154q-10 38 -10 115q-63 -133 -244 -133q-72 0 -127 26.5t-86 71t-46 96.5t-15 109q0 152 103.5 244t299.5 92q68 0 104 -5v136q0 34 -4.5 60t-18.5 54.5t-45.5 44t-78.5 15.5q-41 0 -71 -12t-45.5 -27.5t-25.5 -42.5t-13 -44.5t-5 -45.5
h-159q2 62 18 113t51 96.5t100 71.5t156 26q307 0 307 -293zM580 434v53q-31 5 -99 5q-126 0 -185.5 -53t-59.5 -142q0 -73 38.5 -123.5t114.5 -50.5q105 0 148 75t43 236zM111 1477h200l215 -283h-155z" />
    <glyph glyph-name="aacute" unicode="&#xe1;" horiz-adv-x="862" 
d="M741 768v-575q0 -114 9 -193h-154q-10 38 -10 115q-63 -133 -244 -133q-72 0 -127 26.5t-86 71t-46 96.5t-15 109q0 152 103.5 244t299.5 92q68 0 104 -5v136q0 34 -4.5 60t-18.5 54.5t-45.5 44t-78.5 15.5q-41 0 -71 -12t-45.5 -27.5t-25.5 -42.5t-13 -44.5t-5 -45.5
h-159q2 62 18 113t51 96.5t100 71.5t156 26q307 0 307 -293zM580 434v53q-31 5 -99 5q-126 0 -185.5 -53t-59.5 -142q0 -73 38.5 -123.5t114.5 -50.5q105 0 148 75t43 236zM528 1479h199l-260 -285h-152z" />
    <glyph glyph-name="acircumflex" unicode="&#xe2;" horiz-adv-x="862" 
d="M741 768v-575q0 -114 9 -193h-154q-10 38 -10 115q-63 -133 -244 -133q-72 0 -127 26.5t-86 71t-46 96.5t-15 109q0 152 103.5 244t299.5 92q68 0 104 -5v136q0 34 -4.5 60t-18.5 54.5t-45.5 44t-78.5 15.5q-41 0 -71 -12t-45.5 -27.5t-25.5 -42.5t-13 -44.5t-5 -45.5
h-159q2 62 18 113t51 96.5t100 71.5t156 26q307 0 307 -293zM580 434v53q-31 5 -99 5q-126 0 -185.5 -53t-59.5 -142q0 -73 38.5 -123.5t114.5 -50.5q105 0 148 75t43 236zM338 1460h180l180 -276h-159l-111 176l-111 -176h-157z" />
    <glyph glyph-name="atilde" unicode="&#xe3;" horiz-adv-x="862" 
d="M741 768v-575q0 -114 9 -193h-154q-10 38 -10 115q-63 -133 -244 -133q-72 0 -127 26.5t-86 71t-46 96.5t-15 109q0 152 103.5 244t299.5 92q68 0 104 -5v136q0 34 -4.5 60t-18.5 54.5t-45.5 44t-78.5 15.5q-41 0 -71 -12t-45.5 -27.5t-25.5 -42.5t-13 -44.5t-5 -45.5
h-159q2 62 18 113t51 96.5t100 71.5t156 26q307 0 307 -293zM580 434v53q-31 5 -99 5q-126 0 -185.5 -53t-59.5 -142q0 -73 38.5 -123.5t114.5 -50.5q105 0 148 75t43 236zM285 1210h-117v47q0 166 137 166q44 0 90.5 -20.5t84.5 -41t61 -20.5q22 0 32.5 15.5t10.5 56.5v14
h114v-38q0 -98 -37 -139.5t-104 -41.5q-41 0 -85.5 21t-82.5 42t-63 21q-41 0 -41 -59v-23z" />
    <glyph glyph-name="adieresis" unicode="&#xe4;" horiz-adv-x="862" 
d="M741 768v-575q0 -114 9 -193h-154q-10 38 -10 115q-63 -133 -244 -133q-72 0 -127 26.5t-86 71t-46 96.5t-15 109q0 152 103.5 244t299.5 92q68 0 104 -5v136q0 34 -4.5 60t-18.5 54.5t-45.5 44t-78.5 15.5q-41 0 -71 -12t-45.5 -27.5t-25.5 -42.5t-13 -44.5t-5 -45.5
h-159q2 62 18 113t51 96.5t100 71.5t156 26q307 0 307 -293zM580 434v53q-31 5 -99 5q-126 0 -185.5 -53t-59.5 -142q0 -73 38.5 -123.5t114.5 -50.5q105 0 148 75t43 236zM346 1237h-143v221h143v-221zM649 1237h-145v221h145v-221z" />
    <glyph glyph-name="aring" unicode="&#xe5;" horiz-adv-x="862" 
d="M741 768v-575q0 -114 9 -193h-154q-10 38 -10 115q-63 -133 -244 -133q-72 0 -127 26.5t-86 71t-46 96.5t-15 109q0 152 103.5 244t299.5 92q68 0 104 -5v136q0 34 -4.5 60t-18.5 54.5t-45.5 44t-78.5 15.5q-41 0 -71 -12t-45.5 -27.5t-25.5 -42.5t-13 -44.5t-5 -45.5
h-159q2 62 18 113t51 96.5t100 71.5t156 26q307 0 307 -293zM580 434v53q-31 5 -99 5q-126 0 -185.5 -53t-59.5 -142q0 -73 38.5 -123.5t114.5 -50.5q105 0 148 75t43 236zM434 1163q-85 0 -135.5 50.5t-50.5 125.5q0 77 49.5 129t134.5 52q87 0 138 -50.5t51 -128.5
q0 -77 -51.5 -127.5t-135.5 -50.5zM434 1247q42 0 65 27t23 65q0 39 -22.5 68t-65.5 29t-66.5 -27.5t-23.5 -65.5q0 -39 23 -67.5t67 -28.5z" />
    <glyph glyph-name="ae" unicode="&#xe6;" horiz-adv-x="1343" 
d="M1104 319h168q-2 -24 -6.5 -49t-15.5 -59.5t-27 -64.5t-43.5 -61t-61.5 -53t-84 -36t-110 -14q-112 0 -177 39.5t-106 119.5q-86 -159 -289 -159q-73 0 -129.5 25.5t-89 69.5t-49 98t-16.5 116q0 148 104.5 240t325.5 92h82v114q0 87 -34 137t-120 50q-79 0 -116.5 -44
t-43.5 -126h-160q2 63 20.5 116t55 97t99.5 69t147 25q192 0 256 -127q83 124 252 127q78 0 138.5 -24t98.5 -64t62.5 -97t34.5 -118t10 -133q0 -22 -1 -67t-1 -64h-539q-2 -183 40.5 -276t144.5 -93q49 0 83.5 16.5t53.5 47t28.5 60.5t14.5 70zM582 432v62h-80
q-266 0 -266 -193q0 -78 38.5 -128t114.5 -50q56 0 94.5 21.5t60 64.5t30 96.5t8.5 126.5zM741 623h369q0 143 -41.5 219t-138.5 76q-69 0 -113 -43.5t-60 -106.5t-16 -145z" />
    <glyph glyph-name="ccedilla" unicode="&#xe7;" horiz-adv-x="811" 
d="M594 326h166q-1 -19 -3 -35.5t-10 -51t-19 -62.5t-33 -62.5t-50.5 -59.5t-72.5 -45t-97 -26l-29 -52q158 -38 158 -163q0 -79 -55 -123.5t-148 -44.5q-95 0 -153 34l28 107q44 -27 111 -27q74 0 74 54q0 67 -150 84v47l47 86q-83 13 -140.5 58.5t-89 120.5t-45 162
t-13.5 199q0 90 11.5 167t39 146t68.5 117.5t103.5 76.5t141.5 28q64 0 116 -16.5t84.5 -40.5t57.5 -59t37 -64.5t19.5 -65.5t9 -52.5t2.5 -35.5h-172q-1 18 -3.5 36t-12 48.5t-24.5 52t-45 38t-69 16.5q-192 0 -192 -392q0 -196 43.5 -298.5t140.5 -102.5q29 0 53.5 9
t40.5 20.5t29.5 32.5t20 35.5t12.5 39.5t7.5 34.5t4.5 29.5z" />
    <glyph glyph-name="egrave" unicode="&#xe8;" horiz-adv-x="845" 
d="M776 487h-538q0 -79 7.5 -138.5t27 -113.5t58.5 -83t97 -29q44 0 78 16t51.5 36.5t30 49.5t15.5 44t5 32h164q-31 -223 -197 -292q-66 -27 -149 -27q-65 0 -118 16.5t-89.5 44.5t-64 70t-43 87t-25.5 102t-13 108t-3 112q0 255 90.5 397t273.5 142q81 0 143 -26.5
t100 -70t61.5 -108t32.5 -133t9 -152.5q0 -38 -4 -84zM242 616h370q0 67 -8 117.5t-27 94t-55.5 67t-89.5 23.5q-182 0 -190 -302zM115 1477h200l215 -283h-155z" />
    <glyph glyph-name="eacute" unicode="&#xe9;" horiz-adv-x="845" 
d="M776 487h-538q0 -79 7.5 -138.5t27 -113.5t58.5 -83t97 -29q44 0 78 16t51.5 36.5t30 49.5t15.5 44t5 32h164q-31 -223 -197 -292q-66 -27 -149 -27q-65 0 -118 16.5t-89.5 44.5t-64 70t-43 87t-25.5 102t-13 108t-3 112q0 255 90.5 397t273.5 142q81 0 143 -26.5
t100 -70t61.5 -108t32.5 -133t9 -152.5q0 -38 -4 -84zM242 616h370q0 67 -8 117.5t-27 94t-55.5 67t-89.5 23.5q-182 0 -190 -302zM528 1479h199l-260 -285h-152z" />
    <glyph glyph-name="ecircumflex" unicode="&#xea;" horiz-adv-x="845" 
d="M776 487h-538q0 -79 7.5 -138.5t27 -113.5t58.5 -83t97 -29q44 0 78 16t51.5 36.5t30 49.5t15.5 44t5 32h164q-31 -223 -197 -292q-66 -27 -149 -27q-65 0 -118 16.5t-89.5 44.5t-64 70t-43 87t-25.5 102t-13 108t-3 112q0 255 90.5 397t273.5 142q81 0 143 -26.5
t100 -70t61.5 -108t32.5 -133t9 -152.5q0 -38 -4 -84zM242 616h370q0 67 -8 117.5t-27 94t-55.5 67t-89.5 23.5q-182 0 -190 -302zM330 1460h180l180 -276h-160l-110 176l-111 -176h-157z" />
    <glyph glyph-name="edieresis" unicode="&#xeb;" horiz-adv-x="845" 
d="M776 487h-538q0 -79 7.5 -138.5t27 -113.5t58.5 -83t97 -29q44 0 78 16t51.5 36.5t30 49.5t15.5 44t5 32h164q-31 -223 -197 -292q-66 -27 -149 -27q-65 0 -118 16.5t-89.5 44.5t-64 70t-43 87t-25.5 102t-13 108t-3 112q0 255 90.5 397t273.5 142q81 0 143 -26.5
t100 -70t61.5 -108t32.5 -133t9 -152.5q0 -38 -4 -84zM242 616h370q0 67 -8 117.5t-27 94t-55.5 67t-89.5 23.5q-182 0 -190 -302zM342 1237h-143v221h143v-221zM645 1237h-145v221h145v-221z" />
    <glyph glyph-name="igrave" unicode="&#xec;" horiz-adv-x="409" 
d="M121 0v1042h168v-1042h-168zM-113 1477h201l215 -283h-156z" />
    <glyph glyph-name="iacute" unicode="&#xed;" horiz-adv-x="409" 
d="M121 0v1042h168v-1042h-168zM319 1479h199l-260 -285h-152z" />
    <glyph glyph-name="icircumflex" unicode="&#xee;" horiz-adv-x="409" 
d="M121 0v1042h168v-1042h-168zM113 1460h180l180 -276h-160l-110 176l-111 -176h-158z" />
    <glyph glyph-name="idieresis" unicode="&#xef;" horiz-adv-x="409" 
d="M121 0v1042h168v-1042h-168zM125 1237h-143v221h143v-221zM428 1237h-145v221h145v-221z" />
    <glyph glyph-name="eth" unicode="&#xf0;" horiz-adv-x="870" 
d="M143 1329v141q225 -12 365 -106l166 119l47 -80l-137 -100q211 -211 211 -758q0 -276 -85.5 -419.5t-283.5 -143.5q-185 0 -270.5 133.5t-85.5 392.5q0 106 20 193t61.5 155.5t112 106.5t164.5 38q57 0 100 -15t62 -36q-24 156 -133 262l-191 -137l-49 80l160 115
q-97 59 -234 59zM434 862q-192 0 -192 -354q0 -383 188 -383q103 0 149 92t46 297q0 186 -38.5 267t-152.5 81z" />
    <glyph glyph-name="ntilde" unicode="&#xf1;" horiz-adv-x="917" 
d="M121 0v719q0 128 -1 223.5t-1 99.5h162q6 -75 6 -131q65 150 243 150q123 0 196 -78t73 -240v-743h-170v709q0 99 -35 151.5t-117 52.5q-99 0 -143.5 -67.5t-44.5 -220.5v-625h-168zM309 1210h-116v47q0 166 137 166q44 0 90 -20.5t84 -41t61 -20.5q22 0 32.5 15.5
t10.5 56.5v14h115v-38q0 -98 -37 -139.5t-104 -41.5q-41 0 -85.5 21t-83 42t-63.5 21q-41 0 -41 -59v-23z" />
    <glyph glyph-name="ograve" unicode="&#xf2;" horiz-adv-x="870" 
d="M442 1061q174 0 266.5 -134t92.5 -395q0 -550 -367 -550q-184 0 -274 134.5t-90 411.5q0 267 97.5 400t274.5 133zM436 915q-97 0 -145.5 -94t-48.5 -293q0 -403 194 -403q193 0 193 403q0 387 -193 387zM106 1481h201l215 -283h-155z" />
    <glyph glyph-name="oacute" unicode="&#xf3;" horiz-adv-x="870" 
d="M442 1061q174 0 266.5 -134t92.5 -395q0 -550 -367 -550q-184 0 -274 134.5t-90 411.5q0 267 97.5 400t274.5 133zM436 915q-97 0 -145.5 -94t-48.5 -293q0 -403 194 -403q193 0 193 403q0 387 -193 387zM547 1489h198l-260 -285h-151z" />
    <glyph glyph-name="ocircumflex" unicode="&#xf4;" horiz-adv-x="870" 
d="M442 1061q174 0 266.5 -134t92.5 -395q0 -550 -367 -550q-184 0 -274 134.5t-90 411.5q0 267 97.5 400t274.5 133zM436 915q-97 0 -145.5 -94t-48.5 -293q0 -403 194 -403q193 0 193 403q0 387 -193 387zM342 1460h180l180 -276h-159l-111 176l-110 -176h-158z" />
    <glyph glyph-name="otilde" unicode="&#xf5;" horiz-adv-x="870" 
d="M442 1061q174 0 266.5 -134t92.5 -395q0 -550 -367 -550q-184 0 -274 134.5t-90 411.5q0 267 97.5 400t274.5 133zM436 915q-97 0 -145.5 -94t-48.5 -293q0 -403 194 -403q193 0 193 403q0 387 -193 387zM285 1210h-117v47q0 166 137 166q44 0 90.5 -20.5t84.5 -41
t61 -20.5q22 0 32.5 15.5t10.5 56.5v14h114v-38q0 -98 -37 -139.5t-104 -41.5q-41 0 -85.5 21t-82.5 42t-63 21q-41 0 -41 -59v-23z" />
    <glyph glyph-name="odieresis" unicode="&#xf6;" horiz-adv-x="870" 
d="M442 1061q174 0 266.5 -134t92.5 -395q0 -550 -367 -550q-184 0 -274 134.5t-90 411.5q0 267 97.5 400t274.5 133zM436 915q-97 0 -145.5 -94t-48.5 -293q0 -403 194 -403q193 0 193 403q0 387 -193 387zM354 1237h-143v221h143v-221zM657 1237h-145v221h145v-221z" />
    <glyph glyph-name="divide" unicode="&#xf7;" horiz-adv-x="1081" 
d="M610 57h-139v209h139v-209zM977 444h-875v134h875v-134zM610 754h-139v209h139v-209z" />
    <glyph glyph-name="oslash" unicode="&#xf8;" horiz-adv-x="870" 
d="M442 1061q120 0 203 -62l29 54h100l-67 -121q94 -131 94 -400q0 -281 -92.5 -415.5t-274.5 -134.5q-134 0 -213 65l-35 -61h-94l70 127q-92 133 -92 419q0 264 97.5 396.5t274.5 132.5zM436 920q-198 0 -198 -390q0 -139 22 -235l307 563q-47 62 -131 62zM436 121
q100 0 148.5 98.5t48.5 317.5q0 135 -21 221l-311 -563q48 -74 135 -74z" />
    <glyph glyph-name="ugrave" unicode="&#xf9;" horiz-adv-x="909" 
d="M791 1042v-753q0 -238 2 -289h-162q-5 37 -8 133q-59 -151 -244 -151q-260 0 -260 311v749h168v-710q0 -101 33 -152t114 -51q90 0 138.5 64t48.5 215v634h170zM139 1477h201l215 -283h-156z" />
    <glyph glyph-name="uacute" unicode="&#xfa;" horiz-adv-x="909" 
d="M791 1042v-753q0 -238 2 -289h-162q-5 37 -8 133q-59 -151 -244 -151q-260 0 -260 311v749h168v-710q0 -101 33 -152t114 -51q90 0 138.5 64t48.5 215v634h170zM565 1479h199l-260 -285h-152z" />
    <glyph glyph-name="ucircumflex" unicode="&#xfb;" horiz-adv-x="909" 
d="M791 1042v-753q0 -238 2 -289h-162q-5 37 -8 133q-59 -151 -244 -151q-260 0 -260 311v749h168v-710q0 -101 33 -152t114 -51q90 0 138.5 64t48.5 215v634h170zM362 1460h181l180 -276h-160l-110 176l-111 -176h-158z" />
    <glyph glyph-name="udieresis" unicode="&#xfc;" horiz-adv-x="909" 
d="M791 1042v-753q0 -238 2 -289h-162q-5 37 -8 133q-59 -151 -244 -151q-260 0 -260 311v749h168v-710q0 -101 33 -152t114 -51q90 0 138.5 64t48.5 215v634h170zM375 1237h-144v221h144v-221zM678 1237h-146v221h146v-221z" />
    <glyph glyph-name="yacute" unicode="&#xfd;" horiz-adv-x="798" 
d="M16 1042h185q23 -90 59.5 -231t55 -214.5t40.5 -162.5t33 -142.5t14 -86.5h3q19 118 204 837h172l-305 -1093q-21 -77 -42.5 -133t-45.5 -94t-47.5 -62t-54.5 -36.5t-60 -16.5t-69 -4q-48 0 -78 6v147q28 -4 70 -4q74 0 108.5 49.5t65.5 178.5zM506 1479h199l-261 -285
h-151z" />
    <glyph glyph-name="thorn" unicode="&#xfe;" horiz-adv-x="905" 
d="M289 -381h-168v1839h168v-549q60 152 243 152q149 0 226.5 -131.5t77.5 -394.5q0 -273 -88.5 -413t-245.5 -140q-160 0 -213 120v-483zM666 524q0 203 -46 296t-143 93q-56 0 -95 -27.5t-60 -81.5t-30 -121t-9 -157q0 -63 2.5 -111t9.5 -95.5t20.5 -80.5t33.5 -59.5
t50 -39.5t70 -13q96 0 146.5 105.5t50.5 291.5z" />
    <glyph glyph-name="ydieresis" unicode="&#xff;" horiz-adv-x="798" 
d="M16 1042h185q23 -90 59.5 -231t55 -214.5t40.5 -162.5t33 -142.5t14 -86.5h3q19 118 204 837h172l-305 -1093q-21 -77 -42.5 -133t-45.5 -94t-47.5 -62t-54.5 -36.5t-60 -16.5t-69 -4q-48 0 -78 6v147q28 -4 70 -4q74 0 108.5 49.5t65.5 178.5zM319 1237h-143v221h143
v-221zM623 1237h-146v221h146v-221z" />
    <glyph glyph-name="Amacron" unicode="&#x100;" horiz-adv-x="933" 
d="M637 424h-352l-97 -424h-170l334 1391h221l342 -1391h-182zM317 575h287q-123 528 -145 654h-4q-6 -43 -21.5 -118t-29.5 -140.5t-42.5 -194t-44.5 -201.5zM217 1653h492v-133h-492v133z" />
    <glyph glyph-name="amacron" unicode="&#x101;" horiz-adv-x="862" 
d="M741 768v-575q0 -114 9 -193h-154q-10 38 -10 115q-63 -133 -244 -133q-72 0 -127 26.5t-86 71t-46 96.5t-15 109q0 152 103.5 244t299.5 92q68 0 104 -5v136q0 34 -4.5 60t-18.5 54.5t-45.5 44t-78.5 15.5q-41 0 -71 -12t-45.5 -27.5t-25.5 -42.5t-13 -44.5t-5 -45.5
h-159q2 62 18 113t51 96.5t100 71.5t156 26q307 0 307 -293zM580 434v53q-31 5 -99 5q-126 0 -185.5 -53t-59.5 -142q0 -73 38.5 -123.5t114.5 -50.5q105 0 148 75t43 236zM197 1399h471v-142h-471v142z" />
    <glyph glyph-name="Abreve" unicode="&#x102;" horiz-adv-x="933" 
d="M637 424h-352l-97 -424h-170l334 1391h221l342 -1391h-182zM317 575h287q-123 528 -145 654h-4q-6 -43 -21.5 -118t-29.5 -140.5t-42.5 -194t-44.5 -201.5zM190 1720h129q11 -50 49 -80t95 -30q121 0 143 110h127q-14 -104 -82.5 -168.5t-187.5 -64.5q-128 0 -196.5 66.5
t-76.5 166.5z" />
    <glyph glyph-name="abreve" unicode="&#x103;" horiz-adv-x="862" 
d="M741 768v-575q0 -114 9 -193h-154q-10 38 -10 115q-63 -133 -244 -133q-72 0 -127 26.5t-86 71t-46 96.5t-15 109q0 152 103.5 244t299.5 92q68 0 104 -5v136q0 34 -4.5 60t-18.5 54.5t-45.5 44t-78.5 15.5q-41 0 -71 -12t-45.5 -27.5t-25.5 -42.5t-13 -44.5t-5 -45.5
h-159q2 62 18 113t51 96.5t100 71.5t156 26q307 0 307 -293zM580 434v53q-31 5 -99 5q-126 0 -185.5 -53t-59.5 -142q0 -73 38.5 -123.5t114.5 -50.5q105 0 148 75t43 236zM174 1440h129q10 -53 41.5 -85t87.5 -32q63 0 91.5 32t39.5 85h129q-13 -109 -78 -177.5t-182 -68.5
q-63 0 -112.5 21.5t-79.5 57.5t-46.5 78t-19.5 89z" />
    <glyph glyph-name="Aogonek" unicode="&#x104;" horiz-adv-x="933" 
d="M637 424h-352l-97 -424h-170l334 1391h221l342 -1391h-2q-44 -42 -68 -88.5t-24 -85.5q0 -42 25 -65t67 -23q47 0 82 14l17 -117q-47 -32 -152 -32q-90 0 -145.5 49.5t-55.5 136.5q0 112 93 211h-19zM317 575h287q-123 528 -145 654h-4q-6 -43 -21.5 -118t-29.5 -140.5
t-42.5 -194t-44.5 -201.5z" />
    <glyph glyph-name="aogonek" unicode="&#x105;" horiz-adv-x="862" 
d="M741 768v-575q0 -114 9 -193h-2q-44 -42 -68.5 -88.5t-24.5 -85.5q0 -42 25.5 -65t67.5 -23q46 0 81 14l17 -117q-47 -32 -152 -32q-90 0 -145 49.5t-55 136.5q0 114 100 219q-8 50 -8 107q-63 -133 -244 -133q-72 0 -127 26.5t-86 71t-46 96.5t-15 109q0 152 103.5 244
t299.5 92q68 0 104 -5v136q0 34 -4.5 60t-18.5 54.5t-45.5 44t-78.5 15.5q-41 0 -71 -12t-45.5 -27.5t-25.5 -42.5t-13 -44.5t-5 -45.5h-159q2 62 18 113t51 96.5t100 71.5t156 26q307 0 307 -293zM580 434v53q-31 5 -99 5q-126 0 -185.5 -53t-59.5 -142q0 -73 38.5 -123.5
t114.5 -50.5q105 0 148 75t43 236z" />
    <glyph glyph-name="Cacute" unicode="&#x106;" horiz-adv-x="929" 
d="M702 389h172q-2 -25 -5 -48.5t-13.5 -67t-26.5 -79.5t-45.5 -77.5t-67.5 -70t-97 -47.5t-130 -19q-78 0 -140.5 23t-104.5 60t-72.5 95t-47.5 116t-27 137t-12.5 143t-2.5 148q0 160 23 286t72 223t132 148.5t197 51.5q70 0 127 -18t93.5 -46t64.5 -68t42 -75.5t23 -78.5
t11 -68t3 -51h-170q-8 98 -32 149q-50 104 -166 105q-60 0 -104.5 -32t-70.5 -83t-41.5 -127t-20.5 -150t-5 -166q0 -79 3.5 -143.5t12.5 -133t26 -120t42 -93t63 -63.5t87 -22q50 0 89 21.5t59.5 50t34.5 70t18 66.5t7 54zM598 1747h209l-270 -244h-170z" />
    <glyph glyph-name="cacute" unicode="&#x107;" horiz-adv-x="811" 
d="M594 326h166q-1 -21 -3.5 -39t-11 -55.5t-22 -67.5t-39.5 -65.5t-59.5 -59.5t-86 -40.5t-116.5 -16.5q-101 0 -172 41t-109 118t-54.5 170t-16.5 215q0 90 11.5 167t39 146t68.5 117.5t103.5 76.5t141.5 28q64 0 116 -16.5t84.5 -40.5t57.5 -59t37 -64.5t19.5 -65.5
t9 -52.5t2.5 -35.5h-172q-1 18 -3.5 36t-12 48.5t-24.5 52t-45 38t-69 16.5q-192 0 -192 -392q0 -196 43.5 -298.5t140.5 -102.5q29 0 53.5 9t40.5 20.5t29.5 32.5t20 35.5t12.5 39.5t7.5 34.5t4.5 29.5zM524 1479h199l-260 -285h-152z" />
    <glyph glyph-name="Ccircumflex" unicode="&#x108;" horiz-adv-x="929" 
d="M702 389h172q-2 -25 -5 -48.5t-13.5 -67t-26.5 -79.5t-45.5 -77.5t-67.5 -70t-97 -47.5t-130 -19q-78 0 -140.5 23t-104.5 60t-72.5 95t-47.5 116t-27 137t-12.5 143t-2.5 148q0 160 23 286t72 223t132 148.5t197 51.5q70 0 127 -18t93.5 -46t64.5 -68t42 -75.5t23 -78.5
t11 -68t3 -51h-170q-8 98 -32 149q-50 104 -166 105q-60 0 -104.5 -32t-70.5 -83t-41.5 -127t-20.5 -150t-5 -166q0 -79 3.5 -143.5t12.5 -133t26 -120t42 -93t63 -63.5t87 -22q50 0 89 21.5t59.5 50t34.5 70t18 66.5t7 54zM391 1737h184l203 -234h-176l-121 137l-114 -137
h-177z" />
    <glyph glyph-name="ccircumflex" unicode="&#x109;" horiz-adv-x="811" 
d="M594 326h166q-1 -21 -3.5 -39t-11 -55.5t-22 -67.5t-39.5 -65.5t-59.5 -59.5t-86 -40.5t-116.5 -16.5q-101 0 -172 41t-109 118t-54.5 170t-16.5 215q0 90 11.5 167t39 146t68.5 117.5t103.5 76.5t141.5 28q64 0 116 -16.5t84.5 -40.5t57.5 -59t37 -64.5t19.5 -65.5
t9 -52.5t2.5 -35.5h-172q-1 18 -3.5 36t-12 48.5t-24.5 52t-45 38t-69 16.5q-192 0 -192 -392q0 -196 43.5 -298.5t140.5 -102.5q29 0 53.5 9t40.5 20.5t29.5 32.5t20 35.5t12.5 39.5t7.5 34.5t4.5 29.5zM334 1460h180l180 -276h-159l-111 176l-111 -176h-157z" />
    <glyph glyph-name="Cdotaccent" unicode="&#x10a;" horiz-adv-x="929" 
d="M702 389h172q-2 -25 -5 -48.5t-13.5 -67t-26.5 -79.5t-45.5 -77.5t-67.5 -70t-97 -47.5t-130 -19q-78 0 -140.5 23t-104.5 60t-72.5 95t-47.5 116t-27 137t-12.5 143t-2.5 148q0 160 23 286t72 223t132 148.5t197 51.5q70 0 127 -18t93.5 -46t64.5 -68t42 -75.5t23 -78.5
t11 -68t3 -51h-170q-8 98 -32 149q-50 104 -166 105q-60 0 -104.5 -32t-70.5 -83t-41.5 -127t-20.5 -150t-5 -166q0 -79 3.5 -143.5t12.5 -133t26 -120t42 -93t63 -63.5t87 -22q50 0 89 21.5t59.5 50t34.5 70t18 66.5t7 54zM569 1518h-170v215h170v-215z" />
    <glyph glyph-name="cdotaccent" unicode="&#x10b;" horiz-adv-x="811" 
d="M594 326h166q-1 -21 -3.5 -39t-11 -55.5t-22 -67.5t-39.5 -65.5t-59.5 -59.5t-86 -40.5t-116.5 -16.5q-101 0 -172 41t-109 118t-54.5 170t-16.5 215q0 90 11.5 167t39 146t68.5 117.5t103.5 76.5t141.5 28q64 0 116 -16.5t84.5 -40.5t57.5 -59t37 -64.5t19.5 -65.5
t9 -52.5t2.5 -35.5h-172q-1 18 -3.5 36t-12 48.5t-24.5 52t-45 38t-69 16.5q-192 0 -192 -392q0 -196 43.5 -298.5t140.5 -102.5q29 0 53.5 9t40.5 20.5t29.5 32.5t20 35.5t12.5 39.5t7.5 34.5t4.5 29.5zM510 1239h-170v221h170v-221z" />
    <glyph glyph-name="Ccaron" unicode="&#x10c;" horiz-adv-x="929" 
d="M702 389h172q-2 -25 -5 -48.5t-13.5 -67t-26.5 -79.5t-45.5 -77.5t-67.5 -70t-97 -47.5t-130 -19q-78 0 -140.5 23t-104.5 60t-72.5 95t-47.5 116t-27 137t-12.5 143t-2.5 148q0 160 23 286t72 223t132 148.5t197 51.5q70 0 127 -18t93.5 -46t64.5 -68t42 -75.5t23 -78.5
t11 -68t3 -51h-170q-8 98 -32 149q-50 104 -166 105q-60 0 -104.5 -32t-70.5 -83t-41.5 -127t-20.5 -150t-5 -166q0 -79 3.5 -143.5t12.5 -133t26 -120t42 -93t63 -63.5t87 -22q50 0 89 21.5t59.5 50t34.5 70t18 66.5t7 54zM582 1495h-191l-201 231h177l120 -139l117 139
h174z" />
    <glyph glyph-name="ccaron" unicode="&#x10d;" horiz-adv-x="811" 
d="M594 326h166q-1 -21 -3.5 -39t-11 -55.5t-22 -67.5t-39.5 -65.5t-59.5 -59.5t-86 -40.5t-116.5 -16.5q-101 0 -172 41t-109 118t-54.5 170t-16.5 215q0 90 11.5 167t39 146t68.5 117.5t103.5 76.5t141.5 28q64 0 116 -16.5t84.5 -40.5t57.5 -59t37 -64.5t19.5 -65.5
t9 -52.5t2.5 -35.5h-172q-1 18 -3.5 36t-12 48.5t-24.5 52t-45 38t-69 16.5q-192 0 -192 -392q0 -196 43.5 -298.5t140.5 -102.5q29 0 53.5 9t40.5 20.5t29.5 32.5t20 35.5t12.5 39.5t7.5 34.5t4.5 29.5zM516 1186h-180l-182 276h159l113 -176l111 176h159z" />
    <glyph glyph-name="Dcaron" unicode="&#x10e;" horiz-adv-x="1007" 
d="M135 0v1391h320q242 0 355.5 -165t113.5 -497q0 -366 -115 -547.5t-377 -181.5h-297zM307 1243v-1100h119q178 0 250 140t72 442q0 273 -74 395.5t-246 122.5h-121zM557 1489h-190l-201 231h176l121 -139l117 139h174z" />
    <glyph glyph-name="dcaron" unicode="&#x10f;" horiz-adv-x="964" 
d="M618 1458h168v-1186q0 -211 2 -272h-161q-6 40 -6 135q-57 -153 -244 -153q-160 0 -233.5 136t-73.5 414q0 250 88.5 389.5t253.5 139.5q157 0 206 -105v502zM242 530q0 -213 45.5 -307t140.5 -94q111 0 153 95.5t42 312.5q0 149 -16.5 228t-55.5 113.5t-113 34.5
q-196 0 -196 -383zM993 985h-116l-11 473h138z" />
    <glyph glyph-name="Dcroat" unicode="&#x110;" horiz-adv-x="1028" 
d="M14 803h142v588h319q242 0 355.5 -165t113.5 -497q0 -366 -114.5 -547.5t-376.5 -181.5h-297v657h-142v146zM328 1243v-440h264v-146h-264v-514h118q178 0 250 140t72 442q0 273 -74 395.5t-245 122.5h-121z" />
    <glyph glyph-name="dcroat" unicode="&#x111;" horiz-adv-x="905" 
d="M610 1458h168v-160h117v-116h-117v-910q0 -211 2 -272h-162q-6 40 -6 135q-29 -74 -83.5 -113.5t-155.5 -39.5q-303 0 -303 546q0 239 87 375.5t246 136.5q160 0 207 -104v246h-344v116h344v160zM242 526q0 -208 45 -302.5t139 -94.5q108 0 148 95t40 298
q0 205 -38.5 289t-141.5 84q-192 0 -192 -369z" />
    <glyph glyph-name="Emacron" unicode="&#x112;" horiz-adv-x="854" 
d="M764 809v-152h-461v-507h512l-22 -150h-658v1391h651v-152h-483v-430h461zM213 1665h492v-133h-492v133z" />
    <glyph glyph-name="emacron" unicode="&#x113;" horiz-adv-x="845" 
d="M776 487h-538q0 -79 7.5 -138.5t27 -113.5t58.5 -83t97 -29q44 0 78 16t51.5 36.5t30 49.5t15.5 44t5 32h164q-31 -223 -197 -292q-66 -27 -149 -27q-65 0 -118 16.5t-89.5 44.5t-64 70t-43 87t-25.5 102t-13 108t-3 112q0 255 90.5 397t273.5 142q81 0 143 -26.5
t100 -70t61.5 -108t32.5 -133t9 -152.5q0 -38 -4 -84zM242 616h370q0 67 -8 117.5t-27 94t-55.5 67t-89.5 23.5q-182 0 -190 -302zM184 1399h471v-142h-471v142z" />
    <glyph glyph-name="Ebreve" unicode="&#x114;" horiz-adv-x="854" 
d="M764 809v-152h-461v-507h512l-22 -150h-658v1391h651v-152h-483v-430h461zM186 1731h129q11 -51 49 -81t95 -30q120 0 143 111h127q-14 -104 -82.5 -169t-187.5 -65q-128 0 -196.5 67t-76.5 167z" />
    <glyph glyph-name="ebreve" unicode="&#x115;" horiz-adv-x="845" 
d="M776 487h-538q0 -79 7.5 -138.5t27 -113.5t58.5 -83t97 -29q44 0 78 16t51.5 36.5t30 49.5t15.5 44t5 32h164q-31 -223 -197 -292q-66 -27 -149 -27q-65 0 -118 16.5t-89.5 44.5t-64 70t-43 87t-25.5 102t-13 108t-3 112q0 255 90.5 397t273.5 142q81 0 143 -26.5
t100 -70t61.5 -108t32.5 -133t9 -152.5q0 -38 -4 -84zM242 616h370q0 67 -8 117.5t-27 94t-55.5 67t-89.5 23.5q-182 0 -190 -302zM162 1440h129q10 -53 41.5 -85t87.5 -32q63 0 91.5 32t39.5 85h129q-13 -109 -78 -177.5t-182 -68.5q-63 0 -112.5 21.5t-79.5 57.5t-46.5 78
t-19.5 89z" />
    <glyph glyph-name="Edotaccent" unicode="&#x116;" horiz-adv-x="854" 
d="M764 809v-152h-461v-507h512l-22 -150h-658v1391h651v-152h-483v-430h461zM543 1518h-170v215h170v-215z" />
    <glyph glyph-name="edotaccent" unicode="&#x117;" horiz-adv-x="845" 
d="M776 487h-538q0 -79 7.5 -138.5t27 -113.5t58.5 -83t97 -29q44 0 78 16t51.5 36.5t30 49.5t15.5 44t5 32h164q-31 -223 -197 -292q-66 -27 -149 -27q-65 0 -118 16.5t-89.5 44.5t-64 70t-43 87t-25.5 102t-13 108t-3 112q0 255 90.5 397t273.5 142q81 0 143 -26.5
t100 -70t61.5 -108t32.5 -133t9 -152.5q0 -38 -4 -84zM242 616h370q0 67 -8 117.5t-27 94t-55.5 67t-89.5 23.5q-182 0 -190 -302zM506 1239h-170v221h170v-221z" />
    <glyph glyph-name="Eogonek" unicode="&#x118;" horiz-adv-x="854" 
d="M764 809v-152h-461v-507h512l-22 -150h-62q-44 -42 -68 -88.5t-24 -85.5q0 -42 25 -65t67 -23q47 0 82 14l16 -117q-47 -32 -151 -32q-90 0 -145.5 49.5t-55.5 136.5q0 113 92 211h-434v1391h651v-152h-483v-430h461z" />
    <glyph glyph-name="eogonek" unicode="&#x119;" horiz-adv-x="845" 
d="M776 487h-538q0 -79 7.5 -138.5t27 -113.5t58.5 -83t97 -29q44 0 78 16t51.5 36.5t30 49.5t15.5 44t5 32h164l-2 -11q-1 -12 -3 -21t-6 -26.5t-9 -32t-13 -35t-18 -37.5t-24.5 -36t-31 -35t-38.5 -31t-47 -26q-88 -85 -88 -170q0 -42 25 -65t67 -23q44 0 82 15l16 -117
q-49 -33 -152 -33q-90 0 -145 49.5t-55 136.5q0 92 65 179q-82 5 -143 40t-95 84.5t-54.5 123t-26.5 140.5t-6 152q0 255 90.5 397t273.5 142q81 0 143 -26.5t100 -70t61.5 -108t32.5 -133t9 -152.5q0 -38 -4 -84zM242 616h370q0 67 -8 117.5t-27 94t-55.5 67t-89.5 23.5
q-182 0 -190 -302z" />
    <glyph glyph-name="Ecaron" unicode="&#x11a;" horiz-adv-x="854" 
d="M764 809v-152h-461v-507h512l-22 -150h-658v1391h651v-152h-483v-430h461zM555 1495h-190l-201 231h176l121 -139l117 139h174z" />
    <glyph glyph-name="ecaron" unicode="&#x11b;" horiz-adv-x="845" 
d="M776 487h-538q0 -79 7.5 -138.5t27 -113.5t58.5 -83t97 -29q44 0 78 16t51.5 36.5t30 49.5t15.5 44t5 32h164q-31 -223 -197 -292q-66 -27 -149 -27q-65 0 -118 16.5t-89.5 44.5t-64 70t-43 87t-25.5 102t-13 108t-3 112q0 255 90.5 397t273.5 142q81 0 143 -26.5
t100 -70t61.5 -108t32.5 -133t9 -152.5q0 -38 -4 -84zM242 616h370q0 67 -8 117.5t-27 94t-55.5 67t-89.5 23.5q-182 0 -190 -302zM512 1186h-180l-182 276h159l113 -176l110 176h160z" />
    <glyph glyph-name="Gcircumflex" unicode="&#x11c;" horiz-adv-x="991" 
d="M887 766v-766h-133q-11 72 -11 143q-40 -80 -104 -121.5t-174 -41.5q-88 0 -154.5 35t-109.5 96t-70 152.5t-38 195t-11 233.5q0 719 438 719q70 0 127.5 -17.5t94.5 -43.5t65 -65t42 -72t23 -74.5t11.5 -64t3.5 -48.5h-170q-19 236 -203 236q-254 0 -254 -568
q0 -136 11 -235t37.5 -177t74 -117.5t117.5 -39.5q126 0 172.5 101.5t46.5 320.5v69h-232v150h400zM412 1737h184l203 -234h-176l-121 137l-115 -137h-176z" />
    <glyph glyph-name="gcircumflex" unicode="&#x11d;" horiz-adv-x="911" 
d="M788 739v-669q0 -89 -9.5 -156.5t-34.5 -128t-66 -99t-107 -61t-155 -22.5q-79 0 -140 19.5t-97 48.5t-59.5 69.5t-32.5 76t-11 74.5h170q2 -23 10 -45t25.5 -47t54 -40t86.5 -15q117 0 159 79.5t42 246.5v86q-58 -152 -240 -152q-158 0 -236.5 129t-78.5 377
q0 271 91 411t247 140q96 0 148.5 -38t68.5 -93q0 66 8 112h160q-3 -83 -3 -303zM242 512q0 -362 188 -362q109 0 152 98.5t43 292.5q0 75 -4 129t-16 102t-32 77.5t-53 46.5t-78 17q-98 0 -149 -101.5t-51 -299.5zM362 1460h181l180 -276h-160l-110 176l-111 -176h-158z
" />
    <glyph glyph-name="Gbreve" unicode="&#x11e;" horiz-adv-x="991" 
d="M887 766v-766h-133q-11 72 -11 143q-40 -80 -104 -121.5t-174 -41.5q-88 0 -154.5 35t-109.5 96t-70 152.5t-38 195t-11 233.5q0 719 438 719q70 0 127.5 -17.5t94.5 -43.5t65 -65t42 -72t23 -74.5t11.5 -64t3.5 -48.5h-170q-19 236 -203 236q-254 0 -254 -568
q0 -136 11 -235t37.5 -177t74 -117.5t117.5 -39.5q126 0 172.5 101.5t46.5 320.5v69h-232v150h400zM233 1731h129q11 -51 49 -81t95 -30q120 0 143 111h127q-14 -104 -82.5 -169t-187.5 -65q-128 0 -196.5 67t-76.5 167z" />
    <glyph glyph-name="gbreve" unicode="&#x11f;" horiz-adv-x="911" 
d="M788 739v-669q0 -89 -9.5 -156.5t-34.5 -128t-66 -99t-107 -61t-155 -22.5q-79 0 -140 19.5t-97 48.5t-59.5 69.5t-32.5 76t-11 74.5h170q2 -23 10 -45t25.5 -47t54 -40t86.5 -15q117 0 159 79.5t42 246.5v86q-58 -152 -240 -152q-158 0 -236.5 129t-78.5 377
q0 271 91 411t247 140q96 0 148.5 -38t68.5 -93q0 66 8 112h160q-3 -83 -3 -303zM242 512q0 -362 188 -362q109 0 152 98.5t43 292.5q0 75 -4 129t-16 102t-32 77.5t-53 46.5t-78 17q-98 0 -149 -101.5t-51 -299.5zM195 1440h129q10 -53 42 -85t87 -32q63 0 91.5 32t39.5 85
h129q-13 -109 -78 -177.5t-182 -68.5q-63 0 -112.5 21.5t-79.5 57.5t-46.5 78t-19.5 89z" />
    <glyph glyph-name="Gdotaccent" unicode="&#x120;" horiz-adv-x="991" 
d="M887 766v-766h-133q-11 72 -11 143q-40 -80 -104 -121.5t-174 -41.5q-88 0 -154.5 35t-109.5 96t-70 152.5t-38 195t-11 233.5q0 719 438 719q70 0 127.5 -17.5t94.5 -43.5t65 -65t42 -72t23 -74.5t11.5 -64t3.5 -48.5h-170q-19 236 -203 236q-254 0 -254 -568
q0 -136 11 -235t37.5 -177t74 -117.5t117.5 -39.5q126 0 172.5 101.5t46.5 320.5v69h-232v150h400zM590 1518h-170v215h170v-215z" />
    <glyph glyph-name="gdotaccent" unicode="&#x121;" horiz-adv-x="911" 
d="M788 739v-669q0 -89 -9.5 -156.5t-34.5 -128t-66 -99t-107 -61t-155 -22.5q-79 0 -140 19.5t-97 48.5t-59.5 69.5t-32.5 76t-11 74.5h170q2 -23 10 -45t25.5 -47t54 -40t86.5 -15q117 0 159 79.5t42 246.5v86q-58 -152 -240 -152q-158 0 -236.5 129t-78.5 377
q0 271 91 411t247 140q96 0 148.5 -38t68.5 -93q0 66 8 112h160q-3 -83 -3 -303zM242 512q0 -362 188 -362q109 0 152 98.5t43 292.5q0 75 -4 129t-16 102t-32 77.5t-53 46.5t-78 17q-98 0 -149 -101.5t-51 -299.5zM539 1239h-170v221h170v-221z" />
    <glyph glyph-name="uni0122" unicode="&#x122;" horiz-adv-x="991" 
d="M887 766v-766h-133q-11 72 -11 143q-40 -80 -104 -121.5t-174 -41.5q-88 0 -154.5 35t-109.5 96t-70 152.5t-38 195t-11 233.5q0 719 438 719q70 0 127.5 -17.5t94.5 -43.5t65 -65t42 -72t23 -74.5t11.5 -64t3.5 -48.5h-170q-19 236 -203 236q-254 0 -254 -568
q0 -136 11 -235t37.5 -177t74 -117.5t117.5 -39.5q126 0 172.5 101.5t46.5 320.5v69h-232v150h400zM502 -453h-150q62 153 76 344h168q-7 -100 -33 -193.5t-61 -150.5z" />
    <glyph glyph-name="uni0123" unicode="&#x123;" horiz-adv-x="911" 
d="M449 1542h155q-75 -165 -92 -346h-166q7 94 36.5 188t66.5 158zM788 739v-669q0 -89 -9.5 -156.5t-34.5 -128t-66 -99t-107 -61t-155 -22.5q-79 0 -140 19.5t-97 48.5t-59.5 69.5t-32.5 76t-11 74.5h170q2 -23 10 -45t25.5 -47t54 -40t86.5 -15q117 0 159 79.5t42 246.5
v86q-58 -152 -240 -152q-158 0 -236.5 129t-78.5 377q0 271 91 411t247 140q96 0 148.5 -38t68.5 -93q0 66 8 112h160q-3 -83 -3 -303zM242 512q0 -362 188 -362q109 0 152 98.5t43 292.5q0 75 -4 129t-16 102t-32 77.5t-53 46.5t-78 17q-98 0 -149 -101.5t-51 -299.5z" />
    <glyph glyph-name="Hcircumflex" unicode="&#x124;" horiz-adv-x="1040" 
d="M135 0v1391h170v-580h430v580h170v-1391h-170v659h-430v-659h-170zM426 1737h184l203 -234h-176l-121 137l-115 -137h-176z" />
    <glyph glyph-name="hcircumflex" unicode="&#x125;" horiz-adv-x="917" 
d="M121 1731h182l199 -199h-168l-123 113l-123 -113h-168zM121 1458h170v-536q64 139 246 139q123 0 192.5 -79.5t69.5 -240.5v-741h-168v707q0 100 -35.5 153t-122.5 53q-97 0 -139.5 -73t-42.5 -211v-629h-170v1458z" />
    <glyph glyph-name="Hbar" unicode="&#x126;" horiz-adv-x="1040" 
d="M27 1141h108v250h170v-250h430v250h170v-250h103v-127h-103v-1014h-170v655h-430v-655h-170v1014h-108v127zM305 807h430v207h-430v-207z" />
    <glyph glyph-name="hbar" unicode="&#x127;" horiz-adv-x="917" 
d="M125 1458h170v-160h344v-116h-344v-291q63 139 244 139q123 0 191.5 -79t68.5 -240v-711h-168v676q0 101 -33.5 153t-120.5 52q-98 0 -140 -72.5t-42 -210.5v-598h-170v1182h-113v116h113v160z" />
    <glyph glyph-name="Itilde" unicode="&#x128;" horiz-adv-x="442" 
d="M135 1391h170v-1391h-170v1391zM51 1518h-114v41q0 90 40 131t105 41q55 0 145.5 -40t114.5 -40t36.5 13.5t12.5 49.5v21h115v-31q0 -188 -150 -188q-53 0 -140 39.5t-116 39.5q-49 0 -49 -53v-24z" />
    <glyph glyph-name="itilde" unicode="&#x129;" horiz-adv-x="409" 
d="M121 0v1042h168v-1042h-168zM55 1210h-116v47q0 166 137 166q44 0 90 -20.5t84 -41t61 -20.5q22 0 32.5 15.5t10.5 56.5v14h115v-38q0 -98 -37 -139.5t-104 -41.5q-41 0 -85.5 21t-83 42t-63.5 21q-41 0 -41 -59v-23z" />
    <glyph glyph-name="Imacron" unicode="&#x12a;" horiz-adv-x="442" 
d="M135 1391h170v-1391h-170v1391zM-25 1665h492v-133h-492v133z" />
    <glyph glyph-name="imacron" unicode="&#x12b;" horiz-adv-x="409" 
d="M121 0v1042h168v-1042h-168zM-33 1399h471v-142h-471v142z" />
    <glyph glyph-name="Iogonek" unicode="&#x12e;" horiz-adv-x="442" 
d="M135 1391h170v-1391h-8q-44 -42 -68 -88.5t-24 -85.5q0 -42 25 -65t67 -23q47 0 82 14l16 -117q-47 -32 -151 -32q-90 0 -145.5 49.5t-55.5 136.5q0 113 92 211v1391z" />
    <glyph glyph-name="iogonek" unicode="&#x12f;" horiz-adv-x="409" 
d="M121 0v1042h168v-1042h-6q-44 -42 -68.5 -88.5t-24.5 -85.5q0 -42 25.5 -65t67.5 -23q47 0 82 14l16 -117q-47 -32 -152 -32q-90 0 -145 49.5t-55 136.5q0 113 92 211zM289 1237h-168v221h168v-221z" />
    <glyph glyph-name="Idotaccent" unicode="&#x130;" horiz-adv-x="442" 
d="M135 1391h170v-1391h-170v1391zM305 1518h-170v215h170v-215z" />
    <glyph glyph-name="dotlessi" unicode="&#x131;" horiz-adv-x="409" 
d="M121 0v1042h168v-1042h-168z" />
    <glyph glyph-name="Jcircumflex" unicode="&#x134;" horiz-adv-x="532" 
d="M412 1391v-1051q0 -66 -5.5 -114.5t-23 -97t-47.5 -78.5t-82.5 -49t-124.5 -19q-70 0 -115 10v145q38 -6 90 -6q82 0 109 45.5t27 149.5v1065h172zM231 1724h185l202 -233h-176l-120 137l-115 -137h-176z" />
    <glyph glyph-name="jcircumflex" unicode="&#x135;" horiz-adv-x="413" 
d="M123 1042h168v-1097q0 -66 -4 -111.5t-18.5 -92.5t-39.5 -75t-68.5 -45.5t-105.5 -17.5q-30 0 -71 6v147q20 -2 49 -2q56 0 73 34t17 122v1132zM115 1460h180l180 -276h-160l-110 176l-111 -176h-157z" />
    <glyph glyph-name="uni0136" unicode="&#x136;" horiz-adv-x="927" 
d="M135 0v1391h168v-676q48 69 215 322t236 354h194l-389 -560l402 -831h-195l-324 688l-139 -186v-502h-168zM512 -434h-150q62 153 76 344h168q-7 -100 -33 -193.5t-61 -150.5z" />
    <glyph glyph-name="uni0137" unicode="&#x137;" horiz-adv-x="802" 
d="M289 1458v-897q32 49 152.5 227.5t168.5 253.5h187q-76 -108 -283 -395l309 -647h-190l-232 512q-17 -21 -58.5 -79t-53.5 -73v-360h-168v1458h168zM446 -436h-149q62 153 76 344h168q-7 -99 -33.5 -193t-61.5 -151z" />
    <glyph glyph-name="kgreenlandic" unicode="&#x138;" horiz-adv-x="804" 
d="M289 1042v-489q24 39 149.5 228t171.5 261h187q-84 -125 -281 -403q48 -99 153.5 -320t153.5 -319h-190q-181 393 -230 508q-10 -14 -114 -154v-354h-168v1042h168z" />
    <glyph glyph-name="Lacute" unicode="&#x139;" horiz-adv-x="794" 
d="M135 0v1391h170v-1241h494l-23 -150h-641zM356 1743h209l-270 -244h-170z" />
    <glyph glyph-name="lacute" unicode="&#x13a;" horiz-adv-x="407" 
d="M307 1743h197l-215 -203h-180zM289 0h-168v1458h168v-1458z" />
    <glyph glyph-name="uni013B" unicode="&#x13b;" horiz-adv-x="794" 
d="M135 0v1391h170v-1241h494l-23 -150h-641zM444 -453h-149q62 153 76 344h168q-7 -99 -33.5 -193t-61.5 -151z" />
    <glyph glyph-name="uni013C" unicode="&#x13c;" horiz-adv-x="407" 
d="M289 0h-168v1458h168v-1458zM193 -453h-150q62 153 76 344h168q-7 -100 -33 -193.5t-61 -150.5z" />
    <glyph glyph-name="Lcaron" unicode="&#x13d;" horiz-adv-x="794" 
d="M135 0v1391h170v-1241h494l-23 -150h-641zM639 920h-117l-10 473h137z" />
    <glyph glyph-name="lcaron" unicode="&#x13e;" horiz-adv-x="468" 
d="M289 0h-168v1458h168v-1458zM514 985h-117l-10 473h137z" />
    <glyph glyph-name="Ldot" unicode="&#x13f;" horiz-adv-x="794" 
d="M639 623h-158v272h158v-272zM135 0v1391h170v-1241h494l-23 -150h-641z" />
    <glyph glyph-name="ldot" unicode="&#x140;" horiz-adv-x="505" 
d="M530 764h-151v278h151v-278zM289 0h-168v1458h168v-1458z" />
    <glyph glyph-name="Lslash" unicode="&#x141;" horiz-adv-x="815" 
d="M563 805l-237 -133v-522h493l-22 -150h-641v578l-148 -82v135l148 82v678h170v-582l237 133v-137z" />
    <glyph glyph-name="lslash" unicode="&#x142;" horiz-adv-x="436" 
d="M311 0h-168v731l-116 -78v135l116 78v592h168v-481l129 86v-135l-129 -86v-842z" />
    <glyph glyph-name="Nacute" unicode="&#x143;" horiz-adv-x="1060" 
d="M293 0h-158v1391h205q420 -1059 438 -1123h2q-12 221 -12 619v504h158v-1391h-197q-430 1107 -446 1161h-2q12 -206 12 -645v-516zM651 1737h209l-270 -244h-170z" />
    <glyph glyph-name="nacute" unicode="&#x144;" horiz-adv-x="917" 
d="M121 0v719q0 128 -1 223.5t-1 99.5h162q6 -75 6 -131q65 150 243 150q123 0 196 -78t73 -240v-743h-170v709q0 99 -35 151.5t-117 52.5q-99 0 -143.5 -67.5t-44.5 -220.5v-625h-168zM565 1479h199l-260 -285h-152z" />
    <glyph glyph-name="uni0145" unicode="&#x145;" horiz-adv-x="1060" 
d="M293 0h-158v1391h205q420 -1059 438 -1123h2q-12 221 -12 619v504h158v-1391h-197q-430 1107 -446 1161h-2q12 -206 12 -645v-516zM535 -453h-150q62 153 76 344h168q-7 -100 -33 -193.5t-61 -150.5z" />
    <glyph glyph-name="uni0146" unicode="&#x146;" horiz-adv-x="917" 
d="M121 0v719q0 128 -1 223.5t-1 99.5h162q6 -75 6 -131q65 150 243 150q123 0 196 -78t73 -240v-743h-170v709q0 99 -35 151.5t-117 52.5q-99 0 -143.5 -67.5t-44.5 -220.5v-625h-168zM455 -453h-150q62 153 76 344h168q-7 -100 -33 -193.5t-61 -150.5z" />
    <glyph glyph-name="Ncaron" unicode="&#x147;" horiz-adv-x="1060" 
d="M293 0h-158v1391h205q420 -1059 438 -1123h2q-12 221 -12 619v504h158v-1391h-197q-430 1107 -446 1161h-2q12 -206 12 -645v-516zM625 1487h-191l-201 231h177l120 -139l117 139h174z" />
    <glyph glyph-name="ncaron" unicode="&#x148;" horiz-adv-x="917" 
d="M121 0v719q0 128 -1 223.5t-1 99.5h162q6 -75 6 -131q65 150 243 150q123 0 196 -78t73 -240v-743h-170v709q0 99 -35 151.5t-117 52.5q-99 0 -143.5 -67.5t-44.5 -220.5v-625h-168zM549 1186h-180l-183 276h160l113 -176l110 176h160z" />
    <glyph glyph-name="napostrophe" unicode="&#x149;" horiz-adv-x="917" 
d="M170 1145h-133q63 184 78 360h149q-6 -99 -32.5 -197.5t-61.5 -162.5zM121 0v719q0 128 -1 223.5t-1 99.5h162q6 -75 6 -131q65 150 243 150q123 0 196 -78t73 -240v-743h-170v709q0 99 -35 151.5t-117 52.5q-99 0 -143.5 -67.5t-44.5 -220.5v-625h-168z" />
    <glyph glyph-name="Omacron" unicode="&#x14c;" horiz-adv-x="999" 
d="M504 1411q216 0 315 -172.5t99 -531.5q0 -368 -99 -547.5t-323 -179.5q-214 0 -314 178.5t-100 546.5q0 706 422 706zM500 1262q-242 0 -242 -553q0 -584 242 -584q128 0 184.5 142t56.5 440q0 291 -57.5 423t-183.5 132zM254 1665h491v-133h-491v133z" />
    <glyph glyph-name="omacron" unicode="&#x14d;" horiz-adv-x="870" 
d="M442 1061q174 0 266.5 -134t92.5 -395q0 -550 -367 -550q-184 0 -274 134.5t-90 411.5q0 267 97.5 400t274.5 133zM436 915q-97 0 -145.5 -94t-48.5 -293q0 -403 194 -403q193 0 193 403q0 387 -193 387zM197 1399h471v-142h-471v142z" />
    <glyph glyph-name="Ohungarumlaut" unicode="&#x150;" horiz-adv-x="999" 
d="M504 1411q216 0 315 -172.5t99 -531.5q0 -368 -99 -547.5t-323 -179.5q-214 0 -314 178.5t-100 546.5q0 706 422 706zM500 1262q-242 0 -242 -553q0 -584 242 -584q128 0 184.5 142t56.5 440q0 291 -57.5 423t-183.5 132zM418 1747h180l-205 -246h-147zM729 1747h176
l-203 -246h-147z" />
    <glyph glyph-name="ohungarumlaut" unicode="&#x151;" horiz-adv-x="870" 
d="M442 1061q174 0 266.5 -134t92.5 -395q0 -550 -367 -550q-184 0 -274 134.5t-90 411.5q0 267 97.5 400t274.5 133zM436 915q-97 0 -145.5 -94t-48.5 -293q0 -403 194 -403q193 0 193 403q0 387 -193 387zM315 1178h-137l164 292h172zM627 1178h-135l161 292h172z" />
    <glyph glyph-name="OE" unicode="&#x152;" horiz-adv-x="1421" 
d="M1356 1391v-154h-479v-430h454v-154h-454v-501h507l-24 -152h-596q-12 0 -79 -5t-120 -5q-114 1 -200 39t-139 102t-86 159t-45.5 196.5t-12.5 228.5q0 115 16 213.5t53.5 185.5t93.5 148.5t140 97t190 35.5q51 0 118.5 -2t72.5 -2h590zM707 147v1092q-36 8 -123 8
q-157 0 -240.5 -132.5t-83.5 -399.5q0 -293 77.5 -434.5t242.5 -141.5q78 0 127 8z" />
    <glyph glyph-name="oe" unicode="&#x153;" horiz-adv-x="1402" 
d="M983 -18q-193 0 -272 168q-89 -168 -277 -168q-185 0 -274.5 134t-89.5 419q0 264 97 395t275 131q194 0 275 -176q92 176 284 176q78 0 137 -25t96.5 -67.5t61 -104.5t32.5 -130t9 -150v-97h-542q0 -76 8 -135.5t28 -113.5t60 -83.5t98 -29.5q150 0 173 179q1 4 1 5h168
q-12 -96 -43 -156q-88 -170 -305 -171zM436 915q-96 0 -145 -92t-49 -291q0 -407 194 -407q99 0 146 100t47 314q0 192 -48 284t-145 92zM799 616h370q0 91 -15 155t-56 105.5t-109 41.5q-181 0 -190 -302z" />
    <glyph glyph-name="Racute" unicode="&#x154;" horiz-adv-x="954" 
d="M461 631h-156v-631h-170v1391h375q176 0 269 -95t93 -268q0 -74 -16.5 -133t-45 -96t-58.5 -59.5t-64 -34.5q91 -34 128.5 -118.5t37.5 -236.5v-55q0 -186 20 -295h-169q-21 74 -21 299v47q0 155 -46 220t-177 65zM305 1247v-473h166q121 0 174 62.5t53 185.5
q0 106 -51.5 165.5t-159.5 59.5h-182zM600 1747h209l-270 -244h-170z" />
    <glyph glyph-name="racute" unicode="&#x155;" horiz-adv-x="579" 
d="M121 0v688q0 280 -2 354h160q6 -75 6 -182q32 93 103.5 145.5t170.5 53.5v-187q-270 -6 -270 -297v-575h-168zM416 1479h198l-260 -285h-151z" />
    <glyph glyph-name="uni0156" unicode="&#x156;" horiz-adv-x="954" 
d="M461 631h-156v-631h-170v1391h375q176 0 269 -95t93 -268q0 -74 -16.5 -133t-45 -96t-58.5 -59.5t-64 -34.5q91 -34 128.5 -118.5t37.5 -236.5v-55q0 -186 20 -295h-169q-21 74 -21 299v47q0 155 -46 220t-177 65zM305 1247v-473h166q121 0 174 62.5t53 185.5
q0 106 -51.5 165.5t-159.5 59.5h-182zM481 -453h-149q62 153 76 344h167q-7 -100 -33 -193.5t-61 -150.5z" />
    <glyph glyph-name="uni0157" unicode="&#x157;" horiz-adv-x="579" 
d="M121 0v688q0 280 -2 354h160q6 -75 6 -182q32 93 103.5 145.5t170.5 53.5v-187q-270 -6 -270 -297v-575h-168zM193 -453h-150q62 153 76 344h168q-7 -100 -33 -193.5t-61 -150.5z" />
    <glyph glyph-name="Rcaron" unicode="&#x158;" horiz-adv-x="954" 
d="M461 631h-156v-631h-170v1391h375q176 0 269 -95t93 -268q0 -74 -16.5 -133t-45 -96t-58.5 -59.5t-64 -34.5q91 -34 128.5 -118.5t37.5 -236.5v-55q0 -186 20 -295h-169q-21 74 -21 299v47q0 155 -46 220t-177 65zM305 1247v-473h166q121 0 174 62.5t53 185.5
q0 106 -51.5 165.5t-159.5 59.5h-182zM561 1495h-190l-201 231h176l121 -139l117 139h174z" />
    <glyph glyph-name="rcaron" unicode="&#x159;" horiz-adv-x="579" 
d="M121 0v688q0 280 -2 354h160q6 -75 6 -182q32 93 103.5 145.5t170.5 53.5v-187q-270 -6 -270 -297v-575h-168zM412 1186h-181l-182 276h160l113 -176l110 176h160z" />
    <glyph glyph-name="Sacute" unicode="&#x15a;" horiz-adv-x="894" 
d="M51 371h170q10 -113 64.5 -181.5t158.5 -68.5q211 0 211 227q0 106 -53 173t-192 134q-172 81 -245 169.5t-73 234.5q0 154 95 252t264 98q80 0 142.5 -22t100.5 -57t63.5 -84t36 -97t11.5 -102h-168q-3 24 -6 41.5t-11 46.5t-21.5 49.5t-33 41t-51 31.5t-70.5 11
q-90 0 -135 -54t-45 -139q0 -94 49 -150.5t179 -117.5q185 -89 261 -188t76 -257q0 -171 -99.5 -276.5t-289.5 -105.5q-104 0 -180 31.5t-119 88t-64.5 123t-25.5 148.5zM569 1747h209l-270 -244h-170z" />
    <glyph glyph-name="sacute" unicode="&#x15b;" horiz-adv-x="772" 
d="M45 303h166q5 -83 49.5 -134.5t126.5 -51.5q77 0 117.5 41.5t40.5 111.5q0 74 -41.5 118t-143.5 83q-162 62 -222 130t-60 179q0 55 17.5 103.5t52.5 89.5t95.5 64.5t139.5 23.5q86 0 149 -27t96 -73t48 -96t16 -107h-164q-7 168 -149 168q-67 0 -101 -37t-34 -98
t36.5 -97.5t139.5 -75.5q161 -61 228 -131.5t67 -199.5q0 -145 -87.5 -225t-248.5 -80t-246 87.5t-88 233.5zM483 1479h199l-260 -285h-152z" />
    <glyph glyph-name="Scircumflex" unicode="&#x15c;" horiz-adv-x="894" 
d="M51 371h170q10 -113 64.5 -181.5t158.5 -68.5q211 0 211 227q0 106 -53 173t-192 134q-172 81 -245 169.5t-73 234.5q0 154 95 252t264 98q80 0 142.5 -22t100.5 -57t63.5 -84t36 -97t11.5 -102h-168q-3 24 -6 41.5t-11 46.5t-21.5 49.5t-33 41t-51 31.5t-70.5 11
q-90 0 -135 -54t-45 -139q0 -94 49 -150.5t179 -117.5q185 -89 261 -188t76 -257q0 -171 -99.5 -276.5t-289.5 -105.5q-104 0 -180 31.5t-119 88t-64.5 123t-25.5 148.5zM352 1737h185l202 -234h-176l-121 137l-114 -137h-176z" />
    <glyph glyph-name="scircumflex" unicode="&#x15d;" horiz-adv-x="772" 
d="M45 303h166q5 -83 49.5 -134.5t126.5 -51.5q77 0 117.5 41.5t40.5 111.5q0 74 -41.5 118t-143.5 83q-162 62 -222 130t-60 179q0 55 17.5 103.5t52.5 89.5t95.5 64.5t139.5 23.5q86 0 149 -27t96 -73t48 -96t16 -107h-164q-7 168 -149 168q-67 0 -101 -37t-34 -98
t36.5 -97.5t139.5 -75.5q161 -61 228 -131.5t67 -199.5q0 -145 -87.5 -225t-248.5 -80t-246 87.5t-88 233.5zM297 1460h180l180 -276h-159l-111 176l-111 -176h-157z" />
    <glyph glyph-name="uni015E" unicode="&#x15e;" horiz-adv-x="894" 
d="M51 371h170q10 -113 64.5 -181.5t158.5 -68.5q211 0 211 227q0 106 -53 173t-192 134q-172 81 -245 169.5t-73 234.5q0 154 95 252t264 98q80 0 142.5 -22t100.5 -57t63.5 -84t36 -97t11.5 -102h-168q-3 24 -6 41.5t-11 46.5t-21.5 49.5t-33 41t-51 31.5t-70.5 11
q-90 0 -135 -54t-45 -139q0 -94 49 -150.5t179 -117.5q185 -89 261 -188t76 -257q0 -156 -83 -258t-242 -120l-33 -62q158 -38 158 -164q0 -79 -55 -123.5t-148 -44.5q-95 0 -154 35l29 107q43 -27 111 -27q38 0 55.5 12.5t17.5 40.5q0 67 -149 84v47l49 93q-88 8 -153 43
t-102.5 90t-56 117.5t-22.5 138.5z" />
    <glyph glyph-name="uni015F" unicode="&#x15f;" horiz-adv-x="772" 
d="M45 303h166q5 -83 49.5 -134.5t126.5 -51.5q77 0 117.5 41.5t40.5 111.5q0 74 -41.5 118t-143.5 83q-162 62 -222 130t-60 179q0 55 17.5 103.5t52.5 89.5t95.5 64.5t139.5 23.5q86 0 149 -27t96 -73t48 -96t16 -107h-164q-7 168 -149 168q-67 0 -101 -37t-34 -98
t36.5 -97.5t139.5 -75.5q161 -61 228 -131.5t67 -199.5q0 -131 -71.5 -209.5t-203.5 -91.5l-34 -64q157 -38 157 -164q0 -79 -55 -123.5t-148 -44.5q-94 0 -153 35l29 107q44 -27 110 -27q74 0 74 53q0 67 -150 84v47l52 97q-133 15 -203.5 99.5t-73.5 217.5z" />
    <glyph glyph-name="Scaron" unicode="&#x160;" horiz-adv-x="894" 
d="M51 371h170q10 -113 64.5 -181.5t158.5 -68.5q211 0 211 227q0 106 -53 173t-192 134q-172 81 -245 169.5t-73 234.5q0 154 95 252t264 98q80 0 142.5 -22t100.5 -57t63.5 -84t36 -97t11.5 -102h-168q-3 24 -6 41.5t-11 46.5t-21.5 49.5t-33 41t-51 31.5t-70.5 11
q-90 0 -135 -54t-45 -139q0 -94 49 -150.5t179 -117.5q185 -89 261 -188t76 -257q0 -171 -99.5 -276.5t-289.5 -105.5q-104 0 -180 31.5t-119 88t-64.5 123t-25.5 148.5zM543 1495h-191l-200 231h176l121 -139l116 139h174z" />
    <glyph glyph-name="scaron" unicode="&#x161;" horiz-adv-x="772" 
d="M45 303h166q5 -83 49.5 -134.5t126.5 -51.5q77 0 117.5 41.5t40.5 111.5q0 74 -41.5 118t-143.5 83q-162 62 -222 130t-60 179q0 55 17.5 103.5t52.5 89.5t95.5 64.5t139.5 23.5q86 0 149 -27t96 -73t48 -96t16 -107h-164q-7 168 -149 168q-67 0 -101 -37t-34 -98
t36.5 -97.5t139.5 -75.5q161 -61 228 -131.5t67 -199.5q0 -145 -87.5 -225t-248.5 -80t-246 87.5t-88 233.5zM479 1186h-180l-182 276h159l113 -176l111 176h159z" />
    <glyph glyph-name="uni0162" unicode="&#x162;" horiz-adv-x="784" 
d="M307 0v1239h-307v152h786v-152h-309v-1239h-20l-43 -78q157 -38 157 -164q0 -79 -54.5 -123.5t-147.5 -44.5q-95 0 -154 35l29 107q44 -27 110 -27q74 0 74 53q0 67 -149 84v47l59 111h-31z" />
    <glyph glyph-name="uni0163" unicode="&#x163;" horiz-adv-x="501" 
d="M-6 901v141h145v275h166v-275h178v-141h-178v-663q0 -57 19.5 -84t74.5 -27q52 0 70 4v-127q-48 -18 -123 -18l-29 -54q158 -38 158 -163q0 -79 -55 -123.5t-148 -44.5q-95 0 -153 34l28 107q43 -27 111 -27q74 0 74 54q0 67 -150 84v47l56 102q-99 42 -99 205v694h-145z
" />
    <glyph glyph-name="Tcaron" unicode="&#x164;" horiz-adv-x="784" 
d="M307 0v1239h-307v152h786v-152h-309v-1239h-170zM487 1495h-190l-201 231h176l121 -139l117 139h174z" />
    <glyph glyph-name="tcaron" unicode="&#x165;" horiz-adv-x="501" 
d="M549 1198h-117l2 406h137zM-6 901v141h145v275h166v-275h178v-141h-178v-663q0 -57 19.5 -84t74.5 -27q52 0 70 4v-127q-48 -18 -127 -18q-103 0 -153 49.5t-50 171.5v694h-145z" />
    <glyph glyph-name="Utilde" unicode="&#x168;" horiz-adv-x="1026" 
d="M123 1391h172v-973q0 -293 219 -293q123 0 171 76t48 217v973h170v-975q0 -99 -19.5 -175.5t-63.5 -137.5t-122 -93.5t-188 -32.5q-107 0 -183.5 30.5t-120.5 89.5t-63.5 135.5t-19.5 177.5v981zM342 1518h-115v41q0 90 40 131t106 41q55 0 145.5 -40t114.5 -40
t36.5 13.5t12.5 49.5v21h115v-31q0 -188 -150 -188q-53 0 -140 39.5t-116 39.5q-49 0 -49 -53v-24z" />
    <glyph glyph-name="utilde" unicode="&#x169;" horiz-adv-x="909" 
d="M791 1042v-753q0 -238 2 -289h-162q-5 37 -8 133q-59 -151 -244 -151q-260 0 -260 311v749h168v-710q0 -101 33 -152t114 -51q90 0 138.5 64t48.5 215v634h170zM305 1210h-117v47q0 166 138 166q44 0 90 -20.5t84 -41t61 -20.5q22 0 32.5 15.5t10.5 56.5v14h115v-38
q0 -98 -37 -139.5t-104 -41.5q-41 0 -85.5 21t-83 42t-63.5 21q-41 0 -41 -59v-23z" />
    <glyph glyph-name="Umacron" unicode="&#x16a;" horiz-adv-x="1026" 
d="M123 1391h172v-973q0 -293 219 -293q123 0 171 76t48 217v973h170v-975q0 -99 -19.5 -175.5t-63.5 -137.5t-122 -93.5t-188 -32.5q-107 0 -183.5 30.5t-120.5 89.5t-63.5 135.5t-19.5 177.5v981zM266 1665h492v-133h-492v133z" />
    <glyph glyph-name="umacron" unicode="&#x16b;" horiz-adv-x="909" 
d="M791 1042v-753q0 -238 2 -289h-162q-5 37 -8 133q-59 -151 -244 -151q-260 0 -260 311v749h168v-710q0 -101 33 -152t114 -51q90 0 138.5 64t48.5 215v634h170zM217 1399h471v-142h-471v142z" />
    <glyph glyph-name="Ubreve" unicode="&#x16c;" horiz-adv-x="1026" 
d="M123 1391h172v-973q0 -293 219 -293q123 0 171 76t48 217v973h170v-975q0 -99 -19.5 -175.5t-63.5 -137.5t-122 -93.5t-188 -32.5q-107 0 -183.5 30.5t-120.5 89.5t-63.5 135.5t-19.5 177.5v981zM240 1718h129q11 -51 48.5 -80.5t94.5 -29.5q121 0 143 110h127
q-14 -104 -82.5 -168.5t-187.5 -64.5q-128 0 -196 66.5t-76 166.5z" />
    <glyph glyph-name="ubreve" unicode="&#x16d;" horiz-adv-x="909" 
d="M791 1042v-753q0 -238 2 -289h-162q-5 37 -8 133q-59 -151 -244 -151q-260 0 -260 311v749h168v-710q0 -101 33 -152t114 -51q90 0 138.5 64t48.5 215v634h170zM195 1440h129q10 -53 42 -85t87 -32q63 0 91.5 32t39.5 85h129q-13 -109 -78 -177.5t-182 -68.5
q-63 0 -112.5 21.5t-79.5 57.5t-46.5 78t-19.5 89z" />
    <glyph glyph-name="Uring" unicode="&#x16e;" horiz-adv-x="1026" 
d="M123 1391h172v-973q0 -293 219 -293q123 0 171 76t48 217v973h170v-975q0 -99 -19.5 -175.5t-63.5 -137.5t-122 -93.5t-188 -32.5q-107 0 -183.5 30.5t-120.5 89.5t-63.5 135.5t-19.5 177.5v981zM512 1462q-85 0 -135.5 50.5t-50.5 125.5q0 77 49.5 129t134.5 52
q87 0 137.5 -50t50.5 -129q0 -78 -51 -128t-135 -50zM512 1546q42 0 65 27t23 65q0 39 -22.5 68t-65.5 29t-66.5 -27.5t-23.5 -65.5q0 -39 23 -67.5t67 -28.5z" />
    <glyph glyph-name="uring" unicode="&#x16f;" horiz-adv-x="909" 
d="M791 1042v-753q0 -238 2 -289h-162q-5 37 -8 133q-59 -151 -244 -151q-260 0 -260 311v749h168v-710q0 -101 33 -152t114 -51q90 0 138.5 64t48.5 215v634h170zM455 1163q-85 0 -136 50.5t-51 125.5q0 77 50 129t135 52q87 0 137.5 -50t50.5 -129q0 -78 -51 -128
t-135 -50zM455 1247q42 0 65 27t23 65q0 39 -22.5 68t-65.5 29t-66.5 -27.5t-23.5 -65.5q0 -39 23 -67.5t67 -28.5z" />
    <glyph glyph-name="Uhungarumlaut" unicode="&#x170;" horiz-adv-x="1026" 
d="M123 1391h172v-973q0 -293 219 -293q123 0 171 76t48 217v973h170v-975q0 -99 -19.5 -175.5t-63.5 -137.5t-122 -93.5t-188 -32.5q-107 0 -183.5 30.5t-120.5 89.5t-63.5 135.5t-19.5 177.5v981zM430 1747h180l-204 -246h-148zM741 1747h177l-203 -246h-148z" />
    <glyph glyph-name="uhungarumlaut" unicode="&#x171;" horiz-adv-x="909" 
d="M791 1042v-753q0 -238 2 -289h-162q-5 37 -8 133q-59 -151 -244 -151q-260 0 -260 311v749h168v-710q0 -101 33 -152t114 -51q90 0 138.5 64t48.5 215v634h170zM336 1178h-137l163 292h173zM647 1178h-135l162 292h172z" />
    <glyph glyph-name="Uogonek" unicode="&#x172;" horiz-adv-x="1026" 
d="M123 1391h172v-973q0 -293 219 -293q123 0 171 76t48 217v973h170v-975q0 -333 -221 -412q-84 -87 -84 -166q0 -42 25 -65t67 -23q47 0 82 14l16 -116q-49 -33 -151 -33q-90 0 -145.5 49.5t-55.5 136.5q0 90 64 176q-203 3 -290 115t-87 318v981z" />
    <glyph glyph-name="uogonek" unicode="&#x173;" horiz-adv-x="909" 
d="M791 1042v-753q0 -238 2 -289h-2q-44 -42 -68.5 -88.5t-24.5 -85.5q0 -42 25.5 -65t67.5 -23q46 0 81 14l17 -117q-47 -32 -152 -32q-90 0 -145 49.5t-55 136.5q0 108 94 213q-5 34 -8 131q-59 -151 -244 -151q-260 0 -260 311v749h168v-710q0 -101 33 -152t114 -51
q90 0 138.5 64t48.5 215v634h170z" />
    <glyph glyph-name="Wcircumflex" unicode="&#x174;" horiz-adv-x="1421" 
d="M479 0h-176l-272 1391h182q164 -905 186 -1153h2q13 91 54.5 300.5t96 473t77.5 379.5h162q12 -60 73 -360.5t99 -498.5t49 -286h4q17 149 106.5 620.5t98.5 524.5h170l-293 -1391h-178q-13 64 -70.5 350.5t-94 478t-50.5 289.5h-3q-10 -66 -29.5 -170.5t-47.5 -242.5
l-49 -241.5t-54 -259.5t-43 -204zM616 1737h185l203 -234h-177l-120 137l-115 -137h-176z" />
    <glyph glyph-name="wcircumflex" unicode="&#x175;" horiz-adv-x="1249" 
d="M29 1042h178q131 -666 150 -797q5 -33 8 -61h4q6 49 20.5 120t30.5 144t56 250.5t77 343.5h160q163 -743 176 -852h2q13 107 166 852h170l-256 -1042h-176q-15 71 -51.5 238.5t-53 244.5t-36 177.5t-27.5 156.5h-2q-5 -44 -16 -104t-31 -149.5t-36 -157t-47.5 -200
t-48.5 -206.5h-180zM532 1460h181l180 -276h-160l-110 176l-111 -176h-158z" />
    <glyph glyph-name="Ycircumflex" unicode="&#x176;" horiz-adv-x="858" 
d="M514 0h-172v522q0 24 -8 37l-352 832h192q25 -66 91.5 -235t108 -277t60.5 -166q21 63 64 174.5t108 275.5t90 228h181l-357 -832q-6 -12 -6 -39v-520zM334 1737h184l203 -234h-176l-121 137l-115 -137h-176z" />
    <glyph glyph-name="ycircumflex" unicode="&#x177;" horiz-adv-x="798" 
d="M16 1042h185q23 -90 59.5 -231t55 -214.5t40.5 -162.5t33 -142.5t14 -86.5h3q19 118 204 837h172l-305 -1093q-21 -77 -42.5 -133t-45.5 -94t-47.5 -62t-54.5 -36.5t-60 -16.5t-69 -4q-48 0 -78 6v147q28 -4 70 -4q74 0 108.5 49.5t65.5 178.5zM307 1460h180l181 -276
h-160l-111 176l-110 -176h-158z" />
    <glyph glyph-name="Ydieresis" unicode="&#x178;" horiz-adv-x="858" 
d="M514 0h-172v522q0 24 -8 37l-352 832h192q25 -66 91.5 -235t108 -277t60.5 -166q21 63 64 174.5t108 275.5t90 228h181l-357 -832q-6 -12 -6 -39v-520zM340 1511h-150v220h150v-220zM664 1511h-150v220h150v-220z" />
    <glyph glyph-name="Zacute" unicode="&#x179;" horiz-adv-x="837" 
d="M31 0v123l581 1116h-536v152h725v-140l-570 -1099h586l-24 -152h-762zM541 1747h209l-271 -244h-170z" />
    <glyph glyph-name="zacute" unicode="&#x17a;" horiz-adv-x="704" 
d="M33 0v123q130 215 448 774h-415v145h606v-129q-275 -484 -443 -770h451l-23 -143h-624zM457 1479h198l-260 -285h-151z" />
    <glyph glyph-name="Zdotaccent" unicode="&#x17b;" horiz-adv-x="837" 
d="M31 0v123l581 1116h-536v152h725v-140l-570 -1099h586l-24 -152h-762zM502 1518h-170v215h170v-215z" />
    <glyph glyph-name="zdotaccent" unicode="&#x17c;" horiz-adv-x="704" 
d="M33 0v123q130 215 448 774h-415v145h606v-129q-275 -484 -443 -770h451l-23 -143h-624zM446 1239h-170v221h170v-221z" />
    <glyph glyph-name="Zcaron" unicode="&#x17d;" horiz-adv-x="837" 
d="M31 0v123l581 1116h-536v152h725v-140l-570 -1099h586l-24 -152h-762zM535 1493h-191l-201 231h176l121 -139l117 139h174z" />
    <glyph glyph-name="zcaron" unicode="&#x17e;" horiz-adv-x="704" 
d="M33 0v123q130 215 448 774h-415v145h606v-129q-275 -484 -443 -770h451l-23 -143h-624zM461 1186h-180l-183 276h160l113 -176l110 176h160z" />
    <glyph glyph-name="uni018F" unicode="&#x18f;" horiz-adv-x="952" 
d="M870 721q0 -142 -11.5 -252.5t-40 -204.5t-74 -155t-115.5 -95t-162 -34q-91 0 -158.5 30t-111.5 84.5t-70.5 140.5t-37.5 188.5t-11 238.5v79h616q0 264 -49 391.5t-178 127.5q-44 0 -79 -13.5t-56.5 -37t-36.5 -47t-22.5 -53t-10 -45t-4.5 -32.5h-174q3 23 6 40.5
t15 60t27.5 74.5t45.5 72.5t67.5 67.5t94.5 45.5t125 18.5q97 0 169 -34.5t116.5 -93t72 -148.5t37.5 -188.5t10 -225.5zM694 598h-440q0 -108 8.5 -185t31.5 -146t68.5 -104.5t114.5 -35.5q40 0 72.5 17t54.5 43.5t38.5 67t25.5 79.5t15 90t8 89t3 85z" />
    <glyph glyph-name="florin" unicode="&#x192;" horiz-adv-x="825" 
d="M801 1384l-31 -137q-44 21 -100 21q-63 0 -92 -55.5t-46 -174.5l-24 -176h188v-131h-207l-79 -551q-14 -97 -32.5 -162.5t-49.5 -120t-79.5 -80.5t-117.5 -26q-107 0 -162 39l33 141q57 -26 109 -26q58 0 83 51.5t44 177.5l84 557h-158v131h176l25 160q9 66 20.5 116
t33.5 105t51.5 90.5t77 58.5t107.5 23q106 0 146 -31z" />
    <glyph glyph-name="Ohorn" unicode="&#x1a0;" horiz-adv-x="999" 
d="M504 1411q150 0 241 -82q68 23 68 111q0 46 -14 100h155q11 -57 11 -102q0 -79 -36 -134.5t-102 -80.5q91 -175 91 -516q0 -368 -99 -547.5t-323 -179.5q-214 0 -314 178.5t-100 546.5q0 706 422 706zM500 1262q-242 0 -242 -553q0 -584 242 -584q128 0 184.5 142
t56.5 440q0 291 -57.5 423t-183.5 132z" />
    <glyph glyph-name="ohorn" unicode="&#x1a1;" horiz-adv-x="870" 
d="M442 1061q115 0 191 -55q67 23 67 110q0 47 -14 101h156q10 -52 10 -103q0 -157 -127 -211q76 -136 76 -371q0 -550 -367 -550q-184 0 -274 134.5t-90 411.5q0 267 97.5 400t274.5 133zM436 915q-97 0 -145.5 -94t-48.5 -293q0 -403 194 -403q193 0 193 403
q0 387 -193 387z" />
    <glyph glyph-name="Uhorn" unicode="&#x1af;" horiz-adv-x="1026" 
d="M123 1391h172v-973q0 -293 219 -293q123 0 171 76t48 217v973h72q43 9 64.5 39.5t21.5 76.5q0 47 -14 101h155q10 -52 10 -103q0 -80 -36 -135t-103 -80v-874q0 -99 -19.5 -175.5t-63.5 -137.5t-122 -93.5t-188 -32.5q-107 0 -183.5 30.5t-120.5 89.5t-63.5 135.5
t-19.5 177.5v981z" />
    <glyph glyph-name="uhorn" unicode="&#x1b0;" horiz-adv-x="909" 
d="M623 133q-59 -151 -244 -151q-260 0 -260 311v749h168v-710q0 -101 33 -152t114 -51q90 0 138.5 64t48.5 215v634h63q96 14 96 119q0 47 -14 101h156q10 -52 10 -103q0 -165 -141 -217v-653q0 -238 2 -289h-162q-5 37 -8 133z" />
    <glyph glyph-name="uni01CD" unicode="&#x1cd;" horiz-adv-x="933" 
d="M637 424h-352l-97 -424h-170l334 1391h221l342 -1391h-182zM317 575h287q-123 528 -145 654h-4q-6 -43 -21.5 -118t-29.5 -140.5t-42.5 -194t-44.5 -201.5zM559 1479h-190l-201 231h176l121 -139l117 139h174z" />
    <glyph glyph-name="uni01CE" unicode="&#x1ce;" horiz-adv-x="862" 
d="M741 768v-575q0 -114 9 -193h-154q-10 38 -10 115q-63 -133 -244 -133q-72 0 -127 26.5t-86 71t-46 96.5t-15 109q0 152 103.5 244t299.5 92q68 0 104 -5v136q0 34 -4.5 60t-18.5 54.5t-45.5 44t-78.5 15.5q-41 0 -71 -12t-45.5 -27.5t-25.5 -42.5t-13 -44.5t-5 -45.5
h-159q2 62 18 113t51 96.5t100 71.5t156 26q307 0 307 -293zM580 434v53q-31 5 -99 5q-126 0 -185.5 -53t-59.5 -142q0 -73 38.5 -123.5t114.5 -50.5q105 0 148 75t43 236zM524 1186h-180l-182 276h160l112 -176l111 176h160z" />
    <glyph glyph-name="uni01CF" unicode="&#x1cf;" horiz-adv-x="442" 
d="M135 1391h170v-1391h-170v1391zM317 1495h-190l-201 231h176l121 -139l117 139h174z" />
    <glyph glyph-name="uni01D0" unicode="&#x1d0;" horiz-adv-x="409" 
d="M121 0v1042h168v-1042h-168zM295 1186h-180l-183 276h160l113 -176l110 176h160z" />
    <glyph glyph-name="uni01D1" unicode="&#x1d1;" horiz-adv-x="999" 
d="M504 1411q216 0 315 -172.5t99 -531.5q0 -368 -99 -547.5t-323 -179.5q-214 0 -314 178.5t-100 546.5q0 706 422 706zM500 1262q-242 0 -242 -553q0 -584 242 -584q128 0 184.5 142t56.5 440q0 291 -57.5 423t-183.5 132zM596 1495h-190l-201 231h176l121 -139l116 139
h175z" />
    <glyph glyph-name="uni01D2" unicode="&#x1d2;" horiz-adv-x="870" 
d="M442 1061q174 0 266.5 -134t92.5 -395q0 -550 -367 -550q-184 0 -274 134.5t-90 411.5q0 267 97.5 400t274.5 133zM436 915q-97 0 -145.5 -94t-48.5 -293q0 -403 194 -403q193 0 193 403q0 387 -193 387zM524 1186h-180l-182 276h160l112 -176l111 176h160z" />
    <glyph glyph-name="uni01D3" unicode="&#x1d3;" horiz-adv-x="1026" 
d="M123 1391h172v-973q0 -293 219 -293q123 0 171 76t48 217v973h170v-975q0 -99 -19.5 -175.5t-63.5 -137.5t-122 -93.5t-188 -32.5q-107 0 -183.5 30.5t-120.5 89.5t-63.5 135.5t-19.5 177.5v981zM608 1495h-190l-201 231h176l121 -139l117 139h174z" />
    <glyph glyph-name="uni01D4" unicode="&#x1d4;" horiz-adv-x="909" 
d="M791 1042v-753q0 -238 2 -289h-162q-5 37 -8 133q-59 -151 -244 -151q-260 0 -260 311v749h168v-710q0 -101 33 -152t114 -51q90 0 138.5 64t48.5 215v634h170zM545 1186h-180l-183 276h160l113 -176l110 176h160z" />
    <glyph glyph-name="uni01D5" unicode="&#x1d5;" horiz-adv-x="1026" 
d="M123 1391h172v-973q0 -293 219 -293q123 0 171 76t48 217v973h170v-975q0 -99 -19.5 -175.5t-63.5 -137.5t-122 -93.5t-188 -32.5q-107 0 -183.5 30.5t-120.5 89.5t-63.5 135.5t-19.5 177.5v981zM414 1487h-144v166h144v-166zM741 1743h-458v119h458v-119zM754 1487h-144
v166h144v-166z" />
    <glyph glyph-name="uni01D6" unicode="&#x1d6;" horiz-adv-x="909" 
d="M791 1042v-753q0 -238 2 -289h-162q-5 37 -8 133q-59 -151 -244 -151q-260 0 -260 311v749h168v-710q0 -101 33 -152t114 -51q90 0 138.5 64t48.5 215v634h170zM360 1169h-145v166h145v-166zM688 1440h-469v123h469v-123zM692 1169h-147v166h147v-166z" />
    <glyph glyph-name="uni01D7" unicode="&#x1d7;" horiz-adv-x="1026" 
d="M123 1391h172v-973q0 -293 219 -293q123 0 171 76t48 217v973h170v-975q0 -99 -19.5 -175.5t-63.5 -137.5t-122 -93.5t-188 -32.5q-107 0 -183.5 30.5t-120.5 89.5t-63.5 135.5t-19.5 177.5v981zM272 1655h148v-170h-148v170zM418 1714l166 201h217l-221 -201h-162z
M752 1485h-148v170h148v-170z" />
    <glyph glyph-name="uni01D8" unicode="&#x1d8;" horiz-adv-x="909" 
d="M791 1042v-753q0 -238 2 -289h-162q-5 37 -8 133q-59 -151 -244 -151q-260 0 -260 311v749h168v-710q0 -101 33 -152t114 -51q90 0 138.5 64t48.5 215v634h170zM215 1333h147v-168h-147v168zM516 1405h-160l160 211h209zM692 1165h-147v168h147v-168z" />
    <glyph glyph-name="uni01D9" unicode="&#x1d9;" horiz-adv-x="1026" 
d="M123 1391h172v-973q0 -293 219 -293q123 0 171 76t48 217v973h170v-975q0 -99 -19.5 -175.5t-63.5 -137.5t-122 -93.5t-188 -32.5q-107 0 -183.5 30.5t-120.5 89.5t-63.5 135.5t-19.5 177.5v981zM590 1716h-162l-190 195h159l113 -115l111 115h157zM420 1485h-148v170
h148v-170zM752 1485h-148v170h148v-170z" />
    <glyph glyph-name="uni01DA" unicode="&#x1da;" horiz-adv-x="909" 
d="M791 1042v-753q0 -238 2 -289h-162q-5 37 -8 133q-59 -151 -244 -151q-260 0 -260 311v749h168v-710q0 -101 33 -152t114 -51q90 0 138.5 64t48.5 215v634h170zM532 1393h-159l-191 209h158l115 -127l110 127h158zM360 1161h-147v170h147v-170zM694 1161h-147v170h147
v-170z" />
    <glyph glyph-name="uni01DB" unicode="&#x1db;" horiz-adv-x="1026" 
d="M123 1391h172v-973q0 -293 219 -293q123 0 171 76t48 217v973h170v-975q0 -99 -19.5 -175.5t-63.5 -137.5t-122 -93.5t-188 -32.5q-107 0 -183.5 30.5t-120.5 89.5t-63.5 135.5t-19.5 177.5v981zM272 1655h148v-170h-148v170zM604 1714h-164l-221 201h217zM752 1485h-148
v170h148v-170z" />
    <glyph glyph-name="uni01DC" unicode="&#x1dc;" horiz-adv-x="909" 
d="M791 1042v-753q0 -238 2 -289h-162q-5 37 -8 133q-59 -151 -244 -151q-260 0 -260 311v749h168v-710q0 -101 33 -152t114 -51q90 0 138.5 64t48.5 215v634h170zM215 1333h147v-168h-147v168zM178 1616h211l158 -211h-160zM692 1165h-147v168h147v-168z" />
    <glyph glyph-name="Gcaron" unicode="&#x1e6;" horiz-adv-x="991" 
d="M887 766v-766h-133q-11 72 -11 143q-40 -80 -104 -121.5t-174 -41.5q-88 0 -154.5 35t-109.5 96t-70 152.5t-38 195t-11 233.5q0 719 438 719q70 0 127.5 -17.5t94.5 -43.5t65 -65t42 -72t23 -74.5t11.5 -64t3.5 -48.5h-170q-19 236 -203 236q-254 0 -254 -568
q0 -136 11 -235t37.5 -177t74 -117.5t117.5 -39.5q126 0 172.5 101.5t46.5 320.5v69h-232v150h400zM602 1495h-190l-201 231h176l121 -139l117 139h174z" />
    <glyph glyph-name="gcaron" unicode="&#x1e7;" horiz-adv-x="911" 
d="M788 739v-669q0 -89 -9.5 -156.5t-34.5 -128t-66 -99t-107 -61t-155 -22.5q-79 0 -140 19.5t-97 48.5t-59.5 69.5t-32.5 76t-11 74.5h170q2 -23 10 -45t25.5 -47t54 -40t86.5 -15q117 0 159 79.5t42 246.5v86q-58 -152 -240 -152q-158 0 -236.5 129t-78.5 377
q0 271 91 411t247 140q96 0 148.5 -38t68.5 -93q0 66 8 112h160q-3 -83 -3 -303zM242 512q0 -362 188 -362q109 0 152 98.5t43 292.5q0 75 -4 129t-16 102t-32 77.5t-53 46.5t-78 17q-98 0 -149 -101.5t-51 -299.5zM545 1186h-180l-183 276h160l113 -176l110 176h160z" />
    <glyph glyph-name="uni0218" unicode="&#x218;" horiz-adv-x="894" 
d="M51 371h170q10 -113 64.5 -181.5t158.5 -68.5q211 0 211 227q0 106 -53 173t-192 134q-172 81 -245 169.5t-73 234.5q0 154 95 252t264 98q80 0 142.5 -22t100.5 -57t63.5 -84t36 -97t11.5 -102h-168q-3 24 -6 41.5t-11 46.5t-21.5 49.5t-33 41t-51 31.5t-70.5 11
q-90 0 -135 -54t-45 -139q0 -94 49 -150.5t179 -117.5q185 -89 261 -188t76 -257q0 -171 -99.5 -276.5t-289.5 -105.5q-104 0 -180 31.5t-119 88t-64.5 123t-25.5 148.5zM453 -453h-150q62 153 76 344h168q-7 -100 -33 -193.5t-61 -150.5z" />
    <glyph glyph-name="uni0219" unicode="&#x219;" horiz-adv-x="772" 
d="M45 303h166q5 -83 49.5 -134.5t126.5 -51.5q77 0 117.5 41.5t40.5 111.5q0 74 -41.5 118t-143.5 83q-162 62 -222 130t-60 179q0 55 17.5 103.5t52.5 89.5t95.5 64.5t139.5 23.5q86 0 149 -27t96 -73t48 -96t16 -107h-164q-7 168 -149 168q-67 0 -101 -37t-34 -98
t36.5 -97.5t139.5 -75.5q161 -61 228 -131.5t67 -199.5q0 -145 -87.5 -225t-248.5 -80t-246 87.5t-88 233.5zM383 -453h-150q62 153 76 344h168q-7 -100 -33 -193.5t-61 -150.5z" />
    <glyph glyph-name="uni021A" unicode="&#x21a;" horiz-adv-x="784" 
d="M307 0v1239h-307v152h786v-152h-309v-1239h-170zM381 -453h-150q62 153 76 344h168q-7 -100 -33 -193.5t-61 -150.5z" />
    <glyph glyph-name="uni021B" unicode="&#x21b;" horiz-adv-x="501" 
d="M-6 901v141h145v275h166v-275h178v-141h-178v-663q0 -57 19.5 -84t74.5 -27q52 0 70 4v-127q-48 -18 -127 -18q-103 0 -153 49.5t-50 171.5v694h-145zM279 -453h-150q62 153 76 344h168q-7 -100 -33 -193.5t-61 -150.5z" />
    <glyph glyph-name="uni0237" unicode="&#x237;" horiz-adv-x="413" 
d="M123 1042h168v-1097q0 -66 -4 -111.5t-18.5 -92.5t-39.5 -75t-68.5 -45.5t-105.5 -17.5q-30 0 -71 6v147q20 -2 49 -2q56 0 73 34t17 122v1132z" />
    <glyph glyph-name="uni0251" unicode="&#x251;" horiz-adv-x="905" 
d="M621 1042h165v-770q0 -180 9 -272h-162q-12 40 -12 135q-29 -73 -84.5 -113t-157.5 -40q-309 0 -309 553q0 244 88 385t254 141q162 0 206 -131q0 6 1.5 57t1.5 55zM242 532q0 -210 46 -306.5t140 -96.5q110 0 152.5 98.5t42.5 309.5q0 196 -41.5 286t-143.5 90
q-196 0 -196 -381z" />
    <glyph glyph-name="uni0259" unicode="&#x259;" horiz-adv-x="845" 
d="M70 555h538q0 62 -4.5 111.5t-16.5 98.5t-32.5 81.5t-55.5 53t-81 20.5q-44 0 -78 -16t-51.5 -36.5t-30 -50t-15.5 -44.5t-5 -32h-164q31 225 199 294q65 26 147 26q76 0 135 -21.5t97 -62t63.5 -89t38 -113.5t17.5 -124t5 -131q0 -255 -90.5 -396.5t-273.5 -141.5
q-81 0 -143 26t-100 70t-61.5 108.5t-32.5 132.5t-9 152q0 38 4 84zM604 426h-371q0 -66 8 -117t27 -94.5t56 -66.5t90 -23q182 0 190 301z" />
    <glyph glyph-name="uni0261" unicode="&#x261;" horiz-adv-x="911" 
d="M788 739v-669q0 -89 -9.5 -156.5t-34.5 -128t-66 -99t-107 -61t-155 -22.5q-79 0 -140 19.5t-97 48.5t-59.5 69.5t-32.5 76t-11 74.5h170q2 -23 10 -45t25.5 -47t54 -40t86.5 -15q117 0 159 79.5t42 246.5v86q-58 -152 -240 -152q-158 0 -236.5 129t-78.5 377
q0 271 91 411t247 140q96 0 148.5 -38t68.5 -93q0 66 8 112h160q-3 -83 -3 -303zM242 512q0 -362 188 -362q109 0 152 98.5t43 292.5q0 75 -4 129t-16 102t-32 77.5t-53 46.5t-78 17q-98 0 -149 -101.5t-51 -299.5z" />
    <glyph glyph-name="uni02BB" unicode="&#x2bb;" horiz-adv-x="643" 
d="M305 1462h133q-71 -260 -71 -479h-162q1 123 32.5 263.5t67.5 215.5z" />
    <glyph glyph-name="uni02BC" unicode="&#x2bc;" horiz-adv-x="643" 
d="M338 983h-133q71 260 71 479h162q-1 -123 -32.5 -263.5t-67.5 -215.5z" />
    <glyph glyph-name="uni02BE" unicode="&#x2be;" horiz-adv-x="618" 
d="M205 1251q90 7 90 80q0 35 -25 55t-65 23v102q93 0 151 -48.5t58 -129.5q0 -84 -58.5 -134t-150.5 -50v102z" />
    <glyph glyph-name="uni02BF" unicode="&#x2bf;" horiz-adv-x="618" 
d="M414 1253v-104q-92 0 -150.5 49.5t-58.5 130.5q0 83 58.5 132.5t150.5 49.5v-100q-90 -7 -90 -82q0 -34 25 -53.5t65 -22.5z" />
    <glyph glyph-name="circumflex" unicode="&#x2c6;" 
d="M317 1460h181l180 -276h-160l-110 176l-111 -176h-158z" />
    <glyph glyph-name="caron" unicode="&#x2c7;" 
d="M500 1186h-181l-182 276h160l113 -176l110 176h160z" />
    <glyph glyph-name="uni02C8" unicode="&#x2c8;" horiz-adv-x="563" 
d="M358 1200h-153v336h153v-336z" />
    <glyph glyph-name="uni02C9" unicode="&#x2c9;" horiz-adv-x="880" 
d="M205 1399h471v-142h-471v142z" />
    <glyph glyph-name="uni02CA" unicode="&#x2ca;" horiz-adv-x="798" 
d="M424 1479h199l-261 -285h-151z" />
    <glyph glyph-name="uni02CB" unicode="&#x2cb;" horiz-adv-x="800" 
d="M176 1477h201l215 -283h-156z" />
    <glyph glyph-name="uni02CC" unicode="&#x2cc;" horiz-adv-x="563" 
d="M358 -438h-153v336h153v-336z" />
    <glyph glyph-name="breve" unicode="&#x2d8;" 
d="M150 1440h129q10 -53 41.5 -85t87.5 -32q63 0 91.5 32t39.5 85h129q-13 -109 -78 -177.5t-182 -68.5q-63 0 -112.5 21.5t-79.5 57.5t-46.5 78t-19.5 89z" />
    <glyph glyph-name="dotaccent" unicode="&#x2d9;" 
d="M494 1239h-170v221h170v-221z" />
    <glyph glyph-name="ring" unicode="&#x2da;" 
d="M410 1163q-85 0 -136 50.5t-51 125.5q0 77 50 129t135 52q87 0 137.5 -50t50.5 -129q0 -78 -51 -128t-135 -50zM410 1247q42 0 65 27t23 65q0 39 -22.5 68t-65.5 29t-67 -27.5t-24 -65.5q0 -39 23.5 -67.5t67.5 -28.5z" />
    <glyph glyph-name="ogonek" unicode="&#x2db;" 
d="M401 51l105 -51q-44 -42 -68 -88.5t-24 -85.5q0 -42 25 -65t67 -23q47 0 82 14l16 -117q-47 -32 -151 -32q-90 0 -145.5 49.5t-55.5 136.5q0 68 39.5 138t109.5 124z" />
    <glyph glyph-name="tilde" unicode="&#x2dc;" 
d="M260 1210h-117v47q0 166 138 166q44 0 90 -20.5t84 -41t61 -20.5q22 0 32.5 15.5t10.5 56.5v14h115v-38q0 -181 -142 -181q-41 0 -85.5 21t-82.5 42t-63 21q-41 0 -41 -59v-23z" />
    <glyph glyph-name="hungarumlaut" unicode="&#x2dd;" 
d="M291 1178h-137l163 292h172zM602 1178h-135l162 292h172z" />
    <glyph glyph-name="uni0300" unicode="&#x300;" horiz-adv-x="0" 
d="M-225 1477h200l215 -283h-155z" />
    <glyph glyph-name="uni0301" unicode="&#x301;" horiz-adv-x="0" 
d="M25 1479h198l-260 -285h-151z" />
    <glyph glyph-name="uni0302" unicode="&#x302;" horiz-adv-x="0" 
d="M-92 1460h180l180 -276h-159l-111 176l-111 -176h-157z" />
    <glyph glyph-name="uni0303" unicode="&#x303;" horiz-adv-x="0" 
d="M-150 1210h-116v47q0 166 137 166q44 0 90 -20.5t84 -41t61 -20.5q22 0 33 16t11 56v14h114v-38q0 -98 -37 -139.5t-104 -41.5q-41 0 -85.5 21t-83 42t-63.5 21q-41 0 -41 -59v-23z" />
    <glyph glyph-name="uni0304" unicode="&#x304;" horiz-adv-x="0" 
d="M-238 1399h471v-142h-471v142z" />
    <glyph glyph-name="uni0306" unicode="&#x306;" horiz-adv-x="0" 
d="M-260 1440h129q10 -53 41.5 -85t87.5 -32q63 0 91.5 32t39.5 85h129q-13 -109 -78 -177.5t-182 -68.5q-63 0 -112.5 21.5t-79.5 57.5t-46.5 78t-19.5 89z" />
    <glyph glyph-name="uni0307" unicode="&#x307;" horiz-adv-x="0" 
d="M84 1239h-170v221h170v-221z" />
    <glyph glyph-name="uni0308" unicode="&#x308;" horiz-adv-x="0" 
d="M-80 1237h-143v221h143v-221zM223 1237h-145v221h145v-221z" />
    <glyph glyph-name="uni0309" unicode="&#x309;" horiz-adv-x="0" 
d="M72 1182h-152q59 54 81 85.5t22 67.5q0 26 -19.5 44t-54.5 18q-54 0 -107 -33l-39 100q78 58 187 58q86 0 134 -45t48 -111q0 -57 -27.5 -100t-72.5 -84z" />
    <glyph glyph-name="uni030A" unicode="&#x30a;" horiz-adv-x="0" 
d="M0 1163q-85 0 -135.5 50.5t-50.5 125.5q0 77 49.5 129t134.5 52q87 0 137.5 -50t50.5 -129q0 -78 -51 -128t-135 -50zM0 1247q42 0 65 27t23 65q0 39 -22.5 68t-65.5 29t-66.5 -27.5t-23.5 -65.5q0 -39 23 -67.5t67 -28.5z" />
    <glyph glyph-name="uni030B" unicode="&#x30b;" horiz-adv-x="0" 
d="M-180 1178h-137l163 292h172zM131 1178h-135l162 292h172z" />
    <glyph glyph-name="uni030C" unicode="&#x30c;" horiz-adv-x="0" 
d="M90 1186h-180l-182 276h159l113 -176l111 176h159z" />
    <glyph glyph-name="uni031B" unicode="&#x31b;" horiz-adv-x="0" 
d="M-66 954l-55 113q96 14 96 119q0 46 -14 100h156q10 -52 10 -102q0 -95 -50.5 -155t-142.5 -75z" />
    <glyph glyph-name="uni0323" unicode="&#x323;" horiz-adv-x="0" 
d="M84 -344h-172v203h172v-203z" />
    <glyph glyph-name="uni0324" unicode="&#x324;" horiz-adv-x="0" 
d="M-80 -358h-143v221h143v-221zM223 -358h-145v221h145v-221z" />
    <glyph glyph-name="uni0326" unicode="&#x326;" horiz-adv-x="0" 
d="M16 -453h-149q62 153 76 344h168q-7 -99 -33.5 -193t-61.5 -151z" />
    <glyph glyph-name="uni0327" unicode="&#x327;" horiz-adv-x="0" 
d="M-49 4h119l-45 -82q157 -38 157 -164q0 -79 -54.5 -123.5t-147.5 -44.5q-95 0 -154 35l29 107q43 -27 110 -27q74 0 74 53q0 67 -150 84v47z" />
    <glyph glyph-name="uni0328" unicode="&#x328;" horiz-adv-x="0" 
d="M-29 51l105 -51q-44 -42 -68 -88.5t-24 -85.5q0 -42 25 -65t67 -23q47 0 82 14l16 -117q-47 -32 -151 -32q-90 0 -145.5 49.5t-55.5 136.5q0 68 39.5 138t109.5 124z" />
    <glyph glyph-name="uni032E" unicode="&#x32e;" horiz-adv-x="0" 
d="M-260 -115h129q10 -53 41.5 -84.5t87.5 -31.5q63 0 91.5 31.5t39.5 84.5h129q-13 -109 -78 -177t-182 -68q-121 0 -186 72.5t-72 172.5z" />
    <glyph glyph-name="uni0331" unicode="&#x331;" horiz-adv-x="0" 
d="M-238 -168h471v-141h-471v141z" />
    <glyph glyph-name="pi" unicode="&#x3c0;" horiz-adv-x="919" 
d="M598 0v897h-283v-897h-168v897q-92 0 -133 -4v143q39 6 297 6h580l-4 -147h-121v-895h-168z" />
    <glyph glyph-name="uni1E0C" unicode="&#x1e0c;" horiz-adv-x="1007" 
d="M135 0v1391h320q242 0 355.5 -165t113.5 -497q0 -366 -115 -547.5t-377 -181.5h-297zM307 1243v-1100h119q178 0 250 140t72 442q0 273 -74 395.5t-246 122.5h-121zM545 -344h-172v203h172v-203z" />
    <glyph glyph-name="uni1E0D" unicode="&#x1e0d;" horiz-adv-x="905" 
d="M618 1458h168v-1186q0 -211 2 -272h-161q-6 40 -6 135q-57 -153 -244 -153q-160 0 -233.5 136t-73.5 414q0 250 88.5 389.5t253.5 139.5q157 0 206 -105v502zM242 530q0 -213 45.5 -307t140.5 -94q111 0 153 95.5t42 312.5q0 149 -16.5 228t-55.5 113.5t-113 34.5
q-196 0 -196 -383zM537 -344h-172v203h172v-203z" />
    <glyph glyph-name="uni1E0E" unicode="&#x1e0e;" horiz-adv-x="1007" 
d="M135 0v1391h320q242 0 355.5 -165t113.5 -497q0 -366 -115 -547.5t-377 -181.5h-297zM307 1243v-1100h119q178 0 250 140t72 442q0 273 -74 395.5t-246 122.5h-121zM233 -168h472v-141h-472v141z" />
    <glyph glyph-name="uni1E0F" unicode="&#x1e0f;" horiz-adv-x="905" 
d="M618 1458h168v-1186q0 -211 2 -272h-161q-6 40 -6 135q-57 -153 -244 -153q-160 0 -233.5 136t-73.5 414q0 250 88.5 389.5t253.5 139.5q157 0 206 -105v502zM242 530q0 -213 45.5 -307t140.5 -94q111 0 153 95.5t42 312.5q0 149 -16.5 228t-55.5 113.5t-113 34.5
q-196 0 -196 -383zM215 -168h471v-141h-471v141z" />
    <glyph glyph-name="uni1E20" unicode="&#x1e20;" horiz-adv-x="991" 
d="M887 766v-766h-133q-11 72 -11 143q-40 -80 -104 -121.5t-174 -41.5q-88 0 -154.5 35t-109.5 96t-70 152.5t-38 195t-11 233.5q0 719 438 719q70 0 127.5 -17.5t94.5 -43.5t65 -65t42 -72t23 -74.5t11.5 -64t3.5 -48.5h-170q-19 236 -203 236q-254 0 -254 -568
q0 -136 11 -235t37.5 -177t74 -117.5t117.5 -39.5q126 0 172.5 101.5t46.5 320.5v69h-232v150h400zM260 1665h492v-133h-492v133z" />
    <glyph glyph-name="uni1E21" unicode="&#x1e21;" horiz-adv-x="911" 
d="M788 739v-669q0 -89 -9.5 -156.5t-34.5 -128t-66 -99t-107 -61t-155 -22.5q-79 0 -140 19.5t-97 48.5t-59.5 69.5t-32.5 76t-11 74.5h170q2 -23 10 -45t25.5 -47t54 -40t86.5 -15q117 0 159 79.5t42 246.5v86q-58 -152 -240 -152q-158 0 -236.5 129t-78.5 377
q0 271 91 411t247 140q96 0 148.5 -38t68.5 -93q0 66 8 112h160q-3 -83 -3 -303zM242 512q0 -362 188 -362q109 0 152 98.5t43 292.5q0 75 -4 129t-16 102t-32 77.5t-53 46.5t-78 17q-98 0 -149 -101.5t-51 -299.5zM217 1399h471v-142h-471v142z" />
    <glyph glyph-name="uni1E24" unicode="&#x1e24;" horiz-adv-x="1040" 
d="M135 0v1391h170v-580h430v580h170v-1391h-170v659h-430v-659h-170zM604 -344h-172v203h172v-203z" />
    <glyph glyph-name="uni1E25" unicode="&#x1e25;" horiz-adv-x="917" 
d="M121 1458h170v-536q64 139 246 139q123 0 192.5 -79.5t69.5 -240.5v-741h-168v707q0 100 -35.5 153t-122.5 53q-97 0 -139.5 -73t-42.5 -211v-629h-170v1458zM543 -344h-172v203h172v-203z" />
    <glyph glyph-name="uni1E2A" unicode="&#x1e2a;" horiz-adv-x="1040" 
d="M135 0v1391h170v-580h430v580h170v-1391h-170v659h-430v-659h-170zM260 -115h129q10 -53 41.5 -84.5t87.5 -31.5q63 0 91.5 31.5t39.5 84.5h129q-13 -109 -78 -177t-182 -68q-121 0 -186 72.5t-72 172.5z" />
    <glyph glyph-name="uni1E2B" unicode="&#x1e2b;" horiz-adv-x="917" 
d="M121 1458h170v-536q64 139 246 139q123 0 192.5 -79.5t69.5 -240.5v-741h-168v707q0 100 -35.5 153t-122.5 53q-97 0 -139.5 -73t-42.5 -211v-629h-170v1458zM199 -115h129q10 -53 41.5 -84.5t87.5 -31.5q63 0 91.5 31.5t39.5 84.5h129q-13 -109 -78 -177t-182 -68
q-121 0 -186 72.5t-72 172.5z" />
    <glyph glyph-name="uni1E36" unicode="&#x1e36;" horiz-adv-x="794" 
d="M135 0v1391h170v-1241h494l-23 -150h-641zM553 -334h-172v203h172v-203z" />
    <glyph glyph-name="uni1E37" unicode="&#x1e37;" horiz-adv-x="407" 
d="M289 0h-168v1458h168v-1458zM289 -344h-172v203h172v-203z" />
    <glyph glyph-name="uni1E38" unicode="&#x1e38;" horiz-adv-x="794" 
d="M135 0v1391h170v-1241h494l-23 -150h-641zM565 -344h-172v203h172v-203zM-23 1659h492v-133h-492v133z" />
    <glyph glyph-name="uni1E39" unicode="&#x1e39;" horiz-adv-x="407" 
d="M289 0h-168v1458h168v-1458zM-33 1696h471v-142h-471v142zM289 -344h-172v203h172v-203z" />
    <glyph glyph-name="uni1E3A" unicode="&#x1e3a;" horiz-adv-x="794" 
d="M135 0v1391h170v-1241h494l-23 -150h-641zM227 -158h471v-141h-471v141z" />
    <glyph glyph-name="uni1E3B" unicode="&#x1e3b;" horiz-adv-x="407" 
d="M289 0h-168v1458h168v-1458zM-33 -168h471v-141h-471v141z" />
    <glyph glyph-name="uni1E42" unicode="&#x1e42;" horiz-adv-x="1271" 
d="M971 0v578q0 371 8 665h-2q-164 -786 -277 -1243h-159q-203 988 -252 1247h-6q14 -283 14 -704v-543h-160v1391h254q70 -289 138.5 -616.5t99.5 -500.5h2q20 120 99.5 465.5t156.5 651.5h252v-1391h-168zM707 -334h-172v203h172v-203z" />
    <glyph glyph-name="uni1E43" unicode="&#x1e43;" horiz-adv-x="1361" 
d="M121 0v729q0 264 -2 313h162q6 -44 6 -127q68 146 231 146q169 0 215 -154q33 68 95.5 111t158.5 43q254 0 254 -305v-756h-166v727q0 186 -139 186q-90 0 -130 -67.5t-40 -179.5v-666h-166v723q0 94 -33.5 141t-105.5 47q-86 0 -129 -69t-43 -189v-653h-168zM766 -344
h-172v203h172v-203z" />
    <glyph glyph-name="uni1E44" unicode="&#x1e44;" horiz-adv-x="1060" 
d="M293 0h-158v1391h205q420 -1059 438 -1123h2q-12 221 -12 619v504h158v-1391h-197q-430 1107 -446 1161h-2q12 -206 12 -645v-516zM612 1507h-170v215h170v-215z" />
    <glyph glyph-name="uni1E45" unicode="&#x1e45;" horiz-adv-x="917" 
d="M121 0v719q0 128 -1 223.5t-1 99.5h162q6 -75 6 -131q65 150 243 150q123 0 196 -78t73 -240v-743h-170v709q0 99 -35 151.5t-117 52.5q-99 0 -143.5 -67.5t-44.5 -220.5v-625h-168zM543 1239h-170v221h170v-221z" />
    <glyph glyph-name="uni1E46" unicode="&#x1e46;" horiz-adv-x="1060" 
d="M293 0h-158v1391h205q420 -1059 438 -1123h2q-12 221 -12 619v504h158v-1391h-197q-430 1107 -446 1161h-2q12 -206 12 -645v-516zM612 -334h-172v203h172v-203z" />
    <glyph glyph-name="uni1E47" unicode="&#x1e47;" horiz-adv-x="917" 
d="M121 0v719q0 128 -1 223.5t-1 99.5h162q6 -75 6 -131q65 150 243 150q123 0 196 -78t73 -240v-743h-170v709q0 99 -35 151.5t-117 52.5q-99 0 -143.5 -67.5t-44.5 -220.5v-625h-168zM543 -344h-172v203h172v-203z" />
    <glyph glyph-name="uni1E48" unicode="&#x1e48;" horiz-adv-x="1060" 
d="M293 0h-158v1391h205q420 -1059 438 -1123h2q-12 221 -12 619v504h158v-1391h-197q-430 1107 -446 1161h-2q12 -206 12 -645v-516zM291 -168h471v-141h-471v141z" />
    <glyph glyph-name="uni1E49" unicode="&#x1e49;" horiz-adv-x="917" 
d="M121 0v719q0 128 -1 223.5t-1 99.5h162q6 -75 6 -131q65 150 243 150q123 0 196 -78t73 -240v-743h-170v709q0 99 -35 151.5t-117 52.5q-99 0 -143.5 -67.5t-44.5 -220.5v-625h-168zM221 -168h471v-141h-471v141z" />
    <glyph glyph-name="uni1E5A" unicode="&#x1e5a;" horiz-adv-x="954" 
d="M461 631h-156v-631h-170v1391h375q176 0 269 -95t93 -268q0 -74 -16.5 -133t-45 -96t-58.5 -59.5t-64 -34.5q91 -34 128.5 -118.5t37.5 -236.5v-55q0 -186 20 -295h-169q-21 74 -21 299v47q0 155 -46 220t-177 65zM305 1247v-473h166q121 0 174 62.5t53 185.5
q0 106 -51.5 165.5t-159.5 59.5h-182zM582 -324h-172v203h172v-203z" />
    <glyph glyph-name="uni1E5B" unicode="&#x1e5b;" horiz-adv-x="579" 
d="M121 0v688q0 280 -2 354h160q6 -75 6 -182q32 93 103.5 145.5t170.5 53.5v-187q-270 -6 -270 -297v-575h-168zM289 -344h-172v203h172v-203z" />
    <glyph glyph-name="uni1E5C" unicode="&#x1e5c;" horiz-adv-x="954" 
d="M461 631h-156v-631h-170v1391h375q176 0 269 -95t93 -268q0 -74 -16.5 -133t-45 -96t-58.5 -59.5t-64 -34.5q91 -34 128.5 -118.5t37.5 -236.5v-55q0 -186 20 -295h-169q-21 74 -21 299v47q0 155 -46 220t-177 65zM305 1247v-473h166q121 0 174 62.5t53 185.5
q0 106 -51.5 165.5t-159.5 59.5h-182zM582 -324h-172v203h172v-203zM231 1665h492v-133h-492v133z" />
    <glyph glyph-name="uni1E5D" unicode="&#x1e5d;" horiz-adv-x="579" 
d="M121 0v688q0 280 -2 354h160q6 -75 6 -182q32 93 103.5 145.5t170.5 53.5v-187q-270 -6 -270 -297v-575h-168zM94 1399h471v-142h-471v142zM289 -344h-172v203h172v-203z" />
    <glyph glyph-name="uni1E5E" unicode="&#x1e5e;" horiz-adv-x="954" 
d="M461 631h-156v-631h-170v1391h375q176 0 269 -95t93 -268q0 -74 -16.5 -133t-45 -96t-58.5 -59.5t-64 -34.5q91 -34 128.5 -118.5t37.5 -236.5v-55q0 -186 20 -295h-169q-21 74 -21 299v47q0 155 -46 220t-177 65zM305 1247v-473h166q121 0 174 62.5t53 185.5
q0 106 -51.5 165.5t-159.5 59.5h-182zM260 -162h471v-141h-471v141z" />
    <glyph glyph-name="uni1E5F" unicode="&#x1e5f;" horiz-adv-x="579" 
d="M121 0v688q0 280 -2 354h160q6 -75 6 -182q32 93 103.5 145.5t170.5 53.5v-187q-270 -6 -270 -297v-575h-168zM-25 -168h471v-141h-471v141z" />
    <glyph glyph-name="uni1E60" unicode="&#x1e60;" horiz-adv-x="894" 
d="M51 371h170q10 -113 64.5 -181.5t158.5 -68.5q211 0 211 227q0 106 -53 173t-192 134q-172 81 -245 169.5t-73 234.5q0 154 95 252t264 98q80 0 142.5 -22t100.5 -57t63.5 -84t36 -97t11.5 -102h-168q-3 24 -6 41.5t-11 46.5t-21.5 49.5t-33 41t-51 31.5t-70.5 11
q-90 0 -135 -54t-45 -139q0 -94 49 -150.5t179 -117.5q185 -89 261 -188t76 -257q0 -171 -99.5 -276.5t-289.5 -105.5q-104 0 -180 31.5t-119 88t-64.5 123t-25.5 148.5zM530 1518h-170v215h170v-215z" />
    <glyph glyph-name="uni1E61" unicode="&#x1e61;" horiz-adv-x="772" 
d="M45 303h166q5 -83 49.5 -134.5t126.5 -51.5q77 0 117.5 41.5t40.5 111.5q0 74 -41.5 118t-143.5 83q-162 62 -222 130t-60 179q0 55 17.5 103.5t52.5 89.5t95.5 64.5t139.5 23.5q86 0 149 -27t96 -73t48 -96t16 -107h-164q-7 168 -149 168q-67 0 -101 -37t-34 -98
t36.5 -97.5t139.5 -75.5q161 -61 228 -131.5t67 -199.5q0 -145 -87.5 -225t-248.5 -80t-246 87.5t-88 233.5zM473 1239h-170v221h170v-221z" />
    <glyph glyph-name="uni1E62" unicode="&#x1e62;" horiz-adv-x="894" 
d="M51 371h170q10 -113 64.5 -181.5t158.5 -68.5q211 0 211 227q0 106 -53 173t-192 134q-172 81 -245 169.5t-73 234.5q0 154 95 252t264 98q80 0 142.5 -22t100.5 -57t63.5 -84t36 -97t11.5 -102h-168q-3 24 -6 41.5t-11 46.5t-21.5 49.5t-33 41t-51 31.5t-70.5 11
q-90 0 -135 -54t-45 -139q0 -94 49 -150.5t179 -117.5q185 -89 261 -188t76 -257q0 -171 -99.5 -276.5t-289.5 -105.5q-104 0 -180 31.5t-119 88t-64.5 123t-25.5 148.5zM530 -344h-172v203h172v-203z" />
    <glyph glyph-name="uni1E63" unicode="&#x1e63;" horiz-adv-x="772" 
d="M45 303h166q5 -83 49.5 -134.5t126.5 -51.5q77 0 117.5 41.5t40.5 111.5q0 74 -41.5 118t-143.5 83q-162 62 -222 130t-60 179q0 55 17.5 103.5t52.5 89.5t95.5 64.5t139.5 23.5q86 0 149 -27t96 -73t48 -96t16 -107h-164q-7 168 -149 168q-67 0 -101 -37t-34 -98
t36.5 -97.5t139.5 -75.5q161 -61 228 -131.5t67 -199.5q0 -145 -87.5 -225t-248.5 -80t-246 87.5t-88 233.5zM473 -344h-172v203h172v-203z" />
    <glyph glyph-name="uni1E6C" unicode="&#x1e6c;" horiz-adv-x="784" 
d="M307 0v1239h-307v152h786v-152h-309v-1239h-170zM479 -344h-172v203h172v-203z" />
    <glyph glyph-name="uni1E6D" unicode="&#x1e6d;" horiz-adv-x="501" 
d="M-6 901v141h145v275h166v-275h178v-141h-178v-663q0 -57 19.5 -84t74.5 -27q52 0 70 4v-127q-48 -18 -127 -18q-103 0 -153 49.5t-50 171.5v694h-145zM367 -344h-172v203h172v-203z" />
    <glyph glyph-name="uni1E6E" unicode="&#x1e6e;" horiz-adv-x="784" 
d="M307 0v1239h-307v152h786v-152h-309v-1239h-170zM154 -168h471v-141h-471v141z" />
    <glyph glyph-name="uni1E6F" unicode="&#x1e6f;" horiz-adv-x="501" 
d="M-6 901v141h145v275h166v-275h178v-141h-178v-663q0 -57 19.5 -84t74.5 -27q52 0 70 4v-127q-48 -18 -127 -18q-103 0 -153 49.5t-50 171.5v694h-145zM53 -168h471v-141h-471v141z" />
    <glyph glyph-name="Wgrave" unicode="&#x1e80;" horiz-adv-x="1421" 
d="M479 0h-176l-272 1391h182q164 -905 186 -1153h2q13 91 54.5 300.5t96 473t77.5 379.5h162q12 -60 73 -360.5t99 -498.5t49 -286h4q17 149 106.5 620.5t98.5 524.5h170l-293 -1391h-178q-13 64 -70.5 350.5t-94 478t-50.5 289.5h-3q-10 -66 -29.5 -170.5t-47.5 -242.5
l-49 -241.5t-54 -259.5t-43 -204zM371 1747h217l225 -244h-174z" />
    <glyph glyph-name="wgrave" unicode="&#x1e81;" horiz-adv-x="1249" 
d="M29 1042h178q131 -666 150 -797q5 -33 8 -61h4q6 49 20.5 120t30.5 144t56 250.5t77 343.5h160q163 -743 176 -852h2q13 107 166 852h170l-256 -1042h-176q-15 71 -51.5 238.5t-53 244.5t-36 177.5t-27.5 156.5h-2q-5 -44 -16 -104t-31 -149.5t-36 -157t-47.5 -200
t-48.5 -206.5h-180zM297 1477h201l215 -283h-156z" />
    <glyph glyph-name="Wacute" unicode="&#x1e82;" horiz-adv-x="1421" 
d="M479 0h-176l-272 1391h182q164 -905 186 -1153h2q13 91 54.5 300.5t96 473t77.5 379.5h162q12 -60 73 -360.5t99 -498.5t49 -286h4q17 149 106.5 620.5t98.5 524.5h170l-293 -1391h-178q-13 64 -70.5 350.5t-94 478t-50.5 289.5h-3q-10 -66 -29.5 -170.5t-47.5 -242.5
l-49 -241.5t-54 -259.5t-43 -204zM834 1747h208l-270 -244h-170z" />
    <glyph glyph-name="wacute" unicode="&#x1e83;" horiz-adv-x="1249" 
d="M29 1042h178q131 -666 150 -797q5 -33 8 -61h4q6 49 20.5 120t30.5 144t56 250.5t77 343.5h160q163 -743 176 -852h2q13 107 166 852h170l-256 -1042h-176q-15 71 -51.5 238.5t-53 244.5t-36 177.5t-27.5 156.5h-2q-5 -44 -16 -104t-31 -149.5t-36 -157t-47.5 -200
t-48.5 -206.5h-180zM760 1479h198l-260 -285h-151z" />
    <glyph glyph-name="Wdieresis" unicode="&#x1e84;" horiz-adv-x="1421" 
d="M479 0h-176l-272 1391h182q164 -905 186 -1153h2q13 91 54.5 300.5t96 473t77.5 379.5h162q12 -60 73 -360.5t99 -498.5t49 -286h4q17 149 106.5 620.5t98.5 524.5h170l-293 -1391h-178q-13 64 -70.5 350.5t-94 478t-50.5 289.5h-3q-10 -66 -29.5 -170.5t-47.5 -242.5
l-49 -241.5t-54 -259.5t-43 -204zM623 1511h-150v220h150v-220zM946 1511h-149v220h149v-220z" />
    <glyph glyph-name="wdieresis" unicode="&#x1e85;" horiz-adv-x="1249" 
d="M29 1042h178q131 -666 150 -797q5 -33 8 -61h4q6 49 20.5 120t30.5 144t56 250.5t77 343.5h160q163 -743 176 -852h2q13 107 166 852h170l-256 -1042h-176q-15 71 -51.5 238.5t-53 244.5t-36 177.5t-27.5 156.5h-2q-5 -44 -16 -104t-31 -149.5t-36 -157t-47.5 -200
t-48.5 -206.5h-180zM545 1237h-144v221h144v-221zM848 1237h-146v221h146v-221z" />
    <glyph glyph-name="uni1E8E" unicode="&#x1e8e;" horiz-adv-x="858" 
d="M514 0h-172v522q0 24 -8 37l-352 832h192q25 -66 91.5 -235t108 -277t60.5 -166q21 63 64 174.5t108 275.5t90 228h181l-357 -832q-6 -12 -6 -39v-520zM512 1518h-170v215h170v-215z" />
    <glyph glyph-name="uni1E8F" unicode="&#x1e8f;" horiz-adv-x="798" 
d="M16 1042h185q23 -90 59.5 -231t55 -214.5t40.5 -162.5t33 -142.5t14 -86.5h3q19 118 204 837h172l-305 -1093q-21 -77 -42.5 -133t-45.5 -94t-47.5 -62t-54.5 -36.5t-60 -16.5t-69 -4q-48 0 -78 6v147q28 -4 70 -4q74 0 108.5 49.5t65.5 178.5zM483 1239h-170v221h170
v-221z" />
    <glyph glyph-name="uni1E92" unicode="&#x1e92;" horiz-adv-x="837" 
d="M31 0v123l581 1116h-536v152h725v-140l-570 -1099h586l-24 -152h-762zM502 -344h-172v203h172v-203z" />
    <glyph glyph-name="uni1E93" unicode="&#x1e93;" horiz-adv-x="704" 
d="M33 0v123q130 215 448 774h-415v145h606v-129q-275 -484 -443 -770h451l-23 -143h-624zM446 -344h-172v203h172v-203z" />
    <glyph glyph-name="uni1E97" unicode="&#x1e97;" horiz-adv-x="501" 
d="M-6 901v141h145v275h166v-275h178v-141h-178v-663q0 -57 19.5 -84t74.5 -27q52 0 70 4v-127q-48 -18 -127 -18q-103 0 -153 49.5t-50 171.5v694h-145zM145 1386h-143v222h143v-222zM449 1386h-146v222h146v-222z" />
    <glyph glyph-name="uni1E9E" unicode="&#x1e9e;" horiz-adv-x="1046" 
d="M311 1026v-1026h-176v1022q0 389 391 389q104 0 182 -27t124.5 -76t69 -111.5t22.5 -137.5v-53l-267 -220v-6l115 -88q119 -91 164 -174.5t45 -191.5q0 -164 -93.5 -254t-250.5 -90q-153 0 -238 63v166q99 -92 230 -92q89 0 134.5 51t45.5 135q0 77 -34.5 134.5
t-125.5 125.5l-149 115q-42 31 -42 77t42 85l243 215q0 41 -10 76t-33.5 66t-67.5 49t-106 18q-215 0 -215 -240z" />
    <glyph glyph-name="uni1EA0" unicode="&#x1ea0;" horiz-adv-x="933" 
d="M637 424h-352l-97 -424h-170l334 1391h221l342 -1391h-182zM317 575h287q-123 528 -145 654h-4q-6 -43 -21.5 -118t-29.5 -140.5t-42.5 -194t-44.5 -201.5zM551 -324h-172v203h172v-203z" />
    <glyph glyph-name="uni1EA1" unicode="&#x1ea1;" horiz-adv-x="862" 
d="M741 768v-575q0 -114 9 -193h-154q-10 38 -10 115q-63 -133 -244 -133q-72 0 -127 26.5t-86 71t-46 96.5t-15 109q0 152 103.5 244t299.5 92q68 0 104 -5v136q0 34 -4.5 60t-18.5 54.5t-45.5 44t-78.5 15.5q-41 0 -71 -12t-45.5 -27.5t-25.5 -42.5t-13 -44.5t-5 -45.5
h-159q2 62 18 113t51 96.5t100 71.5t156 26q307 0 307 -293zM580 434v53q-31 5 -99 5q-126 0 -185.5 -53t-59.5 -142q0 -73 38.5 -123.5t114.5 -50.5q105 0 148 75t43 236zM518 -344h-172v203h172v-203z" />
    <glyph glyph-name="uni1EA2" unicode="&#x1ea2;" horiz-adv-x="933" 
d="M637 424h-352l-97 -424h-170l334 1391h221l342 -1391h-182zM317 575h287q-123 528 -145 654h-4q-6 -43 -21.5 -118t-29.5 -140.5t-42.5 -194t-44.5 -201.5zM535 1477h-152q59 54 80.5 85t21.5 68q0 26 -19 44t-54 18q-54 0 -107 -33l-39 100q78 58 187 58q86 0 134 -45
t48 -111q0 -57 -27.5 -100t-72.5 -84z" />
    <glyph glyph-name="uni1EA3" unicode="&#x1ea3;" horiz-adv-x="862" 
d="M741 768v-575q0 -114 9 -193h-154q-10 38 -10 115q-63 -133 -244 -133q-72 0 -127 26.5t-86 71t-46 96.5t-15 109q0 152 103.5 244t299.5 92q68 0 104 -5v136q0 34 -4.5 60t-18.5 54.5t-45.5 44t-78.5 15.5q-41 0 -71 -12t-45.5 -27.5t-25.5 -42.5t-13 -44.5t-5 -45.5
h-159q2 62 18 113t51 96.5t100 71.5t156 26q307 0 307 -293zM580 434v53q-31 5 -99 5q-126 0 -185.5 -53t-59.5 -142q0 -73 38.5 -123.5t114.5 -50.5q105 0 148 75t43 236zM506 1182h-152q59 54 81 85.5t22 67.5q0 26 -19.5 44t-54.5 18q-54 0 -107 -33l-38 100
q78 58 186 58q86 0 134 -45t48 -111q0 -57 -27.5 -100t-72.5 -84z" />
    <glyph glyph-name="uni1EA4" unicode="&#x1ea4;" horiz-adv-x="933" 
d="M637 424h-352l-97 -424h-170l334 1391h221l342 -1391h-182zM317 575h287q-123 528 -145 654h-4q-6 -43 -21.5 -118t-29.5 -140.5t-42.5 -194t-44.5 -201.5zM373 1688h184l209 -205h-176l-127 116l-123 -116h-176zM846 1862h198l-215 -201h-153z" />
    <glyph glyph-name="uni1EA5" unicode="&#x1ea5;" horiz-adv-x="862" 
d="M741 768v-575q0 -114 9 -193h-154q-10 38 -10 115q-63 -133 -244 -133q-72 0 -127 26.5t-86 71t-46 96.5t-15 109q0 152 103.5 244t299.5 92q68 0 104 -5v136q0 34 -4.5 60t-18.5 54.5t-45.5 44t-78.5 15.5q-41 0 -71 -12t-45.5 -27.5t-25.5 -42.5t-13 -44.5t-5 -45.5
h-159q2 62 18 113t51 96.5t100 71.5t156 26q307 0 307 -293zM580 434v53q-31 5 -99 5q-126 0 -185.5 -53t-59.5 -142q0 -73 38.5 -123.5t114.5 -50.5q105 0 148 75t43 236zM348 1434h170l187 -254h-156l-117 163l-117 -163h-153zM788 1620h170l-198 -231h-137z" />
    <glyph glyph-name="uni1EA6" unicode="&#x1ea6;" horiz-adv-x="933" 
d="M637 424h-352l-97 -424h-170l334 1391h221l342 -1391h-182zM317 575h287q-123 528 -145 654h-4q-6 -43 -21.5 -118t-29.5 -140.5t-42.5 -194t-44.5 -201.5zM373 1688h184l209 -205h-176l-127 116l-123 -116h-176zM565 1853h205l176 -200h-149z" />
    <glyph glyph-name="uni1EA7" unicode="&#x1ea7;" horiz-adv-x="862" 
d="M741 768v-575q0 -114 9 -193h-154q-10 38 -10 115q-63 -133 -244 -133q-72 0 -127 26.5t-86 71t-46 96.5t-15 109q0 152 103.5 244t299.5 92q68 0 104 -5v136q0 34 -4.5 60t-18.5 54.5t-45.5 44t-78.5 15.5q-41 0 -71 -12t-45.5 -27.5t-25.5 -42.5t-13 -44.5t-5 -45.5
h-159q2 62 18 113t51 96.5t100 71.5t156 26q307 0 307 -293zM580 434v53q-31 5 -99 5q-126 0 -185.5 -53t-59.5 -142q0 -73 38.5 -123.5t114.5 -50.5q105 0 148 75t43 236zM348 1434h170l187 -254h-156l-117 163l-117 -163h-153zM528 1630h181l172 -246h-136z" />
    <glyph glyph-name="uni1EA8" unicode="&#x1ea8;" horiz-adv-x="933" 
d="M637 424h-352l-97 -424h-170l334 1391h221l342 -1391h-182zM317 575h287q-123 528 -145 654h-4q-6 -43 -21.5 -118t-29.5 -140.5t-42.5 -194t-44.5 -201.5zM829 1661h-131q52 44 73.5 73.5t21.5 61.5q0 22 -16.5 36.5t-51.5 14.5q-53 0 -100 -35l-39 86q80 62 174 62
q77 0 120.5 -39.5t43.5 -101.5q0 -84 -95 -158zM373 1688h184l209 -205h-176l-127 116l-123 -116h-176z" />
    <glyph glyph-name="uni1EA9" unicode="&#x1ea9;" horiz-adv-x="862" 
d="M741 768v-575q0 -114 9 -193h-154q-10 38 -10 115q-63 -133 -244 -133q-72 0 -127 26.5t-86 71t-46 96.5t-15 109q0 152 103.5 244t299.5 92q68 0 104 -5v136q0 34 -4.5 60t-18.5 54.5t-45.5 44t-78.5 15.5q-41 0 -71 -12t-45.5 -27.5t-25.5 -42.5t-13 -44.5t-5 -45.5
h-159q2 62 18 113t51 96.5t100 71.5t156 26q307 0 307 -293zM580 434v53q-31 5 -99 5q-126 0 -185.5 -53t-59.5 -142q0 -73 38.5 -123.5t114.5 -50.5q105 0 148 75t43 236zM788 1391h-137q53 43 76 74.5t23 62.5q0 53 -64 53q-56 0 -100 -35l-39 86q78 60 174 60
q79 0 119.5 -38t40.5 -102q0 -92 -93 -161zM348 1436h170l191 -256h-158l-119 163l-119 -163h-155z" />
    <glyph glyph-name="uni1EAA" unicode="&#x1eaa;" horiz-adv-x="933" 
d="M637 424h-352l-97 -424h-170l334 1391h221l342 -1391h-182zM317 575h287q-123 528 -145 654h-4q-6 -43 -21.5 -118t-29.5 -140.5t-42.5 -194t-44.5 -201.5zM293 1710h-107v21q0 82 37.5 119.5t100.5 37.5q56 0 145 -32.5t119 -32.5q23 0 35 10.5t12 38.5v16h104v-24
q0 -82 -35 -118t-100 -36q-49 0 -143 32t-125 32q-43 0 -43 -50v-14zM373 1645h178l215 -175h-180l-125 95l-123 -95h-178z" />
    <glyph glyph-name="uni1EAB" unicode="&#x1eab;" horiz-adv-x="862" 
d="M741 768v-575q0 -114 9 -193h-154q-10 38 -10 115q-63 -133 -244 -133q-72 0 -127 26.5t-86 71t-46 96.5t-15 109q0 152 103.5 244t299.5 92q68 0 104 -5v136q0 34 -4.5 60t-18.5 54.5t-45.5 44t-78.5 15.5q-41 0 -71 -12t-45.5 -27.5t-25.5 -42.5t-13 -44.5t-5 -45.5
h-159q2 62 18 113t51 96.5t100 71.5t156 26q307 0 307 -293zM580 434v53q-31 5 -99 5q-126 0 -185.5 -53t-59.5 -142q0 -73 38.5 -123.5t114.5 -50.5q105 0 148 75t43 236zM287 1432h-107v18q0 82 37 120t98 38q55 0 129 -32t95 -32q22 0 33.5 10t11.5 37v17h106v-23
q0 -155 -135 -155q-48 0 -122.5 31.5t-100.5 31.5q-45 0 -45 -49v-12zM342 1352h182l205 -191h-172l-127 111l-121 -111h-168z" />
    <glyph glyph-name="uni1EAC" unicode="&#x1eac;" horiz-adv-x="933" 
d="M637 424h-352l-97 -424h-170l334 1391h221l342 -1391h-182zM317 575h287q-123 528 -145 654h-4q-6 -43 -21.5 -118t-29.5 -140.5t-42.5 -194t-44.5 -201.5zM551 -324h-172v203h172v-203zM373 1716h184l203 -233h-176l-121 137l-115 -137h-176z" />
    <glyph glyph-name="uni1EAD" unicode="&#x1ead;" horiz-adv-x="862" 
d="M741 768v-575q0 -114 9 -193h-154q-10 38 -10 115q-63 -133 -244 -133q-72 0 -127 26.5t-86 71t-46 96.5t-15 109q0 152 103.5 244t299.5 92q68 0 104 -5v136q0 34 -4.5 60t-18.5 54.5t-45.5 44t-78.5 15.5q-41 0 -71 -12t-45.5 -27.5t-25.5 -42.5t-13 -44.5t-5 -45.5
h-159q2 62 18 113t51 96.5t100 71.5t156 26q307 0 307 -293zM580 434v53q-31 5 -99 5q-126 0 -185.5 -53t-59.5 -142q0 -73 38.5 -123.5t114.5 -50.5q105 0 148 75t43 236zM518 -344h-172v203h172v-203zM342 1460h180l180 -276h-159l-111 176l-110 -176h-158z" />
    <glyph glyph-name="uni1EAE" unicode="&#x1eae;" horiz-adv-x="933" 
d="M637 424h-352l-97 -424h-170l334 1391h221l342 -1391h-182zM317 575h287q-123 528 -145 654h-4q-6 -43 -21.5 -118t-29.5 -140.5t-42.5 -194t-44.5 -201.5zM182 1675h137q37 -88 148 -88q112 0 149 88h136q-21 -89 -90.5 -148t-194.5 -59q-72 0 -127.5 20.5t-87 54.5
t-48 66.5t-22.5 65.5zM557 1903h221l-233 -181h-166z" />
    <glyph glyph-name="uni1EAF" unicode="&#x1eaf;" horiz-adv-x="862" 
d="M741 768v-575q0 -114 9 -193h-154q-10 38 -10 115q-63 -133 -244 -133q-72 0 -127 26.5t-86 71t-46 96.5t-15 109q0 152 103.5 244t299.5 92q68 0 104 -5v136q0 34 -4.5 60t-18.5 54.5t-45.5 44t-78.5 15.5q-41 0 -71 -12t-45.5 -27.5t-25.5 -42.5t-13 -44.5t-5 -45.5
h-159q2 62 18 113t51 96.5t100 71.5t156 26q307 0 307 -293zM580 434v53q-31 5 -99 5q-126 0 -185.5 -53t-59.5 -142q0 -73 38.5 -123.5t114.5 -50.5q105 0 148 75t43 236zM162 1380h131q31 -96 141 -96q64 0 94.5 25t46.5 71h127q-20 -99 -87 -157t-183 -58
q-62 0 -111.5 18.5t-81 50.5t-50.5 68.5t-27 77.5zM528 1636h195l-223 -211h-152z" />
    <glyph glyph-name="uni1EB0" unicode="&#x1eb0;" horiz-adv-x="933" 
d="M637 424h-352l-97 -424h-170l334 1391h221l342 -1391h-182zM317 575h287q-123 528 -145 654h-4q-6 -43 -21.5 -118t-29.5 -140.5t-42.5 -194t-44.5 -201.5zM182 1675h137q37 -88 148 -88q112 0 149 88h136q-21 -89 -90.5 -148t-194.5 -59q-72 0 -127.5 20.5t-87 54.5
t-48 66.5t-22.5 65.5zM156 1903h256l176 -181h-197z" />
    <glyph glyph-name="uni1EB1" unicode="&#x1eb1;" horiz-adv-x="862" 
d="M741 768v-575q0 -114 9 -193h-154q-10 38 -10 115q-63 -133 -244 -133q-72 0 -127 26.5t-86 71t-46 96.5t-15 109q0 152 103.5 244t299.5 92q68 0 104 -5v136q0 34 -4.5 60t-18.5 54.5t-45.5 44t-78.5 15.5q-41 0 -71 -12t-45.5 -27.5t-25.5 -42.5t-13 -44.5t-5 -45.5
h-159q2 62 18 113t51 96.5t100 71.5t156 26q307 0 307 -293zM580 434v53q-31 5 -99 5q-126 0 -185.5 -53t-59.5 -142q0 -73 38.5 -123.5t114.5 -50.5q105 0 148 75t43 236zM162 1380h131q31 -96 141 -96q64 0 94.5 25t46.5 71h127q-20 -99 -87 -157t-183 -58
q-62 0 -111.5 18.5t-81 50.5t-50.5 68.5t-27 77.5zM133 1636h215l182 -211h-161z" />
    <glyph glyph-name="uni1EB2" unicode="&#x1eb2;" horiz-adv-x="933" 
d="M637 424h-352l-97 -424h-170l334 1391h221l342 -1391h-182zM317 575h287q-123 528 -145 654h-4q-6 -43 -21.5 -118t-29.5 -140.5t-42.5 -194t-44.5 -201.5zM526 1720h-139q98 76 98 129q0 54 -67 54q-49 0 -101 -31l-41 84q78 57 179 57q77 0 120 -38.5t43 -100.5
q0 -83 -92 -154zM180 1679h137q15 -38 53.5 -63t96.5 -25q114 0 151 88h136q-21 -89 -92.5 -149t-194.5 -60q-71 0 -127 21t-87.5 54.5t-49 66.5t-23.5 67z" />
    <glyph glyph-name="uni1EB3" unicode="&#x1eb3;" horiz-adv-x="862" 
d="M741 768v-575q0 -114 9 -193h-154q-10 38 -10 115q-63 -133 -244 -133q-72 0 -127 26.5t-86 71t-46 96.5t-15 109q0 152 103.5 244t299.5 92q68 0 104 -5v136q0 34 -4.5 60t-18.5 54.5t-45.5 44t-78.5 15.5q-41 0 -71 -12t-45.5 -27.5t-25.5 -42.5t-13 -44.5t-5 -45.5
h-159q2 62 18 113t51 96.5t100 71.5t156 26q307 0 307 -293zM580 434v53q-31 5 -99 5q-126 0 -185.5 -53t-59.5 -142q0 -73 38.5 -123.5t114.5 -50.5q105 0 148 75t43 236zM483 1413h-133q56 42 82.5 74t26.5 63q0 26 -16.5 41t-49.5 15q-49 0 -96 -35l-37 84q65 57 166 57
q79 0 119.5 -37.5t40.5 -101.5q0 -94 -103 -160zM162 1380h131q31 -96 141 -96q64 0 94.5 25t46.5 71h127q-20 -99 -87 -157t-183 -58q-62 0 -111.5 18.5t-81 50.5t-50.5 68.5t-27 77.5z" />
    <glyph glyph-name="uni1EB4" unicode="&#x1eb4;" horiz-adv-x="933" 
d="M637 424h-352l-97 -424h-170l334 1391h221l342 -1391h-182zM317 575h287q-123 528 -145 654h-4q-6 -43 -21.5 -118t-29.5 -140.5t-42.5 -194t-44.5 -201.5zM297 1743h-107v20q0 82 37.5 119t100.5 37q56 0 145 -32t119 -32q23 0 35 10.5t12 37.5v16h104v-25
q0 -82 -35 -117.5t-100 -35.5q-49 0 -143 31.5t-125 31.5q-43 0 -43 -49v-12zM180 1677h137q16 -39 54 -63.5t96 -24.5q110 0 151 88h136q-23 -89 -93.5 -148t-193.5 -59q-71 0 -127 20.5t-87.5 53.5t-49 66t-23.5 67z" />
    <glyph glyph-name="uni1EB5" unicode="&#x1eb5;" horiz-adv-x="862" 
d="M741 768v-575q0 -114 9 -193h-154q-10 38 -10 115q-63 -133 -244 -133q-72 0 -127 26.5t-86 71t-46 96.5t-15 109q0 152 103.5 244t299.5 92q68 0 104 -5v136q0 34 -4.5 60t-18.5 54.5t-45.5 44t-78.5 15.5q-41 0 -71 -12t-45.5 -27.5t-25.5 -42.5t-13 -44.5t-5 -45.5
h-159q2 62 18 113t51 96.5t100 71.5t156 26q307 0 307 -293zM580 434v53q-31 5 -99 5q-126 0 -185.5 -53t-59.5 -142q0 -73 38.5 -123.5t114.5 -50.5q105 0 148 75t43 236zM285 1444h-105v20q0 80 36.5 118t96.5 38q56 0 130.5 -32t95.5 -32q45 0 45 48v16h106v-23
q0 -153 -137 -153q-46 0 -120.5 31.5t-100.5 31.5q-47 0 -47 -51v-12zM180 1360h123q34 -88 131 -88q102 0 131 88h123q-13 -90 -78.5 -146.5t-175.5 -56.5q-114 0 -178 60.5t-76 142.5z" />
    <glyph glyph-name="uni1EB6" unicode="&#x1eb6;" horiz-adv-x="933" 
d="M637 424h-352l-97 -424h-170l334 1391h221l342 -1391h-182zM317 575h287q-123 528 -145 654h-4q-6 -43 -21.5 -118t-29.5 -140.5t-42.5 -194t-44.5 -201.5zM551 -324h-172v203h172v-203zM195 1720h129q11 -51 48.5 -80.5t94.5 -29.5q121 0 143 110h127
q-14 -104 -82.5 -168.5t-187.5 -64.5q-128 0 -196 66.5t-76 166.5z" />
    <glyph glyph-name="uni1EB7" unicode="&#x1eb7;" horiz-adv-x="862" 
d="M741 768v-575q0 -114 9 -193h-154q-10 38 -10 115q-63 -133 -244 -133q-72 0 -127 26.5t-86 71t-46 96.5t-15 109q0 152 103.5 244t299.5 92q68 0 104 -5v136q0 34 -4.5 60t-18.5 54.5t-45.5 44t-78.5 15.5q-41 0 -71 -12t-45.5 -27.5t-25.5 -42.5t-13 -44.5t-5 -45.5
h-159q2 62 18 113t51 96.5t100 71.5t156 26q307 0 307 -293zM580 434v53q-31 5 -99 5q-126 0 -185.5 -53t-59.5 -142q0 -73 38.5 -123.5t114.5 -50.5q105 0 148 75t43 236zM174 1440h129q10 -53 41.5 -85t87.5 -32q63 0 91.5 32t39.5 85h129q-13 -109 -78 -177.5t-182 -68.5
q-63 0 -112.5 21.5t-79.5 57.5t-46.5 78t-19.5 89zM518 -344h-172v203h172v-203z" />
    <glyph glyph-name="uni1EB8" unicode="&#x1eb8;" horiz-adv-x="854" 
d="M764 809v-152h-461v-507h512l-22 -150h-658v1391h651v-152h-483v-430h461zM563 -334h-172v203h172v-203z" />
    <glyph glyph-name="uni1EB9" unicode="&#x1eb9;" horiz-adv-x="845" 
d="M776 487h-538q0 -79 7.5 -138.5t27 -113.5t58.5 -83t97 -29q44 0 78 16t51.5 36.5t30 49.5t15.5 44t5 32h164q-31 -223 -197 -292q-66 -27 -149 -27q-65 0 -118 16.5t-89.5 44.5t-64 70t-43 87t-25.5 102t-13 108t-3 112q0 255 90.5 397t273.5 142q81 0 143 -26.5
t100 -70t61.5 -108t32.5 -133t9 -152.5q0 -38 -4 -84zM242 616h370q0 67 -8 117.5t-27 94t-55.5 67t-89.5 23.5q-182 0 -190 -302zM518 -344h-172v203h172v-203z" />
    <glyph glyph-name="uni1EBA" unicode="&#x1eba;" horiz-adv-x="854" 
d="M764 809v-152h-461v-507h512l-22 -150h-658v1391h651v-152h-483v-430h461zM530 1485h-151q59 54 80.5 85t21.5 68q0 26 -19 44t-54 18q-54 0 -107 -33l-39 100q78 58 187 58q86 0 134 -45t48 -111q0 -57 -28 -100t-73 -84z" />
    <glyph glyph-name="uni1EBB" unicode="&#x1ebb;" horiz-adv-x="845" 
d="M776 487h-538q0 -79 7.5 -138.5t27 -113.5t58.5 -83t97 -29q44 0 78 16t51.5 36.5t30 49.5t15.5 44t5 32h164q-31 -223 -197 -292q-66 -27 -149 -27q-65 0 -118 16.5t-89.5 44.5t-64 70t-43 87t-25.5 102t-13 108t-3 112q0 255 90.5 397t273.5 142q81 0 143 -26.5
t100 -70t61.5 -108t32.5 -133t9 -152.5q0 -38 -4 -84zM242 616h370q0 67 -8 117.5t-27 94t-55.5 67t-89.5 23.5q-182 0 -190 -302zM494 1182h-152q59 54 80.5 85t21.5 68q0 26 -19 44t-54 18q-54 0 -107 -33l-39 100q78 58 187 58q86 0 134 -45t48 -111q0 -57 -27.5 -100
t-72.5 -84z" />
    <glyph glyph-name="uni1EBC" unicode="&#x1ebc;" horiz-adv-x="854" 
d="M764 809v-152h-461v-507h512l-22 -150h-658v1391h651v-152h-483v-430h461zM289 1518h-115v41q0 90 40 131t105 41q55 0 146 -40t115 -40t36.5 13.5t12.5 49.5v21h114v-31q0 -188 -149 -188q-53 0 -140 39.5t-116 39.5q-49 0 -49 -53v-24z" />
    <glyph glyph-name="uni1EBD" unicode="&#x1ebd;" horiz-adv-x="845" 
d="M776 487h-538q0 -79 7.5 -138.5t27 -113.5t58.5 -83t97 -29q44 0 78 16t51.5 36.5t30 49.5t15.5 44t5 32h164q-31 -223 -197 -292q-66 -27 -149 -27q-65 0 -118 16.5t-89.5 44.5t-64 70t-43 87t-25.5 102t-13 108t-3 112q0 255 90.5 397t273.5 142q81 0 143 -26.5
t100 -70t61.5 -108t32.5 -133t9 -152.5q0 -38 -4 -84zM242 616h370q0 67 -8 117.5t-27 94t-55.5 67t-89.5 23.5q-182 0 -190 -302zM272 1210h-116v47q0 166 137 166q44 0 90 -20.5t84 -41t61 -20.5q22 0 32.5 15.5t10.5 56.5v14h115v-38q0 -98 -37 -139.5t-104 -41.5
q-41 0 -85.5 21t-83 42t-63.5 21q-41 0 -41 -59v-23z" />
    <glyph glyph-name="uni1EBE" unicode="&#x1ebe;" horiz-adv-x="854" 
d="M764 809v-152h-461v-507h512l-22 -150h-658v1391h651v-152h-483v-430h461zM365 1708h184l209 -205h-176l-127 117l-123 -117h-176zM838 1882h198l-215 -201h-153z" />
    <glyph glyph-name="uni1EBF" unicode="&#x1ebf;" horiz-adv-x="845" 
d="M776 487h-538q0 -79 7.5 -138.5t27 -113.5t58.5 -83t97 -29q44 0 78 16t51.5 36.5t30 49.5t15.5 44t5 32h164q-31 -223 -197 -292q-66 -27 -149 -27q-65 0 -118 16.5t-89.5 44.5t-64 70t-43 87t-25.5 102t-13 108t-3 112q0 255 90.5 397t273.5 142q81 0 143 -26.5
t100 -70t61.5 -108t32.5 -133t9 -152.5q0 -38 -4 -84zM242 616h370q0 67 -8 117.5t-27 94t-55.5 67t-89.5 23.5q-182 0 -190 -302zM336 1434h170l186 -254h-155l-117 163l-117 -163h-153zM776 1620h170l-198 -231h-138z" />
    <glyph glyph-name="uni1EC0" unicode="&#x1ec0;" horiz-adv-x="854" 
d="M764 809v-152h-461v-507h512l-22 -150h-658v1391h651v-152h-483v-430h461zM365 1708h184l209 -205h-176l-127 117l-123 -117h-176zM557 1874h205l176 -201h-150z" />
    <glyph glyph-name="uni1EC1" unicode="&#x1ec1;" horiz-adv-x="845" 
d="M776 487h-538q0 -79 7.5 -138.5t27 -113.5t58.5 -83t97 -29q44 0 78 16t51.5 36.5t30 49.5t15.5 44t5 32h164q-31 -223 -197 -292q-66 -27 -149 -27q-65 0 -118 16.5t-89.5 44.5t-64 70t-43 87t-25.5 102t-13 108t-3 112q0 255 90.5 397t273.5 142q81 0 143 -26.5
t100 -70t61.5 -108t32.5 -133t9 -152.5q0 -38 -4 -84zM242 616h370q0 67 -8 117.5t-27 94t-55.5 67t-89.5 23.5q-182 0 -190 -302zM336 1434h170l186 -254h-155l-117 163l-117 -163h-153zM516 1630h180l172 -246h-135z" />
    <glyph glyph-name="uni1EC2" unicode="&#x1ec2;" horiz-adv-x="854" 
d="M764 809v-152h-461v-507h512l-22 -150h-658v1391h651v-152h-483v-430h461zM821 1675h-131q52 43 73 73t21 62q0 22 -16.5 37t-50.5 15q-54 0 -101 -35l-38 86q79 61 174 61q77 0 120 -39.5t43 -101.5q0 -85 -94 -158zM365 1702h184l209 -205h-176l-127 117l-123 -117
h-176z" />
    <glyph glyph-name="uni1EC3" unicode="&#x1ec3;" horiz-adv-x="845" 
d="M776 487h-538q0 -79 7.5 -138.5t27 -113.5t58.5 -83t97 -29q44 0 78 16t51.5 36.5t30 49.5t15.5 44t5 32h164q-31 -223 -197 -292q-66 -27 -149 -27q-65 0 -118 16.5t-89.5 44.5t-64 70t-43 87t-25.5 102t-13 108t-3 112q0 255 90.5 397t273.5 142q81 0 143 -26.5
t100 -70t61.5 -108t32.5 -133t9 -152.5q0 -38 -4 -84zM242 616h370q0 67 -8 117.5t-27 94t-55.5 67t-89.5 23.5q-182 0 -190 -302zM776 1391h-137q53 43 75.5 74.5t22.5 62.5q0 53 -63 53q-57 0 -101 -35l-38 86q78 60 174 60q79 0 119 -38t40 -102q0 -92 -92 -161z
M336 1436h170l190 -256h-157l-119 163l-119 -163h-156z" />
    <glyph glyph-name="uni1EC4" unicode="&#x1ec4;" horiz-adv-x="854" 
d="M764 809v-152h-461v-507h512l-22 -150h-658v1391h651v-152h-483v-430h461zM289 1731h-107v20q0 82 37 120t100 38q57 0 146 -33t119 -33q23 0 35 10.5t12 38.5v17h104v-25q0 -82 -35 -117.5t-100 -35.5q-49 0 -143 31.5t-125 31.5q-43 0 -43 -49v-14zM369 1665h178
l215 -174h-180l-125 94l-123 -94h-178z" />
    <glyph glyph-name="uni1EC5" unicode="&#x1ec5;" horiz-adv-x="845" 
d="M776 487h-538q0 -79 7.5 -138.5t27 -113.5t58.5 -83t97 -29q44 0 78 16t51.5 36.5t30 49.5t15.5 44t5 32h164q-31 -223 -197 -292q-66 -27 -149 -27q-65 0 -118 16.5t-89.5 44.5t-64 70t-43 87t-25.5 102t-13 108t-3 112q0 255 90.5 397t273.5 142q81 0 143 -26.5
t100 -70t61.5 -108t32.5 -133t9 -152.5q0 -38 -4 -84zM242 616h370q0 67 -8 117.5t-27 94t-55.5 67t-89.5 23.5q-182 0 -190 -302zM274 1432h-106v18q0 82 37 120t98 38q55 0 128.5 -32t94.5 -32q22 0 33.5 10t11.5 37v17h107v-23q0 -155 -135 -155q-48 0 -123 31.5
t-101 31.5q-45 0 -45 -49v-12zM330 1352h182l205 -191h-172l-127 111l-121 -111h-168z" />
    <glyph glyph-name="uni1EC6" unicode="&#x1ec6;" horiz-adv-x="854" 
d="M764 809v-152h-461v-507h512l-22 -150h-658v1391h651v-152h-483v-430h461zM563 -344h-172v203h172v-203zM365 1737h184l203 -234h-177l-120 137l-115 -137h-176z" />
    <glyph glyph-name="uni1EC7" unicode="&#x1ec7;" horiz-adv-x="845" 
d="M776 487h-538q0 -79 7.5 -138.5t27 -113.5t58.5 -83t97 -29q44 0 78 16t51.5 36.5t30 49.5t15.5 44t5 32h164q-31 -223 -197 -292q-66 -27 -149 -27q-65 0 -118 16.5t-89.5 44.5t-64 70t-43 87t-25.5 102t-13 108t-3 112q0 255 90.5 397t273.5 142q81 0 143 -26.5
t100 -70t61.5 -108t32.5 -133t9 -152.5q0 -38 -4 -84zM242 616h370q0 67 -8 117.5t-27 94t-55.5 67t-89.5 23.5q-182 0 -190 -302zM506 -344h-172v203h172v-203zM330 1460h180l180 -276h-160l-110 176l-111 -176h-157z" />
    <glyph glyph-name="uni1EC8" unicode="&#x1ec8;" horiz-adv-x="442" 
d="M135 1391h170v-1391h-170v1391zM293 1487h-152q59 54 81 85.5t22 67.5q0 26 -19.5 44t-54.5 18q-54 0 -107 -33l-38 100q78 58 186 58q86 0 134 -45t48 -111q0 -57 -27.5 -100t-72.5 -84z" />
    <glyph glyph-name="uni1EC9" unicode="&#x1ec9;" horiz-adv-x="409" 
d="M121 0v1042h168v-1042h-168zM276 1182h-151q59 54 80.5 85t21.5 68q0 26 -19 44t-54 18q-54 0 -107 -33l-39 100q78 58 187 58q86 0 134 -45t48 -111q0 -57 -28 -100t-73 -84z" />
    <glyph glyph-name="uni1ECA" unicode="&#x1eca;" horiz-adv-x="442" 
d="M135 1391h170v-1391h-170v1391zM305 -344h-172v203h172v-203z" />
    <glyph glyph-name="uni1ECB" unicode="&#x1ecb;" horiz-adv-x="409" 
d="M121 0v1042h168v-1042h-168zM289 1237h-168v221h168v-221zM289 -344h-172v203h172v-203z" />
    <glyph glyph-name="uni1ECC" unicode="&#x1ecc;" horiz-adv-x="999" 
d="M504 1411q216 0 315 -172.5t99 -531.5q0 -368 -99 -547.5t-323 -179.5q-214 0 -314 178.5t-100 546.5q0 706 422 706zM500 1262q-242 0 -242 -553q0 -584 242 -584q128 0 184.5 142t56.5 440q0 291 -57.5 423t-183.5 132zM584 -344h-172v203h172v-203z" />
    <glyph glyph-name="uni1ECD" unicode="&#x1ecd;" horiz-adv-x="870" 
d="M442 1061q174 0 266.5 -134t92.5 -395q0 -550 -367 -550q-184 0 -274 134.5t-90 411.5q0 267 97.5 400t274.5 133zM436 915q-97 0 -145.5 -94t-48.5 -293q0 -403 194 -403q193 0 193 403q0 387 -193 387zM518 -344h-172v203h172v-203z" />
    <glyph glyph-name="uni1ECE" unicode="&#x1ece;" horiz-adv-x="999" 
d="M504 1411q216 0 315 -172.5t99 -531.5q0 -368 -99 -547.5t-323 -179.5q-214 0 -314 178.5t-100 546.5q0 706 422 706zM500 1262q-242 0 -242 -553q0 -584 242 -584q128 0 184.5 142t56.5 440q0 291 -57.5 423t-183.5 132zM567 1487h-151q59 54 80.5 85t21.5 68
q0 26 -19.5 44t-54.5 18q-53 0 -106 -33l-39 100q78 58 186 58q87 0 135 -45.5t48 -110.5q0 -57 -28 -100t-73 -84z" />
    <glyph glyph-name="uni1ECF" unicode="&#x1ecf;" horiz-adv-x="870" 
d="M442 1061q174 0 266.5 -134t92.5 -395q0 -550 -367 -550q-184 0 -274 134.5t-90 411.5q0 267 97.5 400t274.5 133zM436 915q-97 0 -145.5 -94t-48.5 -293q0 -403 194 -403q193 0 193 403q0 387 -193 387zM506 1182h-152q59 54 81 85.5t22 67.5q0 26 -19.5 44t-54.5 18
q-54 0 -107 -33l-38 100q78 58 186 58q86 0 134 -45t48 -111q0 -57 -27.5 -100t-72.5 -84z" />
    <glyph glyph-name="uni1ED0" unicode="&#x1ed0;" horiz-adv-x="999" 
d="M504 1411q216 0 315 -172.5t99 -531.5q0 -368 -99 -547.5t-323 -179.5q-214 0 -314 178.5t-100 546.5q0 706 422 706zM500 1262q-242 0 -242 -553q0 -584 242 -584q128 0 184.5 142t56.5 440q0 291 -57.5 423t-183.5 132zM406 1698h184l209 -205h-176l-127 117l-123 -117
h-176zM879 1872h198l-215 -201h-153z" />
    <glyph glyph-name="uni1ED1" unicode="&#x1ed1;" horiz-adv-x="870" 
d="M442 1061q174 0 266.5 -134t92.5 -395q0 -550 -367 -550q-184 0 -274 134.5t-90 411.5q0 267 97.5 400t274.5 133zM436 915q-97 0 -145.5 -94t-48.5 -293q0 -403 194 -403q193 0 193 403q0 387 -193 387zM348 1434h170l187 -254h-156l-117 163l-117 -163h-153zM788 1620
h170l-198 -231h-137z" />
    <glyph glyph-name="uni1ED2" unicode="&#x1ed2;" horiz-adv-x="999" 
d="M504 1411q216 0 315 -172.5t99 -531.5q0 -368 -99 -547.5t-323 -179.5q-214 0 -314 178.5t-100 546.5q0 706 422 706zM500 1262q-242 0 -242 -553q0 -584 242 -584q128 0 184.5 142t56.5 440q0 291 -57.5 423t-183.5 132zM406 1698h184l209 -205h-176l-127 117l-123 -117
h-176zM598 1864h205l176 -201h-150z" />
    <glyph glyph-name="uni1ED3" unicode="&#x1ed3;" horiz-adv-x="870" 
d="M442 1061q174 0 266.5 -134t92.5 -395q0 -550 -367 -550q-184 0 -274 134.5t-90 411.5q0 267 97.5 400t274.5 133zM436 915q-97 0 -145.5 -94t-48.5 -293q0 -403 194 -403q193 0 193 403q0 387 -193 387zM348 1434h170l187 -254h-156l-117 163l-117 -163h-153zM528 1630
h181l172 -246h-136z" />
    <glyph glyph-name="uni1ED4" unicode="&#x1ed4;" horiz-adv-x="999" 
d="M504 1411q216 0 315 -172.5t99 -531.5q0 -368 -99 -547.5t-323 -179.5q-214 0 -314 178.5t-100 546.5q0 706 422 706zM500 1262q-242 0 -242 -553q0 -584 242 -584q128 0 184.5 142t56.5 440q0 291 -57.5 423t-183.5 132zM862 1671h-131q52 43 73 73t21 62q0 22 -16.5 37
t-50.5 15q-54 0 -101 -35l-39 86q79 61 175 61q77 0 120 -39.5t43 -101.5q0 -85 -94 -158zM406 1698h184l209 -205h-176l-127 117l-123 -117h-176z" />
    <glyph glyph-name="uni1ED5" unicode="&#x1ed5;" horiz-adv-x="870" 
d="M442 1061q174 0 266.5 -134t92.5 -395q0 -550 -367 -550q-184 0 -274 134.5t-90 411.5q0 267 97.5 400t274.5 133zM436 915q-97 0 -145.5 -94t-48.5 -293q0 -403 194 -403q193 0 193 403q0 387 -193 387zM788 1391h-137q53 43 76 74.5t23 62.5q0 53 -64 53
q-56 0 -100 -35l-39 86q78 60 174 60q79 0 119.5 -38t40.5 -102q0 -92 -93 -161zM348 1436h170l191 -256h-158l-119 163l-119 -163h-155z" />
    <glyph glyph-name="uni1ED6" unicode="&#x1ed6;" horiz-adv-x="999" 
d="M504 1411q216 0 315 -172.5t99 -531.5q0 -368 -99 -547.5t-323 -179.5q-214 0 -314 178.5t-100 546.5q0 706 422 706zM500 1262q-242 0 -242 -553q0 -584 242 -584q128 0 184.5 142t56.5 440q0 291 -57.5 423t-183.5 132zM330 1726h-107v21q0 82 37 120t100 38
q56 0 146 -33t119 -33q23 0 35 10.5t12 38.5v17h104v-25q0 -82 -35 -118t-100 -36q-49 0 -143 32t-125 32q-43 0 -43 -49v-15zM410 1661h178l215 -174h-180l-125 94l-123 -94h-178z" />
    <glyph glyph-name="uni1ED7" unicode="&#x1ed7;" horiz-adv-x="870" 
d="M442 1061q174 0 266.5 -134t92.5 -395q0 -550 -367 -550q-184 0 -274 134.5t-90 411.5q0 267 97.5 400t274.5 133zM436 915q-97 0 -145.5 -94t-48.5 -293q0 -403 194 -403q193 0 193 403q0 387 -193 387zM287 1432h-107v18q0 82 37 120t98 38q55 0 129 -32t95 -32
q22 0 33.5 10t11.5 37v17h106v-23q0 -155 -135 -155q-48 0 -122.5 31.5t-100.5 31.5q-45 0 -45 -49v-12zM342 1352h182l205 -191h-172l-127 111l-121 -111h-168z" />
    <glyph glyph-name="uni1ED8" unicode="&#x1ed8;" horiz-adv-x="999" 
d="M504 1411q216 0 315 -172.5t99 -531.5q0 -368 -99 -547.5t-323 -179.5q-214 0 -314 178.5t-100 546.5q0 706 422 706zM500 1262q-242 0 -242 -553q0 -584 242 -584q128 0 184.5 142t56.5 440q0 291 -57.5 423t-183.5 132zM584 -344h-172v203h172v-203zM406 1737h184
l203 -234h-177l-120 137l-115 -137h-176z" />
    <glyph glyph-name="uni1ED9" unicode="&#x1ed9;" horiz-adv-x="870" 
d="M442 1061q174 0 266.5 -134t92.5 -395q0 -550 -367 -550q-184 0 -274 134.5t-90 411.5q0 267 97.5 400t274.5 133zM436 915q-97 0 -145.5 -94t-48.5 -293q0 -403 194 -403q193 0 193 403q0 387 -193 387zM518 -344h-172v203h172v-203zM342 1460h180l180 -276h-159
l-111 176l-110 -176h-158z" />
    <glyph glyph-name="uni1EDA" unicode="&#x1eda;" horiz-adv-x="999" 
d="M504 1411q150 0 241 -82q68 23 68 111q0 46 -14 100h155q11 -57 11 -102q0 -79 -36 -134.5t-102 -80.5q91 -175 91 -516q0 -368 -99 -547.5t-323 -179.5q-214 0 -314 178.5t-100 546.5q0 706 422 706zM500 1262q-242 0 -242 -553q0 -584 242 -584q128 0 184.5 142
t56.5 440q0 291 -57.5 423t-183.5 132zM623 1747h208l-270 -244h-170z" />
    <glyph glyph-name="uni1EDB" unicode="&#x1edb;" horiz-adv-x="870" 
d="M442 1061q115 0 191 -55q67 23 67 110q0 47 -14 101h156q10 -52 10 -103q0 -157 -127 -211q76 -136 76 -371q0 -550 -367 -550q-184 0 -274 134.5t-90 411.5q0 267 97.5 400t274.5 133zM436 915q-97 0 -145.5 -94t-48.5 -293q0 -403 194 -403q193 0 193 403
q0 387 -193 387zM541 1479h198l-260 -285h-151z" />
    <glyph glyph-name="uni1EDC" unicode="&#x1edc;" horiz-adv-x="999" 
d="M504 1411q150 0 241 -82q68 23 68 111q0 46 -14 100h155q11 -57 11 -102q0 -79 -36 -134.5t-102 -80.5q91 -175 91 -516q0 -368 -99 -547.5t-323 -179.5q-214 0 -314 178.5t-100 546.5q0 706 422 706zM500 1262q-242 0 -242 -553q0 -584 242 -584q128 0 184.5 142
t56.5 440q0 291 -57.5 423t-183.5 132zM164 1747h217l225 -244h-174z" />
    <glyph glyph-name="uni1EDD" unicode="&#x1edd;" horiz-adv-x="870" 
d="M442 1061q115 0 191 -55q67 23 67 110q0 47 -14 101h156q10 -52 10 -103q0 -157 -127 -211q76 -136 76 -371q0 -550 -367 -550q-184 0 -274 134.5t-90 411.5q0 267 97.5 400t274.5 133zM436 915q-97 0 -145.5 -94t-48.5 -293q0 -403 194 -403q193 0 193 403
q0 387 -193 387zM127 1477h201l215 -283h-156z" />
    <glyph glyph-name="uni1EDE" unicode="&#x1ede;" horiz-adv-x="999" 
d="M504 1411q150 0 241 -82q68 23 68 111q0 46 -14 100h155q11 -57 11 -102q0 -79 -36 -134.5t-102 -80.5q91 -175 91 -516q0 -368 -99 -547.5t-323 -179.5q-214 0 -314 178.5t-100 546.5q0 706 422 706zM500 1262q-242 0 -242 -553q0 -584 242 -584q128 0 184.5 142
t56.5 440q0 291 -57.5 423t-183.5 132zM567 1487h-151q59 54 80.5 85t21.5 68q0 26 -19.5 44t-54.5 18q-53 0 -106 -33l-39 100q78 58 186 58q87 0 135 -45.5t48 -110.5q0 -57 -28 -100t-73 -84z" />
    <glyph glyph-name="uni1EDF" unicode="&#x1edf;" horiz-adv-x="870" 
d="M442 1061q115 0 191 -55q67 23 67 110q0 47 -14 101h156q10 -52 10 -103q0 -157 -127 -211q76 -136 76 -371q0 -550 -367 -550q-184 0 -274 134.5t-90 411.5q0 267 97.5 400t274.5 133zM436 915q-97 0 -145.5 -94t-48.5 -293q0 -403 194 -403q193 0 193 403
q0 387 -193 387zM506 1182h-152q59 54 81 85.5t22 67.5q0 26 -19.5 44t-54.5 18q-54 0 -107 -33l-38 100q78 58 186 58q86 0 134 -45t48 -111q0 -57 -27.5 -100t-72.5 -84z" />
    <glyph glyph-name="uni1EE0" unicode="&#x1ee0;" horiz-adv-x="999" 
d="M504 1411q150 0 241 -82q68 23 68 111q0 46 -14 100h155q11 -57 11 -102q0 -79 -36 -134.5t-102 -80.5q91 -175 91 -516q0 -368 -99 -547.5t-323 -179.5q-214 0 -314 178.5t-100 546.5q0 706 422 706zM500 1262q-242 0 -242 -553q0 -584 242 -584q128 0 184.5 142
t56.5 440q0 291 -57.5 423t-183.5 132zM326 1528h-115v41q0 90 40 131t105 41q55 0 145.5 -40t114.5 -40t37 13.5t13 49.5v21h114v-31q0 -188 -149 -188q-53 0 -140 40t-116 40q-49 0 -49 -54v-24z" />
    <glyph glyph-name="uni1EE1" unicode="&#x1ee1;" horiz-adv-x="870" 
d="M442 1061q115 0 191 -55q67 23 67 110q0 47 -14 101h156q10 -52 10 -103q0 -157 -127 -211q76 -136 76 -371q0 -550 -367 -550q-184 0 -274 134.5t-90 411.5q0 267 97.5 400t274.5 133zM436 915q-97 0 -145.5 -94t-48.5 -293q0 -403 194 -403q193 0 193 403
q0 387 -193 387zM285 1210h-117v47q0 166 137 166q44 0 90.5 -20.5t84.5 -41t61 -20.5q22 0 32.5 15.5t10.5 56.5v14h114v-38q0 -98 -37 -139.5t-104 -41.5q-41 0 -85.5 21t-82.5 42t-63 21q-41 0 -41 -59v-23z" />
    <glyph glyph-name="uni1EE2" unicode="&#x1ee2;" horiz-adv-x="999" 
d="M504 1411q150 0 241 -82q68 23 68 111q0 46 -14 100h155q11 -57 11 -102q0 -79 -36 -134.5t-102 -80.5q91 -175 91 -516q0 -368 -99 -547.5t-323 -179.5q-214 0 -314 178.5t-100 546.5q0 706 422 706zM500 1262q-242 0 -242 -553q0 -584 242 -584q128 0 184.5 142
t56.5 440q0 291 -57.5 423t-183.5 132zM584 -344h-172v203h172v-203z" />
    <glyph glyph-name="uni1EE3" unicode="&#x1ee3;" horiz-adv-x="870" 
d="M442 1061q115 0 191 -55q67 23 67 110q0 47 -14 101h156q10 -52 10 -103q0 -157 -127 -211q76 -136 76 -371q0 -550 -367 -550q-184 0 -274 134.5t-90 411.5q0 267 97.5 400t274.5 133zM436 915q-97 0 -145.5 -94t-48.5 -293q0 -403 194 -403q193 0 193 403
q0 387 -193 387zM518 -344h-172v203h172v-203z" />
    <glyph glyph-name="uni1EE4" unicode="&#x1ee4;" horiz-adv-x="1026" 
d="M123 1391h172v-973q0 -293 219 -293q123 0 171 76t48 217v973h170v-975q0 -99 -19.5 -175.5t-63.5 -137.5t-122 -93.5t-188 -32.5q-107 0 -183.5 30.5t-120.5 89.5t-63.5 135.5t-19.5 177.5v981zM596 -344h-172v203h172v-203z" />
    <glyph glyph-name="uni1EE5" unicode="&#x1ee5;" horiz-adv-x="909" 
d="M791 1042v-753q0 -238 2 -289h-162q-5 37 -8 133q-59 -151 -244 -151q-260 0 -260 311v749h168v-710q0 -101 33 -152t114 -51q90 0 138.5 64t48.5 215v634h170zM539 -344h-172v203h172v-203z" />
    <glyph glyph-name="uni1EE6" unicode="&#x1ee6;" horiz-adv-x="1026" 
d="M123 1391h172v-973q0 -293 219 -293q123 0 171 76t48 217v973h170v-975q0 -99 -19.5 -175.5t-63.5 -137.5t-122 -93.5t-188 -32.5q-107 0 -183.5 30.5t-120.5 89.5t-63.5 135.5t-19.5 177.5v981zM580 1466h-152q58 53 80 85t22 69q0 26 -19 43.5t-54 17.5q-55 0 -107 -32
l-39 100q77 57 187 57q87 0 134.5 -45t47.5 -110q0 -94 -100 -185z" />
    <glyph glyph-name="uni1EE7" unicode="&#x1ee7;" horiz-adv-x="909" 
d="M791 1042v-753q0 -238 2 -289h-162q-5 37 -8 133q-59 -151 -244 -151q-260 0 -260 311v749h168v-710q0 -101 33 -152t114 -51q90 0 138.5 64t48.5 215v634h170zM526 1182h-151q59 54 80.5 85t21.5 68q0 26 -19.5 44t-54.5 18q-53 0 -106 -33l-39 100q78 58 186 58
q87 0 135 -45.5t48 -110.5q0 -57 -28 -100t-73 -84z" />
    <glyph glyph-name="uni1EE8" unicode="&#x1ee8;" horiz-adv-x="1026" 
d="M123 1391h172v-973q0 -293 219 -293q123 0 171 76t48 217v973h72q43 9 64.5 39.5t21.5 76.5q0 47 -14 101h155q10 -52 10 -103q0 -80 -36 -135t-103 -80v-874q0 -99 -19.5 -175.5t-63.5 -137.5t-122 -93.5t-188 -32.5q-107 0 -183.5 30.5t-120.5 89.5t-63.5 135.5
t-19.5 177.5v981zM635 1747h209l-271 -244h-170z" />
    <glyph glyph-name="uni1EE9" unicode="&#x1ee9;" horiz-adv-x="909" 
d="M623 133q-59 -151 -244 -151q-260 0 -260 311v749h168v-710q0 -101 33 -152t114 -51q90 0 138.5 64t48.5 215v634h63q96 14 96 119q0 47 -14 101h156q10 -52 10 -103q0 -165 -141 -217v-653q0 -238 2 -289h-162q-5 37 -8 133zM561 1479h199l-260 -285h-152z" />
    <glyph glyph-name="uni1EEA" unicode="&#x1eea;" horiz-adv-x="1026" 
d="M123 1391h172v-973q0 -293 219 -293q123 0 171 76t48 217v973h72q43 9 64.5 39.5t21.5 76.5q0 47 -14 101h155q10 -52 10 -103q0 -80 -36 -135t-103 -80v-874q0 -99 -19.5 -175.5t-63.5 -137.5t-122 -93.5t-188 -32.5q-107 0 -183.5 30.5t-120.5 89.5t-63.5 135.5
t-19.5 177.5v981zM186 1747h217l226 -244h-174z" />
    <glyph glyph-name="uni1EEB" unicode="&#x1eeb;" horiz-adv-x="909" 
d="M623 133q-59 -151 -244 -151q-260 0 -260 311v749h168v-710q0 -101 33 -152t114 -51q90 0 138.5 64t48.5 215v634h63q96 14 96 119q0 47 -14 101h156q10 -52 10 -103q0 -165 -141 -217v-653q0 -238 2 -289h-162q-5 37 -8 133zM147 1477h201l215 -283h-155z" />
    <glyph glyph-name="uni1EEC" unicode="&#x1eec;" horiz-adv-x="1026" 
d="M123 1391h172v-973q0 -293 219 -293q123 0 171 76t48 217v973h72q43 9 64.5 39.5t21.5 76.5q0 47 -14 101h155q10 -52 10 -103q0 -80 -36 -135t-103 -80v-874q0 -99 -19.5 -175.5t-63.5 -137.5t-122 -93.5t-188 -32.5q-107 0 -183.5 30.5t-120.5 89.5t-63.5 135.5
t-19.5 177.5v981zM584 1479h-152q59 54 81 85.5t22 67.5q0 26 -19.5 44t-54.5 18q-54 0 -107 -33l-39 100q78 58 187 58q86 0 134 -45t48 -111q0 -57 -27.5 -100t-72.5 -84z" />
    <glyph glyph-name="uni1EED" unicode="&#x1eed;" horiz-adv-x="909" 
d="M623 133q-59 -151 -244 -151q-260 0 -260 311v749h168v-710q0 -101 33 -152t114 -51q90 0 138.5 64t48.5 215v634h63q96 14 96 119q0 47 -14 101h156q10 -52 10 -103q0 -165 -141 -217v-653q0 -238 2 -289h-162q-5 37 -8 133zM526 1182h-151q59 54 80.5 85t21.5 68
q0 26 -19.5 44t-54.5 18q-53 0 -106 -33l-39 100q78 58 186 58q87 0 135 -45.5t48 -110.5q0 -57 -28 -100t-73 -84z" />
    <glyph glyph-name="uni1EEE" unicode="&#x1eee;" horiz-adv-x="1026" 
d="M123 1391h172v-973q0 -293 219 -293q123 0 171 76t48 217v973h72q43 9 64.5 39.5t21.5 76.5q0 47 -14 101h155q10 -52 10 -103q0 -80 -36 -135t-103 -80v-874q0 -99 -19.5 -175.5t-63.5 -137.5t-122 -93.5t-188 -32.5q-107 0 -183.5 30.5t-120.5 89.5t-63.5 135.5
t-19.5 177.5v981zM342 1528h-115v41q0 90 40 131t106 41q55 0 145.5 -40t114.5 -40t36.5 13.5t12.5 49.5v21h115v-31q0 -188 -150 -188q-53 0 -140 40t-116 40q-49 0 -49 -54v-24z" />
    <glyph glyph-name="uni1EEF" unicode="&#x1eef;" horiz-adv-x="909" 
d="M623 133q-59 -151 -244 -151q-260 0 -260 311v749h168v-710q0 -101 33 -152t114 -51q90 0 138.5 64t48.5 215v634h63q96 14 96 119q0 47 -14 101h156q10 -52 10 -103q0 -165 -141 -217v-653q0 -238 2 -289h-162q-5 37 -8 133zM305 1210h-117v47q0 166 138 166
q44 0 90 -20.5t84 -41t61 -20.5q22 0 32.5 15.5t10.5 56.5v14h115v-38q0 -98 -37 -139.5t-104 -41.5q-41 0 -85.5 21t-83 42t-63.5 21q-41 0 -41 -59v-23z" />
    <glyph glyph-name="uni1EF0" unicode="&#x1ef0;" horiz-adv-x="1026" 
d="M123 1391h172v-973q0 -293 219 -293q123 0 171 76t48 217v973h72q43 9 64.5 39.5t21.5 76.5q0 47 -14 101h155q10 -52 10 -103q0 -80 -36 -135t-103 -80v-874q0 -99 -19.5 -175.5t-63.5 -137.5t-122 -93.5t-188 -32.5q-107 0 -183.5 30.5t-120.5 89.5t-63.5 135.5
t-19.5 177.5v981zM596 -344h-172v203h172v-203z" />
    <glyph glyph-name="uni1EF1" unicode="&#x1ef1;" horiz-adv-x="909" 
d="M623 133q-59 -151 -244 -151q-260 0 -260 311v749h168v-710q0 -101 33 -152t114 -51q90 0 138.5 64t48.5 215v634h63q96 14 96 119q0 47 -14 101h156q10 -52 10 -103q0 -165 -141 -217v-653q0 -238 2 -289h-162q-5 37 -8 133zM539 -344h-172v203h172v-203z" />
    <glyph glyph-name="Ygrave" unicode="&#x1ef2;" horiz-adv-x="858" 
d="M514 0h-172v522q0 24 -8 37l-352 832h192q25 -66 91.5 -235t108 -277t60.5 -166q21 63 64 174.5t108 275.5t90 228h181l-357 -832q-6 -12 -6 -39v-520zM102 1737h217l226 -244h-174z" />
    <glyph glyph-name="ygrave" unicode="&#x1ef3;" horiz-adv-x="798" 
d="M16 1042h185q23 -90 59.5 -231t55 -214.5t40.5 -162.5t33 -142.5t14 -86.5h3q19 118 204 837h172l-305 -1093q-21 -77 -42.5 -133t-45.5 -94t-47.5 -62t-54.5 -36.5t-60 -16.5t-69 -4q-48 0 -78 6v147q28 -4 70 -4q74 0 108.5 49.5t65.5 178.5zM92 1477h201l215 -283
h-156z" />
    <glyph glyph-name="uni1EF4" unicode="&#x1ef4;" horiz-adv-x="858" 
d="M514 0h-172v522q0 24 -8 37l-352 832h192q25 -66 91.5 -235t108 -277t60.5 -166q21 63 64 174.5t108 275.5t90 228h181l-357 -832q-6 -12 -6 -39v-520zM514 -344h-172v203h172v-203z" />
    <glyph glyph-name="uni1EF5" unicode="&#x1ef5;" horiz-adv-x="798" 
d="M16 1042h185q23 -90 59.5 -231t55 -214.5t40.5 -162.5t33 -142.5t14 -86.5h3q19 118 204 837h172l-305 -1093q-21 -77 -42.5 -133t-45.5 -94t-47.5 -62t-54.5 -36.5t-60 -16.5t-69 -4q-48 0 -78 6v147q28 -4 70 -4q74 0 108.5 49.5t65.5 178.5zM723 -344h-172v203h172
v-203z" />
    <glyph glyph-name="uni1EF6" unicode="&#x1ef6;" horiz-adv-x="858" 
d="M514 0h-172v522q0 24 -8 37l-352 832h192q25 -66 91.5 -235t108 -277t60.5 -166q21 63 64 174.5t108 275.5t90 228h181l-357 -832q-6 -12 -6 -39v-520zM494 1462h-152q58 53 80 85t22 69q0 26 -19 43.5t-54 17.5q-55 0 -107 -32l-39 100q77 57 187 57q87 0 134.5 -45
t47.5 -110q0 -94 -100 -185z" />
    <glyph glyph-name="uni1EF7" unicode="&#x1ef7;" horiz-adv-x="798" 
d="M16 1042h185q23 -90 59.5 -231t55 -214.5t40.5 -162.5t33 -142.5t14 -86.5h3q19 118 204 837h172l-305 -1093q-21 -77 -42.5 -133t-45.5 -94t-47.5 -62t-54.5 -36.5t-60 -16.5t-69 -4q-48 0 -78 6v147q28 -4 70 -4q74 0 108.5 49.5t65.5 178.5zM471 1182h-152
q59 54 81 85.5t22 67.5q0 26 -19.5 44t-54.5 18q-53 0 -106 -33l-39 100q78 58 186 58q86 0 134 -45t48 -111q0 -57 -27.5 -100t-72.5 -84z" />
    <glyph glyph-name="uni1EF8" unicode="&#x1ef8;" horiz-adv-x="858" 
d="M514 0h-172v522q0 24 -8 37l-352 832h192q25 -66 91.5 -235t108 -277t60.5 -166q21 63 64 174.5t108 275.5t90 228h181l-357 -832q-6 -12 -6 -39v-520zM258 1518h-115v41q0 90 40 131t106 41q55 0 145.5 -40t114.5 -40t36.5 13.5t12.5 49.5v21h115v-31q0 -188 -150 -188
q-53 0 -140 39.5t-116 39.5q-49 0 -49 -53v-24z" />
    <glyph glyph-name="uni1EF9" unicode="&#x1ef9;" horiz-adv-x="798" 
d="M16 1042h185q23 -90 59.5 -231t55 -214.5t40.5 -162.5t33 -142.5t14 -86.5h3q19 118 204 837h172l-305 -1093q-21 -77 -42.5 -133t-45.5 -94t-47.5 -62t-54.5 -36.5t-60 -16.5t-69 -4q-48 0 -78 6v147q28 -4 70 -4q74 0 108.5 49.5t65.5 178.5zM250 1210h-117v47
q0 166 137 166q44 0 90.5 -20.5t84.5 -41t61 -20.5q22 0 32.5 15.5t10.5 56.5v14h115v-38q0 -181 -142 -181q-41 0 -85.5 21t-82.5 42t-63 21q-41 0 -41 -59v-23z" />
    <glyph glyph-name="uni2007" unicode="&#x2007;" horiz-adv-x="894" 
 />
    <glyph glyph-name="uni2010" unicode="&#x2010;" horiz-adv-x="563" 
d="M70 606h424v-149h-424v149z" />
    <glyph glyph-name="figuredash" unicode="&#x2012;" horiz-adv-x="894" 
d="M143 735h607v-147h-607v147z" />
    <glyph glyph-name="endash" unicode="&#x2013;" horiz-adv-x="788" 
d="M76 604h637v-147h-637v147z" />
    <glyph glyph-name="emdash" unicode="&#x2014;" horiz-adv-x="1351" 
d="M76 604h1202v-147h-1202v147z" />
    <glyph glyph-name="uni2015" unicode="&#x2015;" horiz-adv-x="1351" 
d="M76 604h1202v-147h-1202v147z" />
    <glyph glyph-name="quoteleft" unicode="&#x2018;" horiz-adv-x="315" 
d="M150 1462h133q-72 -263 -72 -479h-162q1 123 33 263.5t68 215.5z" />
    <glyph glyph-name="quoteright" unicode="&#x2019;" horiz-adv-x="315" 
d="M166 983h-133q71 260 71 479h162q-1 -123 -32.5 -263.5t-67.5 -215.5z" />
    <glyph glyph-name="quotesinglbase" unicode="&#x201a;" horiz-adv-x="315" 
d="M166 -207h-133q71 260 71 481h162q-1 -124 -32.5 -265.5t-67.5 -215.5z" />
    <glyph glyph-name="quotedblleft" unicode="&#x201c;" horiz-adv-x="563" 
d="M403 1462h127q-71 -253 -71 -479h-152q3 130 31 263t65 216zM145 1462h127q-30 -95 -50.5 -235.5t-20.5 -243.5h-152q3 122 32.5 261t63.5 218z" />
    <glyph glyph-name="quotedblright" unicode="&#x201d;" horiz-adv-x="563" 
d="M160 983h-127q71 253 71 479h152q-1 -129 -30 -261.5t-66 -217.5zM418 983h-125q29 96 49.5 235.5t22.5 243.5h149q-1 -121 -31 -259.5t-65 -219.5z" />
    <glyph glyph-name="quotedblbase" unicode="&#x201e;" horiz-adv-x="563" 
d="M160 -205h-127q71 253 71 479h152q-1 -129 -30 -261.5t-66 -217.5zM418 -205h-125q29 96 49.5 235.5t22.5 243.5h149q-1 -121 -31 -259.5t-65 -219.5z" />
    <glyph glyph-name="dagger" unicode="&#x2020;" horiz-adv-x="780" 
d="M297 1290h154l-11 -409l267 10v-150l-267 11l11 -928h-154l10 928l-266 -11v150l266 -10z" />
    <glyph glyph-name="daggerdbl" unicode="&#x2021;" horiz-adv-x="778" 
d="M307 352v441l-266 -11v150l266 -12l-12 366h156l-9 -366l263 12v-150l-263 11v-441l263 10v-149l-263 12l9 -424h-156l12 424l-266 -12v149z" />
    <glyph glyph-name="bullet" unicode="&#x2022;" horiz-adv-x="516" 
d="M106 680h304v-318h-304v318z" />
    <glyph glyph-name="ellipsis" unicode="&#x2026;" horiz-adv-x="1222" 
d="M252 -2h-170v289h170v-289zM655 -2h-170v289h170v-289zM1057 -2h-170v289h170v-289z" />
    <glyph glyph-name="perthousand" unicode="&#x2030;" horiz-adv-x="1988" 
d="M1657 743q124 0 191 -91.5t67 -280.5q0 -388 -262 -391q-258 0 -258 385q0 182 70 280t192 98zM1655 627q-125 0 -125 -260q0 -140 31 -204.5t96 -64.5t96 65t31 206q0 131 -30 194.5t-99 63.5zM334 1368q124 0 191 -92t67 -283q0 -187 -64.5 -288.5t-197.5 -102.5
q-258 0 -258 387q0 184 69.5 281.5t192.5 97.5zM332 1249q-65 0 -96 -61t-31 -199q0 -140 31.5 -204t97.5 -64q65 0 95 64.5t30 205.5q0 134 -29 196t-98 62zM383 0h-123l735 1352h123zM1053 743q124 0 192 -92t68 -280q0 -388 -262 -391q-132 0 -195 96t-63 289
q0 182 69 280t191 98zM1053 627q-127 0 -127 -260q0 -140 31 -204.5t96 -64.5t96 65t31 206q0 131 -30 194.5t-97 63.5z" />
    <glyph glyph-name="uni2032" unicode="&#x2032;" horiz-adv-x="434" 
d="M229 963h-127l72 495h158z" />
    <glyph glyph-name="uni2033" unicode="&#x2033;" horiz-adv-x="679" 
d="M223 969h-121l72 489h152zM475 969h-121l72 489h152z" />
    <glyph glyph-name="guilsinglleft" unicode="&#x2039;" horiz-adv-x="548" 
d="M477 881l-252 -353l254 -356h-153l-256 356l256 353h151z" />
    <glyph glyph-name="guilsinglright" unicode="&#x203a;" horiz-adv-x="548" 
d="M70 172l252 354l-252 357h151l258 -357l-258 -354h-151z" />
    <glyph glyph-name="fraction" unicode="&#x2044;" horiz-adv-x="247" 
d="M-182 0h-121l731 1352h121z" />
    <glyph glyph-name="zero.sups" unicode="&#x2070;" horiz-adv-x="624" 
d="M317 1624q126 0 188 -93t62 -286q0 -200 -63 -295.5t-195 -95.5q-128 0 -190 97.5t-62 293.5q0 379 260 379zM315 1513q-40 0 -66.5 -22.5t-42.5 -83.5t-16 -162q0 -107 16 -170t41.5 -85.5t65.5 -22.5q64 0 92.5 64.5t28.5 213.5q0 146 -28.5 207t-90.5 61z" />
    <glyph glyph-name="four.sups" unicode="&#x2074;" horiz-adv-x="591" 
d="M469 866h-123v195h-309v96l272 459h160v-453h94l-10 -102h-84v-195zM164 1163h182v150q0 92 4 186q-17 -37 -90 -165.5t-96 -170.5z" />
    <glyph glyph-name="five.sups" unicode="&#x2075;" horiz-adv-x="616" 
d="M528 1618l-16 -109h-289q-7 -99 -20 -194q47 51 139 51q103 0 160 -63.5t57 -178.5q0 -116 -66 -191t-192 -75q-116 0 -178.5 61.5t-67.5 157.5h127q15 -112 121 -112q121 0 121 153q0 74 -27 110t-90 36q-81 0 -119 -78l-118 18q29 177 49 414h409z" />
    <glyph glyph-name="six.sups" unicode="&#x2076;" horiz-adv-x="612" 
d="M547 1432h-123q-4 18 -9.5 32t-16.5 29t-31 23t-48 8q-128 0 -133 -242q51 78 168 78q101 0 156 -66t55 -176q0 -111 -65.5 -186.5t-184.5 -75.5q-258 0 -258 367q0 85 13 154t42 127t82.5 90t127.5 32q109 0 164 -53t61 -141zM317 963q56 0 87.5 40.5t31.5 108.5
q0 145 -119 145q-57 0 -90.5 -36.5t-33.5 -92.5q0 -28 5.5 -54.5t18.5 -53t38.5 -42t61.5 -15.5z" />
    <glyph glyph-name="seven.sups" unicode="&#x2077;" horiz-adv-x="548" 
d="M31 1618h475v-96q-83 -121 -154.5 -296.5t-101.5 -359.5h-139q28 180 107 363.5t147 275.5h-334v113z" />
    <glyph glyph-name="eight.sups" unicode="&#x2078;" horiz-adv-x="604" 
d="M297 856q-117 0 -182.5 62.5t-65.5 162.5q0 70 34.5 116.5t82.5 68.5q-88 48 -88 161q0 87 58.5 143t170.5 56q106 0 162.5 -56t56.5 -143q0 -111 -90 -157q50 -21 83.5 -69t33.5 -118q0 -103 -68 -165t-188 -62zM303 958q59 0 90 34.5t31 94.5q0 64 -32.5 95.5
t-90.5 31.5q-55 0 -88 -33.5t-33 -93.5q0 -55 32 -92t91 -37zM303 1526q-51 0 -75.5 -30t-24.5 -75q0 -46 24 -76t76 -30q98 0 98 104q0 107 -98 107z" />
    <glyph glyph-name="nine.sups" unicode="&#x2079;" horiz-adv-x="610" 
d="M57 1055h129q10 -45 34 -69.5t75 -24.5q27 0 47.5 11t34 32.5t22 44.5t13.5 56t7 57.5t3 58.5q-46 -74 -156 -74q-97 0 -158 61t-61 170q0 103 66 175.5t182 72.5q129 0 193.5 -85.5t64.5 -266.5q0 -204 -62 -311t-202 -107q-111 0 -168 57.5t-64 141.5zM295 1524
q-55 0 -87 -38t-32 -104q0 -59 31.5 -96t89.5 -37q52 0 85.5 35t33.5 94q0 25 -4.5 47.5t-16.5 46.5t-37.5 38t-62.5 14z" />
    <glyph glyph-name="parenleft.sups" unicode="&#x207d;" horiz-adv-x="382" 
d="M219 1747h119q-143 -235 -143 -520q0 -286 143 -514h-119q-57 81 -101 214t-44 300q0 296 145 520z" />
    <glyph glyph-name="parenright.sups" unicode="&#x207e;" horiz-adv-x="382" 
d="M164 713h-121q143 235 143 520q0 283 -143 514h121q56 -80 99.5 -213.5t43.5 -300.5q0 -293 -143 -520z" />
    <glyph glyph-name="n.sups" unicode="&#x207f;" horiz-adv-x="622" 
d="M74 598v446q0 175 -2 218h116q6 -20 9 -91q49 103 168 103q79 0 130.5 -50.5t51.5 -172.5v-453h-125v426q0 67 -22 102t-78 35q-123 0 -123 -178v-385h-125z" />
    <glyph glyph-name="zero.subs" unicode="&#x2080;" horiz-adv-x="624" 
d="M317 494q126 0 188 -93t62 -286q0 -200 -63 -295.5t-195 -95.5q-128 0 -190 97.5t-62 293.5q0 379 260 379zM315 383q-40 0 -66.5 -22.5t-42.5 -83.5t-16 -162q0 -107 16 -170t41.5 -86t65.5 -23q64 0 92.5 65t28.5 214q0 146 -28.5 207t-90.5 61z" />
    <glyph glyph-name="one.subs" unicode="&#x2081;" horiz-adv-x="399" 
d="M293 -264h-133v606q-21 -10 -60 -18.5t-59 -8.5v101q98 16 162 80h90v-760z" />
    <glyph glyph-name="two.subs" unicode="&#x2082;" horiz-adv-x="577" 
d="M522 -264h-471v12q0 94 52.5 181t162.5 177q68 58 91.5 97.5t23.5 79.5q0 106 -96 106q-100 0 -109 -135h-121q3 107 61 174.5t177 67.5q115 0 169 -62t54 -149q0 -40 -8.5 -70.5t-33 -62.5t-45.5 -53t-69 -64q-73 -64 -109 -106.5t-46 -80.5h338z" />
    <glyph glyph-name="three.subs" unicode="&#x2083;" horiz-adv-x="593" 
d="M227 84v106h43q119 0 119 101q0 98 -98 98q-38 0 -62.5 -18.5t-32 -38t-12.5 -47.5h-121q2 25 8.5 49.5t23.5 55t41.5 53t66.5 38t96 15.5q110 0 165.5 -54t55.5 -141q0 -64 -32.5 -103.5t-71.5 -52.5q53 -17 93 -62t40 -124q0 -102 -64.5 -166.5t-189.5 -64.5
q-71 0 -123 22.5t-78 59t-37.5 72t-13.5 73.5h125q17 -121 127 -121q59 0 89 33t30 94q0 123 -148 123h-39z" />
    <glyph glyph-name="four.subs" unicode="&#x2084;" horiz-adv-x="591" 
d="M469 -264h-123v194h-309v97l272 458h160v-452h94l-10 -103h-84v-194zM164 33h182v149q0 93 4 187q-17 -37 -90 -165.5t-96 -170.5z" />
    <glyph glyph-name="five.subs" unicode="&#x2085;" horiz-adv-x="616" 
d="M528 487l-16 -108h-289q-7 -100 -20 -195q48 52 139 52q103 0 160 -63.5t57 -178.5q0 -116 -66 -191t-192 -75q-116 0 -178.5 61.5t-67.5 157.5h127q15 -113 121 -113q63 0 92 41.5t29 112.5q0 74 -27 109.5t-90 35.5q-81 0 -119 -78l-118 19q29 178 49 413h409z" />
    <glyph glyph-name="six.subs" unicode="&#x2086;" horiz-adv-x="612" 
d="M547 301h-123q-4 18 -9.5 32t-16.5 29t-31 23t-48 8q-128 0 -133 -241q51 77 168 77q101 0 156 -65.5t55 -175.5q0 -111 -65.5 -186.5t-184.5 -75.5q-258 0 -258 366q0 68 7.5 125t26.5 109.5t49 89.5t76 58.5t106 21.5q109 0 164 -53.5t61 -141.5zM317 -168
q56 0 87.5 40.5t31.5 109.5q0 145 -119 145q-57 0 -90.5 -36.5t-33.5 -92.5q0 -28 5.5 -55t18.5 -53t38.5 -42t61.5 -16z" />
    <glyph glyph-name="seven.subs" unicode="&#x2087;" horiz-adv-x="548" 
d="M31 487h475v-96q-83 -122 -154.5 -296.5t-101.5 -358.5h-139q28 180 107 363.5t147 275.5h-334v112z" />
    <glyph glyph-name="eight.subs" unicode="&#x2088;" horiz-adv-x="604" 
d="M297 -274q-117 0 -182.5 62.5t-65.5 162.5q0 70 34 116t83 68q-88 48 -88 162q0 87 58.5 143t170.5 56q106 0 162.5 -56t56.5 -143q0 -112 -90 -158q50 -21 83.5 -68.5t33.5 -117.5q0 -103 -68 -165t-188 -62zM303 -172q59 0 90 34.5t31 94.5q0 64 -32.5 95.5t-90.5 31.5
q-55 0 -88 -33.5t-33 -93.5q0 -55 32 -92t91 -37zM303 395q-51 0 -75.5 -29.5t-24.5 -74.5q0 -46 24 -76.5t76 -30.5q98 0 98 105q0 106 -98 106z" />
    <glyph glyph-name="nine.subs" unicode="&#x2089;" horiz-adv-x="610" 
d="M57 -76h129q10 -45 34 -69.5t75 -24.5q27 0 47.5 11t34 32.5t22 44.5t13.5 56t7 57.5t3 58.5q-46 -74 -156 -74q-97 0 -158 61.5t-61 170.5q0 103 66 175.5t182 72.5q129 0 193.5 -86t64.5 -267q0 -203 -61.5 -310t-202.5 -107q-111 0 -168 57t-64 141zM295 393
q-56 0 -87.5 -37.5t-31.5 -103.5q0 -59 31.5 -96t89.5 -37q52 0 85.5 35t33.5 94q0 25 -4.5 47.5t-16.5 46t-37.5 37.5t-62.5 14z" />
    <glyph glyph-name="parenleft.subs" unicode="&#x208d;" horiz-adv-x="382" 
d="M219 616h119q-143 -235 -143 -520q0 -286 143 -514h-119q-57 81 -101 214t-44 300q0 296 145 520z" />
    <glyph glyph-name="parenright.subs" unicode="&#x208e;" horiz-adv-x="382" 
d="M164 -418h-121q143 235 143 520q0 283 -143 514h121q56 -80 99.5 -213.5t43.5 -300.5q0 -293 -143 -520z" />
    <glyph glyph-name="colonmonetary" unicode="&#x20a1;" horiz-adv-x="884" 
d="M463 141q15 0 39 4v1061q-10 2 -33 2q-17 0 -41 -4v-1059q20 -4 35 -4zM264 696q0 -363 74 -483v924q-74 -109 -74 -441zM428 -145h-90v161q-72 26 -121 84.5t-76 150t-38 197.5t-11 246q0 530 246 631v154h90v-131q14 2 43 2h31v129h90v-144q207 -59 215 -336h-162
q-9 109 -53 158v-964q47 52 55 163h162q-15 -276 -217 -340v-161h-90v145q-14 -2 -43 -2q-21 0 -31 2v-145z" />
    <glyph glyph-name="franc" unicode="&#x20a3;" horiz-adv-x="823" 
d="M164 0v299h-144v117h144v936h614v-150h-444v-405h411v-148h-411v-233h213v-117h-213v-299h-170z" />
    <glyph glyph-name="lira" unicode="&#x20a4;" horiz-adv-x="872" 
d="M797 0h-738v133q69 45 99 133t32 240h-153v102h151q0 60 -6 119h-145v104h139q-4 94 -4 144q0 190 79 291.5t236 101.5q158 0 231 -90.5t73 -239.5h-156q-3 87 -36.5 136t-113.5 49q-83 0 -116 -59.5t-33 -184.5q0 -22 1 -46.5t2.5 -54t2.5 -47.5h262v-104h-254
q4 -74 4 -119h250v-102h-252q-3 -125 -23.5 -211.5t-68.5 -147.5h561z" />
    <glyph glyph-name="uni20A6" unicode="&#x20a6;" horiz-adv-x="878" 
d="M233 1169q8 -124 11 -301h78l-80 301h-9zM616 227h13q-12 157 -15 316h-79zM246 0h-135v543h-88v102h88v119h-88v104h88v484h211l127 -484h161v484h135v-484h89v-104h-89v-119h89v-102h-89v-543h-192l-145 543h-162v-543zM612 645q-2 39 -2 119h-135l31 -119h106z
M381 645l-31 119h-104v-119h135z" />
    <glyph glyph-name="peseta" unicode="&#x20a7;" horiz-adv-x="890" 
d="M113 0v885h-99v119h99v348h307q169 0 260 -91t102 -257h84v-119h-86q-15 -170 -113 -261.5t-274 -91.5h-110v-532h-170zM281 1217v-213h333q-9 107 -60.5 160t-150.5 53h-122zM281 668h102q107 0 163 52.5t66 164.5h-331v-217z" />
    <glyph glyph-name="dong" unicode="&#x20ab;" horiz-adv-x="872" 
d="M96 -135h656v-119h-656v119zM582 1389h163v-142h111v-119h-111v-860q0 -158 7 -268h-148q-7 46 -10 139q-63 -157 -240 -157q-149 0 -224 127.5t-75 400.5q0 230 87 359.5t237 129.5q151 0 203 -102v231h-346v119h346v142zM223 508q0 -207 43 -293t133 -86q98 0 143.5 86
t45.5 297q0 189 -40 264.5t-134 75.5q-191 0 -191 -344z" />
    <glyph glyph-name="Euro" unicode="&#x20ac;" horiz-adv-x="903" 
d="M690 332h160q-4 -44 -15 -87t-36 -92t-61 -85t-95 -60t-133 -24q-176 0 -257 133.5t-97 408.5h-119v105h115v61v53h-115v105h121q40 516 366 516q74 0 132 -23t92 -57t56 -80.5t30.5 -86.5t9.5 -81h-162q0 25 -6.5 52.5t-22 59t-49.5 51.5t-82 20q-90 0 -138 -87
t-60 -284h317v-105h-322v-49v-65h322v-105h-317q9 -206 53.5 -301.5t140.5 -95.5q49 0 84.5 22.5t53 59t24.5 64t10 57.5z" />
    <glyph glyph-name="uni20B1" unicode="&#x20b1;" horiz-adv-x="919" 
d="M135 0v778h-112v101h112v100h-112v98h112v275h291q148 0 238 -71t120 -204h97v-98h-84q2 -14 2 -43q0 -39 -2 -57h84v-101h-101q-33 -134 -126 -205t-246 -71h-107v-502h-166zM299 1219v-142h322q-43 142 -203 142h-119zM637 936q0 29 -2 43h-336v-100h336q2 18 2 57z
M299 635h102q88 0 140 34.5t75 108.5h-317v-143z" />
    <glyph glyph-name="uni20B2" unicode="&#x20b2;" horiz-adv-x="899" 
d="M799 1022h-160q-2 29 -6.5 50.5t-17.5 54t-42 54.5t-71 29v-1067q75 3 127 25v526h164v-631q-150 -60 -291 -65v-164h-103v170q-177 29 -251 197.5t-74 503.5q0 595 325 645v135h103v-133q82 -6 141 -36t91.5 -78t47.5 -101t17 -115zM244 715q0 -252 36 -383.5
t119 -169.5v1042q-84 -29 -119.5 -151.5t-35.5 -337.5z" />
    <glyph glyph-name="uni20B4" unicode="&#x20b4;" horiz-adv-x="856" 
d="M260 1038h-151q2 52 14.5 98.5t37.5 89.5t61.5 74t90.5 49.5t121 18.5q155 0 232 -87t77 -228q0 -123 -59 -215h100v-103h-190q-41 -38 -125 -102l-2 -2h291v-103h-410q-54 -57 -73 -105t-19 -110q0 -86 46 -140t124 -54q180 0 195 217h153q-6 -164 -92 -259t-262 -95
q-150 0 -240 85t-90 248q0 120 64 213h-97v103h187q51 48 127 104h-287v103h405q52 52 72.5 101.5t18.5 111.5q0 35 -7.5 65t-24 57.5t-48 43.5t-74.5 16q-45 0 -77 -15.5t-49.5 -44.5t-26.5 -60.5t-13 -74.5z" />
    <glyph glyph-name="uni20B5" unicode="&#x20b5;" horiz-adv-x="870" 
d="M264 696q0 -250 36 -384t120 -162v1050q-83 -27 -119.5 -149.5t-36.5 -354.5zM516 -170h-96v170q-77 8 -134.5 44t-94.5 93.5t-59 144.5t-31 185.5t-9 226.5q0 608 328 652v135h96v-133q83 -6 143.5 -38t93 -84t48.5 -110t18 -127h-164q-14 189 -139 215v-1059
q38 8 65 29.5t42.5 53.5t23 64.5t10.5 74.5h164q-23 -338 -305 -367v-170z" />
    <glyph glyph-name="uni20B9" unicode="&#x20b9;" horiz-adv-x="847" 
d="M78 573v140h137q132 0 200 63t68 205v6h-405v111h387q-49 131 -238 131h-149v123h723v-107h-250q62 -59 88 -147h162v-111h-148v-6q0 -152 -67 -247.5t-191 -133.5l350 -600h-192l-334 573h-14h-127z" />
    <glyph glyph-name="uni20BA" unicode="&#x20ba;" horiz-adv-x="882" 
d="M360 0h-167v567l-168 -71v125l168 71v121l-168 -72v125l168 72v414h167v-340l230 98v-125l-230 -98v-123l230 98v-125l-230 -98v-485q156 0 231 89.5t89 270.5h158q-3 -77 -18.5 -146.5t-51 -138.5t-87.5 -118.5t-134.5 -80t-186.5 -30.5z" />
    <glyph glyph-name="uni20BD" unicode="&#x20bd;" horiz-adv-x="882" 
d="M143 0v375h-143v121h143v143h-143v131h143v582h295q205 0 304.5 -97t99.5 -256q0 -166 -102.5 -263t-301.5 -97h-129v-143h281v-121h-281v-375h-166zM309 1214v-444h125q125 0 183.5 62t58.5 161q0 221 -240 221h-127z" />
    <glyph glyph-name="uni2113" unicode="&#x2113;" horiz-adv-x="755" 
d="M563 305h148q-6 -156 -80 -239.5t-211 -83.5q-149 0 -211 86.5t-62 246.5v86q-17 -16 -118 -77v151q12 8 35.5 24.5t44.5 31t38 28.5v541q0 104 20.5 176.5t58.5 111.5t83 55.5t103 16.5q126 1 185.5 -87.5t61.5 -233.5q0 -187 -80.5 -336.5t-265.5 -306.5v-162
q0 -99 27.5 -152t93.5 -53q58 0 88.5 41t40.5 135zM313 1133v-449q191 201 191 459q0 178 -92 178q-99 0 -99 -188z" />
    <glyph glyph-name="uni2116" unicode="&#x2116;" horiz-adv-x="1613" 
d="M289 0h-156v1352h213q43 -153 138 -417.5t170 -462t77 -204.5h2q-10 153 -10 594v490h156v-1352h-203q-45 159 -142 431.5t-174 477.5t-79 213h-2q10 -143 10 -620v-502zM1135 893q0 -136 29.5 -206.5t101.5 -70.5q71 0 99 69t28 210q0 126 -31 188t-100 62
q-64 0 -95.5 -60.5t-31.5 -191.5zM1028 381h465v-129h-465v129zM1264 1268q135 0 203.5 -97t68.5 -278q0 -199 -70.5 -299t-203.5 -100q-273 0 -273 399q0 184 72.5 279.5t202.5 95.5z" />
    <glyph glyph-name="uni2117" unicode="&#x2117;" horiz-adv-x="1310" 
d="M449 332v723h241q106 0 173 -61.5t67 -164.5q0 -109 -66 -172t-182 -63h-119v-262h-114zM565 954v-264h107q137 0 137 135q0 62 -34 95.5t-101 33.5h-109zM655 1366q255 0 414.5 -184.5t159.5 -491.5q0 -317 -158.5 -497.5t-415.5 -180.5q-260 0 -417.5 180.5
t-157.5 497.5q0 304 160 490t415 186zM655 1266q-216 0 -341.5 -151.5t-125.5 -428.5q0 -260 127 -416.5t340 -156.5q219 0 342 153t123 422q0 264 -127 421t-338 157z" />
    <glyph glyph-name="uni2120" unicode="&#x2120;" horiz-adv-x="880" 
d="M874 913h-94v156q0 72 8 252h-2q-14 -51 -52 -193.5t-58 -212.5h-84q-62 231 -103 406h-4q9 -97 9 -283v-125h-88v478h147q68 -256 86 -336h2q63 231 94 336h139v-478zM27 1061h88q8 -82 80 -82q65 0 65 55q0 26 -17.5 43.5t-62.5 36.5q-82 30 -110.5 66t-28.5 86
q0 59 39.5 96t112.5 37q71 0 108 -38t39 -108h-84q-8 72 -70 72q-55 0 -55 -49q0 -22 14.5 -38t57.5 -34q82 -29 114.5 -64.5t32.5 -95.5q0 -63 -42 -102t-118 -39q-71 0 -115.5 39t-47.5 119z" />
    <glyph glyph-name="trademark" unicode="&#x2122;" horiz-adv-x="858" 
d="M854 913h-92v156q0 139 10 252h-4q-13 -47 -51.5 -191t-59.5 -215h-86q-21 79 -57.5 230t-42.5 176h-4q10 -107 10 -289v-119h-90v478h148q68 -257 86 -334h2q15 68 94 334h137v-478zM-4 1391h344v-82h-123v-396h-96v396h-125v82z" />
    <glyph glyph-name="uni2126" unicode="&#x2126;" horiz-adv-x="1005" 
d="M510 1407q89 0 158 -30.5t114.5 -83t74.5 -129t41.5 -163t12.5 -190.5q0 -510 -188 -659h215v-152h-379v168q88 57 132 203.5t44 437.5q0 101 -9.5 176t-33.5 140.5t-70.5 100t-115.5 34.5q-121 0 -178.5 -124t-57.5 -335q0 -153 13.5 -267.5t38.5 -185t52 -111.5t64 -69
v-168h-370v152h200q-174 169 -174 649q0 131 23.5 238.5t72 191.5t130 130t190.5 46z" />
    <glyph glyph-name="estimated" unicode="&#x212e;" horiz-adv-x="1458" 
d="M1393 649h-1069q-7 0 -7 -8v-291q0 -17 15 -43q65 -112 169.5 -165.5t233.5 -53.5q128 0 218.5 46t158.5 145h170q-91 -143 -234.5 -221t-316.5 -78q-137 0 -259 52.5t-210 144t-139 221.5t-51 280q0 142 52.5 271.5t141 222t210 147.5t255.5 55q137 0 259 -51
t211 -141.5t140.5 -221.5t51.5 -284v-27zM1147 770v250q0 22 -17 47q-129 205 -395 205q-265 0 -403 -209q-15 -23 -15 -47v-246q0 -10 7 -10h815q8 0 8 10z" />
    <glyph glyph-name="onethird" unicode="&#x2153;" horiz-adv-x="1294" 
d="M256 2h-121l731 1352h121zM299 600h-133v606q-20 -10 -59.5 -18t-59.5 -8v100q98 16 162 80h90v-760zM897 348v107h43q119 0 119 100q0 98 -98 98q-38 0 -62.5 -18.5t-32 -38t-12.5 -47.5h-121q2 25 8.5 49.5t23.5 55t41.5 53t66.5 38t96 15.5q110 0 165.5 -54t55.5 -141
q0 -64 -32.5 -102.5t-72.5 -52.5q54 -17 94 -62.5t40 -124.5q0 -102 -64.5 -166.5t-189.5 -64.5q-71 0 -123 22.5t-78 59t-37.5 72t-13.5 73.5h125q17 -121 127 -121q118 0 118 127q0 123 -147 123h-39z" />
    <glyph glyph-name="twothirds" unicode="&#x2154;" horiz-adv-x="1441" 
d="M422 2h-121l731 1352h121zM524 600h-471v12q0 183 215 359q68 58 91.5 97t23.5 79q0 106 -96 106q-100 0 -109 -135h-121q3 107 61 174.5t177 67.5q115 0 169 -62t54 -149q0 -40 -8.5 -70.5t-33 -62.5t-45.5 -53t-69 -64q-74 -65 -109.5 -106.5t-45.5 -79.5h338z
M1049 350v107h43q118 0 118 100q0 98 -98 98q-29 0 -49.5 -9.5t-31.5 -27t-16 -32t-9 -35.5h-121q2 25 8.5 49.5t23 55t41 53t66.5 38t96 15.5q110 0 165.5 -54t55.5 -141q0 -64 -32 -102.5t-72 -52.5q53 -17 93 -62.5t40 -124.5q0 -102 -64.5 -166.5t-189.5 -64.5
q-71 0 -123 22.5t-78 59t-37.5 72t-13.5 73.5h125q17 -121 127 -121q59 0 89 33t30 94q0 123 -148 123h-38z" />
    <glyph glyph-name="oneeighth" unicode="&#x215b;" horiz-adv-x="1282" 
d="M248 2h-121l731 1352h121zM307 600h-133v606q-20 -10 -59.5 -18t-59.5 -8v100q98 16 162 80h90v-760zM950 -8q-117 0 -182.5 62.5t-65.5 162.5q0 70 34 116t83 68q-88 48 -88 162q0 87 59 143t171 56q106 0 162.5 -56t56.5 -143q0 -111 -90 -157q50 -21 83 -69t33 -118
q0 -103 -68 -165t-188 -62zM956 94q59 0 90 34.5t31 94.5q0 64 -32.5 95.5t-90.5 31.5q-55 0 -87.5 -33.5t-32.5 -93.5q0 -56 31.5 -92.5t90.5 -36.5zM956 662q-51 0 -75.5 -30t-24.5 -75q0 -46 24 -76t76 -30q99 0 99 104q0 107 -99 107z" />
    <glyph glyph-name="threeeighths" unicode="&#x215c;" horiz-adv-x="1413" 
d="M395 2h-121l732 1352h120zM1085 -8q-117 0 -182 62.5t-65 162.5q0 70 34 116t82 68q-88 48 -88 162q0 87 59 143t171 56q106 0 162.5 -56t56.5 -143q0 -111 -90 -157q50 -21 83 -69t33 -118q0 -103 -68 -165t-188 -62zM1092 94q59 0 89.5 34.5t30.5 94.5q0 64 -32 95.5
t-90 31.5q-55 0 -88 -33.5t-33 -93.5q0 -55 32 -92t91 -37zM1092 662q-51 0 -76 -30t-25 -75q0 -46 24.5 -76t76.5 -30q98 0 98 104q0 107 -98 107zM223 948v107h43q119 0 119 100q0 98 -98 98q-38 0 -62.5 -18.5t-32 -38t-12.5 -47.5h-121q2 25 8.5 49.5t23.5 55t41.5 53
t66.5 38t96 15.5q110 0 165.5 -54t55.5 -141q0 -64 -32 -102.5t-72 -52.5q53 -17 93 -62.5t40 -124.5q0 -102 -64.5 -166.5t-189.5 -64.5q-71 0 -123 22.5t-78 59t-37.5 72t-13.5 73.5h125q17 -121 127 -121q59 0 89 33t30 94q0 123 -148 123h-39z" />
    <glyph glyph-name="fiveeighths" unicode="&#x215d;" horiz-adv-x="1452" 
d="M424 2h-121l731 1352h121zM539 1352l-17 -109h-289q-7 -99 -20 -194q47 51 139 51q103 0 160 -63.5t57 -178.5q0 -116 -66 -191t-192 -75q-116 0 -178 61t-67 158h127q15 -113 120 -113q63 0 92 41.5t29 112.5q0 74 -27 109.5t-90 35.5q-80 0 -118 -77l-119 18
q29 177 49 414h410zM1114 -10q-117 0 -182.5 62.5t-65.5 162.5q0 70 34 116t83 68q-88 48 -88 162q0 87 58.5 143t170.5 56q106 0 162.5 -56t56.5 -143q0 -112 -90 -158q50 -21 83.5 -68.5t33.5 -117.5q0 -103 -68 -165t-188 -62zM1120 92q59 0 90 34.5t31 94.5
q0 64 -32.5 95.5t-90.5 31.5q-55 0 -88 -33.5t-33 -93.5q0 -55 32 -92t91 -37zM1120 659q-51 0 -75.5 -29.5t-24.5 -74.5q0 -46 24 -76t76 -30q99 0 99 104q0 106 -99 106z" />
    <glyph glyph-name="seveneighths" unicode="&#x215e;" horiz-adv-x="1329" 
d="M266 2h-121l732 1352h120zM999 -10q-117 0 -182 62.5t-65 162.5q0 70 34 116t82 68q-88 48 -88 162q0 87 59 143t171 56q106 0 162.5 -56t56.5 -143q0 -112 -90 -158q50 -21 83 -68.5t33 -117.5q0 -103 -68 -165t-188 -62zM1006 92q59 0 89.5 34.5t30.5 94.5
q0 64 -32 95.5t-90 31.5q-55 0 -88 -33.5t-33 -93.5q0 -55 32 -92t91 -37zM1006 659q-51 0 -76 -29.5t-25 -74.5q0 -46 24.5 -76t76.5 -30q98 0 98 104q0 106 -98 106zM57 1354h475v-97q-83 -122 -154.5 -296.5t-101.5 -358.5h-139q28 180 107 363.5t147 275.5h-334v113z
" />
    <glyph glyph-name="uni2190" unicode="&#x2190;" horiz-adv-x="1372" 
d="M1311 639h-1024l532 -533l-88 -96l-670 692v5l672 700l84 -98l-530 -541h1024v-129z" />
    <glyph glyph-name="arrowup" unicode="&#x2191;" horiz-adv-x="1388" 
d="M625 12v1162l-473 -529l-91 88l627 674h4l635 -674l-96 -88l-475 529v-1162h-131z" />
    <glyph glyph-name="uni2192" unicode="&#x2192;" horiz-adv-x="1372" 
d="M61 778h1024l-532 533l88 96l670 -692v-4l-672 -701l-84 99l530 540h-1024v129z" />
    <glyph glyph-name="arrowdown" unicode="&#x2193;" horiz-adv-x="1388" 
d="M764 1378v-1161l473 528l90 -88l-627 -673h-4l-635 673l97 88l475 -528v1161h131z" />
    <glyph glyph-name="partialdiff" unicode="&#x2202;" horiz-adv-x="882" 
d="M152 1260l-2 139q46 8 114 8q273 0 400 -202.5t127 -618.5q-2 -314 -85.5 -459t-285.5 -145q-171 0 -255.5 121.5t-84.5 334.5q0 202 90.5 318t247.5 116q146 0 198 -94v19q-2 69 -12.5 130.5t-37 125t-66 108.5t-105 74t-149.5 29q-62 0 -94 -4zM432 119q96 0 141 80.5
t45 249.5q0 144 -44 215t-140 71q-86 0 -136 -70.5t-50 -226.5q0 -319 184 -319z" />
    <glyph glyph-name="uni2206" unicode="&#x2206;" horiz-adv-x="978" 
d="M934 0h-887l-2 113l332 1278h213l344 -1278v-113zM217 152h531l-191 739q-54 207 -80 338h-2q-16 -110 -74 -342z" />
    <glyph glyph-name="product" unicode="&#x220f;" horiz-adv-x="1058" 
d="M131 1391h795v-1551h-172v1397h-451v-1397h-172v1551z" />
    <glyph glyph-name="summation" unicode="&#x2211;" horiz-adv-x="811" 
d="M768 -160h-752v117l363 661l-342 650v123h700v-154h-501l323 -606l-344 -637h576z" />
    <glyph glyph-name="minus" unicode="&#x2212;" horiz-adv-x="1081" 
d="M977 444h-875v136h875v-136z" />
    <glyph glyph-name="uni2215" unicode="&#x2215;" horiz-adv-x="247" 
d="M-182 0h-121l731 1352h121z" />
    <glyph glyph-name="uni2219" unicode="&#x2219;" horiz-adv-x="321" 
d="M246 408h-170v288h170v-288z" />
    <glyph glyph-name="radical" unicode="&#x221a;" horiz-adv-x="1015" 
d="M1001 1700l-372 -2030h-125l-266 865l-158 -64l-37 127l301 119q182 -619 211 -801q18 260 305 1784h141z" />
    <glyph glyph-name="infinity" unicode="&#x221e;" horiz-adv-x="1394" 
d="M358 242q-127 0 -207.5 83.5t-80.5 215.5q0 127 83 214t218 87q46 0 90 -13t75.5 -29t70 -48t58.5 -52t58 -59q51 51 80.5 77.5t77 60t96.5 48.5t106 15q130 0 209.5 -83.5t79.5 -217.5q0 -127 -83.5 -212.5t-217.5 -86.5q-54 0 -103.5 16t-94.5 49t-77 63t-77 79
l-16 -16q-38 -38 -58.5 -57.5t-58.5 -49.5t-68 -45t-72.5 -27t-87.5 -12zM369 379q40 0 75.5 12t69.5 38t57.5 49t59.5 63q-80 84 -113 110q-71 56 -143 56q-74 0 -121 -46t-47 -120q0 -73 47 -117.5t115 -44.5zM1071 379q85 0 124.5 48t39.5 114q0 71 -43 118.5t-119 47.5
q-71 0 -129.5 -37.5t-136.5 -120.5q44 -45 63.5 -63.5t58 -50t72.5 -44t70 -12.5z" />
    <glyph glyph-name="integral" unicode="&#x222b;" horiz-adv-x="555" 
d="M549 1649l-14 -148q-40 8 -74 8t-57 -12.5t-36.5 -32.5t-20 -59.5t-8.5 -79.5t-1 -106q1 -132 15 -540.5t14 -549.5q0 -43 -0.5 -69t-2 -66t-5 -66t-9.5 -60.5t-15.5 -56.5t-22 -48t-31 -42t-41 -30t-52.5 -20.5t-65 -6.5q-78 0 -119 23l23 153q40 -12 86 -12q39 0 62 21
t32.5 60.5t12 96.5t-0.5 129q-1 141 -14 538t-15 531q0 51 1 86t6.5 87.5t15 88.5t28 76.5t44.5 65t66 41t91 16.5q71 0 107 -16z" />
    <glyph glyph-name="approxequal" unicode="&#x2248;" horiz-adv-x="1083" 
d="M227 225h-121v33q0 207 195 207q56 0 123 -18.5t119 -41t114 -41t109 -18.5q44 0 62 22t18 72v17h121v-33q0 -116 -50 -162.5t-141 -46.5q-77 0 -165.5 29.5t-167.5 58.5t-134 29q-82 0 -82 -96v-11zM229 573h-123v31q0 209 193 209q58 0 125 -18.5t118.5 -41t113.5 -41
t110 -18.5q43 0 61.5 23t18.5 74v14h121v-29q0 -119 -52 -166t-145 -47q-60 0 -128 18.5t-118 40t-110 40t-105 18.5q-80 0 -80 -92v-15z" />
    <glyph glyph-name="notequal" unicode="&#x2260;" horiz-adv-x="1079" 
d="M829 958l-94 -182h242v-135h-311l-129 -254h440v-135h-510l-94 -182h-123l94 182h-242v135h312l129 254h-441v135h510l95 182h122z" />
    <glyph glyph-name="lessequal" unicode="&#x2264;" horiz-adv-x="1071" 
d="M125 614v131l821 375v-147l-663 -291l663 -297v-147zM946 0h-821v133h821v-133z" />
    <glyph glyph-name="greaterequal" unicode="&#x2265;" horiz-adv-x="1071" 
d="M946 745v-133l-821 -374v149l666 289l-666 297v147zM946 0h-821v133h821v-133z" />
    <glyph glyph-name="uni25A0" unicode="&#x25a0;" horiz-adv-x="651" 
d="M123 324v403h403v-403h-403z" />
    <glyph glyph-name="triagup" unicode="&#x25b2;" horiz-adv-x="1095" 
d="M1028 14h-960l471 1139h4z" />
    <glyph glyph-name="uni25B3" unicode="&#x25b3;" horiz-adv-x="1095" 
d="M1028 14h-960l471 1139h4zM256 141h569l-286 711z" />
    <glyph glyph-name="uni25B6" unicode="&#x25b6;" horiz-adv-x="1236" 
d="M113 92v963l1061 -473v-4z" />
    <glyph glyph-name="uni25B7" unicode="&#x25b7;" horiz-adv-x="1236" 
d="M111 92v963l1063 -473v-4zM887 580l-645 280v-565z" />
    <glyph glyph-name="triagdn" unicode="&#x25bc;" horiz-adv-x="1095" 
d="M68 1122h960l-471 -1138h-4z" />
    <glyph glyph-name="uni25BD" unicode="&#x25bd;" horiz-adv-x="1095" 
d="M68 1128h960l-471 -1140h-4zM840 999h-570l285 -708z" />
    <glyph glyph-name="uni25C0" unicode="&#x25c0;" horiz-adv-x="1236" 
d="M1122 1055v-963l-1061 473v4z" />
    <glyph glyph-name="uni25C1" unicode="&#x25c1;" horiz-adv-x="1236" 
d="M1122 1055v-963l-1061 473v4zM993 850l-645 -283l645 -282v565z" />
    <glyph glyph-name="uni25C6" unicode="&#x25c6;" horiz-adv-x="733" 
d="M82 524l283 293l284 -301l-278 -289z" />
    <glyph glyph-name="uni25C9" unicode="&#x25c9;" horiz-adv-x="897" 
d="M451 645q53 0 86.5 -36t33.5 -87q0 -57 -33.5 -95t-86.5 -38q-54 0 -87.5 38t-33.5 95q0 51 33.5 87t87.5 36zM805 522q-2 -158 -102.5 -265t-251.5 -107q-152 0 -256 107.5t-101 264.5q-3 153 102 261t257 108q149 0 250.5 -108.5t101.5 -260.5zM451 786
q-106 0 -174.5 -77.5t-65.5 -186.5q0 -115 67.5 -191.5t172.5 -76.5q106 0 173.5 76.5t67.5 191.5q0 109 -69 186.5t-172 77.5z" />
    <glyph glyph-name="lozenge" unicode="&#x25ca;" horiz-adv-x="976" 
d="M754 668l-215 467q-22 43 -50 118h-4q-25 -67 -51 -118l-211 -459l213 -471q37 -72 45 -119h8q9 35 50 115zM895 672l-344 -723h-135l-334 721l340 723h137z" />
    <glyph glyph-name="uni2610" unicode="&#x2610;" horiz-adv-x="1628" 
d="M225 1350h1239v-1284l-65 -66h-1235v1290zM236 1255v-1175h1126v1175h-1126z" />
    <glyph glyph-name="uni2611" unicode="&#x2611;" horiz-adv-x="1628" 
d="M225 1350h1239v-1284l-65 -66h-1235v1290zM236 1255v-1175h1126v1175h-1126zM1102 1137h141q-250 -365 -565 -947h-47q-103 149 -232 433l117 75q90 -225 148 -329q190 393 438 768z" />
    <glyph glyph-name="uni2713" unicode="&#x2713;" horiz-adv-x="1214" 
d="M1016 1401h174q-370 -605 -774 -1442h-60q-180 304 -301 610l148 86q115 -343 190 -477q321 724 623 1223z" />
    <glyph glyph-name="uni2752" unicode="&#x2752;" horiz-adv-x="909" 
d="M125 713l149 153h510l-2 -544l-139 -150h-518v541zM225 688v-409h389l-2 409h-387z" />
    <glyph glyph-name="fi" unicode="&#xfb01;" horiz-adv-x="870" 
d="M305 0h-168v901h-133v141h133v136q0 131 59.5 211.5t194.5 80.5q48 0 88 -12v-145q-36 8 -67 8q-58 0 -82.5 -36.5t-24.5 -113.5v-129h162v-141h-162v-901zM584 0v1042h168v-1042h-168zM752 1237h-168v221h168v-221z" />
    <glyph glyph-name="fl" unicode="&#xfb02;" horiz-adv-x="870" 
d="M305 0h-168v901h-133v141h133v136q0 131 59.5 211.5t194.5 80.5q48 0 88 -12v-145q-36 8 -67 8q-58 0 -82.5 -36.5t-24.5 -113.5v-129h162v-141h-162v-901zM754 0h-168v1458h168v-1458z" />
    <glyph glyph-name="uni00470303" horiz-adv-x="991" 
d="M887 766v-766h-133q-11 72 -11 143q-40 -80 -104 -121.5t-174 -41.5q-88 0 -154.5 35t-109.5 96t-70 152.5t-38 195t-11 233.5q0 719 438 719q70 0 127.5 -17.5t94.5 -43.5t65 -65t42 -72t23 -74.5t11.5 -64t3.5 -48.5h-170q-19 236 -203 236q-254 0 -254 -568
q0 -136 11 -235t37.5 -177t74 -117.5t117.5 -39.5q126 0 172.5 101.5t46.5 320.5v69h-232v150h400zM336 1518h-115v41q0 90 40 131t106 41q55 0 145.5 -40t114.5 -40t36.5 13.5t12.5 49.5v21h115v-31q0 -188 -150 -188q-53 0 -140 39.5t-116 39.5q-49 0 -49 -53v-24z" />
    <glyph glyph-name="uni00670303" horiz-adv-x="911" 
d="M788 739v-669q0 -89 -9.5 -156.5t-34.5 -128t-66 -99t-107 -61t-155 -22.5q-79 0 -140 19.5t-97 48.5t-59.5 69.5t-32.5 76t-11 74.5h170q2 -23 10 -45t25.5 -47t54 -40t86.5 -15q117 0 159 79.5t42 246.5v86q-58 -152 -240 -152q-158 0 -236.5 129t-78.5 377
q0 271 91 411t247 140q96 0 148.5 -38t68.5 -93q0 66 8 112h160q-3 -83 -3 -303zM242 512q0 -362 188 -362q109 0 152 98.5t43 292.5q0 75 -4 129t-16 102t-32 77.5t-53 46.5t-78 17q-98 0 -149 -101.5t-51 -299.5zM305 1210h-117v47q0 166 138 166q44 0 90 -20.5t84 -41
t61 -20.5q22 0 32.5 15.5t10.5 56.5v14h115v-38q0 -98 -37 -139.5t-104 -41.5q-41 0 -85.5 21t-83 42t-63.5 21q-41 0 -41 -59v-23z" />
    <glyph glyph-name="zero.slash" horiz-adv-x="899" 
d="M453 1368q186 0 272 -158.5t86 -519.5q0 -369 -83 -539.5t-279 -170.5t-279.5 172t-83.5 538q0 188 24.5 320.5t73 210.5t114 112.5t155.5 34.5zM451 1223q-74 0 -117 -49t-63.5 -163.5t-20.5 -314.5q0 -173 14 -282l324 721q-45 88 -137 88zM449 123q114 0 156 133.5
t42 435.5q0 172 -16 297l-332 -739q47 -127 150 -127z" />
    <glyph glyph-name="zero.slashtab" horiz-adv-x="894" 
d="M451 1368q186 0 272 -158.5t86 -519.5q0 -368 -83.5 -539t-279.5 -171t-279 172t-83 538q0 188 24.5 320.5t73 210.5t114 112.5t155.5 34.5zM449 1223q-74 0 -117 -49t-63.5 -163.5t-20.5 -314.5q0 -173 14 -282l324 721q-45 88 -137 88zM446 123q114 0 156.5 133.5
t42.5 435.5q0 172 -16 297l-332 -739q47 -127 149 -127z" />
    <glyph glyph-name="zero.tab" horiz-adv-x="894" 
d="M453 1368q125 0 202 -66.5t115.5 -215.5t38.5 -396q0 -378 -83.5 -544t-279.5 -166q-198 0 -280 170.5t-82 539.5q0 154 16.5 270t47 193.5t77 125.5t102 68.5t126.5 20.5zM449 1223q-72 0 -114 -50.5t-61.5 -165t-19.5 -311.5q0 -120 5 -206t17.5 -159t34 -116.5
t55 -67.5t80.5 -24q113 0 153 132t40 437q0 297 -40.5 414t-149.5 117z" />
    <glyph glyph-name="one.tab" horiz-adv-x="894" 
d="M764 0h-631v147h238v1002q-43 -16 -108 -30.5t-107 -14.5v129q72 10 144 43t124 78h115v-1207h225v-147z" />
    <glyph glyph-name="two.tab" horiz-adv-x="894" 
d="M791 0h-711v10q1 135 75 277t232 315q133 147 175 222t42 184q0 221 -164 221q-90 0 -132.5 -65t-47.5 -189h-164q1 79 20 147t58.5 124.5t108 89t159.5 32.5q175 0 255.5 -99.5t80.5 -264.5q0 -130 -48.5 -221t-186.5 -238q-223 -237 -269 -398h541z" />
    <glyph glyph-name="three.tab" horiz-adv-x="894" 
d="M256 1020h-156q1 48 10 93t32.5 92.5t59.5 82.5t95.5 57.5t134.5 22.5q163 0 240.5 -91.5t77.5 -246.5q0 -229 -164 -289v-4q205 -67 205 -340q0 -84 -18 -154.5t-58 -131t-114 -95t-177 -34.5q-91 0 -159 28.5t-107.5 79t-59.5 112t-22 134.5h162q2 -41 13 -77t32.5 -68
t58.5 -51t86 -19q193 0 193 272q0 148 -60.5 207t-181.5 59h-60v140h58q104 0 154.5 49.5t50.5 171.5q0 209 -158 209q-155 0 -168 -209z" />
    <glyph glyph-name="four.tab" horiz-adv-x="894" 
d="M702 0h-159v352h-484v142l428 858h215v-858h132l-17 -142h-115v-352zM543 494v354q0 202 6 358q-16 -44 -44.5 -109.5t-69 -152.5t-70.5 -150t-79 -165t-65 -135h322z" />
    <glyph glyph-name="five.tab" horiz-adv-x="894" 
d="M760 1352l-21 -148h-424q-5 -72 -20 -232.5t-16 -168.5q64 88 208 88q158 0 238 -113.5t80 -304.5q0 -491 -371 -491q-91 0 -158.5 28.5t-106.5 79.5t-58.5 111.5t-22.5 134.5h168q3 -33 8 -58.5t17.5 -56.5t31 -51.5t51.5 -34.5t76 -14q72 0 116 46t59.5 116.5
t15.5 171.5q0 68 -8.5 119.5t-28.5 93t-56.5 63t-88.5 21.5q-78 0 -121 -42.5t-68 -119.5l-156 24q16 111 38.5 343t33.5 395h584z" />
    <glyph glyph-name="six.tab" horiz-adv-x="894" 
d="M780 1065h-157q-14 96 -62 135q-38 31 -96 31q-46 0 -81.5 -22t-57 -60.5t-36 -85t-20.5 -101t-9 -103t-5 -96.5v-5.5v-5.5q32 59 91.5 97t150.5 38q151 0 232 -113t81 -315q0 -100 -19 -183t-60 -151t-112.5 -106.5t-168.5 -38.5q-88 0 -152.5 32.5t-104.5 88t-64 141.5
t-33 180t-9 217q0 138 11 246t38.5 201t71 153.5t110 94.5t154.5 34q73 0 129.5 -23t88.5 -55.5t52.5 -76.5t28 -79t8.5 -69zM451 119q92 0 141 81t49 242q0 151 -44 227t-142 76q-101 0 -150 -70.5t-49 -178.5q0 -74 9 -136.5t29.5 -119t60.5 -89t96 -32.5z" />
    <glyph glyph-name="seven.tab" horiz-adv-x="894" 
d="M104 1352h680v-135q-136 -239 -241 -564t-150 -653h-176q41 309 155.5 647t241.5 555h-510v150z" />
    <glyph glyph-name="eight.tab" horiz-adv-x="894" 
d="M432 -18q-171 0 -260.5 109.5t-89.5 291.5q0 76 16 137t43.5 100t54 63t56.5 40q-137 80 -137 289q0 99 35 177.5t112.5 127.5t186.5 49q153 0 236 -94t83 -246q0 -125 -40 -198t-101 -101q172 -79 172 -346q0 -181 -93.5 -290t-273.5 -109zM440 119q191 0 191 264
q0 136 -47 201t-146 65q-101 0 -144.5 -68t-43.5 -194q0 -123 46.5 -195.5t143.5 -72.5zM440 1231q-84 0 -122.5 -60t-38.5 -153q0 -110 38 -168.5t125 -58.5q83 0 123.5 53.5t40.5 169.5q0 98 -40 157.5t-126 59.5z" />
    <glyph glyph-name="nine.tab" horiz-adv-x="894" 
d="M94 274h164q4 -22 8.5 -39t16 -40t27.5 -37.5t44.5 -25.5t65.5 -11q35 0 63 13t48 40.5t35 56.5t24.5 76t15.5 82t9 91t4 88t2 87q-64 -131 -228 -131q-147 0 -229 105t-82 297q0 213 93 327.5t259 114.5q120 0 195.5 -52.5t117 -180.5t41.5 -340q0 -446 -81.5 -629.5
t-294.5 -183.5q-59 0 -108 13.5t-80.5 33.5t-56 50t-37 54.5t-21.5 57.5t-11 47.5t-4 35.5zM434 1227q-90 0 -137 -73t-47 -214q0 -276 182 -276q93 0 138.5 67.5t45.5 188.5q0 52 -4 93t-15.5 83t-31 69t-53 44.5t-78.5 17.5z" />
    </font>
</defs>
</svg>
